<?xml version="1.0" encoding="UTF-8" standalone="no"?><svg xmlns="http://www.w3.org/2000/svg" xmlns:xlink="http://www.w3.org/1999/xlink" clip-rule="evenodd" stroke-miterlimit="4.00" viewBox="0 0 537 214"><desc>SVG generated by Keynote</desc><defs></defs><g transform="matrix(1.00, 0.00, -0.00, -1.00, 0.0, 214.0)"><text xml:space="preserve" font-family="LucidaGrande" font-size="17.2" fill="#CACACA" transform="matrix(1.00, 0.00, -0.00, -1.00, 0.0, 195.5)">‣</text><text xml:space="preserve" font-family="AvenirNext-Regular" font-size="23.0" fill="#FFFFFF" transform="matrix(1.00, 0.00, -0.00, -1.00, 34.0, 195.0)">L</text><text xml:space="preserve" font-family="AvenirNext-Regular" font-size="23.0" fill="#FFFFFF" transform="matrix(1.00, 0.00, -0.00, -1.00, 45.3, 195.0)">o</text><text xml:space="preserve" font-family="AvenirNext-Regular" font-size="23.0" fill="#FFFFFF" transform="matrix(1.00, 0.00, -0.00, -1.00, 59.4, 195.0)">o</text><text xml:space="preserve" font-family="AvenirNext-Regular" font-size="23.0" fill="#FFFFFF" transform="matrix(1.00, 0.00, -0.00, -1.00, 73.4, 195.0)">k</text><text xml:space="preserve" font-family="AvenirNext-Regular" font-size="23.0" fill="#FFFFFF" transform="matrix(1.00, 0.00, -0.00, -1.00, 85.2, 195.0)"> </text><text xml:space="preserve" font-family="AvenirNext-Regular" font-size="23.0" fill="#FFFFFF" transform="matrix(1.00, 0.00, -0.00, -1.00, 90.9, 195.0)">f</text><text xml:space="preserve" font-family="AvenirNext-Regular" font-size="23.0" fill="#FFFFFF" transform="matrix(1.00, 0.00, -0.00, -1.00, 97.7, 195.0)">o</text><text xml:space="preserve" font-family="AvenirNext-Regular" font-size="23.0" fill="#FFFFFF" transform="matrix(1.00, 0.00, -0.00, -1.00, 111.7, 195.0)">r</text><text xml:space="preserve" font-family="AvenirNext-Regular" font-size="23.0" fill="#FFFFFF" transform="matrix(1.00, 0.00, -0.00, -1.00, 120.0, 195.0)"> </text><text xml:space="preserve" font-family="AvenirNext-Regular" font-size="23.0" fill="#FFFFFF" transform="matrix(1.00, 0.00, -0.00, -1.00, 125.8, 195.0)">d</text><text xml:space="preserve" font-family="AvenirNext-Regular" font-size="23.0" fill="#FFFFFF" transform="matrix(1.00, 0.00, -0.00, -1.00, 140.4, 195.0)">e</text><text xml:space="preserve" font-family="AvenirNext-Regular" font-size="23.0" fill="#FFFFFF" transform="matrix(1.00, 0.00, -0.00, -1.00, 153.6, 195.0)">p</text><text xml:space="preserve" font-family="AvenirNext-Regular" font-size="23.0" fill="#FFFFFF" transform="matrix(1.00, 0.00, -0.00, -1.00, 168.2, 195.0)">e</text><text xml:space="preserve" font-family="AvenirNext-Regular" font-size="23.0" fill="#FFFFFF" transform="matrix(1.00, 0.00, -0.00, -1.00, 181.3, 195.0)">n</text><text xml:space="preserve" font-family="AvenirNext-Regular" font-size="23.0" fill="#FFFFFF" transform="matrix(1.00, 0.00, -0.00, -1.00, 194.7, 195.0)">d</text><text xml:space="preserve" font-family="AvenirNext-Regular" font-size="23.0" fill="#FFFFFF" transform="matrix(1.00, 0.00, -0.00, -1.00, 209.4, 195.0)">e</text><text xml:space="preserve" font-family="AvenirNext-Regular" font-size="23.0" fill="#FFFFFF" transform="matrix(1.00, 0.00, -0.00, -1.00, 222.5, 195.0)">n</text><text xml:space="preserve" font-family="AvenirNext-Regular" font-size="23.0" fill="#FFFFFF" transform="matrix(1.00, 0.00, -0.00, -1.00, 235.9, 195.0)">c</text><text xml:space="preserve" font-family="AvenirNext-Regular" font-size="23.0" fill="#FFFFFF" transform="matrix(1.00, 0.00, -0.00, -1.00, 247.4, 195.0)">y</text><text xml:space="preserve" font-family="AvenirNext-Regular" font-size="23.0" fill="#FFFFFF" transform="matrix(1.00, 0.00, -0.00, -1.00, 258.6, 195.0)"> </text><text xml:space="preserve" font-family="AvenirNext-Regular" font-size="23.0" fill="#FFFFFF" transform="matrix(1.00, 0.00, -0.00, -1.00, 264.3, 195.0)">d</text><text xml:space="preserve" font-family="AvenirNext-Regular" font-size="23.0" fill="#FFFFFF" transform="matrix(1.00, 0.00, -0.00, -1.00, 279.0, 195.0)">e</text><text xml:space="preserve" font-family="AvenirNext-Regular" font-size="23.0" fill="#FFFFFF" transform="matrix(1.00, 0.00, -0.00, -1.00, 292.2, 195.0)">c</text><text xml:space="preserve" font-family="AvenirNext-Regular" font-size="23.0" fill="#FFFFFF" transform="matrix(1.00, 0.00, -0.00, -1.00, 303.7, 195.0)">l</text><text xml:space="preserve" font-family="AvenirNext-Regular" font-size="23.0" fill="#FFFFFF" transform="matrix(1.00, 0.00, -0.00, -1.00, 309.4, 195.0)">a</text><text xml:space="preserve" font-family="AvenirNext-Regular" font-size="23.0" fill="#FFFFFF" transform="matrix(1.00, 0.00, -0.00, -1.00, 321.7, 195.0)">r</text><text xml:space="preserve" font-family="AvenirNext-Regular" font-size="23.0" fill="#FFFFFF" transform="matrix(1.00, 0.00, -0.00, -1.00, 329.7, 195.0)">a</text><text xml:space="preserve" font-family="AvenirNext-Regular" font-size="23.0" fill="#FFFFFF" transform="matrix(1.00, 0.00, -0.00, -1.00, 341.8, 195.0)">t</text><text xml:space="preserve" font-family="AvenirNext-Regular" font-size="23.0" fill="#FFFFFF" transform="matrix(1.00, 0.00, -0.00, -1.00, 349.1, 195.0)">i</text><text xml:space="preserve" font-family="AvenirNext-Regular" font-size="23.0" fill="#FFFFFF" transform="matrix(1.00, 0.00, -0.00, -1.00, 354.8, 195.0)">o</text><text xml:space="preserve" font-family="AvenirNext-Regular" font-size="23.0" fill="#FFFFFF" transform="matrix(1.00, 0.00, -0.00, -1.00, 368.9, 195.0)">n</text><text xml:space="preserve" font-family="AvenirNext-Regular" font-size="23.0" fill="#FFFFFF" transform="matrix(1.00, 0.00, -0.00, -1.00, 382.2, 195.0)">s</text><text xml:space="preserve" font-family="AvenirNext-Regular" font-size="23.0" fill="#FFFFFF" transform="matrix(1.00, 0.00, -0.00, -1.00, 392.5, 195.0)"> </text><text xml:space="preserve" font-family="LucidaGrande" font-size="17.2" fill="#CACACA" transform="matrix(1.00, 0.00, -0.00, -1.00, 37.0, 148.0)">‣</text><text xml:space="preserve" font-family="FiraCode-Regular" font-size="23.0" fill="#DE7D67" transform="matrix(1.00, 0.00, -0.00, -1.00, 71.0, 148.0)">r</text><text xml:space="preserve" font-family="FiraCode-Regular" font-size="23.0" fill="#DE7D67" transform="matrix(1.00, 0.00, -0.00, -1.00, 84.8, 148.0)">e</text><text xml:space="preserve" font-family="FiraCode-Regular" font-size="23.0" fill="#DE7D67" transform="matrix(1.00, 0.00, -0.00, -1.00, 98.6, 148.0)">q</text><text xml:space="preserve" font-family="FiraCode-Regular" font-size="23.0" fill="#DE7D67" transform="matrix(1.00, 0.00, -0.00, -1.00, 112.4, 148.0)">u</text><text xml:space="preserve" font-family="FiraCode-Regular" font-size="23.0" fill="#DE7D67" transform="matrix(1.00, 0.00, -0.00, -1.00, 126.2, 148.0)">i</text><text xml:space="preserve" font-family="FiraCode-Regular" font-size="23.0" fill="#DE7D67" transform="matrix(1.00, 0.00, -0.00, -1.00, 140.0, 148.0)">r</text><text xml:space="preserve" font-family="FiraCode-Regular" font-size="23.0" fill="#DE7D67" transform="matrix(1.00, 0.00, -0.00, -1.00, 153.8, 148.0)">e</text><text xml:space="preserve" font-family="AvenirNext-Regular" font-size="23.0" fill="#FFFFFF" transform="matrix(1.00, 0.00, -0.00, -1.00, 167.6, 148.0)"> </text><text xml:space="preserve" font-family="AvenirNext-Regular" font-size="23.0" fill="#FFFFFF" transform="matrix(1.00, 0.00, -0.00, -1.00, 173.4, 148.0)">o</text><text xml:space="preserve" font-family="AvenirNext-Regular" font-size="23.0" fill="#FFFFFF" transform="matrix(1.00, 0.00, -0.00, -1.00, 187.4, 148.0)">r</text><text xml:space="preserve" font-family="AvenirNext-Regular" font-size="23.0" fill="#FFFFFF" transform="matrix(1.00, 0.00, -0.00, -1.00, 195.7, 148.0)"> </text><text xml:space="preserve" font-family="FiraCode-Regular" font-size="23.0" fill="#DE7D67" transform="matrix(1.00, 0.00, -0.00, -1.00, 201.4, 148.0)">i</text><text xml:space="preserve" font-family="FiraCode-Regular" font-size="23.0" fill="#DE7D67" transform="matrix(1.00, 0.00, -0.00, -1.00, 215.2, 148.0)">m</text><text xml:space="preserve" font-family="FiraCode-Regular" font-size="23.0" fill="#DE7D67" transform="matrix(1.00, 0.00, -0.00, -1.00, 229.0, 148.0)">p</text><text xml:space="preserve" font-family="FiraCode-Regular" font-size="23.0" fill="#DE7D67" transform="matrix(1.00, 0.00, -0.00, -1.00, 242.8, 148.0)">o</text><text xml:space="preserve" font-family="FiraCode-Regular" font-size="23.0" fill="#DE7D67" transform="matrix(1.00, 0.00, -0.00, -1.00, 256.6, 148.0)">r</text><text xml:space="preserve" font-family="FiraCode-Regular" font-size="23.0" fill="#DE7D67" transform="matrix(1.00, 0.00, -0.00, -1.00, 270.4, 148.0)">t</text><text xml:space="preserve" font-family="FiraCode-Regular" font-size="23.0" fill="#DE7D67" transform="matrix(1.00, 0.00, -0.00, -1.00, 284.2, 148.0)"> </text><text xml:space="preserve" font-family="LucidaGrande" font-size="17.2" fill="#CACACA" transform="matrix(1.00, 0.00, -0.00, -1.00, 37.0, 100.4)">‣</text><text xml:space="preserve" font-family="AvenirNext-Regular" font-size="23.0" fill="#FFFFFF" transform="matrix(1.00, 0.00, -0.00, -1.00, 71.0, 100.0)">e</text><text xml:space="preserve" font-family="AvenirNext-Regular" font-size="23.0" fill="#FFFFFF" transform="matrix(1.00, 0.00, -0.00, -1.00, 84.0, 100.0)">x</text><text xml:space="preserve" font-family="AvenirNext-Regular" font-size="23.0" fill="#FFFFFF" transform="matrix(1.00, 0.00, -0.00, -1.00, 95.2, 100.0)">.</text><text xml:space="preserve" font-family="FiraCode-Regular" font-size="23.0" fill="#DE7D67" transform="matrix(1.00, 0.00, -0.00, -1.00, 101.1, 100.0)"> </text><text xml:space="preserve" font-family="FiraCode-Regular" font-size="23.0" fill="#DE7D67" transform="matrix(1.00, 0.00, -0.00, -1.00, 114.9, 100.0)">r</text><text xml:space="preserve" font-family="FiraCode-Regular" font-size="23.0" fill="#DE7D67" transform="matrix(1.00, 0.00, -0.00, -1.00, 128.7, 100.0)">e</text><text xml:space="preserve" font-family="FiraCode-Regular" font-size="23.0" fill="#DE7D67" transform="matrix(1.00, 0.00, -0.00, -1.00, 142.5, 100.0)">q</text><text xml:space="preserve" font-family="FiraCode-Regular" font-size="23.0" fill="#DE7D67" transform="matrix(1.00, 0.00, -0.00, -1.00, 156.3, 100.0)">u</text><text xml:space="preserve" font-family="FiraCode-Regular" font-size="23.0" fill="#DE7D67" transform="matrix(1.00, 0.00, -0.00, -1.00, 170.1, 100.0)">i</text><text xml:space="preserve" font-family="FiraCode-Regular" font-size="23.0" fill="#DE7D67" transform="matrix(1.00, 0.00, -0.00, -1.00, 183.9, 100.0)">r</text><text xml:space="preserve" font-family="FiraCode-Regular" font-size="23.0" fill="#DE7D67" transform="matrix(1.00, 0.00, -0.00, -1.00, 197.7, 100.0)">e</text><text xml:space="preserve" font-family="FiraCode-Regular" font-size="23.0" fill="#DE7D67" transform="matrix(1.00, 0.00, -0.00, -1.00, 211.5, 100.0)"> </text><text xml:space="preserve" font-family="FiraCode-Regular" font-size="23.0" fill="#DE7D67" transform="matrix(1.00, 0.00, -0.00, -1.00, 225.3, 100.0)">f</text><text xml:space="preserve" font-family="FiraCode-Regular" font-size="23.0" fill="#DE7D67" transform="matrix(1.00, 0.00, -0.00, -1.00, 239.1, 100.0)">o</text><text xml:space="preserve" font-family="FiraCode-Regular" font-size="23.0" fill="#DE7D67" transform="matrix(1.00, 0.00, -0.00, -1.00, 252.9, 100.0)">o</text><text xml:space="preserve" font-family="FiraCode-Regular" font-size="23.0" fill="#DE7D67" transform="matrix(1.00, 0.00, -0.00, -1.00, 266.7, 100.0)"> </text><text xml:space="preserve" font-family="FiraCode-Regular" font-size="23.0" fill="#DE7D67" transform="matrix(1.00, 0.00, -0.00, -1.00, 280.5, 100.0)">f</text><text xml:space="preserve" font-family="FiraCode-Regular" font-size="23.0" fill="#DE7D67" transform="matrix(1.00, 0.00, -0.00, -1.00, 294.3, 100.0)">r</text><text xml:space="preserve" font-family="FiraCode-Regular" font-size="23.0" fill="#DE7D67" transform="matrix(1.00, 0.00, -0.00, -1.00, 308.1, 100.0)">o</text><text xml:space="preserve" font-family="FiraCode-Regular" font-size="23.0" fill="#DE7D67" transform="matrix(1.00, 0.00, -0.00, -1.00, 321.9, 100.0)">m</text><text xml:space="preserve" font-family="FiraCode-Regular" font-size="23.0" fill="#DE7D67" transform="matrix(1.00, 0.00, -0.00, -1.00, 335.7, 100.0)"> </text><text xml:space="preserve" font-family="FiraCode-Regular" font-size="23.0" fill="#DE7D67" transform="matrix(1.00, 0.00, -0.00, -1.00, 349.5, 100.0)">‘</text><text xml:space="preserve" font-family="FiraCode-Regular" font-size="23.0" fill="#DE7D67" transform="matrix(1.00, 0.00, -0.00, -1.00, 363.3, 100.0)">.</text><text xml:space="preserve" font-family="FiraCode-Regular" font-size="23.0" fill="#DE7D67" transform="matrix(1.00, 0.00, -0.00, -1.00, 377.1, 100.0)">/</text><text xml:space="preserve" font-family="FiraCode-Regular" font-size="23.0" fill="#DE7D67" transform="matrix(1.00, 0.00, -0.00, -1.00, 390.9, 100.0)">f</text><text xml:space="preserve" font-family="FiraCode-Regular" font-size="23.0" fill="#DE7D67" transform="matrix(1.00, 0.00, -0.00, -1.00, 404.7, 100.0)">o</text><text xml:space="preserve" font-family="FiraCode-Regular" font-size="23.0" fill="#DE7D67" transform="matrix(1.00, 0.00, -0.00, -1.00, 418.5, 100.0)">o</text><text xml:space="preserve" font-family="FiraCode-Regular" font-size="23.0" fill="#DE7D67" transform="matrix(1.00, 0.00, -0.00, -1.00, 432.3, 100.0)">’</text><text xml:space="preserve" font-family="FiraCode-Regular" font-size="23.0" fill="#DE7D67" transform="matrix(1.00, 0.00, -0.00, -1.00, 446.1, 100.0)">;</text><text xml:space="preserve" font-family="FiraCode-Regular" font-size="23.0" fill="#DE7D67" transform="matrix(1.00, 0.00, -0.00, -1.00, 459.9, 100.0)"> </text><text xml:space="preserve" font-family="LucidaGrande" font-size="17.2" fill="#CACACA" transform="matrix(1.00, 0.00, -0.00, -1.00, 37.0, 52.8)">‣</text><text xml:space="preserve" font-family="AvenirNext-Regular" font-size="23.0" fill="#FFFFFF" transform="matrix(1.00, 0.00, -0.00, -1.00, 71.0, 53.0)">W</text><text xml:space="preserve" font-family="AvenirNext-Regular" font-size="23.0" fill="#FFFFFF" transform="matrix(1.00, 0.00, -0.00, -1.00, 92.5, 53.0)">e</text><text xml:space="preserve" font-family="AvenirNext-Regular" font-size="23.0" fill="#FFFFFF" transform="matrix(1.00, 0.00, -0.00, -1.00, 105.7, 53.0)">b</text><text xml:space="preserve" font-family="AvenirNext-Regular" font-size="23.0" fill="#FFFFFF" transform="matrix(1.00, 0.00, -0.00, -1.00, 120.3, 53.0)">p</text><text xml:space="preserve" font-family="AvenirNext-Regular" font-size="23.0" fill="#FFFFFF" transform="matrix(1.00, 0.00, -0.00, -1.00, 134.9, 53.0)">a</text><text xml:space="preserve" font-family="AvenirNext-Regular" font-size="23.0" fill="#FFFFFF" transform="matrix(1.00, 0.00, -0.00, -1.00, 147.2, 53.0)">c</text><text xml:space="preserve" font-family="AvenirNext-Regular" font-size="23.0" fill="#FFFFFF" transform="matrix(1.00, 0.00, -0.00, -1.00, 158.7, 53.0)">k</text><text xml:space="preserve" font-family="AvenirNext-Regular" font-size="23.0" fill="#FFFFFF" transform="matrix(1.00, 0.00, -0.00, -1.00, 170.5, 53.0)"> </text><text xml:space="preserve" font-family="AvenirNext-Regular" font-size="23.0" fill="#FFFFFF" transform="matrix(1.00, 0.00, -0.00, -1.00, 176.2, 53.0)">s</text><text xml:space="preserve" font-family="AvenirNext-Regular" font-size="23.0" fill="#FFFFFF" transform="matrix(1.00, 0.00, -0.00, -1.00, 186.4, 53.0)">u</text><text xml:space="preserve" font-family="AvenirNext-Regular" font-size="23.0" fill="#FFFFFF" transform="matrix(1.00, 0.00, -0.00, -1.00, 199.8, 53.0)">p</text><text xml:space="preserve" font-family="AvenirNext-Regular" font-size="23.0" fill="#FFFFFF" transform="matrix(1.00, 0.00, -0.00, -1.00, 214.4, 53.0)">p</text><text xml:space="preserve" font-family="AvenirNext-Regular" font-size="23.0" fill="#FFFFFF" transform="matrix(1.00, 0.00, -0.00, -1.00, 229.0, 53.0)">o</text><text xml:space="preserve" font-family="AvenirNext-Regular" font-size="23.0" fill="#FFFFFF" transform="matrix(1.00, 0.00, -0.00, -1.00, 243.0, 53.0)">r</text><text xml:space="preserve" font-family="AvenirNext-Regular" font-size="23.0" fill="#FFFFFF" transform="matrix(1.00, 0.00, -0.00, -1.00, 251.0, 53.0)">t</text><text xml:space="preserve" font-family="AvenirNext-Regular" font-size="23.0" fill="#FFFFFF" transform="matrix(1.00, 0.00, -0.00, -1.00, 258.3, 53.0)">s</text><text xml:space="preserve" font-family="AvenirNext-Regular" font-size="23.0" fill="#FFFFFF" transform="matrix(1.00, 0.00, -0.00, -1.00, 268.5, 53.0)"> </text><text xml:space="preserve" font-family="AvenirNext-Regular" font-size="23.0" fill="#FFFFFF" transform="matrix(1.00, 0.00, -0.00, -1.00, 274.3, 53.0)">m</text><text xml:space="preserve" font-family="AvenirNext-Regular" font-size="23.0" fill="#FFFFFF" transform="matrix(1.00, 0.00, -0.00, -1.00, 294.6, 53.0)">u</text><text xml:space="preserve" font-family="AvenirNext-Regular" font-size="23.0" fill="#FFFFFF" transform="matrix(1.00, 0.00, -0.00, -1.00, 308.0, 53.0)">l</text><text xml:space="preserve" font-family="AvenirNext-Regular" font-size="23.0" fill="#FFFFFF" transform="matrix(1.00, 0.00, -0.00, -1.00, 313.8, 53.0)">t</text><text xml:space="preserve" font-family="AvenirNext-Regular" font-size="23.0" fill="#FFFFFF" transform="matrix(1.00, 0.00, -0.00, -1.00, 321.1, 53.0)">i</text><text xml:space="preserve" font-family="AvenirNext-Regular" font-size="23.0" fill="#FFFFFF" transform="matrix(1.00, 0.00, -0.00, -1.00, 326.8, 53.0)">p</text><text xml:space="preserve" font-family="AvenirNext-Regular" font-size="23.0" fill="#FFFFFF" transform="matrix(1.00, 0.00, -0.00, -1.00, 341.4, 53.0)">l</text><text xml:space="preserve" font-family="AvenirNext-Regular" font-size="23.0" fill="#FFFFFF" transform="matrix(1.00, 0.00, -0.00, -1.00, 347.2, 53.0)">e</text><text xml:space="preserve" font-family="AvenirNext-Regular" font-size="23.0" fill="#FFFFFF" transform="matrix(1.00, 0.00, -0.00, -1.00, 360.4, 53.0)"> </text><text xml:space="preserve" font-family="AvenirNext-Regular" font-size="23.0" fill="#FFFFFF" transform="matrix(1.00, 0.00, -0.00, -1.00, 366.1, 53.0)">m</text><text xml:space="preserve" font-family="AvenirNext-Regular" font-size="23.0" fill="#FFFFFF" transform="matrix(1.00, 0.00, -0.00, -1.00, 386.4, 53.0)">o</text><text xml:space="preserve" font-family="AvenirNext-Regular" font-size="23.0" fill="#FFFFFF" transform="matrix(1.00, 0.00, -0.00, -1.00, 400.5, 53.0)">d</text><text xml:space="preserve" font-family="AvenirNext-Regular" font-size="23.0" fill="#FFFFFF" transform="matrix(1.00, 0.00, -0.00, -1.00, 415.1, 53.0)">u</text><text xml:space="preserve" font-family="AvenirNext-Regular" font-size="23.0" fill="#FFFFFF" transform="matrix(1.00, 0.00, -0.00, -1.00, 428.5, 53.0)">l</text><text xml:space="preserve" font-family="AvenirNext-Regular" font-size="23.0" fill="#FFFFFF" transform="matrix(1.00, 0.00, -0.00, -1.00, 434.3, 53.0)">e</text><text xml:space="preserve" font-family="AvenirNext-Regular" font-size="23.0" fill="#FFFFFF" transform="matrix(1.00, 0.00, -0.00, -1.00, 447.4, 53.0)"> </text><text xml:space="preserve" font-family="AvenirNext-Regular" font-size="23.0" fill="#FFFFFF" transform="matrix(1.00, 0.00, -0.00, -1.00, 453.2, 53.0)">s</text><text xml:space="preserve" font-family="AvenirNext-Regular" font-size="23.0" fill="#FFFFFF" transform="matrix(1.00, 0.00, -0.00, -1.00, 463.4, 53.0)">y</text><text xml:space="preserve" font-family="AvenirNext-Regular" font-size="23.0" fill="#FFFFFF" transform="matrix(1.00, 0.00, -0.00, -1.00, 474.6, 53.0)">s</text><text xml:space="preserve" font-family="AvenirNext-Regular" font-size="23.0" fill="#FFFFFF" transform="matrix(1.00, 0.00, -0.00, -1.00, 484.8, 53.0)">t</text><text xml:space="preserve" font-family="AvenirNext-Regular" font-size="23.0" fill="#FFFFFF" transform="matrix(1.00, 0.00, -0.00, -1.00, 492.1, 53.0)">e</text><text xml:space="preserve" font-family="AvenirNext-Regular" font-size="23.0" fill="#FFFFFF" transform="matrix(1.00, 0.00, -0.00, -1.00, 505.3, 53.0)">m</text><text xml:space="preserve" font-family="AvenirNext-Regular" font-size="23.0" fill="#FFFFFF" transform="matrix(1.00, 0.00, -0.00, -1.00, 525.6, 53.0)">s</text><text xml:space="preserve" font-family="AvenirNext-Regular" font-size="23.0" fill="#FFFFFF" transform="matrix(1.00, 0.00, -0.00, -1.00, 535.8, 53.0)"> </text><text xml:space="preserve" font-family="LucidaGrande" font-size="17.2" fill="#CACACA" transform="matrix(1.00, 0.00, -0.00, -1.00, 74.0, 5.3)">‣</text><text xml:space="preserve" font-family="AvenirNext-Regular" font-size="23.0" fill="#FFFFFF" transform="matrix(1.00, 0.00, -0.00, -1.00, 108.0, 5.0)">A</text><text xml:space="preserve" font-family="AvenirNext-Regular" font-size="23.0" fill="#FFFFFF" transform="matrix(1.00, 0.00, -0.00, -1.00, 124.1, 5.0)">M</text><text xml:space="preserve" font-family="AvenirNext-Regular" font-size="23.0" fill="#FFFFFF" transform="matrix(1.00, 0.00, -0.00, -1.00, 144.5, 5.0)">D</text><text xml:space="preserve" font-family="AvenirNext-Regular" font-size="23.0" fill="#FFFFFF" transform="matrix(1.00, 0.00, -0.00, -1.00, 160.8, 5.0)">,</text><text xml:space="preserve" font-family="AvenirNext-Regular" font-size="23.0" fill="#FFFFFF" transform="matrix(1.00, 0.00, -0.00, -1.00, 166.1, 5.0)"> </text><text xml:space="preserve" font-family="AvenirNext-Regular" font-size="23.0" fill="#FFFFFF" transform="matrix(1.00, 0.00, -0.00, -1.00, 171.8, 5.0)">C</text><text xml:space="preserve" font-family="AvenirNext-Regular" font-size="23.0" fill="#FFFFFF" transform="matrix(1.00, 0.00, -0.00, -1.00, 188.1, 5.0)">o</text><text xml:space="preserve" font-family="AvenirNext-Regular" font-size="23.0" fill="#FFFFFF" transform="matrix(1.00, 0.00, -0.00, -1.00, 202.2, 5.0)">m</text><text xml:space="preserve" font-family="AvenirNext-Regular" font-size="23.0" fill="#FFFFFF" transform="matrix(1.00, 0.00, -0.00, -1.00, 222.5, 5.0)">m</text><text xml:space="preserve" font-family="AvenirNext-Regular" font-size="23.0" fill="#FFFFFF" transform="matrix(1.00, 0.00, -0.00, -1.00, 242.8, 5.0)">o</text><text xml:space="preserve" font-family="AvenirNext-Regular" font-size="23.0" fill="#FFFFFF" transform="matrix(1.00, 0.00, -0.00, -1.00, 256.8, 5.0)">n</text><text xml:space="preserve" font-family="AvenirNext-Regular" font-size="23.0" fill="#FFFFFF" transform="matrix(1.00, 0.00, -0.00, -1.00, 270.2, 5.0)">J</text><text xml:space="preserve" font-family="AvenirNext-Regular" font-size="23.0" fill="#FFFFFF" transform="matrix(1.00, 0.00, -0.00, -1.00, 281.5, 5.0)">S</text><text xml:space="preserve" font-family="AvenirNext-Regular" font-size="23.0" fill="#FFFFFF" transform="matrix(1.00, 0.00, -0.00, -1.00, 294.5, 5.0)">,</text><text xml:space="preserve" font-family="AvenirNext-Regular" font-size="23.0" fill="#FFFFFF" transform="matrix(1.00, 0.00, -0.00, -1.00, 299.8, 5.0)"> </text><text xml:space="preserve" font-family="AvenirNext-Regular" font-size="23.0" fill="#FFFFFF" transform="matrix(1.00, 0.00, -0.00, -1.00, 305.5, 5.0)">E</text><text xml:space="preserve" font-family="AvenirNext-Regular" font-size="23.0" fill="#FFFFFF" transform="matrix(1.00, 0.00, -0.00, -1.00, 319.1, 5.0)">S</text><text xml:space="preserve" font-family="AvenirNext-Regular" font-size="23.0" fill="#FFFFFF" transform="matrix(1.00, 0.00, -0.00, -1.00, 332.1, 5.0)">6</text><text xml:space="preserve" font-family="AvenirNext-Regular" font-size="23.0" fill="#FFFFFF" transform="matrix(1.00, 0.00, -0.00, -1.00, 345.5, 5.0)"> </text><text xml:space="preserve" font-family="AvenirNext-Regular" font-size="23.0" fill="#FFFFFF" transform="matrix(1.00, 0.00, -0.00, -1.00, 351.2, 5.0)">(</text><text xml:space="preserve" font-family="AvenirNext-Regular" font-size="23.0" fill="#FFFFFF" transform="matrix(1.00, 0.00, -0.00, -1.00, 358.1, 5.0)">m</text><text xml:space="preserve" font-family="AvenirNext-Regular" font-size="23.0" fill="#FFFFFF" transform="matrix(1.00, 0.00, -0.00, -1.00, 378.4, 5.0)">o</text><text xml:space="preserve" font-family="AvenirNext-Regular" font-size="23.0" fill="#FFFFFF" transform="matrix(1.00, 0.00, -0.00, -1.00, 392.5, 5.0)">r</text><text xml:space="preserve" font-family="AvenirNext-Regular" font-size="23.0" fill="#FFFFFF" transform="matrix(1.00, 0.00, -0.00, -1.00, 400.3, 5.0)">e</text><text xml:space="preserve" font-family="AvenirNext-Regular" font-size="23.0" fill="#FFFFFF" transform="matrix(1.00, 0.00, -0.00, -1.00, 413.5, 5.0)"> </text><text xml:space="preserve" font-family="AvenirNext-Regular" font-size="23.0" fill="#FFFFFF" transform="matrix(1.00, 0.00, -0.00, -1.00, 419.2, 5.0)">l</text><text xml:space="preserve" font-family="AvenirNext-Regular" font-size="23.0" fill="#FFFFFF" transform="matrix(1.00, 0.00, -0.00, -1.00, 425.0, 5.0)">a</text><text xml:space="preserve" font-family="AvenirNext-Regular" font-size="23.0" fill="#FFFFFF" transform="matrix(1.00, 0.00, -0.00, -1.00, 437.1, 5.0)">t</text><text xml:space="preserve" font-family="AvenirNext-Regular" font-size="23.0" fill="#FFFFFF" transform="matrix(1.00, 0.00, -0.00, -1.00, 444.4, 5.0)">e</text><text xml:space="preserve" font-family="AvenirNext-Regular" font-size="23.0" fill="#FFFFFF" transform="matrix(1.00, 0.00, -0.00, -1.00, 457.5, 5.0)">r</text><text xml:space="preserve" font-family="AvenirNext-Regular" font-size="23.0" fill="#FFFFFF" transform="matrix(1.00, 0.00, -0.00, -1.00, 465.8, 5.0)">)</text></g></svg>