<?xml version="1.0" encoding="UTF-8" standalone="no"?><svg xmlns="http://www.w3.org/2000/svg" xmlns:xlink="http://www.w3.org/1999/xlink" clip-rule="evenodd" stroke-miterlimit="4.00" viewBox="0 0 247 89"><desc>SVG generated by Keynote</desc><defs></defs><g transform="matrix(1.00, 0.00, -0.00, -1.00, 0.0, 89.0)"><g><clipPath id="clip-3289"><path d="M 0.9 0.9 L 70.8 0.9 L 70.8 88.1 L 0.9 88.1 Z M 0.9 0.9 "></path></clipPath><g clip-path="url(#clip-3289)"><path d="M 1.9 87.1 L 69.8 87.1 L 69.8 1.9 L 1.9 1.9 Z M 1.9 87.1 " fill="#DF613B"></path></g></g><g><clipPath id="clip-3290"><path d="M 6.8 61.3 L 64.9 61.3 L 64.9 77.0 L 6.8 77.0 Z M 6.8 61.3 "></path></clipPath><g clip-path="url(#clip-3290)"><path d="M 7.8 76.0 L 63.9 76.0 L 63.9 62.3 L 7.8 62.3 Z M 7.8 76.0 " fill="#F1C114"></path></g></g><g><clipPath id="clip-3291"><path d="M 90.9 0.9 L 160.8 0.9 L 160.8 88.1 L 90.9 88.1 Z M 90.9 0.9 "></path></clipPath><g clip-path="url(#clip-3291)"><path d="M 91.9 87.1 L 159.8 87.1 L 159.8 1.9 L 91.9 1.9 Z M 91.9 87.1 " fill="#F1C114"></path></g></g><g><clipPath id="clip-3292"><path d="M 96.8 61.3 L 154.9 61.3 L 154.9 77.0 L 96.8 77.0 Z M 96.8 61.3 "></path></clipPath><g clip-path="url(#clip-3292)"><path d="M 97.8 76.0 L 153.9 76.0 L 153.9 62.3 L 97.8 62.3 Z M 97.8 76.0 " fill="#00A100"></path></g></g><g><clipPath id="clip-3293"><path d="M 176.7 0.9 L 246.6 0.9 L 246.6 88.1 L 176.7 88.1 Z M 176.7 0.9 "></path></clipPath><g clip-path="url(#clip-3293)"><path d="M 177.7 87.1 L 245.6 87.1 L 245.6 1.9 L 177.7 1.9 Z M 177.7 87.1 " fill="#00A100"></path></g></g></g></svg>