<?xml version="1.0" encoding="UTF-8" standalone="no"?><svg xmlns="http://www.w3.org/2000/svg" xmlns:xlink="http://www.w3.org/1999/xlink" clip-rule="evenodd" stroke-miterlimit="4.00" viewBox="0 0 1024 768"><desc>SVG generated by Keynote</desc><defs></defs><g transform="matrix(1.00, 0.00, -0.00, -1.00, 0.0, 768.0)"><path d="M 0.0 768.0 L 1024.0 768.0 L 1024.0 0.0 L 0.0 0.0 Z M 0.0 768.0 " fill="#181818"></path><text xml:space="preserve" font-family="AvenirNext-DemiBold" font-weight="bold" font-size="38.0" fill="#DE7D67" transform="matrix(1.00, 0.00, -0.00, -1.00, 334.0, 630.0)">T</text><text xml:space="preserve" font-family="AvenirNext-DemiBold" font-weight="bold" font-size="38.0" fill="#DE7D67" transform="matrix(1.00, 0.00, -0.00, -1.00, 354.9, 630.0)">h</text><text xml:space="preserve" font-family="AvenirNext-DemiBold" font-weight="bold" font-size="38.0" fill="#DE7D67" transform="matrix(1.00, 0.00, -0.00, -1.00, 377.1, 630.0)">a</text><text xml:space="preserve" font-family="AvenirNext-DemiBold" font-weight="bold" font-size="38.0" fill="#DE7D67" transform="matrix(1.00, 0.00, -0.00, -1.00, 398.0, 630.0)">n</text><text xml:space="preserve" font-family="AvenirNext-DemiBold" font-weight="bold" font-size="38.0" fill="#DE7D67" transform="matrix(1.00, 0.00, -0.00, -1.00, 420.1, 630.0)">k</text><text xml:space="preserve" font-family="AvenirNext-DemiBold" font-weight="bold" font-size="38.0" fill="#DE7D67" transform="matrix(1.00, 0.00, -0.00, -1.00, 440.5, 630.0)">s</text><text xml:space="preserve" font-family="AvenirNext-DemiBold" font-weight="bold" font-size="38.0" fill="#DE7D67" transform="matrix(1.00, 0.00, -0.00, -1.00, 457.4, 630.0)"> </text><text xml:space="preserve" font-family="AvenirNext-DemiBold" font-weight="bold" font-size="38.0" fill="#DE7D67" transform="matrix(1.00, 0.00, -0.00, -1.00, 466.9, 630.0)">f</text><text xml:space="preserve" font-family="AvenirNext-DemiBold" font-weight="bold" font-size="38.0" fill="#DE7D67" transform="matrix(1.00, 0.00, -0.00, -1.00, 479.2, 630.0)">o</text><text xml:space="preserve" font-family="AvenirNext-DemiBold" font-weight="bold" font-size="38.0" fill="#DE7D67" transform="matrix(1.00, 0.00, -0.00, -1.00, 502.4, 630.0)">r</text><text xml:space="preserve" font-family="AvenirNext-DemiBold" font-weight="bold" font-size="38.0" fill="#DE7D67" transform="matrix(1.00, 0.00, -0.00, -1.00, 516.2, 630.0)"> </text><text xml:space="preserve" font-family="AvenirNext-DemiBold" font-weight="bold" font-size="38.0" fill="#DE7D67" transform="matrix(1.00, 0.00, -0.00, -1.00, 525.7, 630.0)">l</text><text xml:space="preserve" font-family="AvenirNext-DemiBold" font-weight="bold" font-size="38.0" fill="#DE7D67" transform="matrix(1.00, 0.00, -0.00, -1.00, 535.9, 630.0)">i</text><text xml:space="preserve" font-family="AvenirNext-DemiBold" font-weight="bold" font-size="38.0" fill="#DE7D67" transform="matrix(1.00, 0.00, -0.00, -1.00, 546.1, 630.0)">s</text><text xml:space="preserve" font-family="AvenirNext-DemiBold" font-weight="bold" font-size="38.0" fill="#DE7D67" transform="matrix(1.00, 0.00, -0.00, -1.00, 563.0, 630.0)">t</text><text xml:space="preserve" font-family="AvenirNext-DemiBold" font-weight="bold" font-size="38.0" fill="#DE7D67" transform="matrix(1.00, 0.00, -0.00, -1.00, 575.9, 630.0)">e</text><text xml:space="preserve" font-family="AvenirNext-DemiBold" font-weight="bold" font-size="38.0" fill="#DE7D67" transform="matrix(1.00, 0.00, -0.00, -1.00, 597.7, 630.0)">n</text><text xml:space="preserve" font-family="AvenirNext-DemiBold" font-weight="bold" font-size="38.0" fill="#DE7D67" transform="matrix(1.00, 0.00, -0.00, -1.00, 619.8, 630.0)">i</text><text xml:space="preserve" font-family="AvenirNext-DemiBold" font-weight="bold" font-size="38.0" fill="#DE7D67" transform="matrix(1.00, 0.00, -0.00, -1.00, 630.0, 630.0)">n</text><text xml:space="preserve" font-family="AvenirNext-DemiBold" font-weight="bold" font-size="38.0" fill="#DE7D67" transform="matrix(1.00, 0.00, -0.00, -1.00, 652.1, 630.0)">g</text><text xml:space="preserve" font-family="AvenirNext-DemiBold" font-weight="bold" font-size="38.0" fill="#DE7D67" transform="matrix(1.00, 0.00, -0.00, -1.00, 676.1, 630.0)">!</text><text xml:space="preserve" font-family="AvenirNext-DemiBold" font-weight="bold" font-size="38.0" fill="#DE7D67" transform="matrix(1.00, 0.00, -0.00, -1.00, 689.0, 630.0)"> </text><text xml:space="preserve" font-family="AvenirNext-Regular" font-size="38.0" fill="#FFFFFF" transform="matrix(1.00, 0.00, -0.00, -1.00, 389.0, 572.0)">N</text><text xml:space="preserve" font-family="AvenirNext-Regular" font-size="38.0" fill="#FFFFFF" transform="matrix(1.00, 0.00, -0.00, -1.00, 418.0, 572.0)">a</text><text xml:space="preserve" font-family="AvenirNext-Regular" font-size="38.0" fill="#FFFFFF" transform="matrix(1.00, 0.00, -0.00, -1.00, 438.3, 572.0)">o</text><text xml:space="preserve" font-family="AvenirNext-Regular" font-size="38.0" fill="#FFFFFF" transform="matrix(1.00, 0.00, -0.00, -1.00, 461.5, 572.0)">m</text><text xml:space="preserve" font-family="AvenirNext-Regular" font-size="38.0" fill="#FFFFFF" transform="matrix(1.00, 0.00, -0.00, -1.00, 495.1, 572.0)">i</text><text xml:space="preserve" font-family="AvenirNext-Regular" font-size="38.0" fill="#FFFFFF" transform="matrix(1.00, 0.00, -0.00, -1.00, 504.6, 572.0)"> </text><text xml:space="preserve" font-family="AvenirNext-Regular" font-size="38.0" fill="#FFFFFF" transform="matrix(1.00, 0.00, -0.00, -1.00, 513.6, 572.0)">J</text><text xml:space="preserve" font-family="AvenirNext-Regular" font-size="38.0" fill="#FFFFFF" transform="matrix(1.00, 0.00, -0.00, -1.00, 532.1, 572.0)">a</text><text xml:space="preserve" font-family="AvenirNext-Regular" font-size="38.0" fill="#FFFFFF" transform="matrix(1.00, 0.00, -0.00, -1.00, 552.4, 572.0)">c</text><text xml:space="preserve" font-family="AvenirNext-Regular" font-size="38.0" fill="#FFFFFF" transform="matrix(1.00, 0.00, -0.00, -1.00, 571.4, 572.0)">o</text><text xml:space="preserve" font-family="AvenirNext-Regular" font-size="38.0" fill="#FFFFFF" transform="matrix(1.00, 0.00, -0.00, -1.00, 594.6, 572.0)">b</text><text xml:space="preserve" font-family="AvenirNext-Regular" font-size="38.0" fill="#FFFFFF" transform="matrix(1.00, 0.00, -0.00, -1.00, 618.8, 572.0)">s</text><text xml:space="preserve" font-family="AvenirNext-Regular" font-size="38.0" fill="#FFFFFF" transform="matrix(1.00, 0.00, -0.00, -1.00, 635.7, 572.0)"> </text><text xml:space="preserve" font-family="AvenirNext-Regular" font-size="38.0" fill="#FFFFFF" transform="matrix(1.00, 0.00, -0.00, -1.00, 239.0, 514.0)">S</text><text xml:space="preserve" font-family="AvenirNext-Regular" font-size="38.0" fill="#FFFFFF" transform="matrix(1.00, 0.00, -0.00, -1.00, 260.4, 514.0)">o</text><text xml:space="preserve" font-family="AvenirNext-Regular" font-size="38.0" fill="#FFFFFF" transform="matrix(1.00, 0.00, -0.00, -1.00, 283.6, 514.0)">f</text><text xml:space="preserve" font-family="AvenirNext-Regular" font-size="38.0" fill="#FFFFFF" transform="matrix(1.00, 0.00, -0.00, -1.00, 294.4, 514.0)">t</text><text xml:space="preserve" font-family="AvenirNext-Regular" font-size="38.0" fill="#FFFFFF" transform="matrix(1.00, 0.00, -0.00, -1.00, 306.4, 514.0)">w</text><text xml:space="preserve" font-family="AvenirNext-Regular" font-size="38.0" fill="#FFFFFF" transform="matrix(1.00, 0.00, -0.00, -1.00, 334.8, 514.0)">a</text><text xml:space="preserve" font-family="AvenirNext-Regular" font-size="38.0" fill="#FFFFFF" transform="matrix(1.00, 0.00, -0.00, -1.00, 355.1, 514.0)">r</text><text xml:space="preserve" font-family="AvenirNext-Regular" font-size="38.0" fill="#FFFFFF" transform="matrix(1.00, 0.00, -0.00, -1.00, 368.1, 514.0)">e</text><text xml:space="preserve" font-family="AvenirNext-Regular" font-size="38.0" fill="#FFFFFF" transform="matrix(1.00, 0.00, -0.00, -1.00, 389.8, 514.0)"> </text><text xml:space="preserve" font-family="AvenirNext-Regular" font-size="38.0" fill="#FFFFFF" transform="matrix(1.00, 0.00, -0.00, -1.00, 399.3, 514.0)">E</text><text xml:space="preserve" font-family="AvenirNext-Regular" font-size="38.0" fill="#FFFFFF" transform="matrix(1.00, 0.00, -0.00, -1.00, 421.8, 514.0)">n</text><text xml:space="preserve" font-family="AvenirNext-Regular" font-size="38.0" fill="#FFFFFF" transform="matrix(1.00, 0.00, -0.00, -1.00, 443.9, 514.0)">g</text><text xml:space="preserve" font-family="AvenirNext-Regular" font-size="38.0" fill="#FFFFFF" transform="matrix(1.00, 0.00, -0.00, -1.00, 467.9, 514.0)">i</text><text xml:space="preserve" font-family="AvenirNext-Regular" font-size="38.0" fill="#FFFFFF" transform="matrix(1.00, 0.00, -0.00, -1.00, 477.4, 514.0)">n</text><text xml:space="preserve" font-family="AvenirNext-Regular" font-size="38.0" fill="#FFFFFF" transform="matrix(1.00, 0.00, -0.00, -1.00, 499.5, 514.0)">e</text><text xml:space="preserve" font-family="AvenirNext-Regular" font-size="38.0" fill="#FFFFFF" transform="matrix(1.00, 0.00, -0.00, -1.00, 521.2, 514.0)">e</text><text xml:space="preserve" font-family="AvenirNext-Regular" font-size="38.0" fill="#FFFFFF" transform="matrix(1.00, 0.00, -0.00, -1.00, 543.0, 514.0)">r</text><text xml:space="preserve" font-family="AvenirNext-Regular" font-size="38.0" fill="#FFFFFF" transform="matrix(1.00, 0.00, -0.00, -1.00, 556.6, 514.0)"> </text><text xml:space="preserve" font-family="AvenirNext-Regular" font-size="38.0" fill="#FFFFFF" transform="matrix(1.00, 0.00, -0.00, -1.00, 566.1, 514.0)">a</text><text xml:space="preserve" font-family="AvenirNext-Regular" font-size="38.0" fill="#FFFFFF" transform="matrix(1.00, 0.00, -0.00, -1.00, 586.1, 514.0)">t</text><text xml:space="preserve" font-family="AvenirNext-Regular" font-size="38.0" fill="#FFFFFF" transform="matrix(1.00, 0.00, -0.00, -1.00, 598.1, 514.0)"> </text><text xml:space="preserve" font-family="AvenirNext-Regular" font-size="38.0" fill="#FFFFFF" transform="matrix(1.00, 0.00, -0.00, -1.00, 607.6, 514.0)">M</text><text xml:space="preserve" font-family="AvenirNext-Regular" font-size="38.0" fill="#FFFFFF" transform="matrix(1.00, 0.00, -0.00, -1.00, 641.3, 514.0)">a</text><text xml:space="preserve" font-family="AvenirNext-Regular" font-size="38.0" fill="#FFFFFF" transform="matrix(1.00, 0.00, -0.00, -1.00, 661.6, 514.0)">v</text><text xml:space="preserve" font-family="AvenirNext-Regular" font-size="38.0" fill="#FFFFFF" transform="matrix(1.00, 0.00, -0.00, -1.00, 680.1, 514.0)">e</text><text xml:space="preserve" font-family="AvenirNext-Regular" font-size="38.0" fill="#FFFFFF" transform="matrix(1.00, 0.00, -0.00, -1.00, 701.8, 514.0)">n</text><text xml:space="preserve" font-family="AvenirNext-Regular" font-size="38.0" fill="#FFFFFF" transform="matrix(1.00, 0.00, -0.00, -1.00, 723.9, 514.0)">l</text><text xml:space="preserve" font-family="AvenirNext-Regular" font-size="38.0" fill="#FFFFFF" transform="matrix(1.00, 0.00, -0.00, -1.00, 733.5, 514.0)">i</text><text xml:space="preserve" font-family="AvenirNext-Regular" font-size="38.0" fill="#FFFFFF" transform="matrix(1.00, 0.00, -0.00, -1.00, 743.0, 514.0)">n</text><text xml:space="preserve" font-family="AvenirNext-Regular" font-size="38.0" fill="#FFFFFF" transform="matrix(1.00, 0.00, -0.00, -1.00, 765.1, 514.0)">k</text><text xml:space="preserve" font-family="AvenirNext-Regular" font-size="38.0" fill="#FFFFFF" transform="matrix(1.00, 0.00, -0.00, -1.00, 784.5, 514.0)"> </text><text xml:space="preserve" font-family="AvenirNext-DemiBold" font-weight="bold" font-size="38.0" fill="#F1C114" transform="matrix(1.00, 0.00, -0.00, -1.00, 350.0, 455.0)">(</text><text xml:space="preserve" font-family="AvenirNext-DemiBold" font-weight="bold" font-size="38.0" fill="#F1C114" transform="matrix(1.00, 0.00, -0.00, -1.00, 362.5, 455.0)">y</text><text xml:space="preserve" font-family="AvenirNext-DemiBold" font-weight="bold" font-size="38.0" fill="#F1C114" transform="matrix(1.00, 0.00, -0.00, -1.00, 382.0, 455.0)">e</text><text xml:space="preserve" font-family="AvenirNext-DemiBold" font-weight="bold" font-size="38.0" fill="#F1C114" transform="matrix(1.00, 0.00, -0.00, -1.00, 403.8, 455.0)">s</text><text xml:space="preserve" font-family="AvenirNext-DemiBold" font-weight="bold" font-size="38.0" fill="#F1C114" transform="matrix(1.00, 0.00, -0.00, -1.00, 420.7, 455.0)">,</text><text xml:space="preserve" font-family="AvenirNext-DemiBold" font-weight="bold" font-size="38.0" fill="#F1C114" transform="matrix(1.00, 0.00, -0.00, -1.00, 429.5, 455.0)"> </text><text xml:space="preserve" font-family="AvenirNext-DemiBold" font-weight="bold" font-size="38.0" fill="#F1C114" transform="matrix(1.00, 0.00, -0.00, -1.00, 439.0, 455.0)">w</text><text xml:space="preserve" font-family="AvenirNext-DemiBold" font-weight="bold" font-size="38.0" fill="#F1C114" transform="matrix(1.00, 0.00, -0.00, -1.00, 469.5, 455.0)">e</text><text xml:space="preserve" font-family="AvenirNext-DemiBold" font-weight="bold" font-size="38.0" fill="#F1C114" transform="matrix(1.00, 0.00, -0.00, -1.00, 491.3, 455.0)">’</text><text xml:space="preserve" font-family="AvenirNext-DemiBold" font-weight="bold" font-size="38.0" fill="#F1C114" transform="matrix(1.00, 0.00, -0.00, -1.00, 501.6, 455.0)">r</text><text xml:space="preserve" font-family="AvenirNext-DemiBold" font-weight="bold" font-size="38.0" fill="#F1C114" transform="matrix(1.00, 0.00, -0.00, -1.00, 514.7, 455.0)">e</text><text xml:space="preserve" font-family="AvenirNext-DemiBold" font-weight="bold" font-size="38.0" fill="#F1C114" transform="matrix(1.00, 0.00, -0.00, -1.00, 536.5, 455.0)"> </text><text xml:space="preserve" font-family="AvenirNext-DemiBold" font-weight="bold" font-size="38.0" fill="#F1C114" transform="matrix(1.00, 0.00, -0.00, -1.00, 546.0, 455.0)">h</text><text xml:space="preserve" font-family="AvenirNext-DemiBold" font-weight="bold" font-size="38.0" fill="#F1C114" transform="matrix(1.00, 0.00, -0.00, -1.00, 568.2, 455.0)">i</text><text xml:space="preserve" font-family="AvenirNext-DemiBold" font-weight="bold" font-size="38.0" fill="#F1C114" transform="matrix(1.00, 0.00, -0.00, -1.00, 578.4, 455.0)">r</text><text xml:space="preserve" font-family="AvenirNext-DemiBold" font-weight="bold" font-size="38.0" fill="#F1C114" transform="matrix(1.00, 0.00, -0.00, -1.00, 592.2, 455.0)">i</text><text xml:space="preserve" font-family="AvenirNext-DemiBold" font-weight="bold" font-size="38.0" fill="#F1C114" transform="matrix(1.00, 0.00, -0.00, -1.00, 602.4, 455.0)">n</text><text xml:space="preserve" font-family="AvenirNext-DemiBold" font-weight="bold" font-size="38.0" fill="#F1C114" transform="matrix(1.00, 0.00, -0.00, -1.00, 624.5, 455.0)">g</text><text xml:space="preserve" font-family="AvenirNext-DemiBold" font-weight="bold" font-size="38.0" fill="#F1C114" transform="matrix(1.00, 0.00, -0.00, -1.00, 648.6, 455.0)">!</text><text xml:space="preserve" font-family="AvenirNext-DemiBold" font-weight="bold" font-size="38.0" fill="#F1C114" transform="matrix(1.00, 0.00, -0.00, -1.00, 661.5, 455.0)">)</text><text xml:space="preserve" font-family="AvenirNext-DemiBold" font-weight="bold" font-size="38.0" fill="#F1C114" transform="matrix(1.00, 0.00, -0.00, -1.00, 674.0, 455.0)"> </text><text xml:space="preserve" font-family="AvenirNext-Regular" font-size="38.0" fill="#FFFFFF" transform="matrix(1.00, 0.00, -0.00, -1.00, 316.0, 397.0)">@</text><text xml:space="preserve" font-family="AvenirNext-Regular" font-size="38.0" fill="#FFFFFF" transform="matrix(1.00, 0.00, -0.00, -1.00, 346.4, 397.0)">n</text><text xml:space="preserve" font-family="AvenirNext-Regular" font-size="38.0" fill="#FFFFFF" transform="matrix(1.00, 0.00, -0.00, -1.00, 368.5, 397.0)">a</text><text xml:space="preserve" font-family="AvenirNext-Regular" font-size="38.0" fill="#FFFFFF" transform="matrix(1.00, 0.00, -0.00, -1.00, 388.8, 397.0)">o</text><text xml:space="preserve" font-family="AvenirNext-Regular" font-size="38.0" fill="#FFFFFF" transform="matrix(1.00, 0.00, -0.00, -1.00, 412.0, 397.0)">m</text><text xml:space="preserve" font-family="AvenirNext-Regular" font-size="38.0" fill="#FFFFFF" transform="matrix(1.00, 0.00, -0.00, -1.00, 445.5, 397.0)">i</text><text xml:space="preserve" font-family="AvenirNext-Regular" font-size="38.0" fill="#FFFFFF" transform="matrix(1.00, 0.00, -0.00, -1.00, 455.0, 397.0)">c</text><text xml:space="preserve" font-family="AvenirNext-Regular" font-size="38.0" fill="#FFFFFF" transform="matrix(1.00, 0.00, -0.00, -1.00, 474.0, 397.0)">o</text><text xml:space="preserve" font-family="AvenirNext-Regular" font-size="38.0" fill="#FFFFFF" transform="matrix(1.00, 0.00, -0.00, -1.00, 497.3, 397.0)">d</text><text xml:space="preserve" font-family="AvenirNext-Regular" font-size="38.0" fill="#FFFFFF" transform="matrix(1.00, 0.00, -0.00, -1.00, 521.5, 397.0)">e</text><text xml:space="preserve" font-family="AvenirNext-Regular" font-size="38.0" fill="#FFFFFF" transform="matrix(1.00, 0.00, -0.00, -1.00, 543.2, 397.0)">s</text><text xml:space="preserve" font-family="AvenirNext-Regular" font-size="38.0" fill="#FFFFFF" transform="matrix(1.00, 0.00, -0.00, -1.00, 560.1, 397.0)"> </text><text xml:space="preserve" font-family="AvenirNext-Regular" font-size="38.0" fill="#FFFFFF" transform="matrix(1.00, 0.00, -0.00, -1.00, 569.6, 397.0)">(</text><text xml:space="preserve" font-family="AvenirNext-Regular" font-size="38.0" fill="#FFFFFF" transform="matrix(1.00, 0.00, -0.00, -1.00, 581.0, 397.0)">T</text><text xml:space="preserve" font-family="AvenirNext-Regular" font-size="38.0" fill="#FFFFFF" transform="matrix(1.00, 0.00, -0.00, -1.00, 599.0, 397.0)">w</text><text xml:space="preserve" font-family="AvenirNext-Regular" font-size="38.0" fill="#FFFFFF" transform="matrix(1.00, 0.00, -0.00, -1.00, 627.3, 397.0)">i</text><text xml:space="preserve" font-family="AvenirNext-Regular" font-size="38.0" fill="#FFFFFF" transform="matrix(1.00, 0.00, -0.00, -1.00, 636.8, 397.0)">t</text><text xml:space="preserve" font-family="AvenirNext-Regular" font-size="38.0" fill="#FFFFFF" transform="matrix(1.00, 0.00, -0.00, -1.00, 648.4, 397.0)">t</text><text xml:space="preserve" font-family="AvenirNext-Regular" font-size="38.0" fill="#FFFFFF" transform="matrix(1.00, 0.00, -0.00, -1.00, 660.5, 397.0)">e</text><text xml:space="preserve" font-family="AvenirNext-Regular" font-size="38.0" fill="#FFFFFF" transform="matrix(1.00, 0.00, -0.00, -1.00, 682.2, 397.0)">r</text><text xml:space="preserve" font-family="AvenirNext-Regular" font-size="38.0" fill="#FFFFFF" transform="matrix(1.00, 0.00, -0.00, -1.00, 695.9, 397.0)">)</text><text xml:space="preserve" font-family="AvenirNext-Regular" font-size="38.0" fill="#FFFFFF" transform="matrix(1.00, 0.00, -0.00, -1.00, 707.3, 397.0)"> </text><text xml:space="preserve" font-family="AvenirNext-Regular" font-size="38.0" fill="#FFFFFF" transform="matrix(1.00, 0.00, -0.00, -1.00, 300.0, 338.0)">@</text><text xml:space="preserve" font-family="AvenirNext-Regular" font-size="38.0" fill="#FFFFFF" transform="matrix(1.00, 0.00, -0.00, -1.00, 330.4, 338.0)">n</text><text xml:space="preserve" font-family="AvenirNext-Regular" font-size="38.0" fill="#FFFFFF" transform="matrix(1.00, 0.00, -0.00, -1.00, 352.5, 338.0)">a</text><text xml:space="preserve" font-family="AvenirNext-Regular" font-size="38.0" fill="#FFFFFF" transform="matrix(1.00, 0.00, -0.00, -1.00, 372.8, 338.0)">o</text><text xml:space="preserve" font-family="AvenirNext-Regular" font-size="38.0" fill="#FFFFFF" transform="matrix(1.00, 0.00, -0.00, -1.00, 396.0, 338.0)">m</text><text xml:space="preserve" font-family="AvenirNext-Regular" font-size="38.0" fill="#FFFFFF" transform="matrix(1.00, 0.00, -0.00, -1.00, 429.5, 338.0)">i</text><text xml:space="preserve" font-family="AvenirNext-Regular" font-size="38.0" fill="#FFFFFF" transform="matrix(1.00, 0.00, -0.00, -1.00, 439.0, 338.0)">a</text><text xml:space="preserve" font-family="AvenirNext-Regular" font-size="38.0" fill="#FFFFFF" transform="matrix(1.00, 0.00, -0.00, -1.00, 459.3, 338.0)">j</text><text xml:space="preserve" font-family="AvenirNext-Regular" font-size="38.0" fill="#FFFFFF" transform="matrix(1.00, 0.00, -0.00, -1.00, 468.9, 338.0)">a</text><text xml:space="preserve" font-family="AvenirNext-Regular" font-size="38.0" fill="#FFFFFF" transform="matrix(1.00, 0.00, -0.00, -1.00, 489.2, 338.0)">c</text><text xml:space="preserve" font-family="AvenirNext-Regular" font-size="38.0" fill="#FFFFFF" transform="matrix(1.00, 0.00, -0.00, -1.00, 508.2, 338.0)">o</text><text xml:space="preserve" font-family="AvenirNext-Regular" font-size="38.0" fill="#FFFFFF" transform="matrix(1.00, 0.00, -0.00, -1.00, 531.4, 338.0)">b</text><text xml:space="preserve" font-family="AvenirNext-Regular" font-size="38.0" fill="#FFFFFF" transform="matrix(1.00, 0.00, -0.00, -1.00, 555.6, 338.0)">s</text><text xml:space="preserve" font-family="AvenirNext-Regular" font-size="38.0" fill="#FFFFFF" transform="matrix(1.00, 0.00, -0.00, -1.00, 572.5, 338.0)"> </text><text xml:space="preserve" font-family="AvenirNext-Regular" font-size="38.0" fill="#FFFFFF" transform="matrix(1.00, 0.00, -0.00, -1.00, 582.0, 338.0)">(</text><text xml:space="preserve" font-family="AvenirNext-Regular" font-size="38.0" fill="#FFFFFF" transform="matrix(1.00, 0.00, -0.00, -1.00, 593.4, 338.0)">G</text><text xml:space="preserve" font-family="AvenirNext-Regular" font-size="38.0" fill="#FFFFFF" transform="matrix(1.00, 0.00, -0.00, -1.00, 623.0, 338.0)">i</text><text xml:space="preserve" font-family="AvenirNext-Regular" font-size="38.0" fill="#FFFFFF" transform="matrix(1.00, 0.00, -0.00, -1.00, 632.5, 338.0)">t</text><text xml:space="preserve" font-family="AvenirNext-Regular" font-size="38.0" fill="#FFFFFF" transform="matrix(1.00, 0.00, -0.00, -1.00, 644.5, 338.0)">h</text><text xml:space="preserve" font-family="AvenirNext-Regular" font-size="38.0" fill="#FFFFFF" transform="matrix(1.00, 0.00, -0.00, -1.00, 666.7, 338.0)">u</text><text xml:space="preserve" font-family="AvenirNext-Regular" font-size="38.0" fill="#FFFFFF" transform="matrix(1.00, 0.00, -0.00, -1.00, 688.7, 338.0)">b</text><text xml:space="preserve" font-family="AvenirNext-Regular" font-size="38.0" fill="#FFFFFF" transform="matrix(1.00, 0.00, -0.00, -1.00, 712.9, 338.0)">)</text><text xml:space="preserve" font-family="AvenirNext-Regular" font-size="38.0" fill="#FFFFFF" transform="matrix(1.00, 0.00, -0.00, -1.00, 724.3, 338.0)"> </text><text xml:space="preserve" font-family="AvenirNext-Regular" font-size="38.0" fill="#FFFFFF" transform="matrix(1.00, 0.00, -0.00, -1.00, 284.0, 280.0)">n</text><text xml:space="preserve" font-family="AvenirNext-Regular" font-size="38.0" fill="#FFFFFF" transform="matrix(1.00, 0.00, -0.00, -1.00, 306.1, 280.0)">a</text><text xml:space="preserve" font-family="AvenirNext-Regular" font-size="38.0" fill="#FFFFFF" transform="matrix(1.00, 0.00, -0.00, -1.00, 326.4, 280.0)">o</text><text xml:space="preserve" font-family="AvenirNext-Regular" font-size="38.0" fill="#FFFFFF" transform="matrix(1.00, 0.00, -0.00, -1.00, 349.6, 280.0)">m</text><text xml:space="preserve" font-family="AvenirNext-Regular" font-size="38.0" fill="#FFFFFF" transform="matrix(1.00, 0.00, -0.00, -1.00, 383.1, 280.0)">i</text><text xml:space="preserve" font-family="AvenirNext-Regular" font-size="38.0" fill="#FFFFFF" transform="matrix(1.00, 0.00, -0.00, -1.00, 392.6, 280.0)">a</text><text xml:space="preserve" font-family="AvenirNext-Regular" font-size="38.0" fill="#FFFFFF" transform="matrix(1.00, 0.00, -0.00, -1.00, 412.9, 280.0)">j</text><text xml:space="preserve" font-family="AvenirNext-Regular" font-size="38.0" fill="#FFFFFF" transform="matrix(1.00, 0.00, -0.00, -1.00, 422.5, 280.0)">a</text><text xml:space="preserve" font-family="AvenirNext-Regular" font-size="38.0" fill="#FFFFFF" transform="matrix(1.00, 0.00, -0.00, -1.00, 442.8, 280.0)">c</text><text xml:space="preserve" font-family="AvenirNext-Regular" font-size="38.0" fill="#FFFFFF" transform="matrix(1.00, 0.00, -0.00, -1.00, 461.8, 280.0)">o</text><text xml:space="preserve" font-family="AvenirNext-Regular" font-size="38.0" fill="#FFFFFF" transform="matrix(1.00, 0.00, -0.00, -1.00, 485.0, 280.0)">b</text><text xml:space="preserve" font-family="AvenirNext-Regular" font-size="38.0" fill="#FFFFFF" transform="matrix(1.00, 0.00, -0.00, -1.00, 509.2, 280.0)">s</text><text xml:space="preserve" font-family="AvenirNext-Regular" font-size="38.0" fill="#FFFFFF" transform="matrix(1.00, 0.00, -0.00, -1.00, 526.1, 280.0)">@</text><text xml:space="preserve" font-family="AvenirNext-Regular" font-size="38.0" fill="#FFFFFF" transform="matrix(1.00, 0.00, -0.00, -1.00, 556.5, 280.0)">g</text><text xml:space="preserve" font-family="AvenirNext-Regular" font-size="38.0" fill="#FFFFFF" transform="matrix(1.00, 0.00, -0.00, -1.00, 580.5, 280.0)">m</text><text xml:space="preserve" font-family="AvenirNext-Regular" font-size="38.0" fill="#FFFFFF" transform="matrix(1.00, 0.00, -0.00, -1.00, 614.0, 280.0)">a</text><text xml:space="preserve" font-family="AvenirNext-Regular" font-size="38.0" fill="#FFFFFF" transform="matrix(1.00, 0.00, -0.00, -1.00, 634.3, 280.0)">i</text><text xml:space="preserve" font-family="AvenirNext-Regular" font-size="38.0" fill="#FFFFFF" transform="matrix(1.00, 0.00, -0.00, -1.00, 643.8, 280.0)">l</text><text xml:space="preserve" font-family="AvenirNext-Regular" font-size="38.0" fill="#FFFFFF" transform="matrix(1.00, 0.00, -0.00, -1.00, 653.4, 280.0)">.</text><text xml:space="preserve" font-family="AvenirNext-Regular" font-size="38.0" fill="#FFFFFF" transform="matrix(1.00, 0.00, -0.00, -1.00, 663.3, 280.0)">c</text><text xml:space="preserve" font-family="AvenirNext-Regular" font-size="38.0" fill="#FFFFFF" transform="matrix(1.00, 0.00, -0.00, -1.00, 682.3, 280.0)">o</text><text xml:space="preserve" font-family="AvenirNext-Regular" font-size="38.0" fill="#FFFFFF" transform="matrix(1.00, 0.00, -0.00, -1.00, 705.5, 280.0)">m</text><text xml:space="preserve" font-family="AvenirNext-Regular" font-size="38.0" fill="#FFFFFF" transform="matrix(1.00, 0.00, -0.00, -1.00, 739.0, 280.0)"> </text><text xml:space="preserve" font-family="AvenirNext-Regular" font-size="34.4" fill="#7DC6D0" transform="matrix(1.00, 0.00, -0.00, -1.00, 51.0, 225.0)">R</text><text xml:space="preserve" font-family="AvenirNext-Regular" font-size="34.4" fill="#7DC6D0" transform="matrix(1.00, 0.00, -0.00, -1.00, 71.2, 225.0)">e</text><text xml:space="preserve" font-family="AvenirNext-Regular" font-size="34.4" fill="#7DC6D0" transform="matrix(1.00, 0.00, -0.00, -1.00, 90.9, 225.0)">p</text><text xml:space="preserve" font-family="AvenirNext-Regular" font-size="34.4" fill="#7DC6D0" transform="matrix(1.00, 0.00, -0.00, -1.00, 112.7, 225.0)">o</text><text xml:space="preserve" font-family="AvenirNext-Regular" font-size="34.4" fill="#7DC6D0" transform="matrix(1.00, 0.00, -0.00, -1.00, 133.7, 225.0)">:</text><text xml:space="preserve" font-family="AvenirNext-Regular" font-size="34.4" fill="#7DC6D0" transform="matrix(1.00, 0.00, -0.00, -1.00, 144.1, 225.0)"> </text><text xml:space="preserve" font-family="AvenirNext-Regular" font-size="34.4" fill="#7DC6D0" transform="matrix(1.00, 0.00, -0.00, -1.00, 152.7, 225.0)">h</text><text xml:space="preserve" font-family="AvenirNext-Regular" font-size="34.4" fill="#7DC6D0" transform="matrix(1.00, 0.00, -0.00, -1.00, 172.7, 225.0)">t</text><text xml:space="preserve" font-family="AvenirNext-Regular" font-size="34.4" fill="#7DC6D0" transform="matrix(1.00, 0.00, -0.00, -1.00, 183.2, 225.0)">t</text><text xml:space="preserve" font-family="AvenirNext-Regular" font-size="34.4" fill="#7DC6D0" transform="matrix(1.00, 0.00, -0.00, -1.00, 194.1, 225.0)">p</text><text xml:space="preserve" font-family="AvenirNext-Regular" font-size="34.4" fill="#7DC6D0" transform="matrix(1.00, 0.00, -0.00, -1.00, 215.9, 225.0)">s</text><text xml:space="preserve" font-family="AvenirNext-Regular" font-size="34.4" fill="#7DC6D0" transform="matrix(1.00, 0.00, -0.00, -1.00, 231.2, 225.0)">:</text><text xml:space="preserve" font-family="AvenirNext-Regular" font-size="34.4" fill="#7DC6D0" transform="matrix(1.00, 0.00, -0.00, -1.00, 241.5, 225.0)">/</text><text xml:space="preserve" font-family="AvenirNext-Regular" font-size="34.4" fill="#7DC6D0" transform="matrix(1.00, 0.00, -0.00, -1.00, 254.3, 225.0)">/</text><text xml:space="preserve" font-family="AvenirNext-Regular" font-size="34.4" fill="#7DC6D0" transform="matrix(1.00, 0.00, -0.00, -1.00, 267.0, 225.0)">g</text><text xml:space="preserve" font-family="AvenirNext-Regular" font-size="34.4" fill="#7DC6D0" transform="matrix(1.00, 0.00, -0.00, -1.00, 288.7, 225.0)">i</text><text xml:space="preserve" font-family="AvenirNext-Regular" font-size="34.4" fill="#7DC6D0" transform="matrix(1.00, 0.00, -0.00, -1.00, 297.3, 225.0)">t</text><text xml:space="preserve" font-family="AvenirNext-Regular" font-size="34.4" fill="#7DC6D0" transform="matrix(1.00, 0.00, -0.00, -1.00, 308.2, 225.0)">h</text><text xml:space="preserve" font-family="AvenirNext-Regular" font-size="34.4" fill="#7DC6D0" transform="matrix(1.00, 0.00, -0.00, -1.00, 328.3, 225.0)">u</text><text xml:space="preserve" font-family="AvenirNext-Regular" font-size="34.4" fill="#7DC6D0" transform="matrix(1.00, 0.00, -0.00, -1.00, 348.3, 225.0)">b</text><text xml:space="preserve" font-family="AvenirNext-Regular" font-size="34.4" fill="#7DC6D0" transform="matrix(1.00, 0.00, -0.00, -1.00, 369.8, 225.0)">.</text><text xml:space="preserve" font-family="AvenirNext-Regular" font-size="34.4" fill="#7DC6D0" transform="matrix(1.00, 0.00, -0.00, -1.00, 378.7, 225.0)">c</text><text xml:space="preserve" font-family="AvenirNext-Regular" font-size="34.4" fill="#7DC6D0" transform="matrix(1.00, 0.00, -0.00, -1.00, 395.9, 225.0)">o</text><text xml:space="preserve" font-family="AvenirNext-Regular" font-size="34.4" fill="#7DC6D0" transform="matrix(1.00, 0.00, -0.00, -1.00, 416.9, 225.0)">m</text><text xml:space="preserve" font-family="AvenirNext-Regular" font-size="34.4" fill="#7DC6D0" transform="matrix(1.00, 0.00, -0.00, -1.00, 447.3, 225.0)">/</text><text xml:space="preserve" font-family="AvenirNext-Regular" font-size="34.4" fill="#7DC6D0" transform="matrix(1.00, 0.00, -0.00, -1.00, 460.1, 225.0)">n</text><text xml:space="preserve" font-family="AvenirNext-Regular" font-size="34.4" fill="#7DC6D0" transform="matrix(1.00, 0.00, -0.00, -1.00, 480.0, 225.0)">a</text><text xml:space="preserve" font-family="AvenirNext-Regular" font-size="34.4" fill="#7DC6D0" transform="matrix(1.00, 0.00, -0.00, -1.00, 498.4, 225.0)">o</text><text xml:space="preserve" font-family="AvenirNext-Regular" font-size="34.4" fill="#7DC6D0" transform="matrix(1.00, 0.00, -0.00, -1.00, 519.4, 225.0)">m</text><text xml:space="preserve" font-family="AvenirNext-Regular" font-size="34.4" fill="#7DC6D0" transform="matrix(1.00, 0.00, -0.00, -1.00, 549.8, 225.0)">i</text><text xml:space="preserve" font-family="AvenirNext-Regular" font-size="34.4" fill="#7DC6D0" transform="matrix(1.00, 0.00, -0.00, -1.00, 558.4, 225.0)">a</text><text xml:space="preserve" font-family="AvenirNext-Regular" font-size="34.4" fill="#7DC6D0" transform="matrix(1.00, 0.00, -0.00, -1.00, 576.8, 225.0)">j</text><text xml:space="preserve" font-family="AvenirNext-Regular" font-size="34.4" fill="#7DC6D0" transform="matrix(1.00, 0.00, -0.00, -1.00, 585.4, 225.0)">a</text><text xml:space="preserve" font-family="AvenirNext-Regular" font-size="34.4" fill="#7DC6D0" transform="matrix(1.00, 0.00, -0.00, -1.00, 603.8, 225.0)">c</text><text xml:space="preserve" font-family="AvenirNext-Regular" font-size="34.4" fill="#7DC6D0" transform="matrix(1.00, 0.00, -0.00, -1.00, 621.0, 225.0)">o</text><text xml:space="preserve" font-family="AvenirNext-Regular" font-size="34.4" fill="#7DC6D0" transform="matrix(1.00, 0.00, -0.00, -1.00, 642.0, 225.0)">b</text><text xml:space="preserve" font-family="AvenirNext-Regular" font-size="34.4" fill="#7DC6D0" transform="matrix(1.00, 0.00, -0.00, -1.00, 663.9, 225.0)">s</text><text xml:space="preserve" font-family="AvenirNext-Regular" font-size="34.4" fill="#7DC6D0" transform="matrix(1.00, 0.00, -0.00, -1.00, 679.2, 225.0)">/</text><text xml:space="preserve" font-family="AvenirNext-Regular" font-size="34.4" fill="#7DC6D0" transform="matrix(1.00, 0.00, -0.00, -1.00, 691.9, 225.0)">w</text><text xml:space="preserve" font-family="AvenirNext-Regular" font-size="34.4" fill="#7DC6D0" transform="matrix(1.00, 0.00, -0.00, -1.00, 717.6, 225.0)">e</text><text xml:space="preserve" font-family="AvenirNext-Regular" font-size="34.4" fill="#7DC6D0" transform="matrix(1.00, 0.00, -0.00, -1.00, 737.2, 225.0)">b</text><text xml:space="preserve" font-family="AvenirNext-Regular" font-size="34.4" fill="#7DC6D0" transform="matrix(1.00, 0.00, -0.00, -1.00, 759.2, 225.0)">p</text><text xml:space="preserve" font-family="AvenirNext-Regular" font-size="34.4" fill="#7DC6D0" transform="matrix(1.00, 0.00, -0.00, -1.00, 781.0, 225.0)">a</text><text xml:space="preserve" font-family="AvenirNext-Regular" font-size="34.4" fill="#7DC6D0" transform="matrix(1.00, 0.00, -0.00, -1.00, 799.4, 225.0)">c</text><text xml:space="preserve" font-family="AvenirNext-Regular" font-size="34.4" fill="#7DC6D0" transform="matrix(1.00, 0.00, -0.00, -1.00, 816.6, 225.0)">k</text><text xml:space="preserve" font-family="AvenirNext-Regular" font-size="34.4" fill="#7DC6D0" transform="matrix(1.00, 0.00, -0.00, -1.00, 834.1, 225.0)">S</text><text xml:space="preserve" font-family="AvenirNext-Regular" font-size="34.4" fill="#7DC6D0" transform="matrix(1.00, 0.00, -0.00, -1.00, 853.5, 225.0)">a</text><text xml:space="preserve" font-family="AvenirNext-Regular" font-size="34.4" fill="#7DC6D0" transform="matrix(1.00, 0.00, -0.00, -1.00, 871.9, 225.0)">n</text><text xml:space="preserve" font-family="AvenirNext-Regular" font-size="34.4" fill="#7DC6D0" transform="matrix(1.00, 0.00, -0.00, -1.00, 891.9, 225.0)">d</text><text xml:space="preserve" font-family="AvenirNext-Regular" font-size="34.4" fill="#7DC6D0" transform="matrix(1.00, 0.00, -0.00, -1.00, 913.8, 225.0)">b</text><text xml:space="preserve" font-family="AvenirNext-Regular" font-size="34.4" fill="#7DC6D0" transform="matrix(1.00, 0.00, -0.00, -1.00, 935.7, 225.0)">o</text><text xml:space="preserve" font-family="AvenirNext-Regular" font-size="34.4" fill="#7DC6D0" transform="matrix(1.00, 0.00, -0.00, -1.00, 956.5, 225.0)">x</text><text xml:space="preserve" font-family="AvenirNext-Regular" font-size="34.4" fill="#7DC6D0" transform="matrix(1.00, 0.00, -0.00, -1.00, 973.2, 225.0)"> </text><text xml:space="preserve" font-family="AvenirNext-Regular" font-size="37.2" fill="#DE7D67" transform="matrix(1.00, 0.00, -0.00, -1.00, 60.0, 169.0)">S</text><text xml:space="preserve" font-family="AvenirNext-Regular" font-size="37.2" fill="#DE7D67" transform="matrix(1.00, 0.00, -0.00, -1.00, 81.4, 169.0)">l</text><text xml:space="preserve" font-family="AvenirNext-Regular" font-size="37.2" fill="#DE7D67" transform="matrix(1.00, 0.00, -0.00, -1.00, 91.1, 169.0)">i</text><text xml:space="preserve" font-family="AvenirNext-Regular" font-size="37.2" fill="#DE7D67" transform="matrix(1.00, 0.00, -0.00, -1.00, 100.8, 169.0)">d</text><text xml:space="preserve" font-family="AvenirNext-Regular" font-size="37.2" fill="#DE7D67" transform="matrix(1.00, 0.00, -0.00, -1.00, 124.8, 169.0)">e</text><text xml:space="preserve" font-family="AvenirNext-Regular" font-size="37.2" fill="#DE7D67" transform="matrix(1.00, 0.00, -0.00, -1.00, 146.5, 169.0)">s</text><text xml:space="preserve" font-family="AvenirNext-Regular" font-size="37.2" fill="#DE7D67" transform="matrix(1.00, 0.00, -0.00, -1.00, 163.4, 169.0)">:</text><text xml:space="preserve" font-family="AvenirNext-Regular" font-size="37.2" fill="#DE7D67" transform="matrix(1.00, 0.00, -0.00, -1.00, 174.9, 169.0)"> </text><text xml:space="preserve" font-family="AvenirNext-Regular" font-size="37.2" fill="#DE7D67" transform="matrix(1.00, 0.00, -0.00, -1.00, 184.6, 169.0)">h</text><text xml:space="preserve" font-family="AvenirNext-Regular" font-size="37.2" fill="#DE7D67" transform="matrix(1.00, 0.00, -0.00, -1.00, 206.6, 169.0)">t</text><text xml:space="preserve" font-family="AvenirNext-Regular" font-size="37.2" fill="#DE7D67" transform="matrix(1.00, 0.00, -0.00, -1.00, 218.4, 169.0)">t</text><text xml:space="preserve" font-family="AvenirNext-Regular" font-size="37.2" fill="#DE7D67" transform="matrix(1.00, 0.00, -0.00, -1.00, 230.5, 169.0)">p</text><text xml:space="preserve" font-family="AvenirNext-Regular" font-size="37.2" fill="#DE7D67" transform="matrix(1.00, 0.00, -0.00, -1.00, 254.5, 169.0)">s</text><text xml:space="preserve" font-family="AvenirNext-Regular" font-size="37.2" fill="#DE7D67" transform="matrix(1.00, 0.00, -0.00, -1.00, 271.4, 169.0)">:</text><text xml:space="preserve" font-family="AvenirNext-Regular" font-size="37.2" fill="#DE7D67" transform="matrix(1.00, 0.00, -0.00, -1.00, 282.9, 169.0)">/</text><text xml:space="preserve" font-family="AvenirNext-Regular" font-size="37.2" fill="#DE7D67" transform="matrix(1.00, 0.00, -0.00, -1.00, 297.1, 169.0)">/</text><text xml:space="preserve" font-family="AvenirNext-Regular" font-size="37.2" fill="#DE7D67" transform="matrix(1.00, 0.00, -0.00, -1.00, 311.2, 169.0)">n</text><text xml:space="preserve" font-family="AvenirNext-Regular" font-size="37.2" fill="#DE7D67" transform="matrix(1.00, 0.00, -0.00, -1.00, 333.2, 169.0)">a</text><text xml:space="preserve" font-family="AvenirNext-Regular" font-size="37.2" fill="#DE7D67" transform="matrix(1.00, 0.00, -0.00, -1.00, 353.4, 169.0)">o</text><text xml:space="preserve" font-family="AvenirNext-Regular" font-size="37.2" fill="#DE7D67" transform="matrix(1.00, 0.00, -0.00, -1.00, 376.5, 169.0)">m</text><text xml:space="preserve" font-family="AvenirNext-Regular" font-size="37.2" fill="#DE7D67" transform="matrix(1.00, 0.00, -0.00, -1.00, 409.8, 169.0)">i</text><text xml:space="preserve" font-family="AvenirNext-Regular" font-size="37.2" fill="#DE7D67" transform="matrix(1.00, 0.00, -0.00, -1.00, 419.4, 169.0)">a</text><text xml:space="preserve" font-family="AvenirNext-Regular" font-size="37.2" fill="#DE7D67" transform="matrix(1.00, 0.00, -0.00, -1.00, 439.7, 169.0)">j</text><text xml:space="preserve" font-family="AvenirNext-Regular" font-size="37.2" fill="#DE7D67" transform="matrix(1.00, 0.00, -0.00, -1.00, 449.4, 169.0)">a</text><text xml:space="preserve" font-family="AvenirNext-Regular" font-size="37.2" fill="#DE7D67" transform="matrix(1.00, 0.00, -0.00, -1.00, 469.6, 169.0)">c</text><text xml:space="preserve" font-family="AvenirNext-Regular" font-size="37.2" fill="#DE7D67" transform="matrix(1.00, 0.00, -0.00, -1.00, 488.6, 169.0)">o</text><text xml:space="preserve" font-family="AvenirNext-Regular" font-size="37.2" fill="#DE7D67" transform="matrix(1.00, 0.00, -0.00, -1.00, 511.7, 169.0)">b</text><text xml:space="preserve" font-family="AvenirNext-Regular" font-size="37.2" fill="#DE7D67" transform="matrix(1.00, 0.00, -0.00, -1.00, 535.8, 169.0)">s</text><text xml:space="preserve" font-family="AvenirNext-Regular" font-size="37.2" fill="#DE7D67" transform="matrix(1.00, 0.00, -0.00, -1.00, 552.6, 169.0)">.</text><text xml:space="preserve" font-family="AvenirNext-Regular" font-size="37.2" fill="#DE7D67" transform="matrix(1.00, 0.00, -0.00, -1.00, 562.7, 169.0)">g</text><text xml:space="preserve" font-family="AvenirNext-Regular" font-size="37.2" fill="#DE7D67" transform="matrix(1.00, 0.00, -0.00, -1.00, 586.6, 169.0)">i</text><text xml:space="preserve" font-family="AvenirNext-Regular" font-size="37.2" fill="#DE7D67" transform="matrix(1.00, 0.00, -0.00, -1.00, 596.2, 169.0)">t</text><text xml:space="preserve" font-family="AvenirNext-Regular" font-size="37.2" fill="#DE7D67" transform="matrix(1.00, 0.00, -0.00, -1.00, 608.4, 169.0)">h</text><text xml:space="preserve" font-family="AvenirNext-Regular" font-size="37.2" fill="#DE7D67" transform="matrix(1.00, 0.00, -0.00, -1.00, 630.5, 169.0)">u</text><text xml:space="preserve" font-family="AvenirNext-Regular" font-size="37.2" fill="#DE7D67" transform="matrix(1.00, 0.00, -0.00, -1.00, 652.4, 169.0)">b</text><text xml:space="preserve" font-family="AvenirNext-Regular" font-size="37.2" fill="#DE7D67" transform="matrix(1.00, 0.00, -0.00, -1.00, 676.1, 169.0)">.</text><text xml:space="preserve" font-family="AvenirNext-Regular" font-size="37.2" fill="#DE7D67" transform="matrix(1.00, 0.00, -0.00, -1.00, 686.1, 169.0)">i</text><text xml:space="preserve" font-family="AvenirNext-Regular" font-size="37.2" fill="#DE7D67" transform="matrix(1.00, 0.00, -0.00, -1.00, 695.8, 169.0)">o</text><text xml:space="preserve" font-family="AvenirNext-Regular" font-size="37.2" fill="#DE7D67" transform="matrix(1.00, 0.00, -0.00, -1.00, 718.9, 169.0)">/</text><text xml:space="preserve" font-family="AvenirNext-Regular" font-size="37.2" fill="#DE7D67" transform="matrix(1.00, 0.00, -0.00, -1.00, 733.0, 169.0)">W</text><text xml:space="preserve" font-family="AvenirNext-Regular" font-size="37.2" fill="#DE7D67" transform="matrix(1.00, 0.00, -0.00, -1.00, 768.2, 169.0)">e</text><text xml:space="preserve" font-family="AvenirNext-Regular" font-size="37.2" fill="#DE7D67" transform="matrix(1.00, 0.00, -0.00, -1.00, 789.9, 169.0)">b</text><text xml:space="preserve" font-family="AvenirNext-Regular" font-size="37.2" fill="#DE7D67" transform="matrix(1.00, 0.00, -0.00, -1.00, 813.9, 169.0)">p</text><text xml:space="preserve" font-family="AvenirNext-Regular" font-size="37.2" fill="#DE7D67" transform="matrix(1.00, 0.00, -0.00, -1.00, 837.9, 169.0)">a</text><text xml:space="preserve" font-family="AvenirNext-Regular" font-size="37.2" fill="#DE7D67" transform="matrix(1.00, 0.00, -0.00, -1.00, 858.2, 169.0)">c</text><text xml:space="preserve" font-family="AvenirNext-Regular" font-size="37.2" fill="#DE7D67" transform="matrix(1.00, 0.00, -0.00, -1.00, 877.1, 169.0)">k</text><text xml:space="preserve" font-family="AvenirNext-Regular" font-size="37.2" fill="#DE7D67" transform="matrix(1.00, 0.00, -0.00, -1.00, 896.5, 169.0)">T</text><text xml:space="preserve" font-family="AvenirNext-Regular" font-size="37.2" fill="#DE7D67" transform="matrix(1.00, 0.00, -0.00, -1.00, 914.5, 169.0)">a</text><text xml:space="preserve" font-family="AvenirNext-Regular" font-size="37.2" fill="#DE7D67" transform="matrix(1.00, 0.00, -0.00, -1.00, 934.7, 169.0)">l</text><text xml:space="preserve" font-family="AvenirNext-Regular" font-size="37.2" fill="#DE7D67" transform="matrix(1.00, 0.00, -0.00, -1.00, 944.5, 169.0)">k</text><text xml:space="preserve" font-family="AvenirNext-Regular" font-size="37.2" fill="#DE7D67" transform="matrix(1.00, 0.00, -0.00, -1.00, 963.8, 169.0)"> </text></g></svg>