<?xml version="1.0" encoding="UTF-8" standalone="no"?><svg xmlns="http://www.w3.org/2000/svg" xmlns:xlink="http://www.w3.org/1999/xlink" clip-rule="evenodd" stroke-miterlimit="4.00" viewBox="0 0 895 267"><desc>SVG generated by Keynote</desc><defs></defs><g transform="matrix(1.00, 0.00, -0.00, -1.00, 0.0, 267.0)"><text xml:space="preserve" font-family="LucidaGrande" font-size="18.5" fill="#CACACA" transform="matrix(1.00, 0.00, -0.00, -1.00, 0.0, 247.9)">‣</text><text xml:space="preserve" font-family="AvenirNext-Regular" font-size="24.6" fill="#FFFFFF" transform="matrix(1.00, 0.00, -0.00, -1.00, 28.0, 247.0)">N</text><text xml:space="preserve" font-family="AvenirNext-Regular" font-size="24.6" fill="#FFFFFF" transform="matrix(1.00, 0.00, -0.00, -1.00, 46.8, 247.0)">i</text><text xml:space="preserve" font-family="AvenirNext-Regular" font-size="24.6" fill="#FFFFFF" transform="matrix(1.00, 0.00, -0.00, -1.00, 53.0, 247.0)">c</text><text xml:space="preserve" font-family="AvenirNext-Regular" font-size="24.6" fill="#FFFFFF" transform="matrix(1.00, 0.00, -0.00, -1.00, 65.3, 247.0)">e</text><text xml:space="preserve" font-family="AvenirNext-Regular" font-size="24.6" fill="#FFFFFF" transform="matrix(1.00, 0.00, -0.00, -1.00, 79.4, 247.0)"> </text><text xml:space="preserve" font-family="AvenirNext-Regular" font-size="24.6" fill="#FFFFFF" transform="matrix(1.00, 0.00, -0.00, -1.00, 85.6, 247.0)">f</text><text xml:space="preserve" font-family="AvenirNext-Regular" font-size="24.6" fill="#FFFFFF" transform="matrix(1.00, 0.00, -0.00, -1.00, 92.8, 247.0)">o</text><text xml:space="preserve" font-family="AvenirNext-Regular" font-size="24.6" fill="#FFFFFF" transform="matrix(1.00, 0.00, -0.00, -1.00, 107.9, 247.0)">r</text><text xml:space="preserve" font-family="AvenirNext-Regular" font-size="24.6" fill="#FFFFFF" transform="matrix(1.00, 0.00, -0.00, -1.00, 116.8, 247.0)"> </text><text xml:space="preserve" font-family="AvenirNext-Regular" font-size="24.6" fill="#FFFFFF" transform="matrix(1.00, 0.00, -0.00, -1.00, 122.9, 247.0)">y</text><text xml:space="preserve" font-family="AvenirNext-Regular" font-size="24.6" fill="#FFFFFF" transform="matrix(1.00, 0.00, -0.00, -1.00, 134.9, 247.0)">o</text><text xml:space="preserve" font-family="AvenirNext-Regular" font-size="24.6" fill="#FFFFFF" transform="matrix(1.00, 0.00, -0.00, -1.00, 150.0, 247.0)">u</text><text xml:space="preserve" font-family="AvenirNext-Regular" font-size="24.6" fill="#FFFFFF" transform="matrix(1.00, 0.00, -0.00, -1.00, 164.3, 247.0)"> </text><text xml:space="preserve" font-family="AvenirNext-Regular" font-size="24.6" fill="#FFFFFF" transform="matrix(1.00, 0.00, -0.00, -1.00, 170.5, 247.0)">t</text><text xml:space="preserve" font-family="AvenirNext-Regular" font-size="24.6" fill="#FFFFFF" transform="matrix(1.00, 0.00, -0.00, -1.00, 178.3, 247.0)">o</text><text xml:space="preserve" font-family="AvenirNext-Regular" font-size="24.6" fill="#FFFFFF" transform="matrix(1.00, 0.00, -0.00, -1.00, 193.3, 247.0)"> </text><text xml:space="preserve" font-family="AvenirNext-Regular" font-size="24.6" fill="#FFFFFF" transform="matrix(1.00, 0.00, -0.00, -1.00, 199.5, 247.0)">w</text><text xml:space="preserve" font-family="AvenirNext-Regular" font-size="24.6" fill="#FFFFFF" transform="matrix(1.00, 0.00, -0.00, -1.00, 217.9, 247.0)">r</text><text xml:space="preserve" font-family="AvenirNext-Regular" font-size="24.6" fill="#FFFFFF" transform="matrix(1.00, 0.00, -0.00, -1.00, 226.7, 247.0)">i</text><text xml:space="preserve" font-family="AvenirNext-Regular" font-size="24.6" fill="#FFFFFF" transform="matrix(1.00, 0.00, -0.00, -1.00, 232.9, 247.0)">t</text><text xml:space="preserve" font-family="AvenirNext-Regular" font-size="24.6" fill="#FFFFFF" transform="matrix(1.00, 0.00, -0.00, -1.00, 240.7, 247.0)">e</text><text xml:space="preserve" font-family="AvenirNext-Regular" font-size="24.6" fill="#FFFFFF" transform="matrix(1.00, 0.00, -0.00, -1.00, 254.8, 247.0)"> </text><text xml:space="preserve" font-family="LucidaGrande" font-size="18.5" fill="#CACACA" transform="matrix(1.00, 0.00, -0.00, -1.00, 37.0, 200.0)">‣</text><text xml:space="preserve" font-family="AvenirNext-Regular" font-size="24.6" fill="#FFFFFF" transform="matrix(1.00, 0.00, -0.00, -1.00, 65.0, 199.0)">E</text><text xml:space="preserve" font-family="AvenirNext-Regular" font-size="24.6" fill="#FFFFFF" transform="matrix(1.00, 0.00, -0.00, -1.00, 79.6, 199.0)">a</text><text xml:space="preserve" font-family="AvenirNext-Regular" font-size="24.6" fill="#FFFFFF" transform="matrix(1.00, 0.00, -0.00, -1.00, 92.7, 199.0)">s</text><text xml:space="preserve" font-family="AvenirNext-Regular" font-size="24.6" fill="#FFFFFF" transform="matrix(1.00, 0.00, -0.00, -1.00, 103.7, 199.0)">y</text><text xml:space="preserve" font-family="AvenirNext-Regular" font-size="24.6" fill="#FFFFFF" transform="matrix(1.00, 0.00, -0.00, -1.00, 115.7, 199.0)"> </text><text xml:space="preserve" font-family="AvenirNext-Regular" font-size="24.6" fill="#FFFFFF" transform="matrix(1.00, 0.00, -0.00, -1.00, 121.9, 199.0)">t</text><text xml:space="preserve" font-family="AvenirNext-Regular" font-size="24.6" fill="#FFFFFF" transform="matrix(1.00, 0.00, -0.00, -1.00, 129.7, 199.0)">o</text><text xml:space="preserve" font-family="AvenirNext-Regular" font-size="24.6" fill="#FFFFFF" transform="matrix(1.00, 0.00, -0.00, -1.00, 144.7, 199.0)"> </text><text xml:space="preserve" font-family="AvenirNext-Regular" font-size="24.6" fill="#FFFFFF" transform="matrix(1.00, 0.00, -0.00, -1.00, 150.9, 199.0)">r</text><text xml:space="preserve" font-family="AvenirNext-Regular" font-size="24.6" fill="#FFFFFF" transform="matrix(1.00, 0.00, -0.00, -1.00, 159.3, 199.0)">e</text><text xml:space="preserve" font-family="AvenirNext-Regular" font-size="24.6" fill="#FFFFFF" transform="matrix(1.00, 0.00, -0.00, -1.00, 173.3, 199.0)">a</text><text xml:space="preserve" font-family="AvenirNext-Regular" font-size="24.6" fill="#FFFFFF" transform="matrix(1.00, 0.00, -0.00, -1.00, 186.4, 199.0)">d</text><text xml:space="preserve" font-family="AvenirNext-Regular" font-size="24.6" fill="#FFFFFF" transform="matrix(1.00, 0.00, -0.00, -1.00, 202.1, 199.0)"> </text><text xml:space="preserve" font-family="AvenirNext-Regular" font-size="24.6" fill="#FFFFFF" transform="matrix(1.00, 0.00, -0.00, -1.00, 208.3, 199.0)">-</text><text xml:space="preserve" font-family="AvenirNext-Regular" font-size="24.6" fill="#FFFFFF" transform="matrix(1.00, 0.00, -0.00, -1.00, 216.2, 199.0)"> </text><text xml:space="preserve" font-family="AvenirNext-Regular" font-size="24.6" fill="#FFFFFF" transform="matrix(1.00, 0.00, -0.00, -1.00, 222.3, 199.0)">p</text><text xml:space="preserve" font-family="AvenirNext-Regular" font-size="24.6" fill="#FFFFFF" transform="matrix(1.00, 0.00, -0.00, -1.00, 238.0, 199.0)">r</text><text xml:space="preserve" font-family="AvenirNext-Regular" font-size="24.6" fill="#FFFFFF" transform="matrix(1.00, 0.00, -0.00, -1.00, 246.4, 199.0)">e</text><text xml:space="preserve" font-family="AvenirNext-Regular" font-size="24.6" fill="#FFFFFF" transform="matrix(1.00, 0.00, -0.00, -1.00, 260.5, 199.0)">t</text><text xml:space="preserve" font-family="AvenirNext-Regular" font-size="24.6" fill="#FFFFFF" transform="matrix(1.00, 0.00, -0.00, -1.00, 268.0, 199.0)">t</text><text xml:space="preserve" font-family="AvenirNext-Regular" font-size="24.6" fill="#FFFFFF" transform="matrix(1.00, 0.00, -0.00, -1.00, 275.8, 199.0)">y</text><text xml:space="preserve" font-family="AvenirNext-Regular" font-size="24.6" fill="#FFFFFF" transform="matrix(1.00, 0.00, -0.00, -1.00, 287.8, 199.0)"> </text><text xml:space="preserve" font-family="AvenirNext-Regular" font-size="24.6" fill="#FFFFFF" transform="matrix(1.00, 0.00, -0.00, -1.00, 294.0, 199.0)">f</text><text xml:space="preserve" font-family="AvenirNext-Regular" font-size="24.6" fill="#FFFFFF" transform="matrix(1.00, 0.00, -0.00, -1.00, 301.3, 199.0)">o</text><text xml:space="preserve" font-family="AvenirNext-Regular" font-size="24.6" fill="#FFFFFF" transform="matrix(1.00, 0.00, -0.00, -1.00, 316.3, 199.0)">r</text><text xml:space="preserve" font-family="AvenirNext-Regular" font-size="24.6" fill="#FFFFFF" transform="matrix(1.00, 0.00, -0.00, -1.00, 325.2, 199.0)">m</text><text xml:space="preserve" font-family="AvenirNext-Regular" font-size="24.6" fill="#FFFFFF" transform="matrix(1.00, 0.00, -0.00, -1.00, 347.0, 199.0)">a</text><text xml:space="preserve" font-family="AvenirNext-Regular" font-size="24.6" fill="#FFFFFF" transform="matrix(1.00, 0.00, -0.00, -1.00, 359.9, 199.0)">t</text><text xml:space="preserve" font-family="AvenirNext-Regular" font-size="24.6" fill="#FFFFFF" transform="matrix(1.00, 0.00, -0.00, -1.00, 367.4, 199.0)">t</text><text xml:space="preserve" font-family="AvenirNext-Regular" font-size="24.6" fill="#FFFFFF" transform="matrix(1.00, 0.00, -0.00, -1.00, 375.2, 199.0)">i</text><text xml:space="preserve" font-family="AvenirNext-Regular" font-size="24.6" fill="#FFFFFF" transform="matrix(1.00, 0.00, -0.00, -1.00, 381.4, 199.0)">n</text><text xml:space="preserve" font-family="AvenirNext-Regular" font-size="24.6" fill="#FFFFFF" transform="matrix(1.00, 0.00, -0.00, -1.00, 395.7, 199.0)">g</text><text xml:space="preserve" font-family="AvenirNext-Regular" font-size="24.6" fill="#FFFFFF" transform="matrix(1.00, 0.00, -0.00, -1.00, 411.2, 199.0)">,</text><text xml:space="preserve" font-family="AvenirNext-Regular" font-size="24.6" fill="#FFFFFF" transform="matrix(1.00, 0.00, -0.00, -1.00, 416.9, 199.0)"> </text><text xml:space="preserve" font-family="AvenirNext-Regular" font-size="24.6" fill="#FFFFFF" transform="matrix(1.00, 0.00, -0.00, -1.00, 423.1, 199.0)">r</text><text xml:space="preserve" font-family="AvenirNext-Regular" font-size="24.6" fill="#FFFFFF" transform="matrix(1.00, 0.00, -0.00, -1.00, 431.5, 199.0)">e</text><text xml:space="preserve" font-family="AvenirNext-Regular" font-size="24.6" fill="#FFFFFF" transform="matrix(1.00, 0.00, -0.00, -1.00, 445.4, 199.0)">a</text><text xml:space="preserve" font-family="AvenirNext-Regular" font-size="24.6" fill="#FFFFFF" transform="matrix(1.00, 0.00, -0.00, -1.00, 458.6, 199.0)">d</text><text xml:space="preserve" font-family="AvenirNext-Regular" font-size="24.6" fill="#FFFFFF" transform="matrix(1.00, 0.00, -0.00, -1.00, 474.3, 199.0)">a</text><text xml:space="preserve" font-family="AvenirNext-Regular" font-size="24.6" fill="#FFFFFF" transform="matrix(1.00, 0.00, -0.00, -1.00, 487.5, 199.0)">b</text><text xml:space="preserve" font-family="AvenirNext-Regular" font-size="24.6" fill="#FFFFFF" transform="matrix(1.00, 0.00, -0.00, -1.00, 503.1, 199.0)">l</text><text xml:space="preserve" font-family="AvenirNext-Regular" font-size="24.6" fill="#FFFFFF" transform="matrix(1.00, 0.00, -0.00, -1.00, 509.4, 199.0)">e</text><text xml:space="preserve" font-family="AvenirNext-Regular" font-size="24.6" fill="#FFFFFF" transform="matrix(1.00, 0.00, -0.00, -1.00, 523.5, 199.0)"> </text><text xml:space="preserve" font-family="AvenirNext-Regular" font-size="24.6" fill="#FFFFFF" transform="matrix(1.00, 0.00, -0.00, -1.00, 529.6, 199.0)">v</text><text xml:space="preserve" font-family="AvenirNext-Regular" font-size="24.6" fill="#FFFFFF" transform="matrix(1.00, 0.00, -0.00, -1.00, 541.6, 199.0)">a</text><text xml:space="preserve" font-family="AvenirNext-Regular" font-size="24.6" fill="#FFFFFF" transform="matrix(1.00, 0.00, -0.00, -1.00, 554.8, 199.0)">r</text><text xml:space="preserve" font-family="AvenirNext-Regular" font-size="24.6" fill="#FFFFFF" transform="matrix(1.00, 0.00, -0.00, -1.00, 563.7, 199.0)">i</text><text xml:space="preserve" font-family="AvenirNext-Regular" font-size="24.6" fill="#FFFFFF" transform="matrix(1.00, 0.00, -0.00, -1.00, 569.8, 199.0)">a</text><text xml:space="preserve" font-family="AvenirNext-Regular" font-size="24.6" fill="#FFFFFF" transform="matrix(1.00, 0.00, -0.00, -1.00, 583.0, 199.0)">b</text><text xml:space="preserve" font-family="AvenirNext-Regular" font-size="24.6" fill="#FFFFFF" transform="matrix(1.00, 0.00, -0.00, -1.00, 598.7, 199.0)">l</text><text xml:space="preserve" font-family="AvenirNext-Regular" font-size="24.6" fill="#FFFFFF" transform="matrix(1.00, 0.00, -0.00, -1.00, 604.9, 199.0)">e</text><text xml:space="preserve" font-family="AvenirNext-Regular" font-size="24.6" fill="#FFFFFF" transform="matrix(1.00, 0.00, -0.00, -1.00, 619.0, 199.0)"> </text><text xml:space="preserve" font-family="AvenirNext-Regular" font-size="24.6" fill="#FFFFFF" transform="matrix(1.00, 0.00, -0.00, -1.00, 625.1, 199.0)">n</text><text xml:space="preserve" font-family="AvenirNext-Regular" font-size="24.6" fill="#FFFFFF" transform="matrix(1.00, 0.00, -0.00, -1.00, 639.5, 199.0)">a</text><text xml:space="preserve" font-family="AvenirNext-Regular" font-size="24.6" fill="#FFFFFF" transform="matrix(1.00, 0.00, -0.00, -1.00, 652.6, 199.0)">m</text><text xml:space="preserve" font-family="AvenirNext-Regular" font-size="24.6" fill="#FFFFFF" transform="matrix(1.00, 0.00, -0.00, -1.00, 674.4, 199.0)">e</text><text xml:space="preserve" font-family="AvenirNext-Regular" font-size="24.6" fill="#FFFFFF" transform="matrix(1.00, 0.00, -0.00, -1.00, 688.5, 199.0)">s</text><text xml:space="preserve" font-family="AvenirNext-Regular" font-size="24.6" fill="#FFFFFF" transform="matrix(1.00, 0.00, -0.00, -1.00, 699.4, 199.0)"> </text><text xml:space="preserve" font-family="LucidaGrande" font-size="18.5" fill="#CACACA" transform="matrix(1.00, 0.00, -0.00, -1.00, 37.0, 152.2)">‣</text><text xml:space="preserve" font-family="AvenirNext-Regular" font-size="24.6" fill="#FFFFFF" transform="matrix(1.00, 0.00, -0.00, -1.00, 65.0, 151.0)">L</text><text xml:space="preserve" font-family="AvenirNext-Regular" font-size="24.6" fill="#FFFFFF" transform="matrix(1.00, 0.00, -0.00, -1.00, 77.1, 151.0)">o</text><text xml:space="preserve" font-family="AvenirNext-Regular" font-size="24.6" fill="#FFFFFF" transform="matrix(1.00, 0.00, -0.00, -1.00, 92.2, 151.0)">g</text><text xml:space="preserve" font-family="AvenirNext-Regular" font-size="24.6" fill="#FFFFFF" transform="matrix(1.00, 0.00, -0.00, -1.00, 107.8, 151.0)">i</text><text xml:space="preserve" font-family="AvenirNext-Regular" font-size="24.6" fill="#FFFFFF" transform="matrix(1.00, 0.00, -0.00, -1.00, 113.9, 151.0)">c</text><text xml:space="preserve" font-family="AvenirNext-Regular" font-size="24.6" fill="#FFFFFF" transform="matrix(1.00, 0.00, -0.00, -1.00, 126.2, 151.0)">a</text><text xml:space="preserve" font-family="AvenirNext-Regular" font-size="24.6" fill="#FFFFFF" transform="matrix(1.00, 0.00, -0.00, -1.00, 139.4, 151.0)">l</text><text xml:space="preserve" font-family="AvenirNext-Regular" font-size="24.6" fill="#FFFFFF" transform="matrix(1.00, 0.00, -0.00, -1.00, 145.6, 151.0)"> </text><text xml:space="preserve" font-family="AvenirNext-Regular" font-size="24.6" fill="#FFFFFF" transform="matrix(1.00, 0.00, -0.00, -1.00, 151.8, 151.0)">s</text><text xml:space="preserve" font-family="AvenirNext-Regular" font-size="24.6" fill="#FFFFFF" transform="matrix(1.00, 0.00, -0.00, -1.00, 162.7, 151.0)">e</text><text xml:space="preserve" font-family="AvenirNext-Regular" font-size="24.6" fill="#FFFFFF" transform="matrix(1.00, 0.00, -0.00, -1.00, 176.8, 151.0)">p</text><text xml:space="preserve" font-family="AvenirNext-Regular" font-size="24.6" fill="#FFFFFF" transform="matrix(1.00, 0.00, -0.00, -1.00, 192.4, 151.0)">a</text><text xml:space="preserve" font-family="AvenirNext-Regular" font-size="24.6" fill="#FFFFFF" transform="matrix(1.00, 0.00, -0.00, -1.00, 205.6, 151.0)">r</text><text xml:space="preserve" font-family="AvenirNext-Regular" font-size="24.6" fill="#FFFFFF" transform="matrix(1.00, 0.00, -0.00, -1.00, 214.2, 151.0)">a</text><text xml:space="preserve" font-family="AvenirNext-Regular" font-size="24.6" fill="#FFFFFF" transform="matrix(1.00, 0.00, -0.00, -1.00, 227.1, 151.0)">t</text><text xml:space="preserve" font-family="AvenirNext-Regular" font-size="24.6" fill="#FFFFFF" transform="matrix(1.00, 0.00, -0.00, -1.00, 234.9, 151.0)">i</text><text xml:space="preserve" font-family="AvenirNext-Regular" font-size="24.6" fill="#FFFFFF" transform="matrix(1.00, 0.00, -0.00, -1.00, 241.1, 151.0)">o</text><text xml:space="preserve" font-family="AvenirNext-Regular" font-size="24.6" fill="#FFFFFF" transform="matrix(1.00, 0.00, -0.00, -1.00, 256.1, 151.0)">n</text><text xml:space="preserve" font-family="AvenirNext-Regular" font-size="24.6" fill="#FFFFFF" transform="matrix(1.00, 0.00, -0.00, -1.00, 270.4, 151.0)"> </text><text xml:space="preserve" font-family="AvenirNext-Regular" font-size="24.6" fill="#FFFFFF" transform="matrix(1.00, 0.00, -0.00, -1.00, 276.6, 151.0)">o</text><text xml:space="preserve" font-family="AvenirNext-Regular" font-size="24.6" fill="#FFFFFF" transform="matrix(1.00, 0.00, -0.00, -1.00, 291.6, 151.0)">f</text><text xml:space="preserve" font-family="AvenirNext-Regular" font-size="24.6" fill="#FFFFFF" transform="matrix(1.00, 0.00, -0.00, -1.00, 299.5, 151.0)"> </text><text xml:space="preserve" font-family="AvenirNext-Regular" font-size="24.6" fill="#FFFFFF" transform="matrix(1.00, 0.00, -0.00, -1.00, 305.7, 151.0)">c</text><text xml:space="preserve" font-family="AvenirNext-Regular" font-size="24.6" fill="#FFFFFF" transform="matrix(1.00, 0.00, -0.00, -1.00, 318.0, 151.0)">o</text><text xml:space="preserve" font-family="AvenirNext-Regular" font-size="24.6" fill="#FFFFFF" transform="matrix(1.00, 0.00, -0.00, -1.00, 333.0, 151.0)">d</text><text xml:space="preserve" font-family="AvenirNext-Regular" font-size="24.6" fill="#FFFFFF" transform="matrix(1.00, 0.00, -0.00, -1.00, 348.7, 151.0)">e</text><text xml:space="preserve" font-family="AvenirNext-Regular" font-size="24.6" fill="#FFFFFF" transform="matrix(1.00, 0.00, -0.00, -1.00, 362.8, 151.0)"> </text><text xml:space="preserve" font-family="AvenirNext-Regular" font-size="24.6" fill="#FFFFFF" transform="matrix(1.00, 0.00, -0.00, -1.00, 369.0, 151.0)">i</text><text xml:space="preserve" font-family="AvenirNext-Regular" font-size="24.6" fill="#FFFFFF" transform="matrix(1.00, 0.00, -0.00, -1.00, 375.1, 151.0)">n</text><text xml:space="preserve" font-family="AvenirNext-Regular" font-size="24.6" fill="#FFFFFF" transform="matrix(1.00, 0.00, -0.00, -1.00, 389.5, 151.0)">t</text><text xml:space="preserve" font-family="AvenirNext-Regular" font-size="24.6" fill="#FFFFFF" transform="matrix(1.00, 0.00, -0.00, -1.00, 397.3, 151.0)">o</text><text xml:space="preserve" font-family="AvenirNext-Regular" font-size="24.6" fill="#FFFFFF" transform="matrix(1.00, 0.00, -0.00, -1.00, 412.3, 151.0)"> </text><text xml:space="preserve" font-family="AvenirNext-Regular" font-size="24.6" fill="#FFFFFF" transform="matrix(1.00, 0.00, -0.00, -1.00, 418.5, 151.0)">m</text><text xml:space="preserve" font-family="AvenirNext-Regular" font-size="24.6" fill="#FFFFFF" transform="matrix(1.00, 0.00, -0.00, -1.00, 440.2, 151.0)">u</text><text xml:space="preserve" font-family="AvenirNext-Regular" font-size="24.6" fill="#FFFFFF" transform="matrix(1.00, 0.00, -0.00, -1.00, 454.6, 151.0)">l</text><text xml:space="preserve" font-family="AvenirNext-Regular" font-size="24.6" fill="#FFFFFF" transform="matrix(1.00, 0.00, -0.00, -1.00, 460.8, 151.0)">t</text><text xml:space="preserve" font-family="AvenirNext-Regular" font-size="24.6" fill="#FFFFFF" transform="matrix(1.00, 0.00, -0.00, -1.00, 468.6, 151.0)">i</text><text xml:space="preserve" font-family="AvenirNext-Regular" font-size="24.6" fill="#FFFFFF" transform="matrix(1.00, 0.00, -0.00, -1.00, 474.7, 151.0)">p</text><text xml:space="preserve" font-family="AvenirNext-Regular" font-size="24.6" fill="#FFFFFF" transform="matrix(1.00, 0.00, -0.00, -1.00, 490.4, 151.0)">l</text><text xml:space="preserve" font-family="AvenirNext-Regular" font-size="24.6" fill="#FFFFFF" transform="matrix(1.00, 0.00, -0.00, -1.00, 496.6, 151.0)">e</text><text xml:space="preserve" font-family="AvenirNext-Regular" font-size="24.6" fill="#FFFFFF" transform="matrix(1.00, 0.00, -0.00, -1.00, 510.7, 151.0)"> </text><text xml:space="preserve" font-family="AvenirNext-Regular" font-size="24.6" fill="#FFFFFF" transform="matrix(1.00, 0.00, -0.00, -1.00, 516.8, 151.0)">ﬁ</text><text xml:space="preserve" font-family="AvenirNext-Regular" font-size="24.6" fill="#FFFFFF" transform="matrix(1.00, 0.00, -0.00, -1.00, 530.3, 151.0)">l</text><text xml:space="preserve" font-family="AvenirNext-Regular" font-size="24.6" fill="#FFFFFF" transform="matrix(1.00, 0.00, -0.00, -1.00, 536.5, 151.0)">e</text><text xml:space="preserve" font-family="AvenirNext-Regular" font-size="24.6" fill="#FFFFFF" transform="matrix(1.00, 0.00, -0.00, -1.00, 550.6, 151.0)">s</text><text xml:space="preserve" font-family="AvenirNext-Regular" font-size="24.6" fill="#FFFFFF" transform="matrix(1.00, 0.00, -0.00, -1.00, 561.5, 151.0)"> </text><text xml:space="preserve" font-family="LucidaGrande" font-size="18.5" fill="#CACACA" transform="matrix(1.00, 0.00, -0.00, -1.00, 37.0, 104.3)">‣</text><text xml:space="preserve" font-family="AvenirNext-Regular" font-size="24.6" fill="#FFFFFF" transform="matrix(1.00, 0.00, -0.00, -1.00, 65.0, 103.0)">M</text><text xml:space="preserve" font-family="AvenirNext-Regular" font-size="24.6" fill="#FFFFFF" transform="matrix(1.00, 0.00, -0.00, -1.00, 86.8, 103.0)">i</text><text xml:space="preserve" font-family="AvenirNext-Regular" font-size="24.6" fill="#FFFFFF" transform="matrix(1.00, 0.00, -0.00, -1.00, 93.0, 103.0)">g</text><text xml:space="preserve" font-family="AvenirNext-Regular" font-size="24.6" fill="#FFFFFF" transform="matrix(1.00, 0.00, -0.00, -1.00, 108.6, 103.0)">h</text><text xml:space="preserve" font-family="AvenirNext-Regular" font-size="24.6" fill="#FFFFFF" transform="matrix(1.00, 0.00, -0.00, -1.00, 122.9, 103.0)">t</text><text xml:space="preserve" font-family="AvenirNext-Regular" font-size="24.6" fill="#FFFFFF" transform="matrix(1.00, 0.00, -0.00, -1.00, 130.7, 103.0)"> </text><text xml:space="preserve" font-family="AvenirNext-Regular" font-size="24.6" fill="#FFFFFF" transform="matrix(1.00, 0.00, -0.00, -1.00, 136.9, 103.0)">n</text><text xml:space="preserve" font-family="AvenirNext-Regular" font-size="24.6" fill="#FFFFFF" transform="matrix(1.00, 0.00, -0.00, -1.00, 151.2, 103.0)">o</text><text xml:space="preserve" font-family="AvenirNext-Regular" font-size="24.6" fill="#FFFFFF" transform="matrix(1.00, 0.00, -0.00, -1.00, 166.3, 103.0)">t</text><text xml:space="preserve" font-family="AvenirNext-Regular" font-size="24.6" fill="#FFFFFF" transform="matrix(1.00, 0.00, -0.00, -1.00, 174.1, 103.0)"> </text><text xml:space="preserve" font-family="AvenirNext-Regular" font-size="24.6" fill="#FFFFFF" transform="matrix(1.00, 0.00, -0.00, -1.00, 180.2, 103.0)">u</text><text xml:space="preserve" font-family="AvenirNext-Regular" font-size="24.6" fill="#FFFFFF" transform="matrix(1.00, 0.00, -0.00, -1.00, 194.6, 103.0)">s</text><text xml:space="preserve" font-family="AvenirNext-Regular" font-size="24.6" fill="#FFFFFF" transform="matrix(1.00, 0.00, -0.00, -1.00, 205.5, 103.0)">e</text><text xml:space="preserve" font-family="AvenirNext-Regular" font-size="24.6" fill="#FFFFFF" transform="matrix(1.00, 0.00, -0.00, -1.00, 219.6, 103.0)"> </text><text xml:space="preserve" font-family="AvenirNext-Regular" font-size="24.6" fill="#FFFFFF" transform="matrix(1.00, 0.00, -0.00, -1.00, 225.8, 103.0)">c</text><text xml:space="preserve" font-family="AvenirNext-Regular" font-size="24.6" fill="#FFFFFF" transform="matrix(1.00, 0.00, -0.00, -1.00, 238.1, 103.0)">o</text><text xml:space="preserve" font-family="AvenirNext-Regular" font-size="24.6" fill="#FFFFFF" transform="matrix(1.00, 0.00, -0.00, -1.00, 253.1, 103.0)">d</text><text xml:space="preserve" font-family="AvenirNext-Regular" font-size="24.6" fill="#FFFFFF" transform="matrix(1.00, 0.00, -0.00, -1.00, 268.8, 103.0)">e</text><text xml:space="preserve" font-family="AvenirNext-Regular" font-size="24.6" fill="#FFFFFF" transform="matrix(1.00, 0.00, -0.00, -1.00, 282.9, 103.0)"> </text><text xml:space="preserve" font-family="AvenirNext-Regular" font-size="24.6" fill="#FFFFFF" transform="matrix(1.00, 0.00, -0.00, -1.00, 289.1, 103.0)">t</text><text xml:space="preserve" font-family="AvenirNext-Regular" font-size="24.6" fill="#FFFFFF" transform="matrix(1.00, 0.00, -0.00, -1.00, 296.9, 103.0)">h</text><text xml:space="preserve" font-family="AvenirNext-Regular" font-size="24.6" fill="#FFFFFF" transform="matrix(1.00, 0.00, -0.00, -1.00, 311.3, 103.0)">e</text><text xml:space="preserve" font-family="AvenirNext-Regular" font-size="24.6" fill="#FFFFFF" transform="matrix(1.00, 0.00, -0.00, -1.00, 325.3, 103.0)"> </text><text xml:space="preserve" font-family="AvenirNext-Regular" font-size="24.6" fill="#FFFFFF" transform="matrix(1.00, 0.00, -0.00, -1.00, 331.5, 103.0)">b</text><text xml:space="preserve" font-family="AvenirNext-Regular" font-size="24.6" fill="#FFFFFF" transform="matrix(1.00, 0.00, -0.00, -1.00, 347.2, 103.0)">r</text><text xml:space="preserve" font-family="AvenirNext-Regular" font-size="24.6" fill="#FFFFFF" transform="matrix(1.00, 0.00, -0.00, -1.00, 355.6, 103.0)">o</text><text xml:space="preserve" font-family="AvenirNext-Regular" font-size="24.6" fill="#FFFFFF" transform="matrix(1.00, 0.00, -0.00, -1.00, 370.7, 103.0)">w</text><text xml:space="preserve" font-family="AvenirNext-Regular" font-size="24.6" fill="#FFFFFF" transform="matrix(1.00, 0.00, -0.00, -1.00, 389.1, 103.0)">s</text><text xml:space="preserve" font-family="AvenirNext-Regular" font-size="24.6" fill="#FFFFFF" transform="matrix(1.00, 0.00, -0.00, -1.00, 400.0, 103.0)">e</text><text xml:space="preserve" font-family="AvenirNext-Regular" font-size="24.6" fill="#FFFFFF" transform="matrix(1.00, 0.00, -0.00, -1.00, 414.1, 103.0)">r</text><text xml:space="preserve" font-family="AvenirNext-Regular" font-size="24.6" fill="#FFFFFF" transform="matrix(1.00, 0.00, -0.00, -1.00, 423.0, 103.0)"> </text><text xml:space="preserve" font-family="AvenirNext-Regular" font-size="24.6" fill="#FFFFFF" transform="matrix(1.00, 0.00, -0.00, -1.00, 429.1, 103.0)">c</text><text xml:space="preserve" font-family="AvenirNext-Regular" font-size="24.6" fill="#FFFFFF" transform="matrix(1.00, 0.00, -0.00, -1.00, 441.4, 103.0)">a</text><text xml:space="preserve" font-family="AvenirNext-Regular" font-size="24.6" fill="#FFFFFF" transform="matrix(1.00, 0.00, -0.00, -1.00, 454.6, 103.0)">n</text><text xml:space="preserve" font-family="AvenirNext-Regular" font-size="24.6" fill="#FFFFFF" transform="matrix(1.00, 0.00, -0.00, -1.00, 468.9, 103.0)"> </text><text xml:space="preserve" font-family="AvenirNext-Regular" font-size="24.6" fill="#FFFFFF" transform="matrix(1.00, 0.00, -0.00, -1.00, 475.1, 103.0)">u</text><text xml:space="preserve" font-family="AvenirNext-Regular" font-size="24.6" fill="#FFFFFF" transform="matrix(1.00, 0.00, -0.00, -1.00, 489.4, 103.0)">n</text><text xml:space="preserve" font-family="AvenirNext-Regular" font-size="24.6" fill="#FFFFFF" transform="matrix(1.00, 0.00, -0.00, -1.00, 503.7, 103.0)">d</text><text xml:space="preserve" font-family="AvenirNext-Regular" font-size="24.6" fill="#FFFFFF" transform="matrix(1.00, 0.00, -0.00, -1.00, 519.4, 103.0)">e</text><text xml:space="preserve" font-family="AvenirNext-Regular" font-size="24.6" fill="#FFFFFF" transform="matrix(1.00, 0.00, -0.00, -1.00, 533.5, 103.0)">r</text><text xml:space="preserve" font-family="AvenirNext-Regular" font-size="24.6" fill="#FFFFFF" transform="matrix(1.00, 0.00, -0.00, -1.00, 542.4, 103.0)">s</text><text xml:space="preserve" font-family="AvenirNext-Regular" font-size="24.6" fill="#FFFFFF" transform="matrix(1.00, 0.00, -0.00, -1.00, 553.3, 103.0)">t</text><text xml:space="preserve" font-family="AvenirNext-Regular" font-size="24.6" fill="#FFFFFF" transform="matrix(1.00, 0.00, -0.00, -1.00, 561.1, 103.0)">a</text><text xml:space="preserve" font-family="AvenirNext-Regular" font-size="24.6" fill="#FFFFFF" transform="matrix(1.00, 0.00, -0.00, -1.00, 574.3, 103.0)">n</text><text xml:space="preserve" font-family="AvenirNext-Regular" font-size="24.6" fill="#FFFFFF" transform="matrix(1.00, 0.00, -0.00, -1.00, 588.6, 103.0)">d</text><text xml:space="preserve" font-family="AvenirNext-Regular" font-size="24.6" fill="#FFFFFF" transform="matrix(1.00, 0.00, -0.00, -1.00, 604.3, 103.0)">!</text><text xml:space="preserve" font-family="AvenirNext-Regular" font-size="24.6" fill="#FFFFFF" transform="matrix(1.00, 0.00, -0.00, -1.00, 612.4, 103.0)"> </text><text xml:space="preserve" font-family="LucidaGrande" font-size="18.5" fill="#CACACA" transform="matrix(1.00, 0.00, -0.00, -1.00, 74.0, 56.5)">‣</text><text xml:space="preserve" font-family="AvenirNext-Regular" font-size="24.6" fill="#FFFFFF" transform="matrix(1.00, 0.00, -0.00, -1.00, 102.0, 56.0)">B</text><text xml:space="preserve" font-family="AvenirNext-Regular" font-size="24.6" fill="#FFFFFF" transform="matrix(1.00, 0.00, -0.00, -1.00, 117.7, 56.0)">r</text><text xml:space="preserve" font-family="AvenirNext-Regular" font-size="24.6" fill="#FFFFFF" transform="matrix(1.00, 0.00, -0.00, -1.00, 126.1, 56.0)">o</text><text xml:space="preserve" font-family="AvenirNext-Regular" font-size="24.6" fill="#FFFFFF" transform="matrix(1.00, 0.00, -0.00, -1.00, 141.2, 56.0)">w</text><text xml:space="preserve" font-family="AvenirNext-Regular" font-size="24.6" fill="#FFFFFF" transform="matrix(1.00, 0.00, -0.00, -1.00, 159.5, 56.0)">s</text><text xml:space="preserve" font-family="AvenirNext-Regular" font-size="24.6" fill="#FFFFFF" transform="matrix(1.00, 0.00, -0.00, -1.00, 170.5, 56.0)">e</text><text xml:space="preserve" font-family="AvenirNext-Regular" font-size="24.6" fill="#FFFFFF" transform="matrix(1.00, 0.00, -0.00, -1.00, 184.6, 56.0)">r</text><text xml:space="preserve" font-family="AvenirNext-Regular" font-size="24.6" fill="#FFFFFF" transform="matrix(1.00, 0.00, -0.00, -1.00, 193.4, 56.0)">s</text><text xml:space="preserve" font-family="AvenirNext-Regular" font-size="24.6" fill="#FFFFFF" transform="matrix(1.00, 0.00, -0.00, -1.00, 204.4, 56.0)"> </text><text xml:space="preserve" font-family="AvenirNext-Regular" font-size="24.6" fill="#FFFFFF" transform="matrix(1.00, 0.00, -0.00, -1.00, 210.5, 56.0)">d</text><text xml:space="preserve" font-family="AvenirNext-Regular" font-size="24.6" fill="#FFFFFF" transform="matrix(1.00, 0.00, -0.00, -1.00, 226.2, 56.0)">o</text><text xml:space="preserve" font-family="AvenirNext-Regular" font-size="24.6" fill="#FFFFFF" transform="matrix(1.00, 0.00, -0.00, -1.00, 241.3, 56.0)">n</text><text xml:space="preserve" font-family="AvenirNext-Regular" font-size="24.6" fill="#FFFFFF" transform="matrix(1.00, 0.00, -0.00, -1.00, 255.6, 56.0)">’</text><text xml:space="preserve" font-family="AvenirNext-Regular" font-size="24.6" fill="#FFFFFF" transform="matrix(1.00, 0.00, -0.00, -1.00, 261.1, 56.0)">t</text><text xml:space="preserve" font-family="AvenirNext-Regular" font-size="24.6" fill="#FFFFFF" transform="matrix(1.00, 0.00, -0.00, -1.00, 268.9, 56.0)"> </text><text xml:space="preserve" font-family="AvenirNext-Regular" font-size="24.6" fill="#FFFFFF" transform="matrix(1.00, 0.00, -0.00, -1.00, 275.0, 56.0)">u</text><text xml:space="preserve" font-family="AvenirNext-Regular" font-size="24.6" fill="#FFFFFF" transform="matrix(1.00, 0.00, -0.00, -1.00, 289.4, 56.0)">n</text><text xml:space="preserve" font-family="AvenirNext-Regular" font-size="24.6" fill="#FFFFFF" transform="matrix(1.00, 0.00, -0.00, -1.00, 303.7, 56.0)">d</text><text xml:space="preserve" font-family="AvenirNext-Regular" font-size="24.6" fill="#FFFFFF" transform="matrix(1.00, 0.00, -0.00, -1.00, 319.4, 56.0)">e</text><text xml:space="preserve" font-family="AvenirNext-Regular" font-size="24.6" fill="#FFFFFF" transform="matrix(1.00, 0.00, -0.00, -1.00, 333.5, 56.0)">r</text><text xml:space="preserve" font-family="AvenirNext-Regular" font-size="24.6" fill="#FFFFFF" transform="matrix(1.00, 0.00, -0.00, -1.00, 342.3, 56.0)">s</text><text xml:space="preserve" font-family="AvenirNext-Regular" font-size="24.6" fill="#FFFFFF" transform="matrix(1.00, 0.00, -0.00, -1.00, 353.3, 56.0)">t</text><text xml:space="preserve" font-family="AvenirNext-Regular" font-size="24.6" fill="#FFFFFF" transform="matrix(1.00, 0.00, -0.00, -1.00, 361.1, 56.0)">a</text><text xml:space="preserve" font-family="AvenirNext-Regular" font-size="24.6" fill="#FFFFFF" transform="matrix(1.00, 0.00, -0.00, -1.00, 374.2, 56.0)">n</text><text xml:space="preserve" font-family="AvenirNext-Regular" font-size="24.6" fill="#FFFFFF" transform="matrix(1.00, 0.00, -0.00, -1.00, 388.6, 56.0)">d</text><text xml:space="preserve" font-family="AvenirNext-Regular" font-size="24.6" fill="#FFFFFF" transform="matrix(1.00, 0.00, -0.00, -1.00, 404.3, 56.0)"> </text><text xml:space="preserve" font-family="AvenirNext-Regular" font-size="24.6" fill="#FFFFFF" transform="matrix(1.00, 0.00, -0.00, -1.00, 410.4, 56.0)">E</text><text xml:space="preserve" font-family="AvenirNext-Regular" font-size="24.6" fill="#FFFFFF" transform="matrix(1.00, 0.00, -0.00, -1.00, 425.0, 56.0)">S</text><text xml:space="preserve" font-family="AvenirNext-Regular" font-size="24.6" fill="#FFFFFF" transform="matrix(1.00, 0.00, -0.00, -1.00, 438.9, 56.0)">6</text><text xml:space="preserve" font-family="AvenirNext-Regular" font-size="24.6" fill="#FFFFFF" transform="matrix(1.00, 0.00, -0.00, -1.00, 453.2, 56.0)"> </text><text xml:space="preserve" font-family="LucidaGrande" font-size="18.5" fill="#CACACA" transform="matrix(1.00, 0.00, -0.00, -1.00, 74.0, 8.6)">‣</text><text xml:space="preserve" font-family="AvenirNext-Regular" font-size="24.6" fill="#FFFFFF" transform="matrix(1.00, 0.00, -0.00, -1.00, 102.0, 8.0)">D</text><text xml:space="preserve" font-family="AvenirNext-Regular" font-size="24.6" fill="#FFFFFF" transform="matrix(1.00, 0.00, -0.00, -1.00, 120.7, 8.0)">e</text><text xml:space="preserve" font-family="AvenirNext-Regular" font-size="24.6" fill="#FFFFFF" transform="matrix(1.00, 0.00, -0.00, -1.00, 134.7, 8.0)">ﬁ</text><text xml:space="preserve" font-family="AvenirNext-Regular" font-size="24.6" fill="#FFFFFF" transform="matrix(1.00, 0.00, -0.00, -1.00, 148.2, 8.0)">n</text><text xml:space="preserve" font-family="AvenirNext-Regular" font-size="24.6" fill="#FFFFFF" transform="matrix(1.00, 0.00, -0.00, -1.00, 162.5, 8.0)">i</text><text xml:space="preserve" font-family="AvenirNext-Regular" font-size="24.6" fill="#FFFFFF" transform="matrix(1.00, 0.00, -0.00, -1.00, 168.6, 8.0)">t</text><text xml:space="preserve" font-family="AvenirNext-Regular" font-size="24.6" fill="#FFFFFF" transform="matrix(1.00, 0.00, -0.00, -1.00, 176.4, 8.0)">e</text><text xml:space="preserve" font-family="AvenirNext-Regular" font-size="24.6" fill="#FFFFFF" transform="matrix(1.00, 0.00, -0.00, -1.00, 190.5, 8.0)">l</text><text xml:space="preserve" font-family="AvenirNext-Regular" font-size="24.6" fill="#FFFFFF" transform="matrix(1.00, 0.00, -0.00, -1.00, 196.7, 8.0)">y</text><text xml:space="preserve" font-family="AvenirNext-Regular" font-size="24.6" fill="#FFFFFF" transform="matrix(1.00, 0.00, -0.00, -1.00, 208.8, 8.0)"> </text><text xml:space="preserve" font-family="AvenirNext-Regular" font-size="24.6" fill="#FFFFFF" transform="matrix(1.00, 0.00, -0.00, -1.00, 214.9, 8.0)">d</text><text xml:space="preserve" font-family="AvenirNext-Regular" font-size="24.6" fill="#FFFFFF" transform="matrix(1.00, 0.00, -0.00, -1.00, 230.6, 8.0)">o</text><text xml:space="preserve" font-family="AvenirNext-Regular" font-size="24.6" fill="#FFFFFF" transform="matrix(1.00, 0.00, -0.00, -1.00, 245.7, 8.0)">n</text><text xml:space="preserve" font-family="AvenirNext-Regular" font-size="24.6" fill="#FFFFFF" transform="matrix(1.00, 0.00, -0.00, -1.00, 260.0, 8.0)">’</text><text xml:space="preserve" font-family="AvenirNext-Regular" font-size="24.6" fill="#FFFFFF" transform="matrix(1.00, 0.00, -0.00, -1.00, 265.5, 8.0)">t</text><text xml:space="preserve" font-family="AvenirNext-Regular" font-size="24.6" fill="#FFFFFF" transform="matrix(1.00, 0.00, -0.00, -1.00, 273.3, 8.0)"> </text><text xml:space="preserve" font-family="AvenirNext-Regular" font-size="24.6" fill="#FFFFFF" transform="matrix(1.00, 0.00, -0.00, -1.00, 279.4, 8.0)">u</text><text xml:space="preserve" font-family="AvenirNext-Regular" font-size="24.6" fill="#FFFFFF" transform="matrix(1.00, 0.00, -0.00, -1.00, 293.7, 8.0)">n</text><text xml:space="preserve" font-family="AvenirNext-Regular" font-size="24.6" fill="#FFFFFF" transform="matrix(1.00, 0.00, -0.00, -1.00, 308.1, 8.0)">d</text><text xml:space="preserve" font-family="AvenirNext-Regular" font-size="24.6" fill="#FFFFFF" transform="matrix(1.00, 0.00, -0.00, -1.00, 323.8, 8.0)">e</text><text xml:space="preserve" font-family="AvenirNext-Regular" font-size="24.6" fill="#FFFFFF" transform="matrix(1.00, 0.00, -0.00, -1.00, 337.9, 8.0)">r</text><text xml:space="preserve" font-family="AvenirNext-Regular" font-size="24.6" fill="#FFFFFF" transform="matrix(1.00, 0.00, -0.00, -1.00, 346.7, 8.0)">s</text><text xml:space="preserve" font-family="AvenirNext-Regular" font-size="24.6" fill="#FFFFFF" transform="matrix(1.00, 0.00, -0.00, -1.00, 357.7, 8.0)">t</text><text xml:space="preserve" font-family="AvenirNext-Regular" font-size="24.6" fill="#FFFFFF" transform="matrix(1.00, 0.00, -0.00, -1.00, 365.5, 8.0)">a</text><text xml:space="preserve" font-family="AvenirNext-Regular" font-size="24.6" fill="#FFFFFF" transform="matrix(1.00, 0.00, -0.00, -1.00, 378.6, 8.0)">n</text><text xml:space="preserve" font-family="AvenirNext-Regular" font-size="24.6" fill="#FFFFFF" transform="matrix(1.00, 0.00, -0.00, -1.00, 392.9, 8.0)">d</text><text xml:space="preserve" font-family="AvenirNext-Regular" font-size="24.6" fill="#FFFFFF" transform="matrix(1.00, 0.00, -0.00, -1.00, 408.6, 8.0)"> </text><text xml:space="preserve" font-family="AvenirNext-Regular" font-size="24.6" fill="#FFFFFF" transform="matrix(1.00, 0.00, -0.00, -1.00, 414.8, 8.0)">C</text><text xml:space="preserve" font-family="AvenirNext-Regular" font-size="24.6" fill="#FFFFFF" transform="matrix(1.00, 0.00, -0.00, -1.00, 432.2, 8.0)">o</text><text xml:space="preserve" font-family="AvenirNext-Regular" font-size="24.6" fill="#FFFFFF" transform="matrix(1.00, 0.00, -0.00, -1.00, 447.3, 8.0)">f</text><text xml:space="preserve" font-family="AvenirNext-Regular" font-size="24.6" fill="#FFFFFF" transform="matrix(1.00, 0.00, -0.00, -1.00, 454.1, 8.0)">f</text><text xml:space="preserve" font-family="AvenirNext-Regular" font-size="24.6" fill="#FFFFFF" transform="matrix(1.00, 0.00, -0.00, -1.00, 461.4, 8.0)">e</text><text xml:space="preserve" font-family="AvenirNext-Regular" font-size="24.6" fill="#FFFFFF" transform="matrix(1.00, 0.00, -0.00, -1.00, 475.5, 8.0)">e</text><text xml:space="preserve" font-family="AvenirNext-Regular" font-size="24.6" fill="#FFFFFF" transform="matrix(1.00, 0.00, -0.00, -1.00, 489.6, 8.0)">S</text><text xml:space="preserve" font-family="AvenirNext-Regular" font-size="24.6" fill="#FFFFFF" transform="matrix(1.00, 0.00, -0.00, -1.00, 503.5, 8.0)">c</text><text xml:space="preserve" font-family="AvenirNext-Regular" font-size="24.6" fill="#FFFFFF" transform="matrix(1.00, 0.00, -0.00, -1.00, 515.8, 8.0)">r</text><text xml:space="preserve" font-family="AvenirNext-Regular" font-size="24.6" fill="#FFFFFF" transform="matrix(1.00, 0.00, -0.00, -1.00, 524.7, 8.0)">i</text><text xml:space="preserve" font-family="AvenirNext-Regular" font-size="24.6" fill="#FFFFFF" transform="matrix(1.00, 0.00, -0.00, -1.00, 530.8, 8.0)">p</text><text xml:space="preserve" font-family="AvenirNext-Regular" font-size="24.6" fill="#FFFFFF" transform="matrix(1.00, 0.00, -0.00, -1.00, 546.5, 8.0)">t</text><text xml:space="preserve" font-family="AvenirNext-Regular" font-size="24.6" fill="#FFFFFF" transform="matrix(1.00, 0.00, -0.00, -1.00, 554.3, 8.0)">,</text><text xml:space="preserve" font-family="AvenirNext-Regular" font-size="24.6" fill="#FFFFFF" transform="matrix(1.00, 0.00, -0.00, -1.00, 560.0, 8.0)"> </text><text xml:space="preserve" font-family="AvenirNext-Regular" font-size="24.6" fill="#FFFFFF" transform="matrix(1.00, 0.00, -0.00, -1.00, 565.5, 8.0)">T</text><text xml:space="preserve" font-family="AvenirNext-Regular" font-size="24.6" fill="#FFFFFF" transform="matrix(1.00, 0.00, -0.00, -1.00, 577.2, 8.0)">y</text><text xml:space="preserve" font-family="AvenirNext-Regular" font-size="24.6" fill="#FFFFFF" transform="matrix(1.00, 0.00, -0.00, -1.00, 589.2, 8.0)">p</text><text xml:space="preserve" font-family="AvenirNext-Regular" font-size="24.6" fill="#FFFFFF" transform="matrix(1.00, 0.00, -0.00, -1.00, 604.9, 8.0)">e</text><text xml:space="preserve" font-family="AvenirNext-Regular" font-size="24.6" fill="#FFFFFF" transform="matrix(1.00, 0.00, -0.00, -1.00, 619.0, 8.0)">S</text><text xml:space="preserve" font-family="AvenirNext-Regular" font-size="24.6" fill="#FFFFFF" transform="matrix(1.00, 0.00, -0.00, -1.00, 632.9, 8.0)">c</text><text xml:space="preserve" font-family="AvenirNext-Regular" font-size="24.6" fill="#FFFFFF" transform="matrix(1.00, 0.00, -0.00, -1.00, 645.2, 8.0)">r</text><text xml:space="preserve" font-family="AvenirNext-Regular" font-size="24.6" fill="#FFFFFF" transform="matrix(1.00, 0.00, -0.00, -1.00, 654.1, 8.0)">i</text><text xml:space="preserve" font-family="AvenirNext-Regular" font-size="24.6" fill="#FFFFFF" transform="matrix(1.00, 0.00, -0.00, -1.00, 660.2, 8.0)">p</text><text xml:space="preserve" font-family="AvenirNext-Regular" font-size="24.6" fill="#FFFFFF" transform="matrix(1.00, 0.00, -0.00, -1.00, 675.9, 8.0)">t</text><text xml:space="preserve" font-family="AvenirNext-Regular" font-size="24.6" fill="#FFFFFF" transform="matrix(1.00, 0.00, -0.00, -1.00, 683.7, 8.0)">,</text><text xml:space="preserve" font-family="AvenirNext-Regular" font-size="24.6" fill="#FFFFFF" transform="matrix(1.00, 0.00, -0.00, -1.00, 689.3, 8.0)"> </text><text xml:space="preserve" font-family="AvenirNext-Regular" font-size="24.6" fill="#FFFFFF" transform="matrix(1.00, 0.00, -0.00, -1.00, 695.5, 8.0)">C</text><text xml:space="preserve" font-family="AvenirNext-Regular" font-size="24.6" fill="#FFFFFF" transform="matrix(1.00, 0.00, -0.00, -1.00, 713.2, 8.0)">l</text><text xml:space="preserve" font-family="AvenirNext-Regular" font-size="24.6" fill="#FFFFFF" transform="matrix(1.00, 0.00, -0.00, -1.00, 719.5, 8.0)">o</text><text xml:space="preserve" font-family="AvenirNext-Regular" font-size="24.6" fill="#FFFFFF" transform="matrix(1.00, 0.00, -0.00, -1.00, 734.5, 8.0)">j</text><text xml:space="preserve" font-family="AvenirNext-Regular" font-size="24.6" fill="#FFFFFF" transform="matrix(1.00, 0.00, -0.00, -1.00, 740.7, 8.0)">u</text><text xml:space="preserve" font-family="AvenirNext-Regular" font-size="24.6" fill="#FFFFFF" transform="matrix(1.00, 0.00, -0.00, -1.00, 755.0, 8.0)">r</text><text xml:space="preserve" font-family="AvenirNext-Regular" font-size="24.6" fill="#FFFFFF" transform="matrix(1.00, 0.00, -0.00, -1.00, 763.4, 8.0)">e</text><text xml:space="preserve" font-family="AvenirNext-Regular" font-size="24.6" fill="#FFFFFF" transform="matrix(1.00, 0.00, -0.00, -1.00, 777.5, 8.0)">S</text><text xml:space="preserve" font-family="AvenirNext-Regular" font-size="24.6" fill="#FFFFFF" transform="matrix(1.00, 0.00, -0.00, -1.00, 791.4, 8.0)">c</text><text xml:space="preserve" font-family="AvenirNext-Regular" font-size="24.6" fill="#FFFFFF" transform="matrix(1.00, 0.00, -0.00, -1.00, 803.7, 8.0)">r</text><text xml:space="preserve" font-family="AvenirNext-Regular" font-size="24.6" fill="#FFFFFF" transform="matrix(1.00, 0.00, -0.00, -1.00, 812.6, 8.0)">i</text><text xml:space="preserve" font-family="AvenirNext-Regular" font-size="24.6" fill="#FFFFFF" transform="matrix(1.00, 0.00, -0.00, -1.00, 818.8, 8.0)">p</text><text xml:space="preserve" font-family="AvenirNext-Regular" font-size="24.6" fill="#FFFFFF" transform="matrix(1.00, 0.00, -0.00, -1.00, 834.4, 8.0)">t</text><text xml:space="preserve" font-family="AvenirNext-Regular" font-size="24.6" fill="#FFFFFF" transform="matrix(1.00, 0.00, -0.00, -1.00, 842.2, 8.0)">,</text><text xml:space="preserve" font-family="AvenirNext-Regular" font-size="24.6" fill="#FFFFFF" transform="matrix(1.00, 0.00, -0.00, -1.00, 847.9, 8.0)"> </text><text xml:space="preserve" font-family="AvenirNext-Regular" font-size="24.6" fill="#FFFFFF" transform="matrix(1.00, 0.00, -0.00, -1.00, 854.1, 8.0)">e</text><text xml:space="preserve" font-family="AvenirNext-Regular" font-size="24.6" fill="#FFFFFF" transform="matrix(1.00, 0.00, -0.00, -1.00, 868.2, 8.0)">t</text><text xml:space="preserve" font-family="AvenirNext-Regular" font-size="24.6" fill="#FFFFFF" transform="matrix(1.00, 0.00, -0.00, -1.00, 876.0, 8.0)">c</text><text xml:space="preserve" font-family="AvenirNext-Regular" font-size="24.6" fill="#FFFFFF" transform="matrix(1.00, 0.00, -0.00, -1.00, 888.3, 8.0)">.</text></g></svg>