<?xml version="1.0" encoding="UTF-8" standalone="no"?><svg xmlns="http://www.w3.org/2000/svg" xmlns:xlink="http://www.w3.org/1999/xlink" clip-rule="evenodd" stroke-miterlimit="4.00" viewBox="0 0 814 321"><desc>SVG generated by Keynote</desc><defs></defs><g transform="matrix(1.00, 0.00, -0.00, -1.00, 0.0, 321.0)"><text xml:space="preserve" font-family="LucidaGrande" font-size="22.3" fill="#CACACA" transform="matrix(1.00, 0.00, -0.00, -1.00, 0.0, 297.7)">‣</text><text xml:space="preserve" font-family="AvenirNext-Regular" font-size="29.8" fill="#FFFFFF" transform="matrix(1.00, 0.00, -0.00, -1.00, 34.0, 297.0)">N</text><text xml:space="preserve" font-family="AvenirNext-Regular" font-size="29.8" fill="#FFFFFF" transform="matrix(1.00, 0.00, -0.00, -1.00, 56.7, 297.0)">i</text><text xml:space="preserve" font-family="AvenirNext-Regular" font-size="29.8" fill="#FFFFFF" transform="matrix(1.00, 0.00, -0.00, -1.00, 64.2, 297.0)">c</text><text xml:space="preserve" font-family="AvenirNext-Regular" font-size="29.8" fill="#FFFFFF" transform="matrix(1.00, 0.00, -0.00, -1.00, 79.1, 297.0)">e</text><text xml:space="preserve" font-family="AvenirNext-Regular" font-size="29.8" fill="#FFFFFF" transform="matrix(1.00, 0.00, -0.00, -1.00, 96.1, 297.0)"> </text><text xml:space="preserve" font-family="AvenirNext-Regular" font-size="29.8" fill="#FFFFFF" transform="matrix(1.00, 0.00, -0.00, -1.00, 103.5, 297.0)">f</text><text xml:space="preserve" font-family="AvenirNext-Regular" font-size="29.8" fill="#FFFFFF" transform="matrix(1.00, 0.00, -0.00, -1.00, 112.3, 297.0)">o</text><text xml:space="preserve" font-family="AvenirNext-Regular" font-size="29.8" fill="#FFFFFF" transform="matrix(1.00, 0.00, -0.00, -1.00, 130.5, 297.0)">r</text><text xml:space="preserve" font-family="AvenirNext-Regular" font-size="29.8" fill="#FFFFFF" transform="matrix(1.00, 0.00, -0.00, -1.00, 141.2, 297.0)"> </text><text xml:space="preserve" font-family="AvenirNext-Regular" font-size="29.8" fill="#FFFFFF" transform="matrix(1.00, 0.00, -0.00, -1.00, 148.6, 297.0)">y</text><text xml:space="preserve" font-family="AvenirNext-Regular" font-size="29.8" fill="#FFFFFF" transform="matrix(1.00, 0.00, -0.00, -1.00, 163.2, 297.0)">o</text><text xml:space="preserve" font-family="AvenirNext-Regular" font-size="29.8" fill="#FFFFFF" transform="matrix(1.00, 0.00, -0.00, -1.00, 181.3, 297.0)">u</text><text xml:space="preserve" font-family="AvenirNext-Regular" font-size="29.8" fill="#FFFFFF" transform="matrix(1.00, 0.00, -0.00, -1.00, 198.6, 297.0)"> </text><text xml:space="preserve" font-family="AvenirNext-Regular" font-size="29.8" fill="#FFFFFF" transform="matrix(1.00, 0.00, -0.00, -1.00, 206.1, 297.0)">t</text><text xml:space="preserve" font-family="AvenirNext-Regular" font-size="29.8" fill="#FFFFFF" transform="matrix(1.00, 0.00, -0.00, -1.00, 215.5, 297.0)">o</text><text xml:space="preserve" font-family="AvenirNext-Regular" font-size="29.8" fill="#FFFFFF" transform="matrix(1.00, 0.00, -0.00, -1.00, 233.7, 297.0)"> </text><text xml:space="preserve" font-family="AvenirNext-Regular" font-size="29.8" fill="#FFFFFF" transform="matrix(1.00, 0.00, -0.00, -1.00, 241.1, 297.0)">w</text><text xml:space="preserve" font-family="AvenirNext-Regular" font-size="29.8" fill="#FFFFFF" transform="matrix(1.00, 0.00, -0.00, -1.00, 263.3, 297.0)">r</text><text xml:space="preserve" font-family="AvenirNext-Regular" font-size="29.8" fill="#FFFFFF" transform="matrix(1.00, 0.00, -0.00, -1.00, 274.0, 297.0)">i</text><text xml:space="preserve" font-family="AvenirNext-Regular" font-size="29.8" fill="#FFFFFF" transform="matrix(1.00, 0.00, -0.00, -1.00, 281.5, 297.0)">t</text><text xml:space="preserve" font-family="AvenirNext-Regular" font-size="29.8" fill="#FFFFFF" transform="matrix(1.00, 0.00, -0.00, -1.00, 290.9, 297.0)">e</text><text xml:space="preserve" font-family="AvenirNext-Regular" font-size="29.8" fill="#FFFFFF" transform="matrix(1.00, 0.00, -0.00, -1.00, 307.9, 297.0)"> </text><text xml:space="preserve" font-family="LucidaGrande" font-size="22.3" fill="#CACACA" transform="matrix(1.00, 0.00, -0.00, -1.00, 37.0, 240.0)">‣</text><text xml:space="preserve" font-family="AvenirNext-Regular" font-size="29.8" fill="#FFFFFF" transform="matrix(1.00, 0.00, -0.00, -1.00, 71.0, 239.0)">E</text><text xml:space="preserve" font-family="AvenirNext-Regular" font-size="29.8" fill="#FFFFFF" transform="matrix(1.00, 0.00, -0.00, -1.00, 88.6, 239.0)">a</text><text xml:space="preserve" font-family="AvenirNext-Regular" font-size="29.8" fill="#FFFFFF" transform="matrix(1.00, 0.00, -0.00, -1.00, 104.5, 239.0)">s</text><text xml:space="preserve" font-family="AvenirNext-Regular" font-size="29.8" fill="#FFFFFF" transform="matrix(1.00, 0.00, -0.00, -1.00, 117.7, 239.0)">y</text><text xml:space="preserve" font-family="AvenirNext-Regular" font-size="29.8" fill="#FFFFFF" transform="matrix(1.00, 0.00, -0.00, -1.00, 132.2, 239.0)"> </text><text xml:space="preserve" font-family="AvenirNext-Regular" font-size="29.8" fill="#FFFFFF" transform="matrix(1.00, 0.00, -0.00, -1.00, 139.7, 239.0)">f</text><text xml:space="preserve" font-family="AvenirNext-Regular" font-size="29.8" fill="#FFFFFF" transform="matrix(1.00, 0.00, -0.00, -1.00, 148.5, 239.0)">o</text><text xml:space="preserve" font-family="AvenirNext-Regular" font-size="29.8" fill="#FFFFFF" transform="matrix(1.00, 0.00, -0.00, -1.00, 166.6, 239.0)">r</text><text xml:space="preserve" font-family="AvenirNext-Regular" font-size="29.8" fill="#FFFFFF" transform="matrix(1.00, 0.00, -0.00, -1.00, 177.4, 239.0)"> </text><text xml:space="preserve" font-family="AvenirNext-Regular" font-size="29.8" fill="#FFFFFF" transform="matrix(1.00, 0.00, -0.00, -1.00, 184.8, 239.0)">h</text><text xml:space="preserve" font-family="AvenirNext-Regular" font-size="29.8" fill="#FFFFFF" transform="matrix(1.00, 0.00, -0.00, -1.00, 202.2, 239.0)">u</text><text xml:space="preserve" font-family="AvenirNext-Regular" font-size="29.8" fill="#FFFFFF" transform="matrix(1.00, 0.00, -0.00, -1.00, 219.4, 239.0)">m</text><text xml:space="preserve" font-family="AvenirNext-Regular" font-size="29.8" fill="#FFFFFF" transform="matrix(1.00, 0.00, -0.00, -1.00, 245.7, 239.0)">a</text><text xml:space="preserve" font-family="AvenirNext-Regular" font-size="29.8" fill="#FFFFFF" transform="matrix(1.00, 0.00, -0.00, -1.00, 261.6, 239.0)">n</text><text xml:space="preserve" font-family="AvenirNext-Regular" font-size="29.8" fill="#FFFFFF" transform="matrix(1.00, 0.00, -0.00, -1.00, 278.9, 239.0)">s</text><text xml:space="preserve" font-family="AvenirNext-Regular" font-size="29.8" fill="#FFFFFF" transform="matrix(1.00, 0.00, -0.00, -1.00, 292.1, 239.0)"> </text><text xml:space="preserve" font-family="AvenirNext-Regular" font-size="29.8" fill="#FFFFFF" transform="matrix(1.00, 0.00, -0.00, -1.00, 299.6, 239.0)">t</text><text xml:space="preserve" font-family="AvenirNext-Regular" font-size="29.8" fill="#FFFFFF" transform="matrix(1.00, 0.00, -0.00, -1.00, 309.0, 239.0)">o</text><text xml:space="preserve" font-family="AvenirNext-Regular" font-size="29.8" fill="#FFFFFF" transform="matrix(1.00, 0.00, -0.00, -1.00, 327.2, 239.0)"> </text><text xml:space="preserve" font-family="AvenirNext-Regular" font-size="29.8" fill="#FFFFFF" transform="matrix(1.00, 0.00, -0.00, -1.00, 334.6, 239.0)">r</text><text xml:space="preserve" font-family="AvenirNext-Regular" font-size="29.8" fill="#FFFFFF" transform="matrix(1.00, 0.00, -0.00, -1.00, 344.8, 239.0)">e</text><text xml:space="preserve" font-family="AvenirNext-Regular" font-size="29.8" fill="#FFFFFF" transform="matrix(1.00, 0.00, -0.00, -1.00, 361.6, 239.0)">a</text><text xml:space="preserve" font-family="AvenirNext-Regular" font-size="29.8" fill="#FFFFFF" transform="matrix(1.00, 0.00, -0.00, -1.00, 377.5, 239.0)">d</text><text xml:space="preserve" font-family="AvenirNext-Regular" font-size="29.8" fill="#FFFFFF" transform="matrix(1.00, 0.00, -0.00, -1.00, 396.5, 239.0)"> </text><text xml:space="preserve" font-family="LucidaGrande" font-size="22.3" fill="#CACACA" transform="matrix(1.00, 0.00, -0.00, -1.00, 37.0, 182.2)">‣</text><text xml:space="preserve" font-family="AvenirNext-Regular" font-size="29.8" fill="#FFFFFF" transform="matrix(1.00, 0.00, -0.00, -1.00, 71.0, 181.0)">L</text><text xml:space="preserve" font-family="AvenirNext-Regular" font-size="29.8" fill="#FFFFFF" transform="matrix(1.00, 0.00, -0.00, -1.00, 85.6, 181.0)">o</text><text xml:space="preserve" font-family="AvenirNext-Regular" font-size="29.8" fill="#FFFFFF" transform="matrix(1.00, 0.00, -0.00, -1.00, 103.8, 181.0)">g</text><text xml:space="preserve" font-family="AvenirNext-Regular" font-size="29.8" fill="#FFFFFF" transform="matrix(1.00, 0.00, -0.00, -1.00, 122.6, 181.0)">i</text><text xml:space="preserve" font-family="AvenirNext-Regular" font-size="29.8" fill="#FFFFFF" transform="matrix(1.00, 0.00, -0.00, -1.00, 130.1, 181.0)">c</text><text xml:space="preserve" font-family="AvenirNext-Regular" font-size="29.8" fill="#FFFFFF" transform="matrix(1.00, 0.00, -0.00, -1.00, 145.0, 181.0)">a</text><text xml:space="preserve" font-family="AvenirNext-Regular" font-size="29.8" fill="#FFFFFF" transform="matrix(1.00, 0.00, -0.00, -1.00, 160.8, 181.0)">l</text><text xml:space="preserve" font-family="AvenirNext-Regular" font-size="29.8" fill="#FFFFFF" transform="matrix(1.00, 0.00, -0.00, -1.00, 168.3, 181.0)"> </text><text xml:space="preserve" font-family="AvenirNext-Regular" font-size="29.8" fill="#FFFFFF" transform="matrix(1.00, 0.00, -0.00, -1.00, 175.8, 181.0)">s</text><text xml:space="preserve" font-family="AvenirNext-Regular" font-size="29.8" fill="#FFFFFF" transform="matrix(1.00, 0.00, -0.00, -1.00, 189.0, 181.0)">e</text><text xml:space="preserve" font-family="AvenirNext-Regular" font-size="29.8" fill="#FFFFFF" transform="matrix(1.00, 0.00, -0.00, -1.00, 206.0, 181.0)">p</text><text xml:space="preserve" font-family="AvenirNext-Regular" font-size="29.8" fill="#FFFFFF" transform="matrix(1.00, 0.00, -0.00, -1.00, 224.9, 181.0)">a</text><text xml:space="preserve" font-family="AvenirNext-Regular" font-size="29.8" fill="#FFFFFF" transform="matrix(1.00, 0.00, -0.00, -1.00, 240.8, 181.0)">r</text><text xml:space="preserve" font-family="AvenirNext-Regular" font-size="29.8" fill="#FFFFFF" transform="matrix(1.00, 0.00, -0.00, -1.00, 251.2, 181.0)">a</text><text xml:space="preserve" font-family="AvenirNext-Regular" font-size="29.8" fill="#FFFFFF" transform="matrix(1.00, 0.00, -0.00, -1.00, 266.8, 181.0)">t</text><text xml:space="preserve" font-family="AvenirNext-Regular" font-size="29.8" fill="#FFFFFF" transform="matrix(1.00, 0.00, -0.00, -1.00, 276.2, 181.0)">i</text><text xml:space="preserve" font-family="AvenirNext-Regular" font-size="29.8" fill="#FFFFFF" transform="matrix(1.00, 0.00, -0.00, -1.00, 283.6, 181.0)">o</text><text xml:space="preserve" font-family="AvenirNext-Regular" font-size="29.8" fill="#FFFFFF" transform="matrix(1.00, 0.00, -0.00, -1.00, 301.8, 181.0)">n</text><text xml:space="preserve" font-family="AvenirNext-Regular" font-size="29.8" fill="#FFFFFF" transform="matrix(1.00, 0.00, -0.00, -1.00, 319.1, 181.0)"> </text><text xml:space="preserve" font-family="AvenirNext-Regular" font-size="29.8" fill="#FFFFFF" transform="matrix(1.00, 0.00, -0.00, -1.00, 326.5, 181.0)">o</text><text xml:space="preserve" font-family="AvenirNext-Regular" font-size="29.8" fill="#FFFFFF" transform="matrix(1.00, 0.00, -0.00, -1.00, 344.7, 181.0)">f</text><text xml:space="preserve" font-family="AvenirNext-Regular" font-size="29.8" fill="#FFFFFF" transform="matrix(1.00, 0.00, -0.00, -1.00, 354.2, 181.0)"> </text><text xml:space="preserve" font-family="AvenirNext-Regular" font-size="29.8" fill="#FFFFFF" transform="matrix(1.00, 0.00, -0.00, -1.00, 361.7, 181.0)">c</text><text xml:space="preserve" font-family="AvenirNext-Regular" font-size="29.8" fill="#FFFFFF" transform="matrix(1.00, 0.00, -0.00, -1.00, 376.5, 181.0)">o</text><text xml:space="preserve" font-family="AvenirNext-Regular" font-size="29.8" fill="#FFFFFF" transform="matrix(1.00, 0.00, -0.00, -1.00, 394.7, 181.0)">d</text><text xml:space="preserve" font-family="AvenirNext-Regular" font-size="29.8" fill="#FFFFFF" transform="matrix(1.00, 0.00, -0.00, -1.00, 413.7, 181.0)">e</text><text xml:space="preserve" font-family="AvenirNext-Regular" font-size="29.8" fill="#FFFFFF" transform="matrix(1.00, 0.00, -0.00, -1.00, 430.7, 181.0)"> </text><text xml:space="preserve" font-family="AvenirNext-Regular" font-size="29.8" fill="#FFFFFF" transform="matrix(1.00, 0.00, -0.00, -1.00, 438.1, 181.0)">i</text><text xml:space="preserve" font-family="AvenirNext-Regular" font-size="29.8" fill="#FFFFFF" transform="matrix(1.00, 0.00, -0.00, -1.00, 445.6, 181.0)">n</text><text xml:space="preserve" font-family="AvenirNext-Regular" font-size="29.8" fill="#FFFFFF" transform="matrix(1.00, 0.00, -0.00, -1.00, 462.9, 181.0)">t</text><text xml:space="preserve" font-family="AvenirNext-Regular" font-size="29.8" fill="#FFFFFF" transform="matrix(1.00, 0.00, -0.00, -1.00, 472.3, 181.0)">o</text><text xml:space="preserve" font-family="AvenirNext-Regular" font-size="29.8" fill="#FFFFFF" transform="matrix(1.00, 0.00, -0.00, -1.00, 490.5, 181.0)"> </text><text xml:space="preserve" font-family="AvenirNext-Regular" font-size="29.8" fill="#FFFFFF" transform="matrix(1.00, 0.00, -0.00, -1.00, 497.9, 181.0)">m</text><text xml:space="preserve" font-family="AvenirNext-Regular" font-size="29.8" fill="#FFFFFF" transform="matrix(1.00, 0.00, -0.00, -1.00, 524.2, 181.0)">u</text><text xml:space="preserve" font-family="AvenirNext-Regular" font-size="29.8" fill="#FFFFFF" transform="matrix(1.00, 0.00, -0.00, -1.00, 541.5, 181.0)">l</text><text xml:space="preserve" font-family="AvenirNext-Regular" font-size="29.8" fill="#FFFFFF" transform="matrix(1.00, 0.00, -0.00, -1.00, 549.0, 181.0)">t</text><text xml:space="preserve" font-family="AvenirNext-Regular" font-size="29.8" fill="#FFFFFF" transform="matrix(1.00, 0.00, -0.00, -1.00, 558.4, 181.0)">i</text><text xml:space="preserve" font-family="AvenirNext-Regular" font-size="29.8" fill="#FFFFFF" transform="matrix(1.00, 0.00, -0.00, -1.00, 565.9, 181.0)">p</text><text xml:space="preserve" font-family="AvenirNext-Regular" font-size="29.8" fill="#FFFFFF" transform="matrix(1.00, 0.00, -0.00, -1.00, 584.8, 181.0)">l</text><text xml:space="preserve" font-family="AvenirNext-Regular" font-size="29.8" fill="#FFFFFF" transform="matrix(1.00, 0.00, -0.00, -1.00, 592.3, 181.0)">e</text><text xml:space="preserve" font-family="AvenirNext-Regular" font-size="29.8" fill="#FFFFFF" transform="matrix(1.00, 0.00, -0.00, -1.00, 609.3, 181.0)"> </text><text xml:space="preserve" font-family="AvenirNext-Regular" font-size="29.8" fill="#FFFFFF" transform="matrix(1.00, 0.00, -0.00, -1.00, 616.7, 181.0)">ﬁ</text><text xml:space="preserve" font-family="AvenirNext-Regular" font-size="29.8" fill="#FFFFFF" transform="matrix(1.00, 0.00, -0.00, -1.00, 632.9, 181.0)">l</text><text xml:space="preserve" font-family="AvenirNext-Regular" font-size="29.8" fill="#FFFFFF" transform="matrix(1.00, 0.00, -0.00, -1.00, 640.4, 181.0)">e</text><text xml:space="preserve" font-family="AvenirNext-Regular" font-size="29.8" fill="#FFFFFF" transform="matrix(1.00, 0.00, -0.00, -1.00, 657.5, 181.0)">s</text><text xml:space="preserve" font-family="AvenirNext-Regular" font-size="29.8" fill="#FFFFFF" transform="matrix(1.00, 0.00, -0.00, -1.00, 670.7, 181.0)"> </text><text xml:space="preserve" font-family="LucidaGrande" font-size="22.3" fill="#CACACA" transform="matrix(1.00, 0.00, -0.00, -1.00, 37.0, 124.5)">‣</text><text xml:space="preserve" font-family="AvenirNext-Regular" font-size="29.8" fill="#FFFFFF" transform="matrix(1.00, 0.00, -0.00, -1.00, 71.0, 124.0)">M</text><text xml:space="preserve" font-family="AvenirNext-Regular" font-size="29.8" fill="#FFFFFF" transform="matrix(1.00, 0.00, -0.00, -1.00, 97.4, 124.0)">i</text><text xml:space="preserve" font-family="AvenirNext-Regular" font-size="29.8" fill="#FFFFFF" transform="matrix(1.00, 0.00, -0.00, -1.00, 104.8, 124.0)">g</text><text xml:space="preserve" font-family="AvenirNext-Regular" font-size="29.8" fill="#FFFFFF" transform="matrix(1.00, 0.00, -0.00, -1.00, 123.6, 124.0)">h</text><text xml:space="preserve" font-family="AvenirNext-Regular" font-size="29.8" fill="#FFFFFF" transform="matrix(1.00, 0.00, -0.00, -1.00, 141.0, 124.0)">t</text><text xml:space="preserve" font-family="AvenirNext-Regular" font-size="29.8" fill="#FFFFFF" transform="matrix(1.00, 0.00, -0.00, -1.00, 150.4, 124.0)"> </text><text xml:space="preserve" font-family="AvenirNext-Regular" font-size="29.8" fill="#FFFFFF" transform="matrix(1.00, 0.00, -0.00, -1.00, 157.8, 124.0)">b</text><text xml:space="preserve" font-family="AvenirNext-Regular" font-size="29.8" fill="#FFFFFF" transform="matrix(1.00, 0.00, -0.00, -1.00, 176.8, 124.0)">e</text><text xml:space="preserve" font-family="AvenirNext-Regular" font-size="29.8" fill="#FFFFFF" transform="matrix(1.00, 0.00, -0.00, -1.00, 193.8, 124.0)"> </text><text xml:space="preserve" font-family="AvenirNext-Regular" font-size="29.8" fill="#FFFFFF" transform="matrix(1.00, 0.00, -0.00, -1.00, 201.3, 124.0)">i</text><text xml:space="preserve" font-family="AvenirNext-Regular" font-size="29.8" fill="#FFFFFF" transform="matrix(1.00, 0.00, -0.00, -1.00, 208.7, 124.0)">n</text><text xml:space="preserve" font-family="AvenirNext-Regular" font-size="29.8" fill="#FFFFFF" transform="matrix(1.00, 0.00, -0.00, -1.00, 226.0, 124.0)"> </text><text xml:space="preserve" font-family="AvenirNext-Regular" font-size="29.8" fill="#FFFFFF" transform="matrix(1.00, 0.00, -0.00, -1.00, 233.4, 124.0)">a</text><text xml:space="preserve" font-family="AvenirNext-Regular" font-size="29.8" fill="#FFFFFF" transform="matrix(1.00, 0.00, -0.00, -1.00, 249.3, 124.0)"> </text><text xml:space="preserve" font-family="AvenirNext-Regular" font-size="29.8" fill="#FFFFFF" transform="matrix(1.00, 0.00, -0.00, -1.00, 256.8, 124.0)">l</text><text xml:space="preserve" font-family="AvenirNext-Regular" font-size="29.8" fill="#FFFFFF" transform="matrix(1.00, 0.00, -0.00, -1.00, 264.3, 124.0)">a</text><text xml:space="preserve" font-family="AvenirNext-Regular" font-size="29.8" fill="#FFFFFF" transform="matrix(1.00, 0.00, -0.00, -1.00, 280.2, 124.0)">n</text><text xml:space="preserve" font-family="AvenirNext-Regular" font-size="29.8" fill="#FFFFFF" transform="matrix(1.00, 0.00, -0.00, -1.00, 297.4, 124.0)">g</text><text xml:space="preserve" font-family="AvenirNext-Regular" font-size="29.8" fill="#FFFFFF" transform="matrix(1.00, 0.00, -0.00, -1.00, 316.3, 124.0)">u</text><text xml:space="preserve" font-family="AvenirNext-Regular" font-size="29.8" fill="#FFFFFF" transform="matrix(1.00, 0.00, -0.00, -1.00, 333.5, 124.0)">a</text><text xml:space="preserve" font-family="AvenirNext-Regular" font-size="29.8" fill="#FFFFFF" transform="matrix(1.00, 0.00, -0.00, -1.00, 349.4, 124.0)">g</text><text xml:space="preserve" font-family="AvenirNext-Regular" font-size="29.8" fill="#FFFFFF" transform="matrix(1.00, 0.00, -0.00, -1.00, 368.2, 124.0)">e</text><text xml:space="preserve" font-family="AvenirNext-Regular" font-size="29.8" fill="#FFFFFF" transform="matrix(1.00, 0.00, -0.00, -1.00, 385.3, 124.0)"> </text><text xml:space="preserve" font-family="AvenirNext-Regular" font-size="29.8" fill="#FFFFFF" transform="matrix(1.00, 0.00, -0.00, -1.00, 392.7, 124.0)">t</text><text xml:space="preserve" font-family="AvenirNext-Regular" font-size="29.8" fill="#FFFFFF" transform="matrix(1.00, 0.00, -0.00, -1.00, 402.1, 124.0)">h</text><text xml:space="preserve" font-family="AvenirNext-Regular" font-size="29.8" fill="#FFFFFF" transform="matrix(1.00, 0.00, -0.00, -1.00, 419.5, 124.0)">e</text><text xml:space="preserve" font-family="AvenirNext-Regular" font-size="29.8" fill="#FFFFFF" transform="matrix(1.00, 0.00, -0.00, -1.00, 436.5, 124.0)"> </text><text xml:space="preserve" font-family="AvenirNext-Regular" font-size="29.8" fill="#FFFFFF" transform="matrix(1.00, 0.00, -0.00, -1.00, 444.0, 124.0)">b</text><text xml:space="preserve" font-family="AvenirNext-Regular" font-size="29.8" fill="#FFFFFF" transform="matrix(1.00, 0.00, -0.00, -1.00, 462.9, 124.0)">r</text><text xml:space="preserve" font-family="AvenirNext-Regular" font-size="29.8" fill="#FFFFFF" transform="matrix(1.00, 0.00, -0.00, -1.00, 473.1, 124.0)">o</text><text xml:space="preserve" font-family="AvenirNext-Regular" font-size="29.8" fill="#FFFFFF" transform="matrix(1.00, 0.00, -0.00, -1.00, 491.3, 124.0)">w</text><text xml:space="preserve" font-family="AvenirNext-Regular" font-size="29.8" fill="#FFFFFF" transform="matrix(1.00, 0.00, -0.00, -1.00, 513.5, 124.0)">s</text><text xml:space="preserve" font-family="AvenirNext-Regular" font-size="29.8" fill="#FFFFFF" transform="matrix(1.00, 0.00, -0.00, -1.00, 526.7, 124.0)">e</text><text xml:space="preserve" font-family="AvenirNext-Regular" font-size="29.8" fill="#FFFFFF" transform="matrix(1.00, 0.00, -0.00, -1.00, 543.7, 124.0)">r</text><text xml:space="preserve" font-family="AvenirNext-Regular" font-size="29.8" fill="#FFFFFF" transform="matrix(1.00, 0.00, -0.00, -1.00, 554.4, 124.0)">s</text><text xml:space="preserve" font-family="AvenirNext-Regular" font-size="29.8" fill="#FFFFFF" transform="matrix(1.00, 0.00, -0.00, -1.00, 567.6, 124.0)"> </text><text xml:space="preserve" font-family="AvenirNext-Regular" font-size="29.8" fill="#FFFFFF" transform="matrix(1.00, 0.00, -0.00, -1.00, 575.1, 124.0)">c</text><text xml:space="preserve" font-family="AvenirNext-Regular" font-size="29.8" fill="#FFFFFF" transform="matrix(1.00, 0.00, -0.00, -1.00, 590.0, 124.0)">a</text><text xml:space="preserve" font-family="AvenirNext-Regular" font-size="29.8" fill="#FFFFFF" transform="matrix(1.00, 0.00, -0.00, -1.00, 605.8, 124.0)">n</text><text xml:space="preserve" font-family="AvenirNext-Regular" font-size="29.8" fill="#FFFFFF" transform="matrix(1.00, 0.00, -0.00, -1.00, 623.1, 124.0)">’</text><text xml:space="preserve" font-family="AvenirNext-Regular" font-size="29.8" fill="#FFFFFF" transform="matrix(1.00, 0.00, -0.00, -1.00, 629.7, 124.0)">t</text><text xml:space="preserve" font-family="AvenirNext-Regular" font-size="29.8" fill="#FFFFFF" transform="matrix(1.00, 0.00, -0.00, -1.00, 639.2, 124.0)"> </text><text xml:space="preserve" font-family="AvenirNext-Regular" font-size="29.8" fill="#FFFFFF" transform="matrix(1.00, 0.00, -0.00, -1.00, 646.6, 124.0)">u</text><text xml:space="preserve" font-family="AvenirNext-Regular" font-size="29.8" fill="#FFFFFF" transform="matrix(1.00, 0.00, -0.00, -1.00, 663.9, 124.0)">n</text><text xml:space="preserve" font-family="AvenirNext-Regular" font-size="29.8" fill="#FFFFFF" transform="matrix(1.00, 0.00, -0.00, -1.00, 681.2, 124.0)">d</text><text xml:space="preserve" font-family="AvenirNext-Regular" font-size="29.8" fill="#FFFFFF" transform="matrix(1.00, 0.00, -0.00, -1.00, 700.2, 124.0)">e</text><text xml:space="preserve" font-family="AvenirNext-Regular" font-size="29.8" fill="#FFFFFF" transform="matrix(1.00, 0.00, -0.00, -1.00, 717.2, 124.0)">r</text><text xml:space="preserve" font-family="AvenirNext-Regular" font-size="29.8" fill="#FFFFFF" transform="matrix(1.00, 0.00, -0.00, -1.00, 727.9, 124.0)">s</text><text xml:space="preserve" font-family="AvenirNext-Regular" font-size="29.8" fill="#FFFFFF" transform="matrix(1.00, 0.00, -0.00, -1.00, 741.1, 124.0)">t</text><text xml:space="preserve" font-family="AvenirNext-Regular" font-size="29.8" fill="#FFFFFF" transform="matrix(1.00, 0.00, -0.00, -1.00, 750.5, 124.0)">a</text><text xml:space="preserve" font-family="AvenirNext-Regular" font-size="29.8" fill="#FFFFFF" transform="matrix(1.00, 0.00, -0.00, -1.00, 766.4, 124.0)">n</text><text xml:space="preserve" font-family="AvenirNext-Regular" font-size="29.8" fill="#FFFFFF" transform="matrix(1.00, 0.00, -0.00, -1.00, 783.7, 124.0)">d</text><text xml:space="preserve" font-family="AvenirNext-Regular" font-size="29.8" fill="#FFFFFF" transform="matrix(1.00, 0.00, -0.00, -1.00, 802.7, 124.0)">!</text><text xml:space="preserve" font-family="AvenirNext-Regular" font-size="29.8" fill="#FFFFFF" transform="matrix(1.00, 0.00, -0.00, -1.00, 812.4, 124.0)"> </text><text xml:space="preserve" font-family="LucidaGrande" font-size="22.3" fill="#CACACA" transform="matrix(1.00, 0.00, -0.00, -1.00, 74.0, 66.7)">‣</text><text xml:space="preserve" font-family="AvenirNext-Regular" font-size="29.8" fill="#FFFFFF" transform="matrix(1.00, 0.00, -0.00, -1.00, 108.0, 66.0)">E</text><text xml:space="preserve" font-family="AvenirNext-Regular" font-size="29.8" fill="#FFFFFF" transform="matrix(1.00, 0.00, -0.00, -1.00, 125.6, 66.0)">S</text><text xml:space="preserve" font-family="AvenirNext-Regular" font-size="29.8" fill="#FFFFFF" transform="matrix(1.00, 0.00, -0.00, -1.00, 142.4, 66.0)">6</text><text xml:space="preserve" font-family="AvenirNext-Regular" font-size="29.8" fill="#FFFFFF" transform="matrix(1.00, 0.00, -0.00, -1.00, 159.7, 66.0)"> </text><text xml:space="preserve" font-family="LucidaGrande" font-size="22.3" fill="#CACACA" transform="matrix(1.00, 0.00, -0.00, -1.00, 74.0, 9.0)">‣</text><text xml:space="preserve" font-family="AvenirNext-Regular" font-size="29.8" fill="#FFFFFF" transform="matrix(1.00, 0.00, -0.00, -1.00, 108.0, 8.0)">C</text><text xml:space="preserve" font-family="AvenirNext-Regular" font-size="29.8" fill="#FFFFFF" transform="matrix(1.00, 0.00, -0.00, -1.00, 129.1, 8.0)">o</text><text xml:space="preserve" font-family="AvenirNext-Regular" font-size="29.8" fill="#FFFFFF" transform="matrix(1.00, 0.00, -0.00, -1.00, 147.3, 8.0)">f</text><text xml:space="preserve" font-family="AvenirNext-Regular" font-size="29.8" fill="#FFFFFF" transform="matrix(1.00, 0.00, -0.00, -1.00, 155.5, 8.0)">f</text><text xml:space="preserve" font-family="AvenirNext-Regular" font-size="29.8" fill="#FFFFFF" transform="matrix(1.00, 0.00, -0.00, -1.00, 164.3, 8.0)">e</text><text xml:space="preserve" font-family="AvenirNext-Regular" font-size="29.8" fill="#FFFFFF" transform="matrix(1.00, 0.00, -0.00, -1.00, 181.3, 8.0)">e</text><text xml:space="preserve" font-family="AvenirNext-Regular" font-size="29.8" fill="#FFFFFF" transform="matrix(1.00, 0.00, -0.00, -1.00, 198.3, 8.0)">S</text><text xml:space="preserve" font-family="AvenirNext-Regular" font-size="29.8" fill="#FFFFFF" transform="matrix(1.00, 0.00, -0.00, -1.00, 215.1, 8.0)">c</text><text xml:space="preserve" font-family="AvenirNext-Regular" font-size="29.8" fill="#FFFFFF" transform="matrix(1.00, 0.00, -0.00, -1.00, 230.0, 8.0)">r</text><text xml:space="preserve" font-family="AvenirNext-Regular" font-size="29.8" fill="#FFFFFF" transform="matrix(1.00, 0.00, -0.00, -1.00, 240.7, 8.0)">i</text><text xml:space="preserve" font-family="AvenirNext-Regular" font-size="29.8" fill="#FFFFFF" transform="matrix(1.00, 0.00, -0.00, -1.00, 248.1, 8.0)">p</text><text xml:space="preserve" font-family="AvenirNext-Regular" font-size="29.8" fill="#FFFFFF" transform="matrix(1.00, 0.00, -0.00, -1.00, 267.0, 8.0)">t</text><text xml:space="preserve" font-family="AvenirNext-Regular" font-size="29.8" fill="#FFFFFF" transform="matrix(1.00, 0.00, -0.00, -1.00, 276.5, 8.0)">,</text><text xml:space="preserve" font-family="AvenirNext-Regular" font-size="29.8" fill="#FFFFFF" transform="matrix(1.00, 0.00, -0.00, -1.00, 283.3, 8.0)"> </text><text xml:space="preserve" font-family="AvenirNext-Regular" font-size="29.8" fill="#FFFFFF" transform="matrix(1.00, 0.00, -0.00, -1.00, 290.0, 8.0)">T</text><text xml:space="preserve" font-family="AvenirNext-Regular" font-size="29.8" fill="#FFFFFF" transform="matrix(1.00, 0.00, -0.00, -1.00, 304.1, 8.0)">y</text><text xml:space="preserve" font-family="AvenirNext-Regular" font-size="29.8" fill="#FFFFFF" transform="matrix(1.00, 0.00, -0.00, -1.00, 318.7, 8.0)">p</text><text xml:space="preserve" font-family="AvenirNext-Regular" font-size="29.8" fill="#FFFFFF" transform="matrix(1.00, 0.00, -0.00, -1.00, 337.6, 8.0)">e</text><text xml:space="preserve" font-family="AvenirNext-Regular" font-size="29.8" fill="#FFFFFF" transform="matrix(1.00, 0.00, -0.00, -1.00, 354.6, 8.0)">S</text><text xml:space="preserve" font-family="AvenirNext-Regular" font-size="29.8" fill="#FFFFFF" transform="matrix(1.00, 0.00, -0.00, -1.00, 371.4, 8.0)">c</text><text xml:space="preserve" font-family="AvenirNext-Regular" font-size="29.8" fill="#FFFFFF" transform="matrix(1.00, 0.00, -0.00, -1.00, 386.3, 8.0)">r</text><text xml:space="preserve" font-family="AvenirNext-Regular" font-size="29.8" fill="#FFFFFF" transform="matrix(1.00, 0.00, -0.00, -1.00, 397.0, 8.0)">i</text><text xml:space="preserve" font-family="AvenirNext-Regular" font-size="29.8" fill="#FFFFFF" transform="matrix(1.00, 0.00, -0.00, -1.00, 404.4, 8.0)">p</text><text xml:space="preserve" font-family="AvenirNext-Regular" font-size="29.8" fill="#FFFFFF" transform="matrix(1.00, 0.00, -0.00, -1.00, 423.3, 8.0)">t</text><text xml:space="preserve" font-family="AvenirNext-Regular" font-size="29.8" fill="#FFFFFF" transform="matrix(1.00, 0.00, -0.00, -1.00, 432.7, 8.0)">,</text><text xml:space="preserve" font-family="AvenirNext-Regular" font-size="29.8" fill="#FFFFFF" transform="matrix(1.00, 0.00, -0.00, -1.00, 439.6, 8.0)"> </text><text xml:space="preserve" font-family="AvenirNext-Regular" font-size="29.8" fill="#FFFFFF" transform="matrix(1.00, 0.00, -0.00, -1.00, 447.0, 8.0)">C</text><text xml:space="preserve" font-family="AvenirNext-Regular" font-size="29.8" fill="#FFFFFF" transform="matrix(1.00, 0.00, -0.00, -1.00, 468.5, 8.0)">l</text><text xml:space="preserve" font-family="AvenirNext-Regular" font-size="29.8" fill="#FFFFFF" transform="matrix(1.00, 0.00, -0.00, -1.00, 476.0, 8.0)">o</text><text xml:space="preserve" font-family="AvenirNext-Regular" font-size="29.8" fill="#FFFFFF" transform="matrix(1.00, 0.00, -0.00, -1.00, 494.1, 8.0)">j</text><text xml:space="preserve" font-family="AvenirNext-Regular" font-size="29.8" fill="#FFFFFF" transform="matrix(1.00, 0.00, -0.00, -1.00, 501.6, 8.0)">u</text><text xml:space="preserve" font-family="AvenirNext-Regular" font-size="29.8" fill="#FFFFFF" transform="matrix(1.00, 0.00, -0.00, -1.00, 518.9, 8.0)">r</text><text xml:space="preserve" font-family="AvenirNext-Regular" font-size="29.8" fill="#FFFFFF" transform="matrix(1.00, 0.00, -0.00, -1.00, 529.1, 8.0)">e</text><text xml:space="preserve" font-family="AvenirNext-Regular" font-size="29.8" fill="#FFFFFF" transform="matrix(1.00, 0.00, -0.00, -1.00, 546.1, 8.0)">S</text><text xml:space="preserve" font-family="AvenirNext-Regular" font-size="29.8" fill="#FFFFFF" transform="matrix(1.00, 0.00, -0.00, -1.00, 562.9, 8.0)">c</text><text xml:space="preserve" font-family="AvenirNext-Regular" font-size="29.8" fill="#FFFFFF" transform="matrix(1.00, 0.00, -0.00, -1.00, 577.8, 8.0)">r</text><text xml:space="preserve" font-family="AvenirNext-Regular" font-size="29.8" fill="#FFFFFF" transform="matrix(1.00, 0.00, -0.00, -1.00, 588.5, 8.0)">i</text><text xml:space="preserve" font-family="AvenirNext-Regular" font-size="29.8" fill="#FFFFFF" transform="matrix(1.00, 0.00, -0.00, -1.00, 595.9, 8.0)">p</text><text xml:space="preserve" font-family="AvenirNext-Regular" font-size="29.8" fill="#FFFFFF" transform="matrix(1.00, 0.00, -0.00, -1.00, 614.8, 8.0)">t</text><text xml:space="preserve" font-family="AvenirNext-Regular" font-size="29.8" fill="#FFFFFF" transform="matrix(1.00, 0.00, -0.00, -1.00, 624.2, 8.0)">,</text><text xml:space="preserve" font-family="AvenirNext-Regular" font-size="29.8" fill="#FFFFFF" transform="matrix(1.00, 0.00, -0.00, -1.00, 631.1, 8.0)"> </text><text xml:space="preserve" font-family="AvenirNext-Regular" font-size="29.8" fill="#FFFFFF" transform="matrix(1.00, 0.00, -0.00, -1.00, 638.5, 8.0)">e</text><text xml:space="preserve" font-family="AvenirNext-Regular" font-size="29.8" fill="#FFFFFF" transform="matrix(1.00, 0.00, -0.00, -1.00, 655.6, 8.0)">t</text><text xml:space="preserve" font-family="AvenirNext-Regular" font-size="29.8" fill="#FFFFFF" transform="matrix(1.00, 0.00, -0.00, -1.00, 665.0, 8.0)">c</text><text xml:space="preserve" font-family="AvenirNext-Regular" font-size="29.8" fill="#FFFFFF" transform="matrix(1.00, 0.00, -0.00, -1.00, 679.9, 8.0)">.</text></g></svg>