<?xml version="1.0" encoding="UTF-8" standalone="no"?><svg xmlns="http://www.w3.org/2000/svg" xmlns:xlink="http://www.w3.org/1999/xlink" clip-rule="evenodd" stroke-miterlimit="4.00" viewBox="0 0 825 283"><desc>SVG generated by Keynote</desc><defs></defs><g transform="matrix(1.00, 0.00, -0.00, -1.00, 0.0, 283.0)"><text xml:space="preserve" font-family="LucidaGrande" font-size="24.0" fill="#CACACA" transform="matrix(1.00, 0.00, -0.00, -1.00, 0.0, 258.1)">‣</text><text xml:space="preserve" font-family="AvenirNext-Regular" font-size="32.0" fill="#FFFFFF" transform="matrix(1.00, 0.00, -0.00, -1.00, 37.0, 257.0)">N</text><text xml:space="preserve" font-family="AvenirNext-Regular" font-size="32.0" fill="#FFFFFF" transform="matrix(1.00, 0.00, -0.00, -1.00, 61.4, 257.0)">i</text><text xml:space="preserve" font-family="AvenirNext-Regular" font-size="32.0" fill="#FFFFFF" transform="matrix(1.00, 0.00, -0.00, -1.00, 69.4, 257.0)">c</text><text xml:space="preserve" font-family="AvenirNext-Regular" font-size="32.0" fill="#FFFFFF" transform="matrix(1.00, 0.00, -0.00, -1.00, 85.4, 257.0)">e</text><text xml:space="preserve" font-family="AvenirNext-Regular" font-size="32.0" fill="#FFFFFF" transform="matrix(1.00, 0.00, -0.00, -1.00, 103.8, 257.0)"> </text><text xml:space="preserve" font-family="AvenirNext-Regular" font-size="32.0" fill="#FFFFFF" transform="matrix(1.00, 0.00, -0.00, -1.00, 111.8, 257.0)">f</text><text xml:space="preserve" font-family="AvenirNext-Regular" font-size="32.0" fill="#FFFFFF" transform="matrix(1.00, 0.00, -0.00, -1.00, 121.2, 257.0)">o</text><text xml:space="preserve" font-family="AvenirNext-Regular" font-size="32.0" fill="#FFFFFF" transform="matrix(1.00, 0.00, -0.00, -1.00, 140.7, 257.0)">r</text><text xml:space="preserve" font-family="AvenirNext-Regular" font-size="32.0" fill="#FFFFFF" transform="matrix(1.00, 0.00, -0.00, -1.00, 152.3, 257.0)"> </text><text xml:space="preserve" font-family="AvenirNext-Regular" font-size="32.0" fill="#FFFFFF" transform="matrix(1.00, 0.00, -0.00, -1.00, 160.3, 257.0)">y</text><text xml:space="preserve" font-family="AvenirNext-Regular" font-size="32.0" fill="#FFFFFF" transform="matrix(1.00, 0.00, -0.00, -1.00, 175.9, 257.0)">o</text><text xml:space="preserve" font-family="AvenirNext-Regular" font-size="32.0" fill="#FFFFFF" transform="matrix(1.00, 0.00, -0.00, -1.00, 195.4, 257.0)">u</text><text xml:space="preserve" font-family="AvenirNext-Regular" font-size="32.0" fill="#FFFFFF" transform="matrix(1.00, 0.00, -0.00, -1.00, 214.0, 257.0)">r</text><text xml:space="preserve" font-family="AvenirNext-Regular" font-size="32.0" fill="#FFFFFF" transform="matrix(1.00, 0.00, -0.00, -1.00, 225.5, 257.0)"> </text><text xml:space="preserve" font-family="AvenirNext-Regular" font-size="32.0" fill="#FFFFFF" transform="matrix(1.00, 0.00, -0.00, -1.00, 233.5, 257.0)">b</text><text xml:space="preserve" font-family="AvenirNext-Regular" font-size="32.0" fill="#FFFFFF" transform="matrix(1.00, 0.00, -0.00, -1.00, 253.9, 257.0)">r</text><text xml:space="preserve" font-family="AvenirNext-Regular" font-size="32.0" fill="#FFFFFF" transform="matrix(1.00, 0.00, -0.00, -1.00, 264.9, 257.0)">o</text><text xml:space="preserve" font-family="AvenirNext-Regular" font-size="32.0" fill="#FFFFFF" transform="matrix(1.00, 0.00, -0.00, -1.00, 284.4, 257.0)">w</text><text xml:space="preserve" font-family="AvenirNext-Regular" font-size="32.0" fill="#FFFFFF" transform="matrix(1.00, 0.00, -0.00, -1.00, 308.3, 257.0)">s</text><text xml:space="preserve" font-family="AvenirNext-Regular" font-size="32.0" fill="#FFFFFF" transform="matrix(1.00, 0.00, -0.00, -1.00, 322.5, 257.0)">e</text><text xml:space="preserve" font-family="AvenirNext-Regular" font-size="32.0" fill="#FFFFFF" transform="matrix(1.00, 0.00, -0.00, -1.00, 340.8, 257.0)">r</text><text xml:space="preserve" font-family="AvenirNext-Regular" font-size="32.0" fill="#FFFFFF" transform="matrix(1.00, 0.00, -0.00, -1.00, 352.3, 257.0)"> </text><text xml:space="preserve" font-family="AvenirNext-Regular" font-size="32.0" fill="#FFFFFF" transform="matrix(1.00, 0.00, -0.00, -1.00, 360.3, 257.0)">t</text><text xml:space="preserve" font-family="AvenirNext-Regular" font-size="32.0" fill="#FFFFFF" transform="matrix(1.00, 0.00, -0.00, -1.00, 370.5, 257.0)">o</text><text xml:space="preserve" font-family="AvenirNext-Regular" font-size="32.0" fill="#FFFFFF" transform="matrix(1.00, 0.00, -0.00, -1.00, 390.0, 257.0)"> </text><text xml:space="preserve" font-family="AvenirNext-Regular" font-size="32.0" fill="#FFFFFF" transform="matrix(1.00, 0.00, -0.00, -1.00, 398.0, 257.0)">r</text><text xml:space="preserve" font-family="AvenirNext-Regular" font-size="32.0" fill="#FFFFFF" transform="matrix(1.00, 0.00, -0.00, -1.00, 409.0, 257.0)">e</text><text xml:space="preserve" font-family="AvenirNext-Regular" font-size="32.0" fill="#FFFFFF" transform="matrix(1.00, 0.00, -0.00, -1.00, 427.1, 257.0)">a</text><text xml:space="preserve" font-family="AvenirNext-Regular" font-size="32.0" fill="#FFFFFF" transform="matrix(1.00, 0.00, -0.00, -1.00, 444.2, 257.0)">d</text><text xml:space="preserve" font-family="AvenirNext-Regular" font-size="32.0" fill="#FFFFFF" transform="matrix(1.00, 0.00, -0.00, -1.00, 464.6, 257.0)"> </text><text xml:space="preserve" font-family="LucidaGrande" font-size="24.0" fill="#CACACA" transform="matrix(1.00, 0.00, -0.00, -1.00, 37.0, 196.1)">‣</text><text xml:space="preserve" font-family="AvenirNext-Regular" font-size="32.0" fill="#FFFFFF" transform="matrix(1.00, 0.00, -0.00, -1.00, 74.0, 195.0)">F</text><text xml:space="preserve" font-family="AvenirNext-Regular" font-size="32.0" fill="#FFFFFF" transform="matrix(1.00, 0.00, -0.00, -1.00, 90.4, 195.0)">e</text><text xml:space="preserve" font-family="AvenirNext-Regular" font-size="32.0" fill="#FFFFFF" transform="matrix(1.00, 0.00, -0.00, -1.00, 108.8, 195.0)">w</text><text xml:space="preserve" font-family="AvenirNext-Regular" font-size="32.0" fill="#FFFFFF" transform="matrix(1.00, 0.00, -0.00, -1.00, 132.6, 195.0)">e</text><text xml:space="preserve" font-family="AvenirNext-Regular" font-size="32.0" fill="#FFFFFF" transform="matrix(1.00, 0.00, -0.00, -1.00, 150.9, 195.0)">r</text><text xml:space="preserve" font-family="AvenirNext-Regular" font-size="32.0" fill="#FFFFFF" transform="matrix(1.00, 0.00, -0.00, -1.00, 162.4, 195.0)"> </text><text xml:space="preserve" font-family="AvenirNext-Regular" font-size="32.0" fill="#FFFFFF" transform="matrix(1.00, 0.00, -0.00, -1.00, 170.4, 195.0)">r</text><text xml:space="preserve" font-family="AvenirNext-Regular" font-size="32.0" fill="#FFFFFF" transform="matrix(1.00, 0.00, -0.00, -1.00, 181.4, 195.0)">e</text><text xml:space="preserve" font-family="AvenirNext-Regular" font-size="32.0" fill="#FFFFFF" transform="matrix(1.00, 0.00, -0.00, -1.00, 199.7, 195.0)">q</text><text xml:space="preserve" font-family="AvenirNext-Regular" font-size="32.0" fill="#FFFFFF" transform="matrix(1.00, 0.00, -0.00, -1.00, 220.0, 195.0)">u</text><text xml:space="preserve" font-family="AvenirNext-Regular" font-size="32.0" fill="#FFFFFF" transform="matrix(1.00, 0.00, -0.00, -1.00, 238.6, 195.0)">e</text><text xml:space="preserve" font-family="AvenirNext-Regular" font-size="32.0" fill="#FFFFFF" transform="matrix(1.00, 0.00, -0.00, -1.00, 256.9, 195.0)">s</text><text xml:space="preserve" font-family="AvenirNext-Regular" font-size="32.0" fill="#FFFFFF" transform="matrix(1.00, 0.00, -0.00, -1.00, 271.1, 195.0)">t</text><text xml:space="preserve" font-family="AvenirNext-Regular" font-size="32.0" fill="#FFFFFF" transform="matrix(1.00, 0.00, -0.00, -1.00, 281.3, 195.0)">s</text><text xml:space="preserve" font-family="AvenirNext-Regular" font-size="32.0" fill="#FFFFFF" transform="matrix(1.00, 0.00, -0.00, -1.00, 295.5, 195.0)"> </text><text xml:space="preserve" font-family="AvenirNext-Regular" font-size="32.0" fill="#FFFFFF" transform="matrix(1.00, 0.00, -0.00, -1.00, 303.5, 195.0)">(</text><text xml:space="preserve" font-family="AvenirNext-Regular" font-size="32.0" fill="#FFFFFF" transform="matrix(1.00, 0.00, -0.00, -1.00, 313.1, 195.0)">g</text><text xml:space="preserve" font-family="AvenirNext-Regular" font-size="32.0" fill="#FFFFFF" transform="matrix(1.00, 0.00, -0.00, -1.00, 333.3, 195.0)">o</text><text xml:space="preserve" font-family="AvenirNext-Regular" font-size="32.0" fill="#FFFFFF" transform="matrix(1.00, 0.00, -0.00, -1.00, 352.8, 195.0)">o</text><text xml:space="preserve" font-family="AvenirNext-Regular" font-size="32.0" fill="#FFFFFF" transform="matrix(1.00, 0.00, -0.00, -1.00, 372.4, 195.0)">d</text><text xml:space="preserve" font-family="AvenirNext-Regular" font-size="32.0" fill="#FFFFFF" transform="matrix(1.00, 0.00, -0.00, -1.00, 392.8, 195.0)"> </text><text xml:space="preserve" font-family="AvenirNext-Regular" font-size="32.0" fill="#FFFFFF" transform="matrix(1.00, 0.00, -0.00, -1.00, 400.8, 195.0)">f</text><text xml:space="preserve" font-family="AvenirNext-Regular" font-size="32.0" fill="#FFFFFF" transform="matrix(1.00, 0.00, -0.00, -1.00, 410.2, 195.0)">o</text><text xml:space="preserve" font-family="AvenirNext-Regular" font-size="32.0" fill="#FFFFFF" transform="matrix(1.00, 0.00, -0.00, -1.00, 429.8, 195.0)">r</text><text xml:space="preserve" font-family="AvenirNext-Regular" font-size="32.0" fill="#FFFFFF" transform="matrix(1.00, 0.00, -0.00, -1.00, 441.3, 195.0)"> </text><text xml:space="preserve" font-family="AvenirNext-Regular" font-size="32.0" fill="#FFFFFF" transform="matrix(1.00, 0.00, -0.00, -1.00, 449.3, 195.0)">b</text><text xml:space="preserve" font-family="AvenirNext-Regular" font-size="32.0" fill="#FFFFFF" transform="matrix(1.00, 0.00, -0.00, -1.00, 469.7, 195.0)">a</text><text xml:space="preserve" font-family="AvenirNext-Regular" font-size="32.0" fill="#FFFFFF" transform="matrix(1.00, 0.00, -0.00, -1.00, 486.8, 195.0)">d</text><text xml:space="preserve" font-family="AvenirNext-Regular" font-size="32.0" fill="#FFFFFF" transform="matrix(1.00, 0.00, -0.00, -1.00, 507.2, 195.0)"> </text><text xml:space="preserve" font-family="AvenirNext-Regular" font-size="32.0" fill="#FFFFFF" transform="matrix(1.00, 0.00, -0.00, -1.00, 515.2, 195.0)">i</text><text xml:space="preserve" font-family="AvenirNext-Regular" font-size="32.0" fill="#FFFFFF" transform="matrix(1.00, 0.00, -0.00, -1.00, 523.2, 195.0)">n</text><text xml:space="preserve" font-family="AvenirNext-Regular" font-size="32.0" fill="#FFFFFF" transform="matrix(1.00, 0.00, -0.00, -1.00, 541.7, 195.0)">t</text><text xml:space="preserve" font-family="AvenirNext-Regular" font-size="32.0" fill="#FFFFFF" transform="matrix(1.00, 0.00, -0.00, -1.00, 551.9, 195.0)">e</text><text xml:space="preserve" font-family="AvenirNext-Regular" font-size="32.0" fill="#FFFFFF" transform="matrix(1.00, 0.00, -0.00, -1.00, 570.2, 195.0)">r</text><text xml:space="preserve" font-family="AvenirNext-Regular" font-size="32.0" fill="#FFFFFF" transform="matrix(1.00, 0.00, -0.00, -1.00, 581.7, 195.0)">n</text><text xml:space="preserve" font-family="AvenirNext-Regular" font-size="32.0" fill="#FFFFFF" transform="matrix(1.00, 0.00, -0.00, -1.00, 600.3, 195.0)">e</text><text xml:space="preserve" font-family="AvenirNext-Regular" font-size="32.0" fill="#FFFFFF" transform="matrix(1.00, 0.00, -0.00, -1.00, 618.6, 195.0)">t</text><text xml:space="preserve" font-family="AvenirNext-Regular" font-size="32.0" fill="#FFFFFF" transform="matrix(1.00, 0.00, -0.00, -1.00, 628.8, 195.0)"> </text><text xml:space="preserve" font-family="AvenirNext-Regular" font-size="32.0" fill="#FFFFFF" transform="matrix(1.00, 0.00, -0.00, -1.00, 636.8, 195.0)">c</text><text xml:space="preserve" font-family="AvenirNext-Regular" font-size="32.0" fill="#FFFFFF" transform="matrix(1.00, 0.00, -0.00, -1.00, 652.8, 195.0)">o</text><text xml:space="preserve" font-family="AvenirNext-Regular" font-size="32.0" fill="#FFFFFF" transform="matrix(1.00, 0.00, -0.00, -1.00, 672.3, 195.0)">n</text><text xml:space="preserve" font-family="AvenirNext-Regular" font-size="32.0" fill="#FFFFFF" transform="matrix(1.00, 0.00, -0.00, -1.00, 690.9, 195.0)">n</text><text xml:space="preserve" font-family="AvenirNext-Regular" font-size="32.0" fill="#FFFFFF" transform="matrix(1.00, 0.00, -0.00, -1.00, 709.5, 195.0)">e</text><text xml:space="preserve" font-family="AvenirNext-Regular" font-size="32.0" fill="#FFFFFF" transform="matrix(1.00, 0.00, -0.00, -1.00, 727.8, 195.0)">c</text><text xml:space="preserve" font-family="AvenirNext-Regular" font-size="32.0" fill="#FFFFFF" transform="matrix(1.00, 0.00, -0.00, -1.00, 743.8, 195.0)">t</text><text xml:space="preserve" font-family="AvenirNext-Regular" font-size="32.0" fill="#FFFFFF" transform="matrix(1.00, 0.00, -0.00, -1.00, 753.9, 195.0)">i</text><text xml:space="preserve" font-family="AvenirNext-Regular" font-size="32.0" fill="#FFFFFF" transform="matrix(1.00, 0.00, -0.00, -1.00, 761.9, 195.0)">o</text><text xml:space="preserve" font-family="AvenirNext-Regular" font-size="32.0" fill="#FFFFFF" transform="matrix(1.00, 0.00, -0.00, -1.00, 781.5, 195.0)">n</text><text xml:space="preserve" font-family="AvenirNext-Regular" font-size="32.0" fill="#FFFFFF" transform="matrix(1.00, 0.00, -0.00, -1.00, 800.1, 195.0)">s</text><text xml:space="preserve" font-family="AvenirNext-Regular" font-size="32.0" fill="#FFFFFF" transform="matrix(1.00, 0.00, -0.00, -1.00, 814.3, 195.0)">)</text><text xml:space="preserve" font-family="AvenirNext-Regular" font-size="32.0" fill="#FFFFFF" transform="matrix(1.00, 0.00, -0.00, -1.00, 823.9, 195.0)"> </text><text xml:space="preserve" font-family="LucidaGrande" font-size="24.0" fill="#CACACA" transform="matrix(1.00, 0.00, -0.00, -1.00, 37.0, 134.1)">‣</text><text xml:space="preserve" font-family="AvenirNext-Regular" font-size="32.0" fill="#FFFFFF" transform="matrix(1.00, 0.00, -0.00, -1.00, 74.0, 133.0)">S</text><text xml:space="preserve" font-family="AvenirNext-Regular" font-size="32.0" fill="#FFFFFF" transform="matrix(1.00, 0.00, -0.00, -1.00, 92.0, 133.0)">m</text><text xml:space="preserve" font-family="AvenirNext-Regular" font-size="32.0" fill="#FFFFFF" transform="matrix(1.00, 0.00, -0.00, -1.00, 120.3, 133.0)">a</text><text xml:space="preserve" font-family="AvenirNext-Regular" font-size="32.0" fill="#FFFFFF" transform="matrix(1.00, 0.00, -0.00, -1.00, 137.4, 133.0)">l</text><text xml:space="preserve" font-family="AvenirNext-Regular" font-size="32.0" fill="#FFFFFF" transform="matrix(1.00, 0.00, -0.00, -1.00, 145.5, 133.0)">l</text><text xml:space="preserve" font-family="AvenirNext-Regular" font-size="32.0" fill="#FFFFFF" transform="matrix(1.00, 0.00, -0.00, -1.00, 153.5, 133.0)">e</text><text xml:space="preserve" font-family="AvenirNext-Regular" font-size="32.0" fill="#FFFFFF" transform="matrix(1.00, 0.00, -0.00, -1.00, 171.8, 133.0)">r</text><text xml:space="preserve" font-family="AvenirNext-Regular" font-size="32.0" fill="#FFFFFF" transform="matrix(1.00, 0.00, -0.00, -1.00, 183.3, 133.0)"> </text><text xml:space="preserve" font-family="AvenirNext-Regular" font-size="32.0" fill="#FFFFFF" transform="matrix(1.00, 0.00, -0.00, -1.00, 191.3, 133.0)">r</text><text xml:space="preserve" font-family="AvenirNext-Regular" font-size="32.0" fill="#FFFFFF" transform="matrix(1.00, 0.00, -0.00, -1.00, 202.3, 133.0)">e</text><text xml:space="preserve" font-family="AvenirNext-Regular" font-size="32.0" fill="#FFFFFF" transform="matrix(1.00, 0.00, -0.00, -1.00, 220.6, 133.0)">s</text><text xml:space="preserve" font-family="AvenirNext-Regular" font-size="32.0" fill="#FFFFFF" transform="matrix(1.00, 0.00, -0.00, -1.00, 234.8, 133.0)">p</text><text xml:space="preserve" font-family="AvenirNext-Regular" font-size="32.0" fill="#FFFFFF" transform="matrix(1.00, 0.00, -0.00, -1.00, 255.1, 133.0)">o</text><text xml:space="preserve" font-family="AvenirNext-Regular" font-size="32.0" fill="#FFFFFF" transform="matrix(1.00, 0.00, -0.00, -1.00, 274.7, 133.0)">n</text><text xml:space="preserve" font-family="AvenirNext-Regular" font-size="32.0" fill="#FFFFFF" transform="matrix(1.00, 0.00, -0.00, -1.00, 293.3, 133.0)">s</text><text xml:space="preserve" font-family="AvenirNext-Regular" font-size="32.0" fill="#FFFFFF" transform="matrix(1.00, 0.00, -0.00, -1.00, 307.5, 133.0)">e</text><text xml:space="preserve" font-family="AvenirNext-Regular" font-size="32.0" fill="#FFFFFF" transform="matrix(1.00, 0.00, -0.00, -1.00, 325.8, 133.0)">s</text><text xml:space="preserve" font-family="AvenirNext-Regular" font-size="32.0" fill="#FFFFFF" transform="matrix(1.00, 0.00, -0.00, -1.00, 340.0, 133.0)"> </text><text xml:space="preserve" font-family="LucidaGrande" font-size="24.0" fill="#CACACA" transform="matrix(1.00, 0.00, -0.00, -1.00, 74.0, 72.1)">‣</text><text xml:space="preserve" font-family="AvenirNext-Regular" font-size="32.0" fill="#FFFFFF" transform="matrix(1.00, 0.00, -0.00, -1.00, 111.0, 71.0)">N</text><text xml:space="preserve" font-family="AvenirNext-Regular" font-size="32.0" fill="#FFFFFF" transform="matrix(1.00, 0.00, -0.00, -1.00, 135.4, 71.0)">o</text><text xml:space="preserve" font-family="AvenirNext-Regular" font-size="32.0" fill="#FFFFFF" transform="matrix(1.00, 0.00, -0.00, -1.00, 155.0, 71.0)"> </text><text xml:space="preserve" font-family="AvenirNext-Regular" font-size="32.0" fill="#FFFFFF" transform="matrix(1.00, 0.00, -0.00, -1.00, 163.0, 71.0)">w</text><text xml:space="preserve" font-family="AvenirNext-Regular" font-size="32.0" fill="#FFFFFF" transform="matrix(1.00, 0.00, -0.00, -1.00, 186.9, 71.0)">h</text><text xml:space="preserve" font-family="AvenirNext-Regular" font-size="32.0" fill="#FFFFFF" transform="matrix(1.00, 0.00, -0.00, -1.00, 205.5, 71.0)">i</text><text xml:space="preserve" font-family="AvenirNext-Regular" font-size="32.0" fill="#FFFFFF" transform="matrix(1.00, 0.00, -0.00, -1.00, 213.5, 71.0)">t</text><text xml:space="preserve" font-family="AvenirNext-Regular" font-size="32.0" fill="#FFFFFF" transform="matrix(1.00, 0.00, -0.00, -1.00, 223.7, 71.0)">e</text><text xml:space="preserve" font-family="AvenirNext-Regular" font-size="32.0" fill="#FFFFFF" transform="matrix(1.00, 0.00, -0.00, -1.00, 242.0, 71.0)">s</text><text xml:space="preserve" font-family="AvenirNext-Regular" font-size="32.0" fill="#FFFFFF" transform="matrix(1.00, 0.00, -0.00, -1.00, 256.2, 71.0)">p</text><text xml:space="preserve" font-family="AvenirNext-Regular" font-size="32.0" fill="#FFFFFF" transform="matrix(1.00, 0.00, -0.00, -1.00, 276.5, 71.0)">a</text><text xml:space="preserve" font-family="AvenirNext-Regular" font-size="32.0" fill="#FFFFFF" transform="matrix(1.00, 0.00, -0.00, -1.00, 293.6, 71.0)">c</text><text xml:space="preserve" font-family="AvenirNext-Regular" font-size="32.0" fill="#FFFFFF" transform="matrix(1.00, 0.00, -0.00, -1.00, 309.6, 71.0)">e</text><text xml:space="preserve" font-family="AvenirNext-Regular" font-size="32.0" fill="#FFFFFF" transform="matrix(1.00, 0.00, -0.00, -1.00, 327.9, 71.0)"> </text><text xml:space="preserve" font-family="LucidaGrande" font-size="24.0" fill="#CACACA" transform="matrix(1.00, 0.00, -0.00, -1.00, 74.0, 10.1)">‣</text><text xml:space="preserve" font-family="AvenirNext-Regular" font-size="32.0" fill="#FFFFFF" transform="matrix(1.00, 0.00, -0.00, -1.00, 111.0, 9.0)">M</text><text xml:space="preserve" font-family="AvenirNext-Regular" font-size="32.0" fill="#FFFFFF" transform="matrix(1.00, 0.00, -0.00, -1.00, 139.4, 9.0)">a</text><text xml:space="preserve" font-family="AvenirNext-Regular" font-size="32.0" fill="#FFFFFF" transform="matrix(1.00, 0.00, -0.00, -1.00, 156.4, 9.0)">n</text><text xml:space="preserve" font-family="AvenirNext-Regular" font-size="32.0" fill="#FFFFFF" transform="matrix(1.00, 0.00, -0.00, -1.00, 175.0, 9.0)">g</text><text xml:space="preserve" font-family="AvenirNext-Regular" font-size="32.0" fill="#FFFFFF" transform="matrix(1.00, 0.00, -0.00, -1.00, 195.3, 9.0)">l</text><text xml:space="preserve" font-family="AvenirNext-Regular" font-size="32.0" fill="#FFFFFF" transform="matrix(1.00, 0.00, -0.00, -1.00, 203.3, 9.0)">e</text><text xml:space="preserve" font-family="AvenirNext-Regular" font-size="32.0" fill="#FFFFFF" transform="matrix(1.00, 0.00, -0.00, -1.00, 221.6, 9.0)">d</text><text xml:space="preserve" font-family="AvenirNext-Regular" font-size="32.0" fill="#FFFFFF" transform="matrix(1.00, 0.00, -0.00, -1.00, 242.0, 9.0)"> </text><text xml:space="preserve" font-family="AvenirNext-Regular" font-size="32.0" fill="#FFFFFF" transform="matrix(1.00, 0.00, -0.00, -1.00, 250.0, 9.0)">v</text><text xml:space="preserve" font-family="AvenirNext-Regular" font-size="32.0" fill="#FFFFFF" transform="matrix(1.00, 0.00, -0.00, -1.00, 265.6, 9.0)">a</text><text xml:space="preserve" font-family="AvenirNext-Regular" font-size="32.0" fill="#FFFFFF" transform="matrix(1.00, 0.00, -0.00, -1.00, 282.7, 9.0)">r</text><text xml:space="preserve" font-family="AvenirNext-Regular" font-size="32.0" fill="#FFFFFF" transform="matrix(1.00, 0.00, -0.00, -1.00, 294.2, 9.0)">i</text><text xml:space="preserve" font-family="AvenirNext-Regular" font-size="32.0" fill="#FFFFFF" transform="matrix(1.00, 0.00, -0.00, -1.00, 302.2, 9.0)">a</text><text xml:space="preserve" font-family="AvenirNext-Regular" font-size="32.0" fill="#FFFFFF" transform="matrix(1.00, 0.00, -0.00, -1.00, 319.3, 9.0)">b</text><text xml:space="preserve" font-family="AvenirNext-Regular" font-size="32.0" fill="#FFFFFF" transform="matrix(1.00, 0.00, -0.00, -1.00, 339.7, 9.0)">l</text><text xml:space="preserve" font-family="AvenirNext-Regular" font-size="32.0" fill="#FFFFFF" transform="matrix(1.00, 0.00, -0.00, -1.00, 347.8, 9.0)">e</text><text xml:space="preserve" font-family="AvenirNext-Regular" font-size="32.0" fill="#FFFFFF" transform="matrix(1.00, 0.00, -0.00, -1.00, 366.1, 9.0)"> </text><text xml:space="preserve" font-family="AvenirNext-Regular" font-size="32.0" fill="#FFFFFF" transform="matrix(1.00, 0.00, -0.00, -1.00, 374.1, 9.0)">n</text><text xml:space="preserve" font-family="AvenirNext-Regular" font-size="32.0" fill="#FFFFFF" transform="matrix(1.00, 0.00, -0.00, -1.00, 392.7, 9.0)">a</text><text xml:space="preserve" font-family="AvenirNext-Regular" font-size="32.0" fill="#FFFFFF" transform="matrix(1.00, 0.00, -0.00, -1.00, 409.8, 9.0)">m</text><text xml:space="preserve" font-family="AvenirNext-Regular" font-size="32.0" fill="#FFFFFF" transform="matrix(1.00, 0.00, -0.00, -1.00, 438.0, 9.0)">e</text><text xml:space="preserve" font-family="AvenirNext-Regular" font-size="32.0" fill="#FFFFFF" transform="matrix(1.00, 0.00, -0.00, -1.00, 456.3, 9.0)">s</text></g></svg>