<?xml version="1.0" encoding="UTF-8" standalone="no"?><svg xmlns="http://www.w3.org/2000/svg" xmlns:xlink="http://www.w3.org/1999/xlink" clip-rule="evenodd" stroke-miterlimit="4.00" viewBox="0 0 899 159"><desc>SVG generated by Keynote</desc><defs></defs><g transform="matrix(1.00, 0.00, -0.00, -1.00, 0.0, 159.0)"><text xml:space="preserve" font-family="LucidaGrande" font-size="24.0" fill="#CACACA" transform="matrix(1.00, 0.00, -0.00, -1.00, 0.0, 134.1)">‣</text><text xml:space="preserve" font-family="AvenirNext-Regular" font-size="32.0" fill="#FFFFFF" transform="matrix(1.00, 0.00, -0.00, -1.00, 37.0, 133.0)">N</text><text xml:space="preserve" font-family="AvenirNext-Regular" font-size="32.0" fill="#FFFFFF" transform="matrix(1.00, 0.00, -0.00, -1.00, 61.4, 133.0)">i</text><text xml:space="preserve" font-family="AvenirNext-Regular" font-size="32.0" fill="#FFFFFF" transform="matrix(1.00, 0.00, -0.00, -1.00, 69.4, 133.0)">c</text><text xml:space="preserve" font-family="AvenirNext-Regular" font-size="32.0" fill="#FFFFFF" transform="matrix(1.00, 0.00, -0.00, -1.00, 85.4, 133.0)">e</text><text xml:space="preserve" font-family="AvenirNext-Regular" font-size="32.0" fill="#FFFFFF" transform="matrix(1.00, 0.00, -0.00, -1.00, 103.8, 133.0)"> </text><text xml:space="preserve" font-family="AvenirNext-Regular" font-size="32.0" fill="#FFFFFF" transform="matrix(1.00, 0.00, -0.00, -1.00, 111.8, 133.0)">f</text><text xml:space="preserve" font-family="AvenirNext-Regular" font-size="32.0" fill="#FFFFFF" transform="matrix(1.00, 0.00, -0.00, -1.00, 121.2, 133.0)">o</text><text xml:space="preserve" font-family="AvenirNext-Regular" font-size="32.0" fill="#FFFFFF" transform="matrix(1.00, 0.00, -0.00, -1.00, 140.7, 133.0)">r</text><text xml:space="preserve" font-family="AvenirNext-Regular" font-size="32.0" fill="#FFFFFF" transform="matrix(1.00, 0.00, -0.00, -1.00, 152.3, 133.0)"> </text><text xml:space="preserve" font-family="AvenirNext-Regular" font-size="32.0" fill="#FFFFFF" transform="matrix(1.00, 0.00, -0.00, -1.00, 160.3, 133.0)">y</text><text xml:space="preserve" font-family="AvenirNext-Regular" font-size="32.0" fill="#FFFFFF" transform="matrix(1.00, 0.00, -0.00, -1.00, 175.9, 133.0)">o</text><text xml:space="preserve" font-family="AvenirNext-Regular" font-size="32.0" fill="#FFFFFF" transform="matrix(1.00, 0.00, -0.00, -1.00, 195.4, 133.0)">u</text><text xml:space="preserve" font-family="AvenirNext-Regular" font-size="32.0" fill="#FFFFFF" transform="matrix(1.00, 0.00, -0.00, -1.00, 214.0, 133.0)"> </text><text xml:space="preserve" font-family="AvenirNext-Regular" font-size="32.0" fill="#FFFFFF" transform="matrix(1.00, 0.00, -0.00, -1.00, 222.0, 133.0)">t</text><text xml:space="preserve" font-family="AvenirNext-Regular" font-size="32.0" fill="#FFFFFF" transform="matrix(1.00, 0.00, -0.00, -1.00, 232.2, 133.0)">o</text><text xml:space="preserve" font-family="AvenirNext-Regular" font-size="32.0" fill="#FFFFFF" transform="matrix(1.00, 0.00, -0.00, -1.00, 251.7, 133.0)"> </text><text xml:space="preserve" font-family="AvenirNext-Regular" font-size="32.0" fill="#FFFFFF" transform="matrix(1.00, 0.00, -0.00, -1.00, 259.7, 133.0)">w</text><text xml:space="preserve" font-family="AvenirNext-Regular" font-size="32.0" fill="#FFFFFF" transform="matrix(1.00, 0.00, -0.00, -1.00, 283.6, 133.0)">r</text><text xml:space="preserve" font-family="AvenirNext-Regular" font-size="32.0" fill="#FFFFFF" transform="matrix(1.00, 0.00, -0.00, -1.00, 295.1, 133.0)">i</text><text xml:space="preserve" font-family="AvenirNext-Regular" font-size="32.0" fill="#FFFFFF" transform="matrix(1.00, 0.00, -0.00, -1.00, 303.1, 133.0)">t</text><text xml:space="preserve" font-family="AvenirNext-Regular" font-size="32.0" fill="#FFFFFF" transform="matrix(1.00, 0.00, -0.00, -1.00, 313.3, 133.0)">e</text><text xml:space="preserve" font-family="AvenirNext-Regular" font-size="32.0" fill="#FFFFFF" transform="matrix(1.00, 0.00, -0.00, -1.00, 331.6, 133.0)"> </text><text xml:space="preserve" font-family="LucidaGrande" font-size="24.0" fill="#CACACA" transform="matrix(1.00, 0.00, -0.00, -1.00, 37.0, 72.1)">‣</text><text xml:space="preserve" font-family="AvenirNext-Regular" font-size="32.0" fill="#FFFFFF" transform="matrix(1.00, 0.00, -0.00, -1.00, 74.0, 71.0)">E</text><text xml:space="preserve" font-family="AvenirNext-Regular" font-size="32.0" fill="#FFFFFF" transform="matrix(1.00, 0.00, -0.00, -1.00, 92.9, 71.0)">a</text><text xml:space="preserve" font-family="AvenirNext-Regular" font-size="32.0" fill="#FFFFFF" transform="matrix(1.00, 0.00, -0.00, -1.00, 110.0, 71.0)">s</text><text xml:space="preserve" font-family="AvenirNext-Regular" font-size="32.0" fill="#FFFFFF" transform="matrix(1.00, 0.00, -0.00, -1.00, 124.2, 71.0)">y</text><text xml:space="preserve" font-family="AvenirNext-Regular" font-size="32.0" fill="#FFFFFF" transform="matrix(1.00, 0.00, -0.00, -1.00, 139.9, 71.0)"> </text><text xml:space="preserve" font-family="AvenirNext-Regular" font-size="32.0" fill="#FFFFFF" transform="matrix(1.00, 0.00, -0.00, -1.00, 147.9, 71.0)">t</text><text xml:space="preserve" font-family="AvenirNext-Regular" font-size="32.0" fill="#FFFFFF" transform="matrix(1.00, 0.00, -0.00, -1.00, 158.0, 71.0)">o</text><text xml:space="preserve" font-family="AvenirNext-Regular" font-size="32.0" fill="#FFFFFF" transform="matrix(1.00, 0.00, -0.00, -1.00, 177.6, 71.0)"> </text><text xml:space="preserve" font-family="AvenirNext-Regular" font-size="32.0" fill="#FFFFFF" transform="matrix(1.00, 0.00, -0.00, -1.00, 185.6, 71.0)">r</text><text xml:space="preserve" font-family="AvenirNext-Regular" font-size="32.0" fill="#FFFFFF" transform="matrix(1.00, 0.00, -0.00, -1.00, 196.5, 71.0)">e</text><text xml:space="preserve" font-family="AvenirNext-Regular" font-size="32.0" fill="#FFFFFF" transform="matrix(1.00, 0.00, -0.00, -1.00, 214.6, 71.0)">a</text><text xml:space="preserve" font-family="AvenirNext-Regular" font-size="32.0" fill="#FFFFFF" transform="matrix(1.00, 0.00, -0.00, -1.00, 231.7, 71.0)">d</text><text xml:space="preserve" font-family="AvenirNext-Regular" font-size="32.0" fill="#FFFFFF" transform="matrix(1.00, 0.00, -0.00, -1.00, 252.1, 71.0)"> </text><text xml:space="preserve" font-family="AvenirNext-Regular" font-size="32.0" fill="#FFFFFF" transform="matrix(1.00, 0.00, -0.00, -1.00, 260.1, 71.0)">-</text><text xml:space="preserve" font-family="AvenirNext-Regular" font-size="32.0" fill="#FFFFFF" transform="matrix(1.00, 0.00, -0.00, -1.00, 270.3, 71.0)"> </text><text xml:space="preserve" font-family="AvenirNext-Regular" font-size="32.0" fill="#FFFFFF" transform="matrix(1.00, 0.00, -0.00, -1.00, 278.3, 71.0)">p</text><text xml:space="preserve" font-family="AvenirNext-Regular" font-size="32.0" fill="#FFFFFF" transform="matrix(1.00, 0.00, -0.00, -1.00, 298.6, 71.0)">r</text><text xml:space="preserve" font-family="AvenirNext-Regular" font-size="32.0" fill="#FFFFFF" transform="matrix(1.00, 0.00, -0.00, -1.00, 309.6, 71.0)">e</text><text xml:space="preserve" font-family="AvenirNext-Regular" font-size="32.0" fill="#FFFFFF" transform="matrix(1.00, 0.00, -0.00, -1.00, 327.9, 71.0)">t</text><text xml:space="preserve" font-family="AvenirNext-Regular" font-size="32.0" fill="#FFFFFF" transform="matrix(1.00, 0.00, -0.00, -1.00, 337.6, 71.0)">t</text><text xml:space="preserve" font-family="AvenirNext-Regular" font-size="32.0" fill="#FFFFFF" transform="matrix(1.00, 0.00, -0.00, -1.00, 347.8, 71.0)">y</text><text xml:space="preserve" font-family="AvenirNext-Regular" font-size="32.0" fill="#FFFFFF" transform="matrix(1.00, 0.00, -0.00, -1.00, 363.4, 71.0)"> </text><text xml:space="preserve" font-family="AvenirNext-Regular" font-size="32.0" fill="#FFFFFF" transform="matrix(1.00, 0.00, -0.00, -1.00, 371.4, 71.0)">f</text><text xml:space="preserve" font-family="AvenirNext-Regular" font-size="32.0" fill="#FFFFFF" transform="matrix(1.00, 0.00, -0.00, -1.00, 380.8, 71.0)">o</text><text xml:space="preserve" font-family="AvenirNext-Regular" font-size="32.0" fill="#FFFFFF" transform="matrix(1.00, 0.00, -0.00, -1.00, 400.4, 71.0)">r</text><text xml:space="preserve" font-family="AvenirNext-Regular" font-size="32.0" fill="#FFFFFF" transform="matrix(1.00, 0.00, -0.00, -1.00, 411.9, 71.0)">m</text><text xml:space="preserve" font-family="AvenirNext-Regular" font-size="32.0" fill="#FFFFFF" transform="matrix(1.00, 0.00, -0.00, -1.00, 440.2, 71.0)">a</text><text xml:space="preserve" font-family="AvenirNext-Regular" font-size="32.0" fill="#FFFFFF" transform="matrix(1.00, 0.00, -0.00, -1.00, 456.9, 71.0)">t</text><text xml:space="preserve" font-family="AvenirNext-Regular" font-size="32.0" fill="#FFFFFF" transform="matrix(1.00, 0.00, -0.00, -1.00, 466.7, 71.0)">t</text><text xml:space="preserve" font-family="AvenirNext-Regular" font-size="32.0" fill="#FFFFFF" transform="matrix(1.00, 0.00, -0.00, -1.00, 476.8, 71.0)">i</text><text xml:space="preserve" font-family="AvenirNext-Regular" font-size="32.0" fill="#FFFFFF" transform="matrix(1.00, 0.00, -0.00, -1.00, 484.8, 71.0)">n</text><text xml:space="preserve" font-family="AvenirNext-Regular" font-size="32.0" fill="#FFFFFF" transform="matrix(1.00, 0.00, -0.00, -1.00, 503.4, 71.0)">g</text><text xml:space="preserve" font-family="AvenirNext-Regular" font-size="32.0" fill="#FFFFFF" transform="matrix(1.00, 0.00, -0.00, -1.00, 523.7, 71.0)">,</text><text xml:space="preserve" font-family="AvenirNext-Regular" font-size="32.0" fill="#FFFFFF" transform="matrix(1.00, 0.00, -0.00, -1.00, 531.0, 71.0)"> </text><text xml:space="preserve" font-family="AvenirNext-Regular" font-size="32.0" fill="#FFFFFF" transform="matrix(1.00, 0.00, -0.00, -1.00, 539.0, 71.0)">r</text><text xml:space="preserve" font-family="AvenirNext-Regular" font-size="32.0" fill="#FFFFFF" transform="matrix(1.00, 0.00, -0.00, -1.00, 550.0, 71.0)">e</text><text xml:space="preserve" font-family="AvenirNext-Regular" font-size="32.0" fill="#FFFFFF" transform="matrix(1.00, 0.00, -0.00, -1.00, 568.1, 71.0)">a</text><text xml:space="preserve" font-family="AvenirNext-Regular" font-size="32.0" fill="#FFFFFF" transform="matrix(1.00, 0.00, -0.00, -1.00, 585.2, 71.0)">d</text><text xml:space="preserve" font-family="AvenirNext-Regular" font-size="32.0" fill="#FFFFFF" transform="matrix(1.00, 0.00, -0.00, -1.00, 605.6, 71.0)">a</text><text xml:space="preserve" font-family="AvenirNext-Regular" font-size="32.0" fill="#FFFFFF" transform="matrix(1.00, 0.00, -0.00, -1.00, 622.6, 71.0)">b</text><text xml:space="preserve" font-family="AvenirNext-Regular" font-size="32.0" fill="#FFFFFF" transform="matrix(1.00, 0.00, -0.00, -1.00, 643.0, 71.0)">l</text><text xml:space="preserve" font-family="AvenirNext-Regular" font-size="32.0" fill="#FFFFFF" transform="matrix(1.00, 0.00, -0.00, -1.00, 651.1, 71.0)">e</text><text xml:space="preserve" font-family="AvenirNext-Regular" font-size="32.0" fill="#FFFFFF" transform="matrix(1.00, 0.00, -0.00, -1.00, 669.4, 71.0)"> </text><text xml:space="preserve" font-family="AvenirNext-Regular" font-size="32.0" fill="#FFFFFF" transform="matrix(1.00, 0.00, -0.00, -1.00, 677.4, 71.0)">v</text><text xml:space="preserve" font-family="AvenirNext-Regular" font-size="32.0" fill="#FFFFFF" transform="matrix(1.00, 0.00, -0.00, -1.00, 693.0, 71.0)">a</text><text xml:space="preserve" font-family="AvenirNext-Regular" font-size="32.0" fill="#FFFFFF" transform="matrix(1.00, 0.00, -0.00, -1.00, 710.1, 71.0)">r</text><text xml:space="preserve" font-family="AvenirNext-Regular" font-size="32.0" fill="#FFFFFF" transform="matrix(1.00, 0.00, -0.00, -1.00, 721.6, 71.0)">i</text><text xml:space="preserve" font-family="AvenirNext-Regular" font-size="32.0" fill="#FFFFFF" transform="matrix(1.00, 0.00, -0.00, -1.00, 729.6, 71.0)">a</text><text xml:space="preserve" font-family="AvenirNext-Regular" font-size="32.0" fill="#FFFFFF" transform="matrix(1.00, 0.00, -0.00, -1.00, 746.7, 71.0)">b</text><text xml:space="preserve" font-family="AvenirNext-Regular" font-size="32.0" fill="#FFFFFF" transform="matrix(1.00, 0.00, -0.00, -1.00, 767.1, 71.0)">l</text><text xml:space="preserve" font-family="AvenirNext-Regular" font-size="32.0" fill="#FFFFFF" transform="matrix(1.00, 0.00, -0.00, -1.00, 775.2, 71.0)">e</text><text xml:space="preserve" font-family="AvenirNext-Regular" font-size="32.0" fill="#FFFFFF" transform="matrix(1.00, 0.00, -0.00, -1.00, 793.5, 71.0)"> </text><text xml:space="preserve" font-family="AvenirNext-Regular" font-size="32.0" fill="#FFFFFF" transform="matrix(1.00, 0.00, -0.00, -1.00, 801.5, 71.0)">n</text><text xml:space="preserve" font-family="AvenirNext-Regular" font-size="32.0" fill="#FFFFFF" transform="matrix(1.00, 0.00, -0.00, -1.00, 820.0, 71.0)">a</text><text xml:space="preserve" font-family="AvenirNext-Regular" font-size="32.0" fill="#FFFFFF" transform="matrix(1.00, 0.00, -0.00, -1.00, 837.1, 71.0)">m</text><text xml:space="preserve" font-family="AvenirNext-Regular" font-size="32.0" fill="#FFFFFF" transform="matrix(1.00, 0.00, -0.00, -1.00, 865.4, 71.0)">e</text><text xml:space="preserve" font-family="AvenirNext-Regular" font-size="32.0" fill="#FFFFFF" transform="matrix(1.00, 0.00, -0.00, -1.00, 883.7, 71.0)">s</text><text xml:space="preserve" font-family="AvenirNext-Regular" font-size="32.0" fill="#FFFFFF" transform="matrix(1.00, 0.00, -0.00, -1.00, 897.9, 71.0)"> </text><text xml:space="preserve" font-family="LucidaGrande" font-size="24.0" fill="#CACACA" transform="matrix(1.00, 0.00, -0.00, -1.00, 37.0, 10.1)">‣</text><text xml:space="preserve" font-family="AvenirNext-Regular" font-size="32.0" fill="#FFFFFF" transform="matrix(1.00, 0.00, -0.00, -1.00, 74.0, 9.0)">L</text><text xml:space="preserve" font-family="AvenirNext-Regular" font-size="32.0" fill="#FFFFFF" transform="matrix(1.00, 0.00, -0.00, -1.00, 89.7, 9.0)">o</text><text xml:space="preserve" font-family="AvenirNext-Regular" font-size="32.0" fill="#FFFFFF" transform="matrix(1.00, 0.00, -0.00, -1.00, 109.3, 9.0)">g</text><text xml:space="preserve" font-family="AvenirNext-Regular" font-size="32.0" fill="#FFFFFF" transform="matrix(1.00, 0.00, -0.00, -1.00, 129.5, 9.0)">i</text><text xml:space="preserve" font-family="AvenirNext-Regular" font-size="32.0" fill="#FFFFFF" transform="matrix(1.00, 0.00, -0.00, -1.00, 137.5, 9.0)">c</text><text xml:space="preserve" font-family="AvenirNext-Regular" font-size="32.0" fill="#FFFFFF" transform="matrix(1.00, 0.00, -0.00, -1.00, 153.5, 9.0)">a</text><text xml:space="preserve" font-family="AvenirNext-Regular" font-size="32.0" fill="#FFFFFF" transform="matrix(1.00, 0.00, -0.00, -1.00, 170.6, 9.0)">l</text><text xml:space="preserve" font-family="AvenirNext-Regular" font-size="32.0" fill="#FFFFFF" transform="matrix(1.00, 0.00, -0.00, -1.00, 178.7, 9.0)"> </text><text xml:space="preserve" font-family="AvenirNext-Regular" font-size="32.0" fill="#FFFFFF" transform="matrix(1.00, 0.00, -0.00, -1.00, 186.7, 9.0)">s</text><text xml:space="preserve" font-family="AvenirNext-Regular" font-size="32.0" fill="#FFFFFF" transform="matrix(1.00, 0.00, -0.00, -1.00, 200.9, 9.0)">e</text><text xml:space="preserve" font-family="AvenirNext-Regular" font-size="32.0" fill="#FFFFFF" transform="matrix(1.00, 0.00, -0.00, -1.00, 219.2, 9.0)">p</text><text xml:space="preserve" font-family="AvenirNext-Regular" font-size="32.0" fill="#FFFFFF" transform="matrix(1.00, 0.00, -0.00, -1.00, 239.5, 9.0)">a</text><text xml:space="preserve" font-family="AvenirNext-Regular" font-size="32.0" fill="#FFFFFF" transform="matrix(1.00, 0.00, -0.00, -1.00, 256.6, 9.0)">r</text><text xml:space="preserve" font-family="AvenirNext-Regular" font-size="32.0" fill="#FFFFFF" transform="matrix(1.00, 0.00, -0.00, -1.00, 267.7, 9.0)">a</text><text xml:space="preserve" font-family="AvenirNext-Regular" font-size="32.0" fill="#FFFFFF" transform="matrix(1.00, 0.00, -0.00, -1.00, 284.5, 9.0)">t</text><text xml:space="preserve" font-family="AvenirNext-Regular" font-size="32.0" fill="#FFFFFF" transform="matrix(1.00, 0.00, -0.00, -1.00, 294.6, 9.0)">i</text><text xml:space="preserve" font-family="AvenirNext-Regular" font-size="32.0" fill="#FFFFFF" transform="matrix(1.00, 0.00, -0.00, -1.00, 302.6, 9.0)">o</text><text xml:space="preserve" font-family="AvenirNext-Regular" font-size="32.0" fill="#FFFFFF" transform="matrix(1.00, 0.00, -0.00, -1.00, 322.2, 9.0)">n</text><text xml:space="preserve" font-family="AvenirNext-Regular" font-size="32.0" fill="#FFFFFF" transform="matrix(1.00, 0.00, -0.00, -1.00, 340.8, 9.0)"> </text><text xml:space="preserve" font-family="AvenirNext-Regular" font-size="32.0" fill="#FFFFFF" transform="matrix(1.00, 0.00, -0.00, -1.00, 348.8, 9.0)">o</text><text xml:space="preserve" font-family="AvenirNext-Regular" font-size="32.0" fill="#FFFFFF" transform="matrix(1.00, 0.00, -0.00, -1.00, 368.3, 9.0)">f</text><text xml:space="preserve" font-family="AvenirNext-Regular" font-size="32.0" fill="#FFFFFF" transform="matrix(1.00, 0.00, -0.00, -1.00, 378.5, 9.0)"> </text><text xml:space="preserve" font-family="AvenirNext-Regular" font-size="32.0" fill="#FFFFFF" transform="matrix(1.00, 0.00, -0.00, -1.00, 386.5, 9.0)">c</text><text xml:space="preserve" font-family="AvenirNext-Regular" font-size="32.0" fill="#FFFFFF" transform="matrix(1.00, 0.00, -0.00, -1.00, 402.5, 9.0)">o</text><text xml:space="preserve" font-family="AvenirNext-Regular" font-size="32.0" fill="#FFFFFF" transform="matrix(1.00, 0.00, -0.00, -1.00, 422.1, 9.0)">d</text><text xml:space="preserve" font-family="AvenirNext-Regular" font-size="32.0" fill="#FFFFFF" transform="matrix(1.00, 0.00, -0.00, -1.00, 442.5, 9.0)">e</text><text xml:space="preserve" font-family="AvenirNext-Regular" font-size="32.0" fill="#FFFFFF" transform="matrix(1.00, 0.00, -0.00, -1.00, 460.8, 9.0)"> </text><text xml:space="preserve" font-family="AvenirNext-Regular" font-size="32.0" fill="#FFFFFF" transform="matrix(1.00, 0.00, -0.00, -1.00, 468.8, 9.0)">i</text><text xml:space="preserve" font-family="AvenirNext-Regular" font-size="32.0" fill="#FFFFFF" transform="matrix(1.00, 0.00, -0.00, -1.00, 476.8, 9.0)">n</text><text xml:space="preserve" font-family="AvenirNext-Regular" font-size="32.0" fill="#FFFFFF" transform="matrix(1.00, 0.00, -0.00, -1.00, 495.4, 9.0)">t</text><text xml:space="preserve" font-family="AvenirNext-Regular" font-size="32.0" fill="#FFFFFF" transform="matrix(1.00, 0.00, -0.00, -1.00, 505.5, 9.0)">o</text><text xml:space="preserve" font-family="AvenirNext-Regular" font-size="32.0" fill="#FFFFFF" transform="matrix(1.00, 0.00, -0.00, -1.00, 525.1, 9.0)"> </text><text xml:space="preserve" font-family="AvenirNext-Regular" font-size="32.0" fill="#FFFFFF" transform="matrix(1.00, 0.00, -0.00, -1.00, 533.1, 9.0)">m</text><text xml:space="preserve" font-family="AvenirNext-Regular" font-size="32.0" fill="#FFFFFF" transform="matrix(1.00, 0.00, -0.00, -1.00, 561.3, 9.0)">u</text><text xml:space="preserve" font-family="AvenirNext-Regular" font-size="32.0" fill="#FFFFFF" transform="matrix(1.00, 0.00, -0.00, -1.00, 579.9, 9.0)">l</text><text xml:space="preserve" font-family="AvenirNext-Regular" font-size="32.0" fill="#FFFFFF" transform="matrix(1.00, 0.00, -0.00, -1.00, 588.0, 9.0)">t</text><text xml:space="preserve" font-family="AvenirNext-Regular" font-size="32.0" fill="#FFFFFF" transform="matrix(1.00, 0.00, -0.00, -1.00, 598.1, 9.0)">i</text><text xml:space="preserve" font-family="AvenirNext-Regular" font-size="32.0" fill="#FFFFFF" transform="matrix(1.00, 0.00, -0.00, -1.00, 606.1, 9.0)">p</text><text xml:space="preserve" font-family="AvenirNext-Regular" font-size="32.0" fill="#FFFFFF" transform="matrix(1.00, 0.00, -0.00, -1.00, 626.4, 9.0)">l</text><text xml:space="preserve" font-family="AvenirNext-Regular" font-size="32.0" fill="#FFFFFF" transform="matrix(1.00, 0.00, -0.00, -1.00, 634.5, 9.0)">e</text><text xml:space="preserve" font-family="AvenirNext-Regular" font-size="32.0" fill="#FFFFFF" transform="matrix(1.00, 0.00, -0.00, -1.00, 652.8, 9.0)"> </text><text xml:space="preserve" font-family="AvenirNext-Regular" font-size="32.0" fill="#FFFFFF" transform="matrix(1.00, 0.00, -0.00, -1.00, 660.8, 9.0)">ﬁ</text><text xml:space="preserve" font-family="AvenirNext-Regular" font-size="32.0" fill="#FFFFFF" transform="matrix(1.00, 0.00, -0.00, -1.00, 678.2, 9.0)">l</text><text xml:space="preserve" font-family="AvenirNext-Regular" font-size="32.0" fill="#FFFFFF" transform="matrix(1.00, 0.00, -0.00, -1.00, 686.3, 9.0)">e</text><text xml:space="preserve" font-family="AvenirNext-Regular" font-size="32.0" fill="#FFFFFF" transform="matrix(1.00, 0.00, -0.00, -1.00, 704.6, 9.0)">s</text></g></svg>