<?xml version="1.0" encoding="UTF-8" standalone="no"?><svg xmlns="http://www.w3.org/2000/svg" xmlns:xlink="http://www.w3.org/1999/xlink" clip-rule="evenodd" stroke-miterlimit="4.00" viewBox="0 0 793 116"><desc>SVG generated by Keynote</desc><defs></defs><g transform="matrix(1.00, 0.00, -0.00, -1.00, 0.0, 116.0)"><text xml:space="preserve" font-family="LucidaGrande" font-size="21.1" fill="#CACACA" transform="matrix(1.00, 0.00, -0.00, -1.00, 0.0, 94.7)">‣</text><text xml:space="preserve" font-family="AvenirNext-Regular" font-size="28.2" fill="#FFFFFF" transform="matrix(1.00, 0.00, -0.00, -1.00, 33.0, 94.0)">W</text><text xml:space="preserve" font-family="AvenirNext-Regular" font-size="28.2" fill="#FFFFFF" transform="matrix(1.00, 0.00, -0.00, -1.00, 60.4, 94.0)">h</text><text xml:space="preserve" font-family="AvenirNext-Regular" font-size="28.2" fill="#FFFFFF" transform="matrix(1.00, 0.00, -0.00, -1.00, 76.8, 94.0)">y</text><text xml:space="preserve" font-family="AvenirNext-Regular" font-size="28.2" fill="#FFFFFF" transform="matrix(1.00, 0.00, -0.00, -1.00, 90.5, 94.0)">?</text><text xml:space="preserve" font-family="AvenirNext-Regular" font-size="28.2" fill="#FFFFFF" transform="matrix(1.00, 0.00, -0.00, -1.00, 104.1, 94.0)"> </text><text xml:space="preserve" font-family="LucidaGrande" font-size="21.1" fill="#CACACA" transform="matrix(1.00, 0.00, -0.00, -1.00, 37.0, 40.9)">‣</text><text xml:space="preserve" font-family="AvenirNext-Regular" font-size="28.2" fill="#FFFFFF" transform="matrix(1.00, 0.00, -0.00, -1.00, 70.0, 40.0)">B</text><text xml:space="preserve" font-family="AvenirNext-Regular" font-size="28.2" fill="#FFFFFF" transform="matrix(1.00, 0.00, -0.00, -1.00, 87.9, 40.0)">e</text><text xml:space="preserve" font-family="AvenirNext-Regular" font-size="28.2" fill="#FFFFFF" transform="matrix(1.00, 0.00, -0.00, -1.00, 104.0, 40.0)">c</text><text xml:space="preserve" font-family="AvenirNext-Regular" font-size="28.2" fill="#FFFFFF" transform="matrix(1.00, 0.00, -0.00, -1.00, 118.1, 40.0)">a</text><text xml:space="preserve" font-family="AvenirNext-Regular" font-size="28.2" fill="#FFFFFF" transform="matrix(1.00, 0.00, -0.00, -1.00, 133.1, 40.0)">u</text><text xml:space="preserve" font-family="AvenirNext-Regular" font-size="28.2" fill="#FFFFFF" transform="matrix(1.00, 0.00, -0.00, -1.00, 149.5, 40.0)">s</text><text xml:space="preserve" font-family="AvenirNext-Regular" font-size="28.2" fill="#FFFFFF" transform="matrix(1.00, 0.00, -0.00, -1.00, 162.0, 40.0)">e</text><text xml:space="preserve" font-family="AvenirNext-Regular" font-size="28.2" fill="#FFFFFF" transform="matrix(1.00, 0.00, -0.00, -1.00, 178.1, 40.0)"> </text><text xml:space="preserve" font-family="AvenirNext-Regular" font-size="28.2" fill="#FFFFFF" transform="matrix(1.00, 0.00, -0.00, -1.00, 185.1, 40.0)">w</text><text xml:space="preserve" font-family="AvenirNext-Regular" font-size="28.2" fill="#FFFFFF" transform="matrix(1.00, 0.00, -0.00, -1.00, 206.2, 40.0)">e</text><text xml:space="preserve" font-family="AvenirNext-Regular" font-size="28.2" fill="#FFFFFF" transform="matrix(1.00, 0.00, -0.00, -1.00, 222.3, 40.0)"> </text><text xml:space="preserve" font-family="AvenirNext-Regular" font-size="28.2" fill="#FFFFFF" transform="matrix(1.00, 0.00, -0.00, -1.00, 229.3, 40.0)">a</text><text xml:space="preserve" font-family="AvenirNext-Regular" font-size="28.2" fill="#FFFFFF" transform="matrix(1.00, 0.00, -0.00, -1.00, 244.3, 40.0)">r</text><text xml:space="preserve" font-family="AvenirNext-Regular" font-size="28.2" fill="#FFFFFF" transform="matrix(1.00, 0.00, -0.00, -1.00, 254.0, 40.0)">e</text><text xml:space="preserve" font-family="AvenirNext-Regular" font-size="28.2" fill="#FFFFFF" transform="matrix(1.00, 0.00, -0.00, -1.00, 270.1, 40.0)"> </text><text xml:space="preserve" font-family="AvenirNext-Regular" font-size="28.2" fill="#FFFFFF" transform="matrix(1.00, 0.00, -0.00, -1.00, 277.1, 40.0)">b</text><text xml:space="preserve" font-family="AvenirNext-Regular" font-size="28.2" fill="#FFFFFF" transform="matrix(1.00, 0.00, -0.00, -1.00, 295.1, 40.0)">e</text><text xml:space="preserve" font-family="AvenirNext-Regular" font-size="28.2" fill="#FFFFFF" transform="matrix(1.00, 0.00, -0.00, -1.00, 311.2, 40.0)">t</text><text xml:space="preserve" font-family="AvenirNext-Regular" font-size="28.2" fill="#FFFFFF" transform="matrix(1.00, 0.00, -0.00, -1.00, 319.8, 40.0)">t</text><text xml:space="preserve" font-family="AvenirNext-Regular" font-size="28.2" fill="#FFFFFF" transform="matrix(1.00, 0.00, -0.00, -1.00, 328.7, 40.0)">e</text><text xml:space="preserve" font-family="AvenirNext-Regular" font-size="28.2" fill="#FFFFFF" transform="matrix(1.00, 0.00, -0.00, -1.00, 344.8, 40.0)">r</text><text xml:space="preserve" font-family="AvenirNext-Regular" font-size="28.2" fill="#FFFFFF" transform="matrix(1.00, 0.00, -0.00, -1.00, 354.9, 40.0)"> </text><text xml:space="preserve" font-family="AvenirNext-Regular" font-size="28.2" fill="#FFFFFF" transform="matrix(1.00, 0.00, -0.00, -1.00, 362.0, 40.0)">a</text><text xml:space="preserve" font-family="AvenirNext-Regular" font-size="28.2" fill="#FFFFFF" transform="matrix(1.00, 0.00, -0.00, -1.00, 377.0, 40.0)">n</text><text xml:space="preserve" font-family="AvenirNext-Regular" font-size="28.2" fill="#FFFFFF" transform="matrix(1.00, 0.00, -0.00, -1.00, 393.4, 40.0)">d</text><text xml:space="preserve" font-family="AvenirNext-Regular" font-size="28.2" fill="#FFFFFF" transform="matrix(1.00, 0.00, -0.00, -1.00, 411.3, 40.0)"> </text><text xml:space="preserve" font-family="AvenirNext-Regular" font-size="28.2" fill="#FFFFFF" transform="matrix(1.00, 0.00, -0.00, -1.00, 418.3, 40.0)">h</text><text xml:space="preserve" font-family="AvenirNext-Regular" font-size="28.2" fill="#FFFFFF" transform="matrix(1.00, 0.00, -0.00, -1.00, 434.8, 40.0)">a</text><text xml:space="preserve" font-family="AvenirNext-Regular" font-size="28.2" fill="#FFFFFF" transform="matrix(1.00, 0.00, -0.00, -1.00, 449.8, 40.0)">p</text><text xml:space="preserve" font-family="AvenirNext-Regular" font-size="28.2" fill="#FFFFFF" transform="matrix(1.00, 0.00, -0.00, -1.00, 467.7, 40.0)">p</text><text xml:space="preserve" font-family="AvenirNext-Regular" font-size="28.2" fill="#FFFFFF" transform="matrix(1.00, 0.00, -0.00, -1.00, 485.6, 40.0)">i</text><text xml:space="preserve" font-family="AvenirNext-Regular" font-size="28.2" fill="#FFFFFF" transform="matrix(1.00, 0.00, -0.00, -1.00, 492.6, 40.0)">e</text><text xml:space="preserve" font-family="AvenirNext-Regular" font-size="28.2" fill="#FFFFFF" transform="matrix(1.00, 0.00, -0.00, -1.00, 508.7, 40.0)">r</text><text xml:space="preserve" font-family="AvenirNext-Regular" font-size="28.2" fill="#FFFFFF" transform="matrix(1.00, 0.00, -0.00, -1.00, 518.8, 40.0)"> </text><text xml:space="preserve" font-family="AvenirNext-Regular" font-size="28.2" fill="#FFFFFF" transform="matrix(1.00, 0.00, -0.00, -1.00, 525.9, 40.0)">d</text><text xml:space="preserve" font-family="AvenirNext-Regular" font-size="28.2" fill="#FFFFFF" transform="matrix(1.00, 0.00, -0.00, -1.00, 543.8, 40.0)">e</text><text xml:space="preserve" font-family="AvenirNext-Regular" font-size="28.2" fill="#FFFFFF" transform="matrix(1.00, 0.00, -0.00, -1.00, 559.9, 40.0)">v</text><text xml:space="preserve" font-family="AvenirNext-Regular" font-size="28.2" fill="#FFFFFF" transform="matrix(1.00, 0.00, -0.00, -1.00, 573.7, 40.0)">e</text><text xml:space="preserve" font-family="AvenirNext-Regular" font-size="28.2" fill="#FFFFFF" transform="matrix(1.00, 0.00, -0.00, -1.00, 589.8, 40.0)">l</text><text xml:space="preserve" font-family="AvenirNext-Regular" font-size="28.2" fill="#FFFFFF" transform="matrix(1.00, 0.00, -0.00, -1.00, 596.9, 40.0)">o</text><text xml:space="preserve" font-family="AvenirNext-Regular" font-size="28.2" fill="#FFFFFF" transform="matrix(1.00, 0.00, -0.00, -1.00, 614.1, 40.0)">p</text><text xml:space="preserve" font-family="AvenirNext-Regular" font-size="28.2" fill="#FFFFFF" transform="matrix(1.00, 0.00, -0.00, -1.00, 632.0, 40.0)">e</text><text xml:space="preserve" font-family="AvenirNext-Regular" font-size="28.2" fill="#FFFFFF" transform="matrix(1.00, 0.00, -0.00, -1.00, 648.1, 40.0)">r</text><text xml:space="preserve" font-family="AvenirNext-Regular" font-size="28.2" fill="#FFFFFF" transform="matrix(1.00, 0.00, -0.00, -1.00, 658.2, 40.0)">s</text><text xml:space="preserve" font-family="AvenirNext-Regular" font-size="28.2" fill="#FFFFFF" transform="matrix(1.00, 0.00, -0.00, -1.00, 670.7, 40.0)"> </text><text xml:space="preserve" font-family="AvenirNext-Regular" font-size="28.2" fill="#FFFFFF" transform="matrix(1.00, 0.00, -0.00, -1.00, 677.7, 40.0)">w</text><text xml:space="preserve" font-family="AvenirNext-Regular" font-size="28.2" fill="#FFFFFF" transform="matrix(1.00, 0.00, -0.00, -1.00, 698.8, 40.0)">h</text><text xml:space="preserve" font-family="AvenirNext-Regular" font-size="28.2" fill="#FFFFFF" transform="matrix(1.00, 0.00, -0.00, -1.00, 715.2, 40.0)">e</text><text xml:space="preserve" font-family="AvenirNext-Regular" font-size="28.2" fill="#FFFFFF" transform="matrix(1.00, 0.00, -0.00, -1.00, 731.3, 40.0)">n</text><text xml:space="preserve" font-family="AvenirNext-Regular" font-size="28.2" fill="#FFFFFF" transform="matrix(1.00, 0.00, -0.00, -1.00, 747.6, 40.0)"> </text><text xml:space="preserve" font-family="AvenirNext-Regular" font-size="28.2" fill="#FFFFFF" transform="matrix(1.00, 0.00, -0.00, -1.00, 754.7, 40.0)">w</text><text xml:space="preserve" font-family="AvenirNext-Regular" font-size="28.2" fill="#FFFFFF" transform="matrix(1.00, 0.00, -0.00, -1.00, 775.7, 40.0)">e</text><text xml:space="preserve" font-family="AvenirNext-Regular" font-size="28.2" fill="#FFFFFF" transform="matrix(1.00, 0.00, -0.00, -1.00, 791.8, 40.0)"> </text><text xml:space="preserve" font-family="AvenirNext-Regular" font-size="28.2" fill="#FFFFFF" transform="matrix(1.00, 0.00, -0.00, -1.00, 70.0, 2.0)">u</text><text xml:space="preserve" font-family="AvenirNext-Regular" font-size="28.2" fill="#FFFFFF" transform="matrix(1.00, 0.00, -0.00, -1.00, 86.4, 2.0)">n</text><text xml:space="preserve" font-family="AvenirNext-Regular" font-size="28.2" fill="#FFFFFF" transform="matrix(1.00, 0.00, -0.00, -1.00, 102.7, 2.0)">d</text><text xml:space="preserve" font-family="AvenirNext-Regular" font-size="28.2" fill="#FFFFFF" transform="matrix(1.00, 0.00, -0.00, -1.00, 120.7, 2.0)">e</text><text xml:space="preserve" font-family="AvenirNext-Regular" font-size="28.2" fill="#FFFFFF" transform="matrix(1.00, 0.00, -0.00, -1.00, 136.8, 2.0)">r</text><text xml:space="preserve" font-family="AvenirNext-Regular" font-size="28.2" fill="#FFFFFF" transform="matrix(1.00, 0.00, -0.00, -1.00, 146.9, 2.0)">s</text><text xml:space="preserve" font-family="AvenirNext-Regular" font-size="28.2" fill="#FFFFFF" transform="matrix(1.00, 0.00, -0.00, -1.00, 159.4, 2.0)">t</text><text xml:space="preserve" font-family="AvenirNext-Regular" font-size="28.2" fill="#FFFFFF" transform="matrix(1.00, 0.00, -0.00, -1.00, 168.3, 2.0)">a</text><text xml:space="preserve" font-family="AvenirNext-Regular" font-size="28.2" fill="#FFFFFF" transform="matrix(1.00, 0.00, -0.00, -1.00, 183.4, 2.0)">n</text><text xml:space="preserve" font-family="AvenirNext-Regular" font-size="28.2" fill="#FFFFFF" transform="matrix(1.00, 0.00, -0.00, -1.00, 199.7, 2.0)">d</text><text xml:space="preserve" font-family="AvenirNext-Regular" font-size="28.2" fill="#FFFFFF" transform="matrix(1.00, 0.00, -0.00, -1.00, 217.7, 2.0)"> </text><text xml:space="preserve" font-family="AvenirNext-Regular" font-size="28.2" fill="#FFFFFF" transform="matrix(1.00, 0.00, -0.00, -1.00, 224.7, 2.0)">o</text><text xml:space="preserve" font-family="AvenirNext-Regular" font-size="28.2" fill="#FFFFFF" transform="matrix(1.00, 0.00, -0.00, -1.00, 241.9, 2.0)">u</text><text xml:space="preserve" font-family="AvenirNext-Regular" font-size="28.2" fill="#FFFFFF" transform="matrix(1.00, 0.00, -0.00, -1.00, 258.3, 2.0)">r</text><text xml:space="preserve" font-family="AvenirNext-Regular" font-size="28.2" fill="#FFFFFF" transform="matrix(1.00, 0.00, -0.00, -1.00, 268.4, 2.0)"> </text><text xml:space="preserve" font-family="AvenirNext-Regular" font-size="28.2" fill="#FFFFFF" transform="matrix(1.00, 0.00, -0.00, -1.00, 275.5, 2.0)">t</text><text xml:space="preserve" font-family="AvenirNext-Regular" font-size="28.2" fill="#FFFFFF" transform="matrix(1.00, 0.00, -0.00, -1.00, 284.4, 2.0)">o</text><text xml:space="preserve" font-family="AvenirNext-Regular" font-size="28.2" fill="#FFFFFF" transform="matrix(1.00, 0.00, -0.00, -1.00, 301.6, 2.0)">o</text><text xml:space="preserve" font-family="AvenirNext-Regular" font-size="28.2" fill="#FFFFFF" transform="matrix(1.00, 0.00, -0.00, -1.00, 318.8, 2.0)">l</text><text xml:space="preserve" font-family="AvenirNext-Regular" font-size="28.2" fill="#FFFFFF" transform="matrix(1.00, 0.00, -0.00, -1.00, 325.9, 2.0)">s</text></g></svg>