<?xml version="1.0" encoding="UTF-8" standalone="no"?><svg xmlns="http://www.w3.org/2000/svg" xmlns:xlink="http://www.w3.org/1999/xlink" clip-rule="evenodd" stroke-miterlimit="4.00" viewBox="0 0 450 189"><desc>SVG generated by Keynote</desc><defs></defs><g transform="matrix(1.00, 0.00, -0.00, -1.00, 0.0, 189.0)"><text xml:space="preserve" font-family="LucidaGrande" font-size="21.1" fill="#CACACA" transform="matrix(1.00, 0.00, -0.00, -1.00, 0.0, 167.1)">‣</text><text xml:space="preserve" font-family="AvenirNext-Regular" font-size="28.2" fill="#FFFFFF" transform="matrix(1.00, 0.00, -0.00, -1.00, 33.0, 166.0)">Q</text><text xml:space="preserve" font-family="AvenirNext-Regular" font-size="28.2" fill="#FFFFFF" transform="matrix(1.00, 0.00, -0.00, -1.00, 56.7, 166.0)">u</text><text xml:space="preserve" font-family="AvenirNext-Regular" font-size="28.2" fill="#FFFFFF" transform="matrix(1.00, 0.00, -0.00, -1.00, 73.1, 166.0)">e</text><text xml:space="preserve" font-family="AvenirNext-Regular" font-size="28.2" fill="#FFFFFF" transform="matrix(1.00, 0.00, -0.00, -1.00, 89.2, 166.0)">s</text><text xml:space="preserve" font-family="AvenirNext-Regular" font-size="28.2" fill="#FFFFFF" transform="matrix(1.00, 0.00, -0.00, -1.00, 101.7, 166.0)">t</text><text xml:space="preserve" font-family="AvenirNext-Regular" font-size="28.2" fill="#FFFFFF" transform="matrix(1.00, 0.00, -0.00, -1.00, 110.6, 166.0)">i</text><text xml:space="preserve" font-family="AvenirNext-Regular" font-size="28.2" fill="#FFFFFF" transform="matrix(1.00, 0.00, -0.00, -1.00, 117.7, 166.0)">o</text><text xml:space="preserve" font-family="AvenirNext-Regular" font-size="28.2" fill="#FFFFFF" transform="matrix(1.00, 0.00, -0.00, -1.00, 134.9, 166.0)">n</text><text xml:space="preserve" font-family="AvenirNext-Regular" font-size="28.2" fill="#FFFFFF" transform="matrix(1.00, 0.00, -0.00, -1.00, 151.2, 166.0)">s</text><text xml:space="preserve" font-family="AvenirNext-Regular" font-size="28.2" fill="#FFFFFF" transform="matrix(1.00, 0.00, -0.00, -1.00, 163.7, 166.0)"> </text><text xml:space="preserve" font-family="AvenirNext-Regular" font-size="28.2" fill="#FFFFFF" transform="matrix(1.00, 0.00, -0.00, -1.00, 170.8, 166.0)">f</text><text xml:space="preserve" font-family="AvenirNext-Regular" font-size="28.2" fill="#FFFFFF" transform="matrix(1.00, 0.00, -0.00, -1.00, 179.1, 166.0)">o</text><text xml:space="preserve" font-family="AvenirNext-Regular" font-size="28.2" fill="#FFFFFF" transform="matrix(1.00, 0.00, -0.00, -1.00, 196.3, 166.0)">r</text><text xml:space="preserve" font-family="AvenirNext-Regular" font-size="28.2" fill="#FFFFFF" transform="matrix(1.00, 0.00, -0.00, -1.00, 206.4, 166.0)"> </text><text xml:space="preserve" font-family="AvenirNext-Regular" font-size="28.2" fill="#FFFFFF" transform="matrix(1.00, 0.00, -0.00, -1.00, 213.5, 166.0)">a</text><text xml:space="preserve" font-family="AvenirNext-Regular" font-size="28.2" fill="#FFFFFF" transform="matrix(1.00, 0.00, -0.00, -1.00, 228.5, 166.0)"> </text><text xml:space="preserve" font-family="AvenirNext-Regular" font-size="28.2" fill="#FFFFFF" transform="matrix(1.00, 0.00, -0.00, -1.00, 235.6, 166.0)">n</text><text xml:space="preserve" font-family="AvenirNext-Regular" font-size="28.2" fill="#FFFFFF" transform="matrix(1.00, 0.00, -0.00, -1.00, 251.9, 166.0)">e</text><text xml:space="preserve" font-family="AvenirNext-Regular" font-size="28.2" fill="#FFFFFF" transform="matrix(1.00, 0.00, -0.00, -1.00, 268.0, 166.0)">w</text><text xml:space="preserve" font-family="AvenirNext-Regular" font-size="28.2" fill="#FFFFFF" transform="matrix(1.00, 0.00, -0.00, -1.00, 289.0, 166.0)"> </text><text xml:space="preserve" font-family="AvenirNext-Regular" font-size="28.2" fill="#FFFFFF" transform="matrix(1.00, 0.00, -0.00, -1.00, 296.1, 166.0)">t</text><text xml:space="preserve" font-family="AvenirNext-Regular" font-size="28.2" fill="#FFFFFF" transform="matrix(1.00, 0.00, -0.00, -1.00, 305.0, 166.0)">o</text><text xml:space="preserve" font-family="AvenirNext-Regular" font-size="28.2" fill="#FFFFFF" transform="matrix(1.00, 0.00, -0.00, -1.00, 322.2, 166.0)">o</text><text xml:space="preserve" font-family="AvenirNext-Regular" font-size="28.2" fill="#FFFFFF" transform="matrix(1.00, 0.00, -0.00, -1.00, 339.4, 166.0)">l</text><text xml:space="preserve" font-family="AvenirNext-Regular" font-size="28.2" fill="#FFFFFF" transform="matrix(1.00, 0.00, -0.00, -1.00, 346.5, 166.0)">:</text><text xml:space="preserve" font-family="AvenirNext-Regular" font-size="28.2" fill="#FFFFFF" transform="matrix(1.00, 0.00, -0.00, -1.00, 355.0, 166.0)"> </text><text xml:space="preserve" font-family="LucidaGrande" font-size="21.1" fill="#CACACA" transform="matrix(1.00, 0.00, -0.00, -1.00, 37.0, 113.3)">‣</text><text xml:space="preserve" font-family="AvenirNext-Regular" font-size="28.2" fill="#FFFFFF" transform="matrix(1.00, 0.00, -0.00, -1.00, 70.0, 112.0)">W</text><text xml:space="preserve" font-family="AvenirNext-Regular" font-size="28.2" fill="#FFFFFF" transform="matrix(1.00, 0.00, -0.00, -1.00, 97.4, 112.0)">h</text><text xml:space="preserve" font-family="AvenirNext-Regular" font-size="28.2" fill="#FFFFFF" transform="matrix(1.00, 0.00, -0.00, -1.00, 113.8, 112.0)">a</text><text xml:space="preserve" font-family="AvenirNext-Regular" font-size="28.2" fill="#FFFFFF" transform="matrix(1.00, 0.00, -0.00, -1.00, 128.5, 112.0)">t</text><text xml:space="preserve" font-family="AvenirNext-Regular" font-size="28.2" fill="#FFFFFF" transform="matrix(1.00, 0.00, -0.00, -1.00, 137.5, 112.0)"> </text><text xml:space="preserve" font-family="AvenirNext-Regular" font-size="28.2" fill="#FFFFFF" transform="matrix(1.00, 0.00, -0.00, -1.00, 144.5, 112.0)">p</text><text xml:space="preserve" font-family="AvenirNext-Regular" font-size="28.2" fill="#FFFFFF" transform="matrix(1.00, 0.00, -0.00, -1.00, 162.4, 112.0)">r</text><text xml:space="preserve" font-family="AvenirNext-Regular" font-size="28.2" fill="#FFFFFF" transform="matrix(1.00, 0.00, -0.00, -1.00, 172.0, 112.0)">o</text><text xml:space="preserve" font-family="AvenirNext-Regular" font-size="28.2" fill="#FFFFFF" transform="matrix(1.00, 0.00, -0.00, -1.00, 189.2, 112.0)">b</text><text xml:space="preserve" font-family="AvenirNext-Regular" font-size="28.2" fill="#FFFFFF" transform="matrix(1.00, 0.00, -0.00, -1.00, 207.2, 112.0)">l</text><text xml:space="preserve" font-family="AvenirNext-Regular" font-size="28.2" fill="#FFFFFF" transform="matrix(1.00, 0.00, -0.00, -1.00, 214.3, 112.0)">e</text><text xml:space="preserve" font-family="AvenirNext-Regular" font-size="28.2" fill="#FFFFFF" transform="matrix(1.00, 0.00, -0.00, -1.00, 230.4, 112.0)">m</text><text xml:space="preserve" font-family="AvenirNext-Regular" font-size="28.2" fill="#FFFFFF" transform="matrix(1.00, 0.00, -0.00, -1.00, 255.2, 112.0)">s</text><text xml:space="preserve" font-family="AvenirNext-Regular" font-size="28.2" fill="#FFFFFF" transform="matrix(1.00, 0.00, -0.00, -1.00, 267.7, 112.0)"> </text><text xml:space="preserve" font-family="AvenirNext-Regular" font-size="28.2" fill="#FFFFFF" transform="matrix(1.00, 0.00, -0.00, -1.00, 274.8, 112.0)">d</text><text xml:space="preserve" font-family="AvenirNext-Regular" font-size="28.2" fill="#FFFFFF" transform="matrix(1.00, 0.00, -0.00, -1.00, 292.7, 112.0)">o</text><text xml:space="preserve" font-family="AvenirNext-Regular" font-size="28.2" fill="#FFFFFF" transform="matrix(1.00, 0.00, -0.00, -1.00, 309.9, 112.0)">e</text><text xml:space="preserve" font-family="AvenirNext-Regular" font-size="28.2" fill="#FFFFFF" transform="matrix(1.00, 0.00, -0.00, -1.00, 326.0, 112.0)">s</text><text xml:space="preserve" font-family="AvenirNext-Regular" font-size="28.2" fill="#FFFFFF" transform="matrix(1.00, 0.00, -0.00, -1.00, 338.5, 112.0)"> </text><text xml:space="preserve" font-family="AvenirNext-Regular" font-size="28.2" fill="#FFFFFF" transform="matrix(1.00, 0.00, -0.00, -1.00, 345.6, 112.0)">i</text><text xml:space="preserve" font-family="AvenirNext-Regular" font-size="28.2" fill="#FFFFFF" transform="matrix(1.00, 0.00, -0.00, -1.00, 352.6, 112.0)">t</text><text xml:space="preserve" font-family="AvenirNext-Regular" font-size="28.2" fill="#FFFFFF" transform="matrix(1.00, 0.00, -0.00, -1.00, 361.5, 112.0)"> </text><text xml:space="preserve" font-family="AvenirNext-Regular" font-size="28.2" fill="#FFFFFF" transform="matrix(1.00, 0.00, -0.00, -1.00, 368.6, 112.0)">s</text><text xml:space="preserve" font-family="AvenirNext-Regular" font-size="28.2" fill="#FFFFFF" transform="matrix(1.00, 0.00, -0.00, -1.00, 381.1, 112.0)">o</text><text xml:space="preserve" font-family="AvenirNext-Regular" font-size="28.2" fill="#FFFFFF" transform="matrix(1.00, 0.00, -0.00, -1.00, 398.3, 112.0)">l</text><text xml:space="preserve" font-family="AvenirNext-Regular" font-size="28.2" fill="#FFFFFF" transform="matrix(1.00, 0.00, -0.00, -1.00, 405.4, 112.0)">v</text><text xml:space="preserve" font-family="AvenirNext-Regular" font-size="28.2" fill="#FFFFFF" transform="matrix(1.00, 0.00, -0.00, -1.00, 419.1, 112.0)">e</text><text xml:space="preserve" font-family="AvenirNext-Regular" font-size="28.2" fill="#FFFFFF" transform="matrix(1.00, 0.00, -0.00, -1.00, 435.2, 112.0)">?</text><text xml:space="preserve" font-family="AvenirNext-Regular" font-size="28.2" fill="#FFFFFF" transform="matrix(1.00, 0.00, -0.00, -1.00, 448.8, 112.0)"> </text><text xml:space="preserve" font-family="LucidaGrande" font-size="21.1" fill="#CACACA" transform="matrix(1.00, 0.00, -0.00, -1.00, 37.0, 59.4)">‣</text><text xml:space="preserve" font-family="AvenirNext-Regular" font-size="28.2" fill="#FFFFFF" transform="matrix(1.00, 0.00, -0.00, -1.00, 70.0, 58.0)">H</text><text xml:space="preserve" font-family="AvenirNext-Regular" font-size="28.2" fill="#FFFFFF" transform="matrix(1.00, 0.00, -0.00, -1.00, 90.2, 58.0)">o</text><text xml:space="preserve" font-family="AvenirNext-Regular" font-size="28.2" fill="#FFFFFF" transform="matrix(1.00, 0.00, -0.00, -1.00, 107.4, 58.0)">w</text><text xml:space="preserve" font-family="AvenirNext-Regular" font-size="28.2" fill="#FFFFFF" transform="matrix(1.00, 0.00, -0.00, -1.00, 128.4, 58.0)"> </text><text xml:space="preserve" font-family="AvenirNext-Regular" font-size="28.2" fill="#FFFFFF" transform="matrix(1.00, 0.00, -0.00, -1.00, 135.5, 58.0)">d</text><text xml:space="preserve" font-family="AvenirNext-Regular" font-size="28.2" fill="#FFFFFF" transform="matrix(1.00, 0.00, -0.00, -1.00, 153.4, 58.0)">o</text><text xml:space="preserve" font-family="AvenirNext-Regular" font-size="28.2" fill="#FFFFFF" transform="matrix(1.00, 0.00, -0.00, -1.00, 170.6, 58.0)">e</text><text xml:space="preserve" font-family="AvenirNext-Regular" font-size="28.2" fill="#FFFFFF" transform="matrix(1.00, 0.00, -0.00, -1.00, 186.7, 58.0)">s</text><text xml:space="preserve" font-family="AvenirNext-Regular" font-size="28.2" fill="#FFFFFF" transform="matrix(1.00, 0.00, -0.00, -1.00, 199.2, 58.0)"> </text><text xml:space="preserve" font-family="AvenirNext-Regular" font-size="28.2" fill="#FFFFFF" transform="matrix(1.00, 0.00, -0.00, -1.00, 206.3, 58.0)">i</text><text xml:space="preserve" font-family="AvenirNext-Regular" font-size="28.2" fill="#FFFFFF" transform="matrix(1.00, 0.00, -0.00, -1.00, 213.3, 58.0)">t</text><text xml:space="preserve" font-family="AvenirNext-Regular" font-size="28.2" fill="#FFFFFF" transform="matrix(1.00, 0.00, -0.00, -1.00, 222.2, 58.0)"> </text><text xml:space="preserve" font-family="AvenirNext-Regular" font-size="28.2" fill="#FFFFFF" transform="matrix(1.00, 0.00, -0.00, -1.00, 229.3, 58.0)">w</text><text xml:space="preserve" font-family="AvenirNext-Regular" font-size="28.2" fill="#FFFFFF" transform="matrix(1.00, 0.00, -0.00, -1.00, 250.3, 58.0)">o</text><text xml:space="preserve" font-family="AvenirNext-Regular" font-size="28.2" fill="#FFFFFF" transform="matrix(1.00, 0.00, -0.00, -1.00, 267.5, 58.0)">r</text><text xml:space="preserve" font-family="AvenirNext-Regular" font-size="28.2" fill="#FFFFFF" transform="matrix(1.00, 0.00, -0.00, -1.00, 277.6, 58.0)">k</text><text xml:space="preserve" font-family="AvenirNext-Regular" font-size="28.2" fill="#FFFFFF" transform="matrix(1.00, 0.00, -0.00, -1.00, 292.0, 58.0)">?</text><text xml:space="preserve" font-family="AvenirNext-Regular" font-size="28.2" fill="#FFFFFF" transform="matrix(1.00, 0.00, -0.00, -1.00, 305.6, 58.0)"> </text><text xml:space="preserve" font-family="LucidaGrande" font-size="21.1" fill="#CACACA" transform="matrix(1.00, 0.00, -0.00, -1.00, 37.0, 5.6)">‣</text><text xml:space="preserve" font-family="AvenirNext-Regular" font-size="28.2" fill="#FFFFFF" transform="matrix(1.00, 0.00, -0.00, -1.00, 70.0, 4.0)">H</text><text xml:space="preserve" font-family="AvenirNext-Regular" font-size="28.2" fill="#FFFFFF" transform="matrix(1.00, 0.00, -0.00, -1.00, 90.2, 4.0)">o</text><text xml:space="preserve" font-family="AvenirNext-Regular" font-size="28.2" fill="#FFFFFF" transform="matrix(1.00, 0.00, -0.00, -1.00, 107.4, 4.0)">w</text><text xml:space="preserve" font-family="AvenirNext-Regular" font-size="28.2" fill="#FFFFFF" transform="matrix(1.00, 0.00, -0.00, -1.00, 128.4, 4.0)"> </text><text xml:space="preserve" font-family="AvenirNext-Regular" font-size="28.2" fill="#FFFFFF" transform="matrix(1.00, 0.00, -0.00, -1.00, 135.5, 4.0)">d</text><text xml:space="preserve" font-family="AvenirNext-Regular" font-size="28.2" fill="#FFFFFF" transform="matrix(1.00, 0.00, -0.00, -1.00, 153.4, 4.0)">o</text><text xml:space="preserve" font-family="AvenirNext-Regular" font-size="28.2" fill="#FFFFFF" transform="matrix(1.00, 0.00, -0.00, -1.00, 170.6, 4.0)"> </text><text xml:space="preserve" font-family="AvenirNext-Regular" font-size="28.2" fill="#FFFFFF" transform="matrix(1.00, 0.00, -0.00, -1.00, 177.7, 4.0)">w</text><text xml:space="preserve" font-family="AvenirNext-Regular" font-size="28.2" fill="#FFFFFF" transform="matrix(1.00, 0.00, -0.00, -1.00, 198.7, 4.0)">e</text><text xml:space="preserve" font-family="AvenirNext-Regular" font-size="28.2" fill="#FFFFFF" transform="matrix(1.00, 0.00, -0.00, -1.00, 214.8, 4.0)"> </text><text xml:space="preserve" font-family="AvenirNext-Regular" font-size="28.2" fill="#FFFFFF" transform="matrix(1.00, 0.00, -0.00, -1.00, 221.8, 4.0)">u</text><text xml:space="preserve" font-family="AvenirNext-Regular" font-size="28.2" fill="#FFFFFF" transform="matrix(1.00, 0.00, -0.00, -1.00, 238.2, 4.0)">s</text><text xml:space="preserve" font-family="AvenirNext-Regular" font-size="28.2" fill="#FFFFFF" transform="matrix(1.00, 0.00, -0.00, -1.00, 250.7, 4.0)">e</text><text xml:space="preserve" font-family="AvenirNext-Regular" font-size="28.2" fill="#FFFFFF" transform="matrix(1.00, 0.00, -0.00, -1.00, 266.8, 4.0)"> </text><text xml:space="preserve" font-family="AvenirNext-Regular" font-size="28.2" fill="#FFFFFF" transform="matrix(1.00, 0.00, -0.00, -1.00, 273.8, 4.0)">i</text><text xml:space="preserve" font-family="AvenirNext-Regular" font-size="28.2" fill="#FFFFFF" transform="matrix(1.00, 0.00, -0.00, -1.00, 280.9, 4.0)">t</text><text xml:space="preserve" font-family="AvenirNext-Regular" font-size="28.2" fill="#FFFFFF" transform="matrix(1.00, 0.00, -0.00, -1.00, 289.8, 4.0)">?</text></g></svg>