<?xml version="1.0" encoding="UTF-8" standalone="no"?><svg xmlns="http://www.w3.org/2000/svg" xmlns:xlink="http://www.w3.org/1999/xlink" clip-rule="evenodd" stroke-miterlimit="4.00" viewBox="0 0 621 31"><desc>SVG generated by Keynote</desc><defs></defs><g transform="matrix(1.00, 0.00, -0.00, -1.00, 0.0, 31.0)"><text xml:space="preserve" font-family="LucidaGrande" font-size="21.1" fill="#CACACA" transform="matrix(1.00, 0.00, -0.00, -1.00, 0.0, 9.6)">‣</text><text xml:space="preserve" font-family="AvenirNext-Regular" font-size="28.2" fill="#FFFFFF" transform="matrix(1.00, 0.00, -0.00, -1.00, 33.0, 8.0)">M</text><text xml:space="preserve" font-family="AvenirNext-Regular" font-size="28.2" fill="#FFFFFF" transform="matrix(1.00, 0.00, -0.00, -1.00, 57.9, 8.0)">a</text><text xml:space="preserve" font-family="AvenirNext-Regular" font-size="28.2" fill="#FFFFFF" transform="matrix(1.00, 0.00, -0.00, -1.00, 73.0, 8.0)">v</text><text xml:space="preserve" font-family="AvenirNext-Regular" font-size="28.2" fill="#FFFFFF" transform="matrix(1.00, 0.00, -0.00, -1.00, 86.7, 8.0)">e</text><text xml:space="preserve" font-family="AvenirNext-Regular" font-size="28.2" fill="#FFFFFF" transform="matrix(1.00, 0.00, -0.00, -1.00, 102.8, 8.0)">n</text><text xml:space="preserve" font-family="AvenirNext-Regular" font-size="28.2" fill="#FFFFFF" transform="matrix(1.00, 0.00, -0.00, -1.00, 119.2, 8.0)">l</text><text xml:space="preserve" font-family="AvenirNext-Regular" font-size="28.2" fill="#FFFFFF" transform="matrix(1.00, 0.00, -0.00, -1.00, 126.3, 8.0)">i</text><text xml:space="preserve" font-family="AvenirNext-Regular" font-size="28.2" fill="#FFFFFF" transform="matrix(1.00, 0.00, -0.00, -1.00, 133.3, 8.0)">n</text><text xml:space="preserve" font-family="AvenirNext-Regular" font-size="28.2" fill="#FFFFFF" transform="matrix(1.00, 0.00, -0.00, -1.00, 149.7, 8.0)">k</text><text xml:space="preserve" font-family="AvenirNext-Regular" font-size="28.2" fill="#FFFFFF" transform="matrix(1.00, 0.00, -0.00, -1.00, 164.1, 8.0)"> </text><text xml:space="preserve" font-family="AvenirNext-Regular" font-size="28.2" fill="#FFFFFF" transform="matrix(1.00, 0.00, -0.00, -1.00, 171.1, 8.0)">u</text><text xml:space="preserve" font-family="AvenirNext-Regular" font-size="28.2" fill="#FFFFFF" transform="matrix(1.00, 0.00, -0.00, -1.00, 187.5, 8.0)">s</text><text xml:space="preserve" font-family="AvenirNext-Regular" font-size="28.2" fill="#FFFFFF" transform="matrix(1.00, 0.00, -0.00, -1.00, 200.0, 8.0)">e</text><text xml:space="preserve" font-family="AvenirNext-Regular" font-size="28.2" fill="#FFFFFF" transform="matrix(1.00, 0.00, -0.00, -1.00, 216.1, 8.0)">s</text><text xml:space="preserve" font-family="AvenirNext-Regular" font-size="28.2" fill="#FFFFFF" transform="matrix(1.00, 0.00, -0.00, -1.00, 228.6, 8.0)"> </text><text xml:space="preserve" font-family="AvenirNext-Regular" font-size="28.2" fill="#FFFFFF" transform="matrix(1.00, 0.00, -0.00, -1.00, 235.3, 8.0)">W</text><text xml:space="preserve" font-family="AvenirNext-Regular" font-size="28.2" fill="#FFFFFF" transform="matrix(1.00, 0.00, -0.00, -1.00, 261.6, 8.0)">e</text><text xml:space="preserve" font-family="AvenirNext-Regular" font-size="28.2" fill="#FFFFFF" transform="matrix(1.00, 0.00, -0.00, -1.00, 277.7, 8.0)">b</text><text xml:space="preserve" font-family="AvenirNext-Regular" font-size="28.2" fill="#FFFFFF" transform="matrix(1.00, 0.00, -0.00, -1.00, 295.7, 8.0)">p</text><text xml:space="preserve" font-family="AvenirNext-Regular" font-size="28.2" fill="#FFFFFF" transform="matrix(1.00, 0.00, -0.00, -1.00, 313.6, 8.0)">a</text><text xml:space="preserve" font-family="AvenirNext-Regular" font-size="28.2" fill="#FFFFFF" transform="matrix(1.00, 0.00, -0.00, -1.00, 328.6, 8.0)">c</text><text xml:space="preserve" font-family="AvenirNext-Regular" font-size="28.2" fill="#FFFFFF" transform="matrix(1.00, 0.00, -0.00, -1.00, 342.7, 8.0)">k</text><text xml:space="preserve" font-family="AvenirNext-Regular" font-size="28.2" fill="#FFFFFF" transform="matrix(1.00, 0.00, -0.00, -1.00, 357.0, 8.0)"> </text><text xml:space="preserve" font-family="AvenirNext-Regular" font-size="28.2" fill="#FFFFFF" transform="matrix(1.00, 0.00, -0.00, -1.00, 364.1, 8.0)">t</text><text xml:space="preserve" font-family="AvenirNext-Regular" font-size="28.2" fill="#FFFFFF" transform="matrix(1.00, 0.00, -0.00, -1.00, 373.0, 8.0)">o</text><text xml:space="preserve" font-family="AvenirNext-Regular" font-size="28.2" fill="#FFFFFF" transform="matrix(1.00, 0.00, -0.00, -1.00, 390.2, 8.0)"> </text><text xml:space="preserve" font-family="AvenirNext-Regular" font-size="28.2" fill="#FFFFFF" transform="matrix(1.00, 0.00, -0.00, -1.00, 397.2, 8.0)">c</text><text xml:space="preserve" font-family="AvenirNext-Regular" font-size="28.2" fill="#FFFFFF" transform="matrix(1.00, 0.00, -0.00, -1.00, 411.3, 8.0)">o</text><text xml:space="preserve" font-family="AvenirNext-Regular" font-size="28.2" fill="#FFFFFF" transform="matrix(1.00, 0.00, -0.00, -1.00, 428.5, 8.0)">m</text><text xml:space="preserve" font-family="AvenirNext-Regular" font-size="28.2" fill="#FFFFFF" transform="matrix(1.00, 0.00, -0.00, -1.00, 453.4, 8.0)">p</text><text xml:space="preserve" font-family="AvenirNext-Regular" font-size="28.2" fill="#FFFFFF" transform="matrix(1.00, 0.00, -0.00, -1.00, 471.3, 8.0)">i</text><text xml:space="preserve" font-family="AvenirNext-Regular" font-size="28.2" fill="#FFFFFF" transform="matrix(1.00, 0.00, -0.00, -1.00, 478.3, 8.0)">l</text><text xml:space="preserve" font-family="AvenirNext-Regular" font-size="28.2" fill="#FFFFFF" transform="matrix(1.00, 0.00, -0.00, -1.00, 485.4, 8.0)">e</text><text xml:space="preserve" font-family="AvenirNext-Regular" font-size="28.2" fill="#FFFFFF" transform="matrix(1.00, 0.00, -0.00, -1.00, 501.5, 8.0)"> </text><text xml:space="preserve" font-family="AvenirNext-Regular" font-size="28.2" fill="#FFFFFF" transform="matrix(1.00, 0.00, -0.00, -1.00, 508.6, 8.0)">i</text><text xml:space="preserve" font-family="AvenirNext-Regular" font-size="28.2" fill="#FFFFFF" transform="matrix(1.00, 0.00, -0.00, -1.00, 515.6, 8.0)">t</text><text xml:space="preserve" font-family="AvenirNext-Regular" font-size="28.2" fill="#FFFFFF" transform="matrix(1.00, 0.00, -0.00, -1.00, 524.5, 8.0)">s</text><text xml:space="preserve" font-family="AvenirNext-Regular" font-size="28.2" fill="#FFFFFF" transform="matrix(1.00, 0.00, -0.00, -1.00, 537.0, 8.0)"> </text><text xml:space="preserve" font-family="AvenirNext-Regular" font-size="28.2" fill="#FFFFFF" transform="matrix(1.00, 0.00, -0.00, -1.00, 544.1, 8.0)">a</text><text xml:space="preserve" font-family="AvenirNext-Regular" font-size="28.2" fill="#FFFFFF" transform="matrix(1.00, 0.00, -0.00, -1.00, 559.1, 8.0)">s</text><text xml:space="preserve" font-family="AvenirNext-Regular" font-size="28.2" fill="#FFFFFF" transform="matrix(1.00, 0.00, -0.00, -1.00, 571.6, 8.0)">s</text><text xml:space="preserve" font-family="AvenirNext-Regular" font-size="28.2" fill="#FFFFFF" transform="matrix(1.00, 0.00, -0.00, -1.00, 584.1, 8.0)">e</text><text xml:space="preserve" font-family="AvenirNext-Regular" font-size="28.2" fill="#FFFFFF" transform="matrix(1.00, 0.00, -0.00, -1.00, 600.2, 8.0)">t</text><text xml:space="preserve" font-family="AvenirNext-Regular" font-size="28.2" fill="#FFFFFF" transform="matrix(1.00, 0.00, -0.00, -1.00, 609.2, 8.0)">s</text></g></svg>