<?xml version="1.0" encoding="UTF-8" standalone="no"?><svg xmlns="http://www.w3.org/2000/svg" xmlns:xlink="http://www.w3.org/1999/xlink" clip-rule="evenodd" stroke-miterlimit="4.00" viewBox="0 0 95 289"><desc>SVG generated by Keynote</desc><defs></defs><g transform="matrix(1.00, 0.00, -0.00, -1.00, 0.0, 289.0)"><g><clipPath id="clip-3162"><path d="M 1.6 0.9 L 94.6 0.9 L 94.6 211.3 L 1.6 211.3 Z M 1.6 0.9 "></path></clipPath><g clip-path="url(#clip-3162)"><path d="M 0.0 0.0 C 108.2 60.0 115.0 123.3 20.3 190.0 L 17.8 191.7 " fill="none" stroke="#7035CE" stroke-width="6.00" transform="matrix(1.00, 0.00, 0.00, -1.00, 4.0, 207.7)"></path><path d="M 17.7 27.7 L 4.3 4.4 L 30.9 7.6 Z M 17.7 27.7 " fill="#7035CE"></path></g></g><g><clipPath id="clip-3163"><path d="M 0.9 223.1 L 42.0 223.1 L 42.0 288.1 L 0.9 288.1 Z M 0.9 223.1 "></path></clipPath><g clip-path="url(#clip-3163)"><path d="M 0.0 57.4 C 37.1 44.0 44.8 28.9 23.1 12.2 L 20.5 10.7 " fill="none" stroke="#7035CE" stroke-width="6.00" transform="matrix(1.00, 0.00, 0.00, -1.00, 2.9, 284.4)"></path><path d="M 32.1 282.4 L 5.3 284.4 L 19.8 261.8 Z M 32.1 282.4 " fill="#7035CE"></path></g></g></g></svg>