<?xml version="1.0" encoding="UTF-8" standalone="no"?><svg xmlns="http://www.w3.org/2000/svg" xmlns:xlink="http://www.w3.org/1999/xlink" clip-rule="evenodd" stroke-miterlimit="4.00" viewBox="0 0 589 186"><desc>SVG generated by Keynote</desc><defs></defs><g transform="matrix(1.00, 0.00, -0.00, -1.00, 0.0, 186.0)"><path d="M 1.6 184.4 L 587.3 184.4 L 587.3 1.0 L 1.6 1.0 Z M 1.6 184.4 " fill="#DF613B"></path><g><clipPath id="clip-3872"><path d="M -1.9 1.0 L 590.8 1.0 L 590.8 184.4 L -1.9 184.4 Z M -1.9 1.0 "></path></clipPath><g clip-path="url(#clip-3872)"><text xml:space="preserve" font-family="FiraCode-Bold" font-weight="bold" font-size="25.0" fill="#CACACA" transform="matrix(1.00, 0.00, -0.00, -1.00, 21.2, 141.0)">/</text><text xml:space="preserve" font-family="FiraCode-Bold" font-weight="bold" font-size="25.0" fill="#CACACA" transform="matrix(1.00, 0.00, -0.00, -1.00, 36.5, 141.0)">/</text><text xml:space="preserve" font-family="FiraCode-Bold" font-weight="bold" font-size="25.0" fill="#CACACA" transform="matrix(1.00, 0.00, -0.00, -1.00, 51.7, 141.0)"> </text><text xml:space="preserve" font-family="FiraCode-Bold" font-weight="bold" font-size="25.0" fill="#CACACA" transform="matrix(1.00, 0.00, -0.00, -1.00, 67.0, 141.0)">i</text><text xml:space="preserve" font-family="FiraCode-Bold" font-weight="bold" font-size="25.0" fill="#CACACA" transform="matrix(1.00, 0.00, -0.00, -1.00, 82.2, 141.0)">n</text><text xml:space="preserve" font-family="FiraCode-Bold" font-weight="bold" font-size="25.0" fill="#CACACA" transform="matrix(1.00, 0.00, -0.00, -1.00, 97.5, 141.0)">d</text><text xml:space="preserve" font-family="FiraCode-Bold" font-weight="bold" font-size="25.0" fill="#CACACA" transform="matrix(1.00, 0.00, -0.00, -1.00, 112.7, 141.0)">e</text><text xml:space="preserve" font-family="FiraCode-Bold" font-weight="bold" font-size="25.0" fill="#CACACA" transform="matrix(1.00, 0.00, -0.00, -1.00, 128.0, 141.0)">x</text><text xml:space="preserve" font-family="FiraCode-Bold" font-weight="bold" font-size="25.0" fill="#CACACA" transform="matrix(1.00, 0.00, -0.00, -1.00, 143.2, 141.0)">.</text><text xml:space="preserve" font-family="FiraCode-Bold" font-weight="bold" font-size="25.0" fill="#CACACA" transform="matrix(1.00, 0.00, -0.00, -1.00, 158.5, 141.0)">j</text><text xml:space="preserve" font-family="FiraCode-Bold" font-weight="bold" font-size="25.0" fill="#CACACA" transform="matrix(1.00, 0.00, -0.00, -1.00, 173.7, 141.0)">s</text><text xml:space="preserve" font-family="FiraCode-Bold" font-weight="bold" font-size="25.0" fill="#CACACA" transform="matrix(1.00, 0.00, -0.00, -1.00, 189.0, 141.0)"> </text><text xml:space="preserve" font-family="FiraCode-Regular" font-size="25.0" fill="#FFFFFF" transform="matrix(1.00, 0.00, -0.00, -1.00, 6.0, 111.0)">f</text><text xml:space="preserve" font-family="FiraCode-Regular" font-size="25.0" fill="#FFFFFF" transform="matrix(1.00, 0.00, -0.00, -1.00, 21.2, 111.0)">u</text><text xml:space="preserve" font-family="FiraCode-Regular" font-size="25.0" fill="#FFFFFF" transform="matrix(1.00, 0.00, -0.00, -1.00, 36.5, 111.0)">n</text><text xml:space="preserve" font-family="FiraCode-Regular" font-size="25.0" fill="#FFFFFF" transform="matrix(1.00, 0.00, -0.00, -1.00, 51.7, 111.0)">c</text><text xml:space="preserve" font-family="FiraCode-Regular" font-size="25.0" fill="#FFFFFF" transform="matrix(1.00, 0.00, -0.00, -1.00, 67.0, 111.0)">t</text><text xml:space="preserve" font-family="FiraCode-Regular" font-size="25.0" fill="#FFFFFF" transform="matrix(1.00, 0.00, -0.00, -1.00, 82.2, 111.0)">i</text><text xml:space="preserve" font-family="FiraCode-Regular" font-size="25.0" fill="#FFFFFF" transform="matrix(1.00, 0.00, -0.00, -1.00, 97.5, 111.0)">o</text><text xml:space="preserve" font-family="FiraCode-Regular" font-size="25.0" fill="#FFFFFF" transform="matrix(1.00, 0.00, -0.00, -1.00, 112.7, 111.0)">n</text><text xml:space="preserve" font-family="FiraCode-Regular" font-size="25.0" fill="#FFFFFF" transform="matrix(1.00, 0.00, -0.00, -1.00, 128.0, 111.0)">(</text><text xml:space="preserve" font-family="FiraCode-Regular" font-size="25.0" fill="#FFFFFF" transform="matrix(1.00, 0.00, -0.00, -1.00, 143.2, 111.0)">m</text><text xml:space="preserve" font-family="FiraCode-Regular" font-size="25.0" fill="#FFFFFF" transform="matrix(1.00, 0.00, -0.00, -1.00, 158.5, 111.0)">o</text><text xml:space="preserve" font-family="FiraCode-Regular" font-size="25.0" fill="#FFFFFF" transform="matrix(1.00, 0.00, -0.00, -1.00, 173.7, 111.0)">d</text><text xml:space="preserve" font-family="FiraCode-Regular" font-size="25.0" fill="#FFFFFF" transform="matrix(1.00, 0.00, -0.00, -1.00, 189.0, 111.0)">u</text><text xml:space="preserve" font-family="FiraCode-Regular" font-size="25.0" fill="#FFFFFF" transform="matrix(1.00, 0.00, -0.00, -1.00, 204.2, 111.0)">l</text><text xml:space="preserve" font-family="FiraCode-Regular" font-size="25.0" fill="#FFFFFF" transform="matrix(1.00, 0.00, -0.00, -1.00, 219.5, 111.0)">e</text><text xml:space="preserve" font-family="FiraCode-Regular" font-size="25.0" fill="#FFFFFF" transform="matrix(1.00, 0.00, -0.00, -1.00, 234.7, 111.0)">,</text><text xml:space="preserve" font-family="FiraCode-Regular" font-size="25.0" fill="#FFFFFF" transform="matrix(1.00, 0.00, -0.00, -1.00, 250.0, 111.0)"> </text><text xml:space="preserve" font-family="FiraCode-Regular" font-size="25.0" fill="#FFFFFF" transform="matrix(1.00, 0.00, -0.00, -1.00, 265.2, 111.0)">w</text><text xml:space="preserve" font-family="FiraCode-Regular" font-size="25.0" fill="#FFFFFF" transform="matrix(1.00, 0.00, -0.00, -1.00, 280.5, 111.0)">e</text><text xml:space="preserve" font-family="FiraCode-Regular" font-size="25.0" fill="#FFFFFF" transform="matrix(1.00, 0.00, -0.00, -1.00, 295.7, 111.0)">b</text><text xml:space="preserve" font-family="FiraCode-Regular" font-size="25.0" fill="#FFFFFF" transform="matrix(1.00, 0.00, -0.00, -1.00, 311.0, 111.0)">p</text><text xml:space="preserve" font-family="FiraCode-Regular" font-size="25.0" fill="#FFFFFF" transform="matrix(1.00, 0.00, -0.00, -1.00, 326.2, 111.0)">a</text><text xml:space="preserve" font-family="FiraCode-Regular" font-size="25.0" fill="#FFFFFF" transform="matrix(1.00, 0.00, -0.00, -1.00, 341.5, 111.0)">c</text><text xml:space="preserve" font-family="FiraCode-Regular" font-size="25.0" fill="#FFFFFF" transform="matrix(1.00, 0.00, -0.00, -1.00, 356.7, 111.0)">k</text><text xml:space="preserve" font-family="FiraCode-Regular" font-size="25.0" fill="#FFFFFF" transform="matrix(1.00, 0.00, -0.00, -1.00, 372.0, 111.0)">R</text><text xml:space="preserve" font-family="FiraCode-Regular" font-size="25.0" fill="#FFFFFF" transform="matrix(1.00, 0.00, -0.00, -1.00, 387.2, 111.0)">e</text><text xml:space="preserve" font-family="FiraCode-Regular" font-size="25.0" fill="#FFFFFF" transform="matrix(1.00, 0.00, -0.00, -1.00, 402.5, 111.0)">q</text><text xml:space="preserve" font-family="FiraCode-Regular" font-size="25.0" fill="#FFFFFF" transform="matrix(1.00, 0.00, -0.00, -1.00, 417.7, 111.0)">u</text><text xml:space="preserve" font-family="FiraCode-Regular" font-size="25.0" fill="#FFFFFF" transform="matrix(1.00, 0.00, -0.00, -1.00, 433.0, 111.0)">i</text><text xml:space="preserve" font-family="FiraCode-Regular" font-size="25.0" fill="#FFFFFF" transform="matrix(1.00, 0.00, -0.00, -1.00, 448.2, 111.0)">r</text><text xml:space="preserve" font-family="FiraCode-Regular" font-size="25.0" fill="#FFFFFF" transform="matrix(1.00, 0.00, -0.00, -1.00, 463.5, 111.0)">e</text><text xml:space="preserve" font-family="FiraCode-Regular" font-size="25.0" fill="#FFFFFF" transform="matrix(1.00, 0.00, -0.00, -1.00, 478.7, 111.0)">)</text><text xml:space="preserve" font-family="FiraCode-Regular" font-size="25.0" fill="#FFFFFF" transform="matrix(1.00, 0.00, -0.00, -1.00, 494.0, 111.0)"> </text><text xml:space="preserve" font-family="FiraCode-Regular" font-size="25.0" fill="#FFFFFF" transform="matrix(1.00, 0.00, -0.00, -1.00, 509.2, 111.0)">{</text><text xml:space="preserve" font-family="FiraCode-Regular" font-size="25.0" fill="#FFFFFF" transform="matrix(1.00, 0.00, -0.00, -1.00, 524.5, 111.0)"> </text><text xml:space="preserve" font-family="FiraCode-Regular" font-size="25.0" fill="#FFFFFF" transform="matrix(1.00, 0.00, -0.00, -1.00, 6.0, 81.0)"> </text><text xml:space="preserve" font-family="FiraCode-Regular" font-size="25.0" fill="#FFFFFF" transform="matrix(1.00, 0.00, -0.00, -1.00, 21.2, 81.0)"> </text><text xml:space="preserve" font-family="FiraCode-Regular" font-size="25.0" fill="#FFFFFF" transform="matrix(1.00, 0.00, -0.00, -1.00, 36.5, 81.0)">v</text><text xml:space="preserve" font-family="FiraCode-Regular" font-size="25.0" fill="#FFFFFF" transform="matrix(1.00, 0.00, -0.00, -1.00, 51.7, 81.0)">a</text><text xml:space="preserve" font-family="FiraCode-Regular" font-size="25.0" fill="#FFFFFF" transform="matrix(1.00, 0.00, -0.00, -1.00, 67.0, 81.0)">r</text><text xml:space="preserve" font-family="FiraCode-Regular" font-size="25.0" fill="#FFFFFF" transform="matrix(1.00, 0.00, -0.00, -1.00, 82.2, 81.0)"> </text><text xml:space="preserve" font-family="FiraCode-Regular" font-size="25.0" fill="#FFFFFF" transform="matrix(1.00, 0.00, -0.00, -1.00, 97.5, 81.0)">h</text><text xml:space="preserve" font-family="FiraCode-Regular" font-size="25.0" fill="#FFFFFF" transform="matrix(1.00, 0.00, -0.00, -1.00, 112.7, 81.0)">y</text><text xml:space="preserve" font-family="FiraCode-Regular" font-size="25.0" fill="#FFFFFF" transform="matrix(1.00, 0.00, -0.00, -1.00, 128.0, 81.0)">p</text><text xml:space="preserve" font-family="FiraCode-Regular" font-size="25.0" fill="#FFFFFF" transform="matrix(1.00, 0.00, -0.00, -1.00, 143.2, 81.0)">o</text><text xml:space="preserve" font-family="FiraCode-Regular" font-size="25.0" fill="#FFFFFF" transform="matrix(1.00, 0.00, -0.00, -1.00, 158.5, 81.0)">t</text><text xml:space="preserve" font-family="FiraCode-Regular" font-size="25.0" fill="#FFFFFF" transform="matrix(1.00, 0.00, -0.00, -1.00, 173.7, 81.0)">e</text><text xml:space="preserve" font-family="FiraCode-Regular" font-size="25.0" fill="#FFFFFF" transform="matrix(1.00, 0.00, -0.00, -1.00, 189.0, 81.0)">n</text><text xml:space="preserve" font-family="FiraCode-Regular" font-size="25.0" fill="#FFFFFF" transform="matrix(1.00, 0.00, -0.00, -1.00, 204.2, 81.0)">u</text><text xml:space="preserve" font-family="FiraCode-Regular" font-size="25.0" fill="#FFFFFF" transform="matrix(1.00, 0.00, -0.00, -1.00, 219.5, 81.0)">s</text><text xml:space="preserve" font-family="FiraCode-Regular" font-size="25.0" fill="#FFFFFF" transform="matrix(1.00, 0.00, -0.00, -1.00, 234.7, 81.0)">e</text><text xml:space="preserve" font-family="FiraCode-Regular" font-size="25.0" fill="#FFFFFF" transform="matrix(1.00, 0.00, -0.00, -1.00, 250.0, 81.0)"> </text><text xml:space="preserve" font-family="FiraCode-Regular" font-size="25.0" fill="#FFFFFF" transform="matrix(1.00, 0.00, -0.00, -1.00, 265.2, 81.0)">=</text><text xml:space="preserve" font-family="FiraCode-Regular" font-size="25.0" fill="#FFFFFF" transform="matrix(1.00, 0.00, -0.00, -1.00, 280.5, 81.0)"> </text><text xml:space="preserve" font-family="FiraCode-Regular" font-size="25.0" fill="#FFFFFF" transform="matrix(1.00, 0.00, -0.00, -1.00, 295.7, 81.0)">w</text><text xml:space="preserve" font-family="FiraCode-Regular" font-size="25.0" fill="#FFFFFF" transform="matrix(1.00, 0.00, -0.00, -1.00, 311.0, 81.0)">e</text><text xml:space="preserve" font-family="FiraCode-Regular" font-size="25.0" fill="#FFFFFF" transform="matrix(1.00, 0.00, -0.00, -1.00, 326.2, 81.0)">b</text><text xml:space="preserve" font-family="FiraCode-Regular" font-size="25.0" fill="#FFFFFF" transform="matrix(1.00, 0.00, -0.00, -1.00, 341.5, 81.0)">p</text><text xml:space="preserve" font-family="FiraCode-Regular" font-size="25.0" fill="#FFFFFF" transform="matrix(1.00, 0.00, -0.00, -1.00, 356.7, 81.0)">a</text><text xml:space="preserve" font-family="FiraCode-Regular" font-size="25.0" fill="#FFFFFF" transform="matrix(1.00, 0.00, -0.00, -1.00, 372.0, 81.0)">c</text><text xml:space="preserve" font-family="FiraCode-Regular" font-size="25.0" fill="#FFFFFF" transform="matrix(1.00, 0.00, -0.00, -1.00, 387.2, 81.0)">k</text><text xml:space="preserve" font-family="FiraCode-Regular" font-size="25.0" fill="#FFFFFF" transform="matrix(1.00, 0.00, -0.00, -1.00, 402.5, 81.0)">R</text><text xml:space="preserve" font-family="FiraCode-Regular" font-size="25.0" fill="#FFFFFF" transform="matrix(1.00, 0.00, -0.00, -1.00, 417.7, 81.0)">e</text><text xml:space="preserve" font-family="FiraCode-Regular" font-size="25.0" fill="#FFFFFF" transform="matrix(1.00, 0.00, -0.00, -1.00, 433.0, 81.0)">q</text><text xml:space="preserve" font-family="FiraCode-Regular" font-size="25.0" fill="#FFFFFF" transform="matrix(1.00, 0.00, -0.00, -1.00, 448.2, 81.0)">u</text><text xml:space="preserve" font-family="FiraCode-Regular" font-size="25.0" fill="#FFFFFF" transform="matrix(1.00, 0.00, -0.00, -1.00, 463.5, 81.0)">i</text><text xml:space="preserve" font-family="FiraCode-Regular" font-size="25.0" fill="#FFFFFF" transform="matrix(1.00, 0.00, -0.00, -1.00, 478.7, 81.0)">r</text><text xml:space="preserve" font-family="FiraCode-Regular" font-size="25.0" fill="#FFFFFF" transform="matrix(1.00, 0.00, -0.00, -1.00, 494.0, 81.0)">e</text><text xml:space="preserve" font-family="FiraCode-Regular" font-size="25.0" fill="#FFFFFF" transform="matrix(1.00, 0.00, -0.00, -1.00, 509.2, 81.0)">(</text><text xml:space="preserve" font-family="FiraCode-Regular" font-size="25.0" fill="#FFFFFF" transform="matrix(1.00, 0.00, -0.00, -1.00, 524.5, 81.0)">1</text><text xml:space="preserve" font-family="FiraCode-Regular" font-size="25.0" fill="#FFFFFF" transform="matrix(1.00, 0.00, -0.00, -1.00, 539.7, 81.0)">)</text><text xml:space="preserve" font-family="FiraCode-Regular" font-size="25.0" fill="#FFFFFF" transform="matrix(1.00, 0.00, -0.00, -1.00, 555.0, 81.0)">;</text><text xml:space="preserve" font-family="FiraCode-Regular" font-size="25.0" fill="#FFFFFF" transform="matrix(1.00, 0.00, -0.00, -1.00, 570.2, 81.0)"> </text><text xml:space="preserve" font-family="FiraCode-Regular" font-size="25.0" fill="#FFFFFF" transform="matrix(1.00, 0.00, -0.00, -1.00, 6.0, 51.0)"> </text><text xml:space="preserve" font-family="FiraCode-Regular" font-size="25.0" fill="#FFFFFF" transform="matrix(1.00, 0.00, -0.00, -1.00, 21.2, 51.0)"> </text><text xml:space="preserve" font-family="FiraCode-Regular" font-size="25.0" fill="#FFFFFF" transform="matrix(1.00, 0.00, -0.00, -1.00, 36.5, 51.0)">c</text><text xml:space="preserve" font-family="FiraCode-Regular" font-size="25.0" fill="#FFFFFF" transform="matrix(1.00, 0.00, -0.00, -1.00, 51.7, 51.0)">o</text><text xml:space="preserve" font-family="FiraCode-Regular" font-size="25.0" fill="#FFFFFF" transform="matrix(1.00, 0.00, -0.00, -1.00, 67.0, 51.0)">n</text><text xml:space="preserve" font-family="FiraCode-Regular" font-size="25.0" fill="#FFFFFF" transform="matrix(1.00, 0.00, -0.00, -1.00, 82.2, 51.0)">s</text><text xml:space="preserve" font-family="FiraCode-Regular" font-size="25.0" fill="#FFFFFF" transform="matrix(1.00, 0.00, -0.00, -1.00, 97.5, 51.0)">o</text><text xml:space="preserve" font-family="FiraCode-Regular" font-size="25.0" fill="#FFFFFF" transform="matrix(1.00, 0.00, -0.00, -1.00, 112.7, 51.0)">l</text><text xml:space="preserve" font-family="FiraCode-Regular" font-size="25.0" fill="#FFFFFF" transform="matrix(1.00, 0.00, -0.00, -1.00, 128.0, 51.0)">e</text><text xml:space="preserve" font-family="FiraCode-Regular" font-size="25.0" fill="#FFFFFF" transform="matrix(1.00, 0.00, -0.00, -1.00, 143.2, 51.0)">.</text><text xml:space="preserve" font-family="FiraCode-Regular" font-size="25.0" fill="#FFFFFF" transform="matrix(1.00, 0.00, -0.00, -1.00, 158.5, 51.0)">l</text><text xml:space="preserve" font-family="FiraCode-Regular" font-size="25.0" fill="#FFFFFF" transform="matrix(1.00, 0.00, -0.00, -1.00, 173.7, 51.0)">o</text><text xml:space="preserve" font-family="FiraCode-Regular" font-size="25.0" fill="#FFFFFF" transform="matrix(1.00, 0.00, -0.00, -1.00, 189.0, 51.0)">g</text><text xml:space="preserve" font-family="FiraCode-Regular" font-size="25.0" fill="#FFFFFF" transform="matrix(1.00, 0.00, -0.00, -1.00, 204.2, 51.0)">(</text><text xml:space="preserve" font-family="FiraCode-Regular" font-size="25.0" fill="#FFFFFF" transform="matrix(1.00, 0.00, -0.00, -1.00, 219.5, 51.0)">h</text><text xml:space="preserve" font-family="FiraCode-Regular" font-size="25.0" fill="#FFFFFF" transform="matrix(1.00, 0.00, -0.00, -1.00, 234.7, 51.0)">y</text><text xml:space="preserve" font-family="FiraCode-Regular" font-size="25.0" fill="#FFFFFF" transform="matrix(1.00, 0.00, -0.00, -1.00, 250.0, 51.0)">p</text><text xml:space="preserve" font-family="FiraCode-Regular" font-size="25.0" fill="#FFFFFF" transform="matrix(1.00, 0.00, -0.00, -1.00, 265.2, 51.0)">o</text><text xml:space="preserve" font-family="FiraCode-Regular" font-size="25.0" fill="#FFFFFF" transform="matrix(1.00, 0.00, -0.00, -1.00, 280.5, 51.0)">t</text><text xml:space="preserve" font-family="FiraCode-Regular" font-size="25.0" fill="#FFFFFF" transform="matrix(1.00, 0.00, -0.00, -1.00, 295.7, 51.0)">e</text><text xml:space="preserve" font-family="FiraCode-Regular" font-size="25.0" fill="#FFFFFF" transform="matrix(1.00, 0.00, -0.00, -1.00, 311.0, 51.0)">n</text><text xml:space="preserve" font-family="FiraCode-Regular" font-size="25.0" fill="#FFFFFF" transform="matrix(1.00, 0.00, -0.00, -1.00, 326.2, 51.0)">u</text><text xml:space="preserve" font-family="FiraCode-Regular" font-size="25.0" fill="#FFFFFF" transform="matrix(1.00, 0.00, -0.00, -1.00, 341.5, 51.0)">s</text><text xml:space="preserve" font-family="FiraCode-Regular" font-size="25.0" fill="#FFFFFF" transform="matrix(1.00, 0.00, -0.00, -1.00, 356.7, 51.0)">e</text><text xml:space="preserve" font-family="FiraCode-Regular" font-size="25.0" fill="#FFFFFF" transform="matrix(1.00, 0.00, -0.00, -1.00, 372.0, 51.0)">(</text><text xml:space="preserve" font-family="FiraCode-Regular" font-size="25.0" fill="#FFFFFF" transform="matrix(1.00, 0.00, -0.00, -1.00, 387.2, 51.0)">3</text><text xml:space="preserve" font-family="FiraCode-Regular" font-size="25.0" fill="#FFFFFF" transform="matrix(1.00, 0.00, -0.00, -1.00, 402.5, 51.0)">,</text><text xml:space="preserve" font-family="FiraCode-Regular" font-size="25.0" fill="#FFFFFF" transform="matrix(1.00, 0.00, -0.00, -1.00, 417.7, 51.0)"> </text><text xml:space="preserve" font-family="FiraCode-Regular" font-size="25.0" fill="#FFFFFF" transform="matrix(1.00, 0.00, -0.00, -1.00, 433.0, 51.0)">4</text><text xml:space="preserve" font-family="FiraCode-Regular" font-size="25.0" fill="#FFFFFF" transform="matrix(1.00, 0.00, -0.00, -1.00, 448.2, 51.0)">)</text><text xml:space="preserve" font-family="FiraCode-Regular" font-size="25.0" fill="#FFFFFF" transform="matrix(1.00, 0.00, -0.00, -1.00, 463.5, 51.0)">;</text><text xml:space="preserve" font-family="FiraCode-Regular" font-size="25.0" fill="#FFFFFF" transform="matrix(1.00, 0.00, -0.00, -1.00, 478.7, 51.0)"> </text><text xml:space="preserve" font-family="FiraCode-Regular" font-size="25.0" fill="#FFFFFF" transform="matrix(1.00, 0.00, -0.00, -1.00, 6.0, 21.0)">}</text></g></g></g></svg>