<?xml version="1.0" encoding="UTF-8" standalone="no"?><svg xmlns="http://www.w3.org/2000/svg" xmlns:xlink="http://www.w3.org/1999/xlink" clip-rule="evenodd" stroke-miterlimit="4.00" viewBox="0 0 561 43"><desc>SVG generated by Keynote</desc><defs></defs><g transform="matrix(1.00, 0.00, -0.00, -1.00, 0.0, 43.0)"><g><clipPath id="clip-4185"><path d="M 0.0 0.0 L 561.0 0.0 L 561.0 41.0 L 0.0 41.0 Z M 0.0 0.0 "></path></clipPath><g clip-path="url(#clip-4185)"><text xml:space="preserve" font-family="DINCondensed-Bold" font-weight="bold" font-size="54.8" fill="#DE7D67" transform="matrix(1.00, 0.00, -0.00, -1.00, -1.0, 2.0)">H</text><text xml:space="preserve" font-family="DINCondensed-Bold" font-weight="bold" font-size="54.8" fill="#DE7D67" transform="matrix(1.00, 0.00, -0.00, -1.00, 22.3, 2.0)">O</text><text xml:space="preserve" font-family="DINCondensed-Bold" font-weight="bold" font-size="54.8" fill="#DE7D67" transform="matrix(1.00, 0.00, -0.00, -1.00, 45.0, 2.0)">W</text><text xml:space="preserve" font-family="DINCondensed-Bold" font-weight="bold" font-size="54.8" fill="#DE7D67" transform="matrix(1.00, 0.00, -0.00, -1.00, 77.5, 2.0)"> </text><text xml:space="preserve" font-family="DINCondensed-Bold" font-weight="bold" font-size="54.8" fill="#DE7D67" transform="matrix(1.00, 0.00, -0.00, -1.00, 87.7, 2.0)">W</text><text xml:space="preserve" font-family="DINCondensed-Bold" font-weight="bold" font-size="54.8" fill="#DE7D67" transform="matrix(1.00, 0.00, -0.00, -1.00, 120.2, 2.0)">E</text><text xml:space="preserve" font-family="DINCondensed-Bold" font-weight="bold" font-size="54.8" fill="#DE7D67" transform="matrix(1.00, 0.00, -0.00, -1.00, 140.5, 2.0)">B</text><text xml:space="preserve" font-family="DINCondensed-Bold" font-weight="bold" font-size="54.8" fill="#DE7D67" transform="matrix(1.00, 0.00, -0.00, -1.00, 163.8, 2.0)">P</text><text xml:space="preserve" font-family="DINCondensed-Bold" font-weight="bold" font-size="54.8" fill="#DE7D67" transform="matrix(1.00, 0.00, -0.00, -1.00, 184.1, 2.0)">A</text><text xml:space="preserve" font-family="DINCondensed-Bold" font-weight="bold" font-size="54.8" fill="#DE7D67" transform="matrix(1.00, 0.00, -0.00, -1.00, 206.4, 2.0)">C</text><text xml:space="preserve" font-family="DINCondensed-Bold" font-weight="bold" font-size="54.8" fill="#DE7D67" transform="matrix(1.00, 0.00, -0.00, -1.00, 228.7, 2.0)">K</text><text xml:space="preserve" font-family="DINCondensed-Bold" font-weight="bold" font-size="54.8" fill="#DE7D67" transform="matrix(1.00, 0.00, -0.00, -1.00, 252.1, 2.0)"> </text><text xml:space="preserve" font-family="DINCondensed-Bold" font-weight="bold" font-size="54.8" fill="#DE7D67" transform="matrix(1.00, 0.00, -0.00, -1.00, 262.3, 2.0)">A</text><text xml:space="preserve" font-family="DINCondensed-Bold" font-weight="bold" font-size="54.8" fill="#DE7D67" transform="matrix(1.00, 0.00, -0.00, -1.00, 284.6, 2.0)">C</text><text xml:space="preserve" font-family="DINCondensed-Bold" font-weight="bold" font-size="54.8" fill="#DE7D67" transform="matrix(1.00, 0.00, -0.00, -1.00, 306.9, 2.0)">T</text><text xml:space="preserve" font-family="DINCondensed-Bold" font-weight="bold" font-size="54.8" fill="#DE7D67" transform="matrix(1.00, 0.00, -0.00, -1.00, 325.1, 2.0)">U</text><text xml:space="preserve" font-family="DINCondensed-Bold" font-weight="bold" font-size="54.8" fill="#DE7D67" transform="matrix(1.00, 0.00, -0.00, -1.00, 347.7, 2.0)">A</text><text xml:space="preserve" font-family="DINCondensed-Bold" font-weight="bold" font-size="54.8" fill="#DE7D67" transform="matrix(1.00, 0.00, -0.00, -1.00, 370.1, 2.0)">L</text><text xml:space="preserve" font-family="DINCondensed-Bold" font-weight="bold" font-size="54.8" fill="#DE7D67" transform="matrix(1.00, 0.00, -0.00, -1.00, 390.3, 2.0)">L</text><text xml:space="preserve" font-family="DINCondensed-Bold" font-weight="bold" font-size="54.8" fill="#DE7D67" transform="matrix(1.00, 0.00, -0.00, -1.00, 405.6, 2.0)">Y</text><text xml:space="preserve" font-family="DINCondensed-Bold" font-weight="bold" font-size="54.8" fill="#DE7D67" transform="matrix(1.00, 0.00, -0.00, -1.00, 426.8, 2.0)"> </text><text xml:space="preserve" font-family="DINCondensed-Bold" font-weight="bold" font-size="54.8" fill="#DE7D67" transform="matrix(1.00, 0.00, -0.00, -1.00, 437.0, 2.0)">W</text><text xml:space="preserve" font-family="DINCondensed-Bold" font-weight="bold" font-size="54.8" fill="#DE7D67" transform="matrix(1.00, 0.00, -0.00, -1.00, 468.9, 2.0)">O</text><text xml:space="preserve" font-family="DINCondensed-Bold" font-weight="bold" font-size="54.8" fill="#DE7D67" transform="matrix(1.00, 0.00, -0.00, -1.00, 492.2, 2.0)">R</text><text xml:space="preserve" font-family="DINCondensed-Bold" font-weight="bold" font-size="54.8" fill="#DE7D67" transform="matrix(1.00, 0.00, -0.00, -1.00, 515.5, 2.0)">K</text><text xml:space="preserve" font-family="DINCondensed-Bold" font-weight="bold" font-size="54.8" fill="#DE7D67" transform="matrix(1.00, 0.00, -0.00, -1.00, 538.9, 2.0)">S</text></g></g></g></svg>