<?xml version="1.0" encoding="UTF-8" standalone="no"?><svg xmlns="http://www.w3.org/2000/svg" xmlns:xlink="http://www.w3.org/1999/xlink" clip-rule="evenodd" stroke-miterlimit="4.00" viewBox="0 0 1024 768"><desc>SVG generated by Keynote</desc><defs></defs><g transform="matrix(1.00, 0.00, -0.00, -1.00, 0.0, 768.0)"><path d="M 0.0 768.0 L 1024.0 768.0 L 1024.0 0.0 L 0.0 0.0 Z M 0.0 768.0 " fill="#181818"></path><path d="M 0.0 0.0 L 934.0 0.0 " fill="none" stroke="#747676" stroke-width="3.00" stroke-linecap="round" stroke-linejoin="round" stroke-dasharray="0.0, 9.0" transform="matrix(1.00, 0.00, 0.00, -1.00, 45.0, 644.0)"></path><g><clipPath id="clip-92"><path d="M 35.3 658.0 L 988.7 658.0 L 988.7 707.0 L 35.3 707.0 Z M 35.3 658.0 "></path></clipPath><g clip-path="url(#clip-92)"><text xml:space="preserve" font-family="DINCondensed-Bold" font-weight="bold" font-size="54.8" fill="#DE7D67" transform="matrix(1.00, 0.00, -0.00, -1.00, 49.0, 668.0)">W</text><text xml:space="preserve" font-family="DINCondensed-Bold" font-weight="bold" font-size="54.8" fill="#DE7D67" transform="matrix(1.00, 0.00, -0.00, -1.00, 81.5, 668.0)">H</text><text xml:space="preserve" font-family="DINCondensed-Bold" font-weight="bold" font-size="54.8" fill="#DE7D67" transform="matrix(1.00, 0.00, -0.00, -1.00, 104.8, 668.0)">A</text><text xml:space="preserve" font-family="DINCondensed-Bold" font-weight="bold" font-size="54.8" fill="#DE7D67" transform="matrix(1.00, 0.00, -0.00, -1.00, 124.1, 668.0)">T</text><text xml:space="preserve" font-family="DINCondensed-Bold" font-weight="bold" font-size="54.8" fill="#DE7D67" transform="matrix(1.00, 0.00, -0.00, -1.00, 142.3, 668.0)"> </text><text xml:space="preserve" font-family="DINCondensed-Bold" font-weight="bold" font-size="54.8" fill="#DE7D67" transform="matrix(1.00, 0.00, -0.00, -1.00, 152.5, 668.0)">I</text><text xml:space="preserve" font-family="DINCondensed-Bold" font-weight="bold" font-size="54.8" fill="#DE7D67" transform="matrix(1.00, 0.00, -0.00, -1.00, 163.7, 668.0)">S</text><text xml:space="preserve" font-family="DINCondensed-Bold" font-weight="bold" font-size="54.8" fill="#DE7D67" transform="matrix(1.00, 0.00, -0.00, -1.00, 185.9, 668.0)"> </text><text xml:space="preserve" font-family="DINCondensed-Bold" font-weight="bold" font-size="54.8" fill="#DE7D67" transform="matrix(1.00, 0.00, -0.00, -1.00, 196.1, 668.0)">W</text><text xml:space="preserve" font-family="DINCondensed-Bold" font-weight="bold" font-size="54.8" fill="#DE7D67" transform="matrix(1.00, 0.00, -0.00, -1.00, 228.6, 668.0)">E</text><text xml:space="preserve" font-family="DINCondensed-Bold" font-weight="bold" font-size="54.8" fill="#DE7D67" transform="matrix(1.00, 0.00, -0.00, -1.00, 248.9, 668.0)">B</text><text xml:space="preserve" font-family="DINCondensed-Bold" font-weight="bold" font-size="54.8" fill="#DE7D67" transform="matrix(1.00, 0.00, -0.00, -1.00, 272.3, 668.0)">P</text><text xml:space="preserve" font-family="DINCondensed-Bold" font-weight="bold" font-size="54.8" fill="#DE7D67" transform="matrix(1.00, 0.00, -0.00, -1.00, 292.5, 668.0)">A</text><text xml:space="preserve" font-family="DINCondensed-Bold" font-weight="bold" font-size="54.8" fill="#DE7D67" transform="matrix(1.00, 0.00, -0.00, -1.00, 314.8, 668.0)">C</text><text xml:space="preserve" font-family="DINCondensed-Bold" font-weight="bold" font-size="54.8" fill="#DE7D67" transform="matrix(1.00, 0.00, -0.00, -1.00, 337.1, 668.0)">K</text><text xml:space="preserve" font-family="DINCondensed-Bold" font-weight="bold" font-size="54.8" fill="#DE7D67" transform="matrix(1.00, 0.00, -0.00, -1.00, 360.5, 668.0)">?</text></g></g><text xml:space="preserve" font-family="AvenirNext-DemiBold" font-weight="bold" font-size="51.0" fill="#DE7D67" transform="matrix(1.00, 0.00, -0.00, -1.00, 138.0, 521.0)">S</text><text xml:space="preserve" font-family="AvenirNext-DemiBold" font-weight="bold" font-size="51.0" fill="#DE7D67" transform="matrix(1.00, 0.00, -0.00, -1.00, 167.5, 521.0)">t</text><text xml:space="preserve" font-family="AvenirNext-DemiBold" font-weight="bold" font-size="51.0" fill="#DE7D67" transform="matrix(1.00, 0.00, -0.00, -1.00, 185.3, 521.0)">u</text><text xml:space="preserve" font-family="AvenirNext-DemiBold" font-weight="bold" font-size="51.0" fill="#DE7D67" transform="matrix(1.00, 0.00, -0.00, -1.00, 215.5, 521.0)">f</text><text xml:space="preserve" font-family="AvenirNext-DemiBold" font-weight="bold" font-size="51.0" fill="#DE7D67" transform="matrix(1.00, 0.00, -0.00, -1.00, 231.5, 521.0)">f</text><text xml:space="preserve" font-family="AvenirNext-DemiBold" font-weight="bold" font-size="51.0" fill="#DE7D67" transform="matrix(1.00, 0.00, -0.00, -1.00, 249.7, 521.0)"> </text><text xml:space="preserve" font-family="AvenirNext-DemiBold" font-weight="bold" font-size="51.0" fill="#DE7D67" transform="matrix(1.00, 0.00, -0.00, -1.00, 263.0, 521.0)">t</text><text xml:space="preserve" font-family="AvenirNext-DemiBold" font-weight="bold" font-size="51.0" fill="#DE7D67" transform="matrix(1.00, 0.00, -0.00, -1.00, 280.9, 521.0)">h</text><text xml:space="preserve" font-family="AvenirNext-DemiBold" font-weight="bold" font-size="51.0" fill="#DE7D67" transform="matrix(1.00, 0.00, -0.00, -1.00, 311.1, 521.0)">a</text><text xml:space="preserve" font-family="AvenirNext-DemiBold" font-weight="bold" font-size="51.0" fill="#DE7D67" transform="matrix(1.00, 0.00, -0.00, -1.00, 339.2, 521.0)">t</text><text xml:space="preserve" font-family="AvenirNext-DemiBold" font-weight="bold" font-size="51.0" fill="#DE7D67" transform="matrix(1.00, 0.00, -0.00, -1.00, 357.0, 521.0)"> </text><text xml:space="preserve" font-family="AvenirNext-DemiBold" font-weight="bold" font-size="51.0" fill="#DE7D67" transform="matrix(1.00, 0.00, -0.00, -1.00, 370.3, 521.0)">i</text><text xml:space="preserve" font-family="AvenirNext-DemiBold" font-weight="bold" font-size="51.0" fill="#DE7D67" transform="matrix(1.00, 0.00, -0.00, -1.00, 384.5, 521.0)">s</text><text xml:space="preserve" font-family="AvenirNext-DemiBold" font-weight="bold" font-size="51.0" fill="#DE7D67" transform="matrix(1.00, 0.00, -0.00, -1.00, 407.6, 521.0)"> </text><text xml:space="preserve" font-family="AvenirNext-DemiBold" font-weight="bold" font-size="51.0" fill="#DE7D67" transform="matrix(1.00, 0.00, -0.00, -1.00, 420.9, 521.0)">n</text><text xml:space="preserve" font-family="AvenirNext-DemiBold" font-weight="bold" font-size="51.0" fill="#DE7D67" transform="matrix(1.00, 0.00, -0.00, -1.00, 451.1, 521.0)">i</text><text xml:space="preserve" font-family="AvenirNext-DemiBold" font-weight="bold" font-size="51.0" fill="#DE7D67" transform="matrix(1.00, 0.00, -0.00, -1.00, 465.3, 521.0)">c</text><text xml:space="preserve" font-family="AvenirNext-DemiBold" font-weight="bold" font-size="51.0" fill="#DE7D67" transform="matrix(1.00, 0.00, -0.00, -1.00, 490.7, 521.0)">e</text><text xml:space="preserve" font-family="AvenirNext-DemiBold" font-weight="bold" font-size="51.0" fill="#DE7D67" transform="matrix(1.00, 0.00, -0.00, -1.00, 520.4, 521.0)"> </text><text xml:space="preserve" font-family="AvenirNext-DemiBold" font-weight="bold" font-size="51.0" fill="#DE7D67" transform="matrix(1.00, 0.00, -0.00, -1.00, 533.7, 521.0)">f</text><text xml:space="preserve" font-family="AvenirNext-DemiBold" font-weight="bold" font-size="51.0" fill="#DE7D67" transform="matrix(1.00, 0.00, -0.00, -1.00, 550.7, 521.0)">o</text><text xml:space="preserve" font-family="AvenirNext-DemiBold" font-weight="bold" font-size="51.0" fill="#DE7D67" transform="matrix(1.00, 0.00, -0.00, -1.00, 582.4, 521.0)">r</text><text xml:space="preserve" font-family="AvenirNext-DemiBold" font-weight="bold" font-size="51.0" fill="#DE7D67" transform="matrix(1.00, 0.00, -0.00, -1.00, 601.4, 521.0)"> </text><text xml:space="preserve" font-family="AvenirNext-DemiBold" font-weight="bold" font-size="51.0" fill="#DE7D67" transform="matrix(1.00, 0.00, -0.00, -1.00, 614.7, 521.0)">y</text><text xml:space="preserve" font-family="AvenirNext-DemiBold" font-weight="bold" font-size="51.0" fill="#DE7D67" transform="matrix(1.00, 0.00, -0.00, -1.00, 641.4, 521.0)">o</text><text xml:space="preserve" font-family="AvenirNext-DemiBold" font-weight="bold" font-size="51.0" fill="#DE7D67" transform="matrix(1.00, 0.00, -0.00, -1.00, 673.0, 521.0)">u</text><text xml:space="preserve" font-family="AvenirNext-DemiBold" font-weight="bold" font-size="51.0" fill="#DE7D67" transform="matrix(1.00, 0.00, -0.00, -1.00, 703.2, 521.0)"> </text><text xml:space="preserve" font-family="AvenirNext-DemiBold" font-weight="bold" font-size="51.0" fill="#DE7D67" transform="matrix(1.00, 0.00, -0.00, -1.00, 716.4, 521.0)">t</text><text xml:space="preserve" font-family="AvenirNext-DemiBold" font-weight="bold" font-size="51.0" fill="#DE7D67" transform="matrix(1.00, 0.00, -0.00, -1.00, 734.3, 521.0)">o</text><text xml:space="preserve" font-family="AvenirNext-DemiBold" font-weight="bold" font-size="51.0" fill="#DE7D67" transform="matrix(1.00, 0.00, -0.00, -1.00, 765.9, 521.0)"> </text><text xml:space="preserve" font-family="AvenirNext-DemiBold" font-weight="bold" font-size="51.0" fill="#DE7D67" transform="matrix(1.00, 0.00, -0.00, -1.00, 779.2, 521.0)">w</text><text xml:space="preserve" font-family="AvenirNext-DemiBold" font-weight="bold" font-size="51.0" fill="#DE7D67" transform="matrix(1.00, 0.00, -0.00, -1.00, 820.7, 521.0)">r</text><text xml:space="preserve" font-family="AvenirNext-DemiBold" font-weight="bold" font-size="51.0" fill="#DE7D67" transform="matrix(1.00, 0.00, -0.00, -1.00, 839.8, 521.0)">i</text><text xml:space="preserve" font-family="AvenirNext-DemiBold" font-weight="bold" font-size="51.0" fill="#DE7D67" transform="matrix(1.00, 0.00, -0.00, -1.00, 853.9, 521.0)">t</text><text xml:space="preserve" font-family="AvenirNext-DemiBold" font-weight="bold" font-size="51.0" fill="#DE7D67" transform="matrix(1.00, 0.00, -0.00, -1.00, 871.8, 521.0)">e</text><text xml:space="preserve" font-family="AvenirNext-DemiBold" font-weight="bold" font-size="51.0" fill="#DE7D67" transform="matrix(1.00, 0.00, -0.00, -1.00, 22.0, 141.0)">S</text><text xml:space="preserve" font-family="AvenirNext-DemiBold" font-weight="bold" font-size="51.0" fill="#DE7D67" transform="matrix(1.00, 0.00, -0.00, -1.00, 51.5, 141.0)">t</text><text xml:space="preserve" font-family="AvenirNext-DemiBold" font-weight="bold" font-size="51.0" fill="#DE7D67" transform="matrix(1.00, 0.00, -0.00, -1.00, 69.3, 141.0)">u</text><text xml:space="preserve" font-family="AvenirNext-DemiBold" font-weight="bold" font-size="51.0" fill="#DE7D67" transform="matrix(1.00, 0.00, -0.00, -1.00, 99.5, 141.0)">f</text><text xml:space="preserve" font-family="AvenirNext-DemiBold" font-weight="bold" font-size="51.0" fill="#DE7D67" transform="matrix(1.00, 0.00, -0.00, -1.00, 115.5, 141.0)">f</text><text xml:space="preserve" font-family="AvenirNext-DemiBold" font-weight="bold" font-size="51.0" fill="#DE7D67" transform="matrix(1.00, 0.00, -0.00, -1.00, 133.7, 141.0)"> </text><text xml:space="preserve" font-family="AvenirNext-DemiBold" font-weight="bold" font-size="51.0" fill="#DE7D67" transform="matrix(1.00, 0.00, -0.00, -1.00, 147.0, 141.0)">t</text><text xml:space="preserve" font-family="AvenirNext-DemiBold" font-weight="bold" font-size="51.0" fill="#DE7D67" transform="matrix(1.00, 0.00, -0.00, -1.00, 164.9, 141.0)">h</text><text xml:space="preserve" font-family="AvenirNext-DemiBold" font-weight="bold" font-size="51.0" fill="#DE7D67" transform="matrix(1.00, 0.00, -0.00, -1.00, 195.1, 141.0)">a</text><text xml:space="preserve" font-family="AvenirNext-DemiBold" font-weight="bold" font-size="51.0" fill="#DE7D67" transform="matrix(1.00, 0.00, -0.00, -1.00, 223.2, 141.0)">t</text><text xml:space="preserve" font-family="AvenirNext-DemiBold" font-weight="bold" font-size="51.0" fill="#DE7D67" transform="matrix(1.00, 0.00, -0.00, -1.00, 241.0, 141.0)"> </text><text xml:space="preserve" font-family="AvenirNext-DemiBold" font-weight="bold" font-size="51.0" fill="#DE7D67" transform="matrix(1.00, 0.00, -0.00, -1.00, 254.3, 141.0)">i</text><text xml:space="preserve" font-family="AvenirNext-DemiBold" font-weight="bold" font-size="51.0" fill="#DE7D67" transform="matrix(1.00, 0.00, -0.00, -1.00, 268.5, 141.0)">s</text><text xml:space="preserve" font-family="AvenirNext-DemiBold" font-weight="bold" font-size="51.0" fill="#DE7D67" transform="matrix(1.00, 0.00, -0.00, -1.00, 291.6, 141.0)"> </text><text xml:space="preserve" font-family="AvenirNext-DemiBold" font-weight="bold" font-size="51.0" fill="#DE7D67" transform="matrix(1.00, 0.00, -0.00, -1.00, 304.9, 141.0)">n</text><text xml:space="preserve" font-family="AvenirNext-DemiBold" font-weight="bold" font-size="51.0" fill="#DE7D67" transform="matrix(1.00, 0.00, -0.00, -1.00, 335.1, 141.0)">i</text><text xml:space="preserve" font-family="AvenirNext-DemiBold" font-weight="bold" font-size="51.0" fill="#DE7D67" transform="matrix(1.00, 0.00, -0.00, -1.00, 349.3, 141.0)">c</text><text xml:space="preserve" font-family="AvenirNext-DemiBold" font-weight="bold" font-size="51.0" fill="#DE7D67" transform="matrix(1.00, 0.00, -0.00, -1.00, 374.7, 141.0)">e</text><text xml:space="preserve" font-family="AvenirNext-DemiBold" font-weight="bold" font-size="51.0" fill="#DE7D67" transform="matrix(1.00, 0.00, -0.00, -1.00, 404.4, 141.0)"> </text><text xml:space="preserve" font-family="AvenirNext-DemiBold" font-weight="bold" font-size="51.0" fill="#DE7D67" transform="matrix(1.00, 0.00, -0.00, -1.00, 417.7, 141.0)">f</text><text xml:space="preserve" font-family="AvenirNext-DemiBold" font-weight="bold" font-size="51.0" fill="#DE7D67" transform="matrix(1.00, 0.00, -0.00, -1.00, 434.7, 141.0)">o</text><text xml:space="preserve" font-family="AvenirNext-DemiBold" font-weight="bold" font-size="51.0" fill="#DE7D67" transform="matrix(1.00, 0.00, -0.00, -1.00, 466.4, 141.0)">r</text><text xml:space="preserve" font-family="AvenirNext-DemiBold" font-weight="bold" font-size="51.0" fill="#DE7D67" transform="matrix(1.00, 0.00, -0.00, -1.00, 485.4, 141.0)"> </text><text xml:space="preserve" font-family="AvenirNext-DemiBold" font-weight="bold" font-size="51.0" fill="#DE7D67" transform="matrix(1.00, 0.00, -0.00, -1.00, 498.7, 141.0)">y</text><text xml:space="preserve" font-family="AvenirNext-DemiBold" font-weight="bold" font-size="51.0" fill="#DE7D67" transform="matrix(1.00, 0.00, -0.00, -1.00, 525.4, 141.0)">o</text><text xml:space="preserve" font-family="AvenirNext-DemiBold" font-weight="bold" font-size="51.0" fill="#DE7D67" transform="matrix(1.00, 0.00, -0.00, -1.00, 557.0, 141.0)">u</text><text xml:space="preserve" font-family="AvenirNext-DemiBold" font-weight="bold" font-size="51.0" fill="#DE7D67" transform="matrix(1.00, 0.00, -0.00, -1.00, 587.2, 141.0)">r</text><text xml:space="preserve" font-family="AvenirNext-DemiBold" font-weight="bold" font-size="51.0" fill="#DE7D67" transform="matrix(1.00, 0.00, -0.00, -1.00, 606.3, 141.0)"> </text><text xml:space="preserve" font-family="AvenirNext-DemiBold" font-weight="bold" font-size="51.0" fill="#DE7D67" transform="matrix(1.00, 0.00, -0.00, -1.00, 619.5, 141.0)">b</text><text xml:space="preserve" font-family="AvenirNext-DemiBold" font-weight="bold" font-size="51.0" fill="#DE7D67" transform="matrix(1.00, 0.00, -0.00, -1.00, 652.4, 141.0)">r</text><text xml:space="preserve" font-family="AvenirNext-DemiBold" font-weight="bold" font-size="51.0" fill="#DE7D67" transform="matrix(1.00, 0.00, -0.00, -1.00, 670.6, 141.0)">o</text><text xml:space="preserve" font-family="AvenirNext-DemiBold" font-weight="bold" font-size="51.0" fill="#DE7D67" transform="matrix(1.00, 0.00, -0.00, -1.00, 702.2, 141.0)">w</text><text xml:space="preserve" font-family="AvenirNext-DemiBold" font-weight="bold" font-size="51.0" fill="#DE7D67" transform="matrix(1.00, 0.00, -0.00, -1.00, 743.7, 141.0)">s</text><text xml:space="preserve" font-family="AvenirNext-DemiBold" font-weight="bold" font-size="51.0" fill="#DE7D67" transform="matrix(1.00, 0.00, -0.00, -1.00, 766.9, 141.0)">e</text><text xml:space="preserve" font-family="AvenirNext-DemiBold" font-weight="bold" font-size="51.0" fill="#DE7D67" transform="matrix(1.00, 0.00, -0.00, -1.00, 796.6, 141.0)">r</text><text xml:space="preserve" font-family="AvenirNext-DemiBold" font-weight="bold" font-size="51.0" fill="#DE7D67" transform="matrix(1.00, 0.00, -0.00, -1.00, 815.7, 141.0)"> </text><text xml:space="preserve" font-family="AvenirNext-DemiBold" font-weight="bold" font-size="51.0" fill="#DE7D67" transform="matrix(1.00, 0.00, -0.00, -1.00, 829.0, 141.0)">t</text><text xml:space="preserve" font-family="AvenirNext-DemiBold" font-weight="bold" font-size="51.0" fill="#DE7D67" transform="matrix(1.00, 0.00, -0.00, -1.00, 846.8, 141.0)">o</text><text xml:space="preserve" font-family="AvenirNext-DemiBold" font-weight="bold" font-size="51.0" fill="#DE7D67" transform="matrix(1.00, 0.00, -0.00, -1.00, 878.4, 141.0)"> </text><text xml:space="preserve" font-family="AvenirNext-DemiBold" font-weight="bold" font-size="51.0" fill="#DE7D67" transform="matrix(1.00, 0.00, -0.00, -1.00, 891.7, 141.0)">r</text><text xml:space="preserve" font-family="AvenirNext-DemiBold" font-weight="bold" font-size="51.0" fill="#DE7D67" transform="matrix(1.00, 0.00, -0.00, -1.00, 909.9, 141.0)">e</text><text xml:space="preserve" font-family="AvenirNext-DemiBold" font-weight="bold" font-size="51.0" fill="#DE7D67" transform="matrix(1.00, 0.00, -0.00, -1.00, 939.3, 141.0)">a</text><text xml:space="preserve" font-family="AvenirNext-DemiBold" font-weight="bold" font-size="51.0" fill="#DE7D67" transform="matrix(1.00, 0.00, -0.00, -1.00, 967.9, 141.0)">d</text><path d="M 582.9 261.5 L 563.6 261.5 L 592.0 197.5 L 620.5 261.5 L 601.2 261.5 L 601.2 497.2 L 582.9 497.2 Z M 582.9 261.5 " fill="#7A9DE4"></path><g><clipPath id="clip-93"><path d="M 333.0 221.0 L 333.0 349.9 L 443.8 349.9 L 443.8 221.0 Z M 333.0 221.0 "></path></clipPath><g clip-path="url(#clip-93)"><path d="M 334.0 285.4 L 442.8 348.9 L 442.8 222.0 Z M 334.0 285.4 " fill="#A6BEEA"></path></g></g><g><clipPath id="clip-94"><path d="M 385.9 316.6 L 497.4 381.0 L 552.8 285.0 L 441.3 220.6 Z M 385.9 316.6 "></path></clipPath><g clip-path="url(#clip-94)"><path d="M 442.2 347.9 L 551.5 285.4 L 441.6 222.0 Z M 442.2 347.9 " fill="#A6BEEA"></path></g></g><g><clipPath id="clip-95"><path d="M 333.0 344.9 L 333.0 473.7 L 443.8 473.7 L 443.8 344.9 Z M 333.0 344.9 "></path></clipPath><g clip-path="url(#clip-95)"><path d="M 334.0 409.3 L 442.8 472.7 L 442.8 345.9 Z M 334.0 409.3 " fill="#A6BEEA"></path></g></g><g><clipPath id="clip-96"><path d="M 441.2 282.7 L 441.2 411.5 L 552.0 411.5 L 552.0 282.7 Z M 441.2 282.7 "></path></clipPath><g clip-path="url(#clip-96)"><path d="M 442.2 347.1 L 551.0 410.5 L 551.0 283.7 Z M 442.2 347.1 " fill="#89AADE"></path></g></g><g><clipPath id="clip-97"><path d="M 497.4 313.3 L 385.9 377.7 L 441.3 473.7 L 552.8 409.2 Z M 497.4 313.3 "></path></clipPath><g clip-path="url(#clip-97)"><path d="M 442.2 346.4 L 441.6 472.3 L 551.5 408.9 Z M 442.2 346.4 " fill="#A6BEEA"></path></g></g><g><clipPath id="clip-98"><path d="M 390.0 251.1 L 278.5 315.5 L 333.9 411.4 L 445.4 347.0 Z M 390.0 251.1 "></path></clipPath><g clip-path="url(#clip-98)"><path d="M 334.8 284.1 L 334.2 410.1 L 444.1 346.7 Z M 334.8 284.1 " fill="#89AADE"></path></g></g><g><clipPath id="clip-99"><path d="M 369.5 265.2 L 369.5 349.4 L 442.1 349.4 L 442.1 265.2 Z M 369.5 265.2 "></path></clipPath><g clip-path="url(#clip-99)"><path d="M 370.5 307.3 L 441.1 348.4 L 441.1 266.2 Z M 370.5 307.3 " fill="#7A9DE4"></path></g></g><g><clipPath id="clip-100"><path d="M 403.7 327.6 L 476.6 369.7 L 512.9 306.9 L 440.0 264.8 Z M 403.7 327.6 "></path></clipPath><g clip-path="url(#clip-100)"><path d="M 440.7 347.8 L 511.5 307.2 L 440.3 266.1 Z M 440.7 347.8 " fill="#7A9DE4"></path></g></g><g><clipPath id="clip-101"><path d="M 369.5 345.5 L 369.5 429.7 L 442.1 429.7 L 442.1 345.5 Z M 369.5 345.5 "></path></clipPath><g clip-path="url(#clip-101)"><path d="M 370.5 387.6 L 441.1 428.7 L 441.1 346.5 Z M 370.5 387.6 " fill="#7A9DE4"></path></g></g><g><clipPath id="clip-102"><path d="M 438.8 305.2 L 438.8 389.4 L 511.3 389.4 L 511.3 305.2 Z M 438.8 305.2 "></path></clipPath><g clip-path="url(#clip-102)"><path d="M 439.8 347.3 L 510.3 388.4 L 510.3 306.2 Z M 439.8 347.3 " fill="#7497DE"></path></g></g><g><clipPath id="clip-103"><path d="M 476.3 324.5 L 403.3 366.6 L 439.6 429.4 L 512.5 387.3 Z M 476.3 324.5 "></path></clipPath><g clip-path="url(#clip-103)"><path d="M 440.3 346.4 L 440.0 428.0 L 511.2 386.9 Z M 440.3 346.4 " fill="#7A9DE4"></path></g></g><g><clipPath id="clip-104"><path d="M 407.0 284.5 L 334.1 326.6 L 370.3 389.4 L 443.3 347.3 Z M 407.0 284.5 "></path></clipPath><g clip-path="url(#clip-104)"><path d="M 371.0 306.4 L 370.7 388.1 L 441.9 347.0 Z M 371.0 306.4 " fill="#7497DE"></path></g></g><g><clipPath id="clip-105"><path d="M 377.9 363.9 L 428.9 363.9 L 428.9 414.9 L 377.9 414.9 Z M 377.9 363.9 "></path></clipPath><g clip-path="url(#clip-105)"><path d="M 419.7 405.6 C 428.7 396.7 428.7 382.1 419.7 373.1 C 410.7 364.1 396.1 364.1 387.1 373.1 C 378.2 382.1 378.2 396.7 387.1 405.6 C 396.1 414.6 410.7 414.6 419.7 405.6 Z M 419.7 405.6 " fill="#FFFFFF"></path><path d="M 39.3 6.7 C 48.2 15.7 48.2 30.3 39.3 39.3 C 30.3 48.2 15.7 48.2 6.7 39.3 C -2.2 30.3 -2.2 15.7 6.7 6.7 C 15.7 -2.2 30.3 -2.2 39.3 6.7 Z M 39.3 6.7 " fill="none" stroke="#000000" stroke-width="3.00" transform="matrix(1.00, 0.00, 0.00, -1.00, 380.4, 412.4)"></path></g></g><g><clipPath id="clip-106"><path d="M 402.6 376.6 L 418.2 376.6 L 418.2 392.2 L 402.6 392.2 Z M 402.6 376.6 "></path></clipPath><g clip-path="url(#clip-106)"><path d="M 415.2 389.2 C 417.9 386.6 417.9 382.2 415.2 379.6 C 412.6 376.9 408.2 376.9 405.6 379.6 C 402.9 382.2 402.9 386.6 405.6 389.2 C 408.2 391.9 412.6 391.9 415.2 389.2 Z M 415.2 389.2 " fill="#000000"></path></g></g><g><clipPath id="clip-107"><path d="M 452.1 363.9 L 503.1 363.9 L 503.1 414.9 L 452.1 414.9 Z M 452.1 363.9 "></path></clipPath><g clip-path="url(#clip-107)"><path d="M 493.9 405.6 C 502.9 396.7 502.9 382.1 493.9 373.1 C 484.9 364.1 470.3 364.1 461.4 373.1 C 452.4 382.1 452.4 396.7 461.4 405.6 C 470.3 414.6 484.9 414.6 493.9 405.6 Z M 493.9 405.6 " fill="#FFFFFF"></path><path d="M 39.3 6.7 C 48.2 15.7 48.2 30.3 39.3 39.3 C 30.3 48.2 15.7 48.2 6.7 39.3 C -2.2 30.3 -2.2 15.7 6.7 6.7 C 15.7 -2.2 30.3 -2.2 39.3 6.7 Z M 39.3 6.7 " fill="none" stroke="#000000" stroke-width="3.00" transform="matrix(1.00, 0.00, 0.00, -1.00, 454.6, 412.4)"></path></g></g><g><clipPath id="clip-108"><path d="M 476.8 376.6 L 492.5 376.6 L 492.5 392.2 L 476.8 392.2 Z M 476.8 376.6 "></path></clipPath><g clip-path="url(#clip-108)"><path d="M 489.4 389.2 C 492.1 386.6 492.1 382.2 489.4 379.6 C 486.8 376.9 482.5 376.9 479.8 379.6 C 477.1 382.2 477.1 386.6 479.8 389.2 C 482.5 391.9 486.8 391.9 489.4 389.2 Z M 489.4 389.2 " fill="#000000"></path></g></g><g><clipPath id="clip-109"><path d="M 377.8 302.1 L 513.1 302.1 L 513.1 330.2 L 377.8 330.2 Z M 377.8 302.1 "></path></clipPath><g clip-path="url(#clip-109)"><path d="M 0.0 13.5 C 69.9 29.6 113.6 25.2 131.2 0.0 " fill="none" stroke="#000000" stroke-width="4.00" transform="matrix(1.00, 0.00, 0.00, -1.00, 379.3, 328.1)"></path></g></g><g><clipPath id="clip-110"><path d="M 418.6 308.3 L 434.3 308.3 L 434.3 324.0 L 418.6 324.0 Z M 418.6 308.3 "></path></clipPath><g clip-path="url(#clip-110)"><path d="M 426.5 323.0 L 433.3 309.3 L 419.6 309.3 Z M 426.5 323.0 " fill="#FFFFFF"></path></g></g><g><clipPath id="clip-111"><path d="M 465.7 308.3 L 481.3 308.3 L 481.3 324.0 L 465.7 324.0 Z M 465.7 308.3 "></path></clipPath><g clip-path="url(#clip-111)"><path d="M 473.5 323.0 L 480.3 309.3 L 466.7 309.3 Z M 473.5 323.0 " fill="#FFFFFF"></path></g></g><text xml:space="preserve" font-family="AvenirNext-DemiBold" font-weight="bold" font-size="27.0" fill="#DE7D67" transform="matrix(1.00, 0.00, -0.00, -1.00, 224.0, 25.0)">h</text><text xml:space="preserve" font-family="AvenirNext-DemiBold" font-weight="bold" font-size="27.0" fill="#DE7D67" transform="matrix(1.00, 0.00, -0.00, -1.00, 240.0, 25.0)">t</text><text xml:space="preserve" font-family="AvenirNext-DemiBold" font-weight="bold" font-size="27.0" fill="#DE7D67" transform="matrix(1.00, 0.00, -0.00, -1.00, 249.1, 25.0)">t</text><text xml:space="preserve" font-family="AvenirNext-DemiBold" font-weight="bold" font-size="27.0" fill="#DE7D67" transform="matrix(1.00, 0.00, -0.00, -1.00, 258.5, 25.0)">p</text><text xml:space="preserve" font-family="AvenirNext-DemiBold" font-weight="bold" font-size="27.0" fill="#DE7D67" transform="matrix(1.00, 0.00, -0.00, -1.00, 275.9, 25.0)">s</text><text xml:space="preserve" font-family="AvenirNext-DemiBold" font-weight="bold" font-size="27.0" fill="#DE7D67" transform="matrix(1.00, 0.00, -0.00, -1.00, 288.2, 25.0)">:</text><text xml:space="preserve" font-family="AvenirNext-DemiBold" font-weight="bold" font-size="27.0" fill="#DE7D67" transform="matrix(1.00, 0.00, -0.00, -1.00, 296.5, 25.0)">/</text><text xml:space="preserve" font-family="AvenirNext-DemiBold" font-weight="bold" font-size="27.0" fill="#DE7D67" transform="matrix(1.00, 0.00, -0.00, -1.00, 307.3, 25.0)">/</text><text xml:space="preserve" font-family="AvenirNext-DemiBold" font-weight="bold" font-size="27.0" fill="#DE7D67" transform="matrix(1.00, 0.00, -0.00, -1.00, 318.1, 25.0)">n</text><text xml:space="preserve" font-family="AvenirNext-DemiBold" font-weight="bold" font-size="27.0" fill="#DE7D67" transform="matrix(1.00, 0.00, -0.00, -1.00, 334.1, 25.0)">a</text><text xml:space="preserve" font-family="AvenirNext-DemiBold" font-weight="bold" font-size="27.0" fill="#DE7D67" transform="matrix(1.00, 0.00, -0.00, -1.00, 349.2, 25.0)">o</text><text xml:space="preserve" font-family="AvenirNext-DemiBold" font-weight="bold" font-size="27.0" fill="#DE7D67" transform="matrix(1.00, 0.00, -0.00, -1.00, 365.9, 25.0)">m</text><text xml:space="preserve" font-family="AvenirNext-DemiBold" font-weight="bold" font-size="27.0" fill="#DE7D67" transform="matrix(1.00, 0.00, -0.00, -1.00, 390.2, 25.0)">i</text><text xml:space="preserve" font-family="AvenirNext-DemiBold" font-weight="bold" font-size="27.0" fill="#DE7D67" transform="matrix(1.00, 0.00, -0.00, -1.00, 397.7, 25.0)">a</text><text xml:space="preserve" font-family="AvenirNext-DemiBold" font-weight="bold" font-size="27.0" fill="#DE7D67" transform="matrix(1.00, 0.00, -0.00, -1.00, 412.8, 25.0)">j</text><text xml:space="preserve" font-family="AvenirNext-DemiBold" font-weight="bold" font-size="27.0" fill="#DE7D67" transform="matrix(1.00, 0.00, -0.00, -1.00, 420.3, 25.0)">a</text><text xml:space="preserve" font-family="AvenirNext-DemiBold" font-weight="bold" font-size="27.0" fill="#DE7D67" transform="matrix(1.00, 0.00, -0.00, -1.00, 435.5, 25.0)">c</text><text xml:space="preserve" font-family="AvenirNext-DemiBold" font-weight="bold" font-size="27.0" fill="#DE7D67" transform="matrix(1.00, 0.00, -0.00, -1.00, 448.9, 25.0)">o</text><text xml:space="preserve" font-family="AvenirNext-DemiBold" font-weight="bold" font-size="27.0" fill="#DE7D67" transform="matrix(1.00, 0.00, -0.00, -1.00, 465.6, 25.0)">b</text><text xml:space="preserve" font-family="AvenirNext-DemiBold" font-weight="bold" font-size="27.0" fill="#DE7D67" transform="matrix(1.00, 0.00, -0.00, -1.00, 483.1, 25.0)">s</text><text xml:space="preserve" font-family="AvenirNext-DemiBold" font-weight="bold" font-size="27.0" fill="#DE7D67" transform="matrix(1.00, 0.00, -0.00, -1.00, 495.3, 25.0)">.</text><text xml:space="preserve" font-family="AvenirNext-DemiBold" font-weight="bold" font-size="27.0" fill="#DE7D67" transform="matrix(1.00, 0.00, -0.00, -1.00, 502.6, 25.0)">g</text><text xml:space="preserve" font-family="AvenirNext-DemiBold" font-weight="bold" font-size="27.0" fill="#DE7D67" transform="matrix(1.00, 0.00, -0.00, -1.00, 519.9, 25.0)">i</text><text xml:space="preserve" font-family="AvenirNext-DemiBold" font-weight="bold" font-size="27.0" fill="#DE7D67" transform="matrix(1.00, 0.00, -0.00, -1.00, 527.5, 25.0)">t</text><text xml:space="preserve" font-family="AvenirNext-DemiBold" font-weight="bold" font-size="27.0" fill="#DE7D67" transform="matrix(1.00, 0.00, -0.00, -1.00, 536.9, 25.0)">h</text><text xml:space="preserve" font-family="AvenirNext-DemiBold" font-weight="bold" font-size="27.0" fill="#DE7D67" transform="matrix(1.00, 0.00, -0.00, -1.00, 552.9, 25.0)">u</text><text xml:space="preserve" font-family="AvenirNext-DemiBold" font-weight="bold" font-size="27.0" fill="#DE7D67" transform="matrix(1.00, 0.00, -0.00, -1.00, 568.9, 25.0)">b</text><text xml:space="preserve" font-family="AvenirNext-DemiBold" font-weight="bold" font-size="27.0" fill="#DE7D67" transform="matrix(1.00, 0.00, -0.00, -1.00, 586.0, 25.0)">.</text><text xml:space="preserve" font-family="AvenirNext-DemiBold" font-weight="bold" font-size="27.0" fill="#DE7D67" transform="matrix(1.00, 0.00, -0.00, -1.00, 593.3, 25.0)">i</text><text xml:space="preserve" font-family="AvenirNext-DemiBold" font-weight="bold" font-size="27.0" fill="#DE7D67" transform="matrix(1.00, 0.00, -0.00, -1.00, 600.8, 25.0)">o</text><text xml:space="preserve" font-family="AvenirNext-DemiBold" font-weight="bold" font-size="27.0" fill="#DE7D67" transform="matrix(1.00, 0.00, -0.00, -1.00, 617.6, 25.0)">/</text><text xml:space="preserve" font-family="AvenirNext-DemiBold" font-weight="bold" font-size="27.0" fill="#DE7D67" transform="matrix(1.00, 0.00, -0.00, -1.00, 628.3, 25.0)">W</text><text xml:space="preserve" font-family="AvenirNext-DemiBold" font-weight="bold" font-size="27.0" fill="#DE7D67" transform="matrix(1.00, 0.00, -0.00, -1.00, 654.7, 25.0)">e</text><text xml:space="preserve" font-family="AvenirNext-DemiBold" font-weight="bold" font-size="27.0" fill="#DE7D67" transform="matrix(1.00, 0.00, -0.00, -1.00, 670.5, 25.0)">b</text><text xml:space="preserve" font-family="AvenirNext-DemiBold" font-weight="bold" font-size="27.0" fill="#DE7D67" transform="matrix(1.00, 0.00, -0.00, -1.00, 687.9, 25.0)">p</text><text xml:space="preserve" font-family="AvenirNext-DemiBold" font-weight="bold" font-size="27.0" fill="#DE7D67" transform="matrix(1.00, 0.00, -0.00, -1.00, 705.3, 25.0)">a</text><text xml:space="preserve" font-family="AvenirNext-DemiBold" font-weight="bold" font-size="27.0" fill="#DE7D67" transform="matrix(1.00, 0.00, -0.00, -1.00, 720.4, 25.0)">c</text><text xml:space="preserve" font-family="AvenirNext-DemiBold" font-weight="bold" font-size="27.0" fill="#DE7D67" transform="matrix(1.00, 0.00, -0.00, -1.00, 733.8, 25.0)">k</text><text xml:space="preserve" font-family="AvenirNext-DemiBold" font-weight="bold" font-size="27.0" fill="#DE7D67" transform="matrix(1.00, 0.00, -0.00, -1.00, 748.8, 25.0)">T</text><text xml:space="preserve" font-family="AvenirNext-DemiBold" font-weight="bold" font-size="27.0" fill="#DE7D67" transform="matrix(1.00, 0.00, -0.00, -1.00, 761.8, 25.0)">a</text><text xml:space="preserve" font-family="AvenirNext-DemiBold" font-weight="bold" font-size="27.0" fill="#DE7D67" transform="matrix(1.00, 0.00, -0.00, -1.00, 776.9, 25.0)">l</text><text xml:space="preserve" font-family="AvenirNext-DemiBold" font-weight="bold" font-size="27.0" fill="#DE7D67" transform="matrix(1.00, 0.00, -0.00, -1.00, 784.4, 25.0)">k</text></g></svg>