<?xml version="1.0" encoding="UTF-8" standalone="no"?><svg xmlns="http://www.w3.org/2000/svg" xmlns:xlink="http://www.w3.org/1999/xlink" clip-rule="evenodd" stroke-miterlimit="4.00" viewBox="0 0 916 86"><desc>SVG generated by Keynote</desc><defs></defs><g transform="matrix(1.00, 0.00, -0.00, -1.00, 0.0, 86.0)"><text xml:space="preserve" font-family="DINCondensed-Bold" font-weight="bold" font-size="114.0" fill="#DE7D67" transform="matrix(1.00, 0.00, -0.00, -1.00, 0.0, 3.0)">W</text><text xml:space="preserve" font-family="DINCondensed-Bold" font-weight="bold" font-size="114.0" fill="#DE7D67" transform="matrix(1.00, 0.00, -0.00, -1.00, 67.6, 3.0)">E</text><text xml:space="preserve" font-family="DINCondensed-Bold" font-weight="bold" font-size="114.0" fill="#DE7D67" transform="matrix(1.00, 0.00, -0.00, -1.00, 109.8, 3.0)">B</text><text xml:space="preserve" font-family="DINCondensed-Bold" font-weight="bold" font-size="114.0" fill="#DE7D67" transform="matrix(1.00, 0.00, -0.00, -1.00, 158.3, 3.0)">P</text><text xml:space="preserve" font-family="DINCondensed-Bold" font-weight="bold" font-size="114.0" fill="#DE7D67" transform="matrix(1.00, 0.00, -0.00, -1.00, 200.5, 3.0)">A</text><text xml:space="preserve" font-family="DINCondensed-Bold" font-weight="bold" font-size="114.0" fill="#DE7D67" transform="matrix(1.00, 0.00, -0.00, -1.00, 246.9, 3.0)">C</text><text xml:space="preserve" font-family="DINCondensed-Bold" font-weight="bold" font-size="114.0" fill="#DE7D67" transform="matrix(1.00, 0.00, -0.00, -1.00, 293.3, 3.0)">K</text><text xml:space="preserve" font-family="DINCondensed-Bold" font-weight="bold" font-size="114.0" fill="#DE7D67" transform="matrix(1.00, 0.00, -0.00, -1.00, 341.9, 3.0)">:</text><text xml:space="preserve" font-family="DINCondensed-Bold" font-weight="bold" font-size="114.0" fill="#DE7D67" transform="matrix(1.00, 0.00, -0.00, -1.00, 363.1, 3.0)"> </text><text xml:space="preserve" font-family="DINCondensed-Bold" font-weight="bold" font-size="114.0" fill="#DE7D67" transform="matrix(1.00, 0.00, -0.00, -1.00, 384.3, 3.0)">I</text><text xml:space="preserve" font-family="DINCondensed-Bold" font-weight="bold" font-size="114.0" fill="#DE7D67" transform="matrix(1.00, 0.00, -0.00, -1.00, 407.6, 3.0)">T</text><text xml:space="preserve" font-family="DINCondensed-Bold" font-weight="bold" font-size="114.0" fill="#DE7D67" transform="matrix(1.00, 0.00, -0.00, -1.00, 445.4, 3.0)">’</text><text xml:space="preserve" font-family="DINCondensed-Bold" font-weight="bold" font-size="114.0" fill="#DE7D67" transform="matrix(1.00, 0.00, -0.00, -1.00, 466.6, 3.0)">S</text><text xml:space="preserve" font-family="DINCondensed-Bold" font-weight="bold" font-size="114.0" fill="#DE7D67" transform="matrix(1.00, 0.00, -0.00, -1.00, 512.9, 3.0)"> </text><text xml:space="preserve" font-family="DINCondensed-Bold" font-weight="bold" font-size="114.0" fill="#DE7D67" transform="matrix(1.00, 0.00, -0.00, -1.00, 534.1, 3.0)">N</text><text xml:space="preserve" font-family="DINCondensed-Bold" font-weight="bold" font-size="114.0" fill="#DE7D67" transform="matrix(1.00, 0.00, -0.00, -1.00, 584.7, 3.0)">O</text><text xml:space="preserve" font-family="DINCondensed-Bold" font-weight="bold" font-size="114.0" fill="#DE7D67" transform="matrix(1.00, 0.00, -0.00, -1.00, 631.9, 3.0)">T</text><text xml:space="preserve" font-family="DINCondensed-Bold" font-weight="bold" font-size="114.0" fill="#DE7D67" transform="matrix(1.00, 0.00, -0.00, -1.00, 669.7, 3.0)"> </text><text xml:space="preserve" font-family="DINCondensed-Bold" font-weight="bold" font-size="114.0" fill="#DE7D67" transform="matrix(1.00, 0.00, -0.00, -1.00, 691.0, 3.0)">M</text><text xml:space="preserve" font-family="DINCondensed-Bold" font-weight="bold" font-size="114.0" fill="#DE7D67" transform="matrix(1.00, 0.00, -0.00, -1.00, 754.3, 3.0)">A</text><text xml:space="preserve" font-family="DINCondensed-Bold" font-weight="bold" font-size="114.0" fill="#DE7D67" transform="matrix(1.00, 0.00, -0.00, -1.00, 800.7, 3.0)">G</text><text xml:space="preserve" font-family="DINCondensed-Bold" font-weight="bold" font-size="114.0" fill="#DE7D67" transform="matrix(1.00, 0.00, -0.00, -1.00, 849.3, 3.0)">I</text><text xml:space="preserve" font-family="DINCondensed-Bold" font-weight="bold" font-size="114.0" fill="#DE7D67" transform="matrix(1.00, 0.00, -0.00, -1.00, 872.6, 3.0)">C</text></g></svg>