<?xml version="1.0" encoding="UTF-8" standalone="no"?><svg xmlns="http://www.w3.org/2000/svg" xmlns:xlink="http://www.w3.org/1999/xlink" clip-rule="evenodd" stroke-miterlimit="4.00" viewBox="0 0 794 35"><desc>SVG generated by Keynote</desc><defs></defs><g transform="matrix(1.00, 0.00, -0.00, -1.00, 0.0, 35.0)"><text xml:space="preserve" font-family="AvenirNext-DemiBold" font-weight="bold" font-size="32.0" fill="#DE7D67" transform="matrix(1.00, 0.00, -0.00, -1.00, 2.0, 10.0)">S</text><text xml:space="preserve" font-family="AvenirNext-DemiBold" font-weight="bold" font-size="32.0" fill="#DE7D67" transform="matrix(1.00, 0.00, -0.00, -1.00, 20.7, 10.0)">l</text><text xml:space="preserve" font-family="AvenirNext-DemiBold" font-weight="bold" font-size="32.0" fill="#DE7D67" transform="matrix(1.00, 0.00, -0.00, -1.00, 29.6, 10.0)">i</text><text xml:space="preserve" font-family="AvenirNext-DemiBold" font-weight="bold" font-size="32.0" fill="#DE7D67" transform="matrix(1.00, 0.00, -0.00, -1.00, 38.5, 10.0)">d</text><text xml:space="preserve" font-family="AvenirNext-DemiBold" font-weight="bold" font-size="32.0" fill="#DE7D67" transform="matrix(1.00, 0.00, -0.00, -1.00, 59.1, 10.0)">e</text><text xml:space="preserve" font-family="AvenirNext-DemiBold" font-weight="bold" font-size="32.0" fill="#DE7D67" transform="matrix(1.00, 0.00, -0.00, -1.00, 77.8, 10.0)">s</text><text xml:space="preserve" font-family="AvenirNext-DemiBold" font-weight="bold" font-size="32.0" fill="#DE7D67" transform="matrix(1.00, 0.00, -0.00, -1.00, 92.3, 10.0)">:</text><text xml:space="preserve" font-family="AvenirNext-DemiBold" font-weight="bold" font-size="32.0" fill="#DE7D67" transform="matrix(1.00, 0.00, -0.00, -1.00, 102.2, 10.0)"> </text><text xml:space="preserve" font-family="AvenirNext-DemiBold" font-weight="bold" font-size="32.0" fill="#DE7D67" transform="matrix(1.00, 0.00, -0.00, -1.00, 110.5, 10.0)">h</text><text xml:space="preserve" font-family="AvenirNext-DemiBold" font-weight="bold" font-size="32.0" fill="#DE7D67" transform="matrix(1.00, 0.00, -0.00, -1.00, 129.6, 10.0)">t</text><text xml:space="preserve" font-family="AvenirNext-DemiBold" font-weight="bold" font-size="32.0" fill="#DE7D67" transform="matrix(1.00, 0.00, -0.00, -1.00, 140.3, 10.0)">t</text><text xml:space="preserve" font-family="AvenirNext-DemiBold" font-weight="bold" font-size="32.0" fill="#DE7D67" transform="matrix(1.00, 0.00, -0.00, -1.00, 151.5, 10.0)">p</text><text xml:space="preserve" font-family="AvenirNext-DemiBold" font-weight="bold" font-size="32.0" fill="#DE7D67" transform="matrix(1.00, 0.00, -0.00, -1.00, 172.0, 10.0)">s</text><text xml:space="preserve" font-family="AvenirNext-DemiBold" font-weight="bold" font-size="32.0" fill="#DE7D67" transform="matrix(1.00, 0.00, -0.00, -1.00, 186.6, 10.0)">:</text><text xml:space="preserve" font-family="AvenirNext-DemiBold" font-weight="bold" font-size="32.0" fill="#DE7D67" transform="matrix(1.00, 0.00, -0.00, -1.00, 196.5, 10.0)">/</text><text xml:space="preserve" font-family="AvenirNext-DemiBold" font-weight="bold" font-size="32.0" fill="#DE7D67" transform="matrix(1.00, 0.00, -0.00, -1.00, 209.3, 10.0)">/</text><text xml:space="preserve" font-family="AvenirNext-DemiBold" font-weight="bold" font-size="32.0" fill="#DE7D67" transform="matrix(1.00, 0.00, -0.00, -1.00, 222.0, 10.0)">n</text><text xml:space="preserve" font-family="AvenirNext-DemiBold" font-weight="bold" font-size="32.0" fill="#DE7D67" transform="matrix(1.00, 0.00, -0.00, -1.00, 241.0, 10.0)">a</text><text xml:space="preserve" font-family="AvenirNext-DemiBold" font-weight="bold" font-size="32.0" fill="#DE7D67" transform="matrix(1.00, 0.00, -0.00, -1.00, 258.9, 10.0)">o</text><text xml:space="preserve" font-family="AvenirNext-DemiBold" font-weight="bold" font-size="32.0" fill="#DE7D67" transform="matrix(1.00, 0.00, -0.00, -1.00, 278.7, 10.0)">m</text><text xml:space="preserve" font-family="AvenirNext-DemiBold" font-weight="bold" font-size="32.0" fill="#DE7D67" transform="matrix(1.00, 0.00, -0.00, -1.00, 307.5, 10.0)">i</text><text xml:space="preserve" font-family="AvenirNext-DemiBold" font-weight="bold" font-size="32.0" fill="#DE7D67" transform="matrix(1.00, 0.00, -0.00, -1.00, 316.4, 10.0)">a</text><text xml:space="preserve" font-family="AvenirNext-DemiBold" font-weight="bold" font-size="32.0" fill="#DE7D67" transform="matrix(1.00, 0.00, -0.00, -1.00, 334.4, 10.0)">j</text><text xml:space="preserve" font-family="AvenirNext-DemiBold" font-weight="bold" font-size="32.0" fill="#DE7D67" transform="matrix(1.00, 0.00, -0.00, -1.00, 343.2, 10.0)">a</text><text xml:space="preserve" font-family="AvenirNext-DemiBold" font-weight="bold" font-size="32.0" fill="#DE7D67" transform="matrix(1.00, 0.00, -0.00, -1.00, 361.2, 10.0)">c</text><text xml:space="preserve" font-family="AvenirNext-DemiBold" font-weight="bold" font-size="32.0" fill="#DE7D67" transform="matrix(1.00, 0.00, -0.00, -1.00, 377.1, 10.0)">o</text><text xml:space="preserve" font-family="AvenirNext-DemiBold" font-weight="bold" font-size="32.0" fill="#DE7D67" transform="matrix(1.00, 0.00, -0.00, -1.00, 396.9, 10.0)">b</text><text xml:space="preserve" font-family="AvenirNext-DemiBold" font-weight="bold" font-size="32.0" fill="#DE7D67" transform="matrix(1.00, 0.00, -0.00, -1.00, 417.6, 10.0)">s</text><text xml:space="preserve" font-family="AvenirNext-DemiBold" font-weight="bold" font-size="32.0" fill="#DE7D67" transform="matrix(1.00, 0.00, -0.00, -1.00, 432.1, 10.0)">.</text><text xml:space="preserve" font-family="AvenirNext-DemiBold" font-weight="bold" font-size="32.0" fill="#DE7D67" transform="matrix(1.00, 0.00, -0.00, -1.00, 440.8, 10.0)">g</text><text xml:space="preserve" font-family="AvenirNext-DemiBold" font-weight="bold" font-size="32.0" fill="#DE7D67" transform="matrix(1.00, 0.00, -0.00, -1.00, 461.3, 10.0)">i</text><text xml:space="preserve" font-family="AvenirNext-DemiBold" font-weight="bold" font-size="32.0" fill="#DE7D67" transform="matrix(1.00, 0.00, -0.00, -1.00, 470.2, 10.0)">t</text><text xml:space="preserve" font-family="AvenirNext-DemiBold" font-weight="bold" font-size="32.0" fill="#DE7D67" transform="matrix(1.00, 0.00, -0.00, -1.00, 481.4, 10.0)">h</text><text xml:space="preserve" font-family="AvenirNext-DemiBold" font-weight="bold" font-size="32.0" fill="#DE7D67" transform="matrix(1.00, 0.00, -0.00, -1.00, 500.4, 10.0)">u</text><text xml:space="preserve" font-family="AvenirNext-DemiBold" font-weight="bold" font-size="32.0" fill="#DE7D67" transform="matrix(1.00, 0.00, -0.00, -1.00, 519.3, 10.0)">b</text><text xml:space="preserve" font-family="AvenirNext-DemiBold" font-weight="bold" font-size="32.0" fill="#DE7D67" transform="matrix(1.00, 0.00, -0.00, -1.00, 539.6, 10.0)">.</text><text xml:space="preserve" font-family="AvenirNext-DemiBold" font-weight="bold" font-size="32.0" fill="#DE7D67" transform="matrix(1.00, 0.00, -0.00, -1.00, 548.2, 10.0)">i</text><text xml:space="preserve" font-family="AvenirNext-DemiBold" font-weight="bold" font-size="32.0" fill="#DE7D67" transform="matrix(1.00, 0.00, -0.00, -1.00, 557.1, 10.0)">o</text><text xml:space="preserve" font-family="AvenirNext-DemiBold" font-weight="bold" font-size="32.0" fill="#DE7D67" transform="matrix(1.00, 0.00, -0.00, -1.00, 577.0, 10.0)">/</text><text xml:space="preserve" font-family="AvenirNext-DemiBold" font-weight="bold" font-size="32.0" fill="#DE7D67" transform="matrix(1.00, 0.00, -0.00, -1.00, 589.7, 10.0)">W</text><text xml:space="preserve" font-family="AvenirNext-DemiBold" font-weight="bold" font-size="32.0" fill="#DE7D67" transform="matrix(1.00, 0.00, -0.00, -1.00, 621.0, 10.0)">e</text><text xml:space="preserve" font-family="AvenirNext-DemiBold" font-weight="bold" font-size="32.0" fill="#DE7D67" transform="matrix(1.00, 0.00, -0.00, -1.00, 639.7, 10.0)">b</text><text xml:space="preserve" font-family="AvenirNext-DemiBold" font-weight="bold" font-size="32.0" fill="#DE7D67" transform="matrix(1.00, 0.00, -0.00, -1.00, 660.4, 10.0)">p</text><text xml:space="preserve" font-family="AvenirNext-DemiBold" font-weight="bold" font-size="32.0" fill="#DE7D67" transform="matrix(1.00, 0.00, -0.00, -1.00, 680.9, 10.0)">a</text><text xml:space="preserve" font-family="AvenirNext-DemiBold" font-weight="bold" font-size="32.0" fill="#DE7D67" transform="matrix(1.00, 0.00, -0.00, -1.00, 698.9, 10.0)">c</text><text xml:space="preserve" font-family="AvenirNext-DemiBold" font-weight="bold" font-size="32.0" fill="#DE7D67" transform="matrix(1.00, 0.00, -0.00, -1.00, 714.8, 10.0)">k</text><text xml:space="preserve" font-family="AvenirNext-DemiBold" font-weight="bold" font-size="32.0" fill="#DE7D67" transform="matrix(1.00, 0.00, -0.00, -1.00, 732.5, 10.0)">T</text><text xml:space="preserve" font-family="AvenirNext-DemiBold" font-weight="bold" font-size="32.0" fill="#DE7D67" transform="matrix(1.00, 0.00, -0.00, -1.00, 747.9, 10.0)">a</text><text xml:space="preserve" font-family="AvenirNext-DemiBold" font-weight="bold" font-size="32.0" fill="#DE7D67" transform="matrix(1.00, 0.00, -0.00, -1.00, 765.8, 10.0)">l</text><text xml:space="preserve" font-family="AvenirNext-DemiBold" font-weight="bold" font-size="32.0" fill="#DE7D67" transform="matrix(1.00, 0.00, -0.00, -1.00, 774.7, 10.0)">k</text></g></svg>