<?xml version="1.0" encoding="UTF-8" standalone="no"?><svg xmlns="http://www.w3.org/2000/svg" xmlns:xlink="http://www.w3.org/1999/xlink" clip-rule="evenodd" stroke-miterlimit="4.00" viewBox="0 0 915 220"><desc>SVG generated by Keynote</desc><defs></defs><g transform="matrix(1.00, 0.00, -0.00, -1.00, 0.0, 220.0)"><text xml:space="preserve" font-family="LucidaGrande" font-size="24.0" fill="#CACACA" transform="matrix(1.00, 0.00, -0.00, -1.00, 0.0, 196.1)">‣</text><text xml:space="preserve" font-family="AvenirNext-Regular" font-size="32.0" fill="#FFFFFF" transform="matrix(1.00, 0.00, -0.00, -1.00, 37.0, 195.0)">H</text><text xml:space="preserve" font-family="AvenirNext-Regular" font-size="32.0" fill="#FFFFFF" transform="matrix(1.00, 0.00, -0.00, -1.00, 60.0, 195.0)">o</text><text xml:space="preserve" font-family="AvenirNext-Regular" font-size="32.0" fill="#FFFFFF" transform="matrix(1.00, 0.00, -0.00, -1.00, 79.5, 195.0)">w</text><text xml:space="preserve" font-family="AvenirNext-Regular" font-size="32.0" fill="#FFFFFF" transform="matrix(1.00, 0.00, -0.00, -1.00, 103.4, 195.0)"> </text><text xml:space="preserve" font-family="AvenirNext-Regular" font-size="32.0" fill="#FFFFFF" transform="matrix(1.00, 0.00, -0.00, -1.00, 111.4, 195.0)">a</text><text xml:space="preserve" font-family="AvenirNext-Regular" font-size="32.0" fill="#FFFFFF" transform="matrix(1.00, 0.00, -0.00, -1.00, 128.5, 195.0)">r</text><text xml:space="preserve" font-family="AvenirNext-Regular" font-size="32.0" fill="#FFFFFF" transform="matrix(1.00, 0.00, -0.00, -1.00, 139.4, 195.0)">e</text><text xml:space="preserve" font-family="AvenirNext-Regular" font-size="32.0" fill="#FFFFFF" transform="matrix(1.00, 0.00, -0.00, -1.00, 157.7, 195.0)"> </text><text xml:space="preserve" font-family="AvenirNext-Regular" font-size="32.0" fill="#FFFFFF" transform="matrix(1.00, 0.00, -0.00, -1.00, 165.7, 195.0)">t</text><text xml:space="preserve" font-family="AvenirNext-Regular" font-size="32.0" fill="#FFFFFF" transform="matrix(1.00, 0.00, -0.00, -1.00, 175.9, 195.0)">h</text><text xml:space="preserve" font-family="AvenirNext-Regular" font-size="32.0" fill="#FFFFFF" transform="matrix(1.00, 0.00, -0.00, -1.00, 194.5, 195.0)">e</text><text xml:space="preserve" font-family="AvenirNext-Regular" font-size="32.0" fill="#FFFFFF" transform="matrix(1.00, 0.00, -0.00, -1.00, 212.8, 195.0)">y</text><text xml:space="preserve" font-family="AvenirNext-Regular" font-size="32.0" fill="#FFFFFF" transform="matrix(1.00, 0.00, -0.00, -1.00, 228.5, 195.0)"> </text><text xml:space="preserve" font-family="AvenirNext-Regular" font-size="32.0" fill="#FFFFFF" transform="matrix(1.00, 0.00, -0.00, -1.00, 236.5, 195.0)">u</text><text xml:space="preserve" font-family="AvenirNext-Regular" font-size="32.0" fill="#FFFFFF" transform="matrix(1.00, 0.00, -0.00, -1.00, 255.0, 195.0)">s</text><text xml:space="preserve" font-family="AvenirNext-Regular" font-size="32.0" fill="#FFFFFF" transform="matrix(1.00, 0.00, -0.00, -1.00, 269.3, 195.0)">e</text><text xml:space="preserve" font-family="AvenirNext-Regular" font-size="32.0" fill="#FFFFFF" transform="matrix(1.00, 0.00, -0.00, -1.00, 287.6, 195.0)">d</text><text xml:space="preserve" font-family="AvenirNext-Regular" font-size="32.0" fill="#FFFFFF" transform="matrix(1.00, 0.00, -0.00, -1.00, 307.9, 195.0)">?</text><text xml:space="preserve" font-family="AvenirNext-Regular" font-size="32.0" fill="#FFFFFF" transform="matrix(1.00, 0.00, -0.00, -1.00, 323.4, 195.0)"> </text><text xml:space="preserve" font-family="LucidaGrande" font-size="24.0" fill="#CACACA" transform="matrix(1.00, 0.00, -0.00, -1.00, 37.0, 134.1)">‣</text><text xml:space="preserve" font-family="AvenirNext-Regular" font-size="32.0" fill="#FFFFFF" transform="matrix(1.00, 0.00, -0.00, -1.00, 74.0, 133.0)">T</text><text xml:space="preserve" font-family="AvenirNext-Regular" font-size="32.0" fill="#FFFFFF" transform="matrix(1.00, 0.00, -0.00, -1.00, 89.2, 133.0)">e</text><text xml:space="preserve" font-family="AvenirNext-Regular" font-size="32.0" fill="#FFFFFF" transform="matrix(1.00, 0.00, -0.00, -1.00, 107.5, 133.0)">l</text><text xml:space="preserve" font-family="AvenirNext-Regular" font-size="32.0" fill="#FFFFFF" transform="matrix(1.00, 0.00, -0.00, -1.00, 115.5, 133.0)">l</text><text xml:space="preserve" font-family="AvenirNext-Regular" font-size="32.0" fill="#FFFFFF" transform="matrix(1.00, 0.00, -0.00, -1.00, 123.6, 133.0)"> </text><text xml:space="preserve" font-family="AvenirNext-Regular" font-size="32.0" fill="#FFFFFF" transform="matrix(1.00, 0.00, -0.00, -1.00, 131.2, 133.0)">W</text><text xml:space="preserve" font-family="AvenirNext-Regular" font-size="32.0" fill="#FFFFFF" transform="matrix(1.00, 0.00, -0.00, -1.00, 161.2, 133.0)">e</text><text xml:space="preserve" font-family="AvenirNext-Regular" font-size="32.0" fill="#FFFFFF" transform="matrix(1.00, 0.00, -0.00, -1.00, 179.5, 133.0)">b</text><text xml:space="preserve" font-family="AvenirNext-Regular" font-size="32.0" fill="#FFFFFF" transform="matrix(1.00, 0.00, -0.00, -1.00, 199.9, 133.0)">p</text><text xml:space="preserve" font-family="AvenirNext-Regular" font-size="32.0" fill="#FFFFFF" transform="matrix(1.00, 0.00, -0.00, -1.00, 220.2, 133.0)">a</text><text xml:space="preserve" font-family="AvenirNext-Regular" font-size="32.0" fill="#FFFFFF" transform="matrix(1.00, 0.00, -0.00, -1.00, 237.3, 133.0)">c</text><text xml:space="preserve" font-family="AvenirNext-Regular" font-size="32.0" fill="#FFFFFF" transform="matrix(1.00, 0.00, -0.00, -1.00, 253.3, 133.0)">k</text><text xml:space="preserve" font-family="AvenirNext-Regular" font-size="32.0" fill="#FFFFFF" transform="matrix(1.00, 0.00, -0.00, -1.00, 269.6, 133.0)"> </text><text xml:space="preserve" font-family="AvenirNext-Regular" font-size="32.0" fill="#FFFFFF" transform="matrix(1.00, 0.00, -0.00, -1.00, 277.6, 133.0)">w</text><text xml:space="preserve" font-family="AvenirNext-Regular" font-size="32.0" fill="#FFFFFF" transform="matrix(1.00, 0.00, -0.00, -1.00, 301.5, 133.0)">h</text><text xml:space="preserve" font-family="AvenirNext-Regular" font-size="32.0" fill="#FFFFFF" transform="matrix(1.00, 0.00, -0.00, -1.00, 320.1, 133.0)">a</text><text xml:space="preserve" font-family="AvenirNext-Regular" font-size="32.0" fill="#FFFFFF" transform="matrix(1.00, 0.00, -0.00, -1.00, 336.9, 133.0)">t</text><text xml:space="preserve" font-family="AvenirNext-Regular" font-size="32.0" fill="#FFFFFF" transform="matrix(1.00, 0.00, -0.00, -1.00, 347.0, 133.0)"> </text><text xml:space="preserve" font-family="AvenirNext-Regular" font-size="32.0" fill="#FFFFFF" transform="matrix(1.00, 0.00, -0.00, -1.00, 355.0, 133.0)">l</text><text xml:space="preserve" font-family="AvenirNext-Regular" font-size="32.0" fill="#FFFFFF" transform="matrix(1.00, 0.00, -0.00, -1.00, 363.1, 133.0)">o</text><text xml:space="preserve" font-family="AvenirNext-Regular" font-size="32.0" fill="#FFFFFF" transform="matrix(1.00, 0.00, -0.00, -1.00, 382.6, 133.0)">a</text><text xml:space="preserve" font-family="AvenirNext-Regular" font-size="32.0" fill="#FFFFFF" transform="matrix(1.00, 0.00, -0.00, -1.00, 399.7, 133.0)">d</text><text xml:space="preserve" font-family="AvenirNext-Regular" font-size="32.0" fill="#FFFFFF" transform="matrix(1.00, 0.00, -0.00, -1.00, 420.1, 133.0)">e</text><text xml:space="preserve" font-family="AvenirNext-Regular" font-size="32.0" fill="#FFFFFF" transform="matrix(1.00, 0.00, -0.00, -1.00, 438.4, 133.0)">r</text><text xml:space="preserve" font-family="AvenirNext-Regular" font-size="32.0" fill="#FFFFFF" transform="matrix(1.00, 0.00, -0.00, -1.00, 449.9, 133.0)">s</text><text xml:space="preserve" font-family="AvenirNext-Regular" font-size="32.0" fill="#FFFFFF" transform="matrix(1.00, 0.00, -0.00, -1.00, 464.1, 133.0)"> </text><text xml:space="preserve" font-family="AvenirNext-Regular" font-size="32.0" fill="#FFFFFF" transform="matrix(1.00, 0.00, -0.00, -1.00, 472.1, 133.0)">t</text><text xml:space="preserve" font-family="AvenirNext-Regular" font-size="32.0" fill="#FFFFFF" transform="matrix(1.00, 0.00, -0.00, -1.00, 482.3, 133.0)">o</text><text xml:space="preserve" font-family="AvenirNext-Regular" font-size="32.0" fill="#FFFFFF" transform="matrix(1.00, 0.00, -0.00, -1.00, 501.8, 133.0)"> </text><text xml:space="preserve" font-family="AvenirNext-Regular" font-size="32.0" fill="#FFFFFF" transform="matrix(1.00, 0.00, -0.00, -1.00, 509.8, 133.0)">a</text><text xml:space="preserve" font-family="AvenirNext-Regular" font-size="32.0" fill="#FFFFFF" transform="matrix(1.00, 0.00, -0.00, -1.00, 526.9, 133.0)">p</text><text xml:space="preserve" font-family="AvenirNext-Regular" font-size="32.0" fill="#FFFFFF" transform="matrix(1.00, 0.00, -0.00, -1.00, 547.2, 133.0)">p</text><text xml:space="preserve" font-family="AvenirNext-Regular" font-size="32.0" fill="#FFFFFF" transform="matrix(1.00, 0.00, -0.00, -1.00, 567.6, 133.0)">l</text><text xml:space="preserve" font-family="AvenirNext-Regular" font-size="32.0" fill="#FFFFFF" transform="matrix(1.00, 0.00, -0.00, -1.00, 575.6, 133.0)">y</text><text xml:space="preserve" font-family="AvenirNext-Regular" font-size="32.0" fill="#FFFFFF" transform="matrix(1.00, 0.00, -0.00, -1.00, 591.2, 133.0)"> </text><text xml:space="preserve" font-family="AvenirNext-Regular" font-size="32.0" fill="#FFFFFF" transform="matrix(1.00, 0.00, -0.00, -1.00, 599.2, 133.0)">i</text><text xml:space="preserve" font-family="AvenirNext-Regular" font-size="32.0" fill="#FFFFFF" transform="matrix(1.00, 0.00, -0.00, -1.00, 607.2, 133.0)">n</text><text xml:space="preserve" font-family="AvenirNext-Regular" font-size="32.0" fill="#FFFFFF" transform="matrix(1.00, 0.00, -0.00, -1.00, 625.8, 133.0)"> </text><text xml:space="preserve" font-family="AvenirNext-Regular" font-size="32.0" fill="#FFFFFF" transform="matrix(1.00, 0.00, -0.00, -1.00, 633.8, 133.0)">y</text><text xml:space="preserve" font-family="AvenirNext-Regular" font-size="32.0" fill="#FFFFFF" transform="matrix(1.00, 0.00, -0.00, -1.00, 649.5, 133.0)">o</text><text xml:space="preserve" font-family="AvenirNext-Regular" font-size="32.0" fill="#FFFFFF" transform="matrix(1.00, 0.00, -0.00, -1.00, 669.0, 133.0)">u</text><text xml:space="preserve" font-family="AvenirNext-Regular" font-size="32.0" fill="#FFFFFF" transform="matrix(1.00, 0.00, -0.00, -1.00, 687.6, 133.0)">r</text><text xml:space="preserve" font-family="AvenirNext-Regular" font-size="32.0" fill="#FFFFFF" transform="matrix(1.00, 0.00, -0.00, -1.00, 699.1, 133.0)"> </text><text xml:space="preserve" font-family="AvenirNext-Regular" font-size="32.0" fill="#FFFFFF" transform="matrix(1.00, 0.00, -0.00, -1.00, 707.1, 133.0)">c</text><text xml:space="preserve" font-family="AvenirNext-Regular" font-size="32.0" fill="#FFFFFF" transform="matrix(1.00, 0.00, -0.00, -1.00, 723.1, 133.0)">o</text><text xml:space="preserve" font-family="AvenirNext-Regular" font-size="32.0" fill="#FFFFFF" transform="matrix(1.00, 0.00, -0.00, -1.00, 742.7, 133.0)">n</text><text xml:space="preserve" font-family="AvenirNext-Regular" font-size="32.0" fill="#FFFFFF" transform="matrix(1.00, 0.00, -0.00, -1.00, 761.3, 133.0)">ﬁ</text><text xml:space="preserve" font-family="AvenirNext-Regular" font-size="32.0" fill="#FFFFFF" transform="matrix(1.00, 0.00, -0.00, -1.00, 778.7, 133.0)">g</text><text xml:space="preserve" font-family="AvenirNext-Regular" font-size="32.0" fill="#FFFFFF" transform="matrix(1.00, 0.00, -0.00, -1.00, 798.9, 133.0)"> </text><text xml:space="preserve" font-family="AvenirNext-Regular" font-size="32.0" fill="#FFFFFF" transform="matrix(1.00, 0.00, -0.00, -1.00, 806.9, 133.0)">ﬁ</text><text xml:space="preserve" font-family="AvenirNext-Regular" font-size="32.0" fill="#FFFFFF" transform="matrix(1.00, 0.00, -0.00, -1.00, 824.3, 133.0)">l</text><text xml:space="preserve" font-family="AvenirNext-Regular" font-size="32.0" fill="#FFFFFF" transform="matrix(1.00, 0.00, -0.00, -1.00, 832.4, 133.0)">e</text><text xml:space="preserve" font-family="AvenirNext-Regular" font-size="32.0" fill="#FFFFFF" transform="matrix(1.00, 0.00, -0.00, -1.00, 850.7, 133.0)"> </text><text xml:space="preserve" font-family="LucidaGrande" font-size="24.0" fill="#CACACA" transform="matrix(1.00, 0.00, -0.00, -1.00, 74.0, 72.1)">‣</text><text xml:space="preserve" font-family="AvenirNext-Regular" font-size="32.0" fill="#FFFFFF" transform="matrix(1.00, 0.00, -0.00, -1.00, 111.0, 71.0)">C</text><text xml:space="preserve" font-family="AvenirNext-Regular" font-size="32.0" fill="#FFFFFF" transform="matrix(1.00, 0.00, -0.00, -1.00, 133.5, 71.0)">a</text><text xml:space="preserve" font-family="AvenirNext-Regular" font-size="32.0" fill="#FFFFFF" transform="matrix(1.00, 0.00, -0.00, -1.00, 150.6, 71.0)">n</text><text xml:space="preserve" font-family="AvenirNext-Regular" font-size="32.0" fill="#FFFFFF" transform="matrix(1.00, 0.00, -0.00, -1.00, 169.1, 71.0)"> </text><text xml:space="preserve" font-family="AvenirNext-Regular" font-size="32.0" fill="#FFFFFF" transform="matrix(1.00, 0.00, -0.00, -1.00, 177.1, 71.0)">b</text><text xml:space="preserve" font-family="AvenirNext-Regular" font-size="32.0" fill="#FFFFFF" transform="matrix(1.00, 0.00, -0.00, -1.00, 197.5, 71.0)">e</text><text xml:space="preserve" font-family="AvenirNext-Regular" font-size="32.0" fill="#FFFFFF" transform="matrix(1.00, 0.00, -0.00, -1.00, 215.8, 71.0)"> </text><text xml:space="preserve" font-family="AvenirNext-Regular" font-size="32.0" fill="#FFFFFF" transform="matrix(1.00, 0.00, -0.00, -1.00, 223.8, 71.0)">a</text><text xml:space="preserve" font-family="AvenirNext-Regular" font-size="32.0" fill="#FFFFFF" transform="matrix(1.00, 0.00, -0.00, -1.00, 240.9, 71.0)">p</text><text xml:space="preserve" font-family="AvenirNext-Regular" font-size="32.0" fill="#FFFFFF" transform="matrix(1.00, 0.00, -0.00, -1.00, 261.2, 71.0)">p</text><text xml:space="preserve" font-family="AvenirNext-Regular" font-size="32.0" fill="#FFFFFF" transform="matrix(1.00, 0.00, -0.00, -1.00, 281.6, 71.0)">l</text><text xml:space="preserve" font-family="AvenirNext-Regular" font-size="32.0" fill="#FFFFFF" transform="matrix(1.00, 0.00, -0.00, -1.00, 289.6, 71.0)">i</text><text xml:space="preserve" font-family="AvenirNext-Regular" font-size="32.0" fill="#FFFFFF" transform="matrix(1.00, 0.00, -0.00, -1.00, 297.6, 71.0)">e</text><text xml:space="preserve" font-family="AvenirNext-Regular" font-size="32.0" fill="#FFFFFF" transform="matrix(1.00, 0.00, -0.00, -1.00, 315.9, 71.0)">d</text><text xml:space="preserve" font-family="AvenirNext-Regular" font-size="32.0" fill="#FFFFFF" transform="matrix(1.00, 0.00, -0.00, -1.00, 336.3, 71.0)"> </text><text xml:space="preserve" font-family="AvenirNext-Regular" font-size="32.0" fill="#FFFFFF" transform="matrix(1.00, 0.00, -0.00, -1.00, 344.3, 71.0)">s</text><text xml:space="preserve" font-family="AvenirNext-Regular" font-size="32.0" fill="#FFFFFF" transform="matrix(1.00, 0.00, -0.00, -1.00, 358.5, 71.0)">e</text><text xml:space="preserve" font-family="AvenirNext-Regular" font-size="32.0" fill="#FFFFFF" transform="matrix(1.00, 0.00, -0.00, -1.00, 376.8, 71.0)">l</text><text xml:space="preserve" font-family="AvenirNext-Regular" font-size="32.0" fill="#FFFFFF" transform="matrix(1.00, 0.00, -0.00, -1.00, 384.9, 71.0)">e</text><text xml:space="preserve" font-family="AvenirNext-Regular" font-size="32.0" fill="#FFFFFF" transform="matrix(1.00, 0.00, -0.00, -1.00, 403.2, 71.0)">c</text><text xml:space="preserve" font-family="AvenirNext-Regular" font-size="32.0" fill="#FFFFFF" transform="matrix(1.00, 0.00, -0.00, -1.00, 419.2, 71.0)">t</text><text xml:space="preserve" font-family="AvenirNext-Regular" font-size="32.0" fill="#FFFFFF" transform="matrix(1.00, 0.00, -0.00, -1.00, 429.3, 71.0)">i</text><text xml:space="preserve" font-family="AvenirNext-Regular" font-size="32.0" fill="#FFFFFF" transform="matrix(1.00, 0.00, -0.00, -1.00, 437.3, 71.0)">v</text><text xml:space="preserve" font-family="AvenirNext-Regular" font-size="32.0" fill="#FFFFFF" transform="matrix(1.00, 0.00, -0.00, -1.00, 453.0, 71.0)">e</text><text xml:space="preserve" font-family="AvenirNext-Regular" font-size="32.0" fill="#FFFFFF" transform="matrix(1.00, 0.00, -0.00, -1.00, 471.3, 71.0)">l</text><text xml:space="preserve" font-family="AvenirNext-Regular" font-size="32.0" fill="#FFFFFF" transform="matrix(1.00, 0.00, -0.00, -1.00, 479.3, 71.0)">y</text><text xml:space="preserve" font-family="AvenirNext-Regular" font-size="32.0" fill="#FFFFFF" transform="matrix(1.00, 0.00, -0.00, -1.00, 494.9, 71.0)"> </text><text xml:space="preserve" font-family="AvenirNext-Regular" font-size="32.0" fill="#FFFFFF" transform="matrix(1.00, 0.00, -0.00, -1.00, 502.9, 71.0)">w</text><text xml:space="preserve" font-family="AvenirNext-Regular" font-size="32.0" fill="#FFFFFF" transform="matrix(1.00, 0.00, -0.00, -1.00, 526.8, 71.0)">i</text><text xml:space="preserve" font-family="AvenirNext-Regular" font-size="32.0" fill="#FFFFFF" transform="matrix(1.00, 0.00, -0.00, -1.00, 534.8, 71.0)">t</text><text xml:space="preserve" font-family="AvenirNext-Regular" font-size="32.0" fill="#FFFFFF" transform="matrix(1.00, 0.00, -0.00, -1.00, 545.0, 71.0)">h</text><text xml:space="preserve" font-family="AvenirNext-Regular" font-size="32.0" fill="#FFFFFF" transform="matrix(1.00, 0.00, -0.00, -1.00, 563.6, 71.0)"> </text><text xml:space="preserve" font-family="AvenirNext-Regular" font-size="32.0" fill="#FFFFFF" transform="matrix(1.00, 0.00, -0.00, -1.00, 571.6, 71.0)">r</text><text xml:space="preserve" font-family="AvenirNext-Regular" font-size="32.0" fill="#FFFFFF" transform="matrix(1.00, 0.00, -0.00, -1.00, 582.6, 71.0)">e</text><text xml:space="preserve" font-family="AvenirNext-Regular" font-size="32.0" fill="#FFFFFF" transform="matrix(1.00, 0.00, -0.00, -1.00, 600.9, 71.0)">g</text><text xml:space="preserve" font-family="AvenirNext-Regular" font-size="32.0" fill="#FFFFFF" transform="matrix(1.00, 0.00, -0.00, -1.00, 621.1, 71.0)">e</text><text xml:space="preserve" font-family="AvenirNext-Regular" font-size="32.0" fill="#FFFFFF" transform="matrix(1.00, 0.00, -0.00, -1.00, 639.2, 71.0)">x</text><text xml:space="preserve" font-family="AvenirNext-Regular" font-size="32.0" fill="#FFFFFF" transform="matrix(1.00, 0.00, -0.00, -1.00, 654.7, 71.0)"> </text><text xml:space="preserve" font-family="LucidaGrande" font-size="24.0" fill="#CACACA" transform="matrix(1.00, 0.00, -0.00, -1.00, 37.0, 10.1)">‣</text><text xml:space="preserve" font-family="AvenirNext-Regular" font-size="32.0" fill="#FFFFFF" transform="matrix(1.00, 0.00, -0.00, -1.00, 74.0, 9.0)">T</text><text xml:space="preserve" font-family="AvenirNext-Regular" font-size="32.0" fill="#FFFFFF" transform="matrix(1.00, 0.00, -0.00, -1.00, 91.7, 9.0)">h</text><text xml:space="preserve" font-family="AvenirNext-Regular" font-size="32.0" fill="#FFFFFF" transform="matrix(1.00, 0.00, -0.00, -1.00, 110.3, 9.0)">e</text><text xml:space="preserve" font-family="AvenirNext-Regular" font-size="32.0" fill="#FFFFFF" transform="matrix(1.00, 0.00, -0.00, -1.00, 128.6, 9.0)">y</text><text xml:space="preserve" font-family="AvenirNext-Regular" font-size="32.0" fill="#FFFFFF" transform="matrix(1.00, 0.00, -0.00, -1.00, 144.2, 9.0)"> </text><text xml:space="preserve" font-family="AvenirNext-Regular" font-size="32.0" fill="#FFFFFF" transform="matrix(1.00, 0.00, -0.00, -1.00, 152.2, 9.0)">c</text><text xml:space="preserve" font-family="AvenirNext-Regular" font-size="32.0" fill="#FFFFFF" transform="matrix(1.00, 0.00, -0.00, -1.00, 168.2, 9.0)">a</text><text xml:space="preserve" font-family="AvenirNext-Regular" font-size="32.0" fill="#FFFFFF" transform="matrix(1.00, 0.00, -0.00, -1.00, 185.3, 9.0)">n</text><text xml:space="preserve" font-family="AvenirNext-Regular" font-size="32.0" fill="#FFFFFF" transform="matrix(1.00, 0.00, -0.00, -1.00, 203.9, 9.0)"> </text><text xml:space="preserve" font-family="AvenirNext-Regular" font-size="32.0" fill="#FFFFFF" transform="matrix(1.00, 0.00, -0.00, -1.00, 211.9, 9.0)">b</text><text xml:space="preserve" font-family="AvenirNext-Regular" font-size="32.0" fill="#FFFFFF" transform="matrix(1.00, 0.00, -0.00, -1.00, 232.3, 9.0)">e</text><text xml:space="preserve" font-family="AvenirNext-Regular" font-size="32.0" fill="#FFFFFF" transform="matrix(1.00, 0.00, -0.00, -1.00, 250.6, 9.0)"> </text><text xml:space="preserve" font-family="AvenirNext-Regular" font-size="32.0" fill="#FFFFFF" transform="matrix(1.00, 0.00, -0.00, -1.00, 258.6, 9.0)">c</text><text xml:space="preserve" font-family="AvenirNext-Regular" font-size="32.0" fill="#FFFFFF" transform="matrix(1.00, 0.00, -0.00, -1.00, 274.6, 9.0)">h</text><text xml:space="preserve" font-family="AvenirNext-Regular" font-size="32.0" fill="#FFFFFF" transform="matrix(1.00, 0.00, -0.00, -1.00, 293.3, 9.0)">a</text><text xml:space="preserve" font-family="AvenirNext-Regular" font-size="32.0" fill="#FFFFFF" transform="matrix(1.00, 0.00, -0.00, -1.00, 310.4, 9.0)">i</text><text xml:space="preserve" font-family="AvenirNext-Regular" font-size="32.0" fill="#FFFFFF" transform="matrix(1.00, 0.00, -0.00, -1.00, 318.4, 9.0)">n</text><text xml:space="preserve" font-family="AvenirNext-Regular" font-size="32.0" fill="#FFFFFF" transform="matrix(1.00, 0.00, -0.00, -1.00, 336.9, 9.0)">e</text><text xml:space="preserve" font-family="AvenirNext-Regular" font-size="32.0" fill="#FFFFFF" transform="matrix(1.00, 0.00, -0.00, -1.00, 355.2, 9.0)">d</text><text xml:space="preserve" font-family="AvenirNext-Regular" font-size="32.0" fill="#FFFFFF" transform="matrix(1.00, 0.00, -0.00, -1.00, 375.6, 9.0)"> </text><text xml:space="preserve" font-family="AvenirNext-Regular" font-size="32.0" fill="#FFFFFF" transform="matrix(1.00, 0.00, -0.00, -1.00, 383.6, 9.0)">t</text><text xml:space="preserve" font-family="AvenirNext-Regular" font-size="32.0" fill="#FFFFFF" transform="matrix(1.00, 0.00, -0.00, -1.00, 393.8, 9.0)">o</text><text xml:space="preserve" font-family="AvenirNext-Regular" font-size="32.0" fill="#FFFFFF" transform="matrix(1.00, 0.00, -0.00, -1.00, 413.3, 9.0)">g</text><text xml:space="preserve" font-family="AvenirNext-Regular" font-size="32.0" fill="#FFFFFF" transform="matrix(1.00, 0.00, -0.00, -1.00, 433.6, 9.0)">e</text><text xml:space="preserve" font-family="AvenirNext-Regular" font-size="32.0" fill="#FFFFFF" transform="matrix(1.00, 0.00, -0.00, -1.00, 451.9, 9.0)">t</text><text xml:space="preserve" font-family="AvenirNext-Regular" font-size="32.0" fill="#FFFFFF" transform="matrix(1.00, 0.00, -0.00, -1.00, 462.0, 9.0)">h</text><text xml:space="preserve" font-family="AvenirNext-Regular" font-size="32.0" fill="#FFFFFF" transform="matrix(1.00, 0.00, -0.00, -1.00, 480.7, 9.0)">e</text><text xml:space="preserve" font-family="AvenirNext-Regular" font-size="32.0" fill="#FFFFFF" transform="matrix(1.00, 0.00, -0.00, -1.00, 499.0, 9.0)">r</text><text xml:space="preserve" font-family="AvenirNext-Regular" font-size="32.0" fill="#FFFFFF" transform="matrix(1.00, 0.00, -0.00, -1.00, 510.5, 9.0)"> </text><text xml:space="preserve" font-family="AvenirNext-Regular" font-size="32.0" fill="#FFFFFF" transform="matrix(1.00, 0.00, -0.00, -1.00, 518.5, 9.0)">i</text><text xml:space="preserve" font-family="AvenirNext-Regular" font-size="32.0" fill="#FFFFFF" transform="matrix(1.00, 0.00, -0.00, -1.00, 526.5, 9.0)">n</text><text xml:space="preserve" font-family="AvenirNext-Regular" font-size="32.0" fill="#FFFFFF" transform="matrix(1.00, 0.00, -0.00, -1.00, 545.1, 9.0)"> </text><text xml:space="preserve" font-family="AvenirNext-Regular" font-size="32.0" fill="#FFFFFF" transform="matrix(1.00, 0.00, -0.00, -1.00, 553.1, 9.0)">w</text><text xml:space="preserve" font-family="AvenirNext-Regular" font-size="32.0" fill="#FFFFFF" transform="matrix(1.00, 0.00, -0.00, -1.00, 576.9, 9.0)">h</text><text xml:space="preserve" font-family="AvenirNext-Regular" font-size="32.0" fill="#FFFFFF" transform="matrix(1.00, 0.00, -0.00, -1.00, 595.6, 9.0)">a</text><text xml:space="preserve" font-family="AvenirNext-Regular" font-size="32.0" fill="#FFFFFF" transform="matrix(1.00, 0.00, -0.00, -1.00, 612.4, 9.0)">t</text><text xml:space="preserve" font-family="AvenirNext-Regular" font-size="32.0" fill="#FFFFFF" transform="matrix(1.00, 0.00, -0.00, -1.00, 622.5, 9.0)">e</text><text xml:space="preserve" font-family="AvenirNext-Regular" font-size="32.0" fill="#FFFFFF" transform="matrix(1.00, 0.00, -0.00, -1.00, 640.8, 9.0)">v</text><text xml:space="preserve" font-family="AvenirNext-Regular" font-size="32.0" fill="#FFFFFF" transform="matrix(1.00, 0.00, -0.00, -1.00, 656.4, 9.0)">e</text><text xml:space="preserve" font-family="AvenirNext-Regular" font-size="32.0" fill="#FFFFFF" transform="matrix(1.00, 0.00, -0.00, -1.00, 674.7, 9.0)">r</text><text xml:space="preserve" font-family="AvenirNext-Regular" font-size="32.0" fill="#FFFFFF" transform="matrix(1.00, 0.00, -0.00, -1.00, 686.3, 9.0)"> </text><text xml:space="preserve" font-family="AvenirNext-Regular" font-size="32.0" fill="#FFFFFF" transform="matrix(1.00, 0.00, -0.00, -1.00, 694.3, 9.0)">o</text><text xml:space="preserve" font-family="AvenirNext-Regular" font-size="32.0" fill="#FFFFFF" transform="matrix(1.00, 0.00, -0.00, -1.00, 713.8, 9.0)">r</text><text xml:space="preserve" font-family="AvenirNext-Regular" font-size="32.0" fill="#FFFFFF" transform="matrix(1.00, 0.00, -0.00, -1.00, 724.8, 9.0)">d</text><text xml:space="preserve" font-family="AvenirNext-Regular" font-size="32.0" fill="#FFFFFF" transform="matrix(1.00, 0.00, -0.00, -1.00, 745.1, 9.0)">e</text><text xml:space="preserve" font-family="AvenirNext-Regular" font-size="32.0" fill="#FFFFFF" transform="matrix(1.00, 0.00, -0.00, -1.00, 763.4, 9.0)">r</text><text xml:space="preserve" font-family="AvenirNext-Regular" font-size="32.0" fill="#FFFFFF" transform="matrix(1.00, 0.00, -0.00, -1.00, 775.0, 9.0)"> </text><text xml:space="preserve" font-family="AvenirNext-Regular" font-size="32.0" fill="#FFFFFF" transform="matrix(1.00, 0.00, -0.00, -1.00, 783.0, 9.0)">y</text><text xml:space="preserve" font-family="AvenirNext-Regular" font-size="32.0" fill="#FFFFFF" transform="matrix(1.00, 0.00, -0.00, -1.00, 798.6, 9.0)">o</text><text xml:space="preserve" font-family="AvenirNext-Regular" font-size="32.0" fill="#FFFFFF" transform="matrix(1.00, 0.00, -0.00, -1.00, 818.1, 9.0)">u</text><text xml:space="preserve" font-family="AvenirNext-Regular" font-size="32.0" fill="#FFFFFF" transform="matrix(1.00, 0.00, -0.00, -1.00, 836.7, 9.0)"> </text><text xml:space="preserve" font-family="AvenirNext-Regular" font-size="32.0" fill="#FFFFFF" transform="matrix(1.00, 0.00, -0.00, -1.00, 844.7, 9.0)">w</text><text xml:space="preserve" font-family="AvenirNext-Regular" font-size="32.0" fill="#FFFFFF" transform="matrix(1.00, 0.00, -0.00, -1.00, 868.6, 9.0)">a</text><text xml:space="preserve" font-family="AvenirNext-Regular" font-size="32.0" fill="#FFFFFF" transform="matrix(1.00, 0.00, -0.00, -1.00, 885.7, 9.0)">n</text><text xml:space="preserve" font-family="AvenirNext-Regular" font-size="32.0" fill="#FFFFFF" transform="matrix(1.00, 0.00, -0.00, -1.00, 904.3, 9.0)">t</text></g></svg>