<?xml version="1.0" encoding="UTF-8" standalone="no"?><svg xmlns="http://www.w3.org/2000/svg" xmlns:xlink="http://www.w3.org/1999/xlink" clip-rule="evenodd" stroke-miterlimit="4.00" viewBox="0 0 382 43"><desc>SVG generated by Keynote</desc><defs></defs><g transform="matrix(1.00, 0.00, -0.00, -1.00, 0.0, 43.0)"><g><clipPath id="clip-5022"><path d="M 0.0 0.0 L 382.0 0.0 L 382.0 41.0 L 0.0 41.0 Z M 0.0 0.0 "></path></clipPath><g clip-path="url(#clip-5022)"><text xml:space="preserve" font-family="DINCondensed-Bold" font-weight="bold" font-size="54.8" fill="#DE7D67" transform="matrix(1.00, 0.00, -0.00, -1.00, -1.0, 2.0)">M</text><text xml:space="preserve" font-family="DINCondensed-Bold" font-weight="bold" font-size="54.8" fill="#DE7D67" transform="matrix(1.00, 0.00, -0.00, -1.00, 29.5, 2.0)">O</text><text xml:space="preserve" font-family="DINCondensed-Bold" font-weight="bold" font-size="54.8" fill="#DE7D67" transform="matrix(1.00, 0.00, -0.00, -1.00, 52.8, 2.0)">R</text><text xml:space="preserve" font-family="DINCondensed-Bold" font-weight="bold" font-size="54.8" fill="#DE7D67" transform="matrix(1.00, 0.00, -0.00, -1.00, 76.2, 2.0)">E</text><text xml:space="preserve" font-family="DINCondensed-Bold" font-weight="bold" font-size="54.8" fill="#DE7D67" transform="matrix(1.00, 0.00, -0.00, -1.00, 96.4, 2.0)"> </text><text xml:space="preserve" font-family="DINCondensed-Bold" font-weight="bold" font-size="54.8" fill="#DE7D67" transform="matrix(1.00, 0.00, -0.00, -1.00, 106.6, 2.0)">A</text><text xml:space="preserve" font-family="DINCondensed-Bold" font-weight="bold" font-size="54.8" fill="#DE7D67" transform="matrix(1.00, 0.00, -0.00, -1.00, 128.9, 2.0)">B</text><text xml:space="preserve" font-family="DINCondensed-Bold" font-weight="bold" font-size="54.8" fill="#DE7D67" transform="matrix(1.00, 0.00, -0.00, -1.00, 152.3, 2.0)">O</text><text xml:space="preserve" font-family="DINCondensed-Bold" font-weight="bold" font-size="54.8" fill="#DE7D67" transform="matrix(1.00, 0.00, -0.00, -1.00, 175.6, 2.0)">U</text><text xml:space="preserve" font-family="DINCondensed-Bold" font-weight="bold" font-size="54.8" fill="#DE7D67" transform="matrix(1.00, 0.00, -0.00, -1.00, 199.0, 2.0)">T</text><text xml:space="preserve" font-family="DINCondensed-Bold" font-weight="bold" font-size="54.8" fill="#DE7D67" transform="matrix(1.00, 0.00, -0.00, -1.00, 217.2, 2.0)"> </text><text xml:space="preserve" font-family="DINCondensed-Bold" font-weight="bold" font-size="54.8" fill="#DE7D67" transform="matrix(1.00, 0.00, -0.00, -1.00, 227.4, 2.0)">L</text><text xml:space="preserve" font-family="DINCondensed-Bold" font-weight="bold" font-size="54.8" fill="#DE7D67" transform="matrix(1.00, 0.00, -0.00, -1.00, 247.6, 2.0)">O</text><text xml:space="preserve" font-family="DINCondensed-Bold" font-weight="bold" font-size="54.8" fill="#DE7D67" transform="matrix(1.00, 0.00, -0.00, -1.00, 270.3, 2.0)">A</text><text xml:space="preserve" font-family="DINCondensed-Bold" font-weight="bold" font-size="54.8" fill="#DE7D67" transform="matrix(1.00, 0.00, -0.00, -1.00, 292.6, 2.0)">D</text><text xml:space="preserve" font-family="DINCondensed-Bold" font-weight="bold" font-size="54.8" fill="#DE7D67" transform="matrix(1.00, 0.00, -0.00, -1.00, 316.0, 2.0)">E</text><text xml:space="preserve" font-family="DINCondensed-Bold" font-weight="bold" font-size="54.8" fill="#DE7D67" transform="matrix(1.00, 0.00, -0.00, -1.00, 336.2, 2.0)">R</text><text xml:space="preserve" font-family="DINCondensed-Bold" font-weight="bold" font-size="54.8" fill="#DE7D67" transform="matrix(1.00, 0.00, -0.00, -1.00, 359.6, 2.0)">S</text></g></g></g></svg>