<?xml version="1.0" encoding="UTF-8" standalone="no"?><svg xmlns="http://www.w3.org/2000/svg" xmlns:xlink="http://www.w3.org/1999/xlink" clip-rule="evenodd" stroke-miterlimit="4.00" viewBox="0 0 876 182"><desc>SVG generated by Keynote</desc><defs></defs><g transform="matrix(1.00, 0.00, -0.00, -1.00, 0.0, 182.0)"><text xml:space="preserve" font-family="LucidaGrande" font-size="21.4" fill="#CACACA" transform="matrix(1.00, 0.00, -0.00, -1.00, 0.0, 154.4)">‣</text><text xml:space="preserve" font-family="AvenirNext-Regular" font-size="28.5" fill="#FFFFFF" transform="matrix(1.00, 0.00, -0.00, -1.00, 33.0, 154.0)">P</text><text xml:space="preserve" font-family="AvenirNext-Regular" font-size="28.5" fill="#FFFFFF" transform="matrix(1.00, 0.00, -0.00, -1.00, 48.2, 154.0)">r</text><text xml:space="preserve" font-family="AvenirNext-Regular" font-size="28.5" fill="#FFFFFF" transform="matrix(1.00, 0.00, -0.00, -1.00, 57.9, 154.0)">o</text><text xml:space="preserve" font-family="AvenirNext-Regular" font-size="28.5" fill="#FFFFFF" transform="matrix(1.00, 0.00, -0.00, -1.00, 75.3, 154.0)">b</text><text xml:space="preserve" font-family="AvenirNext-Regular" font-size="28.5" fill="#FFFFFF" transform="matrix(1.00, 0.00, -0.00, -1.00, 93.4, 154.0)">l</text><text xml:space="preserve" font-family="AvenirNext-Regular" font-size="28.5" fill="#FFFFFF" transform="matrix(1.00, 0.00, -0.00, -1.00, 100.6, 154.0)">e</text><text xml:space="preserve" font-family="AvenirNext-Regular" font-size="28.5" fill="#FFFFFF" transform="matrix(1.00, 0.00, -0.00, -1.00, 116.9, 154.0)">m</text><text xml:space="preserve" font-family="AvenirNext-Regular" font-size="28.5" fill="#FFFFFF" transform="matrix(1.00, 0.00, -0.00, -1.00, 142.0, 154.0)">:</text><text xml:space="preserve" font-family="AvenirNext-Regular" font-size="28.5" fill="#FFFFFF" transform="matrix(1.00, 0.00, -0.00, -1.00, 150.6, 154.0)"> </text><text xml:space="preserve" font-family="AvenirNext-Regular" font-size="28.5" fill="#FFFFFF" transform="matrix(1.00, 0.00, -0.00, -1.00, 157.7, 154.0)">d</text><text xml:space="preserve" font-family="AvenirNext-Regular" font-size="28.5" fill="#FFFFFF" transform="matrix(1.00, 0.00, -0.00, -1.00, 175.9, 154.0)">i</text><text xml:space="preserve" font-family="AvenirNext-Regular" font-size="28.5" fill="#FFFFFF" transform="matrix(1.00, 0.00, -0.00, -1.00, 183.0, 154.0)">f</text><text xml:space="preserve" font-family="AvenirNext-Regular" font-size="28.5" fill="#FFFFFF" transform="matrix(1.00, 0.00, -0.00, -1.00, 190.9, 154.0)">ﬁ</text><text xml:space="preserve" font-family="AvenirNext-Regular" font-size="28.5" fill="#FFFFFF" transform="matrix(1.00, 0.00, -0.00, -1.00, 206.4, 154.0)">c</text><text xml:space="preserve" font-family="AvenirNext-Regular" font-size="28.5" fill="#FFFFFF" transform="matrix(1.00, 0.00, -0.00, -1.00, 220.6, 154.0)">u</text><text xml:space="preserve" font-family="AvenirNext-Regular" font-size="28.5" fill="#FFFFFF" transform="matrix(1.00, 0.00, -0.00, -1.00, 237.1, 154.0)">l</text><text xml:space="preserve" font-family="AvenirNext-Regular" font-size="28.5" fill="#FFFFFF" transform="matrix(1.00, 0.00, -0.00, -1.00, 244.3, 154.0)">t</text><text xml:space="preserve" font-family="AvenirNext-Regular" font-size="28.5" fill="#FFFFFF" transform="matrix(1.00, 0.00, -0.00, -1.00, 253.3, 154.0)"> </text><text xml:space="preserve" font-family="AvenirNext-Regular" font-size="28.5" fill="#FFFFFF" transform="matrix(1.00, 0.00, -0.00, -1.00, 260.5, 154.0)">t</text><text xml:space="preserve" font-family="AvenirNext-Regular" font-size="28.5" fill="#FFFFFF" transform="matrix(1.00, 0.00, -0.00, -1.00, 269.5, 154.0)">o</text><text xml:space="preserve" font-family="AvenirNext-Regular" font-size="28.5" fill="#FFFFFF" transform="matrix(1.00, 0.00, -0.00, -1.00, 286.9, 154.0)"> </text><text xml:space="preserve" font-family="AvenirNext-Regular" font-size="28.5" fill="#FFFFFF" transform="matrix(1.00, 0.00, -0.00, -1.00, 294.0, 154.0)">m</text><text xml:space="preserve" font-family="AvenirNext-Regular" font-size="28.5" fill="#FFFFFF" transform="matrix(1.00, 0.00, -0.00, -1.00, 319.2, 154.0)">a</text><text xml:space="preserve" font-family="AvenirNext-Regular" font-size="28.5" fill="#FFFFFF" transform="matrix(1.00, 0.00, -0.00, -1.00, 334.4, 154.0)">n</text><text xml:space="preserve" font-family="AvenirNext-Regular" font-size="28.5" fill="#FFFFFF" transform="matrix(1.00, 0.00, -0.00, -1.00, 350.9, 154.0)">a</text><text xml:space="preserve" font-family="AvenirNext-Regular" font-size="28.5" fill="#FFFFFF" transform="matrix(1.00, 0.00, -0.00, -1.00, 366.1, 154.0)">g</text><text xml:space="preserve" font-family="AvenirNext-Regular" font-size="28.5" fill="#FFFFFF" transform="matrix(1.00, 0.00, -0.00, -1.00, 384.1, 154.0)">e</text><text xml:space="preserve" font-family="AvenirNext-Regular" font-size="28.5" fill="#FFFFFF" transform="matrix(1.00, 0.00, -0.00, -1.00, 400.4, 154.0)"> </text><text xml:space="preserve" font-family="AvenirNext-Regular" font-size="28.5" fill="#FFFFFF" transform="matrix(1.00, 0.00, -0.00, -1.00, 407.5, 154.0)">n</text><text xml:space="preserve" font-family="AvenirNext-Regular" font-size="28.5" fill="#FFFFFF" transform="matrix(1.00, 0.00, -0.00, -1.00, 424.1, 154.0)">e</text><text xml:space="preserve" font-family="AvenirNext-Regular" font-size="28.5" fill="#FFFFFF" transform="matrix(1.00, 0.00, -0.00, -1.00, 440.4, 154.0)">c</text><text xml:space="preserve" font-family="AvenirNext-Regular" font-size="28.5" fill="#FFFFFF" transform="matrix(1.00, 0.00, -0.00, -1.00, 454.6, 154.0)">e</text><text xml:space="preserve" font-family="AvenirNext-Regular" font-size="28.5" fill="#FFFFFF" transform="matrix(1.00, 0.00, -0.00, -1.00, 470.9, 154.0)">s</text><text xml:space="preserve" font-family="AvenirNext-Regular" font-size="28.5" fill="#FFFFFF" transform="matrix(1.00, 0.00, -0.00, -1.00, 483.6, 154.0)">s</text><text xml:space="preserve" font-family="AvenirNext-Regular" font-size="28.5" fill="#FFFFFF" transform="matrix(1.00, 0.00, -0.00, -1.00, 496.2, 154.0)">a</text><text xml:space="preserve" font-family="AvenirNext-Regular" font-size="28.5" fill="#FFFFFF" transform="matrix(1.00, 0.00, -0.00, -1.00, 511.4, 154.0)">r</text><text xml:space="preserve" font-family="AvenirNext-Regular" font-size="28.5" fill="#FFFFFF" transform="matrix(1.00, 0.00, -0.00, -1.00, 521.7, 154.0)">y</text><text xml:space="preserve" font-family="AvenirNext-Regular" font-size="28.5" fill="#FFFFFF" transform="matrix(1.00, 0.00, -0.00, -1.00, 535.6, 154.0)"> </text><text xml:space="preserve" font-family="AvenirNext-Regular" font-size="28.5" fill="#FFFFFF" transform="matrix(1.00, 0.00, -0.00, -1.00, 542.7, 154.0)">t</text><text xml:space="preserve" font-family="AvenirNext-Regular" font-size="28.5" fill="#FFFFFF" transform="matrix(1.00, 0.00, -0.00, -1.00, 551.7, 154.0)">r</text><text xml:space="preserve" font-family="AvenirNext-Regular" font-size="28.5" fill="#FFFFFF" transform="matrix(1.00, 0.00, -0.00, -1.00, 561.6, 154.0)">a</text><text xml:space="preserve" font-family="AvenirNext-Regular" font-size="28.5" fill="#FFFFFF" transform="matrix(1.00, 0.00, -0.00, -1.00, 576.8, 154.0)">n</text><text xml:space="preserve" font-family="AvenirNext-Regular" font-size="28.5" fill="#FFFFFF" transform="matrix(1.00, 0.00, -0.00, -1.00, 593.4, 154.0)">s</text><text xml:space="preserve" font-family="AvenirNext-Regular" font-size="28.5" fill="#FFFFFF" transform="matrix(1.00, 0.00, -0.00, -1.00, 606.0, 154.0)">f</text><text xml:space="preserve" font-family="AvenirNext-Regular" font-size="28.5" fill="#FFFFFF" transform="matrix(1.00, 0.00, -0.00, -1.00, 614.4, 154.0)">o</text><text xml:space="preserve" font-family="AvenirNext-Regular" font-size="28.5" fill="#FFFFFF" transform="matrix(1.00, 0.00, -0.00, -1.00, 631.8, 154.0)">r</text><text xml:space="preserve" font-family="AvenirNext-Regular" font-size="28.5" fill="#FFFFFF" transform="matrix(1.00, 0.00, -0.00, -1.00, 642.1, 154.0)">m</text><text xml:space="preserve" font-family="AvenirNext-Regular" font-size="28.5" fill="#FFFFFF" transform="matrix(1.00, 0.00, -0.00, -1.00, 667.2, 154.0)">s</text><text xml:space="preserve" font-family="AvenirNext-Regular" font-size="28.5" fill="#FFFFFF" transform="matrix(1.00, 0.00, -0.00, -1.00, 679.9, 154.0)"> </text><g><clipPath id="clip-1558"><path d="M 31.9 159.1 L 679.8 159.1 L 679.8 162.8 L 31.9 162.8 Z M 31.9 159.1 "></path></clipPath><g clip-path="url(#clip-1558)"><path d="M 36.9 387.0 L 683.8 387.0 " fill="none" stroke="#FFFFFF" stroke-width="1.67" stroke-miterlimit="0.00" transform="matrix(1.00, 0.00, 0.00, -1.00, -4.0, 548.0)"></path></g></g><text xml:space="preserve" font-family="LucidaGrande" font-size="21.4" fill="#CACACA" transform="matrix(1.00, 0.00, -0.00, -1.00, 37.0, 100.4)">‣</text><text xml:space="preserve" font-family="AvenirNext-Regular" font-size="28.5" fill="#FFFFFF" transform="matrix(1.00, 0.00, -0.00, -1.00, 70.0, 100.0)">W</text><text xml:space="preserve" font-family="AvenirNext-Regular" font-size="28.5" fill="#FFFFFF" transform="matrix(1.00, 0.00, -0.00, -1.00, 96.7, 100.0)">e</text><text xml:space="preserve" font-family="AvenirNext-Regular" font-size="28.5" fill="#FFFFFF" transform="matrix(1.00, 0.00, -0.00, -1.00, 112.9, 100.0)"> </text><text xml:space="preserve" font-family="AvenirNext-Regular" font-size="28.5" fill="#FFFFFF" transform="matrix(1.00, 0.00, -0.00, -1.00, 120.1, 100.0)">t</text><text xml:space="preserve" font-family="AvenirNext-Regular" font-size="28.5" fill="#FFFFFF" transform="matrix(1.00, 0.00, -0.00, -1.00, 129.1, 100.0)">e</text><text xml:space="preserve" font-family="AvenirNext-Regular" font-size="28.5" fill="#FFFFFF" transform="matrix(1.00, 0.00, -0.00, -1.00, 145.4, 100.0)">l</text><text xml:space="preserve" font-family="AvenirNext-Regular" font-size="28.5" fill="#FFFFFF" transform="matrix(1.00, 0.00, -0.00, -1.00, 152.6, 100.0)">l</text><text xml:space="preserve" font-family="AvenirNext-Regular" font-size="28.5" fill="#FFFFFF" transform="matrix(1.00, 0.00, -0.00, -1.00, 159.7, 100.0)"> </text><text xml:space="preserve" font-family="AvenirNext-Regular" font-size="28.5" fill="#FFFFFF" transform="matrix(1.00, 0.00, -0.00, -1.00, 166.5, 100.0)">W</text><text xml:space="preserve" font-family="AvenirNext-Regular" font-size="28.5" fill="#FFFFFF" transform="matrix(1.00, 0.00, -0.00, -1.00, 193.2, 100.0)">e</text><text xml:space="preserve" font-family="AvenirNext-Regular" font-size="28.5" fill="#FFFFFF" transform="matrix(1.00, 0.00, -0.00, -1.00, 209.5, 100.0)">b</text><text xml:space="preserve" font-family="AvenirNext-Regular" font-size="28.5" fill="#FFFFFF" transform="matrix(1.00, 0.00, -0.00, -1.00, 227.6, 100.0)">p</text><text xml:space="preserve" font-family="AvenirNext-Regular" font-size="28.5" fill="#FFFFFF" transform="matrix(1.00, 0.00, -0.00, -1.00, 245.7, 100.0)">a</text><text xml:space="preserve" font-family="AvenirNext-Regular" font-size="28.5" fill="#FFFFFF" transform="matrix(1.00, 0.00, -0.00, -1.00, 260.9, 100.0)">c</text><text xml:space="preserve" font-family="AvenirNext-Regular" font-size="28.5" fill="#FFFFFF" transform="matrix(1.00, 0.00, -0.00, -1.00, 275.1, 100.0)">k</text><text xml:space="preserve" font-family="AvenirNext-Regular" font-size="28.5" fill="#FFFFFF" transform="matrix(1.00, 0.00, -0.00, -1.00, 289.7, 100.0)"> </text><text xml:space="preserve" font-family="AvenirNext-Regular" font-size="28.5" fill="#FFFFFF" transform="matrix(1.00, 0.00, -0.00, -1.00, 296.8, 100.0)">t</text><text xml:space="preserve" font-family="AvenirNext-Regular" font-size="28.5" fill="#FFFFFF" transform="matrix(1.00, 0.00, -0.00, -1.00, 305.8, 100.0)">o</text><text xml:space="preserve" font-family="AvenirNext-Regular" font-size="28.5" fill="#FFFFFF" transform="matrix(1.00, 0.00, -0.00, -1.00, 323.2, 100.0)"> </text><text xml:space="preserve" font-family="AvenirNext-Regular" font-size="28.5" fill="#FFFFFF" transform="matrix(1.00, 0.00, -0.00, -1.00, 330.3, 100.0)">a</text><text xml:space="preserve" font-family="AvenirNext-Regular" font-size="28.5" fill="#FFFFFF" transform="matrix(1.00, 0.00, -0.00, -1.00, 345.5, 100.0)">p</text><text xml:space="preserve" font-family="AvenirNext-Regular" font-size="28.5" fill="#FFFFFF" transform="matrix(1.00, 0.00, -0.00, -1.00, 363.6, 100.0)">p</text><text xml:space="preserve" font-family="AvenirNext-Regular" font-size="28.5" fill="#FFFFFF" transform="matrix(1.00, 0.00, -0.00, -1.00, 381.7, 100.0)">l</text><text xml:space="preserve" font-family="AvenirNext-Regular" font-size="28.5" fill="#FFFFFF" transform="matrix(1.00, 0.00, -0.00, -1.00, 388.9, 100.0)">y</text><text xml:space="preserve" font-family="AvenirNext-Regular" font-size="28.5" fill="#FFFFFF" transform="matrix(1.00, 0.00, -0.00, -1.00, 402.8, 100.0)"> </text><text xml:space="preserve" font-family="AvenirNext-Regular" font-size="28.5" fill="#FFFFFF" transform="matrix(1.00, 0.00, -0.00, -1.00, 409.9, 100.0)">l</text><text xml:space="preserve" font-family="AvenirNext-Regular" font-size="28.5" fill="#FFFFFF" transform="matrix(1.00, 0.00, -0.00, -1.00, 417.1, 100.0)">o</text><text xml:space="preserve" font-family="AvenirNext-Regular" font-size="28.5" fill="#FFFFFF" transform="matrix(1.00, 0.00, -0.00, -1.00, 434.5, 100.0)">a</text><text xml:space="preserve" font-family="AvenirNext-Regular" font-size="28.5" fill="#FFFFFF" transform="matrix(1.00, 0.00, -0.00, -1.00, 449.7, 100.0)">d</text><text xml:space="preserve" font-family="AvenirNext-Regular" font-size="28.5" fill="#FFFFFF" transform="matrix(1.00, 0.00, -0.00, -1.00, 467.8, 100.0)">e</text><text xml:space="preserve" font-family="AvenirNext-Regular" font-size="28.5" fill="#FFFFFF" transform="matrix(1.00, 0.00, -0.00, -1.00, 484.1, 100.0)">r</text><text xml:space="preserve" font-family="AvenirNext-Regular" font-size="28.5" fill="#FFFFFF" transform="matrix(1.00, 0.00, -0.00, -1.00, 494.4, 100.0)">s</text><text xml:space="preserve" font-family="AvenirNext-Regular" font-size="28.5" fill="#FFFFFF" transform="matrix(1.00, 0.00, -0.00, -1.00, 507.0, 100.0)"> </text><text xml:space="preserve" font-family="AvenirNext-Regular" font-size="28.5" fill="#FFFFFF" transform="matrix(1.00, 0.00, -0.00, -1.00, 514.1, 100.0)">w</text><text xml:space="preserve" font-family="AvenirNext-Regular" font-size="28.5" fill="#FFFFFF" transform="matrix(1.00, 0.00, -0.00, -1.00, 535.4, 100.0)">e</text><text xml:space="preserve" font-family="AvenirNext-Regular" font-size="28.5" fill="#FFFFFF" transform="matrix(1.00, 0.00, -0.00, -1.00, 551.7, 100.0)"> </text><text xml:space="preserve" font-family="AvenirNext-Regular" font-size="28.5" fill="#FFFFFF" transform="matrix(1.00, 0.00, -0.00, -1.00, 558.8, 100.0)">n</text><text xml:space="preserve" font-family="AvenirNext-Regular" font-size="28.5" fill="#FFFFFF" transform="matrix(1.00, 0.00, -0.00, -1.00, 575.3, 100.0)">e</text><text xml:space="preserve" font-family="AvenirNext-Regular" font-size="28.5" fill="#FFFFFF" transform="matrix(1.00, 0.00, -0.00, -1.00, 591.6, 100.0)">e</text><text xml:space="preserve" font-family="AvenirNext-Regular" font-size="28.5" fill="#FFFFFF" transform="matrix(1.00, 0.00, -0.00, -1.00, 607.9, 100.0)">d</text><text xml:space="preserve" font-family="AvenirNext-Regular" font-size="28.5" fill="#FFFFFF" transform="matrix(1.00, 0.00, -0.00, -1.00, 626.1, 100.0)"> </text><text xml:space="preserve" font-family="AvenirNext-Regular" font-size="28.5" fill="#FFFFFF" transform="matrix(1.00, 0.00, -0.00, -1.00, 633.2, 100.0)">t</text><text xml:space="preserve" font-family="AvenirNext-Regular" font-size="28.5" fill="#FFFFFF" transform="matrix(1.00, 0.00, -0.00, -1.00, 642.2, 100.0)">o</text><text xml:space="preserve" font-family="AvenirNext-Regular" font-size="28.5" fill="#FFFFFF" transform="matrix(1.00, 0.00, -0.00, -1.00, 659.6, 100.0)"> </text><text xml:space="preserve" font-family="AvenirNext-Regular" font-size="28.5" fill="#FFFFFF" transform="matrix(1.00, 0.00, -0.00, -1.00, 666.7, 100.0)">t</text><text xml:space="preserve" font-family="AvenirNext-Regular" font-size="28.5" fill="#FFFFFF" transform="matrix(1.00, 0.00, -0.00, -1.00, 675.8, 100.0)">h</text><text xml:space="preserve" font-family="AvenirNext-Regular" font-size="28.5" fill="#FFFFFF" transform="matrix(1.00, 0.00, -0.00, -1.00, 692.4, 100.0)">e</text><text xml:space="preserve" font-family="AvenirNext-Regular" font-size="28.5" fill="#FFFFFF" transform="matrix(1.00, 0.00, -0.00, -1.00, 708.7, 100.0)"> </text><text xml:space="preserve" font-family="AvenirNext-Regular" font-size="28.5" fill="#FFFFFF" transform="matrix(1.00, 0.00, -0.00, -1.00, 715.8, 100.0)">ﬁ</text><text xml:space="preserve" font-family="AvenirNext-Regular" font-size="28.5" fill="#FFFFFF" transform="matrix(1.00, 0.00, -0.00, -1.00, 731.3, 100.0)">l</text><text xml:space="preserve" font-family="AvenirNext-Regular" font-size="28.5" fill="#FFFFFF" transform="matrix(1.00, 0.00, -0.00, -1.00, 738.5, 100.0)">e</text><text xml:space="preserve" font-family="AvenirNext-Regular" font-size="28.5" fill="#FFFFFF" transform="matrix(1.00, 0.00, -0.00, -1.00, 754.7, 100.0)">s</text><text xml:space="preserve" font-family="AvenirNext-Regular" font-size="28.5" fill="#FFFFFF" transform="matrix(1.00, 0.00, -0.00, -1.00, 767.4, 100.0)"> </text><text xml:space="preserve" font-family="AvenirNext-Regular" font-size="28.5" fill="#FFFFFF" transform="matrix(1.00, 0.00, -0.00, -1.00, 774.5, 100.0)">w</text><text xml:space="preserve" font-family="AvenirNext-Regular" font-size="28.5" fill="#FFFFFF" transform="matrix(1.00, 0.00, -0.00, -1.00, 795.8, 100.0)">e</text><text xml:space="preserve" font-family="AvenirNext-Regular" font-size="28.5" fill="#FFFFFF" transform="matrix(1.00, 0.00, -0.00, -1.00, 812.0, 100.0)"> </text><text xml:space="preserve" font-family="AvenirNext-Regular" font-size="28.5" fill="#FFFFFF" transform="matrix(1.00, 0.00, -0.00, -1.00, 819.2, 100.0)">c</text><text xml:space="preserve" font-family="AvenirNext-Regular" font-size="28.5" fill="#FFFFFF" transform="matrix(1.00, 0.00, -0.00, -1.00, 833.4, 100.0)">a</text><text xml:space="preserve" font-family="AvenirNext-Regular" font-size="28.5" fill="#FFFFFF" transform="matrix(1.00, 0.00, -0.00, -1.00, 848.6, 100.0)">r</text><text xml:space="preserve" font-family="AvenirNext-Regular" font-size="28.5" fill="#FFFFFF" transform="matrix(1.00, 0.00, -0.00, -1.00, 858.4, 100.0)">e</text><text xml:space="preserve" font-family="AvenirNext-Regular" font-size="28.5" fill="#FFFFFF" transform="matrix(1.00, 0.00, -0.00, -1.00, 874.6, 100.0)"> </text><text xml:space="preserve" font-family="AvenirNext-Regular" font-size="28.5" fill="#FFFFFF" transform="matrix(1.00, 0.00, -0.00, -1.00, 70.0, 62.0)">a</text><text xml:space="preserve" font-family="AvenirNext-Regular" font-size="28.5" fill="#FFFFFF" transform="matrix(1.00, 0.00, -0.00, -1.00, 85.2, 62.0)">b</text><text xml:space="preserve" font-family="AvenirNext-Regular" font-size="28.5" fill="#FFFFFF" transform="matrix(1.00, 0.00, -0.00, -1.00, 103.4, 62.0)">o</text><text xml:space="preserve" font-family="AvenirNext-Regular" font-size="28.5" fill="#FFFFFF" transform="matrix(1.00, 0.00, -0.00, -1.00, 120.8, 62.0)">u</text><text xml:space="preserve" font-family="AvenirNext-Regular" font-size="28.5" fill="#FFFFFF" transform="matrix(1.00, 0.00, -0.00, -1.00, 137.3, 62.0)">t</text><text xml:space="preserve" font-family="AvenirNext-Regular" font-size="28.5" fill="#FFFFFF" transform="matrix(1.00, 0.00, -0.00, -1.00, 146.3, 62.0)"> </text><text xml:space="preserve" font-family="LucidaGrande" font-size="21.4" fill="#CACACA" transform="matrix(1.00, 0.00, -0.00, -1.00, 37.0, 8.3)">‣</text><text xml:space="preserve" font-family="AvenirNext-Regular" font-size="28.5" fill="#FFFFFF" transform="matrix(1.00, 0.00, -0.00, -1.00, 70.0, 8.0)">T</text><text xml:space="preserve" font-family="AvenirNext-Regular" font-size="28.5" fill="#FFFFFF" transform="matrix(1.00, 0.00, -0.00, -1.00, 85.7, 8.0)">h</text><text xml:space="preserve" font-family="AvenirNext-Regular" font-size="28.5" fill="#FFFFFF" transform="matrix(1.00, 0.00, -0.00, -1.00, 102.3, 8.0)">e</text><text xml:space="preserve" font-family="AvenirNext-Regular" font-size="28.5" fill="#FFFFFF" transform="matrix(1.00, 0.00, -0.00, -1.00, 118.6, 8.0)"> </text><text xml:space="preserve" font-family="AvenirNext-Regular" font-size="28.5" fill="#FFFFFF" transform="matrix(1.00, 0.00, -0.00, -1.00, 125.7, 8.0)">b</text><text xml:space="preserve" font-family="AvenirNext-Regular" font-size="28.5" fill="#FFFFFF" transform="matrix(1.00, 0.00, -0.00, -1.00, 143.9, 8.0)">r</text><text xml:space="preserve" font-family="AvenirNext-Regular" font-size="28.5" fill="#FFFFFF" transform="matrix(1.00, 0.00, -0.00, -1.00, 153.6, 8.0)">o</text><text xml:space="preserve" font-family="AvenirNext-Regular" font-size="28.5" fill="#FFFFFF" transform="matrix(1.00, 0.00, -0.00, -1.00, 171.0, 8.0)">w</text><text xml:space="preserve" font-family="AvenirNext-Regular" font-size="28.5" fill="#FFFFFF" transform="matrix(1.00, 0.00, -0.00, -1.00, 192.3, 8.0)">s</text><text xml:space="preserve" font-family="AvenirNext-Regular" font-size="28.5" fill="#FFFFFF" transform="matrix(1.00, 0.00, -0.00, -1.00, 204.9, 8.0)">e</text><text xml:space="preserve" font-family="AvenirNext-Regular" font-size="28.5" fill="#FFFFFF" transform="matrix(1.00, 0.00, -0.00, -1.00, 221.2, 8.0)">r</text><text xml:space="preserve" font-family="AvenirNext-Regular" font-size="28.5" fill="#FFFFFF" transform="matrix(1.00, 0.00, -0.00, -1.00, 231.5, 8.0)"> </text><text xml:space="preserve" font-family="AvenirNext-Regular" font-size="28.5" fill="#FFFFFF" transform="matrix(1.00, 0.00, -0.00, -1.00, 238.6, 8.0)">o</text><text xml:space="preserve" font-family="AvenirNext-Regular" font-size="28.5" fill="#FFFFFF" transform="matrix(1.00, 0.00, -0.00, -1.00, 256.0, 8.0)">n</text><text xml:space="preserve" font-family="AvenirNext-Regular" font-size="28.5" fill="#FFFFFF" transform="matrix(1.00, 0.00, -0.00, -1.00, 272.5, 8.0)">l</text><text xml:space="preserve" font-family="AvenirNext-Regular" font-size="28.5" fill="#FFFFFF" transform="matrix(1.00, 0.00, -0.00, -1.00, 279.7, 8.0)">y</text><text xml:space="preserve" font-family="AvenirNext-Regular" font-size="28.5" fill="#FFFFFF" transform="matrix(1.00, 0.00, -0.00, -1.00, 293.6, 8.0)"> </text><text xml:space="preserve" font-family="AvenirNext-Regular" font-size="28.5" fill="#FFFFFF" transform="matrix(1.00, 0.00, -0.00, -1.00, 300.7, 8.0)">g</text><text xml:space="preserve" font-family="AvenirNext-Regular" font-size="28.5" fill="#FFFFFF" transform="matrix(1.00, 0.00, -0.00, -1.00, 318.7, 8.0)">e</text><text xml:space="preserve" font-family="AvenirNext-Regular" font-size="28.5" fill="#FFFFFF" transform="matrix(1.00, 0.00, -0.00, -1.00, 335.0, 8.0)">t</text><text xml:space="preserve" font-family="AvenirNext-Regular" font-size="28.5" fill="#FFFFFF" transform="matrix(1.00, 0.00, -0.00, -1.00, 344.0, 8.0)">s</text><text xml:space="preserve" font-family="AvenirNext-Regular" font-size="28.5" fill="#FFFFFF" transform="matrix(1.00, 0.00, -0.00, -1.00, 356.7, 8.0)"> </text><text xml:space="preserve" font-family="AvenirNext-Regular" font-size="28.5" fill="#FFFFFF" transform="matrix(1.00, 0.00, -0.00, -1.00, 363.8, 8.0)">t</text><text xml:space="preserve" font-family="AvenirNext-Regular" font-size="28.5" fill="#FFFFFF" transform="matrix(1.00, 0.00, -0.00, -1.00, 372.8, 8.0)">h</text><text xml:space="preserve" font-family="AvenirNext-Regular" font-size="28.5" fill="#FFFFFF" transform="matrix(1.00, 0.00, -0.00, -1.00, 389.4, 8.0)">e</text><text xml:space="preserve" font-family="AvenirNext-Regular" font-size="28.5" fill="#FFFFFF" transform="matrix(1.00, 0.00, -0.00, -1.00, 405.7, 8.0)"> </text><text xml:space="preserve" font-family="AvenirNext-Regular" font-size="28.5" fill="#FFFFFF" transform="matrix(1.00, 0.00, -0.00, -1.00, 412.5, 8.0)">J</text><text xml:space="preserve" font-family="AvenirNext-Regular" font-size="28.5" fill="#FFFFFF" transform="matrix(1.00, 0.00, -0.00, -1.00, 426.5, 8.0)">S</text><text xml:space="preserve" font-family="AvenirNext-Regular" font-size="28.5" fill="#FFFFFF" transform="matrix(1.00, 0.00, -0.00, -1.00, 442.6, 8.0)"> </text><text xml:space="preserve" font-family="AvenirNext-Regular" font-size="28.5" fill="#FFFFFF" transform="matrix(1.00, 0.00, -0.00, -1.00, 449.7, 8.0)">i</text><text xml:space="preserve" font-family="AvenirNext-Regular" font-size="28.5" fill="#FFFFFF" transform="matrix(1.00, 0.00, -0.00, -1.00, 456.8, 8.0)">t</text><text xml:space="preserve" font-family="AvenirNext-Regular" font-size="28.5" fill="#FFFFFF" transform="matrix(1.00, 0.00, -0.00, -1.00, 465.8, 8.0)"> </text><text xml:space="preserve" font-family="AvenirNext-Regular" font-size="28.5" fill="#FFFFFF" transform="matrix(1.00, 0.00, -0.00, -1.00, 473.0, 8.0)">c</text><text xml:space="preserve" font-family="AvenirNext-Regular" font-size="28.5" fill="#FFFFFF" transform="matrix(1.00, 0.00, -0.00, -1.00, 487.2, 8.0)">a</text><text xml:space="preserve" font-family="AvenirNext-Regular" font-size="28.5" fill="#FFFFFF" transform="matrix(1.00, 0.00, -0.00, -1.00, 502.4, 8.0)">n</text><text xml:space="preserve" font-family="AvenirNext-Regular" font-size="28.5" fill="#FFFFFF" transform="matrix(1.00, 0.00, -0.00, -1.00, 519.0, 8.0)"> </text><text xml:space="preserve" font-family="AvenirNext-Regular" font-size="28.5" fill="#FFFFFF" transform="matrix(1.00, 0.00, -0.00, -1.00, 526.1, 8.0)">r</text><text xml:space="preserve" font-family="AvenirNext-Regular" font-size="28.5" fill="#FFFFFF" transform="matrix(1.00, 0.00, -0.00, -1.00, 535.8, 8.0)">e</text><text xml:space="preserve" font-family="AvenirNext-Regular" font-size="28.5" fill="#FFFFFF" transform="matrix(1.00, 0.00, -0.00, -1.00, 551.9, 8.0)">a</text><text xml:space="preserve" font-family="AvenirNext-Regular" font-size="28.5" fill="#FFFFFF" transform="matrix(1.00, 0.00, -0.00, -1.00, 567.1, 8.0)">d</text></g></svg>