<?xml version="1.0" encoding="UTF-8" standalone="no"?><svg xmlns="http://www.w3.org/2000/svg" xmlns:xlink="http://www.w3.org/1999/xlink" clip-rule="evenodd" stroke-miterlimit="4.00" viewBox="0 0 1024 768"><desc>SVG generated by Keynote</desc><defs></defs><g transform="matrix(1.00, 0.00, -0.00, -1.00, 0.0, 768.0)"><path d="M 0.0 768.0 L 1024.0 768.0 L 1024.0 0.0 L 0.0 0.0 Z M 0.0 768.0 " fill="#363637"></path><text xml:space="preserve" font-family="AvenirNext-DemiBold" font-weight="bold" font-size="38.0" fill="#DE7D67" transform="matrix(1.00, 0.00, -0.00, -1.00, 334.0, 577.0)">T</text><text xml:space="preserve" font-family="AvenirNext-DemiBold" font-weight="bold" font-size="38.0" fill="#DE7D67" transform="matrix(1.00, 0.00, -0.00, -1.00, 354.9, 577.0)">h</text><text xml:space="preserve" font-family="AvenirNext-DemiBold" font-weight="bold" font-size="38.0" fill="#DE7D67" transform="matrix(1.00, 0.00, -0.00, -1.00, 377.1, 577.0)">a</text><text xml:space="preserve" font-family="AvenirNext-DemiBold" font-weight="bold" font-size="38.0" fill="#DE7D67" transform="matrix(1.00, 0.00, -0.00, -1.00, 398.0, 577.0)">n</text><text xml:space="preserve" font-family="AvenirNext-DemiBold" font-weight="bold" font-size="38.0" fill="#DE7D67" transform="matrix(1.00, 0.00, -0.00, -1.00, 420.1, 577.0)">k</text><text xml:space="preserve" font-family="AvenirNext-DemiBold" font-weight="bold" font-size="38.0" fill="#DE7D67" transform="matrix(1.00, 0.00, -0.00, -1.00, 440.5, 577.0)">s</text><text xml:space="preserve" font-family="AvenirNext-DemiBold" font-weight="bold" font-size="38.0" fill="#DE7D67" transform="matrix(1.00, 0.00, -0.00, -1.00, 457.4, 577.0)"> </text><text xml:space="preserve" font-family="AvenirNext-DemiBold" font-weight="bold" font-size="38.0" fill="#DE7D67" transform="matrix(1.00, 0.00, -0.00, -1.00, 466.9, 577.0)">f</text><text xml:space="preserve" font-family="AvenirNext-DemiBold" font-weight="bold" font-size="38.0" fill="#DE7D67" transform="matrix(1.00, 0.00, -0.00, -1.00, 479.2, 577.0)">o</text><text xml:space="preserve" font-family="AvenirNext-DemiBold" font-weight="bold" font-size="38.0" fill="#DE7D67" transform="matrix(1.00, 0.00, -0.00, -1.00, 502.4, 577.0)">r</text><text xml:space="preserve" font-family="AvenirNext-DemiBold" font-weight="bold" font-size="38.0" fill="#DE7D67" transform="matrix(1.00, 0.00, -0.00, -1.00, 516.2, 577.0)"> </text><text xml:space="preserve" font-family="AvenirNext-DemiBold" font-weight="bold" font-size="38.0" fill="#DE7D67" transform="matrix(1.00, 0.00, -0.00, -1.00, 525.7, 577.0)">l</text><text xml:space="preserve" font-family="AvenirNext-DemiBold" font-weight="bold" font-size="38.0" fill="#DE7D67" transform="matrix(1.00, 0.00, -0.00, -1.00, 535.9, 577.0)">i</text><text xml:space="preserve" font-family="AvenirNext-DemiBold" font-weight="bold" font-size="38.0" fill="#DE7D67" transform="matrix(1.00, 0.00, -0.00, -1.00, 546.1, 577.0)">s</text><text xml:space="preserve" font-family="AvenirNext-DemiBold" font-weight="bold" font-size="38.0" fill="#DE7D67" transform="matrix(1.00, 0.00, -0.00, -1.00, 563.0, 577.0)">t</text><text xml:space="preserve" font-family="AvenirNext-DemiBold" font-weight="bold" font-size="38.0" fill="#DE7D67" transform="matrix(1.00, 0.00, -0.00, -1.00, 575.9, 577.0)">e</text><text xml:space="preserve" font-family="AvenirNext-DemiBold" font-weight="bold" font-size="38.0" fill="#DE7D67" transform="matrix(1.00, 0.00, -0.00, -1.00, 597.7, 577.0)">n</text><text xml:space="preserve" font-family="AvenirNext-DemiBold" font-weight="bold" font-size="38.0" fill="#DE7D67" transform="matrix(1.00, 0.00, -0.00, -1.00, 619.8, 577.0)">i</text><text xml:space="preserve" font-family="AvenirNext-DemiBold" font-weight="bold" font-size="38.0" fill="#DE7D67" transform="matrix(1.00, 0.00, -0.00, -1.00, 630.0, 577.0)">n</text><text xml:space="preserve" font-family="AvenirNext-DemiBold" font-weight="bold" font-size="38.0" fill="#DE7D67" transform="matrix(1.00, 0.00, -0.00, -1.00, 652.1, 577.0)">g</text><text xml:space="preserve" font-family="AvenirNext-DemiBold" font-weight="bold" font-size="38.0" fill="#DE7D67" transform="matrix(1.00, 0.00, -0.00, -1.00, 676.1, 577.0)">!</text><text xml:space="preserve" font-family="AvenirNext-DemiBold" font-weight="bold" font-size="38.0" fill="#DE7D67" transform="matrix(1.00, 0.00, -0.00, -1.00, 689.0, 577.0)"> </text><text xml:space="preserve" font-family="AvenirNext-Regular" font-size="38.0" fill="#FFFFFF" transform="matrix(1.00, 0.00, -0.00, -1.00, 389.0, 518.0)">N</text><text xml:space="preserve" font-family="AvenirNext-Regular" font-size="38.0" fill="#FFFFFF" transform="matrix(1.00, 0.00, -0.00, -1.00, 418.0, 518.0)">a</text><text xml:space="preserve" font-family="AvenirNext-Regular" font-size="38.0" fill="#FFFFFF" transform="matrix(1.00, 0.00, -0.00, -1.00, 438.3, 518.0)">o</text><text xml:space="preserve" font-family="AvenirNext-Regular" font-size="38.0" fill="#FFFFFF" transform="matrix(1.00, 0.00, -0.00, -1.00, 461.5, 518.0)">m</text><text xml:space="preserve" font-family="AvenirNext-Regular" font-size="38.0" fill="#FFFFFF" transform="matrix(1.00, 0.00, -0.00, -1.00, 495.1, 518.0)">i</text><text xml:space="preserve" font-family="AvenirNext-Regular" font-size="38.0" fill="#FFFFFF" transform="matrix(1.00, 0.00, -0.00, -1.00, 504.6, 518.0)"> </text><text xml:space="preserve" font-family="AvenirNext-Regular" font-size="38.0" fill="#FFFFFF" transform="matrix(1.00, 0.00, -0.00, -1.00, 513.6, 518.0)">J</text><text xml:space="preserve" font-family="AvenirNext-Regular" font-size="38.0" fill="#FFFFFF" transform="matrix(1.00, 0.00, -0.00, -1.00, 532.1, 518.0)">a</text><text xml:space="preserve" font-family="AvenirNext-Regular" font-size="38.0" fill="#FFFFFF" transform="matrix(1.00, 0.00, -0.00, -1.00, 552.4, 518.0)">c</text><text xml:space="preserve" font-family="AvenirNext-Regular" font-size="38.0" fill="#FFFFFF" transform="matrix(1.00, 0.00, -0.00, -1.00, 571.4, 518.0)">o</text><text xml:space="preserve" font-family="AvenirNext-Regular" font-size="38.0" fill="#FFFFFF" transform="matrix(1.00, 0.00, -0.00, -1.00, 594.6, 518.0)">b</text><text xml:space="preserve" font-family="AvenirNext-Regular" font-size="38.0" fill="#FFFFFF" transform="matrix(1.00, 0.00, -0.00, -1.00, 618.8, 518.0)">s</text><text xml:space="preserve" font-family="AvenirNext-Regular" font-size="38.0" fill="#FFFFFF" transform="matrix(1.00, 0.00, -0.00, -1.00, 635.7, 518.0)"> </text><text xml:space="preserve" font-family="AvenirNext-Regular" font-size="38.0" fill="#FFFFFF" transform="matrix(1.00, 0.00, -0.00, -1.00, 239.0, 460.0)">S</text><text xml:space="preserve" font-family="AvenirNext-Regular" font-size="38.0" fill="#FFFFFF" transform="matrix(1.00, 0.00, -0.00, -1.00, 260.4, 460.0)">o</text><text xml:space="preserve" font-family="AvenirNext-Regular" font-size="38.0" fill="#FFFFFF" transform="matrix(1.00, 0.00, -0.00, -1.00, 283.6, 460.0)">f</text><text xml:space="preserve" font-family="AvenirNext-Regular" font-size="38.0" fill="#FFFFFF" transform="matrix(1.00, 0.00, -0.00, -1.00, 294.4, 460.0)">t</text><text xml:space="preserve" font-family="AvenirNext-Regular" font-size="38.0" fill="#FFFFFF" transform="matrix(1.00, 0.00, -0.00, -1.00, 306.4, 460.0)">w</text><text xml:space="preserve" font-family="AvenirNext-Regular" font-size="38.0" fill="#FFFFFF" transform="matrix(1.00, 0.00, -0.00, -1.00, 334.8, 460.0)">a</text><text xml:space="preserve" font-family="AvenirNext-Regular" font-size="38.0" fill="#FFFFFF" transform="matrix(1.00, 0.00, -0.00, -1.00, 355.1, 460.0)">r</text><text xml:space="preserve" font-family="AvenirNext-Regular" font-size="38.0" fill="#FFFFFF" transform="matrix(1.00, 0.00, -0.00, -1.00, 368.1, 460.0)">e</text><text xml:space="preserve" font-family="AvenirNext-Regular" font-size="38.0" fill="#FFFFFF" transform="matrix(1.00, 0.00, -0.00, -1.00, 389.8, 460.0)"> </text><text xml:space="preserve" font-family="AvenirNext-Regular" font-size="38.0" fill="#FFFFFF" transform="matrix(1.00, 0.00, -0.00, -1.00, 399.3, 460.0)">E</text><text xml:space="preserve" font-family="AvenirNext-Regular" font-size="38.0" fill="#FFFFFF" transform="matrix(1.00, 0.00, -0.00, -1.00, 421.8, 460.0)">n</text><text xml:space="preserve" font-family="AvenirNext-Regular" font-size="38.0" fill="#FFFFFF" transform="matrix(1.00, 0.00, -0.00, -1.00, 443.9, 460.0)">g</text><text xml:space="preserve" font-family="AvenirNext-Regular" font-size="38.0" fill="#FFFFFF" transform="matrix(1.00, 0.00, -0.00, -1.00, 467.9, 460.0)">i</text><text xml:space="preserve" font-family="AvenirNext-Regular" font-size="38.0" fill="#FFFFFF" transform="matrix(1.00, 0.00, -0.00, -1.00, 477.4, 460.0)">n</text><text xml:space="preserve" font-family="AvenirNext-Regular" font-size="38.0" fill="#FFFFFF" transform="matrix(1.00, 0.00, -0.00, -1.00, 499.5, 460.0)">e</text><text xml:space="preserve" font-family="AvenirNext-Regular" font-size="38.0" fill="#FFFFFF" transform="matrix(1.00, 0.00, -0.00, -1.00, 521.2, 460.0)">e</text><text xml:space="preserve" font-family="AvenirNext-Regular" font-size="38.0" fill="#FFFFFF" transform="matrix(1.00, 0.00, -0.00, -1.00, 543.0, 460.0)">r</text><text xml:space="preserve" font-family="AvenirNext-Regular" font-size="38.0" fill="#FFFFFF" transform="matrix(1.00, 0.00, -0.00, -1.00, 556.6, 460.0)"> </text><text xml:space="preserve" font-family="AvenirNext-Regular" font-size="38.0" fill="#FFFFFF" transform="matrix(1.00, 0.00, -0.00, -1.00, 566.1, 460.0)">a</text><text xml:space="preserve" font-family="AvenirNext-Regular" font-size="38.0" fill="#FFFFFF" transform="matrix(1.00, 0.00, -0.00, -1.00, 586.1, 460.0)">t</text><text xml:space="preserve" font-family="AvenirNext-Regular" font-size="38.0" fill="#FFFFFF" transform="matrix(1.00, 0.00, -0.00, -1.00, 598.1, 460.0)"> </text><text xml:space="preserve" font-family="AvenirNext-Regular" font-size="38.0" fill="#FFFFFF" transform="matrix(1.00, 0.00, -0.00, -1.00, 607.6, 460.0)">M</text><text xml:space="preserve" font-family="AvenirNext-Regular" font-size="38.0" fill="#FFFFFF" transform="matrix(1.00, 0.00, -0.00, -1.00, 641.3, 460.0)">a</text><text xml:space="preserve" font-family="AvenirNext-Regular" font-size="38.0" fill="#FFFFFF" transform="matrix(1.00, 0.00, -0.00, -1.00, 661.6, 460.0)">v</text><text xml:space="preserve" font-family="AvenirNext-Regular" font-size="38.0" fill="#FFFFFF" transform="matrix(1.00, 0.00, -0.00, -1.00, 680.1, 460.0)">e</text><text xml:space="preserve" font-family="AvenirNext-Regular" font-size="38.0" fill="#FFFFFF" transform="matrix(1.00, 0.00, -0.00, -1.00, 701.8, 460.0)">n</text><text xml:space="preserve" font-family="AvenirNext-Regular" font-size="38.0" fill="#FFFFFF" transform="matrix(1.00, 0.00, -0.00, -1.00, 723.9, 460.0)">l</text><text xml:space="preserve" font-family="AvenirNext-Regular" font-size="38.0" fill="#FFFFFF" transform="matrix(1.00, 0.00, -0.00, -1.00, 733.5, 460.0)">i</text><text xml:space="preserve" font-family="AvenirNext-Regular" font-size="38.0" fill="#FFFFFF" transform="matrix(1.00, 0.00, -0.00, -1.00, 743.0, 460.0)">n</text><text xml:space="preserve" font-family="AvenirNext-Regular" font-size="38.0" fill="#FFFFFF" transform="matrix(1.00, 0.00, -0.00, -1.00, 765.1, 460.0)">k</text><text xml:space="preserve" font-family="AvenirNext-Regular" font-size="38.0" fill="#FFFFFF" transform="matrix(1.00, 0.00, -0.00, -1.00, 784.5, 460.0)"> </text><text xml:space="preserve" font-family="AvenirNext-DemiBold" font-weight="bold" font-size="38.0" fill="#F1C114" transform="matrix(1.00, 0.00, -0.00, -1.00, 350.0, 401.0)">(</text><text xml:space="preserve" font-family="AvenirNext-DemiBold" font-weight="bold" font-size="38.0" fill="#F1C114" transform="matrix(1.00, 0.00, -0.00, -1.00, 362.5, 401.0)">y</text><text xml:space="preserve" font-family="AvenirNext-DemiBold" font-weight="bold" font-size="38.0" fill="#F1C114" transform="matrix(1.00, 0.00, -0.00, -1.00, 382.0, 401.0)">e</text><text xml:space="preserve" font-family="AvenirNext-DemiBold" font-weight="bold" font-size="38.0" fill="#F1C114" transform="matrix(1.00, 0.00, -0.00, -1.00, 403.8, 401.0)">s</text><text xml:space="preserve" font-family="AvenirNext-DemiBold" font-weight="bold" font-size="38.0" fill="#F1C114" transform="matrix(1.00, 0.00, -0.00, -1.00, 420.7, 401.0)">,</text><text xml:space="preserve" font-family="AvenirNext-DemiBold" font-weight="bold" font-size="38.0" fill="#F1C114" transform="matrix(1.00, 0.00, -0.00, -1.00, 429.5, 401.0)"> </text><text xml:space="preserve" font-family="AvenirNext-DemiBold" font-weight="bold" font-size="38.0" fill="#F1C114" transform="matrix(1.00, 0.00, -0.00, -1.00, 439.0, 401.0)">w</text><text xml:space="preserve" font-family="AvenirNext-DemiBold" font-weight="bold" font-size="38.0" fill="#F1C114" transform="matrix(1.00, 0.00, -0.00, -1.00, 469.5, 401.0)">e</text><text xml:space="preserve" font-family="AvenirNext-DemiBold" font-weight="bold" font-size="38.0" fill="#F1C114" transform="matrix(1.00, 0.00, -0.00, -1.00, 491.3, 401.0)">’</text><text xml:space="preserve" font-family="AvenirNext-DemiBold" font-weight="bold" font-size="38.0" fill="#F1C114" transform="matrix(1.00, 0.00, -0.00, -1.00, 501.6, 401.0)">r</text><text xml:space="preserve" font-family="AvenirNext-DemiBold" font-weight="bold" font-size="38.0" fill="#F1C114" transform="matrix(1.00, 0.00, -0.00, -1.00, 514.7, 401.0)">e</text><text xml:space="preserve" font-family="AvenirNext-DemiBold" font-weight="bold" font-size="38.0" fill="#F1C114" transform="matrix(1.00, 0.00, -0.00, -1.00, 536.5, 401.0)"> </text><text xml:space="preserve" font-family="AvenirNext-DemiBold" font-weight="bold" font-size="38.0" fill="#F1C114" transform="matrix(1.00, 0.00, -0.00, -1.00, 546.0, 401.0)">h</text><text xml:space="preserve" font-family="AvenirNext-DemiBold" font-weight="bold" font-size="38.0" fill="#F1C114" transform="matrix(1.00, 0.00, -0.00, -1.00, 568.2, 401.0)">i</text><text xml:space="preserve" font-family="AvenirNext-DemiBold" font-weight="bold" font-size="38.0" fill="#F1C114" transform="matrix(1.00, 0.00, -0.00, -1.00, 578.4, 401.0)">r</text><text xml:space="preserve" font-family="AvenirNext-DemiBold" font-weight="bold" font-size="38.0" fill="#F1C114" transform="matrix(1.00, 0.00, -0.00, -1.00, 592.2, 401.0)">i</text><text xml:space="preserve" font-family="AvenirNext-DemiBold" font-weight="bold" font-size="38.0" fill="#F1C114" transform="matrix(1.00, 0.00, -0.00, -1.00, 602.4, 401.0)">n</text><text xml:space="preserve" font-family="AvenirNext-DemiBold" font-weight="bold" font-size="38.0" fill="#F1C114" transform="matrix(1.00, 0.00, -0.00, -1.00, 624.5, 401.0)">g</text><text xml:space="preserve" font-family="AvenirNext-DemiBold" font-weight="bold" font-size="38.0" fill="#F1C114" transform="matrix(1.00, 0.00, -0.00, -1.00, 648.6, 401.0)">!</text><text xml:space="preserve" font-family="AvenirNext-DemiBold" font-weight="bold" font-size="38.0" fill="#F1C114" transform="matrix(1.00, 0.00, -0.00, -1.00, 661.5, 401.0)">)</text><text xml:space="preserve" font-family="AvenirNext-DemiBold" font-weight="bold" font-size="38.0" fill="#F1C114" transform="matrix(1.00, 0.00, -0.00, -1.00, 674.0, 401.0)"> </text><text xml:space="preserve" font-family="AvenirNext-Regular" font-size="38.0" fill="#FFFFFF" transform="matrix(1.00, 0.00, -0.00, -1.00, 316.0, 343.0)">@</text><text xml:space="preserve" font-family="AvenirNext-Regular" font-size="38.0" fill="#FFFFFF" transform="matrix(1.00, 0.00, -0.00, -1.00, 346.4, 343.0)">n</text><text xml:space="preserve" font-family="AvenirNext-Regular" font-size="38.0" fill="#FFFFFF" transform="matrix(1.00, 0.00, -0.00, -1.00, 368.5, 343.0)">a</text><text xml:space="preserve" font-family="AvenirNext-Regular" font-size="38.0" fill="#FFFFFF" transform="matrix(1.00, 0.00, -0.00, -1.00, 388.8, 343.0)">o</text><text xml:space="preserve" font-family="AvenirNext-Regular" font-size="38.0" fill="#FFFFFF" transform="matrix(1.00, 0.00, -0.00, -1.00, 412.0, 343.0)">m</text><text xml:space="preserve" font-family="AvenirNext-Regular" font-size="38.0" fill="#FFFFFF" transform="matrix(1.00, 0.00, -0.00, -1.00, 445.5, 343.0)">i</text><text xml:space="preserve" font-family="AvenirNext-Regular" font-size="38.0" fill="#FFFFFF" transform="matrix(1.00, 0.00, -0.00, -1.00, 455.0, 343.0)">c</text><text xml:space="preserve" font-family="AvenirNext-Regular" font-size="38.0" fill="#FFFFFF" transform="matrix(1.00, 0.00, -0.00, -1.00, 474.0, 343.0)">o</text><text xml:space="preserve" font-family="AvenirNext-Regular" font-size="38.0" fill="#FFFFFF" transform="matrix(1.00, 0.00, -0.00, -1.00, 497.3, 343.0)">d</text><text xml:space="preserve" font-family="AvenirNext-Regular" font-size="38.0" fill="#FFFFFF" transform="matrix(1.00, 0.00, -0.00, -1.00, 521.5, 343.0)">e</text><text xml:space="preserve" font-family="AvenirNext-Regular" font-size="38.0" fill="#FFFFFF" transform="matrix(1.00, 0.00, -0.00, -1.00, 543.2, 343.0)">s</text><text xml:space="preserve" font-family="AvenirNext-Regular" font-size="38.0" fill="#FFFFFF" transform="matrix(1.00, 0.00, -0.00, -1.00, 560.1, 343.0)"> </text><text xml:space="preserve" font-family="AvenirNext-Regular" font-size="38.0" fill="#FFFFFF" transform="matrix(1.00, 0.00, -0.00, -1.00, 569.6, 343.0)">(</text><text xml:space="preserve" font-family="AvenirNext-Regular" font-size="38.0" fill="#FFFFFF" transform="matrix(1.00, 0.00, -0.00, -1.00, 581.0, 343.0)">T</text><text xml:space="preserve" font-family="AvenirNext-Regular" font-size="38.0" fill="#FFFFFF" transform="matrix(1.00, 0.00, -0.00, -1.00, 599.0, 343.0)">w</text><text xml:space="preserve" font-family="AvenirNext-Regular" font-size="38.0" fill="#FFFFFF" transform="matrix(1.00, 0.00, -0.00, -1.00, 627.3, 343.0)">i</text><text xml:space="preserve" font-family="AvenirNext-Regular" font-size="38.0" fill="#FFFFFF" transform="matrix(1.00, 0.00, -0.00, -1.00, 636.8, 343.0)">t</text><text xml:space="preserve" font-family="AvenirNext-Regular" font-size="38.0" fill="#FFFFFF" transform="matrix(1.00, 0.00, -0.00, -1.00, 648.4, 343.0)">t</text><text xml:space="preserve" font-family="AvenirNext-Regular" font-size="38.0" fill="#FFFFFF" transform="matrix(1.00, 0.00, -0.00, -1.00, 660.5, 343.0)">e</text><text xml:space="preserve" font-family="AvenirNext-Regular" font-size="38.0" fill="#FFFFFF" transform="matrix(1.00, 0.00, -0.00, -1.00, 682.2, 343.0)">r</text><text xml:space="preserve" font-family="AvenirNext-Regular" font-size="38.0" fill="#FFFFFF" transform="matrix(1.00, 0.00, -0.00, -1.00, 695.9, 343.0)">)</text><text xml:space="preserve" font-family="AvenirNext-Regular" font-size="38.0" fill="#FFFFFF" transform="matrix(1.00, 0.00, -0.00, -1.00, 707.3, 343.0)"> </text><text xml:space="preserve" font-family="AvenirNext-Regular" font-size="38.0" fill="#FFFFFF" transform="matrix(1.00, 0.00, -0.00, -1.00, 300.0, 285.0)">@</text><text xml:space="preserve" font-family="AvenirNext-Regular" font-size="38.0" fill="#FFFFFF" transform="matrix(1.00, 0.00, -0.00, -1.00, 330.4, 285.0)">n</text><text xml:space="preserve" font-family="AvenirNext-Regular" font-size="38.0" fill="#FFFFFF" transform="matrix(1.00, 0.00, -0.00, -1.00, 352.5, 285.0)">a</text><text xml:space="preserve" font-family="AvenirNext-Regular" font-size="38.0" fill="#FFFFFF" transform="matrix(1.00, 0.00, -0.00, -1.00, 372.8, 285.0)">o</text><text xml:space="preserve" font-family="AvenirNext-Regular" font-size="38.0" fill="#FFFFFF" transform="matrix(1.00, 0.00, -0.00, -1.00, 396.0, 285.0)">m</text><text xml:space="preserve" font-family="AvenirNext-Regular" font-size="38.0" fill="#FFFFFF" transform="matrix(1.00, 0.00, -0.00, -1.00, 429.5, 285.0)">i</text><text xml:space="preserve" font-family="AvenirNext-Regular" font-size="38.0" fill="#FFFFFF" transform="matrix(1.00, 0.00, -0.00, -1.00, 439.0, 285.0)">a</text><text xml:space="preserve" font-family="AvenirNext-Regular" font-size="38.0" fill="#FFFFFF" transform="matrix(1.00, 0.00, -0.00, -1.00, 459.3, 285.0)">j</text><text xml:space="preserve" font-family="AvenirNext-Regular" font-size="38.0" fill="#FFFFFF" transform="matrix(1.00, 0.00, -0.00, -1.00, 468.9, 285.0)">a</text><text xml:space="preserve" font-family="AvenirNext-Regular" font-size="38.0" fill="#FFFFFF" transform="matrix(1.00, 0.00, -0.00, -1.00, 489.2, 285.0)">c</text><text xml:space="preserve" font-family="AvenirNext-Regular" font-size="38.0" fill="#FFFFFF" transform="matrix(1.00, 0.00, -0.00, -1.00, 508.2, 285.0)">o</text><text xml:space="preserve" font-family="AvenirNext-Regular" font-size="38.0" fill="#FFFFFF" transform="matrix(1.00, 0.00, -0.00, -1.00, 531.4, 285.0)">b</text><text xml:space="preserve" font-family="AvenirNext-Regular" font-size="38.0" fill="#FFFFFF" transform="matrix(1.00, 0.00, -0.00, -1.00, 555.6, 285.0)">s</text><text xml:space="preserve" font-family="AvenirNext-Regular" font-size="38.0" fill="#FFFFFF" transform="matrix(1.00, 0.00, -0.00, -1.00, 572.5, 285.0)"> </text><text xml:space="preserve" font-family="AvenirNext-Regular" font-size="38.0" fill="#FFFFFF" transform="matrix(1.00, 0.00, -0.00, -1.00, 582.0, 285.0)">(</text><text xml:space="preserve" font-family="AvenirNext-Regular" font-size="38.0" fill="#FFFFFF" transform="matrix(1.00, 0.00, -0.00, -1.00, 593.4, 285.0)">G</text><text xml:space="preserve" font-family="AvenirNext-Regular" font-size="38.0" fill="#FFFFFF" transform="matrix(1.00, 0.00, -0.00, -1.00, 623.0, 285.0)">i</text><text xml:space="preserve" font-family="AvenirNext-Regular" font-size="38.0" fill="#FFFFFF" transform="matrix(1.00, 0.00, -0.00, -1.00, 632.5, 285.0)">t</text><text xml:space="preserve" font-family="AvenirNext-Regular" font-size="38.0" fill="#FFFFFF" transform="matrix(1.00, 0.00, -0.00, -1.00, 644.5, 285.0)">h</text><text xml:space="preserve" font-family="AvenirNext-Regular" font-size="38.0" fill="#FFFFFF" transform="matrix(1.00, 0.00, -0.00, -1.00, 666.7, 285.0)">u</text><text xml:space="preserve" font-family="AvenirNext-Regular" font-size="38.0" fill="#FFFFFF" transform="matrix(1.00, 0.00, -0.00, -1.00, 688.7, 285.0)">b</text><text xml:space="preserve" font-family="AvenirNext-Regular" font-size="38.0" fill="#FFFFFF" transform="matrix(1.00, 0.00, -0.00, -1.00, 712.9, 285.0)">)</text><text xml:space="preserve" font-family="AvenirNext-Regular" font-size="38.0" fill="#FFFFFF" transform="matrix(1.00, 0.00, -0.00, -1.00, 724.3, 285.0)"> </text><text xml:space="preserve" font-family="AvenirNext-Regular" font-size="38.0" fill="#FFFFFF" transform="matrix(1.00, 0.00, -0.00, -1.00, 284.0, 226.0)">n</text><text xml:space="preserve" font-family="AvenirNext-Regular" font-size="38.0" fill="#FFFFFF" transform="matrix(1.00, 0.00, -0.00, -1.00, 306.1, 226.0)">a</text><text xml:space="preserve" font-family="AvenirNext-Regular" font-size="38.0" fill="#FFFFFF" transform="matrix(1.00, 0.00, -0.00, -1.00, 326.4, 226.0)">o</text><text xml:space="preserve" font-family="AvenirNext-Regular" font-size="38.0" fill="#FFFFFF" transform="matrix(1.00, 0.00, -0.00, -1.00, 349.6, 226.0)">m</text><text xml:space="preserve" font-family="AvenirNext-Regular" font-size="38.0" fill="#FFFFFF" transform="matrix(1.00, 0.00, -0.00, -1.00, 383.1, 226.0)">i</text><text xml:space="preserve" font-family="AvenirNext-Regular" font-size="38.0" fill="#FFFFFF" transform="matrix(1.00, 0.00, -0.00, -1.00, 392.6, 226.0)">a</text><text xml:space="preserve" font-family="AvenirNext-Regular" font-size="38.0" fill="#FFFFFF" transform="matrix(1.00, 0.00, -0.00, -1.00, 412.9, 226.0)">j</text><text xml:space="preserve" font-family="AvenirNext-Regular" font-size="38.0" fill="#FFFFFF" transform="matrix(1.00, 0.00, -0.00, -1.00, 422.5, 226.0)">a</text><text xml:space="preserve" font-family="AvenirNext-Regular" font-size="38.0" fill="#FFFFFF" transform="matrix(1.00, 0.00, -0.00, -1.00, 442.8, 226.0)">c</text><text xml:space="preserve" font-family="AvenirNext-Regular" font-size="38.0" fill="#FFFFFF" transform="matrix(1.00, 0.00, -0.00, -1.00, 461.8, 226.0)">o</text><text xml:space="preserve" font-family="AvenirNext-Regular" font-size="38.0" fill="#FFFFFF" transform="matrix(1.00, 0.00, -0.00, -1.00, 485.0, 226.0)">b</text><text xml:space="preserve" font-family="AvenirNext-Regular" font-size="38.0" fill="#FFFFFF" transform="matrix(1.00, 0.00, -0.00, -1.00, 509.2, 226.0)">s</text><text xml:space="preserve" font-family="AvenirNext-Regular" font-size="38.0" fill="#FFFFFF" transform="matrix(1.00, 0.00, -0.00, -1.00, 526.1, 226.0)">@</text><text xml:space="preserve" font-family="AvenirNext-Regular" font-size="38.0" fill="#FFFFFF" transform="matrix(1.00, 0.00, -0.00, -1.00, 556.5, 226.0)">g</text><text xml:space="preserve" font-family="AvenirNext-Regular" font-size="38.0" fill="#FFFFFF" transform="matrix(1.00, 0.00, -0.00, -1.00, 580.5, 226.0)">m</text><text xml:space="preserve" font-family="AvenirNext-Regular" font-size="38.0" fill="#FFFFFF" transform="matrix(1.00, 0.00, -0.00, -1.00, 614.0, 226.0)">a</text><text xml:space="preserve" font-family="AvenirNext-Regular" font-size="38.0" fill="#FFFFFF" transform="matrix(1.00, 0.00, -0.00, -1.00, 634.3, 226.0)">i</text><text xml:space="preserve" font-family="AvenirNext-Regular" font-size="38.0" fill="#FFFFFF" transform="matrix(1.00, 0.00, -0.00, -1.00, 643.8, 226.0)">l</text><text xml:space="preserve" font-family="AvenirNext-Regular" font-size="38.0" fill="#FFFFFF" transform="matrix(1.00, 0.00, -0.00, -1.00, 653.4, 226.0)">.</text><text xml:space="preserve" font-family="AvenirNext-Regular" font-size="38.0" fill="#FFFFFF" transform="matrix(1.00, 0.00, -0.00, -1.00, 663.3, 226.0)">c</text><text xml:space="preserve" font-family="AvenirNext-Regular" font-size="38.0" fill="#FFFFFF" transform="matrix(1.00, 0.00, -0.00, -1.00, 682.3, 226.0)">o</text><text xml:space="preserve" font-family="AvenirNext-Regular" font-size="38.0" fill="#FFFFFF" transform="matrix(1.00, 0.00, -0.00, -1.00, 705.5, 226.0)">m</text><text xml:space="preserve" font-family="AvenirNext-Regular" font-size="38.0" fill="#FFFFFF" transform="matrix(1.00, 0.00, -0.00, -1.00, 739.0, 226.0)"> </text><text xml:space="preserve" font-family="AvenirNext-Regular" font-size="38.0" fill="#7DC6D0" transform="matrix(1.00, 0.00, -0.00, -1.00, 59.0, 168.0)">h</text><text xml:space="preserve" font-family="AvenirNext-Regular" font-size="38.0" fill="#7DC6D0" transform="matrix(1.00, 0.00, -0.00, -1.00, 81.2, 168.0)">t</text><text xml:space="preserve" font-family="AvenirNext-Regular" font-size="38.0" fill="#7DC6D0" transform="matrix(1.00, 0.00, -0.00, -1.00, 92.7, 168.0)">t</text><text xml:space="preserve" font-family="AvenirNext-Regular" font-size="38.0" fill="#7DC6D0" transform="matrix(1.00, 0.00, -0.00, -1.00, 104.8, 168.0)">p</text><text xml:space="preserve" font-family="AvenirNext-Regular" font-size="38.0" fill="#7DC6D0" transform="matrix(1.00, 0.00, -0.00, -1.00, 128.9, 168.0)">s</text><text xml:space="preserve" font-family="AvenirNext-Regular" font-size="38.0" fill="#7DC6D0" transform="matrix(1.00, 0.00, -0.00, -1.00, 145.8, 168.0)">:</text><text xml:space="preserve" font-family="AvenirNext-Regular" font-size="38.0" fill="#7DC6D0" transform="matrix(1.00, 0.00, -0.00, -1.00, 157.2, 168.0)">/</text><text xml:space="preserve" font-family="AvenirNext-Regular" font-size="38.0" fill="#7DC6D0" transform="matrix(1.00, 0.00, -0.00, -1.00, 171.3, 168.0)">/</text><text xml:space="preserve" font-family="AvenirNext-Regular" font-size="38.0" fill="#7DC6D0" transform="matrix(1.00, 0.00, -0.00, -1.00, 185.3, 168.0)">g</text><text xml:space="preserve" font-family="AvenirNext-Regular" font-size="38.0" fill="#7DC6D0" transform="matrix(1.00, 0.00, -0.00, -1.00, 209.3, 168.0)">i</text><text xml:space="preserve" font-family="AvenirNext-Regular" font-size="38.0" fill="#7DC6D0" transform="matrix(1.00, 0.00, -0.00, -1.00, 218.8, 168.0)">t</text><text xml:space="preserve" font-family="AvenirNext-Regular" font-size="38.0" fill="#7DC6D0" transform="matrix(1.00, 0.00, -0.00, -1.00, 230.9, 168.0)">h</text><text xml:space="preserve" font-family="AvenirNext-Regular" font-size="38.0" fill="#7DC6D0" transform="matrix(1.00, 0.00, -0.00, -1.00, 253.0, 168.0)">u</text><text xml:space="preserve" font-family="AvenirNext-Regular" font-size="38.0" fill="#7DC6D0" transform="matrix(1.00, 0.00, -0.00, -1.00, 275.1, 168.0)">b</text><text xml:space="preserve" font-family="AvenirNext-Regular" font-size="38.0" fill="#7DC6D0" transform="matrix(1.00, 0.00, -0.00, -1.00, 298.9, 168.0)">.</text><text xml:space="preserve" font-family="AvenirNext-Regular" font-size="38.0" fill="#7DC6D0" transform="matrix(1.00, 0.00, -0.00, -1.00, 308.7, 168.0)">c</text><text xml:space="preserve" font-family="AvenirNext-Regular" font-size="38.0" fill="#7DC6D0" transform="matrix(1.00, 0.00, -0.00, -1.00, 327.7, 168.0)">o</text><text xml:space="preserve" font-family="AvenirNext-Regular" font-size="38.0" fill="#7DC6D0" transform="matrix(1.00, 0.00, -0.00, -1.00, 351.0, 168.0)">m</text><text xml:space="preserve" font-family="AvenirNext-Regular" font-size="38.0" fill="#7DC6D0" transform="matrix(1.00, 0.00, -0.00, -1.00, 384.5, 168.0)">/</text><text xml:space="preserve" font-family="AvenirNext-Regular" font-size="38.0" fill="#7DC6D0" transform="matrix(1.00, 0.00, -0.00, -1.00, 398.6, 168.0)">n</text><text xml:space="preserve" font-family="AvenirNext-Regular" font-size="38.0" fill="#7DC6D0" transform="matrix(1.00, 0.00, -0.00, -1.00, 420.6, 168.0)">a</text><text xml:space="preserve" font-family="AvenirNext-Regular" font-size="38.0" fill="#7DC6D0" transform="matrix(1.00, 0.00, -0.00, -1.00, 440.9, 168.0)">o</text><text xml:space="preserve" font-family="AvenirNext-Regular" font-size="38.0" fill="#7DC6D0" transform="matrix(1.00, 0.00, -0.00, -1.00, 464.2, 168.0)">m</text><text xml:space="preserve" font-family="AvenirNext-Regular" font-size="38.0" fill="#7DC6D0" transform="matrix(1.00, 0.00, -0.00, -1.00, 497.7, 168.0)">i</text><text xml:space="preserve" font-family="AvenirNext-Regular" font-size="38.0" fill="#7DC6D0" transform="matrix(1.00, 0.00, -0.00, -1.00, 507.2, 168.0)">a</text><text xml:space="preserve" font-family="AvenirNext-Regular" font-size="38.0" fill="#7DC6D0" transform="matrix(1.00, 0.00, -0.00, -1.00, 527.5, 168.0)">j</text><text xml:space="preserve" font-family="AvenirNext-Regular" font-size="38.0" fill="#7DC6D0" transform="matrix(1.00, 0.00, -0.00, -1.00, 537.0, 168.0)">a</text><text xml:space="preserve" font-family="AvenirNext-Regular" font-size="38.0" fill="#7DC6D0" transform="matrix(1.00, 0.00, -0.00, -1.00, 557.3, 168.0)">c</text><text xml:space="preserve" font-family="AvenirNext-Regular" font-size="38.0" fill="#7DC6D0" transform="matrix(1.00, 0.00, -0.00, -1.00, 576.3, 168.0)">o</text><text xml:space="preserve" font-family="AvenirNext-Regular" font-size="38.0" fill="#7DC6D0" transform="matrix(1.00, 0.00, -0.00, -1.00, 599.5, 168.0)">b</text><text xml:space="preserve" font-family="AvenirNext-Regular" font-size="38.0" fill="#7DC6D0" transform="matrix(1.00, 0.00, -0.00, -1.00, 623.8, 168.0)">s</text><text xml:space="preserve" font-family="AvenirNext-Regular" font-size="38.0" fill="#7DC6D0" transform="matrix(1.00, 0.00, -0.00, -1.00, 640.6, 168.0)">/</text><text xml:space="preserve" font-family="AvenirNext-Regular" font-size="38.0" fill="#7DC6D0" transform="matrix(1.00, 0.00, -0.00, -1.00, 654.7, 168.0)">w</text><text xml:space="preserve" font-family="AvenirNext-Regular" font-size="38.0" fill="#7DC6D0" transform="matrix(1.00, 0.00, -0.00, -1.00, 683.0, 168.0)">e</text><text xml:space="preserve" font-family="AvenirNext-Regular" font-size="38.0" fill="#7DC6D0" transform="matrix(1.00, 0.00, -0.00, -1.00, 704.8, 168.0)">b</text><text xml:space="preserve" font-family="AvenirNext-Regular" font-size="38.0" fill="#7DC6D0" transform="matrix(1.00, 0.00, -0.00, -1.00, 729.0, 168.0)">p</text><text xml:space="preserve" font-family="AvenirNext-Regular" font-size="38.0" fill="#7DC6D0" transform="matrix(1.00, 0.00, -0.00, -1.00, 753.1, 168.0)">a</text><text xml:space="preserve" font-family="AvenirNext-Regular" font-size="38.0" fill="#7DC6D0" transform="matrix(1.00, 0.00, -0.00, -1.00, 773.4, 168.0)">c</text><text xml:space="preserve" font-family="AvenirNext-Regular" font-size="38.0" fill="#7DC6D0" transform="matrix(1.00, 0.00, -0.00, -1.00, 792.4, 168.0)">k</text><text xml:space="preserve" font-family="AvenirNext-Regular" font-size="38.0" fill="#7DC6D0" transform="matrix(1.00, 0.00, -0.00, -1.00, 811.8, 168.0)">S</text><text xml:space="preserve" font-family="AvenirNext-Regular" font-size="38.0" fill="#7DC6D0" transform="matrix(1.00, 0.00, -0.00, -1.00, 833.2, 168.0)">a</text><text xml:space="preserve" font-family="AvenirNext-Regular" font-size="38.0" fill="#7DC6D0" transform="matrix(1.00, 0.00, -0.00, -1.00, 853.5, 168.0)">n</text><text xml:space="preserve" font-family="AvenirNext-Regular" font-size="38.0" fill="#7DC6D0" transform="matrix(1.00, 0.00, -0.00, -1.00, 875.6, 168.0)">d</text><text xml:space="preserve" font-family="AvenirNext-Regular" font-size="38.0" fill="#7DC6D0" transform="matrix(1.00, 0.00, -0.00, -1.00, 899.8, 168.0)">b</text><text xml:space="preserve" font-family="AvenirNext-Regular" font-size="38.0" fill="#7DC6D0" transform="matrix(1.00, 0.00, -0.00, -1.00, 924.0, 168.0)">o</text><text xml:space="preserve" font-family="AvenirNext-Regular" font-size="38.0" fill="#7DC6D0" transform="matrix(1.00, 0.00, -0.00, -1.00, 947.0, 168.0)">x</text><text xml:space="preserve" font-family="AvenirNext-Regular" font-size="38.0" fill="#7DC6D0" transform="matrix(1.00, 0.00, -0.00, -1.00, 965.4, 168.0)"> </text></g></svg>