<?xml version="1.0" encoding="UTF-8" standalone="no"?><svg xmlns="http://www.w3.org/2000/svg" xmlns:xlink="http://www.w3.org/1999/xlink" clip-rule="evenodd" stroke-miterlimit="4.00" viewBox="0 0 1024 768"><desc>SVG generated by Keynote</desc><defs></defs><g transform="matrix(1.00, 0.00, -0.00, -1.00, 0.0, 768.0)"><path d="M 0.0 768.0 L 1024.0 768.0 L 1024.0 0.0 L 0.0 0.0 Z M 0.0 768.0 " fill="#363637"></path><path d="M 46.0 641.1 C 44.6 641.1 42.8 641.3 42.6 643.3 C 42.3 645.4 43.8 646.9 45.9 646.9 C 47.9 646.9 47.3 645.8 52.1 645.8 C 53.9 645.8 54.0 642.1 52.2 642.1 C 47.9 642.1 48.5 641.1 46.0 641.1 C 46.0 641.1 46.0 641.1 46.0 641.1 Z M 977.8 646.9 C 980.2 646.9 981.2 646.0 981.3 644.0 C 981.4 642.0 980.0 641.1 977.8 641.1 C 975.6 641.1 975.7 642.2 972.0 642.1 C 970.0 642.1 970.4 645.8 972.0 645.8 C 975.9 645.8 975.3 646.9 977.8 646.9 C 977.8 646.9 977.8 646.9 977.8 646.9 Z M 52.3 642.1 C 50.6 642.1 50.5 645.8 52.6 645.8 C 54.7 645.8 59.5 645.2 60.7 645.2 C 61.9 645.3 65.4 646.0 66.4 646.0 C 67.5 646.0 72.8 644.9 75.0 645.2 C 77.2 645.6 77.9 645.4 79.4 645.4 C 81.0 645.4 83.4 645.2 84.9 645.1 C 86.4 645.0 87.7 646.0 89.6 645.7 C 91.5 645.5 92.6 645.8 93.9 645.8 C 96.0 645.8 95.9 642.2 93.9 642.2 C 92.0 642.2 90.7 641.9 89.1 642.0 C 87.5 642.1 86.1 642.5 84.5 642.1 C 83.0 641.7 80.0 642.1 78.1 642.3 C 76.3 642.6 74.2 642.5 72.8 642.3 C 69.8 642.0 62.8 642.7 61.8 642.4 C 60.8 642.1 57.6 642.4 56.4 642.4 C 55.3 642.4 54.7 642.1 52.3 642.1 C 52.3 642.1 52.3 642.1 52.3 642.1 Z M 135.6 645.8 C 137.6 645.8 137.9 642.2 135.6 642.2 C 133.3 642.2 129.1 642.5 127.9 642.4 C 126.7 642.3 121.5 642.1 120.4 642.1 C 119.4 642.1 115.5 642.7 113.2 642.4 C 111.0 642.0 108.8 642.7 107.3 642.5 C 105.3 642.3 104.3 642.5 102.9 642.6 C 101.4 642.6 99.1 641.9 97.9 642.2 C 96.6 642.5 95.9 642.2 94.2 642.2 C 92.5 642.2 92.5 645.8 94.1 645.8 C 95.8 645.8 97.2 645.8 98.8 645.7 C 100.4 645.6 102.4 645.5 104.1 645.5 C 105.7 645.5 108.1 646.0 110.0 645.8 C 111.8 645.5 114.5 645.4 115.6 645.4 C 117.0 645.3 119.8 645.5 121.1 645.2 C 122.7 645.0 125.4 645.4 126.4 645.7 C 127.4 646.0 128.1 645.6 130.3 645.6 C 131.6 645.7 133.7 645.8 135.6 645.8 C 135.6 645.8 135.6 645.8 135.6 645.8 Z M 136.2 645.8 C 138.5 645.8 142.1 645.3 143.0 645.3 C 143.9 645.3 146.9 645.6 148.3 645.5 C 149.7 645.5 150.2 645.2 152.6 645.1 C 155.6 645.0 157.5 645.4 157.7 645.4 C 158.1 645.5 159.5 645.9 161.5 645.8 C 164.2 645.6 165.0 646.0 166.2 645.8 C 168.2 645.4 168.4 645.8 170.0 645.7 C 171.6 645.6 172.6 645.8 173.8 645.6 C 175.2 645.4 176.2 645.9 177.4 645.8 C 179.4 645.8 179.2 642.1 177.4 642.1 C 176.2 642.1 175.2 642.5 174.0 642.5 C 172.8 642.5 171.8 642.5 170.6 642.3 C 169.4 642.2 167.0 642.4 165.0 642.3 C 163.1 642.2 159.9 642.0 157.7 642.1 C 155.4 642.2 154.0 643.0 149.5 642.5 C 148.0 642.3 145.1 642.4 143.9 642.4 C 141.8 642.4 137.7 642.2 136.0 642.2 C 133.9 642.2 134.0 645.8 136.2 645.8 C 136.2 645.8 136.2 645.8 136.2 645.8 Z M 219.2 645.8 C 221.1 645.8 221.5 642.2 219.2 642.2 C 216.9 642.2 212.7 642.5 211.5 642.4 C 210.2 642.3 205.1 642.1 204.0 642.1 C 202.9 642.1 199.1 642.7 196.8 642.4 C 194.6 642.0 192.4 642.7 190.9 642.5 C 188.9 642.3 187.9 642.5 186.4 642.6 C 185.0 642.6 182.7 641.9 181.5 642.2 C 180.2 642.5 179.5 642.2 177.8 642.2 C 176.1 642.2 176.1 645.8 177.7 645.8 C 179.3 645.8 180.7 645.8 182.4 645.7 C 184.0 645.6 186.0 645.5 187.7 645.5 C 189.3 645.5 191.7 646.0 193.6 645.8 C 195.4 645.5 198.1 645.4 199.2 645.4 C 200.6 645.3 203.4 645.5 204.7 645.2 C 206.3 645.0 209.0 645.4 210.0 645.7 C 211.0 646.0 211.7 645.6 213.9 645.6 C 215.2 645.7 217.3 645.8 219.2 645.8 C 219.2 645.8 219.2 645.8 219.2 645.8 Z M 219.8 645.8 C 222.1 645.8 225.7 645.3 226.6 645.3 C 227.5 645.3 230.5 645.6 231.9 645.5 C 233.3 645.5 233.8 645.2 236.2 645.1 C 239.1 645.0 241.1 645.4 241.2 645.4 C 241.7 645.5 243.1 645.9 245.1 645.8 C 247.8 645.6 248.6 646.0 249.8 645.8 C 251.8 645.4 252.0 645.8 253.6 645.7 C 255.2 645.6 256.1 645.8 257.4 645.6 C 258.8 645.4 259.8 645.9 261.0 645.8 C 263.0 645.8 262.8 642.1 260.9 642.1 C 259.8 642.1 258.8 642.5 257.6 642.5 C 256.4 642.5 255.4 642.5 254.2 642.3 C 253.0 642.2 250.6 642.4 248.6 642.3 C 246.7 642.2 243.5 642.0 241.2 642.1 C 239.0 642.2 237.6 643.0 233.1 642.5 C 231.6 642.3 228.7 642.4 227.5 642.4 C 225.4 642.4 221.3 642.2 219.6 642.2 C 217.5 642.2 217.6 645.8 219.8 645.8 C 219.8 645.8 219.8 645.8 219.8 645.8 Z M 302.8 645.8 C 304.7 645.8 305.1 642.2 302.8 642.2 C 300.5 642.2 296.3 642.5 295.1 642.4 C 293.8 642.3 288.7 642.1 287.6 642.1 C 286.5 642.1 282.7 642.7 280.4 642.4 C 278.2 642.0 276.0 642.7 274.4 642.5 C 272.5 642.3 271.5 642.5 270.0 642.6 C 268.6 642.6 266.3 641.9 265.1 642.2 C 263.8 642.5 263.1 642.2 261.4 642.2 C 259.6 642.2 259.7 645.8 261.3 645.8 C 262.9 645.8 264.3 645.8 266.0 645.7 C 267.6 645.6 269.6 645.5 271.3 645.5 C 272.9 645.5 275.3 646.0 277.2 645.8 C 279.0 645.5 281.7 645.4 282.8 645.4 C 284.1 645.3 287.0 645.5 288.3 645.2 C 289.8 645.0 292.6 645.4 293.6 645.7 C 294.6 646.0 295.3 645.6 297.5 645.6 C 298.8 645.7 300.9 645.8 302.8 645.8 C 302.8 645.8 302.8 645.8 302.8 645.8 Z M 303.1 642.1 C 301.3 642.1 301.3 645.8 303.3 645.8 C 305.5 645.8 310.2 645.2 311.5 645.2 C 312.7 645.3 316.1 646.0 317.2 646.0 C 318.3 646.0 323.5 644.9 325.8 645.2 C 328.0 645.6 328.6 645.4 330.2 645.4 C 331.7 645.4 334.2 645.2 335.7 645.1 C 337.1 645.0 338.5 646.0 340.4 645.7 C 342.3 645.5 343.4 645.8 344.7 645.8 C 346.8 645.8 346.7 642.2 344.7 642.2 C 342.8 642.2 341.5 641.9 339.8 642.0 C 338.2 642.1 336.8 642.5 335.3 642.1 C 333.7 641.7 330.7 642.1 328.9 642.3 C 327.0 642.6 325.0 642.5 323.5 642.3 C 320.6 642.0 313.6 642.7 312.5 642.4 C 311.5 642.1 308.3 642.4 307.2 642.4 C 306.0 642.4 305.4 642.1 303.1 642.1 C 303.1 642.1 303.1 642.1 303.1 642.1 Z M 345.2 645.8 C 347.4 645.8 351.1 645.3 352.0 645.3 C 352.9 645.3 355.9 645.6 357.3 645.5 C 358.7 645.5 359.2 645.2 361.6 645.1 C 364.5 645.0 366.5 645.4 366.6 645.4 C 367.0 645.5 368.5 645.9 370.5 645.8 C 373.2 645.6 374.0 646.0 375.2 645.8 C 377.2 645.4 377.4 645.8 379.0 645.7 C 380.5 645.6 381.5 645.8 382.8 645.6 C 384.1 645.4 385.1 645.9 386.4 645.8 C 388.4 645.8 388.2 642.1 386.3 642.1 C 385.2 642.1 384.2 642.5 383.0 642.5 C 381.8 642.5 380.8 642.5 379.6 642.3 C 378.4 642.2 375.9 642.4 374.0 642.3 C 372.1 642.2 368.9 642.0 366.6 642.1 C 364.4 642.2 363.0 643.0 358.4 642.5 C 357.0 642.3 354.0 642.4 352.8 642.4 C 350.7 642.4 346.7 642.2 345.0 642.2 C 342.9 642.2 343.0 645.8 345.2 645.8 C 345.2 645.8 345.2 645.8 345.2 645.8 Z M 428.2 645.8 C 430.1 645.8 430.5 642.2 428.2 642.2 C 425.9 642.2 421.7 642.5 420.5 642.4 C 419.2 642.3 414.1 642.1 413.0 642.1 C 411.9 642.1 408.0 642.7 405.8 642.4 C 403.6 642.0 401.4 642.7 399.8 642.5 C 397.9 642.3 396.9 642.5 395.4 642.6 C 393.9 642.6 391.7 641.9 390.4 642.2 C 389.2 642.5 388.5 642.2 386.8 642.2 C 385.0 642.2 385.0 645.8 386.7 645.8 C 388.3 645.8 389.7 645.8 391.3 645.7 C 393.0 645.6 394.9 645.5 396.7 645.5 C 398.3 645.5 400.7 646.0 402.5 645.8 C 404.4 645.5 407.1 645.4 408.2 645.4 C 409.5 645.3 412.4 645.5 413.6 645.2 C 415.2 645.0 418.0 645.4 419.0 645.7 C 420.0 646.0 420.7 645.6 422.9 645.6 C 424.2 645.7 426.2 645.8 428.2 645.8 C 428.2 645.8 428.2 645.8 428.2 645.8 Z M 428.8 645.8 C 431.0 645.8 434.7 645.3 435.6 645.3 C 436.5 645.3 439.4 645.6 440.9 645.5 C 442.3 645.5 442.8 645.2 445.1 645.1 C 448.1 645.0 450.1 645.4 450.2 645.4 C 450.6 645.5 452.1 645.9 454.1 645.8 C 456.8 645.6 457.6 646.0 458.8 645.8 C 460.8 645.4 461.0 645.8 462.6 645.7 C 464.1 645.6 465.1 645.8 466.4 645.6 C 467.7 645.4 468.7 645.9 470.0 645.8 C 472.0 645.8 471.8 642.1 469.9 642.1 C 468.8 642.1 467.8 642.5 466.6 642.5 C 465.4 642.5 464.3 642.5 463.2 642.3 C 462.0 642.2 459.5 642.4 457.6 642.3 C 455.7 642.2 452.5 642.0 450.2 642.1 C 448.0 642.2 446.6 643.0 442.0 642.5 C 440.6 642.3 437.6 642.4 436.4 642.4 C 434.3 642.4 430.3 642.2 428.6 642.2 C 426.5 642.2 426.5 645.8 428.8 645.8 C 428.8 645.8 428.8 645.8 428.8 645.8 Z M 511.8 645.8 C 513.7 645.8 514.0 642.2 511.8 642.2 C 509.5 642.2 505.3 642.5 504.0 642.4 C 502.8 642.3 497.7 642.1 496.6 642.1 C 495.5 642.1 491.6 642.7 489.4 642.4 C 487.1 642.0 484.9 642.7 483.4 642.5 C 481.5 642.3 480.5 642.5 479.0 642.6 C 477.5 642.6 475.3 641.9 474.0 642.2 C 472.8 642.5 472.1 642.2 470.4 642.2 C 468.6 642.2 468.6 645.8 470.3 645.8 C 471.9 645.8 473.3 645.8 474.9 645.7 C 476.6 645.6 478.5 645.5 480.3 645.5 C 481.9 645.5 484.3 646.0 486.1 645.8 C 488.0 645.5 490.7 645.4 491.8 645.4 C 493.1 645.3 496.0 645.5 497.2 645.2 C 498.8 645.0 501.6 645.4 502.6 645.7 C 503.6 646.0 504.3 645.6 506.5 645.6 C 507.8 645.7 509.8 645.8 511.8 645.8 C 511.8 645.8 511.8 645.8 511.8 645.8 Z M 512.4 645.8 C 514.6 645.8 518.3 645.3 519.2 645.3 C 520.0 645.3 523.0 645.6 524.5 645.5 C 525.9 645.5 526.3 645.2 528.7 645.1 C 531.7 645.0 533.7 645.4 533.8 645.4 C 534.2 645.5 535.7 645.9 537.7 645.8 C 540.4 645.6 541.2 646.0 542.3 645.8 C 544.4 645.4 544.6 645.8 546.2 645.7 C 547.7 645.6 548.7 645.8 549.9 645.6 C 551.3 645.4 552.3 645.9 553.6 645.8 C 555.6 645.8 555.4 642.1 553.5 642.1 C 552.4 642.1 551.4 642.5 550.2 642.5 C 549.0 642.5 547.9 642.5 546.7 642.3 C 545.6 642.2 543.1 642.4 541.2 642.3 C 539.3 642.2 536.0 642.0 533.8 642.1 C 531.6 642.2 530.2 643.0 525.6 642.5 C 524.1 642.3 521.2 642.4 520.0 642.4 C 517.9 642.4 513.9 642.2 512.2 642.2 C 510.1 642.2 510.1 645.8 512.4 645.8 C 512.4 645.8 512.4 645.8 512.4 645.8 Z M 595.4 645.8 C 597.3 645.8 597.6 642.2 595.4 642.2 C 593.1 642.2 588.9 642.5 587.6 642.4 C 586.4 642.3 581.2 642.1 580.2 642.1 C 579.1 642.1 575.2 642.7 573.0 642.4 C 570.7 642.0 568.5 642.7 567.0 642.5 C 565.1 642.3 564.1 642.5 562.6 642.6 C 561.1 642.6 558.9 641.9 557.6 642.2 C 556.4 642.5 555.7 642.2 554.0 642.2 C 552.2 642.2 552.2 645.8 553.9 645.8 C 555.5 645.8 556.9 645.8 558.5 645.7 C 560.1 645.6 562.1 645.5 563.9 645.5 C 565.5 645.5 567.9 646.0 569.7 645.8 C 571.6 645.5 574.3 645.4 575.3 645.4 C 576.7 645.3 579.6 645.5 580.8 645.2 C 582.4 645.0 585.1 645.4 586.2 645.7 C 587.2 646.0 587.9 645.6 590.0 645.6 C 591.3 645.7 593.4 645.8 595.4 645.8 C 595.4 645.8 595.4 645.8 595.4 645.8 Z M 595.6 642.1 C 593.9 642.1 593.8 645.8 595.9 645.8 C 598.1 645.8 602.8 645.2 604.0 645.2 C 605.3 645.3 608.7 646.0 609.8 646.0 C 610.8 646.0 616.1 644.9 618.3 645.2 C 620.6 645.6 621.2 645.4 622.8 645.4 C 624.3 645.4 626.8 645.2 628.2 645.1 C 629.7 645.0 631.0 646.0 632.9 645.7 C 634.9 645.5 635.9 645.8 637.2 645.8 C 639.4 645.8 639.2 642.2 637.3 642.2 C 635.3 642.2 634.0 641.9 632.4 642.0 C 630.8 642.1 629.4 642.5 627.8 642.1 C 626.3 641.7 623.3 642.1 621.5 642.3 C 619.6 642.6 617.5 642.5 616.1 642.3 C 613.1 642.0 606.1 642.7 605.1 642.4 C 604.1 642.1 600.9 642.4 599.7 642.4 C 598.6 642.4 598.0 642.1 595.6 642.1 C 595.6 642.1 595.6 642.1 595.6 642.1 Z M 637.8 645.8 C 640.0 645.8 643.6 645.3 644.5 645.3 C 645.4 645.3 648.4 645.6 649.8 645.5 C 651.3 645.5 651.7 645.2 654.1 645.1 C 657.1 645.0 659.0 645.4 659.2 645.4 C 659.6 645.5 661.0 645.9 663.1 645.8 C 665.7 645.6 666.5 646.0 667.7 645.8 C 669.8 645.4 670.0 645.8 671.5 645.7 C 673.1 645.6 674.1 645.8 675.3 645.6 C 676.7 645.4 677.7 645.9 679.0 645.8 C 681.0 645.8 680.8 642.1 678.9 642.1 C 677.8 642.1 676.7 642.5 675.6 642.5 C 674.4 642.5 673.3 642.5 672.1 642.3 C 670.9 642.2 668.5 642.4 666.6 642.3 C 664.6 642.2 661.4 642.0 659.2 642.1 C 657.0 642.2 655.6 643.0 651.0 642.5 C 649.5 642.3 646.6 642.4 645.4 642.4 C 643.3 642.4 639.3 642.2 637.5 642.2 C 635.5 642.2 635.5 645.8 637.8 645.8 C 637.8 645.8 637.8 645.8 637.8 645.8 Z M 720.7 645.8 C 722.7 645.8 723.0 642.2 720.7 642.2 C 718.5 642.2 714.3 642.5 713.0 642.4 C 711.8 642.3 706.6 642.1 705.5 642.1 C 704.5 642.1 700.6 642.7 698.4 642.4 C 696.1 642.0 693.9 642.7 692.4 642.5 C 690.5 642.3 689.4 642.5 688.0 642.6 C 686.5 642.6 684.2 641.9 683.0 642.2 C 681.8 642.5 681.1 642.2 679.3 642.2 C 677.6 642.2 677.6 645.8 679.2 645.8 C 680.9 645.8 682.3 645.8 683.9 645.7 C 685.5 645.6 687.5 645.5 689.3 645.5 C 690.9 645.5 693.2 646.0 695.1 645.8 C 697.0 645.5 699.6 645.4 700.7 645.4 C 702.1 645.3 705.0 645.5 706.2 645.2 C 707.8 645.0 710.5 645.4 711.5 645.7 C 712.5 646.0 713.2 645.6 715.4 645.6 C 716.7 645.7 718.8 645.8 720.7 645.8 C 720.7 645.8 720.7 645.8 720.7 645.8 Z M 721.3 645.8 C 723.6 645.8 727.2 645.3 728.1 645.3 C 729.0 645.3 732.0 645.6 733.4 645.5 C 734.8 645.5 735.3 645.2 737.7 645.1 C 740.7 645.0 742.6 645.4 742.8 645.4 C 743.2 645.5 744.6 645.9 746.6 645.8 C 749.3 645.6 750.1 646.0 751.3 645.8 C 753.4 645.4 753.6 645.8 755.1 645.7 C 756.7 645.6 757.7 645.8 758.9 645.6 C 760.3 645.4 761.3 645.9 762.5 645.8 C 764.5 645.8 764.3 642.1 762.5 642.1 C 761.3 642.1 760.3 642.5 759.1 642.5 C 757.9 642.5 756.9 642.5 755.7 642.3 C 754.5 642.2 752.1 642.4 750.2 642.3 C 748.2 642.2 745.0 642.0 742.8 642.1 C 740.5 642.2 739.2 643.0 734.6 642.5 C 733.1 642.3 730.2 642.4 729.0 642.4 C 726.9 642.4 722.9 642.2 721.1 642.2 C 719.0 642.2 719.1 645.8 721.3 645.8 C 721.3 645.8 721.3 645.8 721.3 645.8 Z M 762.8 642.1 C 761.1 642.1 761.0 645.8 763.1 645.8 C 765.2 645.8 770.0 645.2 771.2 645.2 C 772.4 645.3 775.9 646.0 776.9 646.0 C 778.0 646.0 783.3 644.9 785.5 645.2 C 787.7 645.6 788.4 645.4 789.9 645.4 C 791.5 645.4 793.9 645.2 795.4 645.1 C 796.9 645.0 798.2 646.0 800.1 645.7 C 802.0 645.5 803.1 645.8 804.4 645.8 C 806.5 645.8 806.4 642.2 804.4 642.2 C 802.5 642.2 801.2 641.9 799.6 642.0 C 798.0 642.1 796.6 642.5 795.0 642.1 C 793.5 641.7 790.5 642.1 788.6 642.3 C 786.8 642.6 784.7 642.5 783.3 642.3 C 780.3 642.0 773.3 642.7 772.3 642.4 C 771.3 642.1 768.1 642.4 766.9 642.4 C 765.8 642.4 765.2 642.1 762.8 642.1 C 762.8 642.1 762.8 642.1 762.8 642.1 Z M 804.9 645.8 C 807.2 645.8 810.8 645.3 811.7 645.3 C 812.6 645.3 815.6 645.6 817.0 645.5 C 818.4 645.5 818.9 645.2 821.3 645.1 C 824.3 645.0 826.2 645.4 826.4 645.4 C 826.8 645.5 828.2 645.9 830.2 645.8 C 832.9 645.6 833.7 646.0 834.9 645.8 C 837.0 645.4 837.2 645.8 838.7 645.7 C 840.3 645.6 841.3 645.8 842.5 645.6 C 843.9 645.4 844.9 645.9 846.1 645.8 C 848.1 645.8 847.9 642.1 846.1 642.1 C 844.9 642.1 843.9 642.5 842.7 642.5 C 841.5 642.5 840.5 642.5 839.3 642.3 C 838.1 642.2 835.7 642.4 833.8 642.3 C 831.8 642.2 828.6 642.0 826.4 642.1 C 824.1 642.2 822.7 643.0 818.2 642.5 C 816.7 642.3 813.8 642.4 812.6 642.4 C 810.5 642.4 806.5 642.2 804.7 642.2 C 802.6 642.2 802.7 645.8 804.9 645.8 C 804.9 645.8 804.9 645.8 804.9 645.8 Z M 846.4 642.1 C 844.6 642.1 844.6 645.8 846.7 645.8 C 848.8 645.8 853.5 645.2 854.8 645.2 C 856.0 645.3 859.4 646.0 860.5 646.0 C 861.6 646.0 866.8 644.9 869.1 645.2 C 871.3 645.6 872.0 645.4 873.5 645.4 C 875.1 645.4 877.5 645.2 879.0 645.1 C 880.5 645.0 881.8 646.0 883.7 645.7 C 885.6 645.5 886.7 645.8 888.0 645.8 C 890.1 645.8 890.0 642.2 888.0 642.2 C 886.1 642.2 884.8 641.9 883.2 642.0 C 881.5 642.1 880.1 642.5 878.6 642.1 C 877.1 641.7 874.1 642.1 872.2 642.3 C 870.4 642.6 868.3 642.5 866.8 642.3 C 863.9 642.0 856.9 642.7 855.9 642.4 C 854.9 642.1 851.7 642.4 850.5 642.4 C 849.4 642.4 848.8 642.1 846.4 642.1 C 846.4 642.1 846.4 642.1 846.4 642.1 Z M 888.5 645.8 C 890.8 645.8 894.4 645.3 895.3 645.3 C 896.2 645.3 899.2 645.6 900.6 645.5 C 902.0 645.5 902.5 645.2 904.9 645.1 C 907.9 645.0 909.8 645.4 909.9 645.4 C 910.4 645.5 911.8 645.9 913.8 645.8 C 916.5 645.6 917.3 646.0 918.5 645.8 C 920.5 645.4 920.7 645.8 922.3 645.7 C 923.9 645.6 924.8 645.8 926.1 645.6 C 927.5 645.4 928.5 645.9 929.7 645.8 C 931.7 645.8 931.5 642.1 929.7 642.1 C 928.5 642.1 927.5 642.5 926.3 642.5 C 925.1 642.5 924.1 642.5 922.9 642.3 C 921.7 642.2 919.3 642.4 917.3 642.3 C 915.4 642.2 912.2 642.0 910.0 642.1 C 907.7 642.2 906.3 643.0 901.8 642.5 C 900.3 642.3 897.4 642.4 896.2 642.4 C 894.1 642.4 890.0 642.2 888.3 642.2 C 886.2 642.2 886.3 645.8 888.5 645.8 C 888.5 645.8 888.5 645.8 888.5 645.8 Z M 930.0 642.1 C 928.2 642.1 928.2 645.8 930.2 645.8 C 932.4 645.8 937.1 645.2 938.4 645.2 C 939.6 645.3 943.0 646.0 944.1 646.0 C 945.2 646.0 950.4 644.9 952.7 645.2 C 954.9 645.6 955.6 645.4 957.1 645.4 C 958.7 645.4 961.1 645.2 962.6 645.1 C 964.1 645.0 965.4 646.0 967.3 645.7 C 969.2 645.5 970.3 645.8 971.6 645.8 C 973.7 645.8 973.6 642.2 971.6 642.2 C 969.7 642.2 968.4 641.9 966.8 642.0 C 965.1 642.1 963.7 642.5 962.2 642.1 C 960.6 641.7 957.7 642.1 955.8 642.3 C 953.9 642.6 951.9 642.5 950.4 642.3 C 947.5 642.0 940.5 642.7 939.5 642.4 C 938.4 642.1 935.2 642.4 934.1 642.4 C 933.0 642.4 932.3 642.1 930.0 642.1 C 930.0 642.1 930.0 642.1 930.0 642.1 Z M 930.0 642.1 " fill="#CACACA"></path><g><clipPath id="clip-2791"><path d="M 35.3 658.0 L 988.7 658.0 L 988.7 707.0 L 35.3 707.0 Z M 35.3 658.0 "></path></clipPath><g clip-path="url(#clip-2791)"><text xml:space="preserve" font-family="DINCondensed-Bold" font-weight="bold" font-size="54.8" fill="#DE7D67" transform="matrix(1.00, 0.00, -0.00, -1.00, 49.0, 668.0)">O</text><text xml:space="preserve" font-family="DINCondensed-Bold" font-weight="bold" font-size="54.8" fill="#DE7D67" transform="matrix(1.00, 0.00, -0.00, -1.00, 71.4, 668.0)">V</text><text xml:space="preserve" font-family="DINCondensed-Bold" font-weight="bold" font-size="54.8" fill="#DE7D67" transform="matrix(1.00, 0.00, -0.00, -1.00, 93.7, 668.0)">E</text><text xml:space="preserve" font-family="DINCondensed-Bold" font-weight="bold" font-size="54.8" fill="#DE7D67" transform="matrix(1.00, 0.00, -0.00, -1.00, 113.9, 668.0)">R</text><text xml:space="preserve" font-family="DINCondensed-Bold" font-weight="bold" font-size="54.8" fill="#DE7D67" transform="matrix(1.00, 0.00, -0.00, -1.00, 137.3, 668.0)">V</text><text xml:space="preserve" font-family="DINCondensed-Bold" font-weight="bold" font-size="54.8" fill="#DE7D67" transform="matrix(1.00, 0.00, -0.00, -1.00, 159.6, 668.0)">I</text><text xml:space="preserve" font-family="DINCondensed-Bold" font-weight="bold" font-size="54.8" fill="#DE7D67" transform="matrix(1.00, 0.00, -0.00, -1.00, 170.8, 668.0)">E</text><text xml:space="preserve" font-family="DINCondensed-Bold" font-weight="bold" font-size="54.8" fill="#DE7D67" transform="matrix(1.00, 0.00, -0.00, -1.00, 191.0, 668.0)">W</text></g></g><text xml:space="preserve" font-family="LucidaGrande" font-size="24.0" fill="#CACACA" transform="matrix(1.00, 0.00, -0.00, -1.00, 49.0, 591.1)">‣</text><text xml:space="preserve" font-family="AvenirNext-Regular" font-size="32.0" fill="#FFFFFF" transform="matrix(1.00, 0.00, -0.00, -1.00, 86.0, 590.0)">W</text><text xml:space="preserve" font-family="AvenirNext-Regular" font-size="32.0" fill="#FFFFFF" transform="matrix(1.00, 0.00, -0.00, -1.00, 117.1, 590.0)">h</text><text xml:space="preserve" font-family="AvenirNext-Regular" font-size="32.0" fill="#FFFFFF" transform="matrix(1.00, 0.00, -0.00, -1.00, 135.8, 590.0)">a</text><text xml:space="preserve" font-family="AvenirNext-Regular" font-size="32.0" fill="#FFFFFF" transform="matrix(1.00, 0.00, -0.00, -1.00, 152.5, 590.0)">t</text><text xml:space="preserve" font-family="AvenirNext-Regular" font-size="32.0" fill="#FFFFFF" transform="matrix(1.00, 0.00, -0.00, -1.00, 162.7, 590.0)"> </text><text xml:space="preserve" font-family="AvenirNext-Regular" font-size="32.0" fill="#FFFFFF" transform="matrix(1.00, 0.00, -0.00, -1.00, 170.7, 590.0)">i</text><text xml:space="preserve" font-family="AvenirNext-Regular" font-size="32.0" fill="#FFFFFF" transform="matrix(1.00, 0.00, -0.00, -1.00, 178.7, 590.0)">s</text><text xml:space="preserve" font-family="AvenirNext-Regular" font-size="32.0" fill="#FFFFFF" transform="matrix(1.00, 0.00, -0.00, -1.00, 192.9, 590.0)"> </text><text xml:space="preserve" font-family="AvenirNext-Regular" font-size="32.0" fill="#FFFFFF" transform="matrix(1.00, 0.00, -0.00, -1.00, 200.5, 590.0)">W</text><text xml:space="preserve" font-family="AvenirNext-Regular" font-size="32.0" fill="#FFFFFF" transform="matrix(1.00, 0.00, -0.00, -1.00, 230.4, 590.0)">e</text><text xml:space="preserve" font-family="AvenirNext-Regular" font-size="32.0" fill="#FFFFFF" transform="matrix(1.00, 0.00, -0.00, -1.00, 248.8, 590.0)">b</text><text xml:space="preserve" font-family="AvenirNext-Regular" font-size="32.0" fill="#FFFFFF" transform="matrix(1.00, 0.00, -0.00, -1.00, 269.1, 590.0)">p</text><text xml:space="preserve" font-family="AvenirNext-Regular" font-size="32.0" fill="#FFFFFF" transform="matrix(1.00, 0.00, -0.00, -1.00, 289.5, 590.0)">a</text><text xml:space="preserve" font-family="AvenirNext-Regular" font-size="32.0" fill="#FFFFFF" transform="matrix(1.00, 0.00, -0.00, -1.00, 306.5, 590.0)">c</text><text xml:space="preserve" font-family="AvenirNext-Regular" font-size="32.0" fill="#FFFFFF" transform="matrix(1.00, 0.00, -0.00, -1.00, 322.5, 590.0)">k</text><text xml:space="preserve" font-family="AvenirNext-Regular" font-size="32.0" fill="#FFFFFF" transform="matrix(1.00, 0.00, -0.00, -1.00, 338.9, 590.0)">?</text><text xml:space="preserve" font-family="AvenirNext-Regular" font-size="32.0" fill="#FFFFFF" transform="matrix(1.00, 0.00, -0.00, -1.00, 354.3, 590.0)"> </text><text xml:space="preserve" font-family="LucidaGrande" font-size="24.0" fill="#CACACA" transform="matrix(1.00, 0.00, -0.00, -1.00, 49.0, 529.1)">‣</text><text xml:space="preserve" font-family="AvenirNext-Regular" font-size="32.0" fill="#FFFFFF" transform="matrix(1.00, 0.00, -0.00, -1.00, 86.0, 528.0)">W</text><text xml:space="preserve" font-family="AvenirNext-Regular" font-size="32.0" fill="#FFFFFF" transform="matrix(1.00, 0.00, -0.00, -1.00, 117.1, 528.0)">h</text><text xml:space="preserve" font-family="AvenirNext-Regular" font-size="32.0" fill="#FFFFFF" transform="matrix(1.00, 0.00, -0.00, -1.00, 135.8, 528.0)">a</text><text xml:space="preserve" font-family="AvenirNext-Regular" font-size="32.0" fill="#FFFFFF" transform="matrix(1.00, 0.00, -0.00, -1.00, 152.5, 528.0)">t</text><text xml:space="preserve" font-family="AvenirNext-Regular" font-size="32.0" fill="#FFFFFF" transform="matrix(1.00, 0.00, -0.00, -1.00, 162.7, 528.0)"> </text><text xml:space="preserve" font-family="AvenirNext-Regular" font-size="32.0" fill="#FFFFFF" transform="matrix(1.00, 0.00, -0.00, -1.00, 170.7, 528.0)">p</text><text xml:space="preserve" font-family="AvenirNext-Regular" font-size="32.0" fill="#FFFFFF" transform="matrix(1.00, 0.00, -0.00, -1.00, 191.0, 528.0)">r</text><text xml:space="preserve" font-family="AvenirNext-Regular" font-size="32.0" fill="#FFFFFF" transform="matrix(1.00, 0.00, -0.00, -1.00, 201.9, 528.0)">o</text><text xml:space="preserve" font-family="AvenirNext-Regular" font-size="32.0" fill="#FFFFFF" transform="matrix(1.00, 0.00, -0.00, -1.00, 221.5, 528.0)">b</text><text xml:space="preserve" font-family="AvenirNext-Regular" font-size="32.0" fill="#FFFFFF" transform="matrix(1.00, 0.00, -0.00, -1.00, 241.9, 528.0)">l</text><text xml:space="preserve" font-family="AvenirNext-Regular" font-size="32.0" fill="#FFFFFF" transform="matrix(1.00, 0.00, -0.00, -1.00, 249.9, 528.0)">e</text><text xml:space="preserve" font-family="AvenirNext-Regular" font-size="32.0" fill="#FFFFFF" transform="matrix(1.00, 0.00, -0.00, -1.00, 268.2, 528.0)">m</text><text xml:space="preserve" font-family="AvenirNext-Regular" font-size="32.0" fill="#FFFFFF" transform="matrix(1.00, 0.00, -0.00, -1.00, 296.5, 528.0)">s</text><text xml:space="preserve" font-family="AvenirNext-Regular" font-size="32.0" fill="#FFFFFF" transform="matrix(1.00, 0.00, -0.00, -1.00, 310.7, 528.0)"> </text><text xml:space="preserve" font-family="AvenirNext-Regular" font-size="32.0" fill="#FFFFFF" transform="matrix(1.00, 0.00, -0.00, -1.00, 318.7, 528.0)">d</text><text xml:space="preserve" font-family="AvenirNext-Regular" font-size="32.0" fill="#FFFFFF" transform="matrix(1.00, 0.00, -0.00, -1.00, 339.1, 528.0)">o</text><text xml:space="preserve" font-family="AvenirNext-Regular" font-size="32.0" fill="#FFFFFF" transform="matrix(1.00, 0.00, -0.00, -1.00, 358.6, 528.0)">e</text><text xml:space="preserve" font-family="AvenirNext-Regular" font-size="32.0" fill="#FFFFFF" transform="matrix(1.00, 0.00, -0.00, -1.00, 376.9, 528.0)">s</text><text xml:space="preserve" font-family="AvenirNext-Regular" font-size="32.0" fill="#FFFFFF" transform="matrix(1.00, 0.00, -0.00, -1.00, 391.2, 528.0)"> </text><text xml:space="preserve" font-family="AvenirNext-Regular" font-size="32.0" fill="#FFFFFF" transform="matrix(1.00, 0.00, -0.00, -1.00, 398.8, 528.0)">W</text><text xml:space="preserve" font-family="AvenirNext-Regular" font-size="32.0" fill="#FFFFFF" transform="matrix(1.00, 0.00, -0.00, -1.00, 428.7, 528.0)">e</text><text xml:space="preserve" font-family="AvenirNext-Regular" font-size="32.0" fill="#FFFFFF" transform="matrix(1.00, 0.00, -0.00, -1.00, 447.0, 528.0)">b</text><text xml:space="preserve" font-family="AvenirNext-Regular" font-size="32.0" fill="#FFFFFF" transform="matrix(1.00, 0.00, -0.00, -1.00, 467.4, 528.0)">p</text><text xml:space="preserve" font-family="AvenirNext-Regular" font-size="32.0" fill="#FFFFFF" transform="matrix(1.00, 0.00, -0.00, -1.00, 487.7, 528.0)">a</text><text xml:space="preserve" font-family="AvenirNext-Regular" font-size="32.0" fill="#FFFFFF" transform="matrix(1.00, 0.00, -0.00, -1.00, 504.8, 528.0)">c</text><text xml:space="preserve" font-family="AvenirNext-Regular" font-size="32.0" fill="#FFFFFF" transform="matrix(1.00, 0.00, -0.00, -1.00, 520.8, 528.0)">k</text><text xml:space="preserve" font-family="AvenirNext-Regular" font-size="32.0" fill="#FFFFFF" transform="matrix(1.00, 0.00, -0.00, -1.00, 537.1, 528.0)"> </text><text xml:space="preserve" font-family="AvenirNext-Regular" font-size="32.0" fill="#FFFFFF" transform="matrix(1.00, 0.00, -0.00, -1.00, 545.1, 528.0)">s</text><text xml:space="preserve" font-family="AvenirNext-Regular" font-size="32.0" fill="#FFFFFF" transform="matrix(1.00, 0.00, -0.00, -1.00, 559.3, 528.0)">o</text><text xml:space="preserve" font-family="AvenirNext-Regular" font-size="32.0" fill="#FFFFFF" transform="matrix(1.00, 0.00, -0.00, -1.00, 578.9, 528.0)">l</text><text xml:space="preserve" font-family="AvenirNext-Regular" font-size="32.0" fill="#FFFFFF" transform="matrix(1.00, 0.00, -0.00, -1.00, 587.0, 528.0)">v</text><text xml:space="preserve" font-family="AvenirNext-Regular" font-size="32.0" fill="#FFFFFF" transform="matrix(1.00, 0.00, -0.00, -1.00, 602.6, 528.0)">e</text><text xml:space="preserve" font-family="AvenirNext-Regular" font-size="32.0" fill="#FFFFFF" transform="matrix(1.00, 0.00, -0.00, -1.00, 620.9, 528.0)">?</text><text xml:space="preserve" font-family="AvenirNext-Regular" font-size="32.0" fill="#FFFFFF" transform="matrix(1.00, 0.00, -0.00, -1.00, 636.3, 528.0)"> </text><text xml:space="preserve" font-family="LucidaGrande" font-size="24.0" fill="#CACACA" transform="matrix(1.00, 0.00, -0.00, -1.00, 49.0, 467.1)">‣</text><text xml:space="preserve" font-family="AvenirNext-DemiBold" font-weight="bold" font-size="32.0" fill="#F1C114" transform="matrix(1.00, 0.00, -0.00, -1.00, 86.0, 466.0)">H</text><text xml:space="preserve" font-family="AvenirNext-DemiBold" font-weight="bold" font-size="32.0" fill="#F1C114" transform="matrix(1.00, 0.00, -0.00, -1.00, 109.6, 466.0)">o</text><text xml:space="preserve" font-family="AvenirNext-DemiBold" font-weight="bold" font-size="32.0" fill="#F1C114" transform="matrix(1.00, 0.00, -0.00, -1.00, 129.2, 466.0)">w</text><text xml:space="preserve" font-family="AvenirNext-DemiBold" font-weight="bold" font-size="32.0" fill="#F1C114" transform="matrix(1.00, 0.00, -0.00, -1.00, 154.9, 466.0)"> </text><text xml:space="preserve" font-family="AvenirNext-DemiBold" font-weight="bold" font-size="32.0" fill="#F1C114" transform="matrix(1.00, 0.00, -0.00, -1.00, 162.9, 466.0)">d</text><text xml:space="preserve" font-family="AvenirNext-DemiBold" font-weight="bold" font-size="32.0" fill="#F1C114" transform="matrix(1.00, 0.00, -0.00, -1.00, 183.2, 466.0)">o</text><text xml:space="preserve" font-family="AvenirNext-DemiBold" font-weight="bold" font-size="32.0" fill="#F1C114" transform="matrix(1.00, 0.00, -0.00, -1.00, 202.7, 466.0)">e</text><text xml:space="preserve" font-family="AvenirNext-DemiBold" font-weight="bold" font-size="32.0" fill="#F1C114" transform="matrix(1.00, 0.00, -0.00, -1.00, 221.1, 466.0)">s</text><text xml:space="preserve" font-family="AvenirNext-DemiBold" font-weight="bold" font-size="32.0" fill="#F1C114" transform="matrix(1.00, 0.00, -0.00, -1.00, 235.3, 466.0)"> </text><text xml:space="preserve" font-family="AvenirNext-DemiBold" font-weight="bold" font-size="32.0" fill="#F1C114" transform="matrix(1.00, 0.00, -0.00, -1.00, 242.9, 466.0)">W</text><text xml:space="preserve" font-family="AvenirNext-DemiBold" font-weight="bold" font-size="32.0" fill="#F1C114" transform="matrix(1.00, 0.00, -0.00, -1.00, 273.9, 466.0)">e</text><text xml:space="preserve" font-family="AvenirNext-DemiBold" font-weight="bold" font-size="32.0" fill="#F1C114" transform="matrix(1.00, 0.00, -0.00, -1.00, 292.2, 466.0)">b</text><text xml:space="preserve" font-family="AvenirNext-DemiBold" font-weight="bold" font-size="32.0" fill="#F1C114" transform="matrix(1.00, 0.00, -0.00, -1.00, 312.6, 466.0)">p</text><text xml:space="preserve" font-family="AvenirNext-DemiBold" font-weight="bold" font-size="32.0" fill="#F1C114" transform="matrix(1.00, 0.00, -0.00, -1.00, 332.8, 466.0)">a</text><text xml:space="preserve" font-family="AvenirNext-DemiBold" font-weight="bold" font-size="32.0" fill="#F1C114" transform="matrix(1.00, 0.00, -0.00, -1.00, 350.4, 466.0)">c</text><text xml:space="preserve" font-family="AvenirNext-DemiBold" font-weight="bold" font-size="32.0" fill="#F1C114" transform="matrix(1.00, 0.00, -0.00, -1.00, 366.0, 466.0)">k</text><text xml:space="preserve" font-family="AvenirNext-DemiBold" font-weight="bold" font-size="32.0" fill="#F1C114" transform="matrix(1.00, 0.00, -0.00, -1.00, 383.4, 466.0)"> </text><text xml:space="preserve" font-family="AvenirNext-DemiBold" font-weight="bold" font-size="32.0" fill="#F1C114" transform="matrix(1.00, 0.00, -0.00, -1.00, 391.4, 466.0)">w</text><text xml:space="preserve" font-family="AvenirNext-DemiBold" font-weight="bold" font-size="32.0" fill="#F1C114" transform="matrix(1.00, 0.00, -0.00, -1.00, 417.1, 466.0)">o</text><text xml:space="preserve" font-family="AvenirNext-DemiBold" font-weight="bold" font-size="32.0" fill="#F1C114" transform="matrix(1.00, 0.00, -0.00, -1.00, 436.7, 466.0)">r</text><text xml:space="preserve" font-family="AvenirNext-DemiBold" font-weight="bold" font-size="32.0" fill="#F1C114" transform="matrix(1.00, 0.00, -0.00, -1.00, 448.3, 466.0)">k</text><text xml:space="preserve" font-family="AvenirNext-DemiBold" font-weight="bold" font-size="32.0" fill="#F1C114" transform="matrix(1.00, 0.00, -0.00, -1.00, 465.7, 466.0)">?</text><text xml:space="preserve" font-family="AvenirNext-DemiBold" font-weight="bold" font-size="32.0" fill="#F1C114" transform="matrix(1.00, 0.00, -0.00, -1.00, 482.3, 466.0)"> </text><text xml:space="preserve" font-family="LucidaGrande" font-size="24.0" fill="#CACACA" transform="matrix(1.00, 0.00, -0.00, -1.00, 86.0, 405.1)">‣</text><text xml:space="preserve" font-family="AvenirNext-Regular" font-size="32.0" fill="#FFFFFF" transform="matrix(1.00, 0.00, -0.00, -1.00, 123.0, 404.0)">F</text><text xml:space="preserve" font-family="AvenirNext-Regular" font-size="32.0" fill="#FFFFFF" transform="matrix(1.00, 0.00, -0.00, -1.00, 140.4, 404.0)">i</text><text xml:space="preserve" font-family="AvenirNext-Regular" font-size="32.0" fill="#FFFFFF" transform="matrix(1.00, 0.00, -0.00, -1.00, 148.4, 404.0)">n</text><text xml:space="preserve" font-family="AvenirNext-Regular" font-size="32.0" fill="#FFFFFF" transform="matrix(1.00, 0.00, -0.00, -1.00, 167.0, 404.0)">d</text><text xml:space="preserve" font-family="AvenirNext-Regular" font-size="32.0" fill="#FFFFFF" transform="matrix(1.00, 0.00, -0.00, -1.00, 187.4, 404.0)"> </text><text xml:space="preserve" font-family="AvenirNext-Regular" font-size="32.0" fill="#FFFFFF" transform="matrix(1.00, 0.00, -0.00, -1.00, 195.4, 404.0)">d</text><text xml:space="preserve" font-family="AvenirNext-Regular" font-size="32.0" fill="#FFFFFF" transform="matrix(1.00, 0.00, -0.00, -1.00, 215.8, 404.0)">e</text><text xml:space="preserve" font-family="AvenirNext-Regular" font-size="32.0" fill="#FFFFFF" transform="matrix(1.00, 0.00, -0.00, -1.00, 234.1, 404.0)">p</text><text xml:space="preserve" font-family="AvenirNext-Regular" font-size="32.0" fill="#FFFFFF" transform="matrix(1.00, 0.00, -0.00, -1.00, 254.4, 404.0)">e</text><text xml:space="preserve" font-family="AvenirNext-Regular" font-size="32.0" fill="#FFFFFF" transform="matrix(1.00, 0.00, -0.00, -1.00, 272.7, 404.0)">n</text><text xml:space="preserve" font-family="AvenirNext-Regular" font-size="32.0" fill="#FFFFFF" transform="matrix(1.00, 0.00, -0.00, -1.00, 291.3, 404.0)">d</text><text xml:space="preserve" font-family="AvenirNext-Regular" font-size="32.0" fill="#FFFFFF" transform="matrix(1.00, 0.00, -0.00, -1.00, 311.7, 404.0)">e</text><text xml:space="preserve" font-family="AvenirNext-Regular" font-size="32.0" fill="#FFFFFF" transform="matrix(1.00, 0.00, -0.00, -1.00, 330.0, 404.0)">n</text><text xml:space="preserve" font-family="AvenirNext-Regular" font-size="32.0" fill="#FFFFFF" transform="matrix(1.00, 0.00, -0.00, -1.00, 348.6, 404.0)">t</text><text xml:space="preserve" font-family="AvenirNext-Regular" font-size="32.0" fill="#FFFFFF" transform="matrix(1.00, 0.00, -0.00, -1.00, 358.7, 404.0)"> </text><text xml:space="preserve" font-family="AvenirNext-Regular" font-size="32.0" fill="#FFFFFF" transform="matrix(1.00, 0.00, -0.00, -1.00, 366.7, 404.0)">ﬁ</text><text xml:space="preserve" font-family="AvenirNext-Regular" font-size="32.0" fill="#FFFFFF" transform="matrix(1.00, 0.00, -0.00, -1.00, 384.1, 404.0)">l</text><text xml:space="preserve" font-family="AvenirNext-Regular" font-size="32.0" fill="#FFFFFF" transform="matrix(1.00, 0.00, -0.00, -1.00, 392.2, 404.0)">e</text><text xml:space="preserve" font-family="AvenirNext-Regular" font-size="32.0" fill="#FFFFFF" transform="matrix(1.00, 0.00, -0.00, -1.00, 410.5, 404.0)">s</text><text xml:space="preserve" font-family="AvenirNext-Regular" font-size="32.0" fill="#FFFFFF" transform="matrix(1.00, 0.00, -0.00, -1.00, 424.7, 404.0)"> </text><text xml:space="preserve" font-family="LucidaGrande" font-size="24.0" fill="#CACACA" transform="matrix(1.00, 0.00, -0.00, -1.00, 86.0, 343.1)">‣</text><text xml:space="preserve" font-family="AvenirNext-Regular" font-size="32.0" fill="#FFFFFF" transform="matrix(1.00, 0.00, -0.00, -1.00, 123.0, 342.0)">A</text><text xml:space="preserve" font-family="AvenirNext-Regular" font-size="32.0" fill="#FFFFFF" transform="matrix(1.00, 0.00, -0.00, -1.00, 145.4, 342.0)">p</text><text xml:space="preserve" font-family="AvenirNext-Regular" font-size="32.0" fill="#FFFFFF" transform="matrix(1.00, 0.00, -0.00, -1.00, 165.7, 342.0)">p</text><text xml:space="preserve" font-family="AvenirNext-Regular" font-size="32.0" fill="#FFFFFF" transform="matrix(1.00, 0.00, -0.00, -1.00, 186.0, 342.0)">l</text><text xml:space="preserve" font-family="AvenirNext-Regular" font-size="32.0" fill="#FFFFFF" transform="matrix(1.00, 0.00, -0.00, -1.00, 194.1, 342.0)">y</text><text xml:space="preserve" font-family="AvenirNext-Regular" font-size="32.0" fill="#FFFFFF" transform="matrix(1.00, 0.00, -0.00, -1.00, 209.7, 342.0)"> </text><text xml:space="preserve" font-family="AvenirNext-Regular" font-size="32.0" fill="#FFFFFF" transform="matrix(1.00, 0.00, -0.00, -1.00, 217.7, 342.0)">l</text><text xml:space="preserve" font-family="AvenirNext-Regular" font-size="32.0" fill="#FFFFFF" transform="matrix(1.00, 0.00, -0.00, -1.00, 225.8, 342.0)">o</text><text xml:space="preserve" font-family="AvenirNext-Regular" font-size="32.0" fill="#FFFFFF" transform="matrix(1.00, 0.00, -0.00, -1.00, 245.3, 342.0)">a</text><text xml:space="preserve" font-family="AvenirNext-Regular" font-size="32.0" fill="#FFFFFF" transform="matrix(1.00, 0.00, -0.00, -1.00, 262.4, 342.0)">d</text><text xml:space="preserve" font-family="AvenirNext-Regular" font-size="32.0" fill="#FFFFFF" transform="matrix(1.00, 0.00, -0.00, -1.00, 282.8, 342.0)">e</text><text xml:space="preserve" font-family="AvenirNext-Regular" font-size="32.0" fill="#FFFFFF" transform="matrix(1.00, 0.00, -0.00, -1.00, 301.1, 342.0)">r</text><text xml:space="preserve" font-family="AvenirNext-Regular" font-size="32.0" fill="#FFFFFF" transform="matrix(1.00, 0.00, -0.00, -1.00, 312.6, 342.0)">s</text><text xml:space="preserve" font-family="AvenirNext-Regular" font-size="32.0" fill="#FFFFFF" transform="matrix(1.00, 0.00, -0.00, -1.00, 326.8, 342.0)"> </text><text xml:space="preserve" font-family="LucidaGrande" font-size="24.0" fill="#CACACA" transform="matrix(1.00, 0.00, -0.00, -1.00, 86.0, 281.1)">‣</text><text xml:space="preserve" font-family="AvenirNext-DemiBold" font-weight="bold" font-size="32.0" fill="#F1C114" transform="matrix(1.00, 0.00, -0.00, -1.00, 123.0, 280.0)">I</text><text xml:space="preserve" font-family="AvenirNext-DemiBold" font-weight="bold" font-size="32.0" fill="#F1C114" transform="matrix(1.00, 0.00, -0.00, -1.00, 132.0, 280.0)">m</text><text xml:space="preserve" font-family="AvenirNext-DemiBold" font-weight="bold" font-size="32.0" fill="#F1C114" transform="matrix(1.00, 0.00, -0.00, -1.00, 160.5, 280.0)">p</text><text xml:space="preserve" font-family="AvenirNext-DemiBold" font-weight="bold" font-size="32.0" fill="#F1C114" transform="matrix(1.00, 0.00, -0.00, -1.00, 180.8, 280.0)">l</text><text xml:space="preserve" font-family="AvenirNext-DemiBold" font-weight="bold" font-size="32.0" fill="#F1C114" transform="matrix(1.00, 0.00, -0.00, -1.00, 189.3, 280.0)">e</text><text xml:space="preserve" font-family="AvenirNext-DemiBold" font-weight="bold" font-size="32.0" fill="#F1C114" transform="matrix(1.00, 0.00, -0.00, -1.00, 207.7, 280.0)">m</text><text xml:space="preserve" font-family="AvenirNext-DemiBold" font-weight="bold" font-size="32.0" fill="#F1C114" transform="matrix(1.00, 0.00, -0.00, -1.00, 236.2, 280.0)">e</text><text xml:space="preserve" font-family="AvenirNext-DemiBold" font-weight="bold" font-size="32.0" fill="#F1C114" transform="matrix(1.00, 0.00, -0.00, -1.00, 254.6, 280.0)">n</text><text xml:space="preserve" font-family="AvenirNext-DemiBold" font-weight="bold" font-size="32.0" fill="#F1C114" transform="matrix(1.00, 0.00, -0.00, -1.00, 273.2, 280.0)">t</text><text xml:space="preserve" font-family="AvenirNext-DemiBold" font-weight="bold" font-size="32.0" fill="#F1C114" transform="matrix(1.00, 0.00, -0.00, -1.00, 284.1, 280.0)"> </text><text xml:space="preserve" font-family="AvenirNext-DemiBold" font-weight="bold" font-size="32.0" fill="#F1C114" transform="matrix(1.00, 0.00, -0.00, -1.00, 292.1, 280.0)">m</text><text xml:space="preserve" font-family="AvenirNext-DemiBold" font-weight="bold" font-size="32.0" fill="#F1C114" transform="matrix(1.00, 0.00, -0.00, -1.00, 320.5, 280.0)">o</text><text xml:space="preserve" font-family="AvenirNext-DemiBold" font-weight="bold" font-size="32.0" fill="#F1C114" transform="matrix(1.00, 0.00, -0.00, -1.00, 340.1, 280.0)">d</text><text xml:space="preserve" font-family="AvenirNext-DemiBold" font-weight="bold" font-size="32.0" fill="#F1C114" transform="matrix(1.00, 0.00, -0.00, -1.00, 360.3, 280.0)">u</text><text xml:space="preserve" font-family="AvenirNext-DemiBold" font-weight="bold" font-size="32.0" fill="#F1C114" transform="matrix(1.00, 0.00, -0.00, -1.00, 379.0, 280.0)">l</text><text xml:space="preserve" font-family="AvenirNext-DemiBold" font-weight="bold" font-size="32.0" fill="#F1C114" transform="matrix(1.00, 0.00, -0.00, -1.00, 387.5, 280.0)">e</text><text xml:space="preserve" font-family="AvenirNext-DemiBold" font-weight="bold" font-size="32.0" fill="#F1C114" transform="matrix(1.00, 0.00, -0.00, -1.00, 405.9, 280.0)"> </text><text xml:space="preserve" font-family="AvenirNext-DemiBold" font-weight="bold" font-size="32.0" fill="#F1C114" transform="matrix(1.00, 0.00, -0.00, -1.00, 413.9, 280.0)">s</text><text xml:space="preserve" font-family="AvenirNext-DemiBold" font-weight="bold" font-size="32.0" fill="#F1C114" transform="matrix(1.00, 0.00, -0.00, -1.00, 428.1, 280.0)">y</text><text xml:space="preserve" font-family="AvenirNext-DemiBold" font-weight="bold" font-size="32.0" fill="#F1C114" transform="matrix(1.00, 0.00, -0.00, -1.00, 444.5, 280.0)">s</text><text xml:space="preserve" font-family="AvenirNext-DemiBold" font-weight="bold" font-size="32.0" fill="#F1C114" transform="matrix(1.00, 0.00, -0.00, -1.00, 458.7, 280.0)">t</text><text xml:space="preserve" font-family="AvenirNext-DemiBold" font-weight="bold" font-size="32.0" fill="#F1C114" transform="matrix(1.00, 0.00, -0.00, -1.00, 469.6, 280.0)">e</text><text xml:space="preserve" font-family="AvenirNext-DemiBold" font-weight="bold" font-size="32.0" fill="#F1C114" transform="matrix(1.00, 0.00, -0.00, -1.00, 488.0, 280.0)">m</text><text xml:space="preserve" font-family="AvenirNext-DemiBold" font-weight="bold" font-size="32.0" fill="#F1C114" transform="matrix(1.00, 0.00, -0.00, -1.00, 516.5, 280.0)"> </text><g><clipPath id="clip-2792"><path d="M 122.0 285.7 L 516.5 285.7 L 516.5 289.6 L 122.0 289.6 Z M 122.0 285.7 "></path></clipPath><g clip-path="url(#clip-2792)"><path d="M 78.0 338.3 L 471.5 338.3 " fill="none" stroke="#F1C114" stroke-width="1.94" stroke-miterlimit="0.00" transform="matrix(1.00, 0.00, 0.00, -1.00, 45.0, 626.0)"></path></g></g><text xml:space="preserve" font-family="LucidaGrande" font-size="24.0" fill="#CACACA" transform="matrix(1.00, 0.00, -0.00, -1.00, 86.0, 219.1)">‣</text><text xml:space="preserve" font-family="AvenirNext-Regular" font-size="32.0" fill="#FFFFFF" transform="matrix(1.00, 0.00, -0.00, -1.00, 123.0, 218.0)">C</text><text xml:space="preserve" font-family="AvenirNext-Regular" font-size="32.0" fill="#FFFFFF" transform="matrix(1.00, 0.00, -0.00, -1.00, 146.0, 218.0)">r</text><text xml:space="preserve" font-family="AvenirNext-Regular" font-size="32.0" fill="#FFFFFF" transform="matrix(1.00, 0.00, -0.00, -1.00, 157.0, 218.0)">e</text><text xml:space="preserve" font-family="AvenirNext-Regular" font-size="32.0" fill="#FFFFFF" transform="matrix(1.00, 0.00, -0.00, -1.00, 175.1, 218.0)">a</text><text xml:space="preserve" font-family="AvenirNext-Regular" font-size="32.0" fill="#FFFFFF" transform="matrix(1.00, 0.00, -0.00, -1.00, 191.9, 218.0)">t</text><text xml:space="preserve" font-family="AvenirNext-Regular" font-size="32.0" fill="#FFFFFF" transform="matrix(1.00, 0.00, -0.00, -1.00, 202.0, 218.0)">e</text><text xml:space="preserve" font-family="AvenirNext-Regular" font-size="32.0" fill="#FFFFFF" transform="matrix(1.00, 0.00, -0.00, -1.00, 220.3, 218.0)"> </text><text xml:space="preserve" font-family="AvenirNext-Regular" font-size="32.0" fill="#FFFFFF" transform="matrix(1.00, 0.00, -0.00, -1.00, 228.3, 218.0)">ﬁ</text><text xml:space="preserve" font-family="AvenirNext-Regular" font-size="32.0" fill="#FFFFFF" transform="matrix(1.00, 0.00, -0.00, -1.00, 245.7, 218.0)">n</text><text xml:space="preserve" font-family="AvenirNext-Regular" font-size="32.0" fill="#FFFFFF" transform="matrix(1.00, 0.00, -0.00, -1.00, 264.3, 218.0)">a</text><text xml:space="preserve" font-family="AvenirNext-Regular" font-size="32.0" fill="#FFFFFF" transform="matrix(1.00, 0.00, -0.00, -1.00, 281.4, 218.0)">l</text><text xml:space="preserve" font-family="AvenirNext-Regular" font-size="32.0" fill="#FFFFFF" transform="matrix(1.00, 0.00, -0.00, -1.00, 289.5, 218.0)"> </text><text xml:space="preserve" font-family="AvenirNext-Regular" font-size="32.0" fill="#FFFFFF" transform="matrix(1.00, 0.00, -0.00, -1.00, 297.5, 218.0)">a</text><text xml:space="preserve" font-family="AvenirNext-Regular" font-size="32.0" fill="#FFFFFF" transform="matrix(1.00, 0.00, -0.00, -1.00, 314.6, 218.0)">s</text><text xml:space="preserve" font-family="AvenirNext-Regular" font-size="32.0" fill="#FFFFFF" transform="matrix(1.00, 0.00, -0.00, -1.00, 328.8, 218.0)">s</text><text xml:space="preserve" font-family="AvenirNext-Regular" font-size="32.0" fill="#FFFFFF" transform="matrix(1.00, 0.00, -0.00, -1.00, 343.0, 218.0)">e</text><text xml:space="preserve" font-family="AvenirNext-Regular" font-size="32.0" fill="#FFFFFF" transform="matrix(1.00, 0.00, -0.00, -1.00, 361.3, 218.0)">t</text><g><clipPath id="clip-2793"><path d="M 501.1 402.2 L 531.0 402.2 L 531.0 439.1 L 501.1 439.1 Z M 501.1 402.2 "></path></clipPath><g clip-path="url(#clip-2793)"><path d="M 502.1 438.1 L 530.0 438.1 L 530.0 403.2 L 502.1 403.2 Z M 502.1 438.1 " fill="#DF613B"></path></g></g><g><clipPath id="clip-2794"><path d="M 503.5 427.0 L 528.5 427.0 L 528.5 434.6 L 503.5 434.6 Z M 503.5 427.0 "></path></clipPath><g clip-path="url(#clip-2794)"><path d="M 504.5 433.6 L 527.5 433.6 L 527.5 428.0 L 504.5 428.0 Z M 504.5 433.6 " fill="#F1C114"></path></g></g><g><clipPath id="clip-2795"><path d="M 538.0 402.2 L 567.9 402.2 L 567.9 439.1 L 538.0 439.1 Z M 538.0 402.2 "></path></clipPath><g clip-path="url(#clip-2795)"><path d="M 539.0 438.1 L 566.9 438.1 L 566.9 403.2 L 539.0 403.2 Z M 539.0 438.1 " fill="#F1C114"></path></g></g><g><clipPath id="clip-2796"><path d="M 540.4 427.0 L 565.4 427.0 L 565.4 434.6 L 540.4 434.6 Z M 540.4 427.0 "></path></clipPath><g clip-path="url(#clip-2796)"><path d="M 541.4 433.6 L 564.4 433.6 L 564.4 428.0 L 541.4 428.0 Z M 541.4 433.6 " fill="#00A100"></path></g></g><g><clipPath id="clip-2797"><path d="M 573.2 402.2 L 603.0 402.2 L 603.0 439.1 L 573.2 439.1 Z M 573.2 402.2 "></path></clipPath><g clip-path="url(#clip-2797)"><path d="M 574.2 438.1 L 602.0 438.1 L 602.0 403.2 L 574.2 403.2 Z M 574.2 438.1 " fill="#00A100"></path></g></g><g><clipPath id="clip-2798"><path d="M 594.7 399.2 L 649.0 399.2 L 649.0 448.2 L 594.7 448.2 Z M 594.7 399.2 "></path></clipPath><g clip-path="url(#clip-2798)"><text xml:space="preserve" font-family="AvenirNext-Heavy" font-weight="bold" font-size="39.0" fill="#A0BCE9" transform="matrix(1.00, 0.00, -0.00, -1.00, 608.0, 409.0)">]</text></g></g><g><clipPath id="clip-2799"><path d="M 432.9 399.2 L 487.2 399.2 L 487.2 448.2 L 432.9 448.2 Z M 432.9 399.2 "></path></clipPath><g clip-path="url(#clip-2799)"><text xml:space="preserve" font-family="AvenirNext-Heavy" font-weight="bold" font-size="39.0" fill="#A0BCE9" transform="matrix(1.00, 0.00, -0.00, -1.00, 446.0, 409.0)">[</text></g></g><g><clipPath id="clip-2800"><path d="M 466.0 402.2 L 495.8 402.2 L 495.8 439.1 L 466.0 439.1 Z M 466.0 402.2 "></path></clipPath><g clip-path="url(#clip-2800)"><path d="M 467.0 438.1 L 494.8 438.1 L 494.8 403.2 L 467.0 403.2 Z M 467.0 438.1 " fill="#7035CE"></path></g></g><g><clipPath id="clip-2801"><path d="M 468.4 427.0 L 493.4 427.0 L 493.4 434.6 L 468.4 434.6 Z M 468.4 427.0 "></path></clipPath><g clip-path="url(#clip-2801)"><path d="M 469.4 433.6 L 492.4 433.6 L 492.4 428.0 L 469.4 428.0 Z M 469.4 433.6 " fill="#DF613B"></path></g></g><g><clipPath id="clip-2802"><path d="M 468.4 419.7 L 493.4 419.7 L 493.4 427.3 L 468.4 427.3 Z M 468.4 419.7 "></path></clipPath><g clip-path="url(#clip-2802)"><path d="M 469.4 426.3 L 492.4 426.3 L 492.4 420.7 L 469.4 420.7 Z M 469.4 426.3 " fill="#00A100"></path></g></g><g><clipPath id="clip-2803"><path d="M 542.9 369.3 L 542.9 342.3 L 515.9 342.3 L 515.9 369.3 Z M 542.9 369.3 "></path></clipPath><g clip-path="url(#clip-2803)"><path d="M 537.4 355.8 L 518.9 346.6 L 518.9 365.1 Z M 537.4 355.8 " fill="#A0BCE9"></path><path d="M 9.3 0.0 L 18.5 18.5 L 0.0 18.5 Z M 9.3 0.0 " fill="none" stroke="#6B93DC" stroke-width="4.00" transform="matrix(0.00, -1.00, -1.00, 0.00, 537.4, 365.1)"></path></g></g><g><clipPath id="clip-2804"><path d="M 540.0 342.3 L 540.0 369.3 L 567.0 369.3 L 567.0 342.3 Z M 540.0 342.3 "></path></clipPath><g clip-path="url(#clip-2804)"><path d="M 545.5 355.8 L 564.0 365.1 L 564.0 346.6 Z M 545.5 355.8 " fill="#A0BCE9"></path><path d="M 9.3 0.0 L 18.5 18.5 L 0.0 18.5 Z M 9.3 0.0 " fill="none" stroke="#6B93DC" stroke-width="4.00" transform="matrix(0.00, 1.00, 1.00, 0.00, 545.5, 346.6)"></path></g></g><g><clipPath id="clip-2805"><path d="M 522.3 336.3 L 561.3 336.3 L 561.3 375.4 L 522.3 375.4 Z M 522.3 336.3 "></path></clipPath><g clip-path="url(#clip-2805)"><path d="M 525.3 372.4 L 558.3 372.4 L 558.3 339.3 L 525.3 339.3 Z M 525.3 372.4 " fill="#A0BCE9"></path><path d="M 0.0 0.0 L 33.0 0.0 L 33.0 33.0 L 0.0 33.0 Z M 0.0 0.0 " fill="none" stroke="#6B93DC" stroke-width="4.00" transform="matrix(1.00, 0.00, 0.00, -1.00, 525.3, 372.4)"></path></g></g><g><clipPath id="clip-2806"><path d="M 454.5 340.8 L 478.9 340.8 L 478.9 370.9 L 454.5 370.9 Z M 454.5 340.8 "></path></clipPath><g clip-path="url(#clip-2806)"><path d="M 455.5 369.9 L 477.9 369.9 L 477.9 341.8 L 455.5 341.8 Z M 455.5 369.9 " fill="#00A100"></path></g></g><g><clipPath id="clip-2807"><path d="M 484.3 351.3 L 512.6 351.3 L 512.6 360.4 L 484.3 360.4 Z M 484.3 351.3 "></path></clipPath><g clip-path="url(#clip-2807)"><path d="M 503.5 354.7 L 503.5 352.3 L 511.6 355.8 L 503.5 359.4 L 503.5 357.0 L 485.3 357.0 L 485.3 354.7 Z M 503.5 354.7 " fill="#7A9DE4"></path></g></g><g><clipPath id="clip-2808"><path d="M 569.4 351.3 L 597.6 351.3 L 597.6 360.4 L 569.4 360.4 Z M 569.4 351.3 "></path></clipPath><g clip-path="url(#clip-2808)"><path d="M 588.6 354.7 L 588.6 352.3 L 596.6 355.8 L 588.6 359.4 L 588.6 357.0 L 570.4 357.0 L 570.4 354.7 Z M 588.6 354.7 " fill="#7A9DE4"></path></g></g><g><clipPath id="clip-2809"><path d="M 603.0 340.8 L 627.4 340.8 L 627.4 370.9 L 603.0 370.9 Z M 603.0 340.8 "></path></clipPath><g clip-path="url(#clip-2809)"><path d="M 623.1 365.8 C 627.5 360.3 627.5 351.4 623.1 345.9 C 618.8 340.4 611.6 340.4 607.3 345.9 C 602.9 351.4 602.9 360.3 607.3 365.8 C 611.6 371.3 618.8 371.3 623.1 365.8 Z M 623.1 365.8 " fill="#00A100"></path></g></g></g></svg>