<?xml version="1.0" encoding="UTF-8" standalone="no"?><svg xmlns="http://www.w3.org/2000/svg" xmlns:xlink="http://www.w3.org/1999/xlink" clip-rule="evenodd" stroke-miterlimit="4.00" viewBox="0 0 756 96"><desc>SVG generated by Keynote</desc><defs></defs><g transform="matrix(1.00, 0.00, -0.00, -1.00, 0.0, 96.0)"><text xml:space="preserve" font-family="LucidaGrande" font-size="24.0" fill="#CACACA" transform="matrix(1.00, 0.00, -0.00, -1.00, 0.0, 72.1)">‣</text><text xml:space="preserve" font-family="AvenirNext-Regular" font-size="32.0" fill="#FFFFFF" transform="matrix(1.00, 0.00, -0.00, -1.00, 37.0, 71.0)">W</text><text xml:space="preserve" font-family="AvenirNext-Regular" font-size="32.0" fill="#FFFFFF" transform="matrix(1.00, 0.00, -0.00, -1.00, 67.0, 71.0)">e</text><text xml:space="preserve" font-family="AvenirNext-Regular" font-size="32.0" fill="#FFFFFF" transform="matrix(1.00, 0.00, -0.00, -1.00, 85.3, 71.0)">b</text><text xml:space="preserve" font-family="AvenirNext-Regular" font-size="32.0" fill="#FFFFFF" transform="matrix(1.00, 0.00, -0.00, -1.00, 105.6, 71.0)">p</text><text xml:space="preserve" font-family="AvenirNext-Regular" font-size="32.0" fill="#FFFFFF" transform="matrix(1.00, 0.00, -0.00, -1.00, 126.0, 71.0)">a</text><text xml:space="preserve" font-family="AvenirNext-Regular" font-size="32.0" fill="#FFFFFF" transform="matrix(1.00, 0.00, -0.00, -1.00, 143.0, 71.0)">c</text><text xml:space="preserve" font-family="AvenirNext-Regular" font-size="32.0" fill="#FFFFFF" transform="matrix(1.00, 0.00, -0.00, -1.00, 159.0, 71.0)">k</text><text xml:space="preserve" font-family="AvenirNext-Regular" font-size="32.0" fill="#FFFFFF" transform="matrix(1.00, 0.00, -0.00, -1.00, 175.4, 71.0)"> </text><text xml:space="preserve" font-family="AvenirNext-Regular" font-size="32.0" fill="#FFFFFF" transform="matrix(1.00, 0.00, -0.00, -1.00, 183.4, 71.0)">s</text><text xml:space="preserve" font-family="AvenirNext-Regular" font-size="32.0" fill="#FFFFFF" transform="matrix(1.00, 0.00, -0.00, -1.00, 197.6, 71.0)">e</text><text xml:space="preserve" font-family="AvenirNext-Regular" font-size="32.0" fill="#FFFFFF" transform="matrix(1.00, 0.00, -0.00, -1.00, 215.9, 71.0)">e</text><text xml:space="preserve" font-family="AvenirNext-Regular" font-size="32.0" fill="#FFFFFF" transform="matrix(1.00, 0.00, -0.00, -1.00, 234.2, 71.0)">m</text><text xml:space="preserve" font-family="AvenirNext-Regular" font-size="32.0" fill="#FFFFFF" transform="matrix(1.00, 0.00, -0.00, -1.00, 262.4, 71.0)">s</text><text xml:space="preserve" font-family="AvenirNext-Regular" font-size="32.0" fill="#FFFFFF" transform="matrix(1.00, 0.00, -0.00, -1.00, 276.6, 71.0)"> </text><text xml:space="preserve" font-family="AvenirNext-Regular" font-size="32.0" fill="#FFFFFF" transform="matrix(1.00, 0.00, -0.00, -1.00, 284.6, 71.0)">r</text><text xml:space="preserve" font-family="AvenirNext-Regular" font-size="32.0" fill="#FFFFFF" transform="matrix(1.00, 0.00, -0.00, -1.00, 295.6, 71.0)">e</text><text xml:space="preserve" font-family="AvenirNext-Regular" font-size="32.0" fill="#FFFFFF" transform="matrix(1.00, 0.00, -0.00, -1.00, 313.7, 71.0)">a</text><text xml:space="preserve" font-family="AvenirNext-Regular" font-size="32.0" fill="#FFFFFF" transform="matrix(1.00, 0.00, -0.00, -1.00, 330.8, 71.0)">l</text><text xml:space="preserve" font-family="AvenirNext-Regular" font-size="32.0" fill="#FFFFFF" transform="matrix(1.00, 0.00, -0.00, -1.00, 338.9, 71.0)">l</text><text xml:space="preserve" font-family="AvenirNext-Regular" font-size="32.0" fill="#FFFFFF" transform="matrix(1.00, 0.00, -0.00, -1.00, 346.9, 71.0)">y</text><text xml:space="preserve" font-family="AvenirNext-Regular" font-size="32.0" fill="#FFFFFF" transform="matrix(1.00, 0.00, -0.00, -1.00, 362.5, 71.0)"> </text><text xml:space="preserve" font-family="AvenirNext-Regular" font-size="32.0" fill="#FFFFFF" transform="matrix(1.00, 0.00, -0.00, -1.00, 370.5, 71.0)">r</text><text xml:space="preserve" font-family="AvenirNext-Regular" font-size="32.0" fill="#FFFFFF" transform="matrix(1.00, 0.00, -0.00, -1.00, 381.5, 71.0)">e</text><text xml:space="preserve" font-family="AvenirNext-Regular" font-size="32.0" fill="#FFFFFF" transform="matrix(1.00, 0.00, -0.00, -1.00, 399.6, 71.0)">a</text><text xml:space="preserve" font-family="AvenirNext-Regular" font-size="32.0" fill="#FFFFFF" transform="matrix(1.00, 0.00, -0.00, -1.00, 416.7, 71.0)">l</text><text xml:space="preserve" font-family="AvenirNext-Regular" font-size="32.0" fill="#FFFFFF" transform="matrix(1.00, 0.00, -0.00, -1.00, 424.7, 71.0)">l</text><text xml:space="preserve" font-family="AvenirNext-Regular" font-size="32.0" fill="#FFFFFF" transform="matrix(1.00, 0.00, -0.00, -1.00, 432.8, 71.0)">y</text><text xml:space="preserve" font-family="AvenirNext-Regular" font-size="32.0" fill="#FFFFFF" transform="matrix(1.00, 0.00, -0.00, -1.00, 448.4, 71.0)"> </text><text xml:space="preserve" font-family="AvenirNext-Regular" font-size="32.0" fill="#FFFFFF" transform="matrix(1.00, 0.00, -0.00, -1.00, 456.4, 71.0)">h</text><text xml:space="preserve" font-family="AvenirNext-Regular" font-size="32.0" fill="#FFFFFF" transform="matrix(1.00, 0.00, -0.00, -1.00, 475.1, 71.0)">a</text><text xml:space="preserve" font-family="AvenirNext-Regular" font-size="32.0" fill="#FFFFFF" transform="matrix(1.00, 0.00, -0.00, -1.00, 492.2, 71.0)">r</text><text xml:space="preserve" font-family="AvenirNext-Regular" font-size="32.0" fill="#FFFFFF" transform="matrix(1.00, 0.00, -0.00, -1.00, 503.1, 71.0)">d</text><text xml:space="preserve" font-family="AvenirNext-Regular" font-size="32.0" fill="#FFFFFF" transform="matrix(1.00, 0.00, -0.00, -1.00, 523.5, 71.0)">.</text><text xml:space="preserve" font-family="AvenirNext-Regular" font-size="32.0" fill="#FFFFFF" transform="matrix(1.00, 0.00, -0.00, -1.00, 530.9, 71.0)"> </text><text xml:space="preserve" font-family="LucidaGrande" font-size="24.0" fill="#CACACA" transform="matrix(1.00, 0.00, -0.00, -1.00, 37.0, 10.1)">‣</text><text xml:space="preserve" font-family="AvenirNext-Regular" font-size="32.0" fill="#FFFFFF" transform="matrix(1.00, 0.00, -0.00, -1.00, 74.0, 9.0)">I</text><text xml:space="preserve" font-family="AvenirNext-Regular" font-size="32.0" fill="#FFFFFF" transform="matrix(1.00, 0.00, -0.00, -1.00, 82.3, 9.0)">t</text><text xml:space="preserve" font-family="AvenirNext-Regular" font-size="32.0" fill="#FFFFFF" transform="matrix(1.00, 0.00, -0.00, -1.00, 92.5, 9.0)">s</text><text xml:space="preserve" font-family="AvenirNext-Regular" font-size="32.0" fill="#FFFFFF" transform="matrix(1.00, 0.00, -0.00, -1.00, 106.7, 9.0)"> </text><text xml:space="preserve" font-family="AvenirNext-Regular" font-size="32.0" fill="#FFFFFF" transform="matrix(1.00, 0.00, -0.00, -1.00, 114.7, 9.0)">d</text><text xml:space="preserve" font-family="AvenirNext-Regular" font-size="32.0" fill="#FFFFFF" transform="matrix(1.00, 0.00, -0.00, -1.00, 135.1, 9.0)">o</text><text xml:space="preserve" font-family="AvenirNext-Regular" font-size="32.0" fill="#FFFFFF" transform="matrix(1.00, 0.00, -0.00, -1.00, 154.6, 9.0)">c</text><text xml:space="preserve" font-family="AvenirNext-Regular" font-size="32.0" fill="#FFFFFF" transform="matrix(1.00, 0.00, -0.00, -1.00, 170.6, 9.0)">u</text><text xml:space="preserve" font-family="AvenirNext-Regular" font-size="32.0" fill="#FFFFFF" transform="matrix(1.00, 0.00, -0.00, -1.00, 189.2, 9.0)">m</text><text xml:space="preserve" font-family="AvenirNext-Regular" font-size="32.0" fill="#FFFFFF" transform="matrix(1.00, 0.00, -0.00, -1.00, 217.5, 9.0)">e</text><text xml:space="preserve" font-family="AvenirNext-Regular" font-size="32.0" fill="#FFFFFF" transform="matrix(1.00, 0.00, -0.00, -1.00, 235.8, 9.0)">n</text><text xml:space="preserve" font-family="AvenirNext-Regular" font-size="32.0" fill="#FFFFFF" transform="matrix(1.00, 0.00, -0.00, -1.00, 254.4, 9.0)">t</text><text xml:space="preserve" font-family="AvenirNext-Regular" font-size="32.0" fill="#FFFFFF" transform="matrix(1.00, 0.00, -0.00, -1.00, 264.5, 9.0)">a</text><text xml:space="preserve" font-family="AvenirNext-Regular" font-size="32.0" fill="#FFFFFF" transform="matrix(1.00, 0.00, -0.00, -1.00, 281.3, 9.0)">t</text><text xml:space="preserve" font-family="AvenirNext-Regular" font-size="32.0" fill="#FFFFFF" transform="matrix(1.00, 0.00, -0.00, -1.00, 291.4, 9.0)">i</text><text xml:space="preserve" font-family="AvenirNext-Regular" font-size="32.0" fill="#FFFFFF" transform="matrix(1.00, 0.00, -0.00, -1.00, 299.4, 9.0)">o</text><text xml:space="preserve" font-family="AvenirNext-Regular" font-size="32.0" fill="#FFFFFF" transform="matrix(1.00, 0.00, -0.00, -1.00, 319.0, 9.0)">n</text><text xml:space="preserve" font-family="AvenirNext-Regular" font-size="32.0" fill="#FFFFFF" transform="matrix(1.00, 0.00, -0.00, -1.00, 337.6, 9.0)"> </text><text xml:space="preserve" font-family="AvenirNext-Regular" font-size="32.0" fill="#FFFFFF" transform="matrix(1.00, 0.00, -0.00, -1.00, 345.6, 9.0)">a</text><text xml:space="preserve" font-family="AvenirNext-Regular" font-size="32.0" fill="#FFFFFF" transform="matrix(1.00, 0.00, -0.00, -1.00, 362.6, 9.0)">n</text><text xml:space="preserve" font-family="AvenirNext-Regular" font-size="32.0" fill="#FFFFFF" transform="matrix(1.00, 0.00, -0.00, -1.00, 381.2, 9.0)">d</text><text xml:space="preserve" font-family="AvenirNext-Regular" font-size="32.0" fill="#FFFFFF" transform="matrix(1.00, 0.00, -0.00, -1.00, 401.6, 9.0)"> </text><text xml:space="preserve" font-family="AvenirNext-Regular" font-size="32.0" fill="#FFFFFF" transform="matrix(1.00, 0.00, -0.00, -1.00, 409.0, 9.0)">A</text><text xml:space="preserve" font-family="AvenirNext-Regular" font-size="32.0" fill="#FFFFFF" transform="matrix(1.00, 0.00, -0.00, -1.00, 431.4, 9.0)">P</text><text xml:space="preserve" font-family="AvenirNext-Regular" font-size="32.0" fill="#FFFFFF" transform="matrix(1.00, 0.00, -0.00, -1.00, 450.0, 9.0)">I</text><text xml:space="preserve" font-family="AvenirNext-Regular" font-size="32.0" fill="#FFFFFF" transform="matrix(1.00, 0.00, -0.00, -1.00, 458.3, 9.0)"> </text><text xml:space="preserve" font-family="AvenirNext-Regular" font-size="32.0" fill="#FFFFFF" transform="matrix(1.00, 0.00, -0.00, -1.00, 466.3, 9.0)">a</text><text xml:space="preserve" font-family="AvenirNext-Regular" font-size="32.0" fill="#FFFFFF" transform="matrix(1.00, 0.00, -0.00, -1.00, 483.4, 9.0)">r</text><text xml:space="preserve" font-family="AvenirNext-Regular" font-size="32.0" fill="#FFFFFF" transform="matrix(1.00, 0.00, -0.00, -1.00, 494.4, 9.0)">e</text><text xml:space="preserve" font-family="AvenirNext-Regular" font-size="32.0" fill="#FFFFFF" transform="matrix(1.00, 0.00, -0.00, -1.00, 512.7, 9.0)"> </text><text xml:space="preserve" font-family="AvenirNext-Regular" font-size="32.0" fill="#FFFFFF" transform="matrix(1.00, 0.00, -0.00, -1.00, 520.7, 9.0)">p</text><text xml:space="preserve" font-family="AvenirNext-Regular" font-size="32.0" fill="#FFFFFF" transform="matrix(1.00, 0.00, -0.00, -1.00, 541.0, 9.0)">r</text><text xml:space="preserve" font-family="AvenirNext-Regular" font-size="32.0" fill="#FFFFFF" transform="matrix(1.00, 0.00, -0.00, -1.00, 551.9, 9.0)">e</text><text xml:space="preserve" font-family="AvenirNext-Regular" font-size="32.0" fill="#FFFFFF" transform="matrix(1.00, 0.00, -0.00, -1.00, 570.2, 9.0)">t</text><text xml:space="preserve" font-family="AvenirNext-Regular" font-size="32.0" fill="#FFFFFF" transform="matrix(1.00, 0.00, -0.00, -1.00, 580.0, 9.0)">t</text><text xml:space="preserve" font-family="AvenirNext-Regular" font-size="32.0" fill="#FFFFFF" transform="matrix(1.00, 0.00, -0.00, -1.00, 590.1, 9.0)">y</text><text xml:space="preserve" font-family="AvenirNext-Regular" font-size="32.0" fill="#FFFFFF" transform="matrix(1.00, 0.00, -0.00, -1.00, 605.7, 9.0)"> </text><text xml:space="preserve" font-family="AvenirNext-Regular" font-size="32.0" fill="#FFFFFF" transform="matrix(1.00, 0.00, -0.00, -1.00, 613.7, 9.0)">c</text><text xml:space="preserve" font-family="AvenirNext-Regular" font-size="32.0" fill="#FFFFFF" transform="matrix(1.00, 0.00, -0.00, -1.00, 629.7, 9.0)">o</text><text xml:space="preserve" font-family="AvenirNext-Regular" font-size="32.0" fill="#FFFFFF" transform="matrix(1.00, 0.00, -0.00, -1.00, 649.3, 9.0)">n</text><text xml:space="preserve" font-family="AvenirNext-Regular" font-size="32.0" fill="#FFFFFF" transform="matrix(1.00, 0.00, -0.00, -1.00, 667.9, 9.0)">f</text><text xml:space="preserve" font-family="AvenirNext-Regular" font-size="32.0" fill="#FFFFFF" transform="matrix(1.00, 0.00, -0.00, -1.00, 677.3, 9.0)">u</text><text xml:space="preserve" font-family="AvenirNext-Regular" font-size="32.0" fill="#FFFFFF" transform="matrix(1.00, 0.00, -0.00, -1.00, 695.9, 9.0)">s</text><text xml:space="preserve" font-family="AvenirNext-Regular" font-size="32.0" fill="#FFFFFF" transform="matrix(1.00, 0.00, -0.00, -1.00, 710.1, 9.0)">i</text><text xml:space="preserve" font-family="AvenirNext-Regular" font-size="32.0" fill="#FFFFFF" transform="matrix(1.00, 0.00, -0.00, -1.00, 718.1, 9.0)">n</text><text xml:space="preserve" font-family="AvenirNext-Regular" font-size="32.0" fill="#FFFFFF" transform="matrix(1.00, 0.00, -0.00, -1.00, 736.7, 9.0)">g</text></g></svg>