<?xml version="1.0" encoding="UTF-8" standalone="no"?><svg xmlns="http://www.w3.org/2000/svg" xmlns:xlink="http://www.w3.org/1999/xlink" clip-rule="evenodd" stroke-miterlimit="4.00" viewBox="0 0 891 238"><desc>SVG generated by Keynote</desc><defs></defs><g transform="matrix(1.00, 0.00, -0.00, -1.00, 0.0, 238.0)"><text xml:space="preserve" font-family="AvenirNext-DemiBold" font-weight="bold" font-size="99.0" fill="#F1C114" transform="matrix(1.00, 0.00, -0.00, -1.00, 40.0, 161.0)">W</text><text xml:space="preserve" font-family="AvenirNext-DemiBold" font-weight="bold" font-size="99.0" fill="#F1C114" transform="matrix(1.00, 0.00, -0.00, -1.00, 135.8, 161.0)">e</text><text xml:space="preserve" font-family="AvenirNext-DemiBold" font-weight="bold" font-size="99.0" fill="#F1C114" transform="matrix(1.00, 0.00, -0.00, -1.00, 192.7, 161.0)">b</text><text xml:space="preserve" font-family="AvenirNext-DemiBold" font-weight="bold" font-size="99.0" fill="#F1C114" transform="matrix(1.00, 0.00, -0.00, -1.00, 255.5, 161.0)">p</text><text xml:space="preserve" font-family="AvenirNext-DemiBold" font-weight="bold" font-size="99.0" fill="#F1C114" transform="matrix(1.00, 0.00, -0.00, -1.00, 318.2, 161.0)">a</text><text xml:space="preserve" font-family="AvenirNext-DemiBold" font-weight="bold" font-size="99.0" fill="#F1C114" transform="matrix(1.00, 0.00, -0.00, -1.00, 372.6, 161.0)">c</text><text xml:space="preserve" font-family="AvenirNext-DemiBold" font-weight="bold" font-size="99.0" fill="#F1C114" transform="matrix(1.00, 0.00, -0.00, -1.00, 421.0, 161.0)">k</text><text xml:space="preserve" font-family="AvenirNext-DemiBold" font-weight="bold" font-size="99.0" fill="#F1C114" transform="matrix(1.00, 0.00, -0.00, -1.00, 474.7, 161.0)"> </text><text xml:space="preserve" font-family="AvenirNext-DemiBold" font-weight="bold" font-size="99.0" fill="#F1C114" transform="matrix(1.00, 0.00, -0.00, -1.00, 499.5, 161.0)">i</text><text xml:space="preserve" font-family="AvenirNext-DemiBold" font-weight="bold" font-size="99.0" fill="#F1C114" transform="matrix(1.00, 0.00, -0.00, -1.00, 526.0, 161.0)">s</text><text xml:space="preserve" font-family="AvenirNext-DemiBold" font-weight="bold" font-size="99.0" fill="#F1C114" transform="matrix(1.00, 0.00, -0.00, -1.00, 569.9, 161.0)"> </text><text xml:space="preserve" font-family="AvenirNext-DemiBold" font-weight="bold" font-size="99.0" fill="#F1C114" transform="matrix(1.00, 0.00, -0.00, -1.00, 594.7, 161.0)">a</text><text xml:space="preserve" font-family="AvenirNext-DemiBold" font-weight="bold" font-size="99.0" fill="#F1C114" transform="matrix(1.00, 0.00, -0.00, -1.00, 649.1, 161.0)"> </text><text xml:space="preserve" font-family="AvenirNext-DemiBold" font-weight="bold" font-size="99.0" fill="#F1C114" transform="matrix(1.00, 0.00, -0.00, -1.00, 673.9, 161.0)">t</text><text xml:space="preserve" font-family="AvenirNext-DemiBold" font-weight="bold" font-size="99.0" fill="#F1C114" transform="matrix(1.00, 0.00, -0.00, -1.00, 707.6, 161.0)">o</text><text xml:space="preserve" font-family="AvenirNext-DemiBold" font-weight="bold" font-size="99.0" fill="#F1C114" transform="matrix(1.00, 0.00, -0.00, -1.00, 767.9, 161.0)">o</text><text xml:space="preserve" font-family="AvenirNext-DemiBold" font-weight="bold" font-size="99.0" fill="#F1C114" transform="matrix(1.00, 0.00, -0.00, -1.00, 828.3, 161.0)">l</text><text xml:space="preserve" font-family="AvenirNext-DemiBold" font-weight="bold" font-size="99.0" fill="#F1C114" transform="matrix(1.00, 0.00, -0.00, -1.00, 854.9, 161.0)"> </text><text xml:space="preserve" font-family="AvenirNext-DemiBold" font-weight="bold" font-size="99.0" fill="#F1C114" transform="matrix(1.00, 0.00, -0.00, -1.00, 2.0, 26.0)">f</text><text xml:space="preserve" font-family="AvenirNext-DemiBold" font-weight="bold" font-size="99.0" fill="#F1C114" transform="matrix(1.00, 0.00, -0.00, -1.00, 34.1, 26.0)">o</text><text xml:space="preserve" font-family="AvenirNext-DemiBold" font-weight="bold" font-size="99.0" fill="#F1C114" transform="matrix(1.00, 0.00, -0.00, -1.00, 94.5, 26.0)">r</text><text xml:space="preserve" font-family="AvenirNext-DemiBold" font-weight="bold" font-size="99.0" fill="#F1C114" transform="matrix(1.00, 0.00, -0.00, -1.00, 130.5, 26.0)"> </text><text xml:space="preserve" font-family="AvenirNext-DemiBold" font-weight="bold" font-size="99.0" fill="#F1C114" transform="matrix(1.00, 0.00, -0.00, -1.00, 155.3, 26.0)">w</text><text xml:space="preserve" font-family="AvenirNext-DemiBold" font-weight="bold" font-size="99.0" fill="#F1C114" transform="matrix(1.00, 0.00, -0.00, -1.00, 234.8, 26.0)">e</text><text xml:space="preserve" font-family="AvenirNext-DemiBold" font-weight="bold" font-size="99.0" fill="#F1C114" transform="matrix(1.00, 0.00, -0.00, -1.00, 291.7, 26.0)">b</text><text xml:space="preserve" font-family="AvenirNext-DemiBold" font-weight="bold" font-size="99.0" fill="#F1C114" transform="matrix(1.00, 0.00, -0.00, -1.00, 354.5, 26.0)"> </text><text xml:space="preserve" font-family="AvenirNext-DemiBold" font-weight="bold" font-size="99.0" fill="#F1C114" transform="matrix(1.00, 0.00, -0.00, -1.00, 379.3, 26.0)">d</text><text xml:space="preserve" font-family="AvenirNext-DemiBold" font-weight="bold" font-size="99.0" fill="#F1C114" transform="matrix(1.00, 0.00, -0.00, -1.00, 442.1, 26.0)">e</text><text xml:space="preserve" font-family="AvenirNext-DemiBold" font-weight="bold" font-size="99.0" fill="#F1C114" transform="matrix(1.00, 0.00, -0.00, -1.00, 498.9, 26.0)">v</text><text xml:space="preserve" font-family="AvenirNext-DemiBold" font-weight="bold" font-size="99.0" fill="#F1C114" transform="matrix(1.00, 0.00, -0.00, -1.00, 549.7, 26.0)">e</text><text xml:space="preserve" font-family="AvenirNext-DemiBold" font-weight="bold" font-size="99.0" fill="#F1C114" transform="matrix(1.00, 0.00, -0.00, -1.00, 606.5, 26.0)">l</text><text xml:space="preserve" font-family="AvenirNext-DemiBold" font-weight="bold" font-size="99.0" fill="#F1C114" transform="matrix(1.00, 0.00, -0.00, -1.00, 633.0, 26.0)">o</text><text xml:space="preserve" font-family="AvenirNext-DemiBold" font-weight="bold" font-size="99.0" fill="#F1C114" transform="matrix(1.00, 0.00, -0.00, -1.00, 693.4, 26.0)">p</text><text xml:space="preserve" font-family="AvenirNext-DemiBold" font-weight="bold" font-size="99.0" fill="#F1C114" transform="matrix(1.00, 0.00, -0.00, -1.00, 756.1, 26.0)">e</text><text xml:space="preserve" font-family="AvenirNext-DemiBold" font-weight="bold" font-size="99.0" fill="#F1C114" transform="matrix(1.00, 0.00, -0.00, -1.00, 812.9, 26.0)">r</text><text xml:space="preserve" font-family="AvenirNext-DemiBold" font-weight="bold" font-size="99.0" fill="#F1C114" transform="matrix(1.00, 0.00, -0.00, -1.00, 848.9, 26.0)">s</text></g></svg>