<?xml version="1.0" encoding="UTF-8" standalone="no"?><svg xmlns="http://www.w3.org/2000/svg" xmlns:xlink="http://www.w3.org/1999/xlink" clip-rule="evenodd" stroke-miterlimit="4.00" viewBox="0 0 1024 768"><desc>SVG generated by Keynote</desc><defs></defs><g transform="matrix(1.00, 0.00, -0.00, -1.00, 0.0, 768.0)"><path d="M 0.0 768.0 L 1024.0 768.0 L 1024.0 0.0 L 0.0 0.0 Z M 0.0 768.0 " fill="#181818"></path><g><clipPath id="clip-1521"><path d="M 362.8 26.5 L 661.2 26.5 L 661.2 83.6 L 362.8 83.6 Z M 362.8 26.5 "></path></clipPath><g clip-path="url(#clip-1521)"><text xml:space="preserve" font-family="AvenirNext-DemiBold" font-weight="bold" font-size="28.0" fill="#FFFFFF" transform="matrix(1.00, 0.00, -0.00, -1.00, 372.0, 46.0)">h</text><text xml:space="preserve" font-family="AvenirNext-DemiBold" font-weight="bold" font-size="28.0" fill="#FFFFFF" transform="matrix(1.00, 0.00, -0.00, -1.00, 388.6, 46.0)">t</text><text xml:space="preserve" font-family="AvenirNext-DemiBold" font-weight="bold" font-size="28.0" fill="#FFFFFF" transform="matrix(1.00, 0.00, -0.00, -1.00, 398.0, 46.0)">t</text><text xml:space="preserve" font-family="AvenirNext-DemiBold" font-weight="bold" font-size="28.0" fill="#FFFFFF" transform="matrix(1.00, 0.00, -0.00, -1.00, 407.8, 46.0)">p</text><text xml:space="preserve" font-family="AvenirNext-DemiBold" font-weight="bold" font-size="28.0" fill="#FFFFFF" transform="matrix(1.00, 0.00, -0.00, -1.00, 425.8, 46.0)">s</text><text xml:space="preserve" font-family="AvenirNext-DemiBold" font-weight="bold" font-size="28.0" fill="#FFFFFF" transform="matrix(1.00, 0.00, -0.00, -1.00, 438.5, 46.0)">:</text><text xml:space="preserve" font-family="AvenirNext-DemiBold" font-weight="bold" font-size="28.0" fill="#FFFFFF" transform="matrix(1.00, 0.00, -0.00, -1.00, 447.2, 46.0)">/</text><text xml:space="preserve" font-family="AvenirNext-DemiBold" font-weight="bold" font-size="28.0" fill="#FFFFFF" transform="matrix(1.00, 0.00, -0.00, -1.00, 458.4, 46.0)">/</text><text xml:space="preserve" font-family="AvenirNext-DemiBold" font-weight="bold" font-size="28.0" fill="#FFFFFF" transform="matrix(1.00, 0.00, -0.00, -1.00, 469.6, 46.0)">n</text><text xml:space="preserve" font-family="AvenirNext-DemiBold" font-weight="bold" font-size="28.0" fill="#FFFFFF" transform="matrix(1.00, 0.00, -0.00, -1.00, 486.1, 46.0)">p</text><text xml:space="preserve" font-family="AvenirNext-DemiBold" font-weight="bold" font-size="28.0" fill="#FFFFFF" transform="matrix(1.00, 0.00, -0.00, -1.00, 504.1, 46.0)">m</text><text xml:space="preserve" font-family="AvenirNext-DemiBold" font-weight="bold" font-size="28.0" fill="#FFFFFF" transform="matrix(1.00, 0.00, -0.00, -1.00, 529.3, 46.0)">-</text><text xml:space="preserve" font-family="AvenirNext-DemiBold" font-weight="bold" font-size="28.0" fill="#FFFFFF" transform="matrix(1.00, 0.00, -0.00, -1.00, 538.6, 46.0)">s</text><text xml:space="preserve" font-family="AvenirNext-DemiBold" font-weight="bold" font-size="28.0" fill="#FFFFFF" transform="matrix(1.00, 0.00, -0.00, -1.00, 551.3, 46.0)">t</text><text xml:space="preserve" font-family="AvenirNext-DemiBold" font-weight="bold" font-size="28.0" fill="#FFFFFF" transform="matrix(1.00, 0.00, -0.00, -1.00, 561.1, 46.0)">a</text><text xml:space="preserve" font-family="AvenirNext-DemiBold" font-weight="bold" font-size="28.0" fill="#FFFFFF" transform="matrix(1.00, 0.00, -0.00, -1.00, 576.5, 46.0)">t</text><text xml:space="preserve" font-family="AvenirNext-DemiBold" font-weight="bold" font-size="28.0" fill="#FFFFFF" transform="matrix(1.00, 0.00, -0.00, -1.00, 586.3, 46.0)">.</text><text xml:space="preserve" font-family="AvenirNext-DemiBold" font-weight="bold" font-size="28.0" fill="#FFFFFF" transform="matrix(1.00, 0.00, -0.00, -1.00, 593.8, 46.0)">c</text><text xml:space="preserve" font-family="AvenirNext-DemiBold" font-weight="bold" font-size="28.0" fill="#FFFFFF" transform="matrix(1.00, 0.00, -0.00, -1.00, 607.8, 46.0)">o</text><text xml:space="preserve" font-family="AvenirNext-DemiBold" font-weight="bold" font-size="28.0" fill="#FFFFFF" transform="matrix(1.00, 0.00, -0.00, -1.00, 625.1, 46.0)">m</text></g></g><g><clipPath id="clip-1522"><path d="M 309.8 65.0 L 714.2 65.0 L 714.2 122.2 L 309.8 122.2 Z M 309.8 65.0 "></path></clipPath><g clip-path="url(#clip-1522)"><text xml:space="preserve" font-family="AvenirNext-DemiBold" font-weight="bold" font-size="28.0" fill="#FFFFFF" transform="matrix(1.00, 0.00, -0.00, -1.00, 319.0, 85.0)">J</text><text xml:space="preserve" font-family="AvenirNext-DemiBold" font-weight="bold" font-size="28.0" fill="#FFFFFF" transform="matrix(1.00, 0.00, -0.00, -1.00, 333.1, 85.0)">a</text><text xml:space="preserve" font-family="AvenirNext-DemiBold" font-weight="bold" font-size="28.0" fill="#FFFFFF" transform="matrix(1.00, 0.00, -0.00, -1.00, 348.7, 85.0)">n</text><text xml:space="preserve" font-family="AvenirNext-DemiBold" font-weight="bold" font-size="28.0" fill="#FFFFFF" transform="matrix(1.00, 0.00, -0.00, -1.00, 365.3, 85.0)">u</text><text xml:space="preserve" font-family="AvenirNext-DemiBold" font-weight="bold" font-size="28.0" fill="#FFFFFF" transform="matrix(1.00, 0.00, -0.00, -1.00, 381.9, 85.0)">a</text><text xml:space="preserve" font-family="AvenirNext-DemiBold" font-weight="bold" font-size="28.0" fill="#FFFFFF" transform="matrix(1.00, 0.00, -0.00, -1.00, 397.6, 85.0)">r</text><text xml:space="preserve" font-family="AvenirNext-DemiBold" font-weight="bold" font-size="28.0" fill="#FFFFFF" transform="matrix(1.00, 0.00, -0.00, -1.00, 408.0, 85.0)">y</text><text xml:space="preserve" font-family="AvenirNext-DemiBold" font-weight="bold" font-size="28.0" fill="#FFFFFF" transform="matrix(1.00, 0.00, -0.00, -1.00, 422.7, 85.0)"> </text><text xml:space="preserve" font-family="AvenirNext-DemiBold" font-weight="bold" font-size="28.0" fill="#FFFFFF" transform="matrix(1.00, 0.00, -0.00, -1.00, 430.0, 85.0)">2</text><text xml:space="preserve" font-family="AvenirNext-DemiBold" font-weight="bold" font-size="28.0" fill="#FFFFFF" transform="matrix(1.00, 0.00, -0.00, -1.00, 447.3, 85.0)">0</text><text xml:space="preserve" font-family="AvenirNext-DemiBold" font-weight="bold" font-size="28.0" fill="#FFFFFF" transform="matrix(1.00, 0.00, -0.00, -1.00, 464.7, 85.0)">1</text><text xml:space="preserve" font-family="AvenirNext-DemiBold" font-weight="bold" font-size="28.0" fill="#FFFFFF" transform="matrix(1.00, 0.00, -0.00, -1.00, 482.0, 85.0)">4</text><text xml:space="preserve" font-family="AvenirNext-DemiBold" font-weight="bold" font-size="28.0" fill="#FFFFFF" transform="matrix(1.00, 0.00, -0.00, -1.00, 499.4, 85.0)"> </text><text xml:space="preserve" font-family="AvenirNext-DemiBold" font-weight="bold" font-size="28.0" fill="#FFFFFF" transform="matrix(1.00, 0.00, -0.00, -1.00, 506.7, 85.0)">-</text><text xml:space="preserve" font-family="AvenirNext-DemiBold" font-weight="bold" font-size="28.0" fill="#FFFFFF" transform="matrix(1.00, 0.00, -0.00, -1.00, 515.9, 85.0)"> </text><text xml:space="preserve" font-family="AvenirNext-DemiBold" font-weight="bold" font-size="28.0" fill="#FFFFFF" transform="matrix(1.00, 0.00, -0.00, -1.00, 522.9, 85.0)">J</text><text xml:space="preserve" font-family="AvenirNext-DemiBold" font-weight="bold" font-size="28.0" fill="#FFFFFF" transform="matrix(1.00, 0.00, -0.00, -1.00, 536.9, 85.0)">a</text><text xml:space="preserve" font-family="AvenirNext-DemiBold" font-weight="bold" font-size="28.0" fill="#FFFFFF" transform="matrix(1.00, 0.00, -0.00, -1.00, 552.6, 85.0)">n</text><text xml:space="preserve" font-family="AvenirNext-DemiBold" font-weight="bold" font-size="28.0" fill="#FFFFFF" transform="matrix(1.00, 0.00, -0.00, -1.00, 569.2, 85.0)">u</text><text xml:space="preserve" font-family="AvenirNext-DemiBold" font-weight="bold" font-size="28.0" fill="#FFFFFF" transform="matrix(1.00, 0.00, -0.00, -1.00, 585.8, 85.0)">a</text><text xml:space="preserve" font-family="AvenirNext-DemiBold" font-weight="bold" font-size="28.0" fill="#FFFFFF" transform="matrix(1.00, 0.00, -0.00, -1.00, 601.4, 85.0)">r</text><text xml:space="preserve" font-family="AvenirNext-DemiBold" font-weight="bold" font-size="28.0" fill="#FFFFFF" transform="matrix(1.00, 0.00, -0.00, -1.00, 611.9, 85.0)">y</text><text xml:space="preserve" font-family="AvenirNext-DemiBold" font-weight="bold" font-size="28.0" fill="#FFFFFF" transform="matrix(1.00, 0.00, -0.00, -1.00, 626.6, 85.0)"> </text><text xml:space="preserve" font-family="AvenirNext-DemiBold" font-weight="bold" font-size="28.0" fill="#FFFFFF" transform="matrix(1.00, 0.00, -0.00, -1.00, 633.8, 85.0)">2</text><text xml:space="preserve" font-family="AvenirNext-DemiBold" font-weight="bold" font-size="28.0" fill="#FFFFFF" transform="matrix(1.00, 0.00, -0.00, -1.00, 651.2, 85.0)">0</text><text xml:space="preserve" font-family="AvenirNext-DemiBold" font-weight="bold" font-size="28.0" fill="#FFFFFF" transform="matrix(1.00, 0.00, -0.00, -1.00, 668.6, 85.0)">1</text><text xml:space="preserve" font-family="AvenirNext-DemiBold" font-weight="bold" font-size="28.0" fill="#FFFFFF" transform="matrix(1.00, 0.00, -0.00, -1.00, 685.9, 85.0)">7</text></g></g><g><clipPath id="clip-1523"><path d="M 17.7 115.6 L 1006.3 115.6 L 1006.3 735.9 L 17.7 735.9 Z M 17.7 115.6 "></path></clipPath><g clip-path="url(#clip-1523)"><image xlink:href="833D8518DDD7618D938059D1FCBBE23B.png" width="860.00" height="539.00" transform="matrix(1.15, 0.00, -0.00, -1.15, 18.0, 736.0)"></image></g></g><text xml:space="preserve" font-family="AvenirNext-DemiBold" font-weight="bold" font-size="27.0" fill="#DE7D67" transform="matrix(1.00, 0.00, -0.00, -1.00, 224.0, 14.0)">h</text><text xml:space="preserve" font-family="AvenirNext-DemiBold" font-weight="bold" font-size="27.0" fill="#DE7D67" transform="matrix(1.00, 0.00, -0.00, -1.00, 240.0, 14.0)">t</text><text xml:space="preserve" font-family="AvenirNext-DemiBold" font-weight="bold" font-size="27.0" fill="#DE7D67" transform="matrix(1.00, 0.00, -0.00, -1.00, 249.1, 14.0)">t</text><text xml:space="preserve" font-family="AvenirNext-DemiBold" font-weight="bold" font-size="27.0" fill="#DE7D67" transform="matrix(1.00, 0.00, -0.00, -1.00, 258.5, 14.0)">p</text><text xml:space="preserve" font-family="AvenirNext-DemiBold" font-weight="bold" font-size="27.0" fill="#DE7D67" transform="matrix(1.00, 0.00, -0.00, -1.00, 275.9, 14.0)">s</text><text xml:space="preserve" font-family="AvenirNext-DemiBold" font-weight="bold" font-size="27.0" fill="#DE7D67" transform="matrix(1.00, 0.00, -0.00, -1.00, 288.2, 14.0)">:</text><text xml:space="preserve" font-family="AvenirNext-DemiBold" font-weight="bold" font-size="27.0" fill="#DE7D67" transform="matrix(1.00, 0.00, -0.00, -1.00, 296.5, 14.0)">/</text><text xml:space="preserve" font-family="AvenirNext-DemiBold" font-weight="bold" font-size="27.0" fill="#DE7D67" transform="matrix(1.00, 0.00, -0.00, -1.00, 307.3, 14.0)">/</text><text xml:space="preserve" font-family="AvenirNext-DemiBold" font-weight="bold" font-size="27.0" fill="#DE7D67" transform="matrix(1.00, 0.00, -0.00, -1.00, 318.1, 14.0)">n</text><text xml:space="preserve" font-family="AvenirNext-DemiBold" font-weight="bold" font-size="27.0" fill="#DE7D67" transform="matrix(1.00, 0.00, -0.00, -1.00, 334.1, 14.0)">a</text><text xml:space="preserve" font-family="AvenirNext-DemiBold" font-weight="bold" font-size="27.0" fill="#DE7D67" transform="matrix(1.00, 0.00, -0.00, -1.00, 349.2, 14.0)">o</text><text xml:space="preserve" font-family="AvenirNext-DemiBold" font-weight="bold" font-size="27.0" fill="#DE7D67" transform="matrix(1.00, 0.00, -0.00, -1.00, 365.9, 14.0)">m</text><text xml:space="preserve" font-family="AvenirNext-DemiBold" font-weight="bold" font-size="27.0" fill="#DE7D67" transform="matrix(1.00, 0.00, -0.00, -1.00, 390.2, 14.0)">i</text><text xml:space="preserve" font-family="AvenirNext-DemiBold" font-weight="bold" font-size="27.0" fill="#DE7D67" transform="matrix(1.00, 0.00, -0.00, -1.00, 397.7, 14.0)">a</text><text xml:space="preserve" font-family="AvenirNext-DemiBold" font-weight="bold" font-size="27.0" fill="#DE7D67" transform="matrix(1.00, 0.00, -0.00, -1.00, 412.8, 14.0)">j</text><text xml:space="preserve" font-family="AvenirNext-DemiBold" font-weight="bold" font-size="27.0" fill="#DE7D67" transform="matrix(1.00, 0.00, -0.00, -1.00, 420.3, 14.0)">a</text><text xml:space="preserve" font-family="AvenirNext-DemiBold" font-weight="bold" font-size="27.0" fill="#DE7D67" transform="matrix(1.00, 0.00, -0.00, -1.00, 435.5, 14.0)">c</text><text xml:space="preserve" font-family="AvenirNext-DemiBold" font-weight="bold" font-size="27.0" fill="#DE7D67" transform="matrix(1.00, 0.00, -0.00, -1.00, 448.9, 14.0)">o</text><text xml:space="preserve" font-family="AvenirNext-DemiBold" font-weight="bold" font-size="27.0" fill="#DE7D67" transform="matrix(1.00, 0.00, -0.00, -1.00, 465.6, 14.0)">b</text><text xml:space="preserve" font-family="AvenirNext-DemiBold" font-weight="bold" font-size="27.0" fill="#DE7D67" transform="matrix(1.00, 0.00, -0.00, -1.00, 483.1, 14.0)">s</text><text xml:space="preserve" font-family="AvenirNext-DemiBold" font-weight="bold" font-size="27.0" fill="#DE7D67" transform="matrix(1.00, 0.00, -0.00, -1.00, 495.3, 14.0)">.</text><text xml:space="preserve" font-family="AvenirNext-DemiBold" font-weight="bold" font-size="27.0" fill="#DE7D67" transform="matrix(1.00, 0.00, -0.00, -1.00, 502.6, 14.0)">g</text><text xml:space="preserve" font-family="AvenirNext-DemiBold" font-weight="bold" font-size="27.0" fill="#DE7D67" transform="matrix(1.00, 0.00, -0.00, -1.00, 519.9, 14.0)">i</text><text xml:space="preserve" font-family="AvenirNext-DemiBold" font-weight="bold" font-size="27.0" fill="#DE7D67" transform="matrix(1.00, 0.00, -0.00, -1.00, 527.5, 14.0)">t</text><text xml:space="preserve" font-family="AvenirNext-DemiBold" font-weight="bold" font-size="27.0" fill="#DE7D67" transform="matrix(1.00, 0.00, -0.00, -1.00, 536.9, 14.0)">h</text><text xml:space="preserve" font-family="AvenirNext-DemiBold" font-weight="bold" font-size="27.0" fill="#DE7D67" transform="matrix(1.00, 0.00, -0.00, -1.00, 552.9, 14.0)">u</text><text xml:space="preserve" font-family="AvenirNext-DemiBold" font-weight="bold" font-size="27.0" fill="#DE7D67" transform="matrix(1.00, 0.00, -0.00, -1.00, 568.9, 14.0)">b</text><text xml:space="preserve" font-family="AvenirNext-DemiBold" font-weight="bold" font-size="27.0" fill="#DE7D67" transform="matrix(1.00, 0.00, -0.00, -1.00, 586.0, 14.0)">.</text><text xml:space="preserve" font-family="AvenirNext-DemiBold" font-weight="bold" font-size="27.0" fill="#DE7D67" transform="matrix(1.00, 0.00, -0.00, -1.00, 593.3, 14.0)">i</text><text xml:space="preserve" font-family="AvenirNext-DemiBold" font-weight="bold" font-size="27.0" fill="#DE7D67" transform="matrix(1.00, 0.00, -0.00, -1.00, 600.8, 14.0)">o</text><text xml:space="preserve" font-family="AvenirNext-DemiBold" font-weight="bold" font-size="27.0" fill="#DE7D67" transform="matrix(1.00, 0.00, -0.00, -1.00, 617.6, 14.0)">/</text><text xml:space="preserve" font-family="AvenirNext-DemiBold" font-weight="bold" font-size="27.0" fill="#DE7D67" transform="matrix(1.00, 0.00, -0.00, -1.00, 628.3, 14.0)">W</text><text xml:space="preserve" font-family="AvenirNext-DemiBold" font-weight="bold" font-size="27.0" fill="#DE7D67" transform="matrix(1.00, 0.00, -0.00, -1.00, 654.7, 14.0)">e</text><text xml:space="preserve" font-family="AvenirNext-DemiBold" font-weight="bold" font-size="27.0" fill="#DE7D67" transform="matrix(1.00, 0.00, -0.00, -1.00, 670.5, 14.0)">b</text><text xml:space="preserve" font-family="AvenirNext-DemiBold" font-weight="bold" font-size="27.0" fill="#DE7D67" transform="matrix(1.00, 0.00, -0.00, -1.00, 687.9, 14.0)">p</text><text xml:space="preserve" font-family="AvenirNext-DemiBold" font-weight="bold" font-size="27.0" fill="#DE7D67" transform="matrix(1.00, 0.00, -0.00, -1.00, 705.3, 14.0)">a</text><text xml:space="preserve" font-family="AvenirNext-DemiBold" font-weight="bold" font-size="27.0" fill="#DE7D67" transform="matrix(1.00, 0.00, -0.00, -1.00, 720.4, 14.0)">c</text><text xml:space="preserve" font-family="AvenirNext-DemiBold" font-weight="bold" font-size="27.0" fill="#DE7D67" transform="matrix(1.00, 0.00, -0.00, -1.00, 733.8, 14.0)">k</text><text xml:space="preserve" font-family="AvenirNext-DemiBold" font-weight="bold" font-size="27.0" fill="#DE7D67" transform="matrix(1.00, 0.00, -0.00, -1.00, 748.8, 14.0)">T</text><text xml:space="preserve" font-family="AvenirNext-DemiBold" font-weight="bold" font-size="27.0" fill="#DE7D67" transform="matrix(1.00, 0.00, -0.00, -1.00, 761.8, 14.0)">a</text><text xml:space="preserve" font-family="AvenirNext-DemiBold" font-weight="bold" font-size="27.0" fill="#DE7D67" transform="matrix(1.00, 0.00, -0.00, -1.00, 776.9, 14.0)">l</text><text xml:space="preserve" font-family="AvenirNext-DemiBold" font-weight="bold" font-size="27.0" fill="#DE7D67" transform="matrix(1.00, 0.00, -0.00, -1.00, 784.4, 14.0)">k</text></g></svg>