<?xml version="1.0" encoding="UTF-8" standalone="no"?><svg xmlns="http://www.w3.org/2000/svg" xmlns:xlink="http://www.w3.org/1999/xlink" clip-rule="evenodd" stroke-miterlimit="4.00" viewBox="0 0 709 192"><desc>SVG generated by Keynote</desc><defs></defs><g transform="matrix(1.00, 0.00, -0.00, -1.00, 0.0, 192.0)"><text xml:space="preserve" font-family="AvenirNext-DemiBold" font-weight="bold" font-size="73.0" fill="#F1C114" transform="matrix(1.00, 0.00, -0.00, -1.00, 98.0, 135.0)">1</text><text xml:space="preserve" font-family="AvenirNext-DemiBold" font-weight="bold" font-size="73.0" fill="#F1C114" transform="matrix(1.00, 0.00, -0.00, -1.00, 142.5, 135.0)">)</text><text xml:space="preserve" font-family="AvenirNext-DemiBold" font-weight="bold" font-size="73.0" fill="#F1C114" transform="matrix(1.00, 0.00, -0.00, -1.00, 166.6, 135.0)"> </text><text xml:space="preserve" font-family="AvenirNext-DemiBold" font-weight="bold" font-size="73.0" fill="#F1C114" transform="matrix(1.00, 0.00, -0.00, -1.00, 184.9, 135.0)">v</text><text xml:space="preserve" font-family="AvenirNext-DemiBold" font-weight="bold" font-size="73.0" fill="#F1C114" transform="matrix(1.00, 0.00, -0.00, -1.00, 222.3, 135.0)">e</text><text xml:space="preserve" font-family="AvenirNext-DemiBold" font-weight="bold" font-size="73.0" fill="#F1C114" transform="matrix(1.00, 0.00, -0.00, -1.00, 264.2, 135.0)">r</text><text xml:space="preserve" font-family="AvenirNext-DemiBold" font-weight="bold" font-size="73.0" fill="#F1C114" transform="matrix(1.00, 0.00, -0.00, -1.00, 290.8, 135.0)">y</text><text xml:space="preserve" font-family="AvenirNext-DemiBold" font-weight="bold" font-size="73.0" fill="#F1C114" transform="matrix(1.00, 0.00, -0.00, -1.00, 328.2, 135.0)"> </text><text xml:space="preserve" font-family="AvenirNext-DemiBold" font-weight="bold" font-size="73.0" fill="#F1C114" transform="matrix(1.00, 0.00, -0.00, -1.00, 346.5, 135.0)">p</text><text xml:space="preserve" font-family="AvenirNext-DemiBold" font-weight="bold" font-size="73.0" fill="#F1C114" transform="matrix(1.00, 0.00, -0.00, -1.00, 392.7, 135.0)">o</text><text xml:space="preserve" font-family="AvenirNext-DemiBold" font-weight="bold" font-size="73.0" fill="#F1C114" transform="matrix(1.00, 0.00, -0.00, -1.00, 437.2, 135.0)">p</text><text xml:space="preserve" font-family="AvenirNext-DemiBold" font-weight="bold" font-size="73.0" fill="#F1C114" transform="matrix(1.00, 0.00, -0.00, -1.00, 483.4, 135.0)">u</text><text xml:space="preserve" font-family="AvenirNext-DemiBold" font-weight="bold" font-size="73.0" fill="#F1C114" transform="matrix(1.00, 0.00, -0.00, -1.00, 525.9, 135.0)">l</text><text xml:space="preserve" font-family="AvenirNext-DemiBold" font-weight="bold" font-size="73.0" fill="#F1C114" transform="matrix(1.00, 0.00, -0.00, -1.00, 545.5, 135.0)">a</text><text xml:space="preserve" font-family="AvenirNext-DemiBold" font-weight="bold" font-size="73.0" fill="#F1C114" transform="matrix(1.00, 0.00, -0.00, -1.00, 585.6, 135.0)">r</text><text xml:space="preserve" font-family="AvenirNext-DemiBold" font-weight="bold" font-size="73.0" fill="#F1C114" transform="matrix(1.00, 0.00, -0.00, -1.00, 612.2, 135.0)"> </text><text xml:space="preserve" font-family="AvenirNext-DemiBold" font-weight="bold" font-size="73.0" fill="#F1C114" transform="matrix(1.00, 0.00, -0.00, -1.00, -3.0, 19.0)">2</text><text xml:space="preserve" font-family="AvenirNext-DemiBold" font-weight="bold" font-size="73.0" fill="#F1C114" transform="matrix(1.00, 0.00, -0.00, -1.00, 41.5, 19.0)">)</text><text xml:space="preserve" font-family="AvenirNext-DemiBold" font-weight="bold" font-size="73.0" fill="#F1C114" transform="matrix(1.00, 0.00, -0.00, -1.00, 65.6, 19.0)"> </text><text xml:space="preserve" font-family="AvenirNext-DemiBold" font-weight="bold" font-size="73.0" fill="#F1C114" transform="matrix(1.00, 0.00, -0.00, -1.00, 83.9, 19.0)">n</text><text xml:space="preserve" font-family="AvenirNext-DemiBold" font-weight="bold" font-size="73.0" fill="#F1C114" transform="matrix(1.00, 0.00, -0.00, -1.00, 126.4, 19.0)">o</text><text xml:space="preserve" font-family="AvenirNext-DemiBold" font-weight="bold" font-size="73.0" fill="#F1C114" transform="matrix(1.00, 0.00, -0.00, -1.00, 170.9, 19.0)">t</text><text xml:space="preserve" font-family="AvenirNext-DemiBold" font-weight="bold" font-size="73.0" fill="#F1C114" transform="matrix(1.00, 0.00, -0.00, -1.00, 195.7, 19.0)"> </text><text xml:space="preserve" font-family="AvenirNext-DemiBold" font-weight="bold" font-size="73.0" fill="#F1C114" transform="matrix(1.00, 0.00, -0.00, -1.00, 214.0, 19.0)">w</text><text xml:space="preserve" font-family="AvenirNext-DemiBold" font-weight="bold" font-size="73.0" fill="#F1C114" transform="matrix(1.00, 0.00, -0.00, -1.00, 272.6, 19.0)">e</text><text xml:space="preserve" font-family="AvenirNext-DemiBold" font-weight="bold" font-size="73.0" fill="#F1C114" transform="matrix(1.00, 0.00, -0.00, -1.00, 314.5, 19.0)">l</text><text xml:space="preserve" font-family="AvenirNext-DemiBold" font-weight="bold" font-size="73.0" fill="#F1C114" transform="matrix(1.00, 0.00, -0.00, -1.00, 334.1, 19.0)">l</text><text xml:space="preserve" font-family="AvenirNext-DemiBold" font-weight="bold" font-size="73.0" fill="#F1C114" transform="matrix(1.00, 0.00, -0.00, -1.00, 353.7, 19.0)">-</text><text xml:space="preserve" font-family="AvenirNext-DemiBold" font-weight="bold" font-size="73.0" fill="#F1C114" transform="matrix(1.00, 0.00, -0.00, -1.00, 377.0, 19.0)">e</text><text xml:space="preserve" font-family="AvenirNext-DemiBold" font-weight="bold" font-size="73.0" fill="#F1C114" transform="matrix(1.00, 0.00, -0.00, -1.00, 418.2, 19.0)">x</text><text xml:space="preserve" font-family="AvenirNext-DemiBold" font-weight="bold" font-size="73.0" fill="#F1C114" transform="matrix(1.00, 0.00, -0.00, -1.00, 457.4, 19.0)">p</text><text xml:space="preserve" font-family="AvenirNext-DemiBold" font-weight="bold" font-size="73.0" fill="#F1C114" transform="matrix(1.00, 0.00, -0.00, -1.00, 503.6, 19.0)">l</text><text xml:space="preserve" font-family="AvenirNext-DemiBold" font-weight="bold" font-size="73.0" fill="#F1C114" transform="matrix(1.00, 0.00, -0.00, -1.00, 523.2, 19.0)">a</text><text xml:space="preserve" font-family="AvenirNext-DemiBold" font-weight="bold" font-size="73.0" fill="#F1C114" transform="matrix(1.00, 0.00, -0.00, -1.00, 563.3, 19.0)">i</text><text xml:space="preserve" font-family="AvenirNext-DemiBold" font-weight="bold" font-size="73.0" fill="#F1C114" transform="matrix(1.00, 0.00, -0.00, -1.00, 582.9, 19.0)">n</text><text xml:space="preserve" font-family="AvenirNext-DemiBold" font-weight="bold" font-size="73.0" fill="#F1C114" transform="matrix(1.00, 0.00, -0.00, -1.00, 625.4, 19.0)">e</text><text xml:space="preserve" font-family="AvenirNext-DemiBold" font-weight="bold" font-size="73.0" fill="#F1C114" transform="matrix(1.00, 0.00, -0.00, -1.00, 667.3, 19.0)">d</text></g></svg>