<?xml version="1.0" encoding="UTF-8" standalone="no"?><svg xmlns="http://www.w3.org/2000/svg" xmlns:xlink="http://www.w3.org/1999/xlink" clip-rule="evenodd" stroke-miterlimit="4.00" viewBox="0 0 465 186"><desc>SVG generated by Keynote</desc><defs></defs><g transform="matrix(1.00, 0.00, -0.00, -1.00, 0.0, 186.0)"><path d="M 1.1 184.8 L 463.0 184.8 L 463.0 1.5 L 1.1 1.5 Z M 1.1 184.8 " fill="#F1C114"></path><g><clipPath id="clip-3410"><path d="M -0.9 0.8 L 465.0 0.8 L 465.0 185.8 L -0.9 185.8 Z M -0.9 0.8 "></path></clipPath><g clip-path="url(#clip-3410)"><text xml:space="preserve" font-family="FiraCode-Bold" font-weight="bold" font-size="20.0" fill="#5C5C5C" transform="matrix(1.00, 0.00, -0.00, -1.00, 17.2, 156.0)">/</text><text xml:space="preserve" font-family="FiraCode-Bold" font-weight="bold" font-size="20.0" fill="#5C5C5C" transform="matrix(1.00, 0.00, -0.00, -1.00, 29.4, 156.0)">/</text><text xml:space="preserve" font-family="FiraCode-Bold" font-weight="bold" font-size="20.0" fill="#5C5C5C" transform="matrix(1.00, 0.00, -0.00, -1.00, 41.6, 156.0)"> </text><text xml:space="preserve" font-family="FiraCode-Bold" font-weight="bold" font-size="20.0" fill="#5C5C5C" transform="matrix(1.00, 0.00, -0.00, -1.00, 53.8, 156.0)">h</text><text xml:space="preserve" font-family="FiraCode-Bold" font-weight="bold" font-size="20.0" fill="#5C5C5C" transform="matrix(1.00, 0.00, -0.00, -1.00, 66.0, 156.0)">y</text><text xml:space="preserve" font-family="FiraCode-Bold" font-weight="bold" font-size="20.0" fill="#5C5C5C" transform="matrix(1.00, 0.00, -0.00, -1.00, 78.2, 156.0)">p</text><text xml:space="preserve" font-family="FiraCode-Bold" font-weight="bold" font-size="20.0" fill="#5C5C5C" transform="matrix(1.00, 0.00, -0.00, -1.00, 90.4, 156.0)">o</text><text xml:space="preserve" font-family="FiraCode-Bold" font-weight="bold" font-size="20.0" fill="#5C5C5C" transform="matrix(1.00, 0.00, -0.00, -1.00, 102.6, 156.0)">t</text><text xml:space="preserve" font-family="FiraCode-Bold" font-weight="bold" font-size="20.0" fill="#5C5C5C" transform="matrix(1.00, 0.00, -0.00, -1.00, 114.8, 156.0)">e</text><text xml:space="preserve" font-family="FiraCode-Bold" font-weight="bold" font-size="20.0" fill="#5C5C5C" transform="matrix(1.00, 0.00, -0.00, -1.00, 127.0, 156.0)">n</text><text xml:space="preserve" font-family="FiraCode-Bold" font-weight="bold" font-size="20.0" fill="#5C5C5C" transform="matrix(1.00, 0.00, -0.00, -1.00, 139.2, 156.0)">u</text><text xml:space="preserve" font-family="FiraCode-Bold" font-weight="bold" font-size="20.0" fill="#5C5C5C" transform="matrix(1.00, 0.00, -0.00, -1.00, 151.4, 156.0)">s</text><text xml:space="preserve" font-family="FiraCode-Bold" font-weight="bold" font-size="20.0" fill="#5C5C5C" transform="matrix(1.00, 0.00, -0.00, -1.00, 163.6, 156.0)">e</text><text xml:space="preserve" font-family="FiraCode-Bold" font-weight="bold" font-size="20.0" fill="#5C5C5C" transform="matrix(1.00, 0.00, -0.00, -1.00, 175.8, 156.0)">.</text><text xml:space="preserve" font-family="FiraCode-Bold" font-weight="bold" font-size="20.0" fill="#5C5C5C" transform="matrix(1.00, 0.00, -0.00, -1.00, 188.0, 156.0)">j</text><text xml:space="preserve" font-family="FiraCode-Bold" font-weight="bold" font-size="20.0" fill="#5C5C5C" transform="matrix(1.00, 0.00, -0.00, -1.00, 200.2, 156.0)">s</text><text xml:space="preserve" font-family="FiraCode-Bold" font-weight="bold" font-size="20.0" fill="#5C5C5C" transform="matrix(1.00, 0.00, -0.00, -1.00, 212.4, 156.0)"> </text><text xml:space="preserve" font-family="FiraCode-Regular" font-size="20.0" fill="#000000" transform="matrix(1.00, 0.00, -0.00, -1.00, 5.0, 132.0)">f</text><text xml:space="preserve" font-family="FiraCode-Regular" font-size="20.0" fill="#000000" transform="matrix(1.00, 0.00, -0.00, -1.00, 17.2, 132.0)">u</text><text xml:space="preserve" font-family="FiraCode-Regular" font-size="20.0" fill="#000000" transform="matrix(1.00, 0.00, -0.00, -1.00, 29.4, 132.0)">n</text><text xml:space="preserve" font-family="FiraCode-Regular" font-size="20.0" fill="#000000" transform="matrix(1.00, 0.00, -0.00, -1.00, 41.6, 132.0)">c</text><text xml:space="preserve" font-family="FiraCode-Regular" font-size="20.0" fill="#000000" transform="matrix(1.00, 0.00, -0.00, -1.00, 53.8, 132.0)">t</text><text xml:space="preserve" font-family="FiraCode-Regular" font-size="20.0" fill="#000000" transform="matrix(1.00, 0.00, -0.00, -1.00, 66.0, 132.0)">i</text><text xml:space="preserve" font-family="FiraCode-Regular" font-size="20.0" fill="#000000" transform="matrix(1.00, 0.00, -0.00, -1.00, 78.2, 132.0)">o</text><text xml:space="preserve" font-family="FiraCode-Regular" font-size="20.0" fill="#000000" transform="matrix(1.00, 0.00, -0.00, -1.00, 90.4, 132.0)">n</text><text xml:space="preserve" font-family="FiraCode-Regular" font-size="20.0" fill="#000000" transform="matrix(1.00, 0.00, -0.00, -1.00, 102.6, 132.0)">(</text><text xml:space="preserve" font-family="FiraCode-Regular" font-size="20.0" fill="#000000" transform="matrix(1.00, 0.00, -0.00, -1.00, 114.8, 132.0)">m</text><text xml:space="preserve" font-family="FiraCode-Regular" font-size="20.0" fill="#000000" transform="matrix(1.00, 0.00, -0.00, -1.00, 127.0, 132.0)">o</text><text xml:space="preserve" font-family="FiraCode-Regular" font-size="20.0" fill="#000000" transform="matrix(1.00, 0.00, -0.00, -1.00, 139.2, 132.0)">d</text><text xml:space="preserve" font-family="FiraCode-Regular" font-size="20.0" fill="#000000" transform="matrix(1.00, 0.00, -0.00, -1.00, 151.4, 132.0)">u</text><text xml:space="preserve" font-family="FiraCode-Regular" font-size="20.0" fill="#000000" transform="matrix(1.00, 0.00, -0.00, -1.00, 163.6, 132.0)">l</text><text xml:space="preserve" font-family="FiraCode-Regular" font-size="20.0" fill="#000000" transform="matrix(1.00, 0.00, -0.00, -1.00, 175.8, 132.0)">e</text><text xml:space="preserve" font-family="FiraCode-Regular" font-size="20.0" fill="#000000" transform="matrix(1.00, 0.00, -0.00, -1.00, 188.0, 132.0)">,</text><text xml:space="preserve" font-family="FiraCode-Regular" font-size="20.0" fill="#000000" transform="matrix(1.00, 0.00, -0.00, -1.00, 200.2, 132.0)"> </text><text xml:space="preserve" font-family="FiraCode-Regular" font-size="20.0" fill="#000000" transform="matrix(1.00, 0.00, -0.00, -1.00, 212.4, 132.0)">w</text><text xml:space="preserve" font-family="FiraCode-Regular" font-size="20.0" fill="#000000" transform="matrix(1.00, 0.00, -0.00, -1.00, 224.6, 132.0)">e</text><text xml:space="preserve" font-family="FiraCode-Regular" font-size="20.0" fill="#000000" transform="matrix(1.00, 0.00, -0.00, -1.00, 236.8, 132.0)">b</text><text xml:space="preserve" font-family="FiraCode-Regular" font-size="20.0" fill="#000000" transform="matrix(1.00, 0.00, -0.00, -1.00, 249.0, 132.0)">p</text><text xml:space="preserve" font-family="FiraCode-Regular" font-size="20.0" fill="#000000" transform="matrix(1.00, 0.00, -0.00, -1.00, 261.2, 132.0)">a</text><text xml:space="preserve" font-family="FiraCode-Regular" font-size="20.0" fill="#000000" transform="matrix(1.00, 0.00, -0.00, -1.00, 273.4, 132.0)">c</text><text xml:space="preserve" font-family="FiraCode-Regular" font-size="20.0" fill="#000000" transform="matrix(1.00, 0.00, -0.00, -1.00, 285.6, 132.0)">k</text><text xml:space="preserve" font-family="FiraCode-Regular" font-size="20.0" fill="#000000" transform="matrix(1.00, 0.00, -0.00, -1.00, 297.8, 132.0)">R</text><text xml:space="preserve" font-family="FiraCode-Regular" font-size="20.0" fill="#000000" transform="matrix(1.00, 0.00, -0.00, -1.00, 310.0, 132.0)">e</text><text xml:space="preserve" font-family="FiraCode-Regular" font-size="20.0" fill="#000000" transform="matrix(1.00, 0.00, -0.00, -1.00, 322.2, 132.0)">q</text><text xml:space="preserve" font-family="FiraCode-Regular" font-size="20.0" fill="#000000" transform="matrix(1.00, 0.00, -0.00, -1.00, 334.4, 132.0)">u</text><text xml:space="preserve" font-family="FiraCode-Regular" font-size="20.0" fill="#000000" transform="matrix(1.00, 0.00, -0.00, -1.00, 346.6, 132.0)">i</text><text xml:space="preserve" font-family="FiraCode-Regular" font-size="20.0" fill="#000000" transform="matrix(1.00, 0.00, -0.00, -1.00, 358.8, 132.0)">r</text><text xml:space="preserve" font-family="FiraCode-Regular" font-size="20.0" fill="#000000" transform="matrix(1.00, 0.00, -0.00, -1.00, 371.0, 132.0)">e</text><text xml:space="preserve" font-family="FiraCode-Regular" font-size="20.0" fill="#000000" transform="matrix(1.00, 0.00, -0.00, -1.00, 383.2, 132.0)">)</text><text xml:space="preserve" font-family="FiraCode-Regular" font-size="20.0" fill="#000000" transform="matrix(1.00, 0.00, -0.00, -1.00, 395.4, 132.0)"> </text><text xml:space="preserve" font-family="FiraCode-Regular" font-size="20.0" fill="#000000" transform="matrix(1.00, 0.00, -0.00, -1.00, 407.6, 132.0)">{</text><text xml:space="preserve" font-family="FiraCode-Regular" font-size="20.0" fill="#000000" transform="matrix(1.00, 0.00, -0.00, -1.00, 419.8, 132.0)"> </text><text xml:space="preserve" font-family="FiraCode-Regular" font-size="20.0" fill="#000000" transform="matrix(1.00, 0.00, -0.00, -1.00, 5.0, 108.0)"> </text><text xml:space="preserve" font-family="FiraCode-Regular" font-size="20.0" fill="#000000" transform="matrix(1.00, 0.00, -0.00, -1.00, 17.2, 108.0)"> </text><text xml:space="preserve" font-family="FiraCode-Regular" font-size="20.0" fill="#000000" transform="matrix(1.00, 0.00, -0.00, -1.00, 29.4, 108.0)">v</text><text xml:space="preserve" font-family="FiraCode-Regular" font-size="20.0" fill="#000000" transform="matrix(1.00, 0.00, -0.00, -1.00, 41.6, 108.0)">a</text><text xml:space="preserve" font-family="FiraCode-Regular" font-size="20.0" fill="#000000" transform="matrix(1.00, 0.00, -0.00, -1.00, 53.8, 108.0)">r</text><text xml:space="preserve" font-family="FiraCode-Regular" font-size="20.0" fill="#000000" transform="matrix(1.00, 0.00, -0.00, -1.00, 66.0, 108.0)"> </text><text xml:space="preserve" font-family="FiraCode-Regular" font-size="20.0" fill="#000000" transform="matrix(1.00, 0.00, -0.00, -1.00, 78.2, 108.0)">s</text><text xml:space="preserve" font-family="FiraCode-Regular" font-size="20.0" fill="#000000" transform="matrix(1.00, 0.00, -0.00, -1.00, 90.4, 108.0)">q</text><text xml:space="preserve" font-family="FiraCode-Regular" font-size="20.0" fill="#000000" transform="matrix(1.00, 0.00, -0.00, -1.00, 102.6, 108.0)">u</text><text xml:space="preserve" font-family="FiraCode-Regular" font-size="20.0" fill="#000000" transform="matrix(1.00, 0.00, -0.00, -1.00, 114.8, 108.0)">a</text><text xml:space="preserve" font-family="FiraCode-Regular" font-size="20.0" fill="#000000" transform="matrix(1.00, 0.00, -0.00, -1.00, 127.0, 108.0)">r</text><text xml:space="preserve" font-family="FiraCode-Regular" font-size="20.0" fill="#000000" transform="matrix(1.00, 0.00, -0.00, -1.00, 139.2, 108.0)">e</text><text xml:space="preserve" font-family="FiraCode-Regular" font-size="20.0" fill="#000000" transform="matrix(1.00, 0.00, -0.00, -1.00, 151.4, 108.0)"> </text><text xml:space="preserve" font-family="FiraCode-Regular" font-size="20.0" fill="#000000" transform="matrix(1.00, 0.00, -0.00, -1.00, 163.6, 108.0)">=</text><text xml:space="preserve" font-family="FiraCode-Regular" font-size="20.0" fill="#000000" transform="matrix(1.00, 0.00, -0.00, -1.00, 175.8, 108.0)"> </text><text xml:space="preserve" font-family="FiraCode-Regular" font-size="20.0" fill="#000000" transform="matrix(1.00, 0.00, -0.00, -1.00, 188.0, 108.0)">w</text><text xml:space="preserve" font-family="FiraCode-Regular" font-size="20.0" fill="#000000" transform="matrix(1.00, 0.00, -0.00, -1.00, 200.2, 108.0)">e</text><text xml:space="preserve" font-family="FiraCode-Regular" font-size="20.0" fill="#000000" transform="matrix(1.00, 0.00, -0.00, -1.00, 212.4, 108.0)">b</text><text xml:space="preserve" font-family="FiraCode-Regular" font-size="20.0" fill="#000000" transform="matrix(1.00, 0.00, -0.00, -1.00, 224.6, 108.0)">p</text><text xml:space="preserve" font-family="FiraCode-Regular" font-size="20.0" fill="#000000" transform="matrix(1.00, 0.00, -0.00, -1.00, 236.8, 108.0)">a</text><text xml:space="preserve" font-family="FiraCode-Regular" font-size="20.0" fill="#000000" transform="matrix(1.00, 0.00, -0.00, -1.00, 249.0, 108.0)">c</text><text xml:space="preserve" font-family="FiraCode-Regular" font-size="20.0" fill="#000000" transform="matrix(1.00, 0.00, -0.00, -1.00, 261.2, 108.0)">k</text><text xml:space="preserve" font-family="FiraCode-Regular" font-size="20.0" fill="#000000" transform="matrix(1.00, 0.00, -0.00, -1.00, 273.4, 108.0)">R</text><text xml:space="preserve" font-family="FiraCode-Regular" font-size="20.0" fill="#000000" transform="matrix(1.00, 0.00, -0.00, -1.00, 285.6, 108.0)">e</text><text xml:space="preserve" font-family="FiraCode-Regular" font-size="20.0" fill="#000000" transform="matrix(1.00, 0.00, -0.00, -1.00, 297.8, 108.0)">q</text><text xml:space="preserve" font-family="FiraCode-Regular" font-size="20.0" fill="#000000" transform="matrix(1.00, 0.00, -0.00, -1.00, 310.0, 108.0)">u</text><text xml:space="preserve" font-family="FiraCode-Regular" font-size="20.0" fill="#000000" transform="matrix(1.00, 0.00, -0.00, -1.00, 322.2, 108.0)">i</text><text xml:space="preserve" font-family="FiraCode-Regular" font-size="20.0" fill="#000000" transform="matrix(1.00, 0.00, -0.00, -1.00, 334.4, 108.0)">r</text><text xml:space="preserve" font-family="FiraCode-Regular" font-size="20.0" fill="#000000" transform="matrix(1.00, 0.00, -0.00, -1.00, 346.6, 108.0)">e</text><text xml:space="preserve" font-family="FiraCode-Regular" font-size="20.0" fill="#000000" transform="matrix(1.00, 0.00, -0.00, -1.00, 358.8, 108.0)">(</text><text xml:space="preserve" font-family="FiraCode-Regular" font-size="20.0" fill="#000000" transform="matrix(1.00, 0.00, -0.00, -1.00, 371.0, 108.0)">1</text><text xml:space="preserve" font-family="FiraCode-Regular" font-size="20.0" fill="#000000" transform="matrix(1.00, 0.00, -0.00, -1.00, 383.2, 108.0)">)</text><text xml:space="preserve" font-family="FiraCode-Regular" font-size="20.0" fill="#000000" transform="matrix(1.00, 0.00, -0.00, -1.00, 395.4, 108.0)">;</text><text xml:space="preserve" font-family="FiraCode-Regular" font-size="20.0" fill="#000000" transform="matrix(1.00, 0.00, -0.00, -1.00, 407.6, 108.0)"> </text><text xml:space="preserve" font-family="FiraCode-Regular" font-size="20.0" fill="#000000" transform="matrix(1.00, 0.00, -0.00, -1.00, 5.0, 84.0)"> </text><text xml:space="preserve" font-family="FiraCode-Regular" font-size="20.0" fill="#000000" transform="matrix(1.00, 0.00, -0.00, -1.00, 17.2, 84.0)"> </text><text xml:space="preserve" font-family="FiraCode-Regular" font-size="20.0" fill="#000000" transform="matrix(1.00, 0.00, -0.00, -1.00, 29.4, 84.0)">m</text><text xml:space="preserve" font-family="FiraCode-Regular" font-size="20.0" fill="#000000" transform="matrix(1.00, 0.00, -0.00, -1.00, 41.6, 84.0)">o</text><text xml:space="preserve" font-family="FiraCode-Regular" font-size="20.0" fill="#000000" transform="matrix(1.00, 0.00, -0.00, -1.00, 53.8, 84.0)">d</text><text xml:space="preserve" font-family="FiraCode-Regular" font-size="20.0" fill="#000000" transform="matrix(1.00, 0.00, -0.00, -1.00, 66.0, 84.0)">u</text><text xml:space="preserve" font-family="FiraCode-Regular" font-size="20.0" fill="#000000" transform="matrix(1.00, 0.00, -0.00, -1.00, 78.2, 84.0)">l</text><text xml:space="preserve" font-family="FiraCode-Regular" font-size="20.0" fill="#000000" transform="matrix(1.00, 0.00, -0.00, -1.00, 90.4, 84.0)">e</text><text xml:space="preserve" font-family="FiraCode-Regular" font-size="20.0" fill="#000000" transform="matrix(1.00, 0.00, -0.00, -1.00, 102.6, 84.0)">.</text><text xml:space="preserve" font-family="FiraCode-Regular" font-size="20.0" fill="#000000" transform="matrix(1.00, 0.00, -0.00, -1.00, 114.8, 84.0)">e</text><text xml:space="preserve" font-family="FiraCode-Regular" font-size="20.0" fill="#000000" transform="matrix(1.00, 0.00, -0.00, -1.00, 127.0, 84.0)">x</text><text xml:space="preserve" font-family="FiraCode-Regular" font-size="20.0" fill="#000000" transform="matrix(1.00, 0.00, -0.00, -1.00, 139.2, 84.0)">p</text><text xml:space="preserve" font-family="FiraCode-Regular" font-size="20.0" fill="#000000" transform="matrix(1.00, 0.00, -0.00, -1.00, 151.4, 84.0)">o</text><text xml:space="preserve" font-family="FiraCode-Regular" font-size="20.0" fill="#000000" transform="matrix(1.00, 0.00, -0.00, -1.00, 163.6, 84.0)">r</text><text xml:space="preserve" font-family="FiraCode-Regular" font-size="20.0" fill="#000000" transform="matrix(1.00, 0.00, -0.00, -1.00, 175.8, 84.0)">t</text><text xml:space="preserve" font-family="FiraCode-Regular" font-size="20.0" fill="#000000" transform="matrix(1.00, 0.00, -0.00, -1.00, 188.0, 84.0)">s</text><text xml:space="preserve" font-family="FiraCode-Regular" font-size="20.0" fill="#000000" transform="matrix(1.00, 0.00, -0.00, -1.00, 200.2, 84.0)"> </text><text xml:space="preserve" font-family="FiraCode-Regular" font-size="20.0" fill="#000000" transform="matrix(1.00, 0.00, -0.00, -1.00, 212.4, 84.0)">=</text><text xml:space="preserve" font-family="FiraCode-Regular" font-size="20.0" fill="#000000" transform="matrix(1.00, 0.00, -0.00, -1.00, 224.6, 84.0)"> </text><text xml:space="preserve" font-family="FiraCode-Regular" font-size="20.0" fill="#000000" transform="matrix(1.00, 0.00, -0.00, -1.00, 236.8, 84.0)">f</text><text xml:space="preserve" font-family="FiraCode-Regular" font-size="20.0" fill="#000000" transform="matrix(1.00, 0.00, -0.00, -1.00, 249.0, 84.0)">u</text><text xml:space="preserve" font-family="FiraCode-Regular" font-size="20.0" fill="#000000" transform="matrix(1.00, 0.00, -0.00, -1.00, 261.2, 84.0)">n</text><text xml:space="preserve" font-family="FiraCode-Regular" font-size="20.0" fill="#000000" transform="matrix(1.00, 0.00, -0.00, -1.00, 273.4, 84.0)">c</text><text xml:space="preserve" font-family="FiraCode-Regular" font-size="20.0" fill="#000000" transform="matrix(1.00, 0.00, -0.00, -1.00, 285.6, 84.0)">t</text><text xml:space="preserve" font-family="FiraCode-Regular" font-size="20.0" fill="#000000" transform="matrix(1.00, 0.00, -0.00, -1.00, 297.8, 84.0)">i</text><text xml:space="preserve" font-family="FiraCode-Regular" font-size="20.0" fill="#000000" transform="matrix(1.00, 0.00, -0.00, -1.00, 310.0, 84.0)">o</text><text xml:space="preserve" font-family="FiraCode-Regular" font-size="20.0" fill="#000000" transform="matrix(1.00, 0.00, -0.00, -1.00, 322.2, 84.0)">n</text><text xml:space="preserve" font-family="FiraCode-Regular" font-size="20.0" fill="#000000" transform="matrix(1.00, 0.00, -0.00, -1.00, 334.4, 84.0)"> </text><text xml:space="preserve" font-family="FiraCode-Regular" font-size="20.0" fill="#000000" transform="matrix(1.00, 0.00, -0.00, -1.00, 346.6, 84.0)">(</text><text xml:space="preserve" font-family="FiraCode-Regular" font-size="20.0" fill="#000000" transform="matrix(1.00, 0.00, -0.00, -1.00, 358.8, 84.0)">a</text><text xml:space="preserve" font-family="FiraCode-Regular" font-size="20.0" fill="#000000" transform="matrix(1.00, 0.00, -0.00, -1.00, 371.0, 84.0)">,</text><text xml:space="preserve" font-family="FiraCode-Regular" font-size="20.0" fill="#000000" transform="matrix(1.00, 0.00, -0.00, -1.00, 383.2, 84.0)"> </text><text xml:space="preserve" font-family="FiraCode-Regular" font-size="20.0" fill="#000000" transform="matrix(1.00, 0.00, -0.00, -1.00, 395.4, 84.0)">b</text><text xml:space="preserve" font-family="FiraCode-Regular" font-size="20.0" fill="#000000" transform="matrix(1.00, 0.00, -0.00, -1.00, 407.6, 84.0)">)</text><text xml:space="preserve" font-family="FiraCode-Regular" font-size="20.0" fill="#000000" transform="matrix(1.00, 0.00, -0.00, -1.00, 419.8, 84.0)"> </text><text xml:space="preserve" font-family="FiraCode-Regular" font-size="20.0" fill="#000000" transform="matrix(1.00, 0.00, -0.00, -1.00, 432.0, 84.0)">{</text><text xml:space="preserve" font-family="FiraCode-Regular" font-size="20.0" fill="#000000" transform="matrix(1.00, 0.00, -0.00, -1.00, 444.2, 84.0)"> </text><text xml:space="preserve" font-family="FiraCode-Regular" font-size="20.0" fill="#000000" transform="matrix(1.00, 0.00, -0.00, -1.00, 5.0, 60.0)"> </text><text xml:space="preserve" font-family="FiraCode-Regular" font-size="20.0" fill="#000000" transform="matrix(1.00, 0.00, -0.00, -1.00, 17.2, 60.0)"> </text><text xml:space="preserve" font-family="FiraCode-Regular" font-size="20.0" fill="#000000" transform="matrix(1.00, 0.00, -0.00, -1.00, 29.4, 60.0)"> </text><text xml:space="preserve" font-family="FiraCode-Regular" font-size="20.0" fill="#000000" transform="matrix(1.00, 0.00, -0.00, -1.00, 41.6, 60.0)"> </text><text xml:space="preserve" font-family="FiraCode-Regular" font-size="20.0" fill="#000000" transform="matrix(1.00, 0.00, -0.00, -1.00, 53.8, 60.0)">r</text><text xml:space="preserve" font-family="FiraCode-Regular" font-size="20.0" fill="#000000" transform="matrix(1.00, 0.00, -0.00, -1.00, 66.0, 60.0)">e</text><text xml:space="preserve" font-family="FiraCode-Regular" font-size="20.0" fill="#000000" transform="matrix(1.00, 0.00, -0.00, -1.00, 78.2, 60.0)">t</text><text xml:space="preserve" font-family="FiraCode-Regular" font-size="20.0" fill="#000000" transform="matrix(1.00, 0.00, -0.00, -1.00, 90.4, 60.0)">u</text><text xml:space="preserve" font-family="FiraCode-Regular" font-size="20.0" fill="#000000" transform="matrix(1.00, 0.00, -0.00, -1.00, 102.6, 60.0)">r</text><text xml:space="preserve" font-family="FiraCode-Regular" font-size="20.0" fill="#000000" transform="matrix(1.00, 0.00, -0.00, -1.00, 114.8, 60.0)">n</text><text xml:space="preserve" font-family="FiraCode-Regular" font-size="20.0" fill="#000000" transform="matrix(1.00, 0.00, -0.00, -1.00, 127.0, 60.0)"> </text><text xml:space="preserve" font-family="FiraCode-Regular" font-size="20.0" fill="#000000" transform="matrix(1.00, 0.00, -0.00, -1.00, 139.2, 60.0)">s</text><text xml:space="preserve" font-family="FiraCode-Regular" font-size="20.0" fill="#000000" transform="matrix(1.00, 0.00, -0.00, -1.00, 151.4, 60.0)">q</text><text xml:space="preserve" font-family="FiraCode-Regular" font-size="20.0" fill="#000000" transform="matrix(1.00, 0.00, -0.00, -1.00, 163.6, 60.0)">u</text><text xml:space="preserve" font-family="FiraCode-Regular" font-size="20.0" fill="#000000" transform="matrix(1.00, 0.00, -0.00, -1.00, 175.8, 60.0)">a</text><text xml:space="preserve" font-family="FiraCode-Regular" font-size="20.0" fill="#000000" transform="matrix(1.00, 0.00, -0.00, -1.00, 188.0, 60.0)">r</text><text xml:space="preserve" font-family="FiraCode-Regular" font-size="20.0" fill="#000000" transform="matrix(1.00, 0.00, -0.00, -1.00, 200.2, 60.0)">e</text><text xml:space="preserve" font-family="FiraCode-Regular" font-size="20.0" fill="#000000" transform="matrix(1.00, 0.00, -0.00, -1.00, 212.4, 60.0)">(</text><text xml:space="preserve" font-family="FiraCode-Regular" font-size="20.0" fill="#000000" transform="matrix(1.00, 0.00, -0.00, -1.00, 224.6, 60.0)">a</text><text xml:space="preserve" font-family="FiraCode-Regular" font-size="20.0" fill="#000000" transform="matrix(1.00, 0.00, -0.00, -1.00, 236.8, 60.0)">)</text><text xml:space="preserve" font-family="FiraCode-Regular" font-size="20.0" fill="#000000" transform="matrix(1.00, 0.00, -0.00, -1.00, 249.0, 60.0)"> </text><text xml:space="preserve" font-family="FiraCode-Regular" font-size="20.0" fill="#000000" transform="matrix(1.00, 0.00, -0.00, -1.00, 261.2, 60.0)">+</text><text xml:space="preserve" font-family="FiraCode-Regular" font-size="20.0" fill="#000000" transform="matrix(1.00, 0.00, -0.00, -1.00, 273.4, 60.0)"> </text><text xml:space="preserve" font-family="FiraCode-Regular" font-size="20.0" fill="#000000" transform="matrix(1.00, 0.00, -0.00, -1.00, 285.6, 60.0)">s</text><text xml:space="preserve" font-family="FiraCode-Regular" font-size="20.0" fill="#000000" transform="matrix(1.00, 0.00, -0.00, -1.00, 297.8, 60.0)">q</text><text xml:space="preserve" font-family="FiraCode-Regular" font-size="20.0" fill="#000000" transform="matrix(1.00, 0.00, -0.00, -1.00, 310.0, 60.0)">u</text><text xml:space="preserve" font-family="FiraCode-Regular" font-size="20.0" fill="#000000" transform="matrix(1.00, 0.00, -0.00, -1.00, 322.2, 60.0)">a</text><text xml:space="preserve" font-family="FiraCode-Regular" font-size="20.0" fill="#000000" transform="matrix(1.00, 0.00, -0.00, -1.00, 334.4, 60.0)">r</text><text xml:space="preserve" font-family="FiraCode-Regular" font-size="20.0" fill="#000000" transform="matrix(1.00, 0.00, -0.00, -1.00, 346.6, 60.0)">e</text><text xml:space="preserve" font-family="FiraCode-Regular" font-size="20.0" fill="#000000" transform="matrix(1.00, 0.00, -0.00, -1.00, 358.8, 60.0)">(</text><text xml:space="preserve" font-family="FiraCode-Regular" font-size="20.0" fill="#000000" transform="matrix(1.00, 0.00, -0.00, -1.00, 371.0, 60.0)">b</text><text xml:space="preserve" font-family="FiraCode-Regular" font-size="20.0" fill="#000000" transform="matrix(1.00, 0.00, -0.00, -1.00, 383.2, 60.0)">)</text><text xml:space="preserve" font-family="FiraCode-Regular" font-size="20.0" fill="#000000" transform="matrix(1.00, 0.00, -0.00, -1.00, 395.4, 60.0)">;</text><text xml:space="preserve" font-family="FiraCode-Regular" font-size="20.0" fill="#000000" transform="matrix(1.00, 0.00, -0.00, -1.00, 407.6, 60.0)"> </text><text xml:space="preserve" font-family="FiraCode-Regular" font-size="20.0" fill="#000000" transform="matrix(1.00, 0.00, -0.00, -1.00, 5.0, 36.0)"> </text><text xml:space="preserve" font-family="FiraCode-Regular" font-size="20.0" fill="#000000" transform="matrix(1.00, 0.00, -0.00, -1.00, 17.2, 36.0)"> </text><text xml:space="preserve" font-family="FiraCode-Regular" font-size="20.0" fill="#000000" transform="matrix(1.00, 0.00, -0.00, -1.00, 29.4, 36.0)">}</text><text xml:space="preserve" font-family="FiraCode-Regular" font-size="20.0" fill="#000000" transform="matrix(1.00, 0.00, -0.00, -1.00, 41.6, 36.0)">;</text><text xml:space="preserve" font-family="FiraCode-Regular" font-size="20.0" fill="#000000" transform="matrix(1.00, 0.00, -0.00, -1.00, 53.8, 36.0)"> </text><text xml:space="preserve" font-family="FiraCode-Regular" font-size="20.0" fill="#000000" transform="matrix(1.00, 0.00, -0.00, -1.00, 5.0, 12.0)">}</text></g></g></g></svg>