<?xml version="1.0" encoding="UTF-8" standalone="no"?><svg xmlns="http://www.w3.org/2000/svg" xmlns:xlink="http://www.w3.org/1999/xlink" clip-rule="evenodd" stroke-miterlimit="4.00" viewBox="0 0 427 106"><desc>SVG generated by Keynote</desc><defs></defs><g transform="matrix(1.00, 0.00, -0.00, -1.00, 0.0, 106.0)"><text xml:space="preserve" font-family="LucidaGrande" font-size="18.8" fill="#CACACA" transform="matrix(1.00, 0.00, -0.00, -1.00, 0.3, 85.2)">‣</text><text xml:space="preserve" font-family="AvenirNext-Regular" font-size="25.0" fill="#FFFFFF" transform="matrix(1.00, 0.00, -0.00, -1.00, 37.0, 84.0)">W</text><text xml:space="preserve" font-family="AvenirNext-Regular" font-size="25.0" fill="#FFFFFF" transform="matrix(1.00, 0.00, -0.00, -1.00, 60.4, 84.0)">e</text><text xml:space="preserve" font-family="AvenirNext-Regular" font-size="25.0" fill="#FFFFFF" transform="matrix(1.00, 0.00, -0.00, -1.00, 74.7, 84.0)">b</text><text xml:space="preserve" font-family="AvenirNext-Regular" font-size="25.0" fill="#FFFFFF" transform="matrix(1.00, 0.00, -0.00, -1.00, 90.6, 84.0)">p</text><text xml:space="preserve" font-family="AvenirNext-Regular" font-size="25.0" fill="#FFFFFF" transform="matrix(1.00, 0.00, -0.00, -1.00, 106.5, 84.0)">a</text><text xml:space="preserve" font-family="AvenirNext-Regular" font-size="25.0" fill="#FFFFFF" transform="matrix(1.00, 0.00, -0.00, -1.00, 119.8, 84.0)">c</text><text xml:space="preserve" font-family="AvenirNext-Regular" font-size="25.0" fill="#FFFFFF" transform="matrix(1.00, 0.00, -0.00, -1.00, 132.3, 84.0)">k</text><text xml:space="preserve" font-family="AvenirNext-Regular" font-size="25.0" fill="#FFFFFF" transform="matrix(1.00, 0.00, -0.00, -1.00, 145.1, 84.0)"> </text><text xml:space="preserve" font-family="AvenirNext-Regular" font-size="25.0" fill="#FFFFFF" transform="matrix(1.00, 0.00, -0.00, -1.00, 151.3, 84.0)">r</text><text xml:space="preserve" font-family="AvenirNext-Regular" font-size="25.0" fill="#FFFFFF" transform="matrix(1.00, 0.00, -0.00, -1.00, 159.9, 84.0)">e</text><text xml:space="preserve" font-family="AvenirNext-Regular" font-size="25.0" fill="#FFFFFF" transform="matrix(1.00, 0.00, -0.00, -1.00, 174.2, 84.0)">p</text><text xml:space="preserve" font-family="AvenirNext-Regular" font-size="25.0" fill="#FFFFFF" transform="matrix(1.00, 0.00, -0.00, -1.00, 190.1, 84.0)">l</text><text xml:space="preserve" font-family="AvenirNext-Regular" font-size="25.0" fill="#FFFFFF" transform="matrix(1.00, 0.00, -0.00, -1.00, 196.4, 84.0)">a</text><text xml:space="preserve" font-family="AvenirNext-Regular" font-size="25.0" fill="#FFFFFF" transform="matrix(1.00, 0.00, -0.00, -1.00, 209.7, 84.0)">c</text><text xml:space="preserve" font-family="AvenirNext-Regular" font-size="25.0" fill="#FFFFFF" transform="matrix(1.00, 0.00, -0.00, -1.00, 222.2, 84.0)">e</text><text xml:space="preserve" font-family="AvenirNext-Regular" font-size="25.0" fill="#FFFFFF" transform="matrix(1.00, 0.00, -0.00, -1.00, 236.5, 84.0)">s</text><text xml:space="preserve" font-family="AvenirNext-Regular" font-size="25.0" fill="#FFFFFF" transform="matrix(1.00, 0.00, -0.00, -1.00, 247.6, 84.0)"> </text><text xml:space="preserve" font-family="AvenirNext-Regular" font-size="25.0" fill="#FFFFFF" transform="matrix(1.00, 0.00, -0.00, -1.00, 253.9, 84.0)">a</text><text xml:space="preserve" font-family="AvenirNext-Regular" font-size="25.0" fill="#FFFFFF" transform="matrix(1.00, 0.00, -0.00, -1.00, 267.2, 84.0)">l</text><text xml:space="preserve" font-family="AvenirNext-Regular" font-size="25.0" fill="#FFFFFF" transform="matrix(1.00, 0.00, -0.00, -1.00, 273.5, 84.0)">l</text><text xml:space="preserve" font-family="AvenirNext-Regular" font-size="25.0" fill="#FFFFFF" transform="matrix(1.00, 0.00, -0.00, -1.00, 279.8, 84.0)"> </text><text xml:space="preserve" font-family="AvenirNext-Regular" font-size="25.0" fill="#FFFFFF" transform="matrix(1.00, 0.00, -0.00, -1.00, 286.1, 84.0)">i</text><text xml:space="preserve" font-family="AvenirNext-Regular" font-size="25.0" fill="#FFFFFF" transform="matrix(1.00, 0.00, -0.00, -1.00, 292.3, 84.0)">n</text><text xml:space="preserve" font-family="AvenirNext-Regular" font-size="25.0" fill="#FFFFFF" transform="matrix(1.00, 0.00, -0.00, -1.00, 306.9, 84.0)">s</text><text xml:space="preserve" font-family="AvenirNext-Regular" font-size="25.0" fill="#FFFFFF" transform="matrix(1.00, 0.00, -0.00, -1.00, 318.0, 84.0)">t</text><text xml:space="preserve" font-family="AvenirNext-Regular" font-size="25.0" fill="#FFFFFF" transform="matrix(1.00, 0.00, -0.00, -1.00, 325.9, 84.0)">a</text><text xml:space="preserve" font-family="AvenirNext-Regular" font-size="25.0" fill="#FFFFFF" transform="matrix(1.00, 0.00, -0.00, -1.00, 339.2, 84.0)">n</text><text xml:space="preserve" font-family="AvenirNext-Regular" font-size="25.0" fill="#FFFFFF" transform="matrix(1.00, 0.00, -0.00, -1.00, 353.8, 84.0)">c</text><text xml:space="preserve" font-family="AvenirNext-Regular" font-size="25.0" fill="#FFFFFF" transform="matrix(1.00, 0.00, -0.00, -1.00, 366.3, 84.0)">e</text><text xml:space="preserve" font-family="AvenirNext-Regular" font-size="25.0" fill="#FFFFFF" transform="matrix(1.00, 0.00, -0.00, -1.00, 380.6, 84.0)">s</text><text xml:space="preserve" font-family="AvenirNext-Regular" font-size="25.0" fill="#FFFFFF" transform="matrix(1.00, 0.00, -0.00, -1.00, 391.7, 84.0)"> </text><text xml:space="preserve" font-family="AvenirNext-Regular" font-size="25.0" fill="#FFFFFF" transform="matrix(1.00, 0.00, -0.00, -1.00, 397.9, 84.0)">o</text><text xml:space="preserve" font-family="AvenirNext-Regular" font-size="25.0" fill="#FFFFFF" transform="matrix(1.00, 0.00, -0.00, -1.00, 413.2, 84.0)">f</text><text xml:space="preserve" font-family="AvenirNext-Regular" font-size="25.0" fill="#FFFFFF" transform="matrix(1.00, 0.00, -0.00, -1.00, 421.2, 84.0)"> </text><text xml:space="preserve" font-family="FiraCode-Bold" font-weight="bold" font-size="25.0" fill="#DE7D67" transform="matrix(1.00, 0.00, -0.00, -1.00, 37.0, 46.0)">r</text><text xml:space="preserve" font-family="FiraCode-Bold" font-weight="bold" font-size="25.0" fill="#DE7D67" transform="matrix(1.00, 0.00, -0.00, -1.00, 52.0, 46.0)">e</text><text xml:space="preserve" font-family="FiraCode-Bold" font-weight="bold" font-size="25.0" fill="#DE7D67" transform="matrix(1.00, 0.00, -0.00, -1.00, 67.0, 46.0)">q</text><text xml:space="preserve" font-family="FiraCode-Bold" font-weight="bold" font-size="25.0" fill="#DE7D67" transform="matrix(1.00, 0.00, -0.00, -1.00, 82.0, 46.0)">u</text><text xml:space="preserve" font-family="FiraCode-Bold" font-weight="bold" font-size="25.0" fill="#DE7D67" transform="matrix(1.00, 0.00, -0.00, -1.00, 97.0, 46.0)">i</text><text xml:space="preserve" font-family="FiraCode-Bold" font-weight="bold" font-size="25.0" fill="#DE7D67" transform="matrix(1.00, 0.00, -0.00, -1.00, 112.0, 46.0)">r</text><text xml:space="preserve" font-family="FiraCode-Bold" font-weight="bold" font-size="25.0" fill="#DE7D67" transform="matrix(1.00, 0.00, -0.00, -1.00, 127.0, 46.0)">e</text><text xml:space="preserve" font-family="FiraCode-Bold" font-weight="bold" font-size="25.0" fill="#DE7D67" transform="matrix(1.00, 0.00, -0.00, -1.00, 142.0, 46.0)">(</text><text xml:space="preserve" font-family="FiraCode-Bold" font-weight="bold" font-size="25.0" fill="#DE7D67" transform="matrix(1.00, 0.00, -0.00, -1.00, 157.0, 46.0)">‘</text><text xml:space="preserve" font-family="FiraCode-Bold" font-weight="bold" font-size="25.0" fill="#DE7D67" transform="matrix(1.00, 0.00, -0.00, -1.00, 172.0, 46.0)">f</text><text xml:space="preserve" font-family="FiraCode-Bold" font-weight="bold" font-size="25.0" fill="#DE7D67" transform="matrix(1.00, 0.00, -0.00, -1.00, 187.0, 46.0)">o</text><text xml:space="preserve" font-family="FiraCode-Bold" font-weight="bold" font-size="25.0" fill="#DE7D67" transform="matrix(1.00, 0.00, -0.00, -1.00, 202.0, 46.0)">o</text><text xml:space="preserve" font-family="FiraCode-Bold" font-weight="bold" font-size="25.0" fill="#DE7D67" transform="matrix(1.00, 0.00, -0.00, -1.00, 217.0, 46.0)">’</text><text xml:space="preserve" font-family="FiraCode-Bold" font-weight="bold" font-size="25.0" fill="#DE7D67" transform="matrix(1.00, 0.00, -0.00, -1.00, 232.0, 46.0)">)</text><text xml:space="preserve" font-family="AvenirNext-Regular" font-size="25.0" fill="#FFFFFF" transform="matrix(1.00, 0.00, -0.00, -1.00, 247.0, 46.0)"> </text><text xml:space="preserve" font-family="AvenirNext-Regular" font-size="25.0" fill="#FFFFFF" transform="matrix(1.00, 0.00, -0.00, -1.00, 253.2, 46.0)">w</text><text xml:space="preserve" font-family="AvenirNext-Regular" font-size="25.0" fill="#FFFFFF" transform="matrix(1.00, 0.00, -0.00, -1.00, 271.9, 46.0)">i</text><text xml:space="preserve" font-family="AvenirNext-Regular" font-size="25.0" fill="#FFFFFF" transform="matrix(1.00, 0.00, -0.00, -1.00, 278.1, 46.0)">t</text><text xml:space="preserve" font-family="AvenirNext-Regular" font-size="25.0" fill="#FFFFFF" transform="matrix(1.00, 0.00, -0.00, -1.00, 286.1, 46.0)">h</text><text xml:space="preserve" font-family="AvenirNext-Regular" font-size="25.0" fill="#FFFFFF" transform="matrix(1.00, 0.00, -0.00, -1.00, 300.7, 46.0)"> </text><text xml:space="preserve" font-family="FiraCode-Bold" font-weight="bold" font-size="25.0" fill="#DE7D67" transform="matrix(1.00, 0.00, -0.00, -1.00, 37.0, 7.0)">w</text><text xml:space="preserve" font-family="FiraCode-Bold" font-weight="bold" font-size="25.0" fill="#DE7D67" transform="matrix(1.00, 0.00, -0.00, -1.00, 52.0, 7.0)">e</text><text xml:space="preserve" font-family="FiraCode-Bold" font-weight="bold" font-size="25.0" fill="#DE7D67" transform="matrix(1.00, 0.00, -0.00, -1.00, 67.0, 7.0)">b</text><text xml:space="preserve" font-family="FiraCode-Bold" font-weight="bold" font-size="25.0" fill="#DE7D67" transform="matrix(1.00, 0.00, -0.00, -1.00, 82.0, 7.0)">p</text><text xml:space="preserve" font-family="FiraCode-Bold" font-weight="bold" font-size="25.0" fill="#DE7D67" transform="matrix(1.00, 0.00, -0.00, -1.00, 97.0, 7.0)">a</text><text xml:space="preserve" font-family="FiraCode-Bold" font-weight="bold" font-size="25.0" fill="#DE7D67" transform="matrix(1.00, 0.00, -0.00, -1.00, 112.0, 7.0)">c</text><text xml:space="preserve" font-family="FiraCode-Bold" font-weight="bold" font-size="25.0" fill="#DE7D67" transform="matrix(1.00, 0.00, -0.00, -1.00, 127.0, 7.0)">k</text><text xml:space="preserve" font-family="FiraCode-Bold" font-weight="bold" font-size="25.0" fill="#DE7D67" transform="matrix(1.00, 0.00, -0.00, -1.00, 142.0, 7.0)">R</text><text xml:space="preserve" font-family="FiraCode-Bold" font-weight="bold" font-size="25.0" fill="#DE7D67" transform="matrix(1.00, 0.00, -0.00, -1.00, 157.0, 7.0)">e</text><text xml:space="preserve" font-family="FiraCode-Bold" font-weight="bold" font-size="25.0" fill="#DE7D67" transform="matrix(1.00, 0.00, -0.00, -1.00, 172.0, 7.0)">q</text><text xml:space="preserve" font-family="FiraCode-Bold" font-weight="bold" font-size="25.0" fill="#DE7D67" transform="matrix(1.00, 0.00, -0.00, -1.00, 187.0, 7.0)">u</text><text xml:space="preserve" font-family="FiraCode-Bold" font-weight="bold" font-size="25.0" fill="#DE7D67" transform="matrix(1.00, 0.00, -0.00, -1.00, 202.0, 7.0)">i</text><text xml:space="preserve" font-family="FiraCode-Bold" font-weight="bold" font-size="25.0" fill="#DE7D67" transform="matrix(1.00, 0.00, -0.00, -1.00, 217.0, 7.0)">r</text><text xml:space="preserve" font-family="FiraCode-Bold" font-weight="bold" font-size="25.0" fill="#DE7D67" transform="matrix(1.00, 0.00, -0.00, -1.00, 232.0, 7.0)">e</text><text xml:space="preserve" font-family="FiraCode-Bold" font-weight="bold" font-size="25.0" fill="#DE7D67" transform="matrix(1.00, 0.00, -0.00, -1.00, 247.0, 7.0)">(</text><text xml:space="preserve" font-family="FiraCode-Bold" font-weight="bold" font-size="25.0" fill="#DE7D67" transform="matrix(1.00, 0.00, -0.00, -1.00, 262.0, 7.0)">I</text><text xml:space="preserve" font-family="FiraCode-Bold" font-weight="bold" font-size="25.0" fill="#DE7D67" transform="matrix(1.00, 0.00, -0.00, -1.00, 277.0, 7.0)">n</text><text xml:space="preserve" font-family="FiraCode-Bold" font-weight="bold" font-size="25.0" fill="#DE7D67" transform="matrix(1.00, 0.00, -0.00, -1.00, 292.0, 7.0)">d</text><text xml:space="preserve" font-family="FiraCode-Bold" font-weight="bold" font-size="25.0" fill="#DE7D67" transform="matrix(1.00, 0.00, -0.00, -1.00, 307.0, 7.0)">e</text><text xml:space="preserve" font-family="FiraCode-Bold" font-weight="bold" font-size="25.0" fill="#DE7D67" transform="matrix(1.00, 0.00, -0.00, -1.00, 322.0, 7.0)">x</text><text xml:space="preserve" font-family="FiraCode-Bold" font-weight="bold" font-size="25.0" fill="#DE7D67" transform="matrix(1.00, 0.00, -0.00, -1.00, 337.0, 7.0)">O</text><text xml:space="preserve" font-family="FiraCode-Bold" font-weight="bold" font-size="25.0" fill="#DE7D67" transform="matrix(1.00, 0.00, -0.00, -1.00, 352.0, 7.0)">f</text><text xml:space="preserve" font-family="FiraCode-Bold" font-weight="bold" font-size="25.0" fill="#DE7D67" transform="matrix(1.00, 0.00, -0.00, -1.00, 367.0, 7.0)">F</text><text xml:space="preserve" font-family="FiraCode-Bold" font-weight="bold" font-size="25.0" fill="#DE7D67" transform="matrix(1.00, 0.00, -0.00, -1.00, 382.0, 7.0)">o</text><text xml:space="preserve" font-family="FiraCode-Bold" font-weight="bold" font-size="25.0" fill="#DE7D67" transform="matrix(1.00, 0.00, -0.00, -1.00, 397.0, 7.0)">o</text><text xml:space="preserve" font-family="FiraCode-Bold" font-weight="bold" font-size="25.0" fill="#DE7D67" transform="matrix(1.00, 0.00, -0.00, -1.00, 412.0, 7.0)">)</text></g></svg>