<?xml version="1.0" encoding="UTF-8" standalone="no"?><svg xmlns="http://www.w3.org/2000/svg" xmlns:xlink="http://www.w3.org/1999/xlink" clip-rule="evenodd" stroke-miterlimit="4.00" viewBox="0 0 465 71"><desc>SVG generated by Keynote</desc><defs></defs><g transform="matrix(1.00, 0.00, -0.00, -1.00, 0.0, 71.0)"><path d="M 1.1 69.3 L 463.0 69.3 L 463.0 1.8 L 1.1 1.8 Z M 1.1 69.3 " fill="#00A100"></path><g><clipPath id="clip-1163"><path d="M -0.9 1.8 L 465.0 1.8 L 465.0 69.3 L -0.9 69.3 Z M -0.9 1.8 "></path></clipPath><g clip-path="url(#clip-1163)"><text xml:space="preserve" font-family="FiraCode-Bold" font-weight="bold" font-size="20.0" fill="#CACACA" transform="matrix(1.00, 0.00, -0.00, -1.00, 17.2, 39.0)">/</text><text xml:space="preserve" font-family="FiraCode-Bold" font-weight="bold" font-size="20.0" fill="#CACACA" transform="matrix(1.00, 0.00, -0.00, -1.00, 29.4, 39.0)">/</text><text xml:space="preserve" font-family="FiraCode-Bold" font-weight="bold" font-size="20.0" fill="#CACACA" transform="matrix(1.00, 0.00, -0.00, -1.00, 41.6, 39.0)"> </text><text xml:space="preserve" font-family="FiraCode-Bold" font-weight="bold" font-size="20.0" fill="#CACACA" transform="matrix(1.00, 0.00, -0.00, -1.00, 53.8, 39.0)">s</text><text xml:space="preserve" font-family="FiraCode-Bold" font-weight="bold" font-size="20.0" fill="#CACACA" transform="matrix(1.00, 0.00, -0.00, -1.00, 66.0, 39.0)">q</text><text xml:space="preserve" font-family="FiraCode-Bold" font-weight="bold" font-size="20.0" fill="#CACACA" transform="matrix(1.00, 0.00, -0.00, -1.00, 78.2, 39.0)">u</text><text xml:space="preserve" font-family="FiraCode-Bold" font-weight="bold" font-size="20.0" fill="#CACACA" transform="matrix(1.00, 0.00, -0.00, -1.00, 90.4, 39.0)">a</text><text xml:space="preserve" font-family="FiraCode-Bold" font-weight="bold" font-size="20.0" fill="#CACACA" transform="matrix(1.00, 0.00, -0.00, -1.00, 102.6, 39.0)">r</text><text xml:space="preserve" font-family="FiraCode-Bold" font-weight="bold" font-size="20.0" fill="#CACACA" transform="matrix(1.00, 0.00, -0.00, -1.00, 114.8, 39.0)">e</text><text xml:space="preserve" font-family="FiraCode-Bold" font-weight="bold" font-size="20.0" fill="#CACACA" transform="matrix(1.00, 0.00, -0.00, -1.00, 127.0, 39.0)">.</text><text xml:space="preserve" font-family="FiraCode-Bold" font-weight="bold" font-size="20.0" fill="#CACACA" transform="matrix(1.00, 0.00, -0.00, -1.00, 139.2, 39.0)">j</text><text xml:space="preserve" font-family="FiraCode-Bold" font-weight="bold" font-size="20.0" fill="#CACACA" transform="matrix(1.00, 0.00, -0.00, -1.00, 151.4, 39.0)">s</text><text xml:space="preserve" font-family="FiraCode-Bold" font-weight="bold" font-size="20.0" fill="#CACACA" transform="matrix(1.00, 0.00, -0.00, -1.00, 163.6, 39.0)"> </text><text xml:space="preserve" font-family="FiraCode-Regular" font-size="20.0" fill="#FFFFFF" transform="matrix(1.00, 0.00, -0.00, -1.00, 5.0, 15.0)">m</text><text xml:space="preserve" font-family="FiraCode-Regular" font-size="20.0" fill="#FFFFFF" transform="matrix(1.00, 0.00, -0.00, -1.00, 17.2, 15.0)">o</text><text xml:space="preserve" font-family="FiraCode-Regular" font-size="20.0" fill="#FFFFFF" transform="matrix(1.00, 0.00, -0.00, -1.00, 29.4, 15.0)">d</text><text xml:space="preserve" font-family="FiraCode-Regular" font-size="20.0" fill="#FFFFFF" transform="matrix(1.00, 0.00, -0.00, -1.00, 41.6, 15.0)">u</text><text xml:space="preserve" font-family="FiraCode-Regular" font-size="20.0" fill="#FFFFFF" transform="matrix(1.00, 0.00, -0.00, -1.00, 53.8, 15.0)">l</text><text xml:space="preserve" font-family="FiraCode-Regular" font-size="20.0" fill="#FFFFFF" transform="matrix(1.00, 0.00, -0.00, -1.00, 66.0, 15.0)">e</text><text xml:space="preserve" font-family="FiraCode-Regular" font-size="20.0" fill="#FFFFFF" transform="matrix(1.00, 0.00, -0.00, -1.00, 78.2, 15.0)">.</text><text xml:space="preserve" font-family="FiraCode-Regular" font-size="20.0" fill="#FFFFFF" transform="matrix(1.00, 0.00, -0.00, -1.00, 90.4, 15.0)">e</text><text xml:space="preserve" font-family="FiraCode-Regular" font-size="20.0" fill="#FFFFFF" transform="matrix(1.00, 0.00, -0.00, -1.00, 102.6, 15.0)">x</text><text xml:space="preserve" font-family="FiraCode-Regular" font-size="20.0" fill="#FFFFFF" transform="matrix(1.00, 0.00, -0.00, -1.00, 114.8, 15.0)">p</text><text xml:space="preserve" font-family="FiraCode-Regular" font-size="20.0" fill="#FFFFFF" transform="matrix(1.00, 0.00, -0.00, -1.00, 127.0, 15.0)">o</text><text xml:space="preserve" font-family="FiraCode-Regular" font-size="20.0" fill="#FFFFFF" transform="matrix(1.00, 0.00, -0.00, -1.00, 139.2, 15.0)">r</text><text xml:space="preserve" font-family="FiraCode-Regular" font-size="20.0" fill="#FFFFFF" transform="matrix(1.00, 0.00, -0.00, -1.00, 151.4, 15.0)">t</text><text xml:space="preserve" font-family="FiraCode-Regular" font-size="20.0" fill="#FFFFFF" transform="matrix(1.00, 0.00, -0.00, -1.00, 163.6, 15.0)">s</text><text xml:space="preserve" font-family="FiraCode-Regular" font-size="20.0" fill="#FFFFFF" transform="matrix(1.00, 0.00, -0.00, -1.00, 175.8, 15.0)"> </text><text xml:space="preserve" font-family="FiraCode-Regular" font-size="20.0" fill="#FFFFFF" transform="matrix(1.00, 0.00, -0.00, -1.00, 188.0, 15.0)">=</text><text xml:space="preserve" font-family="FiraCode-Regular" font-size="20.0" fill="#FFFFFF" transform="matrix(1.00, 0.00, -0.00, -1.00, 200.2, 15.0)"> </text><text xml:space="preserve" font-family="FiraCode-Regular" font-size="20.0" fill="#FFFFFF" transform="matrix(1.00, 0.00, -0.00, -1.00, 212.4, 15.0)">(</text><text xml:space="preserve" font-family="FiraCode-Regular" font-size="20.0" fill="#FFFFFF" transform="matrix(1.00, 0.00, -0.00, -1.00, 224.6, 15.0)">x</text><text xml:space="preserve" font-family="FiraCode-Regular" font-size="20.0" fill="#FFFFFF" transform="matrix(1.00, 0.00, -0.00, -1.00, 236.8, 15.0)">)</text><text xml:space="preserve" font-family="FiraCode-Regular" font-size="20.0" fill="#FFFFFF" transform="matrix(1.00, 0.00, -0.00, -1.00, 249.0, 15.0)"> </text><text xml:space="preserve" font-family="FiraCode-Regular" font-size="20.0" fill="#FFFFFF" transform="matrix(1.00, 0.00, -0.00, -1.00, 273.4, 15.0)">=</text><text xml:space="preserve" font-family="FiraCode-Regular" font-size="20.0" fill="#FFFFFF" transform="matrix(1.00, 0.00, -0.00, -1.00, 285.6, 15.0)">&gt;</text><text xml:space="preserve" font-family="FiraCode-Regular" font-size="20.0" fill="#FFFFFF" transform="matrix(1.00, 0.00, -0.00, -1.00, 297.8, 15.0)"> </text><text xml:space="preserve" font-family="FiraCode-Regular" font-size="20.0" fill="#FFFFFF" transform="matrix(1.00, 0.00, -0.00, -1.00, 310.0, 15.0)">x</text><text xml:space="preserve" font-family="FiraCode-Regular" font-size="20.0" fill="#FFFFFF" transform="matrix(1.00, 0.00, -0.00, -1.00, 322.2, 15.0)"> </text><text xml:space="preserve" font-family="FiraCode-Regular" font-size="20.0" fill="#FFFFFF" transform="matrix(1.00, 0.00, -0.00, -1.00, 334.4, 15.0)">*</text><text xml:space="preserve" font-family="FiraCode-Regular" font-size="20.0" fill="#FFFFFF" transform="matrix(1.00, 0.00, -0.00, -1.00, 346.6, 15.0)"> </text><text xml:space="preserve" font-family="FiraCode-Regular" font-size="20.0" fill="#FFFFFF" transform="matrix(1.00, 0.00, -0.00, -1.00, 358.8, 15.0)">x</text><text xml:space="preserve" font-family="FiraCode-Regular" font-size="20.0" fill="#FFFFFF" transform="matrix(1.00, 0.00, -0.00, -1.00, 371.0, 15.0)">;</text></g></g></g></svg>