<?xml version="1.0" encoding="UTF-8" standalone="no"?><svg xmlns="http://www.w3.org/2000/svg" xmlns:xlink="http://www.w3.org/1999/xlink" clip-rule="evenodd" stroke-miterlimit="4.00" viewBox="0 0 425 29"><desc>SVG generated by Keynote</desc><defs></defs><g transform="matrix(1.00, 0.00, -0.00, -1.00, 0.0, 29.0)"><text xml:space="preserve" font-family="LucidaGrande" font-size="18.8" fill="#CACACA" transform="matrix(1.00, 0.00, -0.00, -1.00, 0.3, 8.0)">‣</text><text xml:space="preserve" font-family="AvenirNext-Regular" font-size="25.0" fill="#FFFFFF" transform="matrix(1.00, 0.00, -0.00, -1.00, 37.0, 7.0)">R</text><text xml:space="preserve" font-family="AvenirNext-Regular" font-size="25.0" fill="#FFFFFF" transform="matrix(1.00, 0.00, -0.00, -1.00, 51.7, 7.0)">e</text><text xml:space="preserve" font-family="AvenirNext-Regular" font-size="25.0" fill="#FFFFFF" transform="matrix(1.00, 0.00, -0.00, -1.00, 66.0, 7.0)">m</text><text xml:space="preserve" font-family="AvenirNext-Regular" font-size="25.0" fill="#FFFFFF" transform="matrix(1.00, 0.00, -0.00, -1.00, 88.1, 7.0)">e</text><text xml:space="preserve" font-family="AvenirNext-Regular" font-size="25.0" fill="#FFFFFF" transform="matrix(1.00, 0.00, -0.00, -1.00, 102.4, 7.0)">m</text><text xml:space="preserve" font-family="AvenirNext-Regular" font-size="25.0" fill="#FFFFFF" transform="matrix(1.00, 0.00, -0.00, -1.00, 124.4, 7.0)">b</text><text xml:space="preserve" font-family="AvenirNext-Regular" font-size="25.0" fill="#FFFFFF" transform="matrix(1.00, 0.00, -0.00, -1.00, 140.4, 7.0)">e</text><text xml:space="preserve" font-family="AvenirNext-Regular" font-size="25.0" fill="#FFFFFF" transform="matrix(1.00, 0.00, -0.00, -1.00, 154.7, 7.0)">r</text><text xml:space="preserve" font-family="AvenirNext-Regular" font-size="25.0" fill="#FFFFFF" transform="matrix(1.00, 0.00, -0.00, -1.00, 163.7, 7.0)"> </text><text xml:space="preserve" font-family="AvenirNext-Regular" font-size="25.0" fill="#FFFFFF" transform="matrix(1.00, 0.00, -0.00, -1.00, 169.9, 7.0)">t</text><text xml:space="preserve" font-family="AvenirNext-Regular" font-size="25.0" fill="#FFFFFF" transform="matrix(1.00, 0.00, -0.00, -1.00, 177.8, 7.0)">h</text><text xml:space="preserve" font-family="AvenirNext-Regular" font-size="25.0" fill="#FFFFFF" transform="matrix(1.00, 0.00, -0.00, -1.00, 192.4, 7.0)">a</text><text xml:space="preserve" font-family="AvenirNext-Regular" font-size="25.0" fill="#FFFFFF" transform="matrix(1.00, 0.00, -0.00, -1.00, 205.5, 7.0)">t</text><text xml:space="preserve" font-family="AvenirNext-Regular" font-size="25.0" fill="#FFFFFF" transform="matrix(1.00, 0.00, -0.00, -1.00, 213.4, 7.0)"> </text><text xml:space="preserve" font-family="AvenirNext-Regular" font-size="25.0" fill="#FFFFFF" transform="matrix(1.00, 0.00, -0.00, -1.00, 219.7, 7.0)">a</text><text xml:space="preserve" font-family="AvenirNext-Regular" font-size="25.0" fill="#FFFFFF" transform="matrix(1.00, 0.00, -0.00, -1.00, 233.0, 7.0)">r</text><text xml:space="preserve" font-family="AvenirNext-Regular" font-size="25.0" fill="#FFFFFF" transform="matrix(1.00, 0.00, -0.00, -1.00, 242.0, 7.0)">r</text><text xml:space="preserve" font-family="AvenirNext-Regular" font-size="25.0" fill="#FFFFFF" transform="matrix(1.00, 0.00, -0.00, -1.00, 250.7, 7.0)">a</text><text xml:space="preserve" font-family="AvenirNext-Regular" font-size="25.0" fill="#FFFFFF" transform="matrix(1.00, 0.00, -0.00, -1.00, 264.1, 7.0)">y</text><text xml:space="preserve" font-family="AvenirNext-Regular" font-size="25.0" fill="#FFFFFF" transform="matrix(1.00, 0.00, -0.00, -1.00, 276.3, 7.0)"> </text><text xml:space="preserve" font-family="AvenirNext-Regular" font-size="25.0" fill="#FFFFFF" transform="matrix(1.00, 0.00, -0.00, -1.00, 282.5, 7.0)">o</text><text xml:space="preserve" font-family="AvenirNext-Regular" font-size="25.0" fill="#FFFFFF" transform="matrix(1.00, 0.00, -0.00, -1.00, 297.8, 7.0)">f</text><text xml:space="preserve" font-family="AvenirNext-Regular" font-size="25.0" fill="#FFFFFF" transform="matrix(1.00, 0.00, -0.00, -1.00, 305.8, 7.0)"> </text><text xml:space="preserve" font-family="AvenirNext-Regular" font-size="25.0" fill="#FFFFFF" transform="matrix(1.00, 0.00, -0.00, -1.00, 312.0, 7.0)">m</text><text xml:space="preserve" font-family="AvenirNext-Regular" font-size="25.0" fill="#FFFFFF" transform="matrix(1.00, 0.00, -0.00, -1.00, 334.1, 7.0)">o</text><text xml:space="preserve" font-family="AvenirNext-Regular" font-size="25.0" fill="#FFFFFF" transform="matrix(1.00, 0.00, -0.00, -1.00, 349.4, 7.0)">d</text><text xml:space="preserve" font-family="AvenirNext-Regular" font-size="25.0" fill="#FFFFFF" transform="matrix(1.00, 0.00, -0.00, -1.00, 365.3, 7.0)">u</text><text xml:space="preserve" font-family="AvenirNext-Regular" font-size="25.0" fill="#FFFFFF" transform="matrix(1.00, 0.00, -0.00, -1.00, 379.8, 7.0)">l</text><text xml:space="preserve" font-family="AvenirNext-Regular" font-size="25.0" fill="#FFFFFF" transform="matrix(1.00, 0.00, -0.00, -1.00, 386.1, 7.0)">e</text><text xml:space="preserve" font-family="AvenirNext-Regular" font-size="25.0" fill="#FFFFFF" transform="matrix(1.00, 0.00, -0.00, -1.00, 400.4, 7.0)">s</text><text xml:space="preserve" font-family="AvenirNext-Regular" font-size="25.0" fill="#FFFFFF" transform="matrix(1.00, 0.00, -0.00, -1.00, 411.5, 7.0)">?</text></g></svg>