<?xml version="1.0" encoding="UTF-8" standalone="no"?><svg xmlns="http://www.w3.org/2000/svg" xmlns:xlink="http://www.w3.org/1999/xlink" clip-rule="evenodd" stroke-miterlimit="4.00" viewBox="0 0 492 43"><desc>SVG generated by Keynote</desc><defs></defs><g transform="matrix(1.00, 0.00, -0.00, -1.00, 0.0, 43.0)"><g><clipPath id="clip-2639"><path d="M 0.0 0.0 L 492.0 0.0 L 492.0 41.0 L 0.0 41.0 Z M 0.0 0.0 "></path></clipPath><g clip-path="url(#clip-2639)"><text xml:space="preserve" font-family="DINCondensed-Bold" font-weight="bold" font-size="54.8" fill="#DE7D67" transform="matrix(1.00, 0.00, -0.00, -1.00, -1.0, 2.0)">I</text><text xml:space="preserve" font-family="DINCondensed-Bold" font-weight="bold" font-size="54.8" fill="#DE7D67" transform="matrix(1.00, 0.00, -0.00, -1.00, 10.2, 2.0)">M</text><text xml:space="preserve" font-family="DINCondensed-Bold" font-weight="bold" font-size="54.8" fill="#DE7D67" transform="matrix(1.00, 0.00, -0.00, -1.00, 40.6, 2.0)">P</text><text xml:space="preserve" font-family="DINCondensed-Bold" font-weight="bold" font-size="54.8" fill="#DE7D67" transform="matrix(1.00, 0.00, -0.00, -1.00, 63.0, 2.0)">L</text><text xml:space="preserve" font-family="DINCondensed-Bold" font-weight="bold" font-size="54.8" fill="#DE7D67" transform="matrix(1.00, 0.00, -0.00, -1.00, 83.2, 2.0)">E</text><text xml:space="preserve" font-family="DINCondensed-Bold" font-weight="bold" font-size="54.8" fill="#DE7D67" transform="matrix(1.00, 0.00, -0.00, -1.00, 103.5, 2.0)">M</text><text xml:space="preserve" font-family="DINCondensed-Bold" font-weight="bold" font-size="54.8" fill="#DE7D67" transform="matrix(1.00, 0.00, -0.00, -1.00, 134.0, 2.0)">E</text><text xml:space="preserve" font-family="DINCondensed-Bold" font-weight="bold" font-size="54.8" fill="#DE7D67" transform="matrix(1.00, 0.00, -0.00, -1.00, 154.2, 2.0)">N</text><text xml:space="preserve" font-family="DINCondensed-Bold" font-weight="bold" font-size="54.8" fill="#DE7D67" transform="matrix(1.00, 0.00, -0.00, -1.00, 178.6, 2.0)">T</text><text xml:space="preserve" font-family="DINCondensed-Bold" font-weight="bold" font-size="54.8" fill="#DE7D67" transform="matrix(1.00, 0.00, -0.00, -1.00, 196.8, 2.0)"> </text><text xml:space="preserve" font-family="DINCondensed-Bold" font-weight="bold" font-size="54.8" fill="#DE7D67" transform="matrix(1.00, 0.00, -0.00, -1.00, 207.0, 2.0)">M</text><text xml:space="preserve" font-family="DINCondensed-Bold" font-weight="bold" font-size="54.8" fill="#DE7D67" transform="matrix(1.00, 0.00, -0.00, -1.00, 237.4, 2.0)">O</text><text xml:space="preserve" font-family="DINCondensed-Bold" font-weight="bold" font-size="54.8" fill="#DE7D67" transform="matrix(1.00, 0.00, -0.00, -1.00, 260.8, 2.0)">D</text><text xml:space="preserve" font-family="DINCondensed-Bold" font-weight="bold" font-size="54.8" fill="#DE7D67" transform="matrix(1.00, 0.00, -0.00, -1.00, 284.1, 2.0)">U</text><text xml:space="preserve" font-family="DINCondensed-Bold" font-weight="bold" font-size="54.8" fill="#DE7D67" transform="matrix(1.00, 0.00, -0.00, -1.00, 307.5, 2.0)">L</text><text xml:space="preserve" font-family="DINCondensed-Bold" font-weight="bold" font-size="54.8" fill="#DE7D67" transform="matrix(1.00, 0.00, -0.00, -1.00, 327.7, 2.0)">E</text><text xml:space="preserve" font-family="DINCondensed-Bold" font-weight="bold" font-size="54.8" fill="#DE7D67" transform="matrix(1.00, 0.00, -0.00, -1.00, 348.0, 2.0)"> </text><text xml:space="preserve" font-family="DINCondensed-Bold" font-weight="bold" font-size="54.8" fill="#DE7D67" transform="matrix(1.00, 0.00, -0.00, -1.00, 358.2, 2.0)">S</text><text xml:space="preserve" font-family="DINCondensed-Bold" font-weight="bold" font-size="54.8" fill="#DE7D67" transform="matrix(1.00, 0.00, -0.00, -1.00, 380.5, 2.0)">Y</text><text xml:space="preserve" font-family="DINCondensed-Bold" font-weight="bold" font-size="54.8" fill="#DE7D67" transform="matrix(1.00, 0.00, -0.00, -1.00, 401.7, 2.0)">S</text><text xml:space="preserve" font-family="DINCondensed-Bold" font-weight="bold" font-size="54.8" fill="#DE7D67" transform="matrix(1.00, 0.00, -0.00, -1.00, 424.0, 2.0)">T</text><text xml:space="preserve" font-family="DINCondensed-Bold" font-weight="bold" font-size="54.8" fill="#DE7D67" transform="matrix(1.00, 0.00, -0.00, -1.00, 442.2, 2.0)">E</text><text xml:space="preserve" font-family="DINCondensed-Bold" font-weight="bold" font-size="54.8" fill="#DE7D67" transform="matrix(1.00, 0.00, -0.00, -1.00, 462.4, 2.0)">M</text></g></g></g></svg>