<?xml version="1.0" encoding="UTF-8" standalone="no"?><svg xmlns="http://www.w3.org/2000/svg" xmlns:xlink="http://www.w3.org/1999/xlink" clip-rule="evenodd" stroke-miterlimit="4.00" viewBox="0 0 262 142"><desc>SVG generated by Keynote</desc><defs></defs><g transform="matrix(1.00, 0.00, -0.00, -1.00, 0.0, 142.0)"><g><clipPath id="clip-1172"><path d="M 51.4 25.6 L 121.3 25.6 L 121.3 112.8 L 51.4 112.8 Z M 51.4 25.6 "></path></clipPath><g clip-path="url(#clip-1172)"><path d="M 52.4 111.8 L 120.3 111.8 L 120.3 26.6 L 52.4 26.6 Z M 52.4 111.8 " fill="#F1C114"></path></g></g><g><clipPath id="clip-1173"><path d="M 57.3 86.0 L 115.4 86.0 L 115.4 101.7 L 57.3 101.7 Z M 57.3 86.0 "></path></clipPath><g clip-path="url(#clip-1173)"><path d="M 58.3 100.7 L 114.4 100.7 L 114.4 87.0 L 58.3 87.0 Z M 58.3 100.7 " fill="#00A100"></path></g></g><g><clipPath id="clip-1174"><path d="M 137.2 25.6 L 207.1 25.6 L 207.1 112.8 L 137.2 112.8 Z M 137.2 25.6 "></path></clipPath><g clip-path="url(#clip-1174)"><path d="M 138.2 111.8 L 206.1 111.8 L 206.1 26.6 L 138.2 26.6 Z M 138.2 111.8 " fill="#00A100"></path></g></g><g><clipPath id="clip-1175"><path d="M 187.0 -27.1 L 289.1 -27.1 L 289.1 169.4 L 187.0 169.4 Z M 187.0 -27.1 "></path></clipPath><g clip-path="url(#clip-1175)"><text xml:space="preserve" font-family="AvenirNext-Heavy" font-weight="bold" font-size="96.0" fill="#A0BCE9" transform="matrix(1.00, 0.00, -0.00, -1.00, 220.0, 41.0)">]</text></g></g><g><clipPath id="clip-1176"><path d="M -27.5 -27.1 L 74.6 -27.1 L 74.6 169.4 L -27.5 169.4 Z M -27.5 -27.1 "></path></clipPath><g clip-path="url(#clip-1176)"><text xml:space="preserve" font-family="AvenirNext-Heavy" font-weight="bold" font-size="96.0" fill="#A0BCE9" transform="matrix(1.00, 0.00, -0.00, -1.00, 5.0, 41.0)">[</text></g></g></g></svg>