<?xml version="1.0" encoding="UTF-8" standalone="no"?><svg xmlns="http://www.w3.org/2000/svg" xmlns:xlink="http://www.w3.org/1999/xlink" clip-rule="evenodd" stroke-miterlimit="4.00" viewBox="0 0 465 133"><desc>SVG generated by Keynote</desc><defs></defs><g transform="matrix(1.00, 0.00, -0.00, -1.00, 0.0, 133.0)"><path d="M 1.1 131.8 L 463.0 131.8 L 463.0 1.1 L 1.1 1.1 Z M 1.1 131.8 " fill="#F1C114"></path><g><clipPath id="clip-3393"><path d="M -0.9 -3.2 L 465.0 -3.2 L 465.0 133.8 L -0.9 133.8 Z M -0.9 -3.2 "></path></clipPath><g clip-path="url(#clip-3393)"><text xml:space="preserve" font-family="FiraCode-Bold" font-weight="bold" font-size="20.0" fill="#5C5C5C" transform="matrix(1.00, 0.00, -0.00, -1.00, 17.2, 104.0)">/</text><text xml:space="preserve" font-family="FiraCode-Bold" font-weight="bold" font-size="20.0" fill="#5C5C5C" transform="matrix(1.00, 0.00, -0.00, -1.00, 29.4, 104.0)">/</text><text xml:space="preserve" font-family="FiraCode-Bold" font-weight="bold" font-size="20.0" fill="#5C5C5C" transform="matrix(1.00, 0.00, -0.00, -1.00, 41.6, 104.0)"> </text><text xml:space="preserve" font-family="FiraCode-Bold" font-weight="bold" font-size="20.0" fill="#5C5C5C" transform="matrix(1.00, 0.00, -0.00, -1.00, 53.8, 104.0)">h</text><text xml:space="preserve" font-family="FiraCode-Bold" font-weight="bold" font-size="20.0" fill="#5C5C5C" transform="matrix(1.00, 0.00, -0.00, -1.00, 66.0, 104.0)">y</text><text xml:space="preserve" font-family="FiraCode-Bold" font-weight="bold" font-size="20.0" fill="#5C5C5C" transform="matrix(1.00, 0.00, -0.00, -1.00, 78.2, 104.0)">p</text><text xml:space="preserve" font-family="FiraCode-Bold" font-weight="bold" font-size="20.0" fill="#5C5C5C" transform="matrix(1.00, 0.00, -0.00, -1.00, 90.4, 104.0)">o</text><text xml:space="preserve" font-family="FiraCode-Bold" font-weight="bold" font-size="20.0" fill="#5C5C5C" transform="matrix(1.00, 0.00, -0.00, -1.00, 102.6, 104.0)">t</text><text xml:space="preserve" font-family="FiraCode-Bold" font-weight="bold" font-size="20.0" fill="#5C5C5C" transform="matrix(1.00, 0.00, -0.00, -1.00, 114.8, 104.0)">e</text><text xml:space="preserve" font-family="FiraCode-Bold" font-weight="bold" font-size="20.0" fill="#5C5C5C" transform="matrix(1.00, 0.00, -0.00, -1.00, 127.0, 104.0)">n</text><text xml:space="preserve" font-family="FiraCode-Bold" font-weight="bold" font-size="20.0" fill="#5C5C5C" transform="matrix(1.00, 0.00, -0.00, -1.00, 139.2, 104.0)">u</text><text xml:space="preserve" font-family="FiraCode-Bold" font-weight="bold" font-size="20.0" fill="#5C5C5C" transform="matrix(1.00, 0.00, -0.00, -1.00, 151.4, 104.0)">s</text><text xml:space="preserve" font-family="FiraCode-Bold" font-weight="bold" font-size="20.0" fill="#5C5C5C" transform="matrix(1.00, 0.00, -0.00, -1.00, 163.6, 104.0)">e</text><text xml:space="preserve" font-family="FiraCode-Bold" font-weight="bold" font-size="20.0" fill="#5C5C5C" transform="matrix(1.00, 0.00, -0.00, -1.00, 175.8, 104.0)">.</text><text xml:space="preserve" font-family="FiraCode-Bold" font-weight="bold" font-size="20.0" fill="#5C5C5C" transform="matrix(1.00, 0.00, -0.00, -1.00, 188.0, 104.0)">j</text><text xml:space="preserve" font-family="FiraCode-Bold" font-weight="bold" font-size="20.0" fill="#5C5C5C" transform="matrix(1.00, 0.00, -0.00, -1.00, 200.2, 104.0)">s</text><text xml:space="preserve" font-family="FiraCode-Bold" font-weight="bold" font-size="20.0" fill="#5C5C5C" transform="matrix(1.00, 0.00, -0.00, -1.00, 212.4, 104.0)"> </text><text xml:space="preserve" font-family="FiraCode-Regular" font-size="20.0" fill="#000000" transform="matrix(1.00, 0.00, -0.00, -1.00, 5.0, 80.0)">v</text><text xml:space="preserve" font-family="FiraCode-Regular" font-size="20.0" fill="#000000" transform="matrix(1.00, 0.00, -0.00, -1.00, 17.2, 80.0)">a</text><text xml:space="preserve" font-family="FiraCode-Regular" font-size="20.0" fill="#000000" transform="matrix(1.00, 0.00, -0.00, -1.00, 29.4, 80.0)">r</text><text xml:space="preserve" font-family="FiraCode-Regular" font-size="20.0" fill="#000000" transform="matrix(1.00, 0.00, -0.00, -1.00, 41.6, 80.0)"> </text><text xml:space="preserve" font-family="FiraCode-Regular" font-size="20.0" fill="#000000" transform="matrix(1.00, 0.00, -0.00, -1.00, 53.8, 80.0)">s</text><text xml:space="preserve" font-family="FiraCode-Regular" font-size="20.0" fill="#000000" transform="matrix(1.00, 0.00, -0.00, -1.00, 66.0, 80.0)">q</text><text xml:space="preserve" font-family="FiraCode-Regular" font-size="20.0" fill="#000000" transform="matrix(1.00, 0.00, -0.00, -1.00, 78.2, 80.0)">u</text><text xml:space="preserve" font-family="FiraCode-Regular" font-size="20.0" fill="#000000" transform="matrix(1.00, 0.00, -0.00, -1.00, 90.4, 80.0)">a</text><text xml:space="preserve" font-family="FiraCode-Regular" font-size="20.0" fill="#000000" transform="matrix(1.00, 0.00, -0.00, -1.00, 102.6, 80.0)">r</text><text xml:space="preserve" font-family="FiraCode-Regular" font-size="20.0" fill="#000000" transform="matrix(1.00, 0.00, -0.00, -1.00, 114.8, 80.0)">e</text><text xml:space="preserve" font-family="FiraCode-Regular" font-size="20.0" fill="#000000" transform="matrix(1.00, 0.00, -0.00, -1.00, 127.0, 80.0)"> </text><text xml:space="preserve" font-family="FiraCode-Regular" font-size="20.0" fill="#000000" transform="matrix(1.00, 0.00, -0.00, -1.00, 139.2, 80.0)">=</text><text xml:space="preserve" font-family="FiraCode-Regular" font-size="20.0" fill="#000000" transform="matrix(1.00, 0.00, -0.00, -1.00, 151.4, 80.0)"> </text><text xml:space="preserve" font-family="FiraCode-Regular" font-size="20.0" fill="#000000" transform="matrix(1.00, 0.00, -0.00, -1.00, 163.6, 80.0)">r</text><text xml:space="preserve" font-family="FiraCode-Regular" font-size="20.0" fill="#000000" transform="matrix(1.00, 0.00, -0.00, -1.00, 175.8, 80.0)">e</text><text xml:space="preserve" font-family="FiraCode-Regular" font-size="20.0" fill="#000000" transform="matrix(1.00, 0.00, -0.00, -1.00, 188.0, 80.0)">q</text><text xml:space="preserve" font-family="FiraCode-Regular" font-size="20.0" fill="#000000" transform="matrix(1.00, 0.00, -0.00, -1.00, 200.2, 80.0)">u</text><text xml:space="preserve" font-family="FiraCode-Regular" font-size="20.0" fill="#000000" transform="matrix(1.00, 0.00, -0.00, -1.00, 212.4, 80.0)">i</text><text xml:space="preserve" font-family="FiraCode-Regular" font-size="20.0" fill="#000000" transform="matrix(1.00, 0.00, -0.00, -1.00, 224.6, 80.0)">r</text><text xml:space="preserve" font-family="FiraCode-Regular" font-size="20.0" fill="#000000" transform="matrix(1.00, 0.00, -0.00, -1.00, 236.8, 80.0)">e</text><text xml:space="preserve" font-family="FiraCode-Regular" font-size="20.0" fill="#000000" transform="matrix(1.00, 0.00, -0.00, -1.00, 249.0, 80.0)">(</text><text xml:space="preserve" font-family="FiraCode-Regular" font-size="20.0" fill="#000000" transform="matrix(1.00, 0.00, -0.00, -1.00, 261.2, 80.0)">‘</text><text xml:space="preserve" font-family="FiraCode-Regular" font-size="20.0" fill="#000000" transform="matrix(1.00, 0.00, -0.00, -1.00, 273.4, 80.0)">.</text><text xml:space="preserve" font-family="FiraCode-Regular" font-size="20.0" fill="#000000" transform="matrix(1.00, 0.00, -0.00, -1.00, 285.6, 80.0)">/</text><text xml:space="preserve" font-family="FiraCode-Regular" font-size="20.0" fill="#000000" transform="matrix(1.00, 0.00, -0.00, -1.00, 297.8, 80.0)">s</text><text xml:space="preserve" font-family="FiraCode-Regular" font-size="20.0" fill="#000000" transform="matrix(1.00, 0.00, -0.00, -1.00, 310.0, 80.0)">q</text><text xml:space="preserve" font-family="FiraCode-Regular" font-size="20.0" fill="#000000" transform="matrix(1.00, 0.00, -0.00, -1.00, 322.2, 80.0)">u</text><text xml:space="preserve" font-family="FiraCode-Regular" font-size="20.0" fill="#000000" transform="matrix(1.00, 0.00, -0.00, -1.00, 334.4, 80.0)">a</text><text xml:space="preserve" font-family="FiraCode-Regular" font-size="20.0" fill="#000000" transform="matrix(1.00, 0.00, -0.00, -1.00, 346.6, 80.0)">r</text><text xml:space="preserve" font-family="FiraCode-Regular" font-size="20.0" fill="#000000" transform="matrix(1.00, 0.00, -0.00, -1.00, 358.8, 80.0)">e</text><text xml:space="preserve" font-family="FiraCode-Regular" font-size="20.0" fill="#000000" transform="matrix(1.00, 0.00, -0.00, -1.00, 371.0, 80.0)">’</text><text xml:space="preserve" font-family="FiraCode-Regular" font-size="20.0" fill="#000000" transform="matrix(1.00, 0.00, -0.00, -1.00, 383.2, 80.0)">)</text><text xml:space="preserve" font-family="FiraCode-Regular" font-size="20.0" fill="#000000" transform="matrix(1.00, 0.00, -0.00, -1.00, 395.4, 80.0)">;</text><text xml:space="preserve" font-family="FiraCode-Regular" font-size="20.0" fill="#000000" transform="matrix(1.00, 0.00, -0.00, -1.00, 407.6, 80.0)"> </text><text xml:space="preserve" font-family="FiraCode-Regular" font-size="20.0" fill="#000000" transform="matrix(1.00, 0.00, -0.00, -1.00, 5.0, 56.0)">m</text><text xml:space="preserve" font-family="FiraCode-Regular" font-size="20.0" fill="#000000" transform="matrix(1.00, 0.00, -0.00, -1.00, 17.2, 56.0)">o</text><text xml:space="preserve" font-family="FiraCode-Regular" font-size="20.0" fill="#000000" transform="matrix(1.00, 0.00, -0.00, -1.00, 29.4, 56.0)">d</text><text xml:space="preserve" font-family="FiraCode-Regular" font-size="20.0" fill="#000000" transform="matrix(1.00, 0.00, -0.00, -1.00, 41.6, 56.0)">u</text><text xml:space="preserve" font-family="FiraCode-Regular" font-size="20.0" fill="#000000" transform="matrix(1.00, 0.00, -0.00, -1.00, 53.8, 56.0)">l</text><text xml:space="preserve" font-family="FiraCode-Regular" font-size="20.0" fill="#000000" transform="matrix(1.00, 0.00, -0.00, -1.00, 66.0, 56.0)">e</text><text xml:space="preserve" font-family="FiraCode-Regular" font-size="20.0" fill="#000000" transform="matrix(1.00, 0.00, -0.00, -1.00, 78.2, 56.0)">.</text><text xml:space="preserve" font-family="FiraCode-Regular" font-size="20.0" fill="#000000" transform="matrix(1.00, 0.00, -0.00, -1.00, 90.4, 56.0)">e</text><text xml:space="preserve" font-family="FiraCode-Regular" font-size="20.0" fill="#000000" transform="matrix(1.00, 0.00, -0.00, -1.00, 102.6, 56.0)">x</text><text xml:space="preserve" font-family="FiraCode-Regular" font-size="20.0" fill="#000000" transform="matrix(1.00, 0.00, -0.00, -1.00, 114.8, 56.0)">p</text><text xml:space="preserve" font-family="FiraCode-Regular" font-size="20.0" fill="#000000" transform="matrix(1.00, 0.00, -0.00, -1.00, 127.0, 56.0)">o</text><text xml:space="preserve" font-family="FiraCode-Regular" font-size="20.0" fill="#000000" transform="matrix(1.00, 0.00, -0.00, -1.00, 139.2, 56.0)">r</text><text xml:space="preserve" font-family="FiraCode-Regular" font-size="20.0" fill="#000000" transform="matrix(1.00, 0.00, -0.00, -1.00, 151.4, 56.0)">t</text><text xml:space="preserve" font-family="FiraCode-Regular" font-size="20.0" fill="#000000" transform="matrix(1.00, 0.00, -0.00, -1.00, 163.6, 56.0)">s</text><text xml:space="preserve" font-family="FiraCode-Regular" font-size="20.0" fill="#000000" transform="matrix(1.00, 0.00, -0.00, -1.00, 175.8, 56.0)"> </text><text xml:space="preserve" font-family="FiraCode-Regular" font-size="20.0" fill="#000000" transform="matrix(1.00, 0.00, -0.00, -1.00, 188.0, 56.0)">=</text><text xml:space="preserve" font-family="FiraCode-Regular" font-size="20.0" fill="#000000" transform="matrix(1.00, 0.00, -0.00, -1.00, 200.2, 56.0)"> </text><text xml:space="preserve" font-family="FiraCode-Regular" font-size="20.0" fill="#000000" transform="matrix(1.00, 0.00, -0.00, -1.00, 212.4, 56.0)">f</text><text xml:space="preserve" font-family="FiraCode-Regular" font-size="20.0" fill="#000000" transform="matrix(1.00, 0.00, -0.00, -1.00, 224.6, 56.0)">u</text><text xml:space="preserve" font-family="FiraCode-Regular" font-size="20.0" fill="#000000" transform="matrix(1.00, 0.00, -0.00, -1.00, 236.8, 56.0)">n</text><text xml:space="preserve" font-family="FiraCode-Regular" font-size="20.0" fill="#000000" transform="matrix(1.00, 0.00, -0.00, -1.00, 249.0, 56.0)">c</text><text xml:space="preserve" font-family="FiraCode-Regular" font-size="20.0" fill="#000000" transform="matrix(1.00, 0.00, -0.00, -1.00, 261.2, 56.0)">t</text><text xml:space="preserve" font-family="FiraCode-Regular" font-size="20.0" fill="#000000" transform="matrix(1.00, 0.00, -0.00, -1.00, 273.4, 56.0)">i</text><text xml:space="preserve" font-family="FiraCode-Regular" font-size="20.0" fill="#000000" transform="matrix(1.00, 0.00, -0.00, -1.00, 285.6, 56.0)">o</text><text xml:space="preserve" font-family="FiraCode-Regular" font-size="20.0" fill="#000000" transform="matrix(1.00, 0.00, -0.00, -1.00, 297.8, 56.0)">n</text><text xml:space="preserve" font-family="FiraCode-Regular" font-size="20.0" fill="#000000" transform="matrix(1.00, 0.00, -0.00, -1.00, 310.0, 56.0)">(</text><text xml:space="preserve" font-family="FiraCode-Regular" font-size="20.0" fill="#000000" transform="matrix(1.00, 0.00, -0.00, -1.00, 322.2, 56.0)">a</text><text xml:space="preserve" font-family="FiraCode-Regular" font-size="20.0" fill="#000000" transform="matrix(1.00, 0.00, -0.00, -1.00, 334.4, 56.0)">,</text><text xml:space="preserve" font-family="FiraCode-Regular" font-size="20.0" fill="#000000" transform="matrix(1.00, 0.00, -0.00, -1.00, 346.6, 56.0)"> </text><text xml:space="preserve" font-family="FiraCode-Regular" font-size="20.0" fill="#000000" transform="matrix(1.00, 0.00, -0.00, -1.00, 358.8, 56.0)">b</text><text xml:space="preserve" font-family="FiraCode-Regular" font-size="20.0" fill="#000000" transform="matrix(1.00, 0.00, -0.00, -1.00, 371.0, 56.0)">)</text><text xml:space="preserve" font-family="FiraCode-Regular" font-size="20.0" fill="#000000" transform="matrix(1.00, 0.00, -0.00, -1.00, 383.2, 56.0)"> </text><text xml:space="preserve" font-family="FiraCode-Regular" font-size="20.0" fill="#000000" transform="matrix(1.00, 0.00, -0.00, -1.00, 395.4, 56.0)">{</text><text xml:space="preserve" font-family="FiraCode-Regular" font-size="20.0" fill="#000000" transform="matrix(1.00, 0.00, -0.00, -1.00, 407.6, 56.0)"> </text><text xml:space="preserve" font-family="FiraCode-Regular" font-size="20.0" fill="#000000" transform="matrix(1.00, 0.00, -0.00, -1.00, 5.0, 32.0)"> </text><text xml:space="preserve" font-family="FiraCode-Regular" font-size="20.0" fill="#000000" transform="matrix(1.00, 0.00, -0.00, -1.00, 17.2, 32.0)"> </text><text xml:space="preserve" font-family="FiraCode-Regular" font-size="20.0" fill="#000000" transform="matrix(1.00, 0.00, -0.00, -1.00, 29.4, 32.0)">r</text><text xml:space="preserve" font-family="FiraCode-Regular" font-size="20.0" fill="#000000" transform="matrix(1.00, 0.00, -0.00, -1.00, 41.6, 32.0)">e</text><text xml:space="preserve" font-family="FiraCode-Regular" font-size="20.0" fill="#000000" transform="matrix(1.00, 0.00, -0.00, -1.00, 53.8, 32.0)">t</text><text xml:space="preserve" font-family="FiraCode-Regular" font-size="20.0" fill="#000000" transform="matrix(1.00, 0.00, -0.00, -1.00, 66.0, 32.0)">u</text><text xml:space="preserve" font-family="FiraCode-Regular" font-size="20.0" fill="#000000" transform="matrix(1.00, 0.00, -0.00, -1.00, 78.2, 32.0)">r</text><text xml:space="preserve" font-family="FiraCode-Regular" font-size="20.0" fill="#000000" transform="matrix(1.00, 0.00, -0.00, -1.00, 90.4, 32.0)">n</text><text xml:space="preserve" font-family="FiraCode-Regular" font-size="20.0" fill="#000000" transform="matrix(1.00, 0.00, -0.00, -1.00, 102.6, 32.0)"> </text><text xml:space="preserve" font-family="FiraCode-Regular" font-size="20.0" fill="#000000" transform="matrix(1.00, 0.00, -0.00, -1.00, 114.8, 32.0)">s</text><text xml:space="preserve" font-family="FiraCode-Regular" font-size="20.0" fill="#000000" transform="matrix(1.00, 0.00, -0.00, -1.00, 127.0, 32.0)">q</text><text xml:space="preserve" font-family="FiraCode-Regular" font-size="20.0" fill="#000000" transform="matrix(1.00, 0.00, -0.00, -1.00, 139.2, 32.0)">u</text><text xml:space="preserve" font-family="FiraCode-Regular" font-size="20.0" fill="#000000" transform="matrix(1.00, 0.00, -0.00, -1.00, 151.4, 32.0)">a</text><text xml:space="preserve" font-family="FiraCode-Regular" font-size="20.0" fill="#000000" transform="matrix(1.00, 0.00, -0.00, -1.00, 163.6, 32.0)">r</text><text xml:space="preserve" font-family="FiraCode-Regular" font-size="20.0" fill="#000000" transform="matrix(1.00, 0.00, -0.00, -1.00, 175.8, 32.0)">e</text><text xml:space="preserve" font-family="FiraCode-Regular" font-size="20.0" fill="#000000" transform="matrix(1.00, 0.00, -0.00, -1.00, 188.0, 32.0)">(</text><text xml:space="preserve" font-family="FiraCode-Regular" font-size="20.0" fill="#000000" transform="matrix(1.00, 0.00, -0.00, -1.00, 200.2, 32.0)">a</text><text xml:space="preserve" font-family="FiraCode-Regular" font-size="20.0" fill="#000000" transform="matrix(1.00, 0.00, -0.00, -1.00, 212.4, 32.0)">)</text><text xml:space="preserve" font-family="FiraCode-Regular" font-size="20.0" fill="#000000" transform="matrix(1.00, 0.00, -0.00, -1.00, 224.6, 32.0)"> </text><text xml:space="preserve" font-family="FiraCode-Regular" font-size="20.0" fill="#000000" transform="matrix(1.00, 0.00, -0.00, -1.00, 236.8, 32.0)">+</text><text xml:space="preserve" font-family="FiraCode-Regular" font-size="20.0" fill="#000000" transform="matrix(1.00, 0.00, -0.00, -1.00, 249.0, 32.0)"> </text><text xml:space="preserve" font-family="FiraCode-Regular" font-size="20.0" fill="#000000" transform="matrix(1.00, 0.00, -0.00, -1.00, 261.2, 32.0)">s</text><text xml:space="preserve" font-family="FiraCode-Regular" font-size="20.0" fill="#000000" transform="matrix(1.00, 0.00, -0.00, -1.00, 273.4, 32.0)">q</text><text xml:space="preserve" font-family="FiraCode-Regular" font-size="20.0" fill="#000000" transform="matrix(1.00, 0.00, -0.00, -1.00, 285.6, 32.0)">u</text><text xml:space="preserve" font-family="FiraCode-Regular" font-size="20.0" fill="#000000" transform="matrix(1.00, 0.00, -0.00, -1.00, 297.8, 32.0)">a</text><text xml:space="preserve" font-family="FiraCode-Regular" font-size="20.0" fill="#000000" transform="matrix(1.00, 0.00, -0.00, -1.00, 310.0, 32.0)">r</text><text xml:space="preserve" font-family="FiraCode-Regular" font-size="20.0" fill="#000000" transform="matrix(1.00, 0.00, -0.00, -1.00, 322.2, 32.0)">e</text><text xml:space="preserve" font-family="FiraCode-Regular" font-size="20.0" fill="#000000" transform="matrix(1.00, 0.00, -0.00, -1.00, 334.4, 32.0)">(</text><text xml:space="preserve" font-family="FiraCode-Regular" font-size="20.0" fill="#000000" transform="matrix(1.00, 0.00, -0.00, -1.00, 346.6, 32.0)">b</text><text xml:space="preserve" font-family="FiraCode-Regular" font-size="20.0" fill="#000000" transform="matrix(1.00, 0.00, -0.00, -1.00, 358.8, 32.0)">)</text><text xml:space="preserve" font-family="FiraCode-Regular" font-size="20.0" fill="#000000" transform="matrix(1.00, 0.00, -0.00, -1.00, 371.0, 32.0)">;</text><text xml:space="preserve" font-family="FiraCode-Regular" font-size="20.0" fill="#000000" transform="matrix(1.00, 0.00, -0.00, -1.00, 383.2, 32.0)"> </text></g></g><g><clipPath id="clip-3394"><path d="M 0.0 4.8 L 465.0 4.8 L 465.0 127.8 L 0.0 127.8 Z M 0.0 4.8 "></path></clipPath><g clip-path="url(#clip-3394)"><text xml:space="preserve" font-family="FiraCode-Regular" font-size="20.0" fill="#000000" transform="matrix(1.00, 0.00, -0.00, -1.00, 5.0, 8.0)">}</text><text xml:space="preserve" font-family="FiraCode-Regular" font-size="20.0" fill="#000000" transform="matrix(1.00, 0.00, -0.00, -1.00, 17.2, 8.0)">;</text></g></g></g></svg>