<?xml version="1.0" encoding="UTF-8" standalone="no"?><svg xmlns="http://www.w3.org/2000/svg" xmlns:xlink="http://www.w3.org/1999/xlink" clip-rule="evenodd" stroke-miterlimit="4.00" viewBox="0 0 262 174"><desc>SVG generated by Keynote</desc><defs></defs><g transform="matrix(1.00, 0.00, -0.00, -1.00, 0.0, 174.0)"><g><clipPath id="clip-3526"><path d="M 51.4 57.6 L 121.3 57.6 L 121.3 144.8 L 51.4 144.8 Z M 51.4 57.6 "></path></clipPath><g clip-path="url(#clip-3526)"><path d="M 52.4 143.8 L 120.3 143.8 L 120.3 58.6 L 52.4 58.6 Z M 52.4 143.8 " fill="#F1C114"></path></g></g><g><clipPath id="clip-3527"><path d="M 57.3 118.0 L 115.4 118.0 L 115.4 133.7 L 57.3 133.7 Z M 57.3 118.0 "></path></clipPath><g clip-path="url(#clip-3527)"><path d="M 58.3 132.7 L 114.4 132.7 L 114.4 119.0 L 58.3 119.0 Z M 58.3 132.7 " fill="#00A100"></path></g></g><g><clipPath id="clip-3528"><path d="M 137.2 57.6 L 207.1 57.6 L 207.1 144.8 L 137.2 144.8 Z M 137.2 57.6 "></path></clipPath><g clip-path="url(#clip-3528)"><path d="M 138.2 143.8 L 206.1 143.8 L 206.1 58.6 L 138.2 58.6 Z M 138.2 143.8 " fill="#00A100"></path></g></g><g><clipPath id="clip-3529"><path d="M 187.0 4.9 L 289.1 4.9 L 289.1 201.4 L 187.0 201.4 Z M 187.0 4.9 "></path></clipPath><g clip-path="url(#clip-3529)"><text xml:space="preserve" font-family="AvenirNext-Heavy" font-weight="bold" font-size="96.0" fill="#A0BCE9" transform="matrix(1.00, 0.00, -0.00, -1.00, 220.0, 73.0)">]</text></g></g><g><clipPath id="clip-3530"><path d="M -27.5 4.9 L 74.6 4.9 L 74.6 201.4 L -27.5 201.4 Z M -27.5 4.9 "></path></clipPath><g clip-path="url(#clip-3530)"><text xml:space="preserve" font-family="AvenirNext-Heavy" font-weight="bold" font-size="96.0" fill="#A0BCE9" transform="matrix(1.00, 0.00, -0.00, -1.00, 5.0, 73.0)">[</text></g></g><g><clipPath id="clip-3531"><path d="M 69.6 -3.9 L 108.4 -3.9 L 108.4 53.2 L 69.6 53.2 Z M 69.6 -3.9 "></path></clipPath><g clip-path="url(#clip-3531)"><text xml:space="preserve" font-family="AvenirNext-DemiBold" font-weight="bold" font-size="28.0" fill="#A0BCE9" transform="matrix(1.00, 0.00, -0.00, -1.00, 79.0, 16.0)">0</text></g></g><g><clipPath id="clip-3532"><path d="M 155.6 -3.9 L 194.4 -3.9 L 194.4 53.2 L 155.6 53.2 Z M 155.6 -3.9 "></path></clipPath><g clip-path="url(#clip-3532)"><text xml:space="preserve" font-family="AvenirNext-DemiBold" font-weight="bold" font-size="28.0" fill="#A0BCE9" transform="matrix(1.00, 0.00, -0.00, -1.00, 165.0, 16.0)">1</text></g></g></g></svg>