<?xml version="1.0" encoding="UTF-8" standalone="no"?><svg xmlns="http://www.w3.org/2000/svg" xmlns:xlink="http://www.w3.org/1999/xlink" clip-rule="evenodd" stroke-miterlimit="4.00" viewBox="0 0 149 187"><desc>SVG generated by Keynote</desc><defs></defs><g transform="matrix(1.00, 0.00, -0.00, -1.00, 0.0, 187.0)"><g><clipPath id="clip-372"><path d="M 0.7 0.8 L 148.8 0.8 L 148.8 186.1 L 0.7 186.1 Z M 0.7 0.8 "></path></clipPath><g clip-path="url(#clip-372)"><path d="M 1.7 185.1 L 147.8 185.1 L 147.8 1.8 L 1.7 1.8 Z M 1.7 185.1 " fill="#00A100"></path></g></g><g><clipPath id="clip-373"><path d="M 1.7 28.0 L 147.8 28.0 L 147.8 158.9 L 1.7 158.9 Z M 1.7 28.0 "></path></clipPath><g clip-path="url(#clip-373)"><text xml:space="preserve" font-family="AvenirNext-DemiBold" font-weight="bold" font-size="20.0" fill="#000000" transform="matrix(1.00, 0.00, -0.00, -1.00, 33.0, 87.0)">s</text><text xml:space="preserve" font-family="AvenirNext-DemiBold" font-weight="bold" font-size="20.0" fill="#000000" transform="matrix(1.00, 0.00, -0.00, -1.00, 42.1, 87.0)">q</text><text xml:space="preserve" font-family="AvenirNext-DemiBold" font-weight="bold" font-size="20.0" fill="#000000" transform="matrix(1.00, 0.00, -0.00, -1.00, 54.9, 87.0)">u</text><text xml:space="preserve" font-family="AvenirNext-DemiBold" font-weight="bold" font-size="20.0" fill="#000000" transform="matrix(1.00, 0.00, -0.00, -1.00, 66.8, 87.0)">a</text><text xml:space="preserve" font-family="AvenirNext-DemiBold" font-weight="bold" font-size="20.0" fill="#000000" transform="matrix(1.00, 0.00, -0.00, -1.00, 78.0, 87.0)">r</text><text xml:space="preserve" font-family="AvenirNext-DemiBold" font-weight="bold" font-size="20.0" fill="#000000" transform="matrix(1.00, 0.00, -0.00, -1.00, 85.1, 87.0)">e</text><text xml:space="preserve" font-family="AvenirNext-DemiBold" font-weight="bold" font-size="20.0" fill="#000000" transform="matrix(1.00, 0.00, -0.00, -1.00, 96.8, 87.0)">.</text><text xml:space="preserve" font-family="AvenirNext-DemiBold" font-weight="bold" font-size="20.0" fill="#000000" transform="matrix(1.00, 0.00, -0.00, -1.00, 102.2, 87.0)">j</text><text xml:space="preserve" font-family="AvenirNext-DemiBold" font-weight="bold" font-size="20.0" fill="#000000" transform="matrix(1.00, 0.00, -0.00, -1.00, 107.7, 87.0)">s</text></g></g></g></svg>