<?xml version="1.0" encoding="UTF-8" standalone="no"?><svg xmlns="http://www.w3.org/2000/svg" xmlns:xlink="http://www.w3.org/1999/xlink" clip-rule="evenodd" stroke-miterlimit="4.00" viewBox="0 0 465 161"><desc>SVG generated by Keynote</desc><defs></defs><g transform="matrix(1.00, 0.00, -0.00, -1.00, 0.0, 161.0)"><path d="M 1.1 159.1 L 463.0 159.1 L 463.0 1.1 L 1.1 1.1 Z M 1.1 159.1 " fill="#00A100"></path><g><clipPath id="clip-3533"><path d="M -0.9 -0.9 L 465.0 -0.9 L 465.0 160.1 L -0.9 160.1 Z M -0.9 -0.9 "></path></clipPath><g clip-path="url(#clip-3533)"><text xml:space="preserve" font-family="FiraCode-Bold" font-weight="bold" font-size="20.0" fill="#CACACA" transform="matrix(1.00, 0.00, -0.00, -1.00, 17.2, 130.0)">/</text><text xml:space="preserve" font-family="FiraCode-Bold" font-weight="bold" font-size="20.0" fill="#CACACA" transform="matrix(1.00, 0.00, -0.00, -1.00, 29.4, 130.0)">/</text><text xml:space="preserve" font-family="FiraCode-Bold" font-weight="bold" font-size="20.0" fill="#CACACA" transform="matrix(1.00, 0.00, -0.00, -1.00, 41.6, 130.0)"> </text><text xml:space="preserve" font-family="FiraCode-Bold" font-weight="bold" font-size="20.0" fill="#CACACA" transform="matrix(1.00, 0.00, -0.00, -1.00, 53.8, 130.0)">s</text><text xml:space="preserve" font-family="FiraCode-Bold" font-weight="bold" font-size="20.0" fill="#CACACA" transform="matrix(1.00, 0.00, -0.00, -1.00, 66.0, 130.0)">q</text><text xml:space="preserve" font-family="FiraCode-Bold" font-weight="bold" font-size="20.0" fill="#CACACA" transform="matrix(1.00, 0.00, -0.00, -1.00, 78.2, 130.0)">u</text><text xml:space="preserve" font-family="FiraCode-Bold" font-weight="bold" font-size="20.0" fill="#CACACA" transform="matrix(1.00, 0.00, -0.00, -1.00, 90.4, 130.0)">a</text><text xml:space="preserve" font-family="FiraCode-Bold" font-weight="bold" font-size="20.0" fill="#CACACA" transform="matrix(1.00, 0.00, -0.00, -1.00, 102.6, 130.0)">r</text><text xml:space="preserve" font-family="FiraCode-Bold" font-weight="bold" font-size="20.0" fill="#CACACA" transform="matrix(1.00, 0.00, -0.00, -1.00, 114.8, 130.0)">e</text><text xml:space="preserve" font-family="FiraCode-Bold" font-weight="bold" font-size="20.0" fill="#CACACA" transform="matrix(1.00, 0.00, -0.00, -1.00, 127.0, 130.0)">.</text><text xml:space="preserve" font-family="FiraCode-Bold" font-weight="bold" font-size="20.0" fill="#CACACA" transform="matrix(1.00, 0.00, -0.00, -1.00, 139.2, 130.0)">j</text><text xml:space="preserve" font-family="FiraCode-Bold" font-weight="bold" font-size="20.0" fill="#CACACA" transform="matrix(1.00, 0.00, -0.00, -1.00, 151.4, 130.0)">s</text><text xml:space="preserve" font-family="FiraCode-Bold" font-weight="bold" font-size="20.0" fill="#CACACA" transform="matrix(1.00, 0.00, -0.00, -1.00, 163.6, 130.0)"> </text><text xml:space="preserve" font-family="FiraCode-Regular" font-size="20.0" fill="#FFFFFF" transform="matrix(1.00, 0.00, -0.00, -1.00, 5.0, 106.0)">f</text><text xml:space="preserve" font-family="FiraCode-Regular" font-size="20.0" fill="#FFFFFF" transform="matrix(1.00, 0.00, -0.00, -1.00, 17.2, 106.0)">u</text><text xml:space="preserve" font-family="FiraCode-Regular" font-size="20.0" fill="#FFFFFF" transform="matrix(1.00, 0.00, -0.00, -1.00, 29.4, 106.0)">n</text><text xml:space="preserve" font-family="FiraCode-Regular" font-size="20.0" fill="#FFFFFF" transform="matrix(1.00, 0.00, -0.00, -1.00, 41.6, 106.0)">c</text><text xml:space="preserve" font-family="FiraCode-Regular" font-size="20.0" fill="#FFFFFF" transform="matrix(1.00, 0.00, -0.00, -1.00, 53.8, 106.0)">t</text><text xml:space="preserve" font-family="FiraCode-Regular" font-size="20.0" fill="#FFFFFF" transform="matrix(1.00, 0.00, -0.00, -1.00, 66.0, 106.0)">i</text><text xml:space="preserve" font-family="FiraCode-Regular" font-size="20.0" fill="#FFFFFF" transform="matrix(1.00, 0.00, -0.00, -1.00, 78.2, 106.0)">o</text><text xml:space="preserve" font-family="FiraCode-Regular" font-size="20.0" fill="#FFFFFF" transform="matrix(1.00, 0.00, -0.00, -1.00, 90.4, 106.0)">n</text><text xml:space="preserve" font-family="FiraCode-Regular" font-size="20.0" fill="#FFFFFF" transform="matrix(1.00, 0.00, -0.00, -1.00, 102.6, 106.0)">(</text><text xml:space="preserve" font-family="FiraCode-Regular" font-size="20.0" fill="#FFFFFF" transform="matrix(1.00, 0.00, -0.00, -1.00, 114.8, 106.0)">m</text><text xml:space="preserve" font-family="FiraCode-Regular" font-size="20.0" fill="#FFFFFF" transform="matrix(1.00, 0.00, -0.00, -1.00, 127.0, 106.0)">o</text><text xml:space="preserve" font-family="FiraCode-Regular" font-size="20.0" fill="#FFFFFF" transform="matrix(1.00, 0.00, -0.00, -1.00, 139.2, 106.0)">d</text><text xml:space="preserve" font-family="FiraCode-Regular" font-size="20.0" fill="#FFFFFF" transform="matrix(1.00, 0.00, -0.00, -1.00, 151.4, 106.0)">u</text><text xml:space="preserve" font-family="FiraCode-Regular" font-size="20.0" fill="#FFFFFF" transform="matrix(1.00, 0.00, -0.00, -1.00, 163.6, 106.0)">l</text><text xml:space="preserve" font-family="FiraCode-Regular" font-size="20.0" fill="#FFFFFF" transform="matrix(1.00, 0.00, -0.00, -1.00, 175.8, 106.0)">e</text><text xml:space="preserve" font-family="FiraCode-Regular" font-size="20.0" fill="#FFFFFF" transform="matrix(1.00, 0.00, -0.00, -1.00, 188.0, 106.0)">,</text><text xml:space="preserve" font-family="FiraCode-Regular" font-size="20.0" fill="#FFFFFF" transform="matrix(1.00, 0.00, -0.00, -1.00, 200.2, 106.0)"> </text><text xml:space="preserve" font-family="FiraCode-Regular" font-size="20.0" fill="#FFFFFF" transform="matrix(1.00, 0.00, -0.00, -1.00, 212.4, 106.0)">w</text><text xml:space="preserve" font-family="FiraCode-Regular" font-size="20.0" fill="#FFFFFF" transform="matrix(1.00, 0.00, -0.00, -1.00, 224.6, 106.0)">e</text><text xml:space="preserve" font-family="FiraCode-Regular" font-size="20.0" fill="#FFFFFF" transform="matrix(1.00, 0.00, -0.00, -1.00, 236.8, 106.0)">b</text><text xml:space="preserve" font-family="FiraCode-Regular" font-size="20.0" fill="#FFFFFF" transform="matrix(1.00, 0.00, -0.00, -1.00, 249.0, 106.0)">p</text><text xml:space="preserve" font-family="FiraCode-Regular" font-size="20.0" fill="#FFFFFF" transform="matrix(1.00, 0.00, -0.00, -1.00, 261.2, 106.0)">a</text><text xml:space="preserve" font-family="FiraCode-Regular" font-size="20.0" fill="#FFFFFF" transform="matrix(1.00, 0.00, -0.00, -1.00, 273.4, 106.0)">c</text><text xml:space="preserve" font-family="FiraCode-Regular" font-size="20.0" fill="#FFFFFF" transform="matrix(1.00, 0.00, -0.00, -1.00, 285.6, 106.0)">k</text><text xml:space="preserve" font-family="FiraCode-Regular" font-size="20.0" fill="#FFFFFF" transform="matrix(1.00, 0.00, -0.00, -1.00, 297.8, 106.0)">R</text><text xml:space="preserve" font-family="FiraCode-Regular" font-size="20.0" fill="#FFFFFF" transform="matrix(1.00, 0.00, -0.00, -1.00, 310.0, 106.0)">e</text><text xml:space="preserve" font-family="FiraCode-Regular" font-size="20.0" fill="#FFFFFF" transform="matrix(1.00, 0.00, -0.00, -1.00, 322.2, 106.0)">q</text><text xml:space="preserve" font-family="FiraCode-Regular" font-size="20.0" fill="#FFFFFF" transform="matrix(1.00, 0.00, -0.00, -1.00, 334.4, 106.0)">u</text><text xml:space="preserve" font-family="FiraCode-Regular" font-size="20.0" fill="#FFFFFF" transform="matrix(1.00, 0.00, -0.00, -1.00, 346.6, 106.0)">i</text><text xml:space="preserve" font-family="FiraCode-Regular" font-size="20.0" fill="#FFFFFF" transform="matrix(1.00, 0.00, -0.00, -1.00, 358.8, 106.0)">r</text><text xml:space="preserve" font-family="FiraCode-Regular" font-size="20.0" fill="#FFFFFF" transform="matrix(1.00, 0.00, -0.00, -1.00, 371.0, 106.0)">e</text><text xml:space="preserve" font-family="FiraCode-Regular" font-size="20.0" fill="#FFFFFF" transform="matrix(1.00, 0.00, -0.00, -1.00, 383.2, 106.0)">)</text><text xml:space="preserve" font-family="FiraCode-Regular" font-size="20.0" fill="#FFFFFF" transform="matrix(1.00, 0.00, -0.00, -1.00, 395.4, 106.0)"> </text><text xml:space="preserve" font-family="FiraCode-Regular" font-size="20.0" fill="#FFFFFF" transform="matrix(1.00, 0.00, -0.00, -1.00, 407.6, 106.0)">{</text><text xml:space="preserve" font-family="FiraCode-Regular" font-size="20.0" fill="#FFFFFF" transform="matrix(1.00, 0.00, -0.00, -1.00, 419.8, 106.0)"> </text><text xml:space="preserve" font-family="FiraCode-Regular" font-size="20.0" fill="#FFFFFF" transform="matrix(1.00, 0.00, -0.00, -1.00, 5.0, 82.0)"> </text><text xml:space="preserve" font-family="FiraCode-Regular" font-size="20.0" fill="#FFFFFF" transform="matrix(1.00, 0.00, -0.00, -1.00, 17.2, 82.0)"> </text><text xml:space="preserve" font-family="FiraCode-Regular" font-size="20.0" fill="#FFFFFF" transform="matrix(1.00, 0.00, -0.00, -1.00, 29.4, 82.0)">m</text><text xml:space="preserve" font-family="FiraCode-Regular" font-size="20.0" fill="#FFFFFF" transform="matrix(1.00, 0.00, -0.00, -1.00, 41.6, 82.0)">o</text><text xml:space="preserve" font-family="FiraCode-Regular" font-size="20.0" fill="#FFFFFF" transform="matrix(1.00, 0.00, -0.00, -1.00, 53.8, 82.0)">d</text><text xml:space="preserve" font-family="FiraCode-Regular" font-size="20.0" fill="#FFFFFF" transform="matrix(1.00, 0.00, -0.00, -1.00, 66.0, 82.0)">u</text><text xml:space="preserve" font-family="FiraCode-Regular" font-size="20.0" fill="#FFFFFF" transform="matrix(1.00, 0.00, -0.00, -1.00, 78.2, 82.0)">l</text><text xml:space="preserve" font-family="FiraCode-Regular" font-size="20.0" fill="#FFFFFF" transform="matrix(1.00, 0.00, -0.00, -1.00, 90.4, 82.0)">e</text><text xml:space="preserve" font-family="FiraCode-Regular" font-size="20.0" fill="#FFFFFF" transform="matrix(1.00, 0.00, -0.00, -1.00, 102.6, 82.0)">.</text><text xml:space="preserve" font-family="FiraCode-Regular" font-size="20.0" fill="#FFFFFF" transform="matrix(1.00, 0.00, -0.00, -1.00, 114.8, 82.0)">e</text><text xml:space="preserve" font-family="FiraCode-Regular" font-size="20.0" fill="#FFFFFF" transform="matrix(1.00, 0.00, -0.00, -1.00, 127.0, 82.0)">x</text><text xml:space="preserve" font-family="FiraCode-Regular" font-size="20.0" fill="#FFFFFF" transform="matrix(1.00, 0.00, -0.00, -1.00, 139.2, 82.0)">p</text><text xml:space="preserve" font-family="FiraCode-Regular" font-size="20.0" fill="#FFFFFF" transform="matrix(1.00, 0.00, -0.00, -1.00, 151.4, 82.0)">o</text><text xml:space="preserve" font-family="FiraCode-Regular" font-size="20.0" fill="#FFFFFF" transform="matrix(1.00, 0.00, -0.00, -1.00, 163.6, 82.0)">r</text><text xml:space="preserve" font-family="FiraCode-Regular" font-size="20.0" fill="#FFFFFF" transform="matrix(1.00, 0.00, -0.00, -1.00, 175.8, 82.0)">t</text><text xml:space="preserve" font-family="FiraCode-Regular" font-size="20.0" fill="#FFFFFF" transform="matrix(1.00, 0.00, -0.00, -1.00, 188.0, 82.0)">s</text><text xml:space="preserve" font-family="FiraCode-Regular" font-size="20.0" fill="#FFFFFF" transform="matrix(1.00, 0.00, -0.00, -1.00, 200.2, 82.0)"> </text><text xml:space="preserve" font-family="FiraCode-Regular" font-size="20.0" fill="#FFFFFF" transform="matrix(1.00, 0.00, -0.00, -1.00, 212.4, 82.0)">=</text><text xml:space="preserve" font-family="FiraCode-Regular" font-size="20.0" fill="#FFFFFF" transform="matrix(1.00, 0.00, -0.00, -1.00, 224.6, 82.0)"> </text><text xml:space="preserve" font-family="FiraCode-Regular" font-size="20.0" fill="#FFFFFF" transform="matrix(1.00, 0.00, -0.00, -1.00, 236.8, 82.0)">f</text><text xml:space="preserve" font-family="FiraCode-Regular" font-size="20.0" fill="#FFFFFF" transform="matrix(1.00, 0.00, -0.00, -1.00, 249.0, 82.0)">u</text><text xml:space="preserve" font-family="FiraCode-Regular" font-size="20.0" fill="#FFFFFF" transform="matrix(1.00, 0.00, -0.00, -1.00, 261.2, 82.0)">n</text><text xml:space="preserve" font-family="FiraCode-Regular" font-size="20.0" fill="#FFFFFF" transform="matrix(1.00, 0.00, -0.00, -1.00, 273.4, 82.0)">c</text><text xml:space="preserve" font-family="FiraCode-Regular" font-size="20.0" fill="#FFFFFF" transform="matrix(1.00, 0.00, -0.00, -1.00, 285.6, 82.0)">t</text><text xml:space="preserve" font-family="FiraCode-Regular" font-size="20.0" fill="#FFFFFF" transform="matrix(1.00, 0.00, -0.00, -1.00, 297.8, 82.0)">i</text><text xml:space="preserve" font-family="FiraCode-Regular" font-size="20.0" fill="#FFFFFF" transform="matrix(1.00, 0.00, -0.00, -1.00, 310.0, 82.0)">o</text><text xml:space="preserve" font-family="FiraCode-Regular" font-size="20.0" fill="#FFFFFF" transform="matrix(1.00, 0.00, -0.00, -1.00, 322.2, 82.0)">n</text><text xml:space="preserve" font-family="FiraCode-Regular" font-size="20.0" fill="#FFFFFF" transform="matrix(1.00, 0.00, -0.00, -1.00, 334.4, 82.0)"> </text><text xml:space="preserve" font-family="FiraCode-Regular" font-size="20.0" fill="#FFFFFF" transform="matrix(1.00, 0.00, -0.00, -1.00, 346.6, 82.0)">(</text><text xml:space="preserve" font-family="FiraCode-Regular" font-size="20.0" fill="#FFFFFF" transform="matrix(1.00, 0.00, -0.00, -1.00, 358.8, 82.0)">x</text><text xml:space="preserve" font-family="FiraCode-Regular" font-size="20.0" fill="#FFFFFF" transform="matrix(1.00, 0.00, -0.00, -1.00, 371.0, 82.0)">)</text><text xml:space="preserve" font-family="FiraCode-Regular" font-size="20.0" fill="#FFFFFF" transform="matrix(1.00, 0.00, -0.00, -1.00, 383.2, 82.0)"> </text><text xml:space="preserve" font-family="FiraCode-Regular" font-size="20.0" fill="#FFFFFF" transform="matrix(1.00, 0.00, -0.00, -1.00, 395.4, 82.0)">{</text><text xml:space="preserve" font-family="FiraCode-Regular" font-size="20.0" fill="#FFFFFF" transform="matrix(1.00, 0.00, -0.00, -1.00, 407.6, 82.0)"> </text><text xml:space="preserve" font-family="FiraCode-Regular" font-size="20.0" fill="#FFFFFF" transform="matrix(1.00, 0.00, -0.00, -1.00, 5.0, 58.0)"> </text><text xml:space="preserve" font-family="FiraCode-Regular" font-size="20.0" fill="#FFFFFF" transform="matrix(1.00, 0.00, -0.00, -1.00, 17.2, 58.0)"> </text><text xml:space="preserve" font-family="FiraCode-Regular" font-size="20.0" fill="#FFFFFF" transform="matrix(1.00, 0.00, -0.00, -1.00, 29.4, 58.0)"> </text><text xml:space="preserve" font-family="FiraCode-Regular" font-size="20.0" fill="#FFFFFF" transform="matrix(1.00, 0.00, -0.00, -1.00, 41.6, 58.0)"> </text><text xml:space="preserve" font-family="FiraCode-Regular" font-size="20.0" fill="#FFFFFF" transform="matrix(1.00, 0.00, -0.00, -1.00, 53.8, 58.0)">r</text><text xml:space="preserve" font-family="FiraCode-Regular" font-size="20.0" fill="#FFFFFF" transform="matrix(1.00, 0.00, -0.00, -1.00, 66.0, 58.0)">e</text><text xml:space="preserve" font-family="FiraCode-Regular" font-size="20.0" fill="#FFFFFF" transform="matrix(1.00, 0.00, -0.00, -1.00, 78.2, 58.0)">t</text><text xml:space="preserve" font-family="FiraCode-Regular" font-size="20.0" fill="#FFFFFF" transform="matrix(1.00, 0.00, -0.00, -1.00, 90.4, 58.0)">u</text><text xml:space="preserve" font-family="FiraCode-Regular" font-size="20.0" fill="#FFFFFF" transform="matrix(1.00, 0.00, -0.00, -1.00, 102.6, 58.0)">r</text><text xml:space="preserve" font-family="FiraCode-Regular" font-size="20.0" fill="#FFFFFF" transform="matrix(1.00, 0.00, -0.00, -1.00, 114.8, 58.0)">n</text><text xml:space="preserve" font-family="FiraCode-Regular" font-size="20.0" fill="#FFFFFF" transform="matrix(1.00, 0.00, -0.00, -1.00, 127.0, 58.0)"> </text><text xml:space="preserve" font-family="FiraCode-Regular" font-size="20.0" fill="#FFFFFF" transform="matrix(1.00, 0.00, -0.00, -1.00, 139.2, 58.0)">x</text><text xml:space="preserve" font-family="FiraCode-Regular" font-size="20.0" fill="#FFFFFF" transform="matrix(1.00, 0.00, -0.00, -1.00, 151.4, 58.0)"> </text><text xml:space="preserve" font-family="FiraCode-Regular" font-size="20.0" fill="#FFFFFF" transform="matrix(1.00, 0.00, -0.00, -1.00, 163.6, 58.0)">*</text><text xml:space="preserve" font-family="FiraCode-Regular" font-size="20.0" fill="#FFFFFF" transform="matrix(1.00, 0.00, -0.00, -1.00, 175.8, 58.0)"> </text><text xml:space="preserve" font-family="FiraCode-Regular" font-size="20.0" fill="#FFFFFF" transform="matrix(1.00, 0.00, -0.00, -1.00, 188.0, 58.0)">x</text><text xml:space="preserve" font-family="FiraCode-Regular" font-size="20.0" fill="#FFFFFF" transform="matrix(1.00, 0.00, -0.00, -1.00, 200.2, 58.0)">;</text><text xml:space="preserve" font-family="FiraCode-Regular" font-size="20.0" fill="#FFFFFF" transform="matrix(1.00, 0.00, -0.00, -1.00, 212.4, 58.0)"> </text><text xml:space="preserve" font-family="FiraCode-Regular" font-size="20.0" fill="#FFFFFF" transform="matrix(1.00, 0.00, -0.00, -1.00, 5.0, 34.0)"> </text><text xml:space="preserve" font-family="FiraCode-Regular" font-size="20.0" fill="#FFFFFF" transform="matrix(1.00, 0.00, -0.00, -1.00, 17.2, 34.0)"> </text><text xml:space="preserve" font-family="FiraCode-Regular" font-size="20.0" fill="#FFFFFF" transform="matrix(1.00, 0.00, -0.00, -1.00, 29.4, 34.0)">}</text><text xml:space="preserve" font-family="FiraCode-Regular" font-size="20.0" fill="#FFFFFF" transform="matrix(1.00, 0.00, -0.00, -1.00, 41.6, 34.0)">;</text><text xml:space="preserve" font-family="FiraCode-Regular" font-size="20.0" fill="#FFFFFF" transform="matrix(1.00, 0.00, -0.00, -1.00, 53.8, 34.0)"> </text><text xml:space="preserve" font-family="FiraCode-Regular" font-size="20.0" fill="#FFFFFF" transform="matrix(1.00, 0.00, -0.00, -1.00, 5.0, 10.0)">}</text></g></g></g></svg>