<?xml version="1.0" encoding="UTF-8" standalone="no"?><svg xmlns="http://www.w3.org/2000/svg" xmlns:xlink="http://www.w3.org/1999/xlink" clip-rule="evenodd" stroke-miterlimit="4.00" viewBox="0 0 465 124"><desc>SVG generated by Keynote</desc><defs></defs><g transform="matrix(1.00, 0.00, -0.00, -1.00, 0.0, 124.0)"><path d="M 1.5 122.8 L 463.4 122.8 L 463.4 1.8 L 1.5 1.8 Z M 1.5 122.8 " fill="#DF613B"></path><g><clipPath id="clip-2996"><path d="M 0.1 -0.6 L 464.8 -0.6 L 464.8 124.2 L 0.1 124.2 Z M 0.1 -0.6 "></path></clipPath><g clip-path="url(#clip-2996)"><text xml:space="preserve" font-family="FiraCode-Bold" font-weight="bold" font-size="18.0" fill="#CACACA" transform="matrix(1.00, 0.00, -0.00, -1.00, 16.0, 98.0)">/</text><text xml:space="preserve" font-family="FiraCode-Bold" font-weight="bold" font-size="18.0" fill="#CACACA" transform="matrix(1.00, 0.00, -0.00, -1.00, 27.0, 98.0)">/</text><text xml:space="preserve" font-family="FiraCode-Bold" font-weight="bold" font-size="18.0" fill="#CACACA" transform="matrix(1.00, 0.00, -0.00, -1.00, 37.9, 98.0)"> </text><text xml:space="preserve" font-family="FiraCode-Bold" font-weight="bold" font-size="18.0" fill="#CACACA" transform="matrix(1.00, 0.00, -0.00, -1.00, 48.9, 98.0)">i</text><text xml:space="preserve" font-family="FiraCode-Bold" font-weight="bold" font-size="18.0" fill="#CACACA" transform="matrix(1.00, 0.00, -0.00, -1.00, 59.9, 98.0)">n</text><text xml:space="preserve" font-family="FiraCode-Bold" font-weight="bold" font-size="18.0" fill="#CACACA" transform="matrix(1.00, 0.00, -0.00, -1.00, 70.9, 98.0)">d</text><text xml:space="preserve" font-family="FiraCode-Bold" font-weight="bold" font-size="18.0" fill="#CACACA" transform="matrix(1.00, 0.00, -0.00, -1.00, 81.9, 98.0)">e</text><text xml:space="preserve" font-family="FiraCode-Bold" font-weight="bold" font-size="18.0" fill="#CACACA" transform="matrix(1.00, 0.00, -0.00, -1.00, 92.8, 98.0)">x</text><text xml:space="preserve" font-family="FiraCode-Bold" font-weight="bold" font-size="18.0" fill="#CACACA" transform="matrix(1.00, 0.00, -0.00, -1.00, 103.8, 98.0)">.</text><text xml:space="preserve" font-family="FiraCode-Bold" font-weight="bold" font-size="18.0" fill="#CACACA" transform="matrix(1.00, 0.00, -0.00, -1.00, 114.8, 98.0)">j</text><text xml:space="preserve" font-family="FiraCode-Bold" font-weight="bold" font-size="18.0" fill="#CACACA" transform="matrix(1.00, 0.00, -0.00, -1.00, 125.8, 98.0)">s</text><text xml:space="preserve" font-family="FiraCode-Bold" font-weight="bold" font-size="18.0" fill="#CACACA" transform="matrix(1.00, 0.00, -0.00, -1.00, 136.8, 98.0)"> </text><text xml:space="preserve" font-family="FiraCode-Regular" font-size="18.0" fill="#FFFFFF" transform="matrix(1.00, 0.00, -0.00, -1.00, 5.0, 76.0)">f</text><text xml:space="preserve" font-family="FiraCode-Regular" font-size="18.0" fill="#FFFFFF" transform="matrix(1.00, 0.00, -0.00, -1.00, 16.0, 76.0)">u</text><text xml:space="preserve" font-family="FiraCode-Regular" font-size="18.0" fill="#FFFFFF" transform="matrix(1.00, 0.00, -0.00, -1.00, 27.0, 76.0)">n</text><text xml:space="preserve" font-family="FiraCode-Regular" font-size="18.0" fill="#FFFFFF" transform="matrix(1.00, 0.00, -0.00, -1.00, 37.9, 76.0)">c</text><text xml:space="preserve" font-family="FiraCode-Regular" font-size="18.0" fill="#FFFFFF" transform="matrix(1.00, 0.00, -0.00, -1.00, 48.9, 76.0)">t</text><text xml:space="preserve" font-family="FiraCode-Regular" font-size="18.0" fill="#FFFFFF" transform="matrix(1.00, 0.00, -0.00, -1.00, 59.9, 76.0)">i</text><text xml:space="preserve" font-family="FiraCode-Regular" font-size="18.0" fill="#FFFFFF" transform="matrix(1.00, 0.00, -0.00, -1.00, 70.9, 76.0)">o</text><text xml:space="preserve" font-family="FiraCode-Regular" font-size="18.0" fill="#FFFFFF" transform="matrix(1.00, 0.00, -0.00, -1.00, 81.9, 76.0)">n</text><text xml:space="preserve" font-family="FiraCode-Regular" font-size="18.0" fill="#FFFFFF" transform="matrix(1.00, 0.00, -0.00, -1.00, 92.8, 76.0)">(</text><text xml:space="preserve" font-family="FiraCode-Regular" font-size="18.0" fill="#FFFFFF" transform="matrix(1.00, 0.00, -0.00, -1.00, 103.8, 76.0)">m</text><text xml:space="preserve" font-family="FiraCode-Regular" font-size="18.0" fill="#FFFFFF" transform="matrix(1.00, 0.00, -0.00, -1.00, 114.8, 76.0)">o</text><text xml:space="preserve" font-family="FiraCode-Regular" font-size="18.0" fill="#FFFFFF" transform="matrix(1.00, 0.00, -0.00, -1.00, 125.8, 76.0)">d</text><text xml:space="preserve" font-family="FiraCode-Regular" font-size="18.0" fill="#FFFFFF" transform="matrix(1.00, 0.00, -0.00, -1.00, 136.8, 76.0)">u</text><text xml:space="preserve" font-family="FiraCode-Regular" font-size="18.0" fill="#FFFFFF" transform="matrix(1.00, 0.00, -0.00, -1.00, 147.7, 76.0)">l</text><text xml:space="preserve" font-family="FiraCode-Regular" font-size="18.0" fill="#FFFFFF" transform="matrix(1.00, 0.00, -0.00, -1.00, 158.7, 76.0)">e</text><text xml:space="preserve" font-family="FiraCode-Regular" font-size="18.0" fill="#FFFFFF" transform="matrix(1.00, 0.00, -0.00, -1.00, 169.7, 76.0)">,</text><text xml:space="preserve" font-family="FiraCode-Regular" font-size="18.0" fill="#FFFFFF" transform="matrix(1.00, 0.00, -0.00, -1.00, 180.7, 76.0)"> </text><text xml:space="preserve" font-family="FiraCode-Regular" font-size="18.0" fill="#FFFFFF" transform="matrix(1.00, 0.00, -0.00, -1.00, 191.7, 76.0)">w</text><text xml:space="preserve" font-family="FiraCode-Regular" font-size="18.0" fill="#FFFFFF" transform="matrix(1.00, 0.00, -0.00, -1.00, 202.6, 76.0)">e</text><text xml:space="preserve" font-family="FiraCode-Regular" font-size="18.0" fill="#FFFFFF" transform="matrix(1.00, 0.00, -0.00, -1.00, 213.6, 76.0)">b</text><text xml:space="preserve" font-family="FiraCode-Regular" font-size="18.0" fill="#FFFFFF" transform="matrix(1.00, 0.00, -0.00, -1.00, 224.6, 76.0)">p</text><text xml:space="preserve" font-family="FiraCode-Regular" font-size="18.0" fill="#FFFFFF" transform="matrix(1.00, 0.00, -0.00, -1.00, 235.6, 76.0)">a</text><text xml:space="preserve" font-family="FiraCode-Regular" font-size="18.0" fill="#FFFFFF" transform="matrix(1.00, 0.00, -0.00, -1.00, 246.6, 76.0)">c</text><text xml:space="preserve" font-family="FiraCode-Regular" font-size="18.0" fill="#FFFFFF" transform="matrix(1.00, 0.00, -0.00, -1.00, 257.5, 76.0)">k</text><text xml:space="preserve" font-family="FiraCode-Regular" font-size="18.0" fill="#FFFFFF" transform="matrix(1.00, 0.00, -0.00, -1.00, 268.5, 76.0)">R</text><text xml:space="preserve" font-family="FiraCode-Regular" font-size="18.0" fill="#FFFFFF" transform="matrix(1.00, 0.00, -0.00, -1.00, 279.5, 76.0)">e</text><text xml:space="preserve" font-family="FiraCode-Regular" font-size="18.0" fill="#FFFFFF" transform="matrix(1.00, 0.00, -0.00, -1.00, 290.5, 76.0)">q</text><text xml:space="preserve" font-family="FiraCode-Regular" font-size="18.0" fill="#FFFFFF" transform="matrix(1.00, 0.00, -0.00, -1.00, 301.5, 76.0)">u</text><text xml:space="preserve" font-family="FiraCode-Regular" font-size="18.0" fill="#FFFFFF" transform="matrix(1.00, 0.00, -0.00, -1.00, 312.4, 76.0)">i</text><text xml:space="preserve" font-family="FiraCode-Regular" font-size="18.0" fill="#FFFFFF" transform="matrix(1.00, 0.00, -0.00, -1.00, 323.4, 76.0)">r</text><text xml:space="preserve" font-family="FiraCode-Regular" font-size="18.0" fill="#FFFFFF" transform="matrix(1.00, 0.00, -0.00, -1.00, 334.4, 76.0)">e</text><text xml:space="preserve" font-family="FiraCode-Regular" font-size="18.0" fill="#FFFFFF" transform="matrix(1.00, 0.00, -0.00, -1.00, 345.4, 76.0)">)</text><text xml:space="preserve" font-family="FiraCode-Regular" font-size="18.0" fill="#FFFFFF" transform="matrix(1.00, 0.00, -0.00, -1.00, 356.4, 76.0)"> </text><text xml:space="preserve" font-family="FiraCode-Regular" font-size="18.0" fill="#FFFFFF" transform="matrix(1.00, 0.00, -0.00, -1.00, 367.3, 76.0)">{</text><text xml:space="preserve" font-family="FiraCode-Regular" font-size="18.0" fill="#FFFFFF" transform="matrix(1.00, 0.00, -0.00, -1.00, 378.3, 76.0)"> </text><text xml:space="preserve" font-family="FiraCode-Regular" font-size="18.0" fill="#FFFFFF" transform="matrix(1.00, 0.00, -0.00, -1.00, 5.0, 54.0)"> </text><text xml:space="preserve" font-family="FiraCode-Regular" font-size="18.0" fill="#FFFFFF" transform="matrix(1.00, 0.00, -0.00, -1.00, 16.0, 54.0)"> </text><text xml:space="preserve" font-family="FiraCode-Regular" font-size="18.0" fill="#FFFFFF" transform="matrix(1.00, 0.00, -0.00, -1.00, 27.0, 54.0)">v</text><text xml:space="preserve" font-family="FiraCode-Regular" font-size="18.0" fill="#FFFFFF" transform="matrix(1.00, 0.00, -0.00, -1.00, 37.9, 54.0)">a</text><text xml:space="preserve" font-family="FiraCode-Regular" font-size="18.0" fill="#FFFFFF" transform="matrix(1.00, 0.00, -0.00, -1.00, 48.9, 54.0)">r</text><text xml:space="preserve" font-family="FiraCode-Regular" font-size="18.0" fill="#FFFFFF" transform="matrix(1.00, 0.00, -0.00, -1.00, 59.9, 54.0)"> </text><text xml:space="preserve" font-family="FiraCode-Regular" font-size="18.0" fill="#FFFFFF" transform="matrix(1.00, 0.00, -0.00, -1.00, 70.9, 54.0)">h</text><text xml:space="preserve" font-family="FiraCode-Regular" font-size="18.0" fill="#FFFFFF" transform="matrix(1.00, 0.00, -0.00, -1.00, 81.9, 54.0)">y</text><text xml:space="preserve" font-family="FiraCode-Regular" font-size="18.0" fill="#FFFFFF" transform="matrix(1.00, 0.00, -0.00, -1.00, 92.8, 54.0)">p</text><text xml:space="preserve" font-family="FiraCode-Regular" font-size="18.0" fill="#FFFFFF" transform="matrix(1.00, 0.00, -0.00, -1.00, 103.8, 54.0)">o</text><text xml:space="preserve" font-family="FiraCode-Regular" font-size="18.0" fill="#FFFFFF" transform="matrix(1.00, 0.00, -0.00, -1.00, 114.8, 54.0)">t</text><text xml:space="preserve" font-family="FiraCode-Regular" font-size="18.0" fill="#FFFFFF" transform="matrix(1.00, 0.00, -0.00, -1.00, 125.8, 54.0)">e</text><text xml:space="preserve" font-family="FiraCode-Regular" font-size="18.0" fill="#FFFFFF" transform="matrix(1.00, 0.00, -0.00, -1.00, 136.8, 54.0)">n</text><text xml:space="preserve" font-family="FiraCode-Regular" font-size="18.0" fill="#FFFFFF" transform="matrix(1.00, 0.00, -0.00, -1.00, 147.7, 54.0)">u</text><text xml:space="preserve" font-family="FiraCode-Regular" font-size="18.0" fill="#FFFFFF" transform="matrix(1.00, 0.00, -0.00, -1.00, 158.7, 54.0)">s</text><text xml:space="preserve" font-family="FiraCode-Regular" font-size="18.0" fill="#FFFFFF" transform="matrix(1.00, 0.00, -0.00, -1.00, 169.7, 54.0)">e</text><text xml:space="preserve" font-family="FiraCode-Regular" font-size="18.0" fill="#FFFFFF" transform="matrix(1.00, 0.00, -0.00, -1.00, 180.7, 54.0)"> </text><text xml:space="preserve" font-family="FiraCode-Regular" font-size="18.0" fill="#FFFFFF" transform="matrix(1.00, 0.00, -0.00, -1.00, 191.7, 54.0)">=</text><text xml:space="preserve" font-family="FiraCode-Regular" font-size="18.0" fill="#FFFFFF" transform="matrix(1.00, 0.00, -0.00, -1.00, 202.6, 54.0)"> </text><text xml:space="preserve" font-family="FiraCode-Regular" font-size="18.0" fill="#FFFFFF" transform="matrix(1.00, 0.00, -0.00, -1.00, 213.6, 54.0)">w</text><text xml:space="preserve" font-family="FiraCode-Regular" font-size="18.0" fill="#FFFFFF" transform="matrix(1.00, 0.00, -0.00, -1.00, 224.6, 54.0)">e</text><text xml:space="preserve" font-family="FiraCode-Regular" font-size="18.0" fill="#FFFFFF" transform="matrix(1.00, 0.00, -0.00, -1.00, 235.6, 54.0)">b</text><text xml:space="preserve" font-family="FiraCode-Regular" font-size="18.0" fill="#FFFFFF" transform="matrix(1.00, 0.00, -0.00, -1.00, 246.6, 54.0)">p</text><text xml:space="preserve" font-family="FiraCode-Regular" font-size="18.0" fill="#FFFFFF" transform="matrix(1.00, 0.00, -0.00, -1.00, 257.5, 54.0)">a</text><text xml:space="preserve" font-family="FiraCode-Regular" font-size="18.0" fill="#FFFFFF" transform="matrix(1.00, 0.00, -0.00, -1.00, 268.5, 54.0)">c</text><text xml:space="preserve" font-family="FiraCode-Regular" font-size="18.0" fill="#FFFFFF" transform="matrix(1.00, 0.00, -0.00, -1.00, 279.5, 54.0)">k</text><text xml:space="preserve" font-family="FiraCode-Regular" font-size="18.0" fill="#FFFFFF" transform="matrix(1.00, 0.00, -0.00, -1.00, 290.5, 54.0)">R</text><text xml:space="preserve" font-family="FiraCode-Regular" font-size="18.0" fill="#FFFFFF" transform="matrix(1.00, 0.00, -0.00, -1.00, 301.5, 54.0)">e</text><text xml:space="preserve" font-family="FiraCode-Regular" font-size="18.0" fill="#FFFFFF" transform="matrix(1.00, 0.00, -0.00, -1.00, 312.4, 54.0)">q</text><text xml:space="preserve" font-family="FiraCode-Regular" font-size="18.0" fill="#FFFFFF" transform="matrix(1.00, 0.00, -0.00, -1.00, 323.4, 54.0)">u</text><text xml:space="preserve" font-family="FiraCode-Regular" font-size="18.0" fill="#FFFFFF" transform="matrix(1.00, 0.00, -0.00, -1.00, 334.4, 54.0)">i</text><text xml:space="preserve" font-family="FiraCode-Regular" font-size="18.0" fill="#FFFFFF" transform="matrix(1.00, 0.00, -0.00, -1.00, 345.4, 54.0)">r</text><text xml:space="preserve" font-family="FiraCode-Regular" font-size="18.0" fill="#FFFFFF" transform="matrix(1.00, 0.00, -0.00, -1.00, 356.4, 54.0)">e</text><text xml:space="preserve" font-family="FiraCode-Regular" font-size="18.0" fill="#FFFFFF" transform="matrix(1.00, 0.00, -0.00, -1.00, 367.3, 54.0)">(</text><text xml:space="preserve" font-family="FiraCode-Regular" font-size="18.0" fill="#FFFFFF" transform="matrix(1.00, 0.00, -0.00, -1.00, 378.3, 54.0)">1</text><text xml:space="preserve" font-family="FiraCode-Regular" font-size="18.0" fill="#FFFFFF" transform="matrix(1.00, 0.00, -0.00, -1.00, 389.3, 54.0)">)</text><text xml:space="preserve" font-family="FiraCode-Regular" font-size="18.0" fill="#FFFFFF" transform="matrix(1.00, 0.00, -0.00, -1.00, 400.3, 54.0)">;</text><text xml:space="preserve" font-family="FiraCode-Regular" font-size="18.0" fill="#FFFFFF" transform="matrix(1.00, 0.00, -0.00, -1.00, 411.3, 54.0)"> </text><text xml:space="preserve" font-family="FiraCode-Regular" font-size="18.0" fill="#FFFFFF" transform="matrix(1.00, 0.00, -0.00, -1.00, 5.0, 32.0)"> </text><text xml:space="preserve" font-family="FiraCode-Regular" font-size="18.0" fill="#FFFFFF" transform="matrix(1.00, 0.00, -0.00, -1.00, 16.0, 32.0)"> </text><text xml:space="preserve" font-family="FiraCode-Regular" font-size="18.0" fill="#FFFFFF" transform="matrix(1.00, 0.00, -0.00, -1.00, 27.0, 32.0)">c</text><text xml:space="preserve" font-family="FiraCode-Regular" font-size="18.0" fill="#FFFFFF" transform="matrix(1.00, 0.00, -0.00, -1.00, 37.9, 32.0)">o</text><text xml:space="preserve" font-family="FiraCode-Regular" font-size="18.0" fill="#FFFFFF" transform="matrix(1.00, 0.00, -0.00, -1.00, 48.9, 32.0)">n</text><text xml:space="preserve" font-family="FiraCode-Regular" font-size="18.0" fill="#FFFFFF" transform="matrix(1.00, 0.00, -0.00, -1.00, 59.9, 32.0)">s</text><text xml:space="preserve" font-family="FiraCode-Regular" font-size="18.0" fill="#FFFFFF" transform="matrix(1.00, 0.00, -0.00, -1.00, 70.9, 32.0)">o</text><text xml:space="preserve" font-family="FiraCode-Regular" font-size="18.0" fill="#FFFFFF" transform="matrix(1.00, 0.00, -0.00, -1.00, 81.9, 32.0)">l</text><text xml:space="preserve" font-family="FiraCode-Regular" font-size="18.0" fill="#FFFFFF" transform="matrix(1.00, 0.00, -0.00, -1.00, 92.8, 32.0)">e</text><text xml:space="preserve" font-family="FiraCode-Regular" font-size="18.0" fill="#FFFFFF" transform="matrix(1.00, 0.00, -0.00, -1.00, 103.8, 32.0)">.</text><text xml:space="preserve" font-family="FiraCode-Regular" font-size="18.0" fill="#FFFFFF" transform="matrix(1.00, 0.00, -0.00, -1.00, 114.8, 32.0)">l</text><text xml:space="preserve" font-family="FiraCode-Regular" font-size="18.0" fill="#FFFFFF" transform="matrix(1.00, 0.00, -0.00, -1.00, 125.8, 32.0)">o</text><text xml:space="preserve" font-family="FiraCode-Regular" font-size="18.0" fill="#FFFFFF" transform="matrix(1.00, 0.00, -0.00, -1.00, 136.8, 32.0)">g</text><text xml:space="preserve" font-family="FiraCode-Regular" font-size="18.0" fill="#FFFFFF" transform="matrix(1.00, 0.00, -0.00, -1.00, 147.7, 32.0)">(</text><text xml:space="preserve" font-family="FiraCode-Regular" font-size="18.0" fill="#FFFFFF" transform="matrix(1.00, 0.00, -0.00, -1.00, 158.7, 32.0)">h</text><text xml:space="preserve" font-family="FiraCode-Regular" font-size="18.0" fill="#FFFFFF" transform="matrix(1.00, 0.00, -0.00, -1.00, 169.7, 32.0)">y</text><text xml:space="preserve" font-family="FiraCode-Regular" font-size="18.0" fill="#FFFFFF" transform="matrix(1.00, 0.00, -0.00, -1.00, 180.7, 32.0)">p</text><text xml:space="preserve" font-family="FiraCode-Regular" font-size="18.0" fill="#FFFFFF" transform="matrix(1.00, 0.00, -0.00, -1.00, 191.7, 32.0)">o</text><text xml:space="preserve" font-family="FiraCode-Regular" font-size="18.0" fill="#FFFFFF" transform="matrix(1.00, 0.00, -0.00, -1.00, 202.6, 32.0)">t</text><text xml:space="preserve" font-family="FiraCode-Regular" font-size="18.0" fill="#FFFFFF" transform="matrix(1.00, 0.00, -0.00, -1.00, 213.6, 32.0)">e</text><text xml:space="preserve" font-family="FiraCode-Regular" font-size="18.0" fill="#FFFFFF" transform="matrix(1.00, 0.00, -0.00, -1.00, 224.6, 32.0)">n</text><text xml:space="preserve" font-family="FiraCode-Regular" font-size="18.0" fill="#FFFFFF" transform="matrix(1.00, 0.00, -0.00, -1.00, 235.6, 32.0)">u</text><text xml:space="preserve" font-family="FiraCode-Regular" font-size="18.0" fill="#FFFFFF" transform="matrix(1.00, 0.00, -0.00, -1.00, 246.6, 32.0)">s</text><text xml:space="preserve" font-family="FiraCode-Regular" font-size="18.0" fill="#FFFFFF" transform="matrix(1.00, 0.00, -0.00, -1.00, 257.5, 32.0)">e</text><text xml:space="preserve" font-family="FiraCode-Regular" font-size="18.0" fill="#FFFFFF" transform="matrix(1.00, 0.00, -0.00, -1.00, 268.5, 32.0)">(</text><text xml:space="preserve" font-family="FiraCode-Regular" font-size="18.0" fill="#FFFFFF" transform="matrix(1.00, 0.00, -0.00, -1.00, 279.5, 32.0)">3</text><text xml:space="preserve" font-family="FiraCode-Regular" font-size="18.0" fill="#FFFFFF" transform="matrix(1.00, 0.00, -0.00, -1.00, 290.5, 32.0)">,</text><text xml:space="preserve" font-family="FiraCode-Regular" font-size="18.0" fill="#FFFFFF" transform="matrix(1.00, 0.00, -0.00, -1.00, 301.5, 32.0)"> </text><text xml:space="preserve" font-family="FiraCode-Regular" font-size="18.0" fill="#FFFFFF" transform="matrix(1.00, 0.00, -0.00, -1.00, 312.4, 32.0)">4</text><text xml:space="preserve" font-family="FiraCode-Regular" font-size="18.0" fill="#FFFFFF" transform="matrix(1.00, 0.00, -0.00, -1.00, 323.4, 32.0)">)</text><text xml:space="preserve" font-family="FiraCode-Regular" font-size="18.0" fill="#FFFFFF" transform="matrix(1.00, 0.00, -0.00, -1.00, 334.4, 32.0)">;</text><text xml:space="preserve" font-family="FiraCode-Regular" font-size="18.0" fill="#FFFFFF" transform="matrix(1.00, 0.00, -0.00, -1.00, 345.4, 32.0)"> </text></g></g><g><clipPath id="clip-2997"><path d="M 0.1 5.8 L 464.8 5.8 L 464.8 118.8 L 0.1 118.8 Z M 0.1 5.8 "></path></clipPath><g clip-path="url(#clip-2997)"><text xml:space="preserve" font-family="FiraCode-Regular" font-size="18.0" fill="#FFFFFF" transform="matrix(1.00, 0.00, -0.00, -1.00, 5.0, 10.0)">}</text></g></g></g></svg>