<?xml version="1.0" encoding="UTF-8" standalone="no"?><svg xmlns="http://www.w3.org/2000/svg" xmlns:xlink="http://www.w3.org/1999/xlink" clip-rule="evenodd" stroke-miterlimit="4.00" viewBox="0 0 613 758"><desc>SVG generated by Keynote</desc><defs></defs><g transform="matrix(1.00, 0.00, -0.00, -1.00, 0.0, 758.0)"><path d="M 0.0 0.0 L 607.4 0.0 L 607.4 753.0 L 0.0 753.0 Z M 0.0 0.0 " fill="none" stroke="#FEFFFF" stroke-width="2.00" transform="matrix(1.00, 0.00, 0.00, -1.00, 2.7, 756.0)"></path><g><clipPath id="clip-2238"><path d="M 0.8 1.1 L 612.0 1.1 L 612.0 757.9 L 0.8 757.9 Z M 0.8 1.1 "></path></clipPath><g clip-path="url(#clip-2238)"><text xml:space="preserve" font-family="FiraCode-Regular" font-size="23.0" fill="#FFFFFF" transform="matrix(1.00, 0.00, -0.00, -1.00, 8.0, 729.0)">(</text><text xml:space="preserve" font-family="FiraCode-Regular" font-size="23.0" fill="#FFFFFF" transform="matrix(1.00, 0.00, -0.00, -1.00, 22.0, 729.0)">f</text><text xml:space="preserve" font-family="FiraCode-Regular" font-size="23.0" fill="#FFFFFF" transform="matrix(1.00, 0.00, -0.00, -1.00, 36.1, 729.0)">u</text><text xml:space="preserve" font-family="FiraCode-Regular" font-size="23.0" fill="#FFFFFF" transform="matrix(1.00, 0.00, -0.00, -1.00, 50.1, 729.0)">n</text><text xml:space="preserve" font-family="FiraCode-Regular" font-size="23.0" fill="#FFFFFF" transform="matrix(1.00, 0.00, -0.00, -1.00, 64.1, 729.0)">c</text><text xml:space="preserve" font-family="FiraCode-Regular" font-size="23.0" fill="#FFFFFF" transform="matrix(1.00, 0.00, -0.00, -1.00, 78.1, 729.0)">t</text><text xml:space="preserve" font-family="FiraCode-Regular" font-size="23.0" fill="#FFFFFF" transform="matrix(1.00, 0.00, -0.00, -1.00, 92.2, 729.0)">i</text><text xml:space="preserve" font-family="FiraCode-Regular" font-size="23.0" fill="#FFFFFF" transform="matrix(1.00, 0.00, -0.00, -1.00, 106.2, 729.0)">o</text><text xml:space="preserve" font-family="FiraCode-Regular" font-size="23.0" fill="#FFFFFF" transform="matrix(1.00, 0.00, -0.00, -1.00, 120.2, 729.0)">n</text><text xml:space="preserve" font-family="FiraCode-Regular" font-size="23.0" fill="#FFFFFF" transform="matrix(1.00, 0.00, -0.00, -1.00, 134.3, 729.0)">(</text><text xml:space="preserve" font-family="FiraCode-Regular" font-size="23.0" fill="#FFFFFF" transform="matrix(1.00, 0.00, -0.00, -1.00, 148.3, 729.0)">m</text><text xml:space="preserve" font-family="FiraCode-Regular" font-size="23.0" fill="#FFFFFF" transform="matrix(1.00, 0.00, -0.00, -1.00, 162.3, 729.0)">o</text><text xml:space="preserve" font-family="FiraCode-Regular" font-size="23.0" fill="#FFFFFF" transform="matrix(1.00, 0.00, -0.00, -1.00, 176.4, 729.0)">d</text><text xml:space="preserve" font-family="FiraCode-Regular" font-size="23.0" fill="#FFFFFF" transform="matrix(1.00, 0.00, -0.00, -1.00, 190.4, 729.0)">u</text><text xml:space="preserve" font-family="FiraCode-Regular" font-size="23.0" fill="#FFFFFF" transform="matrix(1.00, 0.00, -0.00, -1.00, 204.4, 729.0)">l</text><text xml:space="preserve" font-family="FiraCode-Regular" font-size="23.0" fill="#FFFFFF" transform="matrix(1.00, 0.00, -0.00, -1.00, 218.4, 729.0)">e</text><text xml:space="preserve" font-family="FiraCode-Regular" font-size="23.0" fill="#FFFFFF" transform="matrix(1.00, 0.00, -0.00, -1.00, 232.5, 729.0)">A</text><text xml:space="preserve" font-family="FiraCode-Regular" font-size="23.0" fill="#FFFFFF" transform="matrix(1.00, 0.00, -0.00, -1.00, 246.5, 729.0)">r</text><text xml:space="preserve" font-family="FiraCode-Regular" font-size="23.0" fill="#FFFFFF" transform="matrix(1.00, 0.00, -0.00, -1.00, 260.5, 729.0)">r</text><text xml:space="preserve" font-family="FiraCode-Regular" font-size="23.0" fill="#FFFFFF" transform="matrix(1.00, 0.00, -0.00, -1.00, 274.6, 729.0)">a</text><text xml:space="preserve" font-family="FiraCode-Regular" font-size="23.0" fill="#FFFFFF" transform="matrix(1.00, 0.00, -0.00, -1.00, 288.6, 729.0)">y</text><text xml:space="preserve" font-family="FiraCode-Regular" font-size="23.0" fill="#FFFFFF" transform="matrix(1.00, 0.00, -0.00, -1.00, 302.6, 729.0)">)</text><text xml:space="preserve" font-family="FiraCode-Regular" font-size="23.0" fill="#FFFFFF" transform="matrix(1.00, 0.00, -0.00, -1.00, 316.7, 729.0)"> </text><text xml:space="preserve" font-family="FiraCode-Regular" font-size="23.0" fill="#FFFFFF" transform="matrix(1.00, 0.00, -0.00, -1.00, 330.7, 729.0)">{</text><text xml:space="preserve" font-family="FiraCode-Regular" font-size="23.0" fill="#FFFFFF" transform="matrix(1.00, 0.00, -0.00, -1.00, 344.7, 729.0)"> </text><text xml:space="preserve" font-family="FiraCode-Regular" font-size="23.0" fill="#FFFFFF" transform="matrix(1.00, 0.00, -0.00, -1.00, 8.0, 701.0)"> </text><text xml:space="preserve" font-family="FiraCode-Regular" font-size="23.0" fill="#FFFFFF" transform="matrix(1.00, 0.00, -0.00, -1.00, 54.0, 701.0)">f</text><text xml:space="preserve" font-family="FiraCode-Regular" font-size="23.0" fill="#FFFFFF" transform="matrix(1.00, 0.00, -0.00, -1.00, 68.0, 701.0)">u</text><text xml:space="preserve" font-family="FiraCode-Regular" font-size="23.0" fill="#FFFFFF" transform="matrix(1.00, 0.00, -0.00, -1.00, 82.1, 701.0)">n</text><text xml:space="preserve" font-family="FiraCode-Regular" font-size="23.0" fill="#FFFFFF" transform="matrix(1.00, 0.00, -0.00, -1.00, 96.1, 701.0)">c</text><text xml:space="preserve" font-family="FiraCode-Regular" font-size="23.0" fill="#FFFFFF" transform="matrix(1.00, 0.00, -0.00, -1.00, 110.1, 701.0)">t</text><text xml:space="preserve" font-family="FiraCode-Regular" font-size="23.0" fill="#FFFFFF" transform="matrix(1.00, 0.00, -0.00, -1.00, 124.1, 701.0)">i</text><text xml:space="preserve" font-family="FiraCode-Regular" font-size="23.0" fill="#FFFFFF" transform="matrix(1.00, 0.00, -0.00, -1.00, 138.2, 701.0)">o</text><text xml:space="preserve" font-family="FiraCode-Regular" font-size="23.0" fill="#FFFFFF" transform="matrix(1.00, 0.00, -0.00, -1.00, 152.2, 701.0)">n</text><text xml:space="preserve" font-family="FiraCode-Regular" font-size="23.0" fill="#FFFFFF" transform="matrix(1.00, 0.00, -0.00, -1.00, 166.2, 701.0)"> </text><text xml:space="preserve" font-family="FiraCode-Regular" font-size="23.0" fill="#FFFFFF" transform="matrix(1.00, 0.00, -0.00, -1.00, 180.3, 701.0)">w</text><text xml:space="preserve" font-family="FiraCode-Regular" font-size="23.0" fill="#FFFFFF" transform="matrix(1.00, 0.00, -0.00, -1.00, 194.3, 701.0)">e</text><text xml:space="preserve" font-family="FiraCode-Regular" font-size="23.0" fill="#FFFFFF" transform="matrix(1.00, 0.00, -0.00, -1.00, 208.3, 701.0)">b</text><text xml:space="preserve" font-family="FiraCode-Regular" font-size="23.0" fill="#FFFFFF" transform="matrix(1.00, 0.00, -0.00, -1.00, 222.4, 701.0)">p</text><text xml:space="preserve" font-family="FiraCode-Regular" font-size="23.0" fill="#FFFFFF" transform="matrix(1.00, 0.00, -0.00, -1.00, 236.4, 701.0)">a</text><text xml:space="preserve" font-family="FiraCode-Regular" font-size="23.0" fill="#FFFFFF" transform="matrix(1.00, 0.00, -0.00, -1.00, 250.4, 701.0)">c</text><text xml:space="preserve" font-family="FiraCode-Regular" font-size="23.0" fill="#FFFFFF" transform="matrix(1.00, 0.00, -0.00, -1.00, 264.4, 701.0)">k</text><text xml:space="preserve" font-family="FiraCode-Regular" font-size="23.0" fill="#FFFFFF" transform="matrix(1.00, 0.00, -0.00, -1.00, 278.5, 701.0)">R</text><text xml:space="preserve" font-family="FiraCode-Regular" font-size="23.0" fill="#FFFFFF" transform="matrix(1.00, 0.00, -0.00, -1.00, 292.5, 701.0)">e</text><text xml:space="preserve" font-family="FiraCode-Regular" font-size="23.0" fill="#FFFFFF" transform="matrix(1.00, 0.00, -0.00, -1.00, 306.5, 701.0)">q</text><text xml:space="preserve" font-family="FiraCode-Regular" font-size="23.0" fill="#FFFFFF" transform="matrix(1.00, 0.00, -0.00, -1.00, 320.6, 701.0)">u</text><text xml:space="preserve" font-family="FiraCode-Regular" font-size="23.0" fill="#FFFFFF" transform="matrix(1.00, 0.00, -0.00, -1.00, 334.6, 701.0)">i</text><text xml:space="preserve" font-family="FiraCode-Regular" font-size="23.0" fill="#FFFFFF" transform="matrix(1.00, 0.00, -0.00, -1.00, 348.6, 701.0)">r</text><text xml:space="preserve" font-family="FiraCode-Regular" font-size="23.0" fill="#FFFFFF" transform="matrix(1.00, 0.00, -0.00, -1.00, 362.7, 701.0)">e</text><text xml:space="preserve" font-family="FiraCode-Regular" font-size="23.0" fill="#FFFFFF" transform="matrix(1.00, 0.00, -0.00, -1.00, 376.7, 701.0)">(</text><text xml:space="preserve" font-family="FiraCode-Regular" font-size="23.0" fill="#FFFFFF" transform="matrix(1.00, 0.00, -0.00, -1.00, 390.7, 701.0)">i</text><text xml:space="preserve" font-family="FiraCode-Regular" font-size="23.0" fill="#FFFFFF" transform="matrix(1.00, 0.00, -0.00, -1.00, 404.7, 701.0)">n</text><text xml:space="preserve" font-family="FiraCode-Regular" font-size="23.0" fill="#FFFFFF" transform="matrix(1.00, 0.00, -0.00, -1.00, 418.8, 701.0)">d</text><text xml:space="preserve" font-family="FiraCode-Regular" font-size="23.0" fill="#FFFFFF" transform="matrix(1.00, 0.00, -0.00, -1.00, 432.8, 701.0)">e</text><text xml:space="preserve" font-family="FiraCode-Regular" font-size="23.0" fill="#FFFFFF" transform="matrix(1.00, 0.00, -0.00, -1.00, 446.8, 701.0)">x</text><text xml:space="preserve" font-family="FiraCode-Regular" font-size="23.0" fill="#FFFFFF" transform="matrix(1.00, 0.00, -0.00, -1.00, 460.9, 701.0)">)</text><text xml:space="preserve" font-family="FiraCode-Regular" font-size="23.0" fill="#FFFFFF" transform="matrix(1.00, 0.00, -0.00, -1.00, 474.9, 701.0)"> </text><text xml:space="preserve" font-family="FiraCode-Regular" font-size="23.0" fill="#FFFFFF" transform="matrix(1.00, 0.00, -0.00, -1.00, 488.9, 701.0)">{</text><text xml:space="preserve" font-family="FiraCode-Regular" font-size="23.0" fill="#FFFFFF" transform="matrix(1.00, 0.00, -0.00, -1.00, 503.0, 701.0)"> </text><text xml:space="preserve" font-family="FiraCode-Regular" font-size="23.0" fill="#FFFFFF" transform="matrix(1.00, 0.00, -0.00, -1.00, 8.0, 673.0)"> </text><text xml:space="preserve" font-family="FiraCode-Regular" font-size="23.0" fill="#FFFFFF" transform="matrix(1.00, 0.00, -0.00, -1.00, 54.0, 673.0)"> </text><text xml:space="preserve" font-family="FiraCode-Regular" font-size="23.0" fill="#FFFFFF" transform="matrix(1.00, 0.00, -0.00, -1.00, 100.0, 673.0)">v</text><text xml:space="preserve" font-family="FiraCode-Regular" font-size="23.0" fill="#FFFFFF" transform="matrix(1.00, 0.00, -0.00, -1.00, 114.0, 673.0)">a</text><text xml:space="preserve" font-family="FiraCode-Regular" font-size="23.0" fill="#FFFFFF" transform="matrix(1.00, 0.00, -0.00, -1.00, 128.1, 673.0)">r</text><text xml:space="preserve" font-family="FiraCode-Regular" font-size="23.0" fill="#FFFFFF" transform="matrix(1.00, 0.00, -0.00, -1.00, 142.1, 673.0)"> </text><text xml:space="preserve" font-family="FiraCode-Regular" font-size="23.0" fill="#FFFFFF" transform="matrix(1.00, 0.00, -0.00, -1.00, 156.1, 673.0)">m</text><text xml:space="preserve" font-family="FiraCode-Regular" font-size="23.0" fill="#FFFFFF" transform="matrix(1.00, 0.00, -0.00, -1.00, 170.1, 673.0)">o</text><text xml:space="preserve" font-family="FiraCode-Regular" font-size="23.0" fill="#FFFFFF" transform="matrix(1.00, 0.00, -0.00, -1.00, 184.2, 673.0)">d</text><text xml:space="preserve" font-family="FiraCode-Regular" font-size="23.0" fill="#FFFFFF" transform="matrix(1.00, 0.00, -0.00, -1.00, 198.2, 673.0)">u</text><text xml:space="preserve" font-family="FiraCode-Regular" font-size="23.0" fill="#FFFFFF" transform="matrix(1.00, 0.00, -0.00, -1.00, 212.2, 673.0)">l</text><text xml:space="preserve" font-family="FiraCode-Regular" font-size="23.0" fill="#FFFFFF" transform="matrix(1.00, 0.00, -0.00, -1.00, 226.3, 673.0)">e</text><text xml:space="preserve" font-family="FiraCode-Regular" font-size="23.0" fill="#FFFFFF" transform="matrix(1.00, 0.00, -0.00, -1.00, 240.3, 673.0)"> </text><text xml:space="preserve" font-family="FiraCode-Regular" font-size="23.0" fill="#FFFFFF" transform="matrix(1.00, 0.00, -0.00, -1.00, 254.3, 673.0)">=</text><text xml:space="preserve" font-family="FiraCode-Regular" font-size="23.0" fill="#FFFFFF" transform="matrix(1.00, 0.00, -0.00, -1.00, 268.4, 673.0)"> </text><text xml:space="preserve" font-family="FiraCode-Regular" font-size="23.0" fill="#FFFFFF" transform="matrix(1.00, 0.00, -0.00, -1.00, 282.4, 673.0)">{</text><text xml:space="preserve" font-family="FiraCode-Regular" font-size="23.0" fill="#FFFFFF" transform="matrix(1.00, 0.00, -0.00, -1.00, 296.4, 673.0)"> </text><text xml:space="preserve" font-family="FiraCode-Regular" font-size="23.0" fill="#FFFFFF" transform="matrix(1.00, 0.00, -0.00, -1.00, 310.4, 673.0)">e</text><text xml:space="preserve" font-family="FiraCode-Regular" font-size="23.0" fill="#FFFFFF" transform="matrix(1.00, 0.00, -0.00, -1.00, 324.5, 673.0)">x</text><text xml:space="preserve" font-family="FiraCode-Regular" font-size="23.0" fill="#FFFFFF" transform="matrix(1.00, 0.00, -0.00, -1.00, 338.5, 673.0)">p</text><text xml:space="preserve" font-family="FiraCode-Regular" font-size="23.0" fill="#FFFFFF" transform="matrix(1.00, 0.00, -0.00, -1.00, 352.5, 673.0)">o</text><text xml:space="preserve" font-family="FiraCode-Regular" font-size="23.0" fill="#FFFFFF" transform="matrix(1.00, 0.00, -0.00, -1.00, 366.6, 673.0)">r</text><text xml:space="preserve" font-family="FiraCode-Regular" font-size="23.0" fill="#FFFFFF" transform="matrix(1.00, 0.00, -0.00, -1.00, 380.6, 673.0)">t</text><text xml:space="preserve" font-family="FiraCode-Regular" font-size="23.0" fill="#FFFFFF" transform="matrix(1.00, 0.00, -0.00, -1.00, 394.6, 673.0)">s</text><text xml:space="preserve" font-family="FiraCode-Regular" font-size="23.0" fill="#FFFFFF" transform="matrix(1.00, 0.00, -0.00, -1.00, 408.7, 673.0)">:</text><text xml:space="preserve" font-family="FiraCode-Regular" font-size="23.0" fill="#FFFFFF" transform="matrix(1.00, 0.00, -0.00, -1.00, 422.7, 673.0)"> </text><text xml:space="preserve" font-family="FiraCode-Regular" font-size="23.0" fill="#FFFFFF" transform="matrix(1.00, 0.00, -0.00, -1.00, 436.7, 673.0)">{</text><text xml:space="preserve" font-family="FiraCode-Regular" font-size="23.0" fill="#FFFFFF" transform="matrix(1.00, 0.00, -0.00, -1.00, 450.7, 673.0)">}</text><text xml:space="preserve" font-family="FiraCode-Regular" font-size="23.0" fill="#FFFFFF" transform="matrix(1.00, 0.00, -0.00, -1.00, 464.8, 673.0)"> </text><text xml:space="preserve" font-family="FiraCode-Regular" font-size="23.0" fill="#FFFFFF" transform="matrix(1.00, 0.00, -0.00, -1.00, 478.8, 673.0)">}</text><text xml:space="preserve" font-family="FiraCode-Regular" font-size="23.0" fill="#FFFFFF" transform="matrix(1.00, 0.00, -0.00, -1.00, 492.8, 673.0)">;</text><text xml:space="preserve" font-family="FiraCode-Regular" font-size="23.0" fill="#FFFFFF" transform="matrix(1.00, 0.00, -0.00, -1.00, 506.9, 673.0)"> </text><text xml:space="preserve" font-family="FiraCode-Regular" font-size="23.0" fill="#FFFFFF" transform="matrix(1.00, 0.00, -0.00, -1.00, 8.0, 645.0)"> </text><text xml:space="preserve" font-family="FiraCode-Regular" font-size="23.0" fill="#FFFFFF" transform="matrix(1.00, 0.00, -0.00, -1.00, 54.0, 645.0)"> </text><text xml:space="preserve" font-family="FiraCode-Regular" font-size="23.0" fill="#FFFFFF" transform="matrix(1.00, 0.00, -0.00, -1.00, 100.0, 645.0)">v</text><text xml:space="preserve" font-family="FiraCode-Regular" font-size="23.0" fill="#FFFFFF" transform="matrix(1.00, 0.00, -0.00, -1.00, 114.0, 645.0)">a</text><text xml:space="preserve" font-family="FiraCode-Regular" font-size="23.0" fill="#FFFFFF" transform="matrix(1.00, 0.00, -0.00, -1.00, 128.1, 645.0)">r</text><text xml:space="preserve" font-family="FiraCode-Regular" font-size="23.0" fill="#FFFFFF" transform="matrix(1.00, 0.00, -0.00, -1.00, 142.1, 645.0)"> </text><text xml:space="preserve" font-family="FiraCode-Regular" font-size="23.0" fill="#FFFFFF" transform="matrix(1.00, 0.00, -0.00, -1.00, 156.1, 645.0)">f</text><text xml:space="preserve" font-family="FiraCode-Regular" font-size="23.0" fill="#FFFFFF" transform="matrix(1.00, 0.00, -0.00, -1.00, 170.1, 645.0)">i</text><text xml:space="preserve" font-family="FiraCode-Regular" font-size="23.0" fill="#FFFFFF" transform="matrix(1.00, 0.00, -0.00, -1.00, 184.2, 645.0)">l</text><text xml:space="preserve" font-family="FiraCode-Regular" font-size="23.0" fill="#FFFFFF" transform="matrix(1.00, 0.00, -0.00, -1.00, 198.2, 645.0)">e</text><text xml:space="preserve" font-family="FiraCode-Regular" font-size="23.0" fill="#FFFFFF" transform="matrix(1.00, 0.00, -0.00, -1.00, 212.2, 645.0)"> </text><text xml:space="preserve" font-family="FiraCode-Regular" font-size="23.0" fill="#FFFFFF" transform="matrix(1.00, 0.00, -0.00, -1.00, 226.3, 645.0)">=</text><text xml:space="preserve" font-family="FiraCode-Regular" font-size="23.0" fill="#FFFFFF" transform="matrix(1.00, 0.00, -0.00, -1.00, 240.3, 645.0)"> </text><text xml:space="preserve" font-family="FiraCode-Regular" font-size="23.0" fill="#FFFFFF" transform="matrix(1.00, 0.00, -0.00, -1.00, 254.3, 645.0)">m</text><text xml:space="preserve" font-family="FiraCode-Regular" font-size="23.0" fill="#FFFFFF" transform="matrix(1.00, 0.00, -0.00, -1.00, 268.4, 645.0)">o</text><text xml:space="preserve" font-family="FiraCode-Regular" font-size="23.0" fill="#FFFFFF" transform="matrix(1.00, 0.00, -0.00, -1.00, 282.4, 645.0)">d</text><text xml:space="preserve" font-family="FiraCode-Regular" font-size="23.0" fill="#FFFFFF" transform="matrix(1.00, 0.00, -0.00, -1.00, 296.4, 645.0)">u</text><text xml:space="preserve" font-family="FiraCode-Regular" font-size="23.0" fill="#FFFFFF" transform="matrix(1.00, 0.00, -0.00, -1.00, 310.4, 645.0)">l</text><text xml:space="preserve" font-family="FiraCode-Regular" font-size="23.0" fill="#FFFFFF" transform="matrix(1.00, 0.00, -0.00, -1.00, 324.5, 645.0)">e</text><text xml:space="preserve" font-family="FiraCode-Regular" font-size="23.0" fill="#FFFFFF" transform="matrix(1.00, 0.00, -0.00, -1.00, 338.5, 645.0)">A</text><text xml:space="preserve" font-family="FiraCode-Regular" font-size="23.0" fill="#FFFFFF" transform="matrix(1.00, 0.00, -0.00, -1.00, 352.5, 645.0)">r</text><text xml:space="preserve" font-family="FiraCode-Regular" font-size="23.0" fill="#FFFFFF" transform="matrix(1.00, 0.00, -0.00, -1.00, 366.6, 645.0)">r</text><text xml:space="preserve" font-family="FiraCode-Regular" font-size="23.0" fill="#FFFFFF" transform="matrix(1.00, 0.00, -0.00, -1.00, 380.6, 645.0)">a</text><text xml:space="preserve" font-family="FiraCode-Regular" font-size="23.0" fill="#FFFFFF" transform="matrix(1.00, 0.00, -0.00, -1.00, 394.6, 645.0)">y</text><text xml:space="preserve" font-family="FiraCode-Regular" font-size="23.0" fill="#FFFFFF" transform="matrix(1.00, 0.00, -0.00, -1.00, 408.7, 645.0)">[</text><text xml:space="preserve" font-family="FiraCode-Regular" font-size="23.0" fill="#FFFFFF" transform="matrix(1.00, 0.00, -0.00, -1.00, 422.7, 645.0)">i</text><text xml:space="preserve" font-family="FiraCode-Regular" font-size="23.0" fill="#FFFFFF" transform="matrix(1.00, 0.00, -0.00, -1.00, 436.7, 645.0)">n</text><text xml:space="preserve" font-family="FiraCode-Regular" font-size="23.0" fill="#FFFFFF" transform="matrix(1.00, 0.00, -0.00, -1.00, 450.7, 645.0)">d</text><text xml:space="preserve" font-family="FiraCode-Regular" font-size="23.0" fill="#FFFFFF" transform="matrix(1.00, 0.00, -0.00, -1.00, 464.8, 645.0)">e</text><text xml:space="preserve" font-family="FiraCode-Regular" font-size="23.0" fill="#FFFFFF" transform="matrix(1.00, 0.00, -0.00, -1.00, 478.8, 645.0)">x</text><text xml:space="preserve" font-family="FiraCode-Regular" font-size="23.0" fill="#FFFFFF" transform="matrix(1.00, 0.00, -0.00, -1.00, 492.8, 645.0)">]</text><text xml:space="preserve" font-family="FiraCode-Regular" font-size="23.0" fill="#FFFFFF" transform="matrix(1.00, 0.00, -0.00, -1.00, 506.9, 645.0)">;</text><text xml:space="preserve" font-family="FiraCode-Regular" font-size="23.0" fill="#FFFFFF" transform="matrix(1.00, 0.00, -0.00, -1.00, 520.9, 645.0)"> </text><text xml:space="preserve" font-family="FiraCode-Regular" font-size="23.0" fill="#FFFFFF" transform="matrix(1.00, 0.00, -0.00, -1.00, 8.0, 617.0)"> </text><text xml:space="preserve" font-family="FiraCode-Regular" font-size="23.0" fill="#FFFFFF" transform="matrix(1.00, 0.00, -0.00, -1.00, 54.0, 617.0)"> </text><text xml:space="preserve" font-family="FiraCode-Regular" font-size="23.0" fill="#FFFFFF" transform="matrix(1.00, 0.00, -0.00, -1.00, 100.0, 617.0)">f</text><text xml:space="preserve" font-family="FiraCode-Regular" font-size="23.0" fill="#FFFFFF" transform="matrix(1.00, 0.00, -0.00, -1.00, 114.0, 617.0)">i</text><text xml:space="preserve" font-family="FiraCode-Regular" font-size="23.0" fill="#FFFFFF" transform="matrix(1.00, 0.00, -0.00, -1.00, 128.1, 617.0)">l</text><text xml:space="preserve" font-family="FiraCode-Regular" font-size="23.0" fill="#FFFFFF" transform="matrix(1.00, 0.00, -0.00, -1.00, 142.1, 617.0)">e</text><text xml:space="preserve" font-family="FiraCode-Regular" font-size="23.0" fill="#FFFFFF" transform="matrix(1.00, 0.00, -0.00, -1.00, 156.1, 617.0)">(</text><text xml:space="preserve" font-family="FiraCode-Regular" font-size="23.0" fill="#FFFFFF" transform="matrix(1.00, 0.00, -0.00, -1.00, 170.1, 617.0)">m</text><text xml:space="preserve" font-family="FiraCode-Regular" font-size="23.0" fill="#FFFFFF" transform="matrix(1.00, 0.00, -0.00, -1.00, 184.2, 617.0)">o</text><text xml:space="preserve" font-family="FiraCode-Regular" font-size="23.0" fill="#FFFFFF" transform="matrix(1.00, 0.00, -0.00, -1.00, 198.2, 617.0)">d</text><text xml:space="preserve" font-family="FiraCode-Regular" font-size="23.0" fill="#FFFFFF" transform="matrix(1.00, 0.00, -0.00, -1.00, 212.2, 617.0)">u</text><text xml:space="preserve" font-family="FiraCode-Regular" font-size="23.0" fill="#FFFFFF" transform="matrix(1.00, 0.00, -0.00, -1.00, 226.3, 617.0)">l</text><text xml:space="preserve" font-family="FiraCode-Regular" font-size="23.0" fill="#FFFFFF" transform="matrix(1.00, 0.00, -0.00, -1.00, 240.3, 617.0)">e</text><text xml:space="preserve" font-family="FiraCode-Regular" font-size="23.0" fill="#FFFFFF" transform="matrix(1.00, 0.00, -0.00, -1.00, 254.3, 617.0)">,</text><text xml:space="preserve" font-family="FiraCode-Regular" font-size="23.0" fill="#FFFFFF" transform="matrix(1.00, 0.00, -0.00, -1.00, 268.4, 617.0)"> </text><text xml:space="preserve" font-family="FiraCode-Regular" font-size="23.0" fill="#FFFFFF" transform="matrix(1.00, 0.00, -0.00, -1.00, 282.4, 617.0)">w</text><text xml:space="preserve" font-family="FiraCode-Regular" font-size="23.0" fill="#FFFFFF" transform="matrix(1.00, 0.00, -0.00, -1.00, 296.4, 617.0)">e</text><text xml:space="preserve" font-family="FiraCode-Regular" font-size="23.0" fill="#FFFFFF" transform="matrix(1.00, 0.00, -0.00, -1.00, 310.4, 617.0)">b</text><text xml:space="preserve" font-family="FiraCode-Regular" font-size="23.0" fill="#FFFFFF" transform="matrix(1.00, 0.00, -0.00, -1.00, 324.5, 617.0)">p</text><text xml:space="preserve" font-family="FiraCode-Regular" font-size="23.0" fill="#FFFFFF" transform="matrix(1.00, 0.00, -0.00, -1.00, 338.5, 617.0)">a</text><text xml:space="preserve" font-family="FiraCode-Regular" font-size="23.0" fill="#FFFFFF" transform="matrix(1.00, 0.00, -0.00, -1.00, 352.5, 617.0)">c</text><text xml:space="preserve" font-family="FiraCode-Regular" font-size="23.0" fill="#FFFFFF" transform="matrix(1.00, 0.00, -0.00, -1.00, 366.6, 617.0)">k</text><text xml:space="preserve" font-family="FiraCode-Regular" font-size="23.0" fill="#FFFFFF" transform="matrix(1.00, 0.00, -0.00, -1.00, 380.6, 617.0)">R</text><text xml:space="preserve" font-family="FiraCode-Regular" font-size="23.0" fill="#FFFFFF" transform="matrix(1.00, 0.00, -0.00, -1.00, 394.6, 617.0)">e</text><text xml:space="preserve" font-family="FiraCode-Regular" font-size="23.0" fill="#FFFFFF" transform="matrix(1.00, 0.00, -0.00, -1.00, 408.7, 617.0)">q</text><text xml:space="preserve" font-family="FiraCode-Regular" font-size="23.0" fill="#FFFFFF" transform="matrix(1.00, 0.00, -0.00, -1.00, 422.7, 617.0)">u</text><text xml:space="preserve" font-family="FiraCode-Regular" font-size="23.0" fill="#FFFFFF" transform="matrix(1.00, 0.00, -0.00, -1.00, 436.7, 617.0)">i</text><text xml:space="preserve" font-family="FiraCode-Regular" font-size="23.0" fill="#FFFFFF" transform="matrix(1.00, 0.00, -0.00, -1.00, 450.7, 617.0)">r</text><text xml:space="preserve" font-family="FiraCode-Regular" font-size="23.0" fill="#FFFFFF" transform="matrix(1.00, 0.00, -0.00, -1.00, 464.8, 617.0)">e</text><text xml:space="preserve" font-family="FiraCode-Regular" font-size="23.0" fill="#FFFFFF" transform="matrix(1.00, 0.00, -0.00, -1.00, 478.8, 617.0)">)</text><text xml:space="preserve" font-family="FiraCode-Regular" font-size="23.0" fill="#FFFFFF" transform="matrix(1.00, 0.00, -0.00, -1.00, 492.8, 617.0)">;</text><text xml:space="preserve" font-family="FiraCode-Regular" font-size="23.0" fill="#FFFFFF" transform="matrix(1.00, 0.00, -0.00, -1.00, 506.9, 617.0)"> </text><text xml:space="preserve" font-family="FiraCode-Regular" font-size="23.0" fill="#FFFFFF" transform="matrix(1.00, 0.00, -0.00, -1.00, 8.0, 589.0)"> </text><text xml:space="preserve" font-family="FiraCode-Regular" font-size="23.0" fill="#FFFFFF" transform="matrix(1.00, 0.00, -0.00, -1.00, 54.0, 589.0)"> </text><text xml:space="preserve" font-family="FiraCode-Regular" font-size="23.0" fill="#FFFFFF" transform="matrix(1.00, 0.00, -0.00, -1.00, 100.0, 589.0)">r</text><text xml:space="preserve" font-family="FiraCode-Regular" font-size="23.0" fill="#FFFFFF" transform="matrix(1.00, 0.00, -0.00, -1.00, 114.0, 589.0)">e</text><text xml:space="preserve" font-family="FiraCode-Regular" font-size="23.0" fill="#FFFFFF" transform="matrix(1.00, 0.00, -0.00, -1.00, 128.1, 589.0)">t</text><text xml:space="preserve" font-family="FiraCode-Regular" font-size="23.0" fill="#FFFFFF" transform="matrix(1.00, 0.00, -0.00, -1.00, 142.1, 589.0)">u</text><text xml:space="preserve" font-family="FiraCode-Regular" font-size="23.0" fill="#FFFFFF" transform="matrix(1.00, 0.00, -0.00, -1.00, 156.1, 589.0)">r</text><text xml:space="preserve" font-family="FiraCode-Regular" font-size="23.0" fill="#FFFFFF" transform="matrix(1.00, 0.00, -0.00, -1.00, 170.1, 589.0)">n</text><text xml:space="preserve" font-family="FiraCode-Regular" font-size="23.0" fill="#FFFFFF" transform="matrix(1.00, 0.00, -0.00, -1.00, 184.2, 589.0)"> </text><text xml:space="preserve" font-family="FiraCode-Regular" font-size="23.0" fill="#FFFFFF" transform="matrix(1.00, 0.00, -0.00, -1.00, 198.2, 589.0)">m</text><text xml:space="preserve" font-family="FiraCode-Regular" font-size="23.0" fill="#FFFFFF" transform="matrix(1.00, 0.00, -0.00, -1.00, 212.2, 589.0)">o</text><text xml:space="preserve" font-family="FiraCode-Regular" font-size="23.0" fill="#FFFFFF" transform="matrix(1.00, 0.00, -0.00, -1.00, 226.3, 589.0)">d</text><text xml:space="preserve" font-family="FiraCode-Regular" font-size="23.0" fill="#FFFFFF" transform="matrix(1.00, 0.00, -0.00, -1.00, 240.3, 589.0)">u</text><text xml:space="preserve" font-family="FiraCode-Regular" font-size="23.0" fill="#FFFFFF" transform="matrix(1.00, 0.00, -0.00, -1.00, 254.3, 589.0)">l</text><text xml:space="preserve" font-family="FiraCode-Regular" font-size="23.0" fill="#FFFFFF" transform="matrix(1.00, 0.00, -0.00, -1.00, 268.4, 589.0)">e</text><text xml:space="preserve" font-family="FiraCode-Regular" font-size="23.0" fill="#FFFFFF" transform="matrix(1.00, 0.00, -0.00, -1.00, 282.4, 589.0)">.</text><text xml:space="preserve" font-family="FiraCode-Regular" font-size="23.0" fill="#FFFFFF" transform="matrix(1.00, 0.00, -0.00, -1.00, 296.4, 589.0)">e</text><text xml:space="preserve" font-family="FiraCode-Regular" font-size="23.0" fill="#FFFFFF" transform="matrix(1.00, 0.00, -0.00, -1.00, 310.4, 589.0)">x</text><text xml:space="preserve" font-family="FiraCode-Regular" font-size="23.0" fill="#FFFFFF" transform="matrix(1.00, 0.00, -0.00, -1.00, 324.5, 589.0)">p</text><text xml:space="preserve" font-family="FiraCode-Regular" font-size="23.0" fill="#FFFFFF" transform="matrix(1.00, 0.00, -0.00, -1.00, 338.5, 589.0)">o</text><text xml:space="preserve" font-family="FiraCode-Regular" font-size="23.0" fill="#FFFFFF" transform="matrix(1.00, 0.00, -0.00, -1.00, 352.5, 589.0)">r</text><text xml:space="preserve" font-family="FiraCode-Regular" font-size="23.0" fill="#FFFFFF" transform="matrix(1.00, 0.00, -0.00, -1.00, 366.6, 589.0)">t</text><text xml:space="preserve" font-family="FiraCode-Regular" font-size="23.0" fill="#FFFFFF" transform="matrix(1.00, 0.00, -0.00, -1.00, 380.6, 589.0)">s</text><text xml:space="preserve" font-family="FiraCode-Regular" font-size="23.0" fill="#FFFFFF" transform="matrix(1.00, 0.00, -0.00, -1.00, 394.6, 589.0)">;</text><text xml:space="preserve" font-family="FiraCode-Regular" font-size="23.0" fill="#FFFFFF" transform="matrix(1.00, 0.00, -0.00, -1.00, 408.7, 589.0)"> </text><text xml:space="preserve" font-family="FiraCode-Regular" font-size="23.0" fill="#FFFFFF" transform="matrix(1.00, 0.00, -0.00, -1.00, 8.0, 561.0)"> </text><text xml:space="preserve" font-family="FiraCode-Regular" font-size="23.0" fill="#FFFFFF" transform="matrix(1.00, 0.00, -0.00, -1.00, 54.0, 561.0)">}</text><text xml:space="preserve" font-family="FiraCode-Regular" font-size="23.0" fill="#FFFFFF" transform="matrix(1.00, 0.00, -0.00, -1.00, 68.0, 561.0)"> </text><text xml:space="preserve" font-family="FiraCode-Regular" font-size="23.0" fill="#FFFFFF" transform="matrix(1.00, 0.00, -0.00, -1.00, 8.0, 505.0)"> </text><text xml:space="preserve" font-family="FiraCode-Regular" font-size="23.0" fill="#FFFFFF" transform="matrix(1.00, 0.00, -0.00, -1.00, 54.0, 505.0)">r</text><text xml:space="preserve" font-family="FiraCode-Regular" font-size="23.0" fill="#FFFFFF" transform="matrix(1.00, 0.00, -0.00, -1.00, 68.0, 505.0)">e</text><text xml:space="preserve" font-family="FiraCode-Regular" font-size="23.0" fill="#FFFFFF" transform="matrix(1.00, 0.00, -0.00, -1.00, 82.1, 505.0)">t</text><text xml:space="preserve" font-family="FiraCode-Regular" font-size="23.0" fill="#FFFFFF" transform="matrix(1.00, 0.00, -0.00, -1.00, 96.1, 505.0)">u</text><text xml:space="preserve" font-family="FiraCode-Regular" font-size="23.0" fill="#FFFFFF" transform="matrix(1.00, 0.00, -0.00, -1.00, 110.1, 505.0)">r</text><text xml:space="preserve" font-family="FiraCode-Regular" font-size="23.0" fill="#FFFFFF" transform="matrix(1.00, 0.00, -0.00, -1.00, 124.1, 505.0)">n</text><text xml:space="preserve" font-family="FiraCode-Regular" font-size="23.0" fill="#FFFFFF" transform="matrix(1.00, 0.00, -0.00, -1.00, 138.2, 505.0)"> </text><text xml:space="preserve" font-family="FiraCode-Regular" font-size="23.0" fill="#FFFFFF" transform="matrix(1.00, 0.00, -0.00, -1.00, 152.2, 505.0)">w</text><text xml:space="preserve" font-family="FiraCode-Regular" font-size="23.0" fill="#FFFFFF" transform="matrix(1.00, 0.00, -0.00, -1.00, 166.2, 505.0)">e</text><text xml:space="preserve" font-family="FiraCode-Regular" font-size="23.0" fill="#FFFFFF" transform="matrix(1.00, 0.00, -0.00, -1.00, 180.3, 505.0)">b</text><text xml:space="preserve" font-family="FiraCode-Regular" font-size="23.0" fill="#FFFFFF" transform="matrix(1.00, 0.00, -0.00, -1.00, 194.3, 505.0)">p</text><text xml:space="preserve" font-family="FiraCode-Regular" font-size="23.0" fill="#FFFFFF" transform="matrix(1.00, 0.00, -0.00, -1.00, 208.3, 505.0)">a</text><text xml:space="preserve" font-family="FiraCode-Regular" font-size="23.0" fill="#FFFFFF" transform="matrix(1.00, 0.00, -0.00, -1.00, 222.4, 505.0)">c</text><text xml:space="preserve" font-family="FiraCode-Regular" font-size="23.0" fill="#FFFFFF" transform="matrix(1.00, 0.00, -0.00, -1.00, 236.4, 505.0)">k</text><text xml:space="preserve" font-family="FiraCode-Regular" font-size="23.0" fill="#FFFFFF" transform="matrix(1.00, 0.00, -0.00, -1.00, 250.4, 505.0)">R</text><text xml:space="preserve" font-family="FiraCode-Regular" font-size="23.0" fill="#FFFFFF" transform="matrix(1.00, 0.00, -0.00, -1.00, 264.4, 505.0)">e</text><text xml:space="preserve" font-family="FiraCode-Regular" font-size="23.0" fill="#FFFFFF" transform="matrix(1.00, 0.00, -0.00, -1.00, 278.5, 505.0)">q</text><text xml:space="preserve" font-family="FiraCode-Regular" font-size="23.0" fill="#FFFFFF" transform="matrix(1.00, 0.00, -0.00, -1.00, 292.5, 505.0)">u</text><text xml:space="preserve" font-family="FiraCode-Regular" font-size="23.0" fill="#FFFFFF" transform="matrix(1.00, 0.00, -0.00, -1.00, 306.5, 505.0)">i</text><text xml:space="preserve" font-family="FiraCode-Regular" font-size="23.0" fill="#FFFFFF" transform="matrix(1.00, 0.00, -0.00, -1.00, 320.6, 505.0)">r</text><text xml:space="preserve" font-family="FiraCode-Regular" font-size="23.0" fill="#FFFFFF" transform="matrix(1.00, 0.00, -0.00, -1.00, 334.6, 505.0)">e</text><text xml:space="preserve" font-family="FiraCode-Regular" font-size="23.0" fill="#FFFFFF" transform="matrix(1.00, 0.00, -0.00, -1.00, 348.6, 505.0)">(</text><text xml:space="preserve" font-family="FiraCode-Regular" font-size="23.0" fill="#FFFFFF" transform="matrix(1.00, 0.00, -0.00, -1.00, 362.7, 505.0)">0</text><text xml:space="preserve" font-family="FiraCode-Regular" font-size="23.0" fill="#FFFFFF" transform="matrix(1.00, 0.00, -0.00, -1.00, 376.7, 505.0)">)</text><text xml:space="preserve" font-family="FiraCode-Regular" font-size="23.0" fill="#FFFFFF" transform="matrix(1.00, 0.00, -0.00, -1.00, 390.7, 505.0)">;</text><text xml:space="preserve" font-family="FiraCode-Regular" font-size="23.0" fill="#FFFFFF" transform="matrix(1.00, 0.00, -0.00, -1.00, 404.7, 505.0)"> </text><text xml:space="preserve" font-family="FiraCode-Regular" font-size="23.0" fill="#FFFFFF" transform="matrix(1.00, 0.00, -0.00, -1.00, 8.0, 477.0)">}</text><text xml:space="preserve" font-family="FiraCode-Regular" font-size="23.0" fill="#FFFFFF" transform="matrix(1.00, 0.00, -0.00, -1.00, 22.0, 477.0)">)</text><text xml:space="preserve" font-family="FiraCode-Regular" font-size="23.0" fill="#FFFFFF" transform="matrix(1.00, 0.00, -0.00, -1.00, 36.1, 477.0)"> </text><text xml:space="preserve" font-family="FiraCode-Regular" font-size="23.0" fill="#FFFFFF" transform="matrix(1.00, 0.00, -0.00, -1.00, 8.0, 449.0)">(</text><text xml:space="preserve" font-family="FiraCode-Regular" font-size="23.0" fill="#FFFFFF" transform="matrix(1.00, 0.00, -0.00, -1.00, 22.0, 449.0)">[</text><text xml:space="preserve" font-family="FiraCode-Regular" font-size="23.0" fill="#FFFFFF" transform="matrix(1.00, 0.00, -0.00, -1.00, 36.1, 449.0)"> </text><text xml:space="preserve" font-family="FiraCode-Regular" font-size="23.0" fill="#FFFFFF" transform="matrix(1.00, 0.00, -0.00, -1.00, 8.0, 14.0)">]</text><text xml:space="preserve" font-family="FiraCode-Regular" font-size="23.0" fill="#FFFFFF" transform="matrix(1.00, 0.00, -0.00, -1.00, 22.0, 14.0)">)</text><text xml:space="preserve" font-family="FiraCode-Regular" font-size="23.0" fill="#FFFFFF" transform="matrix(1.00, 0.00, -0.00, -1.00, 36.1, 14.0)">;</text></g></g></g></svg>