<?xml version="1.0" encoding="UTF-8" standalone="no"?><svg xmlns="http://www.w3.org/2000/svg" xmlns:xlink="http://www.w3.org/1999/xlink" clip-rule="evenodd" stroke-miterlimit="4.00" viewBox="0 0 385 133"><desc>SVG generated by Keynote</desc><defs></defs><g transform="matrix(1.00, 0.00, -0.00, -1.00, 0.0, 133.0)"><path d="M 1.5 131.4 L 383.7 131.4 L 383.7 1.4 L 1.5 1.4 Z M 1.5 131.4 " fill="#DFA391"></path><g><clipPath id="clip-5449"><path d="M -1.4 -1.5 L 386.6 -1.5 L 386.6 134.3 L -1.4 134.3 Z M -1.4 -1.5 "></path></clipPath><g clip-path="url(#clip-5449)"><text xml:space="preserve" font-family="FiraCode-Bold" font-weight="bold" font-size="23.0" fill="#000000" transform="matrix(1.00, 0.00, -0.00, -1.00, 6.0, 99.0)">w</text><text xml:space="preserve" font-family="FiraCode-Bold" font-weight="bold" font-size="23.0" fill="#000000" transform="matrix(1.00, 0.00, -0.00, -1.00, 20.0, 99.0)">e</text><text xml:space="preserve" font-family="FiraCode-Bold" font-weight="bold" font-size="23.0" fill="#000000" transform="matrix(1.00, 0.00, -0.00, -1.00, 34.1, 99.0)">b</text><text xml:space="preserve" font-family="FiraCode-Bold" font-weight="bold" font-size="23.0" fill="#000000" transform="matrix(1.00, 0.00, -0.00, -1.00, 48.1, 99.0)">p</text><text xml:space="preserve" font-family="FiraCode-Bold" font-weight="bold" font-size="23.0" fill="#000000" transform="matrix(1.00, 0.00, -0.00, -1.00, 62.1, 99.0)">a</text><text xml:space="preserve" font-family="FiraCode-Bold" font-weight="bold" font-size="23.0" fill="#000000" transform="matrix(1.00, 0.00, -0.00, -1.00, 76.1, 99.0)">c</text><text xml:space="preserve" font-family="FiraCode-Bold" font-weight="bold" font-size="23.0" fill="#000000" transform="matrix(1.00, 0.00, -0.00, -1.00, 90.2, 99.0)">k</text><text xml:space="preserve" font-family="FiraCode-Bold" font-weight="bold" font-size="23.0" fill="#000000" transform="matrix(1.00, 0.00, -0.00, -1.00, 104.2, 99.0)">R</text><text xml:space="preserve" font-family="FiraCode-Bold" font-weight="bold" font-size="23.0" fill="#000000" transform="matrix(1.00, 0.00, -0.00, -1.00, 118.2, 99.0)">e</text><text xml:space="preserve" font-family="FiraCode-Bold" font-weight="bold" font-size="23.0" fill="#000000" transform="matrix(1.00, 0.00, -0.00, -1.00, 132.3, 99.0)">q</text><text xml:space="preserve" font-family="FiraCode-Bold" font-weight="bold" font-size="23.0" fill="#000000" transform="matrix(1.00, 0.00, -0.00, -1.00, 146.3, 99.0)">u</text><text xml:space="preserve" font-family="FiraCode-Bold" font-weight="bold" font-size="23.0" fill="#000000" transform="matrix(1.00, 0.00, -0.00, -1.00, 160.3, 99.0)">i</text><text xml:space="preserve" font-family="FiraCode-Bold" font-weight="bold" font-size="23.0" fill="#000000" transform="matrix(1.00, 0.00, -0.00, -1.00, 174.4, 99.0)">r</text><text xml:space="preserve" font-family="FiraCode-Bold" font-weight="bold" font-size="23.0" fill="#000000" transform="matrix(1.00, 0.00, -0.00, -1.00, 188.4, 99.0)">e</text><text xml:space="preserve" font-family="FiraCode-Bold" font-weight="bold" font-size="23.0" fill="#000000" transform="matrix(1.00, 0.00, -0.00, -1.00, 202.4, 99.0)"> </text><text xml:space="preserve" font-family="FiraCode-Bold" font-weight="bold" font-size="23.0" fill="#000000" transform="matrix(1.00, 0.00, -0.00, -1.00, 216.4, 99.0)">v</text><text xml:space="preserve" font-family="FiraCode-Bold" font-weight="bold" font-size="23.0" fill="#000000" transform="matrix(1.00, 0.00, -0.00, -1.00, 230.5, 99.0)">a</text><text xml:space="preserve" font-family="FiraCode-Bold" font-weight="bold" font-size="23.0" fill="#000000" transform="matrix(1.00, 0.00, -0.00, -1.00, 244.5, 99.0)">r</text><text xml:space="preserve" font-family="FiraCode-Bold" font-weight="bold" font-size="23.0" fill="#000000" transform="matrix(1.00, 0.00, -0.00, -1.00, 258.5, 99.0)">i</text><text xml:space="preserve" font-family="FiraCode-Bold" font-weight="bold" font-size="23.0" fill="#000000" transform="matrix(1.00, 0.00, -0.00, -1.00, 272.6, 99.0)">a</text><text xml:space="preserve" font-family="FiraCode-Bold" font-weight="bold" font-size="23.0" fill="#000000" transform="matrix(1.00, 0.00, -0.00, -1.00, 286.6, 99.0)">b</text><text xml:space="preserve" font-family="FiraCode-Bold" font-weight="bold" font-size="23.0" fill="#000000" transform="matrix(1.00, 0.00, -0.00, -1.00, 300.6, 99.0)">l</text><text xml:space="preserve" font-family="FiraCode-Bold" font-weight="bold" font-size="23.0" fill="#000000" transform="matrix(1.00, 0.00, -0.00, -1.00, 314.7, 99.0)">e</text><text xml:space="preserve" font-family="FiraCode-Bold" font-weight="bold" font-size="23.0" fill="#000000" transform="matrix(1.00, 0.00, -0.00, -1.00, 328.7, 99.0)">s</text><text xml:space="preserve" font-family="FiraCode-Bold" font-weight="bold" font-size="23.0" fill="#000000" transform="matrix(1.00, 0.00, -0.00, -1.00, 342.7, 99.0)"> </text><text xml:space="preserve" font-family="FiraCode-Regular" font-size="23.0" fill="#000000" transform="matrix(1.00, 0.00, -0.00, -1.00, 6.0, 55.0)">i</text><text xml:space="preserve" font-family="FiraCode-Regular" font-size="23.0" fill="#000000" transform="matrix(1.00, 0.00, -0.00, -1.00, 20.0, 55.0)">n</text><text xml:space="preserve" font-family="FiraCode-Regular" font-size="23.0" fill="#000000" transform="matrix(1.00, 0.00, -0.00, -1.00, 34.1, 55.0)">d</text><text xml:space="preserve" font-family="FiraCode-Regular" font-size="23.0" fill="#000000" transform="matrix(1.00, 0.00, -0.00, -1.00, 48.1, 55.0)">e</text><text xml:space="preserve" font-family="FiraCode-Regular" font-size="23.0" fill="#000000" transform="matrix(1.00, 0.00, -0.00, -1.00, 62.1, 55.0)">x</text><text xml:space="preserve" font-family="FiraCode-Regular" font-size="23.0" fill="#000000" transform="matrix(1.00, 0.00, -0.00, -1.00, 76.1, 55.0)"> </text><text xml:space="preserve" font-family="FiraCode-Regular" font-size="23.0" fill="#000000" transform="matrix(1.00, 0.00, -0.00, -1.00, 90.2, 55.0)">=</text><text xml:space="preserve" font-family="FiraCode-Regular" font-size="23.0" fill="#000000" transform="matrix(1.00, 0.00, -0.00, -1.00, 104.2, 55.0)"> </text><text xml:space="preserve" font-family="FiraCode-Bold" font-weight="bold" font-size="23.0" fill="#000000" transform="matrix(1.00, 0.00, -0.00, -1.00, 118.2, 55.0)">0</text><text xml:space="preserve" font-family="FiraCode-Regular" font-size="23.0" fill="#000000" transform="matrix(1.00, 0.00, -0.00, -1.00, 132.3, 55.0)"> </text><text xml:space="preserve" font-family="FiraCode-Regular" font-size="23.0" fill="#000000" transform="matrix(1.00, 0.00, -0.00, -1.00, 6.0, 11.0)">m</text><text xml:space="preserve" font-family="FiraCode-Regular" font-size="23.0" fill="#000000" transform="matrix(1.00, 0.00, -0.00, -1.00, 20.0, 11.0)">o</text><text xml:space="preserve" font-family="FiraCode-Regular" font-size="23.0" fill="#000000" transform="matrix(1.00, 0.00, -0.00, -1.00, 34.1, 11.0)">d</text><text xml:space="preserve" font-family="FiraCode-Regular" font-size="23.0" fill="#000000" transform="matrix(1.00, 0.00, -0.00, -1.00, 48.1, 11.0)">u</text><text xml:space="preserve" font-family="FiraCode-Regular" font-size="23.0" fill="#000000" transform="matrix(1.00, 0.00, -0.00, -1.00, 62.1, 11.0)">l</text><text xml:space="preserve" font-family="FiraCode-Regular" font-size="23.0" fill="#000000" transform="matrix(1.00, 0.00, -0.00, -1.00, 76.1, 11.0)">e</text><text xml:space="preserve" font-family="FiraCode-Regular" font-size="23.0" fill="#000000" transform="matrix(1.00, 0.00, -0.00, -1.00, 90.2, 11.0)">.</text><text xml:space="preserve" font-family="FiraCode-Regular" font-size="23.0" fill="#000000" transform="matrix(1.00, 0.00, -0.00, -1.00, 104.2, 11.0)">e</text><text xml:space="preserve" font-family="FiraCode-Regular" font-size="23.0" fill="#000000" transform="matrix(1.00, 0.00, -0.00, -1.00, 118.2, 11.0)">x</text><text xml:space="preserve" font-family="FiraCode-Regular" font-size="23.0" fill="#000000" transform="matrix(1.00, 0.00, -0.00, -1.00, 132.3, 11.0)">p</text><text xml:space="preserve" font-family="FiraCode-Regular" font-size="23.0" fill="#000000" transform="matrix(1.00, 0.00, -0.00, -1.00, 146.3, 11.0)">o</text><text xml:space="preserve" font-family="FiraCode-Regular" font-size="23.0" fill="#000000" transform="matrix(1.00, 0.00, -0.00, -1.00, 160.3, 11.0)">r</text><text xml:space="preserve" font-family="FiraCode-Regular" font-size="23.0" fill="#000000" transform="matrix(1.00, 0.00, -0.00, -1.00, 174.4, 11.0)">t</text><text xml:space="preserve" font-family="FiraCode-Regular" font-size="23.0" fill="#000000" transform="matrix(1.00, 0.00, -0.00, -1.00, 188.4, 11.0)">s</text><text xml:space="preserve" font-family="FiraCode-Regular" font-size="23.0" fill="#000000" transform="matrix(1.00, 0.00, -0.00, -1.00, 202.4, 11.0)"> </text><text xml:space="preserve" font-family="FiraCode-Regular" font-size="23.0" fill="#000000" transform="matrix(1.00, 0.00, -0.00, -1.00, 216.4, 11.0)">=</text><text xml:space="preserve" font-family="FiraCode-Regular" font-size="23.0" fill="#000000" transform="matrix(1.00, 0.00, -0.00, -1.00, 230.5, 11.0)"> </text><text xml:space="preserve" font-family="FiraCode-Bold" font-weight="bold" font-size="23.0" fill="#000000" transform="matrix(1.00, 0.00, -0.00, -1.00, 244.5, 11.0)">{</text><text xml:space="preserve" font-family="FiraCode-Bold" font-weight="bold" font-size="23.0" fill="#000000" transform="matrix(1.00, 0.00, -0.00, -1.00, 258.5, 11.0)">}</text></g></g></g></svg>