<?xml version="1.0" encoding="UTF-8" standalone="no"?><svg xmlns="http://www.w3.org/2000/svg" xmlns:xlink="http://www.w3.org/1999/xlink" clip-rule="evenodd" stroke-miterlimit="4.00" viewBox="0 0 465 132"><desc>SVG generated by Keynote</desc><defs></defs><g transform="matrix(1.00, 0.00, -0.00, -1.00, 0.0, 132.0)"><path d="M 1.5 130.9 L 463.4 130.9 L 463.4 1.2 L 1.5 1.2 Z M 1.5 130.9 " fill="#DF613B"></path><g><clipPath id="clip-747"><path d="M -0.5 -4.1 L 470.0 -4.1 L 470.0 132.9 L -0.5 132.9 Z M -0.5 -4.1 "></path></clipPath><g clip-path="url(#clip-747)"><text xml:space="preserve" font-family="FiraCode-Bold" font-weight="bold" font-size="20.0" fill="#CACACA" transform="matrix(1.00, 0.00, -0.00, -1.00, 17.2, 103.0)">/</text><text xml:space="preserve" font-family="FiraCode-Bold" font-weight="bold" font-size="20.0" fill="#CACACA" transform="matrix(1.00, 0.00, -0.00, -1.00, 29.4, 103.0)">/</text><text xml:space="preserve" font-family="FiraCode-Bold" font-weight="bold" font-size="20.0" fill="#CACACA" transform="matrix(1.00, 0.00, -0.00, -1.00, 41.6, 103.0)"> </text><text xml:space="preserve" font-family="FiraCode-Bold" font-weight="bold" font-size="20.0" fill="#CACACA" transform="matrix(1.00, 0.00, -0.00, -1.00, 53.8, 103.0)">i</text><text xml:space="preserve" font-family="FiraCode-Bold" font-weight="bold" font-size="20.0" fill="#CACACA" transform="matrix(1.00, 0.00, -0.00, -1.00, 66.0, 103.0)">n</text><text xml:space="preserve" font-family="FiraCode-Bold" font-weight="bold" font-size="20.0" fill="#CACACA" transform="matrix(1.00, 0.00, -0.00, -1.00, 78.2, 103.0)">d</text><text xml:space="preserve" font-family="FiraCode-Bold" font-weight="bold" font-size="20.0" fill="#CACACA" transform="matrix(1.00, 0.00, -0.00, -1.00, 90.4, 103.0)">e</text><text xml:space="preserve" font-family="FiraCode-Bold" font-weight="bold" font-size="20.0" fill="#CACACA" transform="matrix(1.00, 0.00, -0.00, -1.00, 102.6, 103.0)">x</text><text xml:space="preserve" font-family="FiraCode-Bold" font-weight="bold" font-size="20.0" fill="#CACACA" transform="matrix(1.00, 0.00, -0.00, -1.00, 114.8, 103.0)">.</text><text xml:space="preserve" font-family="FiraCode-Bold" font-weight="bold" font-size="20.0" fill="#CACACA" transform="matrix(1.00, 0.00, -0.00, -1.00, 127.0, 103.0)">j</text><text xml:space="preserve" font-family="FiraCode-Bold" font-weight="bold" font-size="20.0" fill="#CACACA" transform="matrix(1.00, 0.00, -0.00, -1.00, 139.2, 103.0)">s</text><text xml:space="preserve" font-family="FiraCode-Bold" font-weight="bold" font-size="20.0" fill="#CACACA" transform="matrix(1.00, 0.00, -0.00, -1.00, 151.4, 103.0)"> </text><text xml:space="preserve" font-family="FiraCode-Regular" font-size="20.0" fill="#FFFFFF" transform="matrix(1.00, 0.00, -0.00, -1.00, 5.0, 79.0)">f</text><text xml:space="preserve" font-family="FiraCode-Regular" font-size="20.0" fill="#FFFFFF" transform="matrix(1.00, 0.00, -0.00, -1.00, 17.2, 79.0)">u</text><text xml:space="preserve" font-family="FiraCode-Regular" font-size="20.0" fill="#FFFFFF" transform="matrix(1.00, 0.00, -0.00, -1.00, 29.4, 79.0)">n</text><text xml:space="preserve" font-family="FiraCode-Regular" font-size="20.0" fill="#FFFFFF" transform="matrix(1.00, 0.00, -0.00, -1.00, 41.6, 79.0)">c</text><text xml:space="preserve" font-family="FiraCode-Regular" font-size="20.0" fill="#FFFFFF" transform="matrix(1.00, 0.00, -0.00, -1.00, 53.8, 79.0)">t</text><text xml:space="preserve" font-family="FiraCode-Regular" font-size="20.0" fill="#FFFFFF" transform="matrix(1.00, 0.00, -0.00, -1.00, 66.0, 79.0)">i</text><text xml:space="preserve" font-family="FiraCode-Regular" font-size="20.0" fill="#FFFFFF" transform="matrix(1.00, 0.00, -0.00, -1.00, 78.2, 79.0)">o</text><text xml:space="preserve" font-family="FiraCode-Regular" font-size="20.0" fill="#FFFFFF" transform="matrix(1.00, 0.00, -0.00, -1.00, 90.4, 79.0)">n</text><text xml:space="preserve" font-family="FiraCode-Regular" font-size="20.0" fill="#FFFFFF" transform="matrix(1.00, 0.00, -0.00, -1.00, 102.6, 79.0)">(</text><text xml:space="preserve" font-family="FiraCode-Regular" font-size="20.0" fill="#FFFFFF" transform="matrix(1.00, 0.00, -0.00, -1.00, 114.8, 79.0)">m</text><text xml:space="preserve" font-family="FiraCode-Regular" font-size="20.0" fill="#FFFFFF" transform="matrix(1.00, 0.00, -0.00, -1.00, 127.0, 79.0)">o</text><text xml:space="preserve" font-family="FiraCode-Regular" font-size="20.0" fill="#FFFFFF" transform="matrix(1.00, 0.00, -0.00, -1.00, 139.2, 79.0)">d</text><text xml:space="preserve" font-family="FiraCode-Regular" font-size="20.0" fill="#FFFFFF" transform="matrix(1.00, 0.00, -0.00, -1.00, 151.4, 79.0)">u</text><text xml:space="preserve" font-family="FiraCode-Regular" font-size="20.0" fill="#FFFFFF" transform="matrix(1.00, 0.00, -0.00, -1.00, 163.6, 79.0)">l</text><text xml:space="preserve" font-family="FiraCode-Regular" font-size="20.0" fill="#FFFFFF" transform="matrix(1.00, 0.00, -0.00, -1.00, 175.8, 79.0)">e</text><text xml:space="preserve" font-family="FiraCode-Regular" font-size="20.0" fill="#FFFFFF" transform="matrix(1.00, 0.00, -0.00, -1.00, 188.0, 79.0)">,</text><text xml:space="preserve" font-family="FiraCode-Regular" font-size="20.0" fill="#FFFFFF" transform="matrix(1.00, 0.00, -0.00, -1.00, 200.2, 79.0)"> </text><text xml:space="preserve" font-family="FiraCode-Regular" font-size="20.0" fill="#FFFFFF" transform="matrix(1.00, 0.00, -0.00, -1.00, 212.4, 79.0)">w</text><text xml:space="preserve" font-family="FiraCode-Regular" font-size="20.0" fill="#FFFFFF" transform="matrix(1.00, 0.00, -0.00, -1.00, 224.6, 79.0)">e</text><text xml:space="preserve" font-family="FiraCode-Regular" font-size="20.0" fill="#FFFFFF" transform="matrix(1.00, 0.00, -0.00, -1.00, 236.8, 79.0)">b</text><text xml:space="preserve" font-family="FiraCode-Regular" font-size="20.0" fill="#FFFFFF" transform="matrix(1.00, 0.00, -0.00, -1.00, 249.0, 79.0)">p</text><text xml:space="preserve" font-family="FiraCode-Regular" font-size="20.0" fill="#FFFFFF" transform="matrix(1.00, 0.00, -0.00, -1.00, 261.2, 79.0)">a</text><text xml:space="preserve" font-family="FiraCode-Regular" font-size="20.0" fill="#FFFFFF" transform="matrix(1.00, 0.00, -0.00, -1.00, 273.4, 79.0)">c</text><text xml:space="preserve" font-family="FiraCode-Regular" font-size="20.0" fill="#FFFFFF" transform="matrix(1.00, 0.00, -0.00, -1.00, 285.6, 79.0)">k</text><text xml:space="preserve" font-family="FiraCode-Regular" font-size="20.0" fill="#FFFFFF" transform="matrix(1.00, 0.00, -0.00, -1.00, 297.8, 79.0)">R</text><text xml:space="preserve" font-family="FiraCode-Regular" font-size="20.0" fill="#FFFFFF" transform="matrix(1.00, 0.00, -0.00, -1.00, 310.0, 79.0)">e</text><text xml:space="preserve" font-family="FiraCode-Regular" font-size="20.0" fill="#FFFFFF" transform="matrix(1.00, 0.00, -0.00, -1.00, 322.2, 79.0)">q</text><text xml:space="preserve" font-family="FiraCode-Regular" font-size="20.0" fill="#FFFFFF" transform="matrix(1.00, 0.00, -0.00, -1.00, 334.4, 79.0)">u</text><text xml:space="preserve" font-family="FiraCode-Regular" font-size="20.0" fill="#FFFFFF" transform="matrix(1.00, 0.00, -0.00, -1.00, 346.6, 79.0)">i</text><text xml:space="preserve" font-family="FiraCode-Regular" font-size="20.0" fill="#FFFFFF" transform="matrix(1.00, 0.00, -0.00, -1.00, 358.8, 79.0)">r</text><text xml:space="preserve" font-family="FiraCode-Regular" font-size="20.0" fill="#FFFFFF" transform="matrix(1.00, 0.00, -0.00, -1.00, 371.0, 79.0)">e</text><text xml:space="preserve" font-family="FiraCode-Regular" font-size="20.0" fill="#FFFFFF" transform="matrix(1.00, 0.00, -0.00, -1.00, 383.2, 79.0)">)</text><text xml:space="preserve" font-family="FiraCode-Regular" font-size="20.0" fill="#FFFFFF" transform="matrix(1.00, 0.00, -0.00, -1.00, 395.4, 79.0)"> </text><text xml:space="preserve" font-family="FiraCode-Regular" font-size="20.0" fill="#FFFFFF" transform="matrix(1.00, 0.00, -0.00, -1.00, 407.6, 79.0)">{</text><text xml:space="preserve" font-family="FiraCode-Regular" font-size="20.0" fill="#FFFFFF" transform="matrix(1.00, 0.00, -0.00, -1.00, 419.8, 79.0)"> </text><text xml:space="preserve" font-family="FiraCode-Regular" font-size="20.0" fill="#FFFFFF" transform="matrix(1.00, 0.00, -0.00, -1.00, 5.0, 55.0)"> </text><text xml:space="preserve" font-family="FiraCode-Regular" font-size="20.0" fill="#FFFFFF" transform="matrix(1.00, 0.00, -0.00, -1.00, 17.2, 55.0)"> </text><text xml:space="preserve" font-family="FiraCode-Regular" font-size="20.0" fill="#FFFFFF" transform="matrix(1.00, 0.00, -0.00, -1.00, 29.4, 55.0)">v</text><text xml:space="preserve" font-family="FiraCode-Regular" font-size="20.0" fill="#FFFFFF" transform="matrix(1.00, 0.00, -0.00, -1.00, 41.6, 55.0)">a</text><text xml:space="preserve" font-family="FiraCode-Regular" font-size="20.0" fill="#FFFFFF" transform="matrix(1.00, 0.00, -0.00, -1.00, 53.8, 55.0)">r</text><text xml:space="preserve" font-family="FiraCode-Regular" font-size="20.0" fill="#FFFFFF" transform="matrix(1.00, 0.00, -0.00, -1.00, 66.0, 55.0)"> </text><text xml:space="preserve" font-family="FiraCode-Regular" font-size="20.0" fill="#FFFFFF" transform="matrix(1.00, 0.00, -0.00, -1.00, 78.2, 55.0)">h</text><text xml:space="preserve" font-family="FiraCode-Regular" font-size="20.0" fill="#FFFFFF" transform="matrix(1.00, 0.00, -0.00, -1.00, 90.4, 55.0)">y</text><text xml:space="preserve" font-family="FiraCode-Regular" font-size="20.0" fill="#FFFFFF" transform="matrix(1.00, 0.00, -0.00, -1.00, 102.6, 55.0)">p</text><text xml:space="preserve" font-family="FiraCode-Regular" font-size="20.0" fill="#FFFFFF" transform="matrix(1.00, 0.00, -0.00, -1.00, 114.8, 55.0)">o</text><text xml:space="preserve" font-family="FiraCode-Regular" font-size="20.0" fill="#FFFFFF" transform="matrix(1.00, 0.00, -0.00, -1.00, 127.0, 55.0)">t</text><text xml:space="preserve" font-family="FiraCode-Regular" font-size="20.0" fill="#FFFFFF" transform="matrix(1.00, 0.00, -0.00, -1.00, 139.2, 55.0)">e</text><text xml:space="preserve" font-family="FiraCode-Regular" font-size="20.0" fill="#FFFFFF" transform="matrix(1.00, 0.00, -0.00, -1.00, 151.4, 55.0)">n</text><text xml:space="preserve" font-family="FiraCode-Regular" font-size="20.0" fill="#FFFFFF" transform="matrix(1.00, 0.00, -0.00, -1.00, 163.6, 55.0)">u</text><text xml:space="preserve" font-family="FiraCode-Regular" font-size="20.0" fill="#FFFFFF" transform="matrix(1.00, 0.00, -0.00, -1.00, 175.8, 55.0)">s</text><text xml:space="preserve" font-family="FiraCode-Regular" font-size="20.0" fill="#FFFFFF" transform="matrix(1.00, 0.00, -0.00, -1.00, 188.0, 55.0)">e</text><text xml:space="preserve" font-family="FiraCode-Regular" font-size="20.0" fill="#FFFFFF" transform="matrix(1.00, 0.00, -0.00, -1.00, 200.2, 55.0)"> </text><text xml:space="preserve" font-family="FiraCode-Regular" font-size="20.0" fill="#FFFFFF" transform="matrix(1.00, 0.00, -0.00, -1.00, 212.4, 55.0)">=</text><text xml:space="preserve" font-family="FiraCode-Regular" font-size="20.0" fill="#FFFFFF" transform="matrix(1.00, 0.00, -0.00, -1.00, 224.6, 55.0)"> </text><text xml:space="preserve" font-family="FiraCode-Regular" font-size="20.0" fill="#FFFFFF" transform="matrix(1.00, 0.00, -0.00, -1.00, 236.8, 55.0)">w</text><text xml:space="preserve" font-family="FiraCode-Regular" font-size="20.0" fill="#FFFFFF" transform="matrix(1.00, 0.00, -0.00, -1.00, 249.0, 55.0)">e</text><text xml:space="preserve" font-family="FiraCode-Regular" font-size="20.0" fill="#FFFFFF" transform="matrix(1.00, 0.00, -0.00, -1.00, 261.2, 55.0)">b</text><text xml:space="preserve" font-family="FiraCode-Regular" font-size="20.0" fill="#FFFFFF" transform="matrix(1.00, 0.00, -0.00, -1.00, 273.4, 55.0)">p</text><text xml:space="preserve" font-family="FiraCode-Regular" font-size="20.0" fill="#FFFFFF" transform="matrix(1.00, 0.00, -0.00, -1.00, 285.6, 55.0)">a</text><text xml:space="preserve" font-family="FiraCode-Regular" font-size="20.0" fill="#FFFFFF" transform="matrix(1.00, 0.00, -0.00, -1.00, 297.8, 55.0)">c</text><text xml:space="preserve" font-family="FiraCode-Regular" font-size="20.0" fill="#FFFFFF" transform="matrix(1.00, 0.00, -0.00, -1.00, 310.0, 55.0)">k</text><text xml:space="preserve" font-family="FiraCode-Regular" font-size="20.0" fill="#FFFFFF" transform="matrix(1.00, 0.00, -0.00, -1.00, 322.2, 55.0)">R</text><text xml:space="preserve" font-family="FiraCode-Regular" font-size="20.0" fill="#FFFFFF" transform="matrix(1.00, 0.00, -0.00, -1.00, 334.4, 55.0)">e</text><text xml:space="preserve" font-family="FiraCode-Regular" font-size="20.0" fill="#FFFFFF" transform="matrix(1.00, 0.00, -0.00, -1.00, 346.6, 55.0)">q</text><text xml:space="preserve" font-family="FiraCode-Regular" font-size="20.0" fill="#FFFFFF" transform="matrix(1.00, 0.00, -0.00, -1.00, 358.8, 55.0)">u</text><text xml:space="preserve" font-family="FiraCode-Regular" font-size="20.0" fill="#FFFFFF" transform="matrix(1.00, 0.00, -0.00, -1.00, 371.0, 55.0)">i</text><text xml:space="preserve" font-family="FiraCode-Regular" font-size="20.0" fill="#FFFFFF" transform="matrix(1.00, 0.00, -0.00, -1.00, 383.2, 55.0)">r</text><text xml:space="preserve" font-family="FiraCode-Regular" font-size="20.0" fill="#FFFFFF" transform="matrix(1.00, 0.00, -0.00, -1.00, 395.4, 55.0)">e</text><text xml:space="preserve" font-family="FiraCode-Regular" font-size="20.0" fill="#FFFFFF" transform="matrix(1.00, 0.00, -0.00, -1.00, 407.6, 55.0)">(</text><text xml:space="preserve" font-family="FiraCode-Regular" font-size="20.0" fill="#FFFFFF" transform="matrix(1.00, 0.00, -0.00, -1.00, 419.8, 55.0)">1</text><text xml:space="preserve" font-family="FiraCode-Regular" font-size="20.0" fill="#FFFFFF" transform="matrix(1.00, 0.00, -0.00, -1.00, 432.0, 55.0)">)</text><text xml:space="preserve" font-family="FiraCode-Regular" font-size="20.0" fill="#FFFFFF" transform="matrix(1.00, 0.00, -0.00, -1.00, 444.2, 55.0)">;</text><text xml:space="preserve" font-family="FiraCode-Regular" font-size="20.0" fill="#FFFFFF" transform="matrix(1.00, 0.00, -0.00, -1.00, 456.4, 55.0)"> </text><text xml:space="preserve" font-family="FiraCode-Regular" font-size="20.0" fill="#FFFFFF" transform="matrix(1.00, 0.00, -0.00, -1.00, 5.0, 31.0)"> </text><text xml:space="preserve" font-family="FiraCode-Regular" font-size="20.0" fill="#FFFFFF" transform="matrix(1.00, 0.00, -0.00, -1.00, 17.2, 31.0)"> </text><text xml:space="preserve" font-family="FiraCode-Regular" font-size="20.0" fill="#FFFFFF" transform="matrix(1.00, 0.00, -0.00, -1.00, 29.4, 31.0)">c</text><text xml:space="preserve" font-family="FiraCode-Regular" font-size="20.0" fill="#FFFFFF" transform="matrix(1.00, 0.00, -0.00, -1.00, 41.6, 31.0)">o</text><text xml:space="preserve" font-family="FiraCode-Regular" font-size="20.0" fill="#FFFFFF" transform="matrix(1.00, 0.00, -0.00, -1.00, 53.8, 31.0)">n</text><text xml:space="preserve" font-family="FiraCode-Regular" font-size="20.0" fill="#FFFFFF" transform="matrix(1.00, 0.00, -0.00, -1.00, 66.0, 31.0)">s</text><text xml:space="preserve" font-family="FiraCode-Regular" font-size="20.0" fill="#FFFFFF" transform="matrix(1.00, 0.00, -0.00, -1.00, 78.2, 31.0)">o</text><text xml:space="preserve" font-family="FiraCode-Regular" font-size="20.0" fill="#FFFFFF" transform="matrix(1.00, 0.00, -0.00, -1.00, 90.4, 31.0)">l</text><text xml:space="preserve" font-family="FiraCode-Regular" font-size="20.0" fill="#FFFFFF" transform="matrix(1.00, 0.00, -0.00, -1.00, 102.6, 31.0)">e</text><text xml:space="preserve" font-family="FiraCode-Regular" font-size="20.0" fill="#FFFFFF" transform="matrix(1.00, 0.00, -0.00, -1.00, 114.8, 31.0)">.</text><text xml:space="preserve" font-family="FiraCode-Regular" font-size="20.0" fill="#FFFFFF" transform="matrix(1.00, 0.00, -0.00, -1.00, 127.0, 31.0)">l</text><text xml:space="preserve" font-family="FiraCode-Regular" font-size="20.0" fill="#FFFFFF" transform="matrix(1.00, 0.00, -0.00, -1.00, 139.2, 31.0)">o</text><text xml:space="preserve" font-family="FiraCode-Regular" font-size="20.0" fill="#FFFFFF" transform="matrix(1.00, 0.00, -0.00, -1.00, 151.4, 31.0)">g</text><text xml:space="preserve" font-family="FiraCode-Regular" font-size="20.0" fill="#FFFFFF" transform="matrix(1.00, 0.00, -0.00, -1.00, 163.6, 31.0)">(</text><text xml:space="preserve" font-family="FiraCode-Regular" font-size="20.0" fill="#FFFFFF" transform="matrix(1.00, 0.00, -0.00, -1.00, 175.8, 31.0)">h</text><text xml:space="preserve" font-family="FiraCode-Regular" font-size="20.0" fill="#FFFFFF" transform="matrix(1.00, 0.00, -0.00, -1.00, 188.0, 31.0)">y</text><text xml:space="preserve" font-family="FiraCode-Regular" font-size="20.0" fill="#FFFFFF" transform="matrix(1.00, 0.00, -0.00, -1.00, 200.2, 31.0)">p</text><text xml:space="preserve" font-family="FiraCode-Regular" font-size="20.0" fill="#FFFFFF" transform="matrix(1.00, 0.00, -0.00, -1.00, 212.4, 31.0)">o</text><text xml:space="preserve" font-family="FiraCode-Regular" font-size="20.0" fill="#FFFFFF" transform="matrix(1.00, 0.00, -0.00, -1.00, 224.6, 31.0)">t</text><text xml:space="preserve" font-family="FiraCode-Regular" font-size="20.0" fill="#FFFFFF" transform="matrix(1.00, 0.00, -0.00, -1.00, 236.8, 31.0)">e</text><text xml:space="preserve" font-family="FiraCode-Regular" font-size="20.0" fill="#FFFFFF" transform="matrix(1.00, 0.00, -0.00, -1.00, 249.0, 31.0)">n</text><text xml:space="preserve" font-family="FiraCode-Regular" font-size="20.0" fill="#FFFFFF" transform="matrix(1.00, 0.00, -0.00, -1.00, 261.2, 31.0)">u</text><text xml:space="preserve" font-family="FiraCode-Regular" font-size="20.0" fill="#FFFFFF" transform="matrix(1.00, 0.00, -0.00, -1.00, 273.4, 31.0)">s</text><text xml:space="preserve" font-family="FiraCode-Regular" font-size="20.0" fill="#FFFFFF" transform="matrix(1.00, 0.00, -0.00, -1.00, 285.6, 31.0)">e</text><text xml:space="preserve" font-family="FiraCode-Regular" font-size="20.0" fill="#FFFFFF" transform="matrix(1.00, 0.00, -0.00, -1.00, 297.8, 31.0)">(</text><text xml:space="preserve" font-family="FiraCode-Regular" font-size="20.0" fill="#FFFFFF" transform="matrix(1.00, 0.00, -0.00, -1.00, 310.0, 31.0)">3</text><text xml:space="preserve" font-family="FiraCode-Regular" font-size="20.0" fill="#FFFFFF" transform="matrix(1.00, 0.00, -0.00, -1.00, 322.2, 31.0)">,</text><text xml:space="preserve" font-family="FiraCode-Regular" font-size="20.0" fill="#FFFFFF" transform="matrix(1.00, 0.00, -0.00, -1.00, 334.4, 31.0)"> </text><text xml:space="preserve" font-family="FiraCode-Regular" font-size="20.0" fill="#FFFFFF" transform="matrix(1.00, 0.00, -0.00, -1.00, 346.6, 31.0)">4</text><text xml:space="preserve" font-family="FiraCode-Regular" font-size="20.0" fill="#FFFFFF" transform="matrix(1.00, 0.00, -0.00, -1.00, 358.8, 31.0)">)</text><text xml:space="preserve" font-family="FiraCode-Regular" font-size="20.0" fill="#FFFFFF" transform="matrix(1.00, 0.00, -0.00, -1.00, 371.0, 31.0)">;</text><text xml:space="preserve" font-family="FiraCode-Regular" font-size="20.0" fill="#FFFFFF" transform="matrix(1.00, 0.00, -0.00, -1.00, 383.2, 31.0)"> </text></g></g><g><clipPath id="clip-748"><path d="M 0.0 4.9 L 465.0 4.9 L 465.0 126.9 L 0.0 126.9 Z M 0.0 4.9 "></path></clipPath><g clip-path="url(#clip-748)"><text xml:space="preserve" font-family="FiraCode-Regular" font-size="20.0" fill="#FFFFFF" transform="matrix(1.00, 0.00, -0.00, -1.00, 5.0, 7.0)">}</text></g></g></g></svg>