<?xml version="1.0" encoding="UTF-8" standalone="no"?><svg xmlns="http://www.w3.org/2000/svg" xmlns:xlink="http://www.w3.org/1999/xlink" clip-rule="evenodd" stroke-miterlimit="4.00" viewBox="0 0 465 150"><desc>SVG generated by Keynote</desc><defs></defs><g transform="matrix(1.00, 0.00, -0.00, -1.00, 0.0, 150.0)"><path d="M 1.5 148.3 L 463.4 148.3 L 463.4 1.1 L 1.5 1.1 Z M 1.5 148.3 " fill="#00A100"></path><g><clipPath id="clip-3000"><path d="M 0.1 0.9 L 464.8 0.9 L 464.8 148.3 L 0.1 148.3 Z M 0.1 0.9 "></path></clipPath><g clip-path="url(#clip-3000)"><text xml:space="preserve" font-family="FiraCode-Bold" font-weight="bold" font-size="18.0" fill="#CACACA" transform="matrix(1.00, 0.00, -0.00, -1.00, 16.0, 121.0)">/</text><text xml:space="preserve" font-family="FiraCode-Bold" font-weight="bold" font-size="18.0" fill="#CACACA" transform="matrix(1.00, 0.00, -0.00, -1.00, 27.0, 121.0)">/</text><text xml:space="preserve" font-family="FiraCode-Bold" font-weight="bold" font-size="18.0" fill="#CACACA" transform="matrix(1.00, 0.00, -0.00, -1.00, 37.9, 121.0)"> </text><text xml:space="preserve" font-family="FiraCode-Bold" font-weight="bold" font-size="18.0" fill="#CACACA" transform="matrix(1.00, 0.00, -0.00, -1.00, 48.9, 121.0)">s</text><text xml:space="preserve" font-family="FiraCode-Bold" font-weight="bold" font-size="18.0" fill="#CACACA" transform="matrix(1.00, 0.00, -0.00, -1.00, 59.9, 121.0)">q</text><text xml:space="preserve" font-family="FiraCode-Bold" font-weight="bold" font-size="18.0" fill="#CACACA" transform="matrix(1.00, 0.00, -0.00, -1.00, 70.9, 121.0)">u</text><text xml:space="preserve" font-family="FiraCode-Bold" font-weight="bold" font-size="18.0" fill="#CACACA" transform="matrix(1.00, 0.00, -0.00, -1.00, 81.9, 121.0)">a</text><text xml:space="preserve" font-family="FiraCode-Bold" font-weight="bold" font-size="18.0" fill="#CACACA" transform="matrix(1.00, 0.00, -0.00, -1.00, 92.8, 121.0)">r</text><text xml:space="preserve" font-family="FiraCode-Bold" font-weight="bold" font-size="18.0" fill="#CACACA" transform="matrix(1.00, 0.00, -0.00, -1.00, 103.8, 121.0)">e</text><text xml:space="preserve" font-family="FiraCode-Bold" font-weight="bold" font-size="18.0" fill="#CACACA" transform="matrix(1.00, 0.00, -0.00, -1.00, 114.8, 121.0)">.</text><text xml:space="preserve" font-family="FiraCode-Bold" font-weight="bold" font-size="18.0" fill="#CACACA" transform="matrix(1.00, 0.00, -0.00, -1.00, 125.8, 121.0)">j</text><text xml:space="preserve" font-family="FiraCode-Bold" font-weight="bold" font-size="18.0" fill="#CACACA" transform="matrix(1.00, 0.00, -0.00, -1.00, 136.8, 121.0)">s</text><text xml:space="preserve" font-family="FiraCode-Bold" font-weight="bold" font-size="18.0" fill="#CACACA" transform="matrix(1.00, 0.00, -0.00, -1.00, 147.7, 121.0)"> </text><text xml:space="preserve" font-family="FiraCode-Regular" font-size="18.0" fill="#FFFFFF" transform="matrix(1.00, 0.00, -0.00, -1.00, 5.0, 99.0)">f</text><text xml:space="preserve" font-family="FiraCode-Regular" font-size="18.0" fill="#FFFFFF" transform="matrix(1.00, 0.00, -0.00, -1.00, 16.0, 99.0)">u</text><text xml:space="preserve" font-family="FiraCode-Regular" font-size="18.0" fill="#FFFFFF" transform="matrix(1.00, 0.00, -0.00, -1.00, 27.0, 99.0)">n</text><text xml:space="preserve" font-family="FiraCode-Regular" font-size="18.0" fill="#FFFFFF" transform="matrix(1.00, 0.00, -0.00, -1.00, 37.9, 99.0)">c</text><text xml:space="preserve" font-family="FiraCode-Regular" font-size="18.0" fill="#FFFFFF" transform="matrix(1.00, 0.00, -0.00, -1.00, 48.9, 99.0)">t</text><text xml:space="preserve" font-family="FiraCode-Regular" font-size="18.0" fill="#FFFFFF" transform="matrix(1.00, 0.00, -0.00, -1.00, 59.9, 99.0)">i</text><text xml:space="preserve" font-family="FiraCode-Regular" font-size="18.0" fill="#FFFFFF" transform="matrix(1.00, 0.00, -0.00, -1.00, 70.9, 99.0)">o</text><text xml:space="preserve" font-family="FiraCode-Regular" font-size="18.0" fill="#FFFFFF" transform="matrix(1.00, 0.00, -0.00, -1.00, 81.9, 99.0)">n</text><text xml:space="preserve" font-family="FiraCode-Regular" font-size="18.0" fill="#FFFFFF" transform="matrix(1.00, 0.00, -0.00, -1.00, 92.8, 99.0)">(</text><text xml:space="preserve" font-family="FiraCode-Regular" font-size="18.0" fill="#FFFFFF" transform="matrix(1.00, 0.00, -0.00, -1.00, 103.8, 99.0)">m</text><text xml:space="preserve" font-family="FiraCode-Regular" font-size="18.0" fill="#FFFFFF" transform="matrix(1.00, 0.00, -0.00, -1.00, 114.8, 99.0)">o</text><text xml:space="preserve" font-family="FiraCode-Regular" font-size="18.0" fill="#FFFFFF" transform="matrix(1.00, 0.00, -0.00, -1.00, 125.8, 99.0)">d</text><text xml:space="preserve" font-family="FiraCode-Regular" font-size="18.0" fill="#FFFFFF" transform="matrix(1.00, 0.00, -0.00, -1.00, 136.8, 99.0)">u</text><text xml:space="preserve" font-family="FiraCode-Regular" font-size="18.0" fill="#FFFFFF" transform="matrix(1.00, 0.00, -0.00, -1.00, 147.7, 99.0)">l</text><text xml:space="preserve" font-family="FiraCode-Regular" font-size="18.0" fill="#FFFFFF" transform="matrix(1.00, 0.00, -0.00, -1.00, 158.7, 99.0)">e</text><text xml:space="preserve" font-family="FiraCode-Regular" font-size="18.0" fill="#FFFFFF" transform="matrix(1.00, 0.00, -0.00, -1.00, 169.7, 99.0)">,</text><text xml:space="preserve" font-family="FiraCode-Regular" font-size="18.0" fill="#FFFFFF" transform="matrix(1.00, 0.00, -0.00, -1.00, 180.7, 99.0)"> </text><text xml:space="preserve" font-family="FiraCode-Regular" font-size="18.0" fill="#FFFFFF" transform="matrix(1.00, 0.00, -0.00, -1.00, 191.7, 99.0)">w</text><text xml:space="preserve" font-family="FiraCode-Regular" font-size="18.0" fill="#FFFFFF" transform="matrix(1.00, 0.00, -0.00, -1.00, 202.6, 99.0)">e</text><text xml:space="preserve" font-family="FiraCode-Regular" font-size="18.0" fill="#FFFFFF" transform="matrix(1.00, 0.00, -0.00, -1.00, 213.6, 99.0)">b</text><text xml:space="preserve" font-family="FiraCode-Regular" font-size="18.0" fill="#FFFFFF" transform="matrix(1.00, 0.00, -0.00, -1.00, 224.6, 99.0)">p</text><text xml:space="preserve" font-family="FiraCode-Regular" font-size="18.0" fill="#FFFFFF" transform="matrix(1.00, 0.00, -0.00, -1.00, 235.6, 99.0)">a</text><text xml:space="preserve" font-family="FiraCode-Regular" font-size="18.0" fill="#FFFFFF" transform="matrix(1.00, 0.00, -0.00, -1.00, 246.6, 99.0)">c</text><text xml:space="preserve" font-family="FiraCode-Regular" font-size="18.0" fill="#FFFFFF" transform="matrix(1.00, 0.00, -0.00, -1.00, 257.5, 99.0)">k</text><text xml:space="preserve" font-family="FiraCode-Regular" font-size="18.0" fill="#FFFFFF" transform="matrix(1.00, 0.00, -0.00, -1.00, 268.5, 99.0)">R</text><text xml:space="preserve" font-family="FiraCode-Regular" font-size="18.0" fill="#FFFFFF" transform="matrix(1.00, 0.00, -0.00, -1.00, 279.5, 99.0)">e</text><text xml:space="preserve" font-family="FiraCode-Regular" font-size="18.0" fill="#FFFFFF" transform="matrix(1.00, 0.00, -0.00, -1.00, 290.5, 99.0)">q</text><text xml:space="preserve" font-family="FiraCode-Regular" font-size="18.0" fill="#FFFFFF" transform="matrix(1.00, 0.00, -0.00, -1.00, 301.5, 99.0)">u</text><text xml:space="preserve" font-family="FiraCode-Regular" font-size="18.0" fill="#FFFFFF" transform="matrix(1.00, 0.00, -0.00, -1.00, 312.4, 99.0)">i</text><text xml:space="preserve" font-family="FiraCode-Regular" font-size="18.0" fill="#FFFFFF" transform="matrix(1.00, 0.00, -0.00, -1.00, 323.4, 99.0)">r</text><text xml:space="preserve" font-family="FiraCode-Regular" font-size="18.0" fill="#FFFFFF" transform="matrix(1.00, 0.00, -0.00, -1.00, 334.4, 99.0)">e</text><text xml:space="preserve" font-family="FiraCode-Regular" font-size="18.0" fill="#FFFFFF" transform="matrix(1.00, 0.00, -0.00, -1.00, 345.4, 99.0)">)</text><text xml:space="preserve" font-family="FiraCode-Regular" font-size="18.0" fill="#FFFFFF" transform="matrix(1.00, 0.00, -0.00, -1.00, 356.4, 99.0)"> </text><text xml:space="preserve" font-family="FiraCode-Regular" font-size="18.0" fill="#FFFFFF" transform="matrix(1.00, 0.00, -0.00, -1.00, 367.3, 99.0)">{</text><text xml:space="preserve" font-family="FiraCode-Regular" font-size="18.0" fill="#FFFFFF" transform="matrix(1.00, 0.00, -0.00, -1.00, 378.3, 99.0)"> </text><text xml:space="preserve" font-family="FiraCode-Regular" font-size="18.0" fill="#FFFFFF" transform="matrix(1.00, 0.00, -0.00, -1.00, 5.0, 77.0)"> </text><text xml:space="preserve" font-family="FiraCode-Regular" font-size="18.0" fill="#FFFFFF" transform="matrix(1.00, 0.00, -0.00, -1.00, 16.0, 77.0)"> </text><text xml:space="preserve" font-family="FiraCode-Regular" font-size="18.0" fill="#FFFFFF" transform="matrix(1.00, 0.00, -0.00, -1.00, 27.0, 77.0)">m</text><text xml:space="preserve" font-family="FiraCode-Regular" font-size="18.0" fill="#FFFFFF" transform="matrix(1.00, 0.00, -0.00, -1.00, 37.9, 77.0)">o</text><text xml:space="preserve" font-family="FiraCode-Regular" font-size="18.0" fill="#FFFFFF" transform="matrix(1.00, 0.00, -0.00, -1.00, 48.9, 77.0)">d</text><text xml:space="preserve" font-family="FiraCode-Regular" font-size="18.0" fill="#FFFFFF" transform="matrix(1.00, 0.00, -0.00, -1.00, 59.9, 77.0)">u</text><text xml:space="preserve" font-family="FiraCode-Regular" font-size="18.0" fill="#FFFFFF" transform="matrix(1.00, 0.00, -0.00, -1.00, 70.9, 77.0)">l</text><text xml:space="preserve" font-family="FiraCode-Regular" font-size="18.0" fill="#FFFFFF" transform="matrix(1.00, 0.00, -0.00, -1.00, 81.9, 77.0)">e</text><text xml:space="preserve" font-family="FiraCode-Regular" font-size="18.0" fill="#FFFFFF" transform="matrix(1.00, 0.00, -0.00, -1.00, 92.8, 77.0)">.</text><text xml:space="preserve" font-family="FiraCode-Regular" font-size="18.0" fill="#FFFFFF" transform="matrix(1.00, 0.00, -0.00, -1.00, 103.8, 77.0)">e</text><text xml:space="preserve" font-family="FiraCode-Regular" font-size="18.0" fill="#FFFFFF" transform="matrix(1.00, 0.00, -0.00, -1.00, 114.8, 77.0)">x</text><text xml:space="preserve" font-family="FiraCode-Regular" font-size="18.0" fill="#FFFFFF" transform="matrix(1.00, 0.00, -0.00, -1.00, 125.8, 77.0)">p</text><text xml:space="preserve" font-family="FiraCode-Regular" font-size="18.0" fill="#FFFFFF" transform="matrix(1.00, 0.00, -0.00, -1.00, 136.8, 77.0)">o</text><text xml:space="preserve" font-family="FiraCode-Regular" font-size="18.0" fill="#FFFFFF" transform="matrix(1.00, 0.00, -0.00, -1.00, 147.7, 77.0)">r</text><text xml:space="preserve" font-family="FiraCode-Regular" font-size="18.0" fill="#FFFFFF" transform="matrix(1.00, 0.00, -0.00, -1.00, 158.7, 77.0)">t</text><text xml:space="preserve" font-family="FiraCode-Regular" font-size="18.0" fill="#FFFFFF" transform="matrix(1.00, 0.00, -0.00, -1.00, 169.7, 77.0)">s</text><text xml:space="preserve" font-family="FiraCode-Regular" font-size="18.0" fill="#FFFFFF" transform="matrix(1.00, 0.00, -0.00, -1.00, 180.7, 77.0)"> </text><text xml:space="preserve" font-family="FiraCode-Regular" font-size="18.0" fill="#FFFFFF" transform="matrix(1.00, 0.00, -0.00, -1.00, 191.7, 77.0)">=</text><text xml:space="preserve" font-family="FiraCode-Regular" font-size="18.0" fill="#FFFFFF" transform="matrix(1.00, 0.00, -0.00, -1.00, 202.6, 77.0)"> </text><text xml:space="preserve" font-family="FiraCode-Regular" font-size="18.0" fill="#FFFFFF" transform="matrix(1.00, 0.00, -0.00, -1.00, 213.6, 77.0)">f</text><text xml:space="preserve" font-family="FiraCode-Regular" font-size="18.0" fill="#FFFFFF" transform="matrix(1.00, 0.00, -0.00, -1.00, 224.6, 77.0)">u</text><text xml:space="preserve" font-family="FiraCode-Regular" font-size="18.0" fill="#FFFFFF" transform="matrix(1.00, 0.00, -0.00, -1.00, 235.6, 77.0)">n</text><text xml:space="preserve" font-family="FiraCode-Regular" font-size="18.0" fill="#FFFFFF" transform="matrix(1.00, 0.00, -0.00, -1.00, 246.6, 77.0)">c</text><text xml:space="preserve" font-family="FiraCode-Regular" font-size="18.0" fill="#FFFFFF" transform="matrix(1.00, 0.00, -0.00, -1.00, 257.5, 77.0)">t</text><text xml:space="preserve" font-family="FiraCode-Regular" font-size="18.0" fill="#FFFFFF" transform="matrix(1.00, 0.00, -0.00, -1.00, 268.5, 77.0)">i</text><text xml:space="preserve" font-family="FiraCode-Regular" font-size="18.0" fill="#FFFFFF" transform="matrix(1.00, 0.00, -0.00, -1.00, 279.5, 77.0)">o</text><text xml:space="preserve" font-family="FiraCode-Regular" font-size="18.0" fill="#FFFFFF" transform="matrix(1.00, 0.00, -0.00, -1.00, 290.5, 77.0)">n</text><text xml:space="preserve" font-family="FiraCode-Regular" font-size="18.0" fill="#FFFFFF" transform="matrix(1.00, 0.00, -0.00, -1.00, 301.5, 77.0)">(</text><text xml:space="preserve" font-family="FiraCode-Regular" font-size="18.0" fill="#FFFFFF" transform="matrix(1.00, 0.00, -0.00, -1.00, 312.4, 77.0)">x</text><text xml:space="preserve" font-family="FiraCode-Regular" font-size="18.0" fill="#FFFFFF" transform="matrix(1.00, 0.00, -0.00, -1.00, 323.4, 77.0)">)</text><text xml:space="preserve" font-family="FiraCode-Regular" font-size="18.0" fill="#FFFFFF" transform="matrix(1.00, 0.00, -0.00, -1.00, 334.4, 77.0)"> </text><text xml:space="preserve" font-family="FiraCode-Regular" font-size="18.0" fill="#FFFFFF" transform="matrix(1.00, 0.00, -0.00, -1.00, 345.4, 77.0)">{</text><text xml:space="preserve" font-family="FiraCode-Regular" font-size="18.0" fill="#FFFFFF" transform="matrix(1.00, 0.00, -0.00, -1.00, 356.4, 77.0)"> </text><text xml:space="preserve" font-family="FiraCode-Regular" font-size="18.0" fill="#FFFFFF" transform="matrix(1.00, 0.00, -0.00, -1.00, 5.0, 55.0)"> </text><text xml:space="preserve" font-family="FiraCode-Regular" font-size="18.0" fill="#FFFFFF" transform="matrix(1.00, 0.00, -0.00, -1.00, 16.0, 55.0)"> </text><text xml:space="preserve" font-family="FiraCode-Regular" font-size="18.0" fill="#FFFFFF" transform="matrix(1.00, 0.00, -0.00, -1.00, 27.0, 55.0)"> </text><text xml:space="preserve" font-family="FiraCode-Regular" font-size="18.0" fill="#FFFFFF" transform="matrix(1.00, 0.00, -0.00, -1.00, 37.9, 55.0)"> </text><text xml:space="preserve" font-family="FiraCode-Regular" font-size="18.0" fill="#FFFFFF" transform="matrix(1.00, 0.00, -0.00, -1.00, 48.9, 55.0)">r</text><text xml:space="preserve" font-family="FiraCode-Regular" font-size="18.0" fill="#FFFFFF" transform="matrix(1.00, 0.00, -0.00, -1.00, 59.9, 55.0)">e</text><text xml:space="preserve" font-family="FiraCode-Regular" font-size="18.0" fill="#FFFFFF" transform="matrix(1.00, 0.00, -0.00, -1.00, 70.9, 55.0)">t</text><text xml:space="preserve" font-family="FiraCode-Regular" font-size="18.0" fill="#FFFFFF" transform="matrix(1.00, 0.00, -0.00, -1.00, 81.9, 55.0)">u</text><text xml:space="preserve" font-family="FiraCode-Regular" font-size="18.0" fill="#FFFFFF" transform="matrix(1.00, 0.00, -0.00, -1.00, 92.8, 55.0)">r</text><text xml:space="preserve" font-family="FiraCode-Regular" font-size="18.0" fill="#FFFFFF" transform="matrix(1.00, 0.00, -0.00, -1.00, 103.8, 55.0)">n</text><text xml:space="preserve" font-family="FiraCode-Regular" font-size="18.0" fill="#FFFFFF" transform="matrix(1.00, 0.00, -0.00, -1.00, 114.8, 55.0)"> </text><text xml:space="preserve" font-family="FiraCode-Regular" font-size="18.0" fill="#FFFFFF" transform="matrix(1.00, 0.00, -0.00, -1.00, 125.8, 55.0)">x</text><text xml:space="preserve" font-family="FiraCode-Regular" font-size="18.0" fill="#FFFFFF" transform="matrix(1.00, 0.00, -0.00, -1.00, 136.8, 55.0)"> </text><text xml:space="preserve" font-family="FiraCode-Regular" font-size="18.0" fill="#FFFFFF" transform="matrix(1.00, 0.00, -0.00, -1.00, 147.7, 55.0)">*</text><text xml:space="preserve" font-family="FiraCode-Regular" font-size="18.0" fill="#FFFFFF" transform="matrix(1.00, 0.00, -0.00, -1.00, 158.7, 55.0)"> </text><text xml:space="preserve" font-family="FiraCode-Regular" font-size="18.0" fill="#FFFFFF" transform="matrix(1.00, 0.00, -0.00, -1.00, 169.7, 55.0)">x</text><text xml:space="preserve" font-family="FiraCode-Regular" font-size="18.0" fill="#FFFFFF" transform="matrix(1.00, 0.00, -0.00, -1.00, 180.7, 55.0)">;</text><text xml:space="preserve" font-family="FiraCode-Regular" font-size="18.0" fill="#FFFFFF" transform="matrix(1.00, 0.00, -0.00, -1.00, 191.7, 55.0)"> </text><text xml:space="preserve" font-family="FiraCode-Regular" font-size="18.0" fill="#FFFFFF" transform="matrix(1.00, 0.00, -0.00, -1.00, 5.0, 33.0)"> </text><text xml:space="preserve" font-family="FiraCode-Regular" font-size="18.0" fill="#FFFFFF" transform="matrix(1.00, 0.00, -0.00, -1.00, 16.0, 33.0)"> </text><text xml:space="preserve" font-family="FiraCode-Regular" font-size="18.0" fill="#FFFFFF" transform="matrix(1.00, 0.00, -0.00, -1.00, 27.0, 33.0)">}</text><text xml:space="preserve" font-family="FiraCode-Regular" font-size="18.0" fill="#FFFFFF" transform="matrix(1.00, 0.00, -0.00, -1.00, 37.9, 33.0)">;</text><text xml:space="preserve" font-family="FiraCode-Regular" font-size="18.0" fill="#FFFFFF" transform="matrix(1.00, 0.00, -0.00, -1.00, 48.9, 33.0)"> </text><text xml:space="preserve" font-family="FiraCode-Regular" font-size="18.0" fill="#FFFFFF" transform="matrix(1.00, 0.00, -0.00, -1.00, 5.0, 11.0)">}</text></g></g></g></svg>