<?xml version="1.0" encoding="UTF-8" standalone="no"?><svg xmlns="http://www.w3.org/2000/svg" xmlns:xlink="http://www.w3.org/1999/xlink" clip-rule="evenodd" stroke-miterlimit="4.00" viewBox="0 0 1024 768"><desc>SVG generated by Keynote</desc><defs></defs><g transform="matrix(1.00, 0.00, -0.00, -1.00, 0.0, 768.0)"><path d="M 0.0 768.0 L 1024.0 768.0 L 1024.0 0.0 L 0.0 0.0 Z M 0.0 768.0 " fill="#363637"></path><g><clipPath id="clip-728"><path d="M 64.6 291.3 L 212.7 291.3 L 212.7 476.7 L 64.6 476.7 Z M 64.6 291.3 "></path></clipPath><g clip-path="url(#clip-728)"><path d="M 65.6 475.7 L 211.7 475.7 L 211.7 292.3 L 65.6 292.3 Z M 65.6 475.7 " fill="#7035CE"></path></g></g><g><clipPath id="clip-729"><path d="M 77.3 421.4 L 200.0 421.4 L 200.0 452.8 L 77.3 452.8 Z M 77.3 421.4 "></path></clipPath><g clip-path="url(#clip-729)"><path d="M 78.3 451.8 L 199.0 451.8 L 199.0 422.4 L 78.3 422.4 Z M 78.3 451.8 " fill="#00A100"></path></g></g><path d="M 65.6 208.4 L 211.7 208.4 L 211.7 25.1 L 65.6 25.1 Z M 65.6 208.4 " fill="#00A100"></path><path d="M 65.6 725.8 L 211.7 725.8 L 211.7 542.5 L 65.6 542.5 Z M 65.6 725.8 " fill="#DF613B"></path><path d="M 78.3 702.0 L 199.0 702.0 L 199.0 672.5 L 78.3 672.5 Z M 78.3 702.0 " fill="#7035CE"></path></g></svg>