<?xml version="1.0" encoding="UTF-8" standalone="no"?><svg xmlns="http://www.w3.org/2000/svg" xmlns:xlink="http://www.w3.org/1999/xlink" clip-rule="evenodd" stroke-miterlimit="4.00" viewBox="0 0 920 137"><desc>SVG generated by Keynote</desc><defs></defs><g transform="matrix(1.00, 0.00, -0.00, -1.00, 0.0, 137.0)"><text xml:space="preserve" font-family="AvenirNext-DemiBold" font-weight="bold" font-size="35.7" fill="#FFFFFF" transform="matrix(1.00, 0.00, -0.00, -1.00, 2.0, 108.0)">Y</text><text xml:space="preserve" font-family="AvenirNext-DemiBold" font-weight="bold" font-size="35.7" fill="#FFFFFF" transform="matrix(1.00, 0.00, -0.00, -1.00, 20.9, 108.0)">o</text><text xml:space="preserve" font-family="AvenirNext-DemiBold" font-weight="bold" font-size="35.7" fill="#FFFFFF" transform="matrix(1.00, 0.00, -0.00, -1.00, 42.7, 108.0)">u</text><text xml:space="preserve" font-family="AvenirNext-DemiBold" font-weight="bold" font-size="35.7" fill="#FFFFFF" transform="matrix(1.00, 0.00, -0.00, -1.00, 63.4, 108.0)"> </text><text xml:space="preserve" font-family="AvenirNext-DemiBold" font-weight="bold" font-size="35.7" fill="#FFFFFF" transform="matrix(1.00, 0.00, -0.00, -1.00, 72.3, 108.0)">m</text><text xml:space="preserve" font-family="AvenirNext-DemiBold" font-weight="bold" font-size="35.7" fill="#FFFFFF" transform="matrix(1.00, 0.00, -0.00, -1.00, 104.1, 108.0)">a</text><text xml:space="preserve" font-family="AvenirNext-DemiBold" font-weight="bold" font-size="35.7" fill="#FFFFFF" transform="matrix(1.00, 0.00, -0.00, -1.00, 123.7, 108.0)">y</text><text xml:space="preserve" font-family="AvenirNext-DemiBold" font-weight="bold" font-size="35.7" fill="#FFFFFF" transform="matrix(1.00, 0.00, -0.00, -1.00, 142.0, 108.0)"> </text><text xml:space="preserve" font-family="AvenirNext-DemiBold" font-weight="bold" font-size="35.7" fill="#FFFFFF" transform="matrix(1.00, 0.00, -0.00, -1.00, 151.0, 108.0)">h</text><text xml:space="preserve" font-family="AvenirNext-DemiBold" font-weight="bold" font-size="35.7" fill="#FFFFFF" transform="matrix(1.00, 0.00, -0.00, -1.00, 171.8, 108.0)">a</text><text xml:space="preserve" font-family="AvenirNext-DemiBold" font-weight="bold" font-size="35.7" fill="#FFFFFF" transform="matrix(1.00, 0.00, -0.00, -1.00, 191.4, 108.0)">v</text><text xml:space="preserve" font-family="AvenirNext-DemiBold" font-weight="bold" font-size="35.7" fill="#FFFFFF" transform="matrix(1.00, 0.00, -0.00, -1.00, 209.8, 108.0)">e</text><text xml:space="preserve" font-family="AvenirNext-DemiBold" font-weight="bold" font-size="35.7" fill="#FFFFFF" transform="matrix(1.00, 0.00, -0.00, -1.00, 230.2, 108.0)"> </text><text xml:space="preserve" font-family="AvenirNext-DemiBold" font-weight="bold" font-size="35.7" fill="#FFFFFF" transform="matrix(1.00, 0.00, -0.00, -1.00, 239.2, 108.0)">n</text><text xml:space="preserve" font-family="AvenirNext-DemiBold" font-weight="bold" font-size="35.7" fill="#FFFFFF" transform="matrix(1.00, 0.00, -0.00, -1.00, 259.9, 108.0)">o</text><text xml:space="preserve" font-family="AvenirNext-DemiBold" font-weight="bold" font-size="35.7" fill="#FFFFFF" transform="matrix(1.00, 0.00, -0.00, -1.00, 281.7, 108.0)">t</text><text xml:space="preserve" font-family="AvenirNext-DemiBold" font-weight="bold" font-size="35.7" fill="#FFFFFF" transform="matrix(1.00, 0.00, -0.00, -1.00, 293.8, 108.0)">i</text><text xml:space="preserve" font-family="AvenirNext-DemiBold" font-weight="bold" font-size="35.7" fill="#FFFFFF" transform="matrix(1.00, 0.00, -0.00, -1.00, 303.4, 108.0)">c</text><text xml:space="preserve" font-family="AvenirNext-DemiBold" font-weight="bold" font-size="35.7" fill="#FFFFFF" transform="matrix(1.00, 0.00, -0.00, -1.00, 320.8, 108.0)">e</text><text xml:space="preserve" font-family="AvenirNext-DemiBold" font-weight="bold" font-size="35.7" fill="#FFFFFF" transform="matrix(1.00, 0.00, -0.00, -1.00, 341.3, 108.0)">d</text><text xml:space="preserve" font-family="AvenirNext-DemiBold" font-weight="bold" font-size="35.7" fill="#FFFFFF" transform="matrix(1.00, 0.00, -0.00, -1.00, 363.9, 108.0)"> </text><text xml:space="preserve" font-family="AvenirNext-DemiBold" font-weight="bold" font-size="35.7" fill="#FFFFFF" transform="matrix(1.00, 0.00, -0.00, -1.00, 372.9, 108.0)">t</text><text xml:space="preserve" font-family="AvenirNext-DemiBold" font-weight="bold" font-size="35.7" fill="#FFFFFF" transform="matrix(1.00, 0.00, -0.00, -1.00, 385.0, 108.0)">h</text><text xml:space="preserve" font-family="AvenirNext-DemiBold" font-weight="bold" font-size="35.7" fill="#FFFFFF" transform="matrix(1.00, 0.00, -0.00, -1.00, 405.8, 108.0)">a</text><text xml:space="preserve" font-family="AvenirNext-DemiBold" font-weight="bold" font-size="35.7" fill="#FFFFFF" transform="matrix(1.00, 0.00, -0.00, -1.00, 425.1, 108.0)">t</text><text xml:space="preserve" font-family="AvenirNext-DemiBold" font-weight="bold" font-size="35.7" fill="#FFFFFF" transform="matrix(1.00, 0.00, -0.00, -1.00, 437.2, 108.0)"> </text><text xml:space="preserve" font-family="AvenirNext-DemiBold" font-weight="bold" font-size="35.7" fill="#F1C114" transform="matrix(1.00, 0.00, -0.00, -1.00, 446.2, 108.0)">r</text><text xml:space="preserve" font-family="AvenirNext-DemiBold" font-weight="bold" font-size="35.7" fill="#F1C114" transform="matrix(1.00, 0.00, -0.00, -1.00, 458.5, 108.0)">e</text><text xml:space="preserve" font-family="AvenirNext-DemiBold" font-weight="bold" font-size="35.7" fill="#F1C114" transform="matrix(1.00, 0.00, -0.00, -1.00, 479.0, 108.0)">p</text><text xml:space="preserve" font-family="AvenirNext-DemiBold" font-weight="bold" font-size="35.7" fill="#F1C114" transform="matrix(1.00, 0.00, -0.00, -1.00, 501.6, 108.0)">l</text><text xml:space="preserve" font-family="AvenirNext-DemiBold" font-weight="bold" font-size="35.7" fill="#F1C114" transform="matrix(1.00, 0.00, -0.00, -1.00, 511.2, 108.0)">a</text><text xml:space="preserve" font-family="AvenirNext-DemiBold" font-weight="bold" font-size="35.7" fill="#F1C114" transform="matrix(1.00, 0.00, -0.00, -1.00, 530.8, 108.0)">c</text><text xml:space="preserve" font-family="AvenirNext-DemiBold" font-weight="bold" font-size="35.7" fill="#F1C114" transform="matrix(1.00, 0.00, -0.00, -1.00, 548.2, 108.0)">i</text><text xml:space="preserve" font-family="AvenirNext-DemiBold" font-weight="bold" font-size="35.7" fill="#F1C114" transform="matrix(1.00, 0.00, -0.00, -1.00, 557.8, 108.0)">n</text><text xml:space="preserve" font-family="AvenirNext-DemiBold" font-weight="bold" font-size="35.7" fill="#F1C114" transform="matrix(1.00, 0.00, -0.00, -1.00, 578.5, 108.0)">g</text><text xml:space="preserve" font-family="AvenirNext-DemiBold" font-weight="bold" font-size="35.7" fill="#F1C114" transform="matrix(1.00, 0.00, -0.00, -1.00, 601.1, 108.0)"> </text><text xml:space="preserve" font-family="AvenirNext-DemiBold" font-weight="bold" font-size="35.7" fill="#F1C114" transform="matrix(1.00, 0.00, -0.00, -1.00, 610.0, 108.0)">r</text><text xml:space="preserve" font-family="AvenirNext-DemiBold" font-weight="bold" font-size="35.7" fill="#F1C114" transform="matrix(1.00, 0.00, -0.00, -1.00, 622.4, 108.0)">e</text><text xml:space="preserve" font-family="AvenirNext-DemiBold" font-weight="bold" font-size="35.7" fill="#F1C114" transform="matrix(1.00, 0.00, -0.00, -1.00, 642.8, 108.0)">q</text><text xml:space="preserve" font-family="AvenirNext-DemiBold" font-weight="bold" font-size="35.7" fill="#F1C114" transform="matrix(1.00, 0.00, -0.00, -1.00, 665.4, 108.0)">u</text><text xml:space="preserve" font-family="AvenirNext-DemiBold" font-weight="bold" font-size="35.7" fill="#F1C114" transform="matrix(1.00, 0.00, -0.00, -1.00, 686.2, 108.0)">i</text><text xml:space="preserve" font-family="AvenirNext-DemiBold" font-weight="bold" font-size="35.7" fill="#F1C114" transform="matrix(1.00, 0.00, -0.00, -1.00, 695.7, 108.0)">r</text><text xml:space="preserve" font-family="AvenirNext-DemiBold" font-weight="bold" font-size="35.7" fill="#F1C114" transform="matrix(1.00, 0.00, -0.00, -1.00, 708.1, 108.0)">e</text><text xml:space="preserve" font-family="AvenirNext-DemiBold" font-weight="bold" font-size="35.7" fill="#F1C114" transform="matrix(1.00, 0.00, -0.00, -1.00, 728.6, 108.0)"> </text><text xml:space="preserve" font-family="AvenirNext-DemiBold" font-weight="bold" font-size="35.7" fill="#F1C114" transform="matrix(1.00, 0.00, -0.00, -1.00, 737.5, 108.0)">s</text><text xml:space="preserve" font-family="AvenirNext-DemiBold" font-weight="bold" font-size="35.7" fill="#F1C114" transform="matrix(1.00, 0.00, -0.00, -1.00, 753.3, 108.0)">t</text><text xml:space="preserve" font-family="AvenirNext-DemiBold" font-weight="bold" font-size="35.7" fill="#F1C114" transform="matrix(1.00, 0.00, -0.00, -1.00, 765.5, 108.0)">a</text><text xml:space="preserve" font-family="AvenirNext-DemiBold" font-weight="bold" font-size="35.7" fill="#F1C114" transform="matrix(1.00, 0.00, -0.00, -1.00, 784.8, 108.0)">t</text><text xml:space="preserve" font-family="AvenirNext-DemiBold" font-weight="bold" font-size="35.7" fill="#F1C114" transform="matrix(1.00, 0.00, -0.00, -1.00, 796.9, 108.0)">e</text><text xml:space="preserve" font-family="AvenirNext-DemiBold" font-weight="bold" font-size="35.7" fill="#F1C114" transform="matrix(1.00, 0.00, -0.00, -1.00, 817.4, 108.0)">m</text><text xml:space="preserve" font-family="AvenirNext-DemiBold" font-weight="bold" font-size="35.7" fill="#F1C114" transform="matrix(1.00, 0.00, -0.00, -1.00, 849.1, 108.0)">e</text><text xml:space="preserve" font-family="AvenirNext-DemiBold" font-weight="bold" font-size="35.7" fill="#F1C114" transform="matrix(1.00, 0.00, -0.00, -1.00, 869.6, 108.0)">n</text><text xml:space="preserve" font-family="AvenirNext-DemiBold" font-weight="bold" font-size="35.7" fill="#F1C114" transform="matrix(1.00, 0.00, -0.00, -1.00, 890.4, 108.0)">t</text><text xml:space="preserve" font-family="AvenirNext-DemiBold" font-weight="bold" font-size="35.7" fill="#F1C114" transform="matrix(1.00, 0.00, -0.00, -1.00, 902.5, 108.0)">s</text><text xml:space="preserve" font-family="AvenirNext-DemiBold" font-weight="bold" font-size="35.7" fill="#F1C114" transform="matrix(1.00, 0.00, -0.00, -1.00, 918.4, 108.0)"> </text><text xml:space="preserve" font-family="AvenirNext-DemiBold" font-weight="bold" font-size="35.7" fill="#F1C114" transform="matrix(1.00, 0.00, -0.00, -1.00, 37.0, 59.0)">w</text><text xml:space="preserve" font-family="AvenirNext-DemiBold" font-weight="bold" font-size="35.7" fill="#F1C114" transform="matrix(1.00, 0.00, -0.00, -1.00, 65.7, 59.0)">i</text><text xml:space="preserve" font-family="AvenirNext-DemiBold" font-weight="bold" font-size="35.7" fill="#F1C114" transform="matrix(1.00, 0.00, -0.00, -1.00, 75.3, 59.0)">t</text><text xml:space="preserve" font-family="AvenirNext-DemiBold" font-weight="bold" font-size="35.7" fill="#F1C114" transform="matrix(1.00, 0.00, -0.00, -1.00, 87.4, 59.0)">h</text><text xml:space="preserve" font-family="AvenirNext-DemiBold" font-weight="bold" font-size="35.7" fill="#F1C114" transform="matrix(1.00, 0.00, -0.00, -1.00, 108.2, 59.0)"> </text><text xml:space="preserve" font-family="AvenirNext-DemiBold" font-weight="bold" font-size="35.7" fill="#F1C114" transform="matrix(1.00, 0.00, -0.00, -1.00, 117.2, 59.0)">d</text><text xml:space="preserve" font-family="AvenirNext-DemiBold" font-weight="bold" font-size="35.7" fill="#F1C114" transform="matrix(1.00, 0.00, -0.00, -1.00, 139.8, 59.0)">i</text><text xml:space="preserve" font-family="AvenirNext-DemiBold" font-weight="bold" font-size="35.7" fill="#F1C114" transform="matrix(1.00, 0.00, -0.00, -1.00, 149.4, 59.0)">f</text><text xml:space="preserve" font-family="AvenirNext-DemiBold" font-weight="bold" font-size="35.7" fill="#F1C114" transform="matrix(1.00, 0.00, -0.00, -1.00, 160.2, 59.0)">f</text><text xml:space="preserve" font-family="AvenirNext-DemiBold" font-weight="bold" font-size="35.7" fill="#F1C114" transform="matrix(1.00, 0.00, -0.00, -1.00, 171.7, 59.0)">e</text><text xml:space="preserve" font-family="AvenirNext-DemiBold" font-weight="bold" font-size="35.7" fill="#F1C114" transform="matrix(1.00, 0.00, -0.00, -1.00, 192.2, 59.0)">r</text><text xml:space="preserve" font-family="AvenirNext-DemiBold" font-weight="bold" font-size="35.7" fill="#F1C114" transform="matrix(1.00, 0.00, -0.00, -1.00, 204.6, 59.0)">e</text><text xml:space="preserve" font-family="AvenirNext-DemiBold" font-weight="bold" font-size="35.7" fill="#F1C114" transform="matrix(1.00, 0.00, -0.00, -1.00, 225.1, 59.0)">n</text><text xml:space="preserve" font-family="AvenirNext-DemiBold" font-weight="bold" font-size="35.7" fill="#F1C114" transform="matrix(1.00, 0.00, -0.00, -1.00, 245.8, 59.0)">t</text><text xml:space="preserve" font-family="AvenirNext-DemiBold" font-weight="bold" font-size="35.7" fill="#F1C114" transform="matrix(1.00, 0.00, -0.00, -1.00, 258.0, 59.0)"> </text><text xml:space="preserve" font-family="AvenirNext-DemiBold" font-weight="bold" font-size="35.7" fill="#F1C114" transform="matrix(1.00, 0.00, -0.00, -1.00, 266.9, 59.0)">r</text><text xml:space="preserve" font-family="AvenirNext-DemiBold" font-weight="bold" font-size="35.7" fill="#F1C114" transform="matrix(1.00, 0.00, -0.00, -1.00, 279.2, 59.0)">e</text><text xml:space="preserve" font-family="AvenirNext-DemiBold" font-weight="bold" font-size="35.7" fill="#F1C114" transform="matrix(1.00, 0.00, -0.00, -1.00, 299.7, 59.0)">q</text><text xml:space="preserve" font-family="AvenirNext-DemiBold" font-weight="bold" font-size="35.7" fill="#F1C114" transform="matrix(1.00, 0.00, -0.00, -1.00, 322.3, 59.0)">u</text><text xml:space="preserve" font-family="AvenirNext-DemiBold" font-weight="bold" font-size="35.7" fill="#F1C114" transform="matrix(1.00, 0.00, -0.00, -1.00, 343.0, 59.0)">i</text><text xml:space="preserve" font-family="AvenirNext-DemiBold" font-weight="bold" font-size="35.7" fill="#F1C114" transform="matrix(1.00, 0.00, -0.00, -1.00, 352.6, 59.0)">r</text><text xml:space="preserve" font-family="AvenirNext-DemiBold" font-weight="bold" font-size="35.7" fill="#F1C114" transform="matrix(1.00, 0.00, -0.00, -1.00, 365.0, 59.0)">e</text><text xml:space="preserve" font-family="AvenirNext-DemiBold" font-weight="bold" font-size="35.7" fill="#F1C114" transform="matrix(1.00, 0.00, -0.00, -1.00, 385.4, 59.0)"> </text><text xml:space="preserve" font-family="AvenirNext-DemiBold" font-weight="bold" font-size="35.7" fill="#F1C114" transform="matrix(1.00, 0.00, -0.00, -1.00, 394.4, 59.0)">s</text><text xml:space="preserve" font-family="AvenirNext-DemiBold" font-weight="bold" font-size="35.7" fill="#F1C114" transform="matrix(1.00, 0.00, -0.00, -1.00, 410.2, 59.0)">t</text><text xml:space="preserve" font-family="AvenirNext-DemiBold" font-weight="bold" font-size="35.7" fill="#F1C114" transform="matrix(1.00, 0.00, -0.00, -1.00, 422.3, 59.0)">a</text><text xml:space="preserve" font-family="AvenirNext-DemiBold" font-weight="bold" font-size="35.7" fill="#F1C114" transform="matrix(1.00, 0.00, -0.00, -1.00, 441.6, 59.0)">t</text><text xml:space="preserve" font-family="AvenirNext-DemiBold" font-weight="bold" font-size="35.7" fill="#F1C114" transform="matrix(1.00, 0.00, -0.00, -1.00, 453.8, 59.0)">e</text><text xml:space="preserve" font-family="AvenirNext-DemiBold" font-weight="bold" font-size="35.7" fill="#F1C114" transform="matrix(1.00, 0.00, -0.00, -1.00, 474.2, 59.0)">m</text><text xml:space="preserve" font-family="AvenirNext-DemiBold" font-weight="bold" font-size="35.7" fill="#F1C114" transform="matrix(1.00, 0.00, -0.00, -1.00, 506.0, 59.0)">e</text><text xml:space="preserve" font-family="AvenirNext-DemiBold" font-weight="bold" font-size="35.7" fill="#F1C114" transform="matrix(1.00, 0.00, -0.00, -1.00, 526.5, 59.0)">n</text><text xml:space="preserve" font-family="AvenirNext-DemiBold" font-weight="bold" font-size="35.7" fill="#F1C114" transform="matrix(1.00, 0.00, -0.00, -1.00, 547.3, 59.0)">t</text><text xml:space="preserve" font-family="AvenirNext-DemiBold" font-weight="bold" font-size="35.7" fill="#F1C114" transform="matrix(1.00, 0.00, -0.00, -1.00, 559.4, 59.0)">s</text><text xml:space="preserve" font-family="AvenirNext-DemiBold" font-weight="bold" font-size="35.7" fill="#FFFFFF" transform="matrix(1.00, 0.00, -0.00, -1.00, 575.2, 59.0)"> </text><text xml:space="preserve" font-family="AvenirNext-DemiBold" font-weight="bold" font-size="35.7" fill="#FFFFFF" transform="matrix(1.00, 0.00, -0.00, -1.00, 584.2, 59.0)">s</text><text xml:space="preserve" font-family="AvenirNext-DemiBold" font-weight="bold" font-size="35.7" fill="#FFFFFF" transform="matrix(1.00, 0.00, -0.00, -1.00, 600.0, 59.0)">o</text><text xml:space="preserve" font-family="AvenirNext-DemiBold" font-weight="bold" font-size="35.7" fill="#FFFFFF" transform="matrix(1.00, 0.00, -0.00, -1.00, 621.8, 59.0)">u</text><text xml:space="preserve" font-family="AvenirNext-DemiBold" font-weight="bold" font-size="35.7" fill="#FFFFFF" transform="matrix(1.00, 0.00, -0.00, -1.00, 642.6, 59.0)">n</text><text xml:space="preserve" font-family="AvenirNext-DemiBold" font-weight="bold" font-size="35.7" fill="#FFFFFF" transform="matrix(1.00, 0.00, -0.00, -1.00, 663.3, 59.0)">d</text><text xml:space="preserve" font-family="AvenirNext-DemiBold" font-weight="bold" font-size="35.7" fill="#FFFFFF" transform="matrix(1.00, 0.00, -0.00, -1.00, 686.0, 59.0)">s</text><text xml:space="preserve" font-family="AvenirNext-DemiBold" font-weight="bold" font-size="35.7" fill="#FFFFFF" transform="matrix(1.00, 0.00, -0.00, -1.00, 701.8, 59.0)"> </text><text xml:space="preserve" font-family="AvenirNext-DemiBold" font-weight="bold" font-size="35.7" fill="#FFFFFF" transform="matrix(1.00, 0.00, -0.00, -1.00, 710.7, 59.0)">l</text><text xml:space="preserve" font-family="AvenirNext-DemiBold" font-weight="bold" font-size="35.7" fill="#FFFFFF" transform="matrix(1.00, 0.00, -0.00, -1.00, 720.3, 59.0)">i</text><text xml:space="preserve" font-family="AvenirNext-DemiBold" font-weight="bold" font-size="35.7" fill="#FFFFFF" transform="matrix(1.00, 0.00, -0.00, -1.00, 729.8, 59.0)">k</text><text xml:space="preserve" font-family="AvenirNext-DemiBold" font-weight="bold" font-size="35.7" fill="#FFFFFF" transform="matrix(1.00, 0.00, -0.00, -1.00, 748.6, 59.0)">e</text><text xml:space="preserve" font-family="AvenirNext-DemiBold" font-weight="bold" font-size="35.7" fill="#FFFFFF" transform="matrix(1.00, 0.00, -0.00, -1.00, 769.1, 59.0)"> </text><text xml:space="preserve" font-family="AvenirNext-DemiBold" font-weight="bold" font-size="35.7" fill="#FFFFFF" transform="matrix(1.00, 0.00, -0.00, -1.00, 778.0, 59.0)">t</text><text xml:space="preserve" font-family="AvenirNext-DemiBold" font-weight="bold" font-size="35.7" fill="#FFFFFF" transform="matrix(1.00, 0.00, -0.00, -1.00, 790.1, 59.0)">a</text><text xml:space="preserve" font-family="AvenirNext-DemiBold" font-weight="bold" font-size="35.7" fill="#FFFFFF" transform="matrix(1.00, 0.00, -0.00, -1.00, 809.8, 59.0)">k</text><text xml:space="preserve" font-family="AvenirNext-DemiBold" font-weight="bold" font-size="35.7" fill="#FFFFFF" transform="matrix(1.00, 0.00, -0.00, -1.00, 829.1, 59.0)">i</text><text xml:space="preserve" font-family="AvenirNext-DemiBold" font-weight="bold" font-size="35.7" fill="#FFFFFF" transform="matrix(1.00, 0.00, -0.00, -1.00, 838.7, 59.0)">n</text><text xml:space="preserve" font-family="AvenirNext-DemiBold" font-weight="bold" font-size="35.7" fill="#FFFFFF" transform="matrix(1.00, 0.00, -0.00, -1.00, 859.5, 59.0)">g</text><text xml:space="preserve" font-family="AvenirNext-DemiBold" font-weight="bold" font-size="35.7" fill="#FFFFFF" transform="matrix(1.00, 0.00, -0.00, -1.00, 882.0, 59.0)"> </text><text xml:space="preserve" font-family="AvenirNext-DemiBold" font-weight="bold" font-size="35.7" fill="#FFFFFF" transform="matrix(1.00, 0.00, -0.00, -1.00, 7.0, 10.0)">s</text><text xml:space="preserve" font-family="AvenirNext-DemiBold" font-weight="bold" font-size="35.7" fill="#FFFFFF" transform="matrix(1.00, 0.00, -0.00, -1.00, 22.8, 10.0)">o</text><text xml:space="preserve" font-family="AvenirNext-DemiBold" font-weight="bold" font-size="35.7" fill="#FFFFFF" transform="matrix(1.00, 0.00, -0.00, -1.00, 44.6, 10.0)">u</text><text xml:space="preserve" font-family="AvenirNext-DemiBold" font-weight="bold" font-size="35.7" fill="#FFFFFF" transform="matrix(1.00, 0.00, -0.00, -1.00, 65.4, 10.0)">r</text><text xml:space="preserve" font-family="AvenirNext-DemiBold" font-weight="bold" font-size="35.7" fill="#FFFFFF" transform="matrix(1.00, 0.00, -0.00, -1.00, 77.7, 10.0)">c</text><text xml:space="preserve" font-family="AvenirNext-DemiBold" font-weight="bold" font-size="35.7" fill="#FFFFFF" transform="matrix(1.00, 0.00, -0.00, -1.00, 95.2, 10.0)">e</text><text xml:space="preserve" font-family="AvenirNext-DemiBold" font-weight="bold" font-size="35.7" fill="#FFFFFF" transform="matrix(1.00, 0.00, -0.00, -1.00, 115.6, 10.0)"> </text><text xml:space="preserve" font-family="AvenirNext-DemiBold" font-weight="bold" font-size="35.7" fill="#FFFFFF" transform="matrix(1.00, 0.00, -0.00, -1.00, 124.6, 10.0)">c</text><text xml:space="preserve" font-family="AvenirNext-DemiBold" font-weight="bold" font-size="35.7" fill="#FFFFFF" transform="matrix(1.00, 0.00, -0.00, -1.00, 142.0, 10.0)">o</text><text xml:space="preserve" font-family="AvenirNext-DemiBold" font-weight="bold" font-size="35.7" fill="#FFFFFF" transform="matrix(1.00, 0.00, -0.00, -1.00, 163.8, 10.0)">d</text><text xml:space="preserve" font-family="AvenirNext-DemiBold" font-weight="bold" font-size="35.7" fill="#FFFFFF" transform="matrix(1.00, 0.00, -0.00, -1.00, 186.4, 10.0)">e</text><text xml:space="preserve" font-family="AvenirNext-DemiBold" font-weight="bold" font-size="35.7" fill="#FFFFFF" transform="matrix(1.00, 0.00, -0.00, -1.00, 206.9, 10.0)">,</text><text xml:space="preserve" font-family="AvenirNext-DemiBold" font-weight="bold" font-size="35.7" fill="#FFFFFF" transform="matrix(1.00, 0.00, -0.00, -1.00, 215.1, 10.0)"> </text><text xml:space="preserve" font-family="AvenirNext-DemiBold" font-weight="bold" font-size="35.7" fill="#FFFFFF" transform="matrix(1.00, 0.00, -0.00, -1.00, 224.0, 10.0)">m</text><text xml:space="preserve" font-family="AvenirNext-DemiBold" font-weight="bold" font-size="35.7" fill="#FFFFFF" transform="matrix(1.00, 0.00, -0.00, -1.00, 255.8, 10.0)">a</text><text xml:space="preserve" font-family="AvenirNext-DemiBold" font-weight="bold" font-size="35.7" fill="#FFFFFF" transform="matrix(1.00, 0.00, -0.00, -1.00, 275.4, 10.0)">k</text><text xml:space="preserve" font-family="AvenirNext-DemiBold" font-weight="bold" font-size="35.7" fill="#FFFFFF" transform="matrix(1.00, 0.00, -0.00, -1.00, 294.8, 10.0)">i</text><text xml:space="preserve" font-family="AvenirNext-DemiBold" font-weight="bold" font-size="35.7" fill="#FFFFFF" transform="matrix(1.00, 0.00, -0.00, -1.00, 304.3, 10.0)">n</text><text xml:space="preserve" font-family="AvenirNext-DemiBold" font-weight="bold" font-size="35.7" fill="#FFFFFF" transform="matrix(1.00, 0.00, -0.00, -1.00, 325.1, 10.0)">g</text><text xml:space="preserve" font-family="AvenirNext-DemiBold" font-weight="bold" font-size="35.7" fill="#FFFFFF" transform="matrix(1.00, 0.00, -0.00, -1.00, 347.7, 10.0)"> </text><text xml:space="preserve" font-family="AvenirNext-DemiBold" font-weight="bold" font-size="35.7" fill="#FFFFFF" transform="matrix(1.00, 0.00, -0.00, -1.00, 356.6, 10.0)">c</text><text xml:space="preserve" font-family="AvenirNext-DemiBold" font-weight="bold" font-size="35.7" fill="#FFFFFF" transform="matrix(1.00, 0.00, -0.00, -1.00, 374.0, 10.0)">h</text><text xml:space="preserve" font-family="AvenirNext-DemiBold" font-weight="bold" font-size="35.7" fill="#FFFFFF" transform="matrix(1.00, 0.00, -0.00, -1.00, 394.8, 10.0)">a</text><text xml:space="preserve" font-family="AvenirNext-DemiBold" font-weight="bold" font-size="35.7" fill="#FFFFFF" transform="matrix(1.00, 0.00, -0.00, -1.00, 414.5, 10.0)">n</text><text xml:space="preserve" font-family="AvenirNext-DemiBold" font-weight="bold" font-size="35.7" fill="#FFFFFF" transform="matrix(1.00, 0.00, -0.00, -1.00, 435.2, 10.0)">g</text><text xml:space="preserve" font-family="AvenirNext-DemiBold" font-weight="bold" font-size="35.7" fill="#FFFFFF" transform="matrix(1.00, 0.00, -0.00, -1.00, 457.8, 10.0)">e</text><text xml:space="preserve" font-family="AvenirNext-DemiBold" font-weight="bold" font-size="35.7" fill="#FFFFFF" transform="matrix(1.00, 0.00, -0.00, -1.00, 478.3, 10.0)">s</text><text xml:space="preserve" font-family="AvenirNext-DemiBold" font-weight="bold" font-size="35.7" fill="#FFFFFF" transform="matrix(1.00, 0.00, -0.00, -1.00, 494.1, 10.0)">,</text><text xml:space="preserve" font-family="AvenirNext-DemiBold" font-weight="bold" font-size="35.7" fill="#FFFFFF" transform="matrix(1.00, 0.00, -0.00, -1.00, 502.3, 10.0)"> </text><text xml:space="preserve" font-family="AvenirNext-DemiBold" font-weight="bold" font-size="35.7" fill="#FFFFFF" transform="matrix(1.00, 0.00, -0.00, -1.00, 511.3, 10.0)">a</text><text xml:space="preserve" font-family="AvenirNext-DemiBold" font-weight="bold" font-size="35.7" fill="#FFFFFF" transform="matrix(1.00, 0.00, -0.00, -1.00, 530.9, 10.0)">n</text><text xml:space="preserve" font-family="AvenirNext-DemiBold" font-weight="bold" font-size="35.7" fill="#FFFFFF" transform="matrix(1.00, 0.00, -0.00, -1.00, 551.7, 10.0)">d</text><text xml:space="preserve" font-family="AvenirNext-DemiBold" font-weight="bold" font-size="35.7" fill="#FFFFFF" transform="matrix(1.00, 0.00, -0.00, -1.00, 574.3, 10.0)"> </text><text xml:space="preserve" font-family="AvenirNext-DemiBold" font-weight="bold" font-size="35.7" fill="#FFFFFF" transform="matrix(1.00, 0.00, -0.00, -1.00, 583.2, 10.0)">r</text><text xml:space="preserve" font-family="AvenirNext-DemiBold" font-weight="bold" font-size="35.7" fill="#FFFFFF" transform="matrix(1.00, 0.00, -0.00, -1.00, 595.6, 10.0)">e</text><text xml:space="preserve" font-family="AvenirNext-DemiBold" font-weight="bold" font-size="35.7" fill="#FFFFFF" transform="matrix(1.00, 0.00, -0.00, -1.00, 616.0, 10.0)">t</text><text xml:space="preserve" font-family="AvenirNext-DemiBold" font-weight="bold" font-size="35.7" fill="#FFFFFF" transform="matrix(1.00, 0.00, -0.00, -1.00, 628.2, 10.0)">u</text><text xml:space="preserve" font-family="AvenirNext-DemiBold" font-weight="bold" font-size="35.7" fill="#FFFFFF" transform="matrix(1.00, 0.00, -0.00, -1.00, 649.0, 10.0)">r</text><text xml:space="preserve" font-family="AvenirNext-DemiBold" font-weight="bold" font-size="35.7" fill="#FFFFFF" transform="matrix(1.00, 0.00, -0.00, -1.00, 661.9, 10.0)">n</text><text xml:space="preserve" font-family="AvenirNext-DemiBold" font-weight="bold" font-size="35.7" fill="#FFFFFF" transform="matrix(1.00, 0.00, -0.00, -1.00, 682.7, 10.0)">i</text><text xml:space="preserve" font-family="AvenirNext-DemiBold" font-weight="bold" font-size="35.7" fill="#FFFFFF" transform="matrix(1.00, 0.00, -0.00, -1.00, 692.3, 10.0)">n</text><text xml:space="preserve" font-family="AvenirNext-DemiBold" font-weight="bold" font-size="35.7" fill="#FFFFFF" transform="matrix(1.00, 0.00, -0.00, -1.00, 713.1, 10.0)">g</text><text xml:space="preserve" font-family="AvenirNext-DemiBold" font-weight="bold" font-size="35.7" fill="#FFFFFF" transform="matrix(1.00, 0.00, -0.00, -1.00, 735.6, 10.0)"> </text><text xml:space="preserve" font-family="AvenirNext-DemiBold" font-weight="bold" font-size="35.7" fill="#FFFFFF" transform="matrix(1.00, 0.00, -0.00, -1.00, 744.5, 10.0)">n</text><text xml:space="preserve" font-family="AvenirNext-DemiBold" font-weight="bold" font-size="35.7" fill="#FFFFFF" transform="matrix(1.00, 0.00, -0.00, -1.00, 765.3, 10.0)">e</text><text xml:space="preserve" font-family="AvenirNext-DemiBold" font-weight="bold" font-size="35.7" fill="#FFFFFF" transform="matrix(1.00, 0.00, -0.00, -1.00, 785.8, 10.0)">w</text><text xml:space="preserve" font-family="AvenirNext-DemiBold" font-weight="bold" font-size="35.7" fill="#FFFFFF" transform="matrix(1.00, 0.00, -0.00, -1.00, 814.5, 10.0)"> </text><text xml:space="preserve" font-family="AvenirNext-DemiBold" font-weight="bold" font-size="35.7" fill="#FFFFFF" transform="matrix(1.00, 0.00, -0.00, -1.00, 823.4, 10.0)">c</text><text xml:space="preserve" font-family="AvenirNext-DemiBold" font-weight="bold" font-size="35.7" fill="#FFFFFF" transform="matrix(1.00, 0.00, -0.00, -1.00, 840.8, 10.0)">o</text><text xml:space="preserve" font-family="AvenirNext-DemiBold" font-weight="bold" font-size="35.7" fill="#FFFFFF" transform="matrix(1.00, 0.00, -0.00, -1.00, 862.6, 10.0)">d</text><text xml:space="preserve" font-family="AvenirNext-DemiBold" font-weight="bold" font-size="35.7" fill="#FFFFFF" transform="matrix(1.00, 0.00, -0.00, -1.00, 885.2, 10.0)">e</text><text xml:space="preserve" font-family="AvenirNext-DemiBold" font-weight="bold" font-size="35.7" fill="#FFFFFF" transform="matrix(1.00, 0.00, -0.00, -1.00, 905.7, 10.0)">.</text></g></svg>