<?xml version="1.0" encoding="UTF-8" standalone="no"?><svg xmlns="http://www.w3.org/2000/svg" xmlns:xlink="http://www.w3.org/1999/xlink" clip-rule="evenodd" stroke-miterlimit="4.00" viewBox="0 0 822 137"><desc>SVG generated by Keynote</desc><defs></defs><g transform="matrix(1.00, 0.00, -0.00, -1.00, 0.0, 137.0)"><text xml:space="preserve" font-family="AvenirNext-DemiBold" font-weight="bold" font-size="35.7" fill="#FFFFFF" transform="matrix(1.00, 0.00, -0.00, -1.00, 2.0, 108.0)">Y</text><text xml:space="preserve" font-family="AvenirNext-DemiBold" font-weight="bold" font-size="35.7" fill="#FFFFFF" transform="matrix(1.00, 0.00, -0.00, -1.00, 20.9, 108.0)">o</text><text xml:space="preserve" font-family="AvenirNext-DemiBold" font-weight="bold" font-size="35.7" fill="#FFFFFF" transform="matrix(1.00, 0.00, -0.00, -1.00, 42.7, 108.0)">u</text><text xml:space="preserve" font-family="AvenirNext-DemiBold" font-weight="bold" font-size="35.7" fill="#FFFFFF" transform="matrix(1.00, 0.00, -0.00, -1.00, 63.4, 108.0)"> </text><text xml:space="preserve" font-family="AvenirNext-DemiBold" font-weight="bold" font-size="35.7" fill="#FFFFFF" transform="matrix(1.00, 0.00, -0.00, -1.00, 72.3, 108.0)">m</text><text xml:space="preserve" font-family="AvenirNext-DemiBold" font-weight="bold" font-size="35.7" fill="#FFFFFF" transform="matrix(1.00, 0.00, -0.00, -1.00, 104.1, 108.0)">a</text><text xml:space="preserve" font-family="AvenirNext-DemiBold" font-weight="bold" font-size="35.7" fill="#FFFFFF" transform="matrix(1.00, 0.00, -0.00, -1.00, 123.7, 108.0)">y</text><text xml:space="preserve" font-family="AvenirNext-DemiBold" font-weight="bold" font-size="35.7" fill="#FFFFFF" transform="matrix(1.00, 0.00, -0.00, -1.00, 142.0, 108.0)"> </text><text xml:space="preserve" font-family="AvenirNext-DemiBold" font-weight="bold" font-size="35.7" fill="#FFFFFF" transform="matrix(1.00, 0.00, -0.00, -1.00, 151.0, 108.0)">h</text><text xml:space="preserve" font-family="AvenirNext-DemiBold" font-weight="bold" font-size="35.7" fill="#FFFFFF" transform="matrix(1.00, 0.00, -0.00, -1.00, 171.8, 108.0)">a</text><text xml:space="preserve" font-family="AvenirNext-DemiBold" font-weight="bold" font-size="35.7" fill="#FFFFFF" transform="matrix(1.00, 0.00, -0.00, -1.00, 191.4, 108.0)">v</text><text xml:space="preserve" font-family="AvenirNext-DemiBold" font-weight="bold" font-size="35.7" fill="#FFFFFF" transform="matrix(1.00, 0.00, -0.00, -1.00, 209.8, 108.0)">e</text><text xml:space="preserve" font-family="AvenirNext-DemiBold" font-weight="bold" font-size="35.7" fill="#FFFFFF" transform="matrix(1.00, 0.00, -0.00, -1.00, 230.2, 108.0)"> </text><text xml:space="preserve" font-family="AvenirNext-DemiBold" font-weight="bold" font-size="35.7" fill="#FFFFFF" transform="matrix(1.00, 0.00, -0.00, -1.00, 239.2, 108.0)">n</text><text xml:space="preserve" font-family="AvenirNext-DemiBold" font-weight="bold" font-size="35.7" fill="#FFFFFF" transform="matrix(1.00, 0.00, -0.00, -1.00, 259.9, 108.0)">o</text><text xml:space="preserve" font-family="AvenirNext-DemiBold" font-weight="bold" font-size="35.7" fill="#FFFFFF" transform="matrix(1.00, 0.00, -0.00, -1.00, 281.7, 108.0)">t</text><text xml:space="preserve" font-family="AvenirNext-DemiBold" font-weight="bold" font-size="35.7" fill="#FFFFFF" transform="matrix(1.00, 0.00, -0.00, -1.00, 293.8, 108.0)">i</text><text xml:space="preserve" font-family="AvenirNext-DemiBold" font-weight="bold" font-size="35.7" fill="#FFFFFF" transform="matrix(1.00, 0.00, -0.00, -1.00, 303.4, 108.0)">c</text><text xml:space="preserve" font-family="AvenirNext-DemiBold" font-weight="bold" font-size="35.7" fill="#FFFFFF" transform="matrix(1.00, 0.00, -0.00, -1.00, 320.8, 108.0)">e</text><text xml:space="preserve" font-family="AvenirNext-DemiBold" font-weight="bold" font-size="35.7" fill="#FFFFFF" transform="matrix(1.00, 0.00, -0.00, -1.00, 341.3, 108.0)">d</text><text xml:space="preserve" font-family="AvenirNext-DemiBold" font-weight="bold" font-size="35.7" fill="#FFFFFF" transform="matrix(1.00, 0.00, -0.00, -1.00, 363.9, 108.0)"> </text><text xml:space="preserve" font-family="AvenirNext-DemiBold" font-weight="bold" font-size="35.7" fill="#FFFFFF" transform="matrix(1.00, 0.00, -0.00, -1.00, 372.9, 108.0)">t</text><text xml:space="preserve" font-family="AvenirNext-DemiBold" font-weight="bold" font-size="35.7" fill="#FFFFFF" transform="matrix(1.00, 0.00, -0.00, -1.00, 385.0, 108.0)">h</text><text xml:space="preserve" font-family="AvenirNext-DemiBold" font-weight="bold" font-size="35.7" fill="#FFFFFF" transform="matrix(1.00, 0.00, -0.00, -1.00, 405.8, 108.0)">a</text><text xml:space="preserve" font-family="AvenirNext-DemiBold" font-weight="bold" font-size="35.7" fill="#FFFFFF" transform="matrix(1.00, 0.00, -0.00, -1.00, 425.1, 108.0)">t</text><text xml:space="preserve" font-family="AvenirNext-DemiBold" font-weight="bold" font-size="35.7" fill="#FFFFFF" transform="matrix(1.00, 0.00, -0.00, -1.00, 437.2, 108.0)"> </text><text xml:space="preserve" font-family="AvenirNext-DemiBold" font-weight="bold" font-size="35.7" fill="#F1C114" transform="matrix(1.00, 0.00, -0.00, -1.00, 446.2, 108.0)">w</text><text xml:space="preserve" font-family="AvenirNext-DemiBold" font-weight="bold" font-size="35.7" fill="#F1C114" transform="matrix(1.00, 0.00, -0.00, -1.00, 474.9, 108.0)">r</text><text xml:space="preserve" font-family="AvenirNext-DemiBold" font-weight="bold" font-size="35.7" fill="#F1C114" transform="matrix(1.00, 0.00, -0.00, -1.00, 487.4, 108.0)">a</text><text xml:space="preserve" font-family="AvenirNext-DemiBold" font-weight="bold" font-size="35.7" fill="#F1C114" transform="matrix(1.00, 0.00, -0.00, -1.00, 507.0, 108.0)">p</text><text xml:space="preserve" font-family="AvenirNext-DemiBold" font-weight="bold" font-size="35.7" fill="#F1C114" transform="matrix(1.00, 0.00, -0.00, -1.00, 529.6, 108.0)">p</text><text xml:space="preserve" font-family="AvenirNext-DemiBold" font-weight="bold" font-size="35.7" fill="#F1C114" transform="matrix(1.00, 0.00, -0.00, -1.00, 552.2, 108.0)">i</text><text xml:space="preserve" font-family="AvenirNext-DemiBold" font-weight="bold" font-size="35.7" fill="#F1C114" transform="matrix(1.00, 0.00, -0.00, -1.00, 561.8, 108.0)">n</text><text xml:space="preserve" font-family="AvenirNext-DemiBold" font-weight="bold" font-size="35.7" fill="#F1C114" transform="matrix(1.00, 0.00, -0.00, -1.00, 582.5, 108.0)">g</text><text xml:space="preserve" font-family="AvenirNext-DemiBold" font-weight="bold" font-size="35.7" fill="#F1C114" transform="matrix(1.00, 0.00, -0.00, -1.00, 605.1, 108.0)"> </text><text xml:space="preserve" font-family="AvenirNext-DemiBold" font-weight="bold" font-size="35.7" fill="#F1C114" transform="matrix(1.00, 0.00, -0.00, -1.00, 614.0, 108.0)">e</text><text xml:space="preserve" font-family="AvenirNext-DemiBold" font-weight="bold" font-size="35.7" fill="#F1C114" transform="matrix(1.00, 0.00, -0.00, -1.00, 634.3, 108.0)">a</text><text xml:space="preserve" font-family="AvenirNext-DemiBold" font-weight="bold" font-size="35.7" fill="#F1C114" transform="matrix(1.00, 0.00, -0.00, -1.00, 653.9, 108.0)">c</text><text xml:space="preserve" font-family="AvenirNext-DemiBold" font-weight="bold" font-size="35.7" fill="#F1C114" transform="matrix(1.00, 0.00, -0.00, -1.00, 671.3, 108.0)">h</text><text xml:space="preserve" font-family="AvenirNext-DemiBold" font-weight="bold" font-size="35.7" fill="#F1C114" transform="matrix(1.00, 0.00, -0.00, -1.00, 692.2, 108.0)"> </text><text xml:space="preserve" font-family="AvenirNext-DemiBold" font-weight="bold" font-size="35.7" fill="#F1C114" transform="matrix(1.00, 0.00, -0.00, -1.00, 701.1, 108.0)">ï¬</text><text xml:space="preserve" font-family="AvenirNext-DemiBold" font-weight="bold" font-size="35.7" fill="#F1C114" transform="matrix(1.00, 0.00, -0.00, -1.00, 722.3, 108.0)">l</text><text xml:space="preserve" font-family="AvenirNext-DemiBold" font-weight="bold" font-size="35.7" fill="#F1C114" transform="matrix(1.00, 0.00, -0.00, -1.00, 731.8, 108.0)">e</text><text xml:space="preserve" font-family="AvenirNext-DemiBold" font-weight="bold" font-size="35.7" fill="#F1C114" transform="matrix(1.00, 0.00, -0.00, -1.00, 752.3, 108.0)"> </text><text xml:space="preserve" font-family="AvenirNext-DemiBold" font-weight="bold" font-size="35.7" fill="#F1C114" transform="matrix(1.00, 0.00, -0.00, -1.00, 761.2, 108.0)">i</text><text xml:space="preserve" font-family="AvenirNext-DemiBold" font-weight="bold" font-size="35.7" fill="#F1C114" transform="matrix(1.00, 0.00, -0.00, -1.00, 770.8, 108.0)">n</text><text xml:space="preserve" font-family="AvenirNext-DemiBold" font-weight="bold" font-size="35.7" fill="#F1C114" transform="matrix(1.00, 0.00, -0.00, -1.00, 791.6, 108.0)"> </text><text xml:space="preserve" font-family="AvenirNext-DemiBold" font-weight="bold" font-size="35.7" fill="#F1C114" transform="matrix(1.00, 0.00, -0.00, -1.00, 800.5, 108.0)">a</text><text xml:space="preserve" font-family="AvenirNext-DemiBold" font-weight="bold" font-size="35.7" fill="#F1C114" transform="matrix(1.00, 0.00, -0.00, -1.00, 820.1, 108.0)"> </text><text xml:space="preserve" font-family="AvenirNext-DemiBold" font-weight="bold" font-size="35.7" fill="#F1C114" transform="matrix(1.00, 0.00, -0.00, -1.00, 11.0, 59.0)">f</text><text xml:space="preserve" font-family="AvenirNext-DemiBold" font-weight="bold" font-size="35.7" fill="#F1C114" transform="matrix(1.00, 0.00, -0.00, -1.00, 22.6, 59.0)">u</text><text xml:space="preserve" font-family="AvenirNext-DemiBold" font-weight="bold" font-size="35.7" fill="#F1C114" transform="matrix(1.00, 0.00, -0.00, -1.00, 43.3, 59.0)">n</text><text xml:space="preserve" font-family="AvenirNext-DemiBold" font-weight="bold" font-size="35.7" fill="#F1C114" transform="matrix(1.00, 0.00, -0.00, -1.00, 64.1, 59.0)">c</text><text xml:space="preserve" font-family="AvenirNext-DemiBold" font-weight="bold" font-size="35.7" fill="#F1C114" transform="matrix(1.00, 0.00, -0.00, -1.00, 81.5, 59.0)">t</text><text xml:space="preserve" font-family="AvenirNext-DemiBold" font-weight="bold" font-size="35.7" fill="#F1C114" transform="matrix(1.00, 0.00, -0.00, -1.00, 93.7, 59.0)">i</text><text xml:space="preserve" font-family="AvenirNext-DemiBold" font-weight="bold" font-size="35.7" fill="#F1C114" transform="matrix(1.00, 0.00, -0.00, -1.00, 103.2, 59.0)">o</text><text xml:space="preserve" font-family="AvenirNext-DemiBold" font-weight="bold" font-size="35.7" fill="#F1C114" transform="matrix(1.00, 0.00, -0.00, -1.00, 125.0, 59.0)">n</text><text xml:space="preserve" font-family="AvenirNext-DemiBold" font-weight="bold" font-size="35.7" fill="#F1C114" transform="matrix(1.00, 0.00, -0.00, -1.00, 145.8, 59.0)"> </text><text xml:space="preserve" font-family="AvenirNext-DemiBold" font-weight="bold" font-size="35.7" fill="#FFFFFF" transform="matrix(1.00, 0.00, -0.00, -1.00, 154.7, 59.0)"> </text><text xml:space="preserve" font-family="AvenirNext-DemiBold" font-weight="bold" font-size="35.7" fill="#FFFFFF" transform="matrix(1.00, 0.00, -0.00, -1.00, 163.6, 59.0)">s</text><text xml:space="preserve" font-family="AvenirNext-DemiBold" font-weight="bold" font-size="35.7" fill="#FFFFFF" transform="matrix(1.00, 0.00, -0.00, -1.00, 179.5, 59.0)">o</text><text xml:space="preserve" font-family="AvenirNext-DemiBold" font-weight="bold" font-size="35.7" fill="#FFFFFF" transform="matrix(1.00, 0.00, -0.00, -1.00, 201.2, 59.0)">u</text><text xml:space="preserve" font-family="AvenirNext-DemiBold" font-weight="bold" font-size="35.7" fill="#FFFFFF" transform="matrix(1.00, 0.00, -0.00, -1.00, 222.0, 59.0)">n</text><text xml:space="preserve" font-family="AvenirNext-DemiBold" font-weight="bold" font-size="35.7" fill="#FFFFFF" transform="matrix(1.00, 0.00, -0.00, -1.00, 242.8, 59.0)">d</text><text xml:space="preserve" font-family="AvenirNext-DemiBold" font-weight="bold" font-size="35.7" fill="#FFFFFF" transform="matrix(1.00, 0.00, -0.00, -1.00, 265.4, 59.0)">s</text><text xml:space="preserve" font-family="AvenirNext-DemiBold" font-weight="bold" font-size="35.7" fill="#FFFFFF" transform="matrix(1.00, 0.00, -0.00, -1.00, 281.2, 59.0)"> </text><text xml:space="preserve" font-family="AvenirNext-DemiBold" font-weight="bold" font-size="35.7" fill="#FFFFFF" transform="matrix(1.00, 0.00, -0.00, -1.00, 290.2, 59.0)">l</text><text xml:space="preserve" font-family="AvenirNext-DemiBold" font-weight="bold" font-size="35.7" fill="#FFFFFF" transform="matrix(1.00, 0.00, -0.00, -1.00, 299.7, 59.0)">i</text><text xml:space="preserve" font-family="AvenirNext-DemiBold" font-weight="bold" font-size="35.7" fill="#FFFFFF" transform="matrix(1.00, 0.00, -0.00, -1.00, 309.3, 59.0)">k</text><text xml:space="preserve" font-family="AvenirNext-DemiBold" font-weight="bold" font-size="35.7" fill="#FFFFFF" transform="matrix(1.00, 0.00, -0.00, -1.00, 328.0, 59.0)">e</text><text xml:space="preserve" font-family="AvenirNext-DemiBold" font-weight="bold" font-size="35.7" fill="#FFFFFF" transform="matrix(1.00, 0.00, -0.00, -1.00, 348.5, 59.0)"> </text><text xml:space="preserve" font-family="AvenirNext-DemiBold" font-weight="bold" font-size="35.7" fill="#FFFFFF" transform="matrix(1.00, 0.00, -0.00, -1.00, 357.4, 59.0)">t</text><text xml:space="preserve" font-family="AvenirNext-DemiBold" font-weight="bold" font-size="35.7" fill="#FFFFFF" transform="matrix(1.00, 0.00, -0.00, -1.00, 369.6, 59.0)">a</text><text xml:space="preserve" font-family="AvenirNext-DemiBold" font-weight="bold" font-size="35.7" fill="#FFFFFF" transform="matrix(1.00, 0.00, -0.00, -1.00, 389.2, 59.0)">k</text><text xml:space="preserve" font-family="AvenirNext-DemiBold" font-weight="bold" font-size="35.7" fill="#FFFFFF" transform="matrix(1.00, 0.00, -0.00, -1.00, 408.6, 59.0)">i</text><text xml:space="preserve" font-family="AvenirNext-DemiBold" font-weight="bold" font-size="35.7" fill="#FFFFFF" transform="matrix(1.00, 0.00, -0.00, -1.00, 418.2, 59.0)">n</text><text xml:space="preserve" font-family="AvenirNext-DemiBold" font-weight="bold" font-size="35.7" fill="#FFFFFF" transform="matrix(1.00, 0.00, -0.00, -1.00, 438.9, 59.0)">g</text><text xml:space="preserve" font-family="AvenirNext-DemiBold" font-weight="bold" font-size="35.7" fill="#FFFFFF" transform="matrix(1.00, 0.00, -0.00, -1.00, 461.5, 59.0)"> </text><text xml:space="preserve" font-family="AvenirNext-DemiBold" font-weight="bold" font-size="35.7" fill="#FFFFFF" transform="matrix(1.00, 0.00, -0.00, -1.00, 470.4, 59.0)">s</text><text xml:space="preserve" font-family="AvenirNext-DemiBold" font-weight="bold" font-size="35.7" fill="#FFFFFF" transform="matrix(1.00, 0.00, -0.00, -1.00, 486.2, 59.0)">o</text><text xml:space="preserve" font-family="AvenirNext-DemiBold" font-weight="bold" font-size="35.7" fill="#FFFFFF" transform="matrix(1.00, 0.00, -0.00, -1.00, 508.0, 59.0)">u</text><text xml:space="preserve" font-family="AvenirNext-DemiBold" font-weight="bold" font-size="35.7" fill="#FFFFFF" transform="matrix(1.00, 0.00, -0.00, -1.00, 528.8, 59.0)">r</text><text xml:space="preserve" font-family="AvenirNext-DemiBold" font-weight="bold" font-size="35.7" fill="#FFFFFF" transform="matrix(1.00, 0.00, -0.00, -1.00, 541.1, 59.0)">c</text><text xml:space="preserve" font-family="AvenirNext-DemiBold" font-weight="bold" font-size="35.7" fill="#FFFFFF" transform="matrix(1.00, 0.00, -0.00, -1.00, 558.6, 59.0)">e</text><text xml:space="preserve" font-family="AvenirNext-DemiBold" font-weight="bold" font-size="35.7" fill="#FFFFFF" transform="matrix(1.00, 0.00, -0.00, -1.00, 579.0, 59.0)"> </text><text xml:space="preserve" font-family="AvenirNext-DemiBold" font-weight="bold" font-size="35.7" fill="#FFFFFF" transform="matrix(1.00, 0.00, -0.00, -1.00, 588.0, 59.0)">c</text><text xml:space="preserve" font-family="AvenirNext-DemiBold" font-weight="bold" font-size="35.7" fill="#FFFFFF" transform="matrix(1.00, 0.00, -0.00, -1.00, 605.4, 59.0)">o</text><text xml:space="preserve" font-family="AvenirNext-DemiBold" font-weight="bold" font-size="35.7" fill="#FFFFFF" transform="matrix(1.00, 0.00, -0.00, -1.00, 627.2, 59.0)">d</text><text xml:space="preserve" font-family="AvenirNext-DemiBold" font-weight="bold" font-size="35.7" fill="#FFFFFF" transform="matrix(1.00, 0.00, -0.00, -1.00, 649.8, 59.0)">e</text><text xml:space="preserve" font-family="AvenirNext-DemiBold" font-weight="bold" font-size="35.7" fill="#FFFFFF" transform="matrix(1.00, 0.00, -0.00, -1.00, 670.3, 59.0)">,</text><text xml:space="preserve" font-family="AvenirNext-DemiBold" font-weight="bold" font-size="35.7" fill="#FFFFFF" transform="matrix(1.00, 0.00, -0.00, -1.00, 678.5, 59.0)"> </text><text xml:space="preserve" font-family="AvenirNext-DemiBold" font-weight="bold" font-size="35.7" fill="#FFFFFF" transform="matrix(1.00, 0.00, -0.00, -1.00, 687.4, 59.0)">m</text><text xml:space="preserve" font-family="AvenirNext-DemiBold" font-weight="bold" font-size="35.7" fill="#FFFFFF" transform="matrix(1.00, 0.00, -0.00, -1.00, 719.2, 59.0)">a</text><text xml:space="preserve" font-family="AvenirNext-DemiBold" font-weight="bold" font-size="35.7" fill="#FFFFFF" transform="matrix(1.00, 0.00, -0.00, -1.00, 738.8, 59.0)">k</text><text xml:space="preserve" font-family="AvenirNext-DemiBold" font-weight="bold" font-size="35.7" fill="#FFFFFF" transform="matrix(1.00, 0.00, -0.00, -1.00, 758.2, 59.0)">i</text><text xml:space="preserve" font-family="AvenirNext-DemiBold" font-weight="bold" font-size="35.7" fill="#FFFFFF" transform="matrix(1.00, 0.00, -0.00, -1.00, 767.7, 59.0)">n</text><text xml:space="preserve" font-family="AvenirNext-DemiBold" font-weight="bold" font-size="35.7" fill="#FFFFFF" transform="matrix(1.00, 0.00, -0.00, -1.00, 788.5, 59.0)">g</text><text xml:space="preserve" font-family="AvenirNext-DemiBold" font-weight="bold" font-size="35.7" fill="#FFFFFF" transform="matrix(1.00, 0.00, -0.00, -1.00, 811.1, 59.0)"> </text><text xml:space="preserve" font-family="AvenirNext-DemiBold" font-weight="bold" font-size="35.7" fill="#FFFFFF" transform="matrix(1.00, 0.00, -0.00, -1.00, 132.0, 10.0)">c</text><text xml:space="preserve" font-family="AvenirNext-DemiBold" font-weight="bold" font-size="35.7" fill="#FFFFFF" transform="matrix(1.00, 0.00, -0.00, -1.00, 149.4, 10.0)">h</text><text xml:space="preserve" font-family="AvenirNext-DemiBold" font-weight="bold" font-size="35.7" fill="#FFFFFF" transform="matrix(1.00, 0.00, -0.00, -1.00, 170.3, 10.0)">a</text><text xml:space="preserve" font-family="AvenirNext-DemiBold" font-weight="bold" font-size="35.7" fill="#FFFFFF" transform="matrix(1.00, 0.00, -0.00, -1.00, 189.9, 10.0)">n</text><text xml:space="preserve" font-family="AvenirNext-DemiBold" font-weight="bold" font-size="35.7" fill="#FFFFFF" transform="matrix(1.00, 0.00, -0.00, -1.00, 210.7, 10.0)">g</text><text xml:space="preserve" font-family="AvenirNext-DemiBold" font-weight="bold" font-size="35.7" fill="#FFFFFF" transform="matrix(1.00, 0.00, -0.00, -1.00, 233.2, 10.0)">e</text><text xml:space="preserve" font-family="AvenirNext-DemiBold" font-weight="bold" font-size="35.7" fill="#FFFFFF" transform="matrix(1.00, 0.00, -0.00, -1.00, 253.7, 10.0)">s</text><text xml:space="preserve" font-family="AvenirNext-DemiBold" font-weight="bold" font-size="35.7" fill="#FFFFFF" transform="matrix(1.00, 0.00, -0.00, -1.00, 269.5, 10.0)">,</text><text xml:space="preserve" font-family="AvenirNext-DemiBold" font-weight="bold" font-size="35.7" fill="#FFFFFF" transform="matrix(1.00, 0.00, -0.00, -1.00, 277.8, 10.0)"> </text><text xml:space="preserve" font-family="AvenirNext-DemiBold" font-weight="bold" font-size="35.7" fill="#FFFFFF" transform="matrix(1.00, 0.00, -0.00, -1.00, 286.7, 10.0)">a</text><text xml:space="preserve" font-family="AvenirNext-DemiBold" font-weight="bold" font-size="35.7" fill="#FFFFFF" transform="matrix(1.00, 0.00, -0.00, -1.00, 306.3, 10.0)">n</text><text xml:space="preserve" font-family="AvenirNext-DemiBold" font-weight="bold" font-size="35.7" fill="#FFFFFF" transform="matrix(1.00, 0.00, -0.00, -1.00, 327.1, 10.0)">d</text><text xml:space="preserve" font-family="AvenirNext-DemiBold" font-weight="bold" font-size="35.7" fill="#FFFFFF" transform="matrix(1.00, 0.00, -0.00, -1.00, 349.7, 10.0)"> </text><text xml:space="preserve" font-family="AvenirNext-DemiBold" font-weight="bold" font-size="35.7" fill="#FFFFFF" transform="matrix(1.00, 0.00, -0.00, -1.00, 358.6, 10.0)">r</text><text xml:space="preserve" font-family="AvenirNext-DemiBold" font-weight="bold" font-size="35.7" fill="#FFFFFF" transform="matrix(1.00, 0.00, -0.00, -1.00, 371.0, 10.0)">e</text><text xml:space="preserve" font-family="AvenirNext-DemiBold" font-weight="bold" font-size="35.7" fill="#FFFFFF" transform="matrix(1.00, 0.00, -0.00, -1.00, 391.5, 10.0)">t</text><text xml:space="preserve" font-family="AvenirNext-DemiBold" font-weight="bold" font-size="35.7" fill="#FFFFFF" transform="matrix(1.00, 0.00, -0.00, -1.00, 403.6, 10.0)">u</text><text xml:space="preserve" font-family="AvenirNext-DemiBold" font-weight="bold" font-size="35.7" fill="#FFFFFF" transform="matrix(1.00, 0.00, -0.00, -1.00, 424.4, 10.0)">r</text><text xml:space="preserve" font-family="AvenirNext-DemiBold" font-weight="bold" font-size="35.7" fill="#FFFFFF" transform="matrix(1.00, 0.00, -0.00, -1.00, 437.4, 10.0)">n</text><text xml:space="preserve" font-family="AvenirNext-DemiBold" font-weight="bold" font-size="35.7" fill="#FFFFFF" transform="matrix(1.00, 0.00, -0.00, -1.00, 458.1, 10.0)">i</text><text xml:space="preserve" font-family="AvenirNext-DemiBold" font-weight="bold" font-size="35.7" fill="#FFFFFF" transform="matrix(1.00, 0.00, -0.00, -1.00, 467.7, 10.0)">n</text><text xml:space="preserve" font-family="AvenirNext-DemiBold" font-weight="bold" font-size="35.7" fill="#FFFFFF" transform="matrix(1.00, 0.00, -0.00, -1.00, 488.5, 10.0)">g</text><text xml:space="preserve" font-family="AvenirNext-DemiBold" font-weight="bold" font-size="35.7" fill="#FFFFFF" transform="matrix(1.00, 0.00, -0.00, -1.00, 511.0, 10.0)"> </text><text xml:space="preserve" font-family="AvenirNext-DemiBold" font-weight="bold" font-size="35.7" fill="#FFFFFF" transform="matrix(1.00, 0.00, -0.00, -1.00, 520.0, 10.0)">n</text><text xml:space="preserve" font-family="AvenirNext-DemiBold" font-weight="bold" font-size="35.7" fill="#FFFFFF" transform="matrix(1.00, 0.00, -0.00, -1.00, 540.7, 10.0)">e</text><text xml:space="preserve" font-family="AvenirNext-DemiBold" font-weight="bold" font-size="35.7" fill="#FFFFFF" transform="matrix(1.00, 0.00, -0.00, -1.00, 561.2, 10.0)">w</text><text xml:space="preserve" font-family="AvenirNext-DemiBold" font-weight="bold" font-size="35.7" fill="#FFFFFF" transform="matrix(1.00, 0.00, -0.00, -1.00, 589.9, 10.0)"> </text><text xml:space="preserve" font-family="AvenirNext-DemiBold" font-weight="bold" font-size="35.7" fill="#FFFFFF" transform="matrix(1.00, 0.00, -0.00, -1.00, 598.8, 10.0)">c</text><text xml:space="preserve" font-family="AvenirNext-DemiBold" font-weight="bold" font-size="35.7" fill="#FFFFFF" transform="matrix(1.00, 0.00, -0.00, -1.00, 616.2, 10.0)">o</text><text xml:space="preserve" font-family="AvenirNext-DemiBold" font-weight="bold" font-size="35.7" fill="#FFFFFF" transform="matrix(1.00, 0.00, -0.00, -1.00, 638.0, 10.0)">d</text><text xml:space="preserve" font-family="AvenirNext-DemiBold" font-weight="bold" font-size="35.7" fill="#FFFFFF" transform="matrix(1.00, 0.00, -0.00, -1.00, 660.6, 10.0)">e</text><text xml:space="preserve" font-family="AvenirNext-DemiBold" font-weight="bold" font-size="35.7" fill="#FFFFFF" transform="matrix(1.00, 0.00, -0.00, -1.00, 681.1, 10.0)">.</text></g></svg>