<?xml version="1.0" encoding="UTF-8" standalone="no"?><svg xmlns="http://www.w3.org/2000/svg" xmlns:xlink="http://www.w3.org/1999/xlink" clip-rule="evenodd" stroke-miterlimit="4.00" viewBox="0 0 823 138"><desc>SVG generated by Keynote</desc><defs></defs><g transform="matrix(1.00, 0.00, -0.00, -1.00, 0.0, 138.0)"><text xml:space="preserve" font-family="AvenirNext-DemiBold" font-weight="bold" font-size="35.7" fill="#FFFFFF" transform="matrix(1.00, 0.00, -0.00, -1.00, 3.0, 109.0)">Y</text><text xml:space="preserve" font-family="AvenirNext-DemiBold" font-weight="bold" font-size="35.7" fill="#FFFFFF" transform="matrix(1.00, 0.00, -0.00, -1.00, 21.9, 109.0)">o</text><text xml:space="preserve" font-family="AvenirNext-DemiBold" font-weight="bold" font-size="35.7" fill="#FFFFFF" transform="matrix(1.00, 0.00, -0.00, -1.00, 43.7, 109.0)">u</text><text xml:space="preserve" font-family="AvenirNext-DemiBold" font-weight="bold" font-size="35.7" fill="#FFFFFF" transform="matrix(1.00, 0.00, -0.00, -1.00, 64.4, 109.0)"> </text><text xml:space="preserve" font-family="AvenirNext-DemiBold" font-weight="bold" font-size="35.7" fill="#FFFFFF" transform="matrix(1.00, 0.00, -0.00, -1.00, 73.3, 109.0)">m</text><text xml:space="preserve" font-family="AvenirNext-DemiBold" font-weight="bold" font-size="35.7" fill="#FFFFFF" transform="matrix(1.00, 0.00, -0.00, -1.00, 105.1, 109.0)">a</text><text xml:space="preserve" font-family="AvenirNext-DemiBold" font-weight="bold" font-size="35.7" fill="#FFFFFF" transform="matrix(1.00, 0.00, -0.00, -1.00, 124.7, 109.0)">y</text><text xml:space="preserve" font-family="AvenirNext-DemiBold" font-weight="bold" font-size="35.7" fill="#FFFFFF" transform="matrix(1.00, 0.00, -0.00, -1.00, 143.0, 109.0)"> </text><text xml:space="preserve" font-family="AvenirNext-DemiBold" font-weight="bold" font-size="35.7" fill="#FFFFFF" transform="matrix(1.00, 0.00, -0.00, -1.00, 152.0, 109.0)">h</text><text xml:space="preserve" font-family="AvenirNext-DemiBold" font-weight="bold" font-size="35.7" fill="#FFFFFF" transform="matrix(1.00, 0.00, -0.00, -1.00, 172.8, 109.0)">a</text><text xml:space="preserve" font-family="AvenirNext-DemiBold" font-weight="bold" font-size="35.7" fill="#FFFFFF" transform="matrix(1.00, 0.00, -0.00, -1.00, 192.4, 109.0)">v</text><text xml:space="preserve" font-family="AvenirNext-DemiBold" font-weight="bold" font-size="35.7" fill="#FFFFFF" transform="matrix(1.00, 0.00, -0.00, -1.00, 210.8, 109.0)">e</text><text xml:space="preserve" font-family="AvenirNext-DemiBold" font-weight="bold" font-size="35.7" fill="#FFFFFF" transform="matrix(1.00, 0.00, -0.00, -1.00, 231.2, 109.0)"> </text><text xml:space="preserve" font-family="AvenirNext-DemiBold" font-weight="bold" font-size="35.7" fill="#FFFFFF" transform="matrix(1.00, 0.00, -0.00, -1.00, 240.2, 109.0)">n</text><text xml:space="preserve" font-family="AvenirNext-DemiBold" font-weight="bold" font-size="35.7" fill="#FFFFFF" transform="matrix(1.00, 0.00, -0.00, -1.00, 260.9, 109.0)">o</text><text xml:space="preserve" font-family="AvenirNext-DemiBold" font-weight="bold" font-size="35.7" fill="#FFFFFF" transform="matrix(1.00, 0.00, -0.00, -1.00, 282.7, 109.0)">t</text><text xml:space="preserve" font-family="AvenirNext-DemiBold" font-weight="bold" font-size="35.7" fill="#FFFFFF" transform="matrix(1.00, 0.00, -0.00, -1.00, 294.8, 109.0)">i</text><text xml:space="preserve" font-family="AvenirNext-DemiBold" font-weight="bold" font-size="35.7" fill="#FFFFFF" transform="matrix(1.00, 0.00, -0.00, -1.00, 304.4, 109.0)">c</text><text xml:space="preserve" font-family="AvenirNext-DemiBold" font-weight="bold" font-size="35.7" fill="#FFFFFF" transform="matrix(1.00, 0.00, -0.00, -1.00, 321.8, 109.0)">e</text><text xml:space="preserve" font-family="AvenirNext-DemiBold" font-weight="bold" font-size="35.7" fill="#FFFFFF" transform="matrix(1.00, 0.00, -0.00, -1.00, 342.3, 109.0)">d</text><text xml:space="preserve" font-family="AvenirNext-DemiBold" font-weight="bold" font-size="35.7" fill="#FFFFFF" transform="matrix(1.00, 0.00, -0.00, -1.00, 364.9, 109.0)"> </text><text xml:space="preserve" font-family="AvenirNext-DemiBold" font-weight="bold" font-size="35.7" fill="#FFFFFF" transform="matrix(1.00, 0.00, -0.00, -1.00, 373.9, 109.0)">t</text><text xml:space="preserve" font-family="AvenirNext-DemiBold" font-weight="bold" font-size="35.7" fill="#FFFFFF" transform="matrix(1.00, 0.00, -0.00, -1.00, 386.0, 109.0)">h</text><text xml:space="preserve" font-family="AvenirNext-DemiBold" font-weight="bold" font-size="35.7" fill="#FFFFFF" transform="matrix(1.00, 0.00, -0.00, -1.00, 406.8, 109.0)">a</text><text xml:space="preserve" font-family="AvenirNext-DemiBold" font-weight="bold" font-size="35.7" fill="#FFFFFF" transform="matrix(1.00, 0.00, -0.00, -1.00, 426.1, 109.0)">t</text><text xml:space="preserve" font-family="AvenirNext-DemiBold" font-weight="bold" font-size="35.7" fill="#FFFFFF" transform="matrix(1.00, 0.00, -0.00, -1.00, 438.2, 109.0)"> </text><text xml:space="preserve" font-family="AvenirNext-DemiBold" font-weight="bold" font-size="35.7" fill="#F1C114" transform="matrix(1.00, 0.00, -0.00, -1.00, 447.2, 109.0)">w</text><text xml:space="preserve" font-family="AvenirNext-DemiBold" font-weight="bold" font-size="35.7" fill="#F1C114" transform="matrix(1.00, 0.00, -0.00, -1.00, 475.9, 109.0)">r</text><text xml:space="preserve" font-family="AvenirNext-DemiBold" font-weight="bold" font-size="35.7" fill="#F1C114" transform="matrix(1.00, 0.00, -0.00, -1.00, 488.4, 109.0)">a</text><text xml:space="preserve" font-family="AvenirNext-DemiBold" font-weight="bold" font-size="35.7" fill="#F1C114" transform="matrix(1.00, 0.00, -0.00, -1.00, 508.0, 109.0)">p</text><text xml:space="preserve" font-family="AvenirNext-DemiBold" font-weight="bold" font-size="35.7" fill="#F1C114" transform="matrix(1.00, 0.00, -0.00, -1.00, 530.6, 109.0)">p</text><text xml:space="preserve" font-family="AvenirNext-DemiBold" font-weight="bold" font-size="35.7" fill="#F1C114" transform="matrix(1.00, 0.00, -0.00, -1.00, 553.2, 109.0)">i</text><text xml:space="preserve" font-family="AvenirNext-DemiBold" font-weight="bold" font-size="35.7" fill="#F1C114" transform="matrix(1.00, 0.00, -0.00, -1.00, 562.8, 109.0)">n</text><text xml:space="preserve" font-family="AvenirNext-DemiBold" font-weight="bold" font-size="35.7" fill="#F1C114" transform="matrix(1.00, 0.00, -0.00, -1.00, 583.5, 109.0)">g</text><text xml:space="preserve" font-family="AvenirNext-DemiBold" font-weight="bold" font-size="35.7" fill="#F1C114" transform="matrix(1.00, 0.00, -0.00, -1.00, 606.1, 109.0)"> </text><text xml:space="preserve" font-family="AvenirNext-DemiBold" font-weight="bold" font-size="35.7" fill="#F1C114" transform="matrix(1.00, 0.00, -0.00, -1.00, 615.0, 109.0)">e</text><text xml:space="preserve" font-family="AvenirNext-DemiBold" font-weight="bold" font-size="35.7" fill="#F1C114" transform="matrix(1.00, 0.00, -0.00, -1.00, 635.3, 109.0)">a</text><text xml:space="preserve" font-family="AvenirNext-DemiBold" font-weight="bold" font-size="35.7" fill="#F1C114" transform="matrix(1.00, 0.00, -0.00, -1.00, 654.9, 109.0)">c</text><text xml:space="preserve" font-family="AvenirNext-DemiBold" font-weight="bold" font-size="35.7" fill="#F1C114" transform="matrix(1.00, 0.00, -0.00, -1.00, 672.3, 109.0)">h</text><text xml:space="preserve" font-family="AvenirNext-DemiBold" font-weight="bold" font-size="35.7" fill="#F1C114" transform="matrix(1.00, 0.00, -0.00, -1.00, 693.2, 109.0)"> </text><text xml:space="preserve" font-family="AvenirNext-DemiBold" font-weight="bold" font-size="35.7" fill="#F1C114" transform="matrix(1.00, 0.00, -0.00, -1.00, 702.1, 109.0)">ï¬</text><text xml:space="preserve" font-family="AvenirNext-DemiBold" font-weight="bold" font-size="35.7" fill="#F1C114" transform="matrix(1.00, 0.00, -0.00, -1.00, 723.3, 109.0)">l</text><text xml:space="preserve" font-family="AvenirNext-DemiBold" font-weight="bold" font-size="35.7" fill="#F1C114" transform="matrix(1.00, 0.00, -0.00, -1.00, 732.8, 109.0)">e</text><text xml:space="preserve" font-family="AvenirNext-DemiBold" font-weight="bold" font-size="35.7" fill="#F1C114" transform="matrix(1.00, 0.00, -0.00, -1.00, 753.3, 109.0)"> </text><text xml:space="preserve" font-family="AvenirNext-DemiBold" font-weight="bold" font-size="35.7" fill="#F1C114" transform="matrix(1.00, 0.00, -0.00, -1.00, 762.2, 109.0)">i</text><text xml:space="preserve" font-family="AvenirNext-DemiBold" font-weight="bold" font-size="35.7" fill="#F1C114" transform="matrix(1.00, 0.00, -0.00, -1.00, 771.8, 109.0)">n</text><text xml:space="preserve" font-family="AvenirNext-DemiBold" font-weight="bold" font-size="35.7" fill="#F1C114" transform="matrix(1.00, 0.00, -0.00, -1.00, 792.6, 109.0)"> </text><text xml:space="preserve" font-family="AvenirNext-DemiBold" font-weight="bold" font-size="35.7" fill="#F1C114" transform="matrix(1.00, 0.00, -0.00, -1.00, 801.5, 109.0)">a</text><text xml:space="preserve" font-family="AvenirNext-DemiBold" font-weight="bold" font-size="35.7" fill="#F1C114" transform="matrix(1.00, 0.00, -0.00, -1.00, 821.1, 109.0)"> </text><text xml:space="preserve" font-family="AvenirNext-DemiBold" font-weight="bold" font-size="35.7" fill="#F1C114" transform="matrix(1.00, 0.00, -0.00, -1.00, 12.0, 60.0)">f</text><text xml:space="preserve" font-family="AvenirNext-DemiBold" font-weight="bold" font-size="35.7" fill="#F1C114" transform="matrix(1.00, 0.00, -0.00, -1.00, 23.6, 60.0)">u</text><text xml:space="preserve" font-family="AvenirNext-DemiBold" font-weight="bold" font-size="35.7" fill="#F1C114" transform="matrix(1.00, 0.00, -0.00, -1.00, 44.3, 60.0)">n</text><text xml:space="preserve" font-family="AvenirNext-DemiBold" font-weight="bold" font-size="35.7" fill="#F1C114" transform="matrix(1.00, 0.00, -0.00, -1.00, 65.1, 60.0)">c</text><text xml:space="preserve" font-family="AvenirNext-DemiBold" font-weight="bold" font-size="35.7" fill="#F1C114" transform="matrix(1.00, 0.00, -0.00, -1.00, 82.5, 60.0)">t</text><text xml:space="preserve" font-family="AvenirNext-DemiBold" font-weight="bold" font-size="35.7" fill="#F1C114" transform="matrix(1.00, 0.00, -0.00, -1.00, 94.7, 60.0)">i</text><text xml:space="preserve" font-family="AvenirNext-DemiBold" font-weight="bold" font-size="35.7" fill="#F1C114" transform="matrix(1.00, 0.00, -0.00, -1.00, 104.2, 60.0)">o</text><text xml:space="preserve" font-family="AvenirNext-DemiBold" font-weight="bold" font-size="35.7" fill="#F1C114" transform="matrix(1.00, 0.00, -0.00, -1.00, 126.0, 60.0)">n</text><text xml:space="preserve" font-family="AvenirNext-DemiBold" font-weight="bold" font-size="35.7" fill="#F1C114" transform="matrix(1.00, 0.00, -0.00, -1.00, 146.8, 60.0)"> </text><text xml:space="preserve" font-family="AvenirNext-DemiBold" font-weight="bold" font-size="35.7" fill="#FFFFFF" transform="matrix(1.00, 0.00, -0.00, -1.00, 155.7, 60.0)"> </text><text xml:space="preserve" font-family="AvenirNext-DemiBold" font-weight="bold" font-size="35.7" fill="#FFFFFF" transform="matrix(1.00, 0.00, -0.00, -1.00, 164.6, 60.0)">s</text><text xml:space="preserve" font-family="AvenirNext-DemiBold" font-weight="bold" font-size="35.7" fill="#FFFFFF" transform="matrix(1.00, 0.00, -0.00, -1.00, 180.5, 60.0)">o</text><text xml:space="preserve" font-family="AvenirNext-DemiBold" font-weight="bold" font-size="35.7" fill="#FFFFFF" transform="matrix(1.00, 0.00, -0.00, -1.00, 202.2, 60.0)">u</text><text xml:space="preserve" font-family="AvenirNext-DemiBold" font-weight="bold" font-size="35.7" fill="#FFFFFF" transform="matrix(1.00, 0.00, -0.00, -1.00, 223.0, 60.0)">n</text><text xml:space="preserve" font-family="AvenirNext-DemiBold" font-weight="bold" font-size="35.7" fill="#FFFFFF" transform="matrix(1.00, 0.00, -0.00, -1.00, 243.8, 60.0)">d</text><text xml:space="preserve" font-family="AvenirNext-DemiBold" font-weight="bold" font-size="35.7" fill="#FFFFFF" transform="matrix(1.00, 0.00, -0.00, -1.00, 266.4, 60.0)">s</text><text xml:space="preserve" font-family="AvenirNext-DemiBold" font-weight="bold" font-size="35.7" fill="#FFFFFF" transform="matrix(1.00, 0.00, -0.00, -1.00, 282.2, 60.0)"> </text><text xml:space="preserve" font-family="AvenirNext-DemiBold" font-weight="bold" font-size="35.7" fill="#FFFFFF" transform="matrix(1.00, 0.00, -0.00, -1.00, 291.2, 60.0)">l</text><text xml:space="preserve" font-family="AvenirNext-DemiBold" font-weight="bold" font-size="35.7" fill="#FFFFFF" transform="matrix(1.00, 0.00, -0.00, -1.00, 300.7, 60.0)">i</text><text xml:space="preserve" font-family="AvenirNext-DemiBold" font-weight="bold" font-size="35.7" fill="#FFFFFF" transform="matrix(1.00, 0.00, -0.00, -1.00, 310.3, 60.0)">k</text><text xml:space="preserve" font-family="AvenirNext-DemiBold" font-weight="bold" font-size="35.7" fill="#FFFFFF" transform="matrix(1.00, 0.00, -0.00, -1.00, 329.0, 60.0)">e</text><text xml:space="preserve" font-family="AvenirNext-DemiBold" font-weight="bold" font-size="35.7" fill="#FFFFFF" transform="matrix(1.00, 0.00, -0.00, -1.00, 349.5, 60.0)"> </text><text xml:space="preserve" font-family="AvenirNext-DemiBold" font-weight="bold" font-size="35.7" fill="#FFFFFF" transform="matrix(1.00, 0.00, -0.00, -1.00, 358.4, 60.0)">t</text><text xml:space="preserve" font-family="AvenirNext-DemiBold" font-weight="bold" font-size="35.7" fill="#FFFFFF" transform="matrix(1.00, 0.00, -0.00, -1.00, 370.6, 60.0)">a</text><text xml:space="preserve" font-family="AvenirNext-DemiBold" font-weight="bold" font-size="35.7" fill="#FFFFFF" transform="matrix(1.00, 0.00, -0.00, -1.00, 390.2, 60.0)">k</text><text xml:space="preserve" font-family="AvenirNext-DemiBold" font-weight="bold" font-size="35.7" fill="#FFFFFF" transform="matrix(1.00, 0.00, -0.00, -1.00, 409.6, 60.0)">i</text><text xml:space="preserve" font-family="AvenirNext-DemiBold" font-weight="bold" font-size="35.7" fill="#FFFFFF" transform="matrix(1.00, 0.00, -0.00, -1.00, 419.2, 60.0)">n</text><text xml:space="preserve" font-family="AvenirNext-DemiBold" font-weight="bold" font-size="35.7" fill="#FFFFFF" transform="matrix(1.00, 0.00, -0.00, -1.00, 439.9, 60.0)">g</text><text xml:space="preserve" font-family="AvenirNext-DemiBold" font-weight="bold" font-size="35.7" fill="#FFFFFF" transform="matrix(1.00, 0.00, -0.00, -1.00, 462.5, 60.0)"> </text><text xml:space="preserve" font-family="AvenirNext-DemiBold" font-weight="bold" font-size="35.7" fill="#FFFFFF" transform="matrix(1.00, 0.00, -0.00, -1.00, 471.4, 60.0)">s</text><text xml:space="preserve" font-family="AvenirNext-DemiBold" font-weight="bold" font-size="35.7" fill="#FFFFFF" transform="matrix(1.00, 0.00, -0.00, -1.00, 487.2, 60.0)">o</text><text xml:space="preserve" font-family="AvenirNext-DemiBold" font-weight="bold" font-size="35.7" fill="#FFFFFF" transform="matrix(1.00, 0.00, -0.00, -1.00, 509.0, 60.0)">u</text><text xml:space="preserve" font-family="AvenirNext-DemiBold" font-weight="bold" font-size="35.7" fill="#FFFFFF" transform="matrix(1.00, 0.00, -0.00, -1.00, 529.8, 60.0)">r</text><text xml:space="preserve" font-family="AvenirNext-DemiBold" font-weight="bold" font-size="35.7" fill="#FFFFFF" transform="matrix(1.00, 0.00, -0.00, -1.00, 542.1, 60.0)">c</text><text xml:space="preserve" font-family="AvenirNext-DemiBold" font-weight="bold" font-size="35.7" fill="#FFFFFF" transform="matrix(1.00, 0.00, -0.00, -1.00, 559.6, 60.0)">e</text><text xml:space="preserve" font-family="AvenirNext-DemiBold" font-weight="bold" font-size="35.7" fill="#FFFFFF" transform="matrix(1.00, 0.00, -0.00, -1.00, 580.0, 60.0)"> </text><text xml:space="preserve" font-family="AvenirNext-DemiBold" font-weight="bold" font-size="35.7" fill="#FFFFFF" transform="matrix(1.00, 0.00, -0.00, -1.00, 589.0, 60.0)">c</text><text xml:space="preserve" font-family="AvenirNext-DemiBold" font-weight="bold" font-size="35.7" fill="#FFFFFF" transform="matrix(1.00, 0.00, -0.00, -1.00, 606.4, 60.0)">o</text><text xml:space="preserve" font-family="AvenirNext-DemiBold" font-weight="bold" font-size="35.7" fill="#FFFFFF" transform="matrix(1.00, 0.00, -0.00, -1.00, 628.2, 60.0)">d</text><text xml:space="preserve" font-family="AvenirNext-DemiBold" font-weight="bold" font-size="35.7" fill="#FFFFFF" transform="matrix(1.00, 0.00, -0.00, -1.00, 650.8, 60.0)">e</text><text xml:space="preserve" font-family="AvenirNext-DemiBold" font-weight="bold" font-size="35.7" fill="#FFFFFF" transform="matrix(1.00, 0.00, -0.00, -1.00, 671.3, 60.0)">,</text><text xml:space="preserve" font-family="AvenirNext-DemiBold" font-weight="bold" font-size="35.7" fill="#FFFFFF" transform="matrix(1.00, 0.00, -0.00, -1.00, 679.5, 60.0)"> </text><text xml:space="preserve" font-family="AvenirNext-DemiBold" font-weight="bold" font-size="35.7" fill="#FFFFFF" transform="matrix(1.00, 0.00, -0.00, -1.00, 688.4, 60.0)">m</text><text xml:space="preserve" font-family="AvenirNext-DemiBold" font-weight="bold" font-size="35.7" fill="#FFFFFF" transform="matrix(1.00, 0.00, -0.00, -1.00, 720.2, 60.0)">a</text><text xml:space="preserve" font-family="AvenirNext-DemiBold" font-weight="bold" font-size="35.7" fill="#FFFFFF" transform="matrix(1.00, 0.00, -0.00, -1.00, 739.8, 60.0)">k</text><text xml:space="preserve" font-family="AvenirNext-DemiBold" font-weight="bold" font-size="35.7" fill="#FFFFFF" transform="matrix(1.00, 0.00, -0.00, -1.00, 759.2, 60.0)">i</text><text xml:space="preserve" font-family="AvenirNext-DemiBold" font-weight="bold" font-size="35.7" fill="#FFFFFF" transform="matrix(1.00, 0.00, -0.00, -1.00, 768.7, 60.0)">n</text><text xml:space="preserve" font-family="AvenirNext-DemiBold" font-weight="bold" font-size="35.7" fill="#FFFFFF" transform="matrix(1.00, 0.00, -0.00, -1.00, 789.5, 60.0)">g</text><text xml:space="preserve" font-family="AvenirNext-DemiBold" font-weight="bold" font-size="35.7" fill="#FFFFFF" transform="matrix(1.00, 0.00, -0.00, -1.00, 812.1, 60.0)"> </text><text xml:space="preserve" font-family="AvenirNext-DemiBold" font-weight="bold" font-size="35.7" fill="#FFFFFF" transform="matrix(1.00, 0.00, -0.00, -1.00, 133.0, 11.0)">c</text><text xml:space="preserve" font-family="AvenirNext-DemiBold" font-weight="bold" font-size="35.7" fill="#FFFFFF" transform="matrix(1.00, 0.00, -0.00, -1.00, 150.4, 11.0)">h</text><text xml:space="preserve" font-family="AvenirNext-DemiBold" font-weight="bold" font-size="35.7" fill="#FFFFFF" transform="matrix(1.00, 0.00, -0.00, -1.00, 171.3, 11.0)">a</text><text xml:space="preserve" font-family="AvenirNext-DemiBold" font-weight="bold" font-size="35.7" fill="#FFFFFF" transform="matrix(1.00, 0.00, -0.00, -1.00, 190.9, 11.0)">n</text><text xml:space="preserve" font-family="AvenirNext-DemiBold" font-weight="bold" font-size="35.7" fill="#FFFFFF" transform="matrix(1.00, 0.00, -0.00, -1.00, 211.7, 11.0)">g</text><text xml:space="preserve" font-family="AvenirNext-DemiBold" font-weight="bold" font-size="35.7" fill="#FFFFFF" transform="matrix(1.00, 0.00, -0.00, -1.00, 234.2, 11.0)">e</text><text xml:space="preserve" font-family="AvenirNext-DemiBold" font-weight="bold" font-size="35.7" fill="#FFFFFF" transform="matrix(1.00, 0.00, -0.00, -1.00, 254.7, 11.0)">s</text><text xml:space="preserve" font-family="AvenirNext-DemiBold" font-weight="bold" font-size="35.7" fill="#FFFFFF" transform="matrix(1.00, 0.00, -0.00, -1.00, 270.5, 11.0)">,</text><text xml:space="preserve" font-family="AvenirNext-DemiBold" font-weight="bold" font-size="35.7" fill="#FFFFFF" transform="matrix(1.00, 0.00, -0.00, -1.00, 278.8, 11.0)"> </text><text xml:space="preserve" font-family="AvenirNext-DemiBold" font-weight="bold" font-size="35.7" fill="#FFFFFF" transform="matrix(1.00, 0.00, -0.00, -1.00, 287.7, 11.0)">a</text><text xml:space="preserve" font-family="AvenirNext-DemiBold" font-weight="bold" font-size="35.7" fill="#FFFFFF" transform="matrix(1.00, 0.00, -0.00, -1.00, 307.3, 11.0)">n</text><text xml:space="preserve" font-family="AvenirNext-DemiBold" font-weight="bold" font-size="35.7" fill="#FFFFFF" transform="matrix(1.00, 0.00, -0.00, -1.00, 328.1, 11.0)">d</text><text xml:space="preserve" font-family="AvenirNext-DemiBold" font-weight="bold" font-size="35.7" fill="#FFFFFF" transform="matrix(1.00, 0.00, -0.00, -1.00, 350.7, 11.0)"> </text><text xml:space="preserve" font-family="AvenirNext-DemiBold" font-weight="bold" font-size="35.7" fill="#FFFFFF" transform="matrix(1.00, 0.00, -0.00, -1.00, 359.6, 11.0)">r</text><text xml:space="preserve" font-family="AvenirNext-DemiBold" font-weight="bold" font-size="35.7" fill="#FFFFFF" transform="matrix(1.00, 0.00, -0.00, -1.00, 372.0, 11.0)">e</text><text xml:space="preserve" font-family="AvenirNext-DemiBold" font-weight="bold" font-size="35.7" fill="#FFFFFF" transform="matrix(1.00, 0.00, -0.00, -1.00, 392.5, 11.0)">t</text><text xml:space="preserve" font-family="AvenirNext-DemiBold" font-weight="bold" font-size="35.7" fill="#FFFFFF" transform="matrix(1.00, 0.00, -0.00, -1.00, 404.6, 11.0)">u</text><text xml:space="preserve" font-family="AvenirNext-DemiBold" font-weight="bold" font-size="35.7" fill="#FFFFFF" transform="matrix(1.00, 0.00, -0.00, -1.00, 425.4, 11.0)">r</text><text xml:space="preserve" font-family="AvenirNext-DemiBold" font-weight="bold" font-size="35.7" fill="#FFFFFF" transform="matrix(1.00, 0.00, -0.00, -1.00, 438.4, 11.0)">n</text><text xml:space="preserve" font-family="AvenirNext-DemiBold" font-weight="bold" font-size="35.7" fill="#FFFFFF" transform="matrix(1.00, 0.00, -0.00, -1.00, 459.1, 11.0)">i</text><text xml:space="preserve" font-family="AvenirNext-DemiBold" font-weight="bold" font-size="35.7" fill="#FFFFFF" transform="matrix(1.00, 0.00, -0.00, -1.00, 468.7, 11.0)">n</text><text xml:space="preserve" font-family="AvenirNext-DemiBold" font-weight="bold" font-size="35.7" fill="#FFFFFF" transform="matrix(1.00, 0.00, -0.00, -1.00, 489.5, 11.0)">g</text><text xml:space="preserve" font-family="AvenirNext-DemiBold" font-weight="bold" font-size="35.7" fill="#FFFFFF" transform="matrix(1.00, 0.00, -0.00, -1.00, 512.0, 11.0)"> </text><text xml:space="preserve" font-family="AvenirNext-DemiBold" font-weight="bold" font-size="35.7" fill="#FFFFFF" transform="matrix(1.00, 0.00, -0.00, -1.00, 521.0, 11.0)">n</text><text xml:space="preserve" font-family="AvenirNext-DemiBold" font-weight="bold" font-size="35.7" fill="#FFFFFF" transform="matrix(1.00, 0.00, -0.00, -1.00, 541.7, 11.0)">e</text><text xml:space="preserve" font-family="AvenirNext-DemiBold" font-weight="bold" font-size="35.7" fill="#FFFFFF" transform="matrix(1.00, 0.00, -0.00, -1.00, 562.2, 11.0)">w</text><text xml:space="preserve" font-family="AvenirNext-DemiBold" font-weight="bold" font-size="35.7" fill="#FFFFFF" transform="matrix(1.00, 0.00, -0.00, -1.00, 590.9, 11.0)"> </text><text xml:space="preserve" font-family="AvenirNext-DemiBold" font-weight="bold" font-size="35.7" fill="#FFFFFF" transform="matrix(1.00, 0.00, -0.00, -1.00, 599.8, 11.0)">c</text><text xml:space="preserve" font-family="AvenirNext-DemiBold" font-weight="bold" font-size="35.7" fill="#FFFFFF" transform="matrix(1.00, 0.00, -0.00, -1.00, 617.2, 11.0)">o</text><text xml:space="preserve" font-family="AvenirNext-DemiBold" font-weight="bold" font-size="35.7" fill="#FFFFFF" transform="matrix(1.00, 0.00, -0.00, -1.00, 639.0, 11.0)">d</text><text xml:space="preserve" font-family="AvenirNext-DemiBold" font-weight="bold" font-size="35.7" fill="#FFFFFF" transform="matrix(1.00, 0.00, -0.00, -1.00, 661.6, 11.0)">e</text><text xml:space="preserve" font-family="AvenirNext-DemiBold" font-weight="bold" font-size="35.7" fill="#FFFFFF" transform="matrix(1.00, 0.00, -0.00, -1.00, 682.1, 11.0)">.</text></g></svg>