<?xml version="1.0" encoding="UTF-8" standalone="no"?><svg xmlns="http://www.w3.org/2000/svg" xmlns:xlink="http://www.w3.org/1999/xlink" clip-rule="evenodd" stroke-miterlimit="4.00" viewBox="0 0 915 80"><desc>SVG generated by Keynote</desc><defs></defs><g transform="matrix(1.00, 0.00, -0.00, -1.00, 0.0, 80.0)"><text xml:space="preserve" font-family="AvenirNext-DemiBold" font-weight="bold" font-size="35.7" fill="#F1C114" transform="matrix(1.00, 0.00, -0.00, -1.00, 0.0, 52.0)">I</text><text xml:space="preserve" font-family="AvenirNext-DemiBold" font-weight="bold" font-size="35.7" fill="#F1C114" transform="matrix(1.00, 0.00, -0.00, -1.00, 10.1, 52.0)">f</text><text xml:space="preserve" font-family="AvenirNext-DemiBold" font-weight="bold" font-size="35.7" fill="#F1C114" transform="matrix(1.00, 0.00, -0.00, -1.00, 22.5, 52.0)"> </text><text xml:space="preserve" font-family="AvenirNext-DemiBold" font-weight="bold" font-size="35.7" fill="#F1C114" transform="matrix(1.00, 0.00, -0.00, -1.00, 31.4, 52.0)">y</text><text xml:space="preserve" font-family="AvenirNext-DemiBold" font-weight="bold" font-size="35.7" fill="#F1C114" transform="matrix(1.00, 0.00, -0.00, -1.00, 49.7, 52.0)">o</text><text xml:space="preserve" font-family="AvenirNext-DemiBold" font-weight="bold" font-size="35.7" fill="#F1C114" transform="matrix(1.00, 0.00, -0.00, -1.00, 71.5, 52.0)">u</text><text xml:space="preserve" font-family="AvenirNext-DemiBold" font-weight="bold" font-size="35.7" fill="#F1C114" transform="matrix(1.00, 0.00, -0.00, -1.00, 92.3, 52.0)">’</text><text xml:space="preserve" font-family="AvenirNext-DemiBold" font-weight="bold" font-size="35.7" fill="#F1C114" transform="matrix(1.00, 0.00, -0.00, -1.00, 101.9, 52.0)">r</text><text xml:space="preserve" font-family="AvenirNext-DemiBold" font-weight="bold" font-size="35.7" fill="#F1C114" transform="matrix(1.00, 0.00, -0.00, -1.00, 114.2, 52.0)">e</text><text xml:space="preserve" font-family="AvenirNext-DemiBold" font-weight="bold" font-size="35.7" fill="#F1C114" transform="matrix(1.00, 0.00, -0.00, -1.00, 134.7, 52.0)"> </text><text xml:space="preserve" font-family="AvenirNext-DemiBold" font-weight="bold" font-size="35.7" fill="#F1C114" transform="matrix(1.00, 0.00, -0.00, -1.00, 143.7, 52.0)">t</text><text xml:space="preserve" font-family="AvenirNext-DemiBold" font-weight="bold" font-size="35.7" fill="#F1C114" transform="matrix(1.00, 0.00, -0.00, -1.00, 155.8, 52.0)">h</text><text xml:space="preserve" font-family="AvenirNext-DemiBold" font-weight="bold" font-size="35.7" fill="#F1C114" transform="matrix(1.00, 0.00, -0.00, -1.00, 176.6, 52.0)">i</text><text xml:space="preserve" font-family="AvenirNext-DemiBold" font-weight="bold" font-size="35.7" fill="#F1C114" transform="matrix(1.00, 0.00, -0.00, -1.00, 186.2, 52.0)">n</text><text xml:space="preserve" font-family="AvenirNext-DemiBold" font-weight="bold" font-size="35.7" fill="#F1C114" transform="matrix(1.00, 0.00, -0.00, -1.00, 207.0, 52.0)">k</text><text xml:space="preserve" font-family="AvenirNext-DemiBold" font-weight="bold" font-size="35.7" fill="#F1C114" transform="matrix(1.00, 0.00, -0.00, -1.00, 226.3, 52.0)">i</text><text xml:space="preserve" font-family="AvenirNext-DemiBold" font-weight="bold" font-size="35.7" fill="#F1C114" transform="matrix(1.00, 0.00, -0.00, -1.00, 235.9, 52.0)">n</text><text xml:space="preserve" font-family="AvenirNext-DemiBold" font-weight="bold" font-size="35.7" fill="#F1C114" transform="matrix(1.00, 0.00, -0.00, -1.00, 256.7, 52.0)">g</text><text xml:space="preserve" font-family="AvenirNext-DemiBold" font-weight="bold" font-size="35.7" fill="#F1C114" transform="matrix(1.00, 0.00, -0.00, -1.00, 279.2, 52.0)"> </text><text xml:space="preserve" font-family="AvenirNext-DemiBold" font-weight="bold" font-size="35.7" fill="#F1C114" transform="matrix(1.00, 0.00, -0.00, -1.00, 288.2, 52.0)">t</text><text xml:space="preserve" font-family="AvenirNext-DemiBold" font-weight="bold" font-size="35.7" fill="#F1C114" transform="matrix(1.00, 0.00, -0.00, -1.00, 300.3, 52.0)">h</text><text xml:space="preserve" font-family="AvenirNext-DemiBold" font-weight="bold" font-size="35.7" fill="#F1C114" transform="matrix(1.00, 0.00, -0.00, -1.00, 321.1, 52.0)">o</text><text xml:space="preserve" font-family="AvenirNext-DemiBold" font-weight="bold" font-size="35.7" fill="#F1C114" transform="matrix(1.00, 0.00, -0.00, -1.00, 342.9, 52.0)">s</text><text xml:space="preserve" font-family="AvenirNext-DemiBold" font-weight="bold" font-size="35.7" fill="#F1C114" transform="matrix(1.00, 0.00, -0.00, -1.00, 358.8, 52.0)">e</text><text xml:space="preserve" font-family="AvenirNext-DemiBold" font-weight="bold" font-size="35.7" fill="#F1C114" transform="matrix(1.00, 0.00, -0.00, -1.00, 379.2, 52.0)"> </text><text xml:space="preserve" font-family="AvenirNext-DemiBold" font-weight="bold" font-size="35.7" fill="#F1C114" transform="matrix(1.00, 0.00, -0.00, -1.00, 388.2, 52.0)">p</text><text xml:space="preserve" font-family="AvenirNext-DemiBold" font-weight="bold" font-size="35.7" fill="#F1C114" transform="matrix(1.00, 0.00, -0.00, -1.00, 410.8, 52.0)">r</text><text xml:space="preserve" font-family="AvenirNext-DemiBold" font-weight="bold" font-size="35.7" fill="#F1C114" transform="matrix(1.00, 0.00, -0.00, -1.00, 423.1, 52.0)">o</text><text xml:space="preserve" font-family="AvenirNext-DemiBold" font-weight="bold" font-size="35.7" fill="#F1C114" transform="matrix(1.00, 0.00, -0.00, -1.00, 444.9, 52.0)">c</text><text xml:space="preserve" font-family="AvenirNext-DemiBold" font-weight="bold" font-size="35.7" fill="#F1C114" transform="matrix(1.00, 0.00, -0.00, -1.00, 462.3, 52.0)">e</text><text xml:space="preserve" font-family="AvenirNext-DemiBold" font-weight="bold" font-size="35.7" fill="#F1C114" transform="matrix(1.00, 0.00, -0.00, -1.00, 482.8, 52.0)">s</text><text xml:space="preserve" font-family="AvenirNext-DemiBold" font-weight="bold" font-size="35.7" fill="#F1C114" transform="matrix(1.00, 0.00, -0.00, -1.00, 498.6, 52.0)">s</text><text xml:space="preserve" font-family="AvenirNext-DemiBold" font-weight="bold" font-size="35.7" fill="#F1C114" transform="matrix(1.00, 0.00, -0.00, -1.00, 514.5, 52.0)">e</text><text xml:space="preserve" font-family="AvenirNext-DemiBold" font-weight="bold" font-size="35.7" fill="#F1C114" transform="matrix(1.00, 0.00, -0.00, -1.00, 535.0, 52.0)">s</text><text xml:space="preserve" font-family="AvenirNext-DemiBold" font-weight="bold" font-size="35.7" fill="#F1C114" transform="matrix(1.00, 0.00, -0.00, -1.00, 550.8, 52.0)"> </text><text xml:space="preserve" font-family="AvenirNext-DemiBold" font-weight="bold" font-size="35.7" fill="#F1C114" transform="matrix(1.00, 0.00, -0.00, -1.00, 559.7, 52.0)">c</text><text xml:space="preserve" font-family="AvenirNext-DemiBold" font-weight="bold" font-size="35.7" fill="#F1C114" transform="matrix(1.00, 0.00, -0.00, -1.00, 577.1, 52.0)">o</text><text xml:space="preserve" font-family="AvenirNext-DemiBold" font-weight="bold" font-size="35.7" fill="#F1C114" transform="matrix(1.00, 0.00, -0.00, -1.00, 598.9, 52.0)">u</text><text xml:space="preserve" font-family="AvenirNext-DemiBold" font-weight="bold" font-size="35.7" fill="#F1C114" transform="matrix(1.00, 0.00, -0.00, -1.00, 619.7, 52.0)">l</text><text xml:space="preserve" font-family="AvenirNext-DemiBold" font-weight="bold" font-size="35.7" fill="#F1C114" transform="matrix(1.00, 0.00, -0.00, -1.00, 629.3, 52.0)">d</text><text xml:space="preserve" font-family="AvenirNext-DemiBold" font-weight="bold" font-size="35.7" fill="#F1C114" transform="matrix(1.00, 0.00, -0.00, -1.00, 651.9, 52.0)"> </text><text xml:space="preserve" font-family="AvenirNext-DemiBold" font-weight="bold" font-size="35.7" fill="#F1C114" transform="matrix(1.00, 0.00, -0.00, -1.00, 660.8, 52.0)">b</text><text xml:space="preserve" font-family="AvenirNext-DemiBold" font-weight="bold" font-size="35.7" fill="#F1C114" transform="matrix(1.00, 0.00, -0.00, -1.00, 683.5, 52.0)">e</text><text xml:space="preserve" font-family="AvenirNext-DemiBold" font-weight="bold" font-size="35.7" fill="#F1C114" transform="matrix(1.00, 0.00, -0.00, -1.00, 703.9, 52.0)"> </text><text xml:space="preserve" font-family="AvenirNext-DemiBold" font-weight="bold" font-size="35.7" fill="#F1C114" transform="matrix(1.00, 0.00, -0.00, -1.00, 712.9, 52.0)">l</text><text xml:space="preserve" font-family="AvenirNext-DemiBold" font-weight="bold" font-size="35.7" fill="#F1C114" transform="matrix(1.00, 0.00, -0.00, -1.00, 722.4, 52.0)">o</text><text xml:space="preserve" font-family="AvenirNext-DemiBold" font-weight="bold" font-size="35.7" fill="#F1C114" transform="matrix(1.00, 0.00, -0.00, -1.00, 744.2, 52.0)">a</text><text xml:space="preserve" font-family="AvenirNext-DemiBold" font-weight="bold" font-size="35.7" fill="#F1C114" transform="matrix(1.00, 0.00, -0.00, -1.00, 763.8, 52.0)">d</text><text xml:space="preserve" font-family="AvenirNext-DemiBold" font-weight="bold" font-size="35.7" fill="#F1C114" transform="matrix(1.00, 0.00, -0.00, -1.00, 786.5, 52.0)">e</text><text xml:space="preserve" font-family="AvenirNext-DemiBold" font-weight="bold" font-size="35.7" fill="#F1C114" transform="matrix(1.00, 0.00, -0.00, -1.00, 807.0, 52.0)">r</text><text xml:space="preserve" font-family="AvenirNext-DemiBold" font-weight="bold" font-size="35.7" fill="#F1C114" transform="matrix(1.00, 0.00, -0.00, -1.00, 819.9, 52.0)">s</text><text xml:space="preserve" font-family="AvenirNext-DemiBold" font-weight="bold" font-size="35.7" fill="#F1C114" transform="matrix(1.00, 0.00, -0.00, -1.00, 835.8, 52.0)">,</text><text xml:space="preserve" font-family="AvenirNext-DemiBold" font-weight="bold" font-size="35.7" fill="#F1C114" transform="matrix(1.00, 0.00, -0.00, -1.00, 844.0, 52.0)"> </text><text xml:space="preserve" font-family="AvenirNext-DemiBold" font-weight="bold" font-size="35.7" fill="#F1C114" transform="matrix(1.00, 0.00, -0.00, -1.00, 852.9, 52.0)">y</text><text xml:space="preserve" font-family="AvenirNext-DemiBold" font-weight="bold" font-size="35.7" fill="#F1C114" transform="matrix(1.00, 0.00, -0.00, -1.00, 871.2, 52.0)">o</text><text xml:space="preserve" font-family="AvenirNext-DemiBold" font-weight="bold" font-size="35.7" fill="#F1C114" transform="matrix(1.00, 0.00, -0.00, -1.00, 893.0, 52.0)">u</text><text xml:space="preserve" font-family="AvenirNext-DemiBold" font-weight="bold" font-size="35.7" fill="#F1C114" transform="matrix(1.00, 0.00, -0.00, -1.00, 913.8, 52.0)"> </text><text xml:space="preserve" font-family="AvenirNext-DemiBold" font-weight="bold" font-size="35.7" fill="#F1C114" transform="matrix(1.00, 0.00, -0.00, -1.00, 363.0, 3.0)">a</text><text xml:space="preserve" font-family="AvenirNext-DemiBold" font-weight="bold" font-size="35.7" fill="#F1C114" transform="matrix(1.00, 0.00, -0.00, -1.00, 382.6, 3.0)">r</text><text xml:space="preserve" font-family="AvenirNext-DemiBold" font-weight="bold" font-size="35.7" fill="#F1C114" transform="matrix(1.00, 0.00, -0.00, -1.00, 395.0, 3.0)">e</text><text xml:space="preserve" font-family="AvenirNext-DemiBold" font-weight="bold" font-size="35.7" fill="#F1C114" transform="matrix(1.00, 0.00, -0.00, -1.00, 415.5, 3.0)"> </text><text xml:space="preserve" font-family="AvenirNext-DemiBold" font-weight="bold" font-size="35.7" fill="#F1C114" transform="matrix(1.00, 0.00, -0.00, -1.00, 424.4, 3.0)">c</text><text xml:space="preserve" font-family="AvenirNext-DemiBold" font-weight="bold" font-size="35.7" fill="#F1C114" transform="matrix(1.00, 0.00, -0.00, -1.00, 441.8, 3.0)">o</text><text xml:space="preserve" font-family="AvenirNext-DemiBold" font-weight="bold" font-size="35.7" fill="#F1C114" transform="matrix(1.00, 0.00, -0.00, -1.00, 463.6, 3.0)">r</text><text xml:space="preserve" font-family="AvenirNext-DemiBold" font-weight="bold" font-size="35.7" fill="#F1C114" transform="matrix(1.00, 0.00, -0.00, -1.00, 476.6, 3.0)">r</text><text xml:space="preserve" font-family="AvenirNext-DemiBold" font-weight="bold" font-size="35.7" fill="#F1C114" transform="matrix(1.00, 0.00, -0.00, -1.00, 488.9, 3.0)">e</text><text xml:space="preserve" font-family="AvenirNext-DemiBold" font-weight="bold" font-size="35.7" fill="#F1C114" transform="matrix(1.00, 0.00, -0.00, -1.00, 509.4, 3.0)">c</text><text xml:space="preserve" font-family="AvenirNext-DemiBold" font-weight="bold" font-size="35.7" fill="#F1C114" transform="matrix(1.00, 0.00, -0.00, -1.00, 526.8, 3.0)">t</text><text xml:space="preserve" font-family="AvenirNext-DemiBold" font-weight="bold" font-size="35.7" fill="#F1C114" transform="matrix(1.00, 0.00, -0.00, -1.00, 539.0, 3.0)">!</text></g></svg>